<?xml version="1.0" encoding="utf-8" standalone="no"?>
<!DOCTYPE svg PUBLIC "-//W3C//DTD SVG 1.1//EN"
  "http://www.w3.org/Graphics/SVG/1.1/DTD/svg11.dtd">
<svg xmlns:xlink="http://www.w3.org/1999/xlink" width="90pt" height="144pt" viewBox="0 0 90 144" xmlns="http://www.w3.org/2000/svg" version="1.1">
 <metadata>
  <rdf:RDF xmlns:dc="http://purl.org/dc/elements/1.1/" xmlns:cc="http://creativecommons.org/ns#" xmlns:rdf="http://www.w3.org/1999/02/22-rdf-syntax-ns#">
   <cc:Work>
    <dc:type rdf:resource="http://purl.org/dc/dcmitype/StillImage"/>
    <dc:date>2025-02-19T20:39:30.731011</dc:date>
    <dc:format>image/svg+xml</dc:format>
    <dc:creator>
     <cc:Agent>
      <dc:title>Matplotlib v3.8.2, https://matplotlib.org/</dc:title>
     </cc:Agent>
    </dc:creator>
   </cc:Work>
  </rdf:RDF>
 </metadata>
 <defs>
  <style type="text/css">*{stroke-linejoin: round; stroke-linecap: butt}</style>
 </defs>
 <g id="figure_1">
  <g id="patch_1">
   <path d="M 0 144 
L 90 144 
L 90 0 
L 0 0 
z
" style="fill: #ffffff; stroke: #ffffff; stroke-linejoin: miter"/>
  </g>
  <g id="axes_1">
   <g id="patch_2">
    <path d="M 28.228281 114.443735 
L 89.1 114.443735 
L 89.1 0.9 
L 28.228281 0.9 
z
" style="fill: #ffffff"/>
   </g>
   <g id="matplotlib.axis_1">
    <g id="xtick_1">
     <g id="line2d_1">
      <path d="M 37.143836 114.443735 
L 37.143836 0.9 
" clip-path="url(#p37e4097e3f)" style="fill: none; stroke: #e5e5e5; stroke-linecap: square"/>
     </g>
     <g id="line2d_2">
      <path d="M 37.143836 114.443735 
" style="fill: none; stroke: #333333; stroke-width: 1.5; stroke-linecap: square"/>
      <defs>
       <path id="m071a6df0e2" d="M 0 0 
L 0 2.75 
" style="stroke: #333333"/>
      </defs>
      <g>
       <use xlink:href="#m071a6df0e2" x="37.143836" y="114.443735" style="fill: #333333; stroke: #333333"/>
      </g>
     </g>
     <g id="text_1">
      <!-- 25 -->
      <g style="fill: #4d4d4d" transform="translate(29.673253 129.543127) rotate(-45) scale(0.08 -0.08)">
       <defs>
        <path id="Helvetica-32" d="M 200 0 
Q 231 578 439 1006 
Q 647 1434 1250 1784 
L 1850 2131 
Q 2253 2366 2416 2531 
Q 2672 2791 2672 3125 
Q 2672 3516 2437 3745 
Q 2203 3975 1813 3975 
Q 1234 3975 1013 3538 
Q 894 3303 881 2888 
L 309 2888 
Q 319 3472 525 3841 
Q 891 4491 1816 4491 
Q 2584 4491 2939 4075 
Q 3294 3659 3294 3150 
Q 3294 2613 2916 2231 
Q 2697 2009 2131 1694 
L 1703 1456 
Q 1397 1288 1222 1134 
Q 909 863 828 531 
L 3272 531 
L 3272 0 
L 200 0 
z
" transform="scale(0.015625)"/>
        <path id="Helvetica-35" d="M 791 1141 
Q 847 659 1238 475 
Q 1438 381 1700 381 
Q 2200 381 2440 700 
Q 2681 1019 2681 1406 
Q 2681 1875 2395 2131 
Q 2109 2388 1709 2388 
Q 1419 2388 1211 2275 
Q 1003 2163 856 1963 
L 369 1991 
L 709 4400 
L 3034 4400 
L 3034 3856 
L 1131 3856 
L 941 2613 
Q 1097 2731 1238 2791 
Q 1488 2894 1816 2894 
Q 2431 2894 2859 2497 
Q 3288 2100 3288 1491 
Q 3288 856 2895 371 
Q 2503 -113 1644 -113 
Q 1097 -113 676 195 
Q 256 503 206 1141 
L 791 1141 
z
" transform="scale(0.015625)"/>
       </defs>
       <use xlink:href="#Helvetica-32"/>
       <use xlink:href="#Helvetica-35" x="55.615234"/>
      </g>
     </g>
    </g>
    <g id="xtick_2">
     <g id="line2d_3">
      <path d="M 52.515482 114.443735 
L 52.515482 0.9 
" clip-path="url(#p37e4097e3f)" style="fill: none; stroke: #e5e5e5; stroke-linecap: square"/>
     </g>
     <g id="line2d_4">
      <path d="M 52.515482 114.443735 
" style="fill: none; stroke: #333333; stroke-width: 1.5; stroke-linecap: square"/>
      <g>
       <use xlink:href="#m071a6df0e2" x="52.515482" y="114.443735" style="fill: #333333; stroke: #333333"/>
      </g>
     </g>
     <g id="text_2">
      <!-- 50 -->
      <g style="fill: #4d4d4d" transform="translate(45.044899 129.543127) rotate(-45) scale(0.08 -0.08)">
       <defs>
        <path id="Helvetica-30" d="M 1731 4475 
Q 2600 4475 2988 3759 
Q 3288 3206 3288 2244 
Q 3288 1331 3016 734 
Q 2622 -122 1728 -122 
Q 922 -122 528 578 
Q 200 1163 200 2147 
Q 200 2909 397 3456 
Q 766 4475 1731 4475 
z
M 1725 391 
Q 2163 391 2422 778 
Q 2681 1166 2681 2222 
Q 2681 2984 2493 3476 
Q 2306 3969 1766 3969 
Q 1269 3969 1039 3501 
Q 809 3034 809 2125 
Q 809 1441 956 1025 
Q 1181 391 1725 391 
z
" transform="scale(0.015625)"/>
       </defs>
       <use xlink:href="#Helvetica-35"/>
       <use xlink:href="#Helvetica-30" x="55.615234"/>
      </g>
     </g>
    </g>
    <g id="xtick_3">
     <g id="line2d_5">
      <path d="M 67.887128 114.443735 
L 67.887128 0.9 
" clip-path="url(#p37e4097e3f)" style="fill: none; stroke: #e5e5e5; stroke-linecap: square"/>
     </g>
     <g id="line2d_6">
      <path d="M 67.887128 114.443735 
" style="fill: none; stroke: #333333; stroke-width: 1.5; stroke-linecap: square"/>
      <g>
       <use xlink:href="#m071a6df0e2" x="67.887128" y="114.443735" style="fill: #333333; stroke: #333333"/>
      </g>
     </g>
     <g id="text_3">
      <!-- 75 -->
      <g style="fill: #4d4d4d" transform="translate(60.416545 129.543127) rotate(-45) scale(0.08 -0.08)">
       <defs>
        <path id="Helvetica-37" d="M 3347 4400 
L 3347 3909 
Q 3131 3700 2773 3181 
Q 2416 2663 2141 2063 
Q 1869 1478 1728 997 
Q 1638 688 1494 0 
L 872 0 
Q 1084 1281 1809 2550 
Q 2238 3294 2709 3834 
L 234 3834 
L 234 4400 
L 3347 4400 
z
" transform="scale(0.015625)"/>
       </defs>
       <use xlink:href="#Helvetica-37"/>
       <use xlink:href="#Helvetica-35" x="55.615234"/>
      </g>
     </g>
    </g>
    <g id="xtick_4">
     <g id="line2d_7">
      <path d="M 83.258774 114.443735 
L 83.258774 0.9 
" clip-path="url(#p37e4097e3f)" style="fill: none; stroke: #e5e5e5; stroke-linecap: square"/>
     </g>
     <g id="line2d_8">
      <path d="M 83.258774 114.443735 
" style="fill: none; stroke: #333333; stroke-width: 1.5; stroke-linecap: square"/>
      <g>
       <use xlink:href="#m071a6df0e2" x="83.258774" y="114.443735" style="fill: #333333; stroke: #333333"/>
      </g>
     </g>
     <g id="text_4">
      <!-- 100 -->
      <g style="fill: #4d4d4d" transform="translate(72.64245 132.688868) rotate(-45) scale(0.08 -0.08)">
       <defs>
        <path id="Helvetica-31" d="M 613 3169 
L 613 3600 
Q 1222 3659 1462 3798 
Q 1703 3938 1822 4456 
L 2266 4456 
L 2266 0 
L 1666 0 
L 1666 3169 
L 613 3169 
z
" transform="scale(0.015625)"/>
       </defs>
       <use xlink:href="#Helvetica-31"/>
       <use xlink:href="#Helvetica-30" x="55.615234"/>
       <use xlink:href="#Helvetica-30" x="111.230469"/>
      </g>
     </g>
    </g>
    <g id="xtick_5"/>
    <g id="xtick_6"/>
    <g id="xtick_7"/>
    <g id="xtick_8"/>
   </g>
   <g id="matplotlib.axis_2">
    <g id="ytick_1">
     <g id="line2d_9">
      <path d="M 28.228281 109.282656 
L 89.1 109.282656 
" clip-path="url(#p37e4097e3f)" style="fill: none; stroke: #e5e5e5; stroke-linecap: square"/>
     </g>
     <g id="line2d_10">
      <path d="M 28.228281 109.282656 
" style="fill: none; stroke: #333333; stroke-width: 1.5; stroke-linecap: square"/>
      <defs>
       <path id="m5b0a936492" d="M 0 0 
L -2.75 0 
" style="stroke: #333333"/>
      </defs>
      <g>
       <use xlink:href="#m5b0a936492" x="28.228281" y="109.282656" style="fill: #333333; stroke: #333333"/>
      </g>
     </g>
     <g id="text_5">
      <!-- 0 -->
      <g style="fill: #4d4d4d" transform="translate(19.029531 112.152031) scale(0.08 -0.08)">
       <use xlink:href="#Helvetica-30"/>
      </g>
     </g>
    </g>
    <g id="ytick_2">
     <g id="line2d_11">
      <path d="M 28.228281 83.477262 
L 89.1 83.477262 
" clip-path="url(#p37e4097e3f)" style="fill: none; stroke: #e5e5e5; stroke-linecap: square"/>
     </g>
     <g id="line2d_12">
      <path d="M 28.228281 83.477262 
" style="fill: none; stroke: #333333; stroke-width: 1.5; stroke-linecap: square"/>
      <g>
       <use xlink:href="#m5b0a936492" x="28.228281" y="83.477262" style="fill: #333333; stroke: #333333"/>
      </g>
     </g>
     <g id="text_6">
      <!-- 25 -->
      <g style="fill: #4d4d4d" transform="translate(14.580781 86.346637) scale(0.08 -0.08)">
       <use xlink:href="#Helvetica-32"/>
       <use xlink:href="#Helvetica-35" x="55.615234"/>
      </g>
     </g>
    </g>
    <g id="ytick_3">
     <g id="line2d_13">
      <path d="M 28.228281 57.671868 
L 89.1 57.671868 
" clip-path="url(#p37e4097e3f)" style="fill: none; stroke: #e5e5e5; stroke-linecap: square"/>
     </g>
     <g id="line2d_14">
      <path d="M 28.228281 57.671868 
" style="fill: none; stroke: #333333; stroke-width: 1.5; stroke-linecap: square"/>
      <g>
       <use xlink:href="#m5b0a936492" x="28.228281" y="57.671868" style="fill: #333333; stroke: #333333"/>
      </g>
     </g>
     <g id="text_7">
      <!-- 50 -->
      <g style="fill: #4d4d4d" transform="translate(14.580781 60.541243) scale(0.08 -0.08)">
       <use xlink:href="#Helvetica-35"/>
       <use xlink:href="#Helvetica-30" x="55.615234"/>
      </g>
     </g>
    </g>
    <g id="ytick_4">
     <g id="line2d_15">
      <path d="M 28.228281 31.866473 
L 89.1 31.866473 
" clip-path="url(#p37e4097e3f)" style="fill: none; stroke: #e5e5e5; stroke-linecap: square"/>
     </g>
     <g id="line2d_16">
      <path d="M 28.228281 31.866473 
" style="fill: none; stroke: #333333; stroke-width: 1.5; stroke-linecap: square"/>
      <g>
       <use xlink:href="#m5b0a936492" x="28.228281" y="31.866473" style="fill: #333333; stroke: #333333"/>
      </g>
     </g>
     <g id="text_8">
      <!-- 75 -->
      <g style="fill: #4d4d4d" transform="translate(14.580781 34.735848) scale(0.08 -0.08)">
       <use xlink:href="#Helvetica-37"/>
       <use xlink:href="#Helvetica-35" x="55.615234"/>
      </g>
     </g>
    </g>
    <g id="ytick_5">
     <g id="line2d_17">
      <path d="M 28.228281 6.061079 
L 89.1 6.061079 
" clip-path="url(#p37e4097e3f)" style="fill: none; stroke: #e5e5e5; stroke-linecap: square"/>
     </g>
     <g id="line2d_18">
      <path d="M 28.228281 6.061079 
" style="fill: none; stroke: #333333; stroke-width: 1.5; stroke-linecap: square"/>
      <g>
       <use xlink:href="#m5b0a936492" x="28.228281" y="6.061079" style="fill: #333333; stroke: #333333"/>
      </g>
     </g>
     <g id="text_9">
      <!-- 100 -->
      <g style="fill: #4d4d4d" transform="translate(10.132031 8.930454) scale(0.08 -0.08)">
       <use xlink:href="#Helvetica-31"/>
       <use xlink:href="#Helvetica-30" x="55.615234"/>
       <use xlink:href="#Helvetica-30" x="111.230469"/>
      </g>
     </g>
    </g>
    <g id="ytick_6"/>
    <g id="ytick_7"/>
    <g id="ytick_8"/>
    <g id="ytick_9"/>
   </g>
   <g id="PolyCollection_1">
    <path d="M 30.995178 109.282656 
L 30.995178 107.218225 
L 37.143836 107.218225 
L 37.143836 109.282656 
z
" clip-path="url(#p37e4097e3f)" style="fill: #db5f57; stroke: #000000; stroke-width: 0.886227"/>
    <path d="M 37.143836 109.282656 
L 37.143836 106.186009 
L 43.292494 106.186009 
L 43.292494 109.282656 
z
" clip-path="url(#p37e4097e3f)" style="fill: #db5f57; stroke: #000000; stroke-width: 0.886227"/>
    <path d="M 43.292494 109.282656 
L 43.292494 104.121578 
L 49.441153 104.121578 
L 49.441153 109.282656 
z
" clip-path="url(#p37e4097e3f)" style="fill: #db5f57; stroke: #000000; stroke-width: 0.886227"/>
    <path d="M 49.441153 109.282656 
L 49.441153 98.960499 
L 55.589811 98.960499 
L 55.589811 109.282656 
z
" clip-path="url(#p37e4097e3f)" style="fill: #db5f57; stroke: #000000; stroke-width: 0.886227"/>
    <path d="M 55.589811 109.282656 
L 55.589811 94.831636 
L 61.73847 94.831636 
L 61.73847 109.282656 
z
" clip-path="url(#p37e4097e3f)" style="fill: #db5f57; stroke: #000000; stroke-width: 0.886227"/>
    <path d="M 61.73847 109.282656 
L 61.73847 94.831636 
L 67.887128 94.831636 
L 67.887128 109.282656 
z
" clip-path="url(#p37e4097e3f)" style="fill: #db5f57; stroke: #000000; stroke-width: 0.886227"/>
    <path d="M 67.887128 109.282656 
L 67.887128 83.477262 
L 74.035787 83.477262 
L 74.035787 109.282656 
z
" clip-path="url(#p37e4097e3f)" style="fill: #db5f57; stroke: #000000; stroke-width: 0.886227"/>
    <path d="M 74.035787 109.282656 
L 74.035787 72.122888 
L 80.184445 72.122888 
L 80.184445 109.282656 
z
" clip-path="url(#p37e4097e3f)" style="fill: #db5f57; stroke: #000000; stroke-width: 0.886227"/>
    <path d="M 80.184445 109.282656 
L 80.184445 69.026241 
L 86.333104 69.026241 
L 86.333104 109.282656 
z
" clip-path="url(#p37e4097e3f)" style="fill: #db5f57; stroke: #000000; stroke-width: 0.886227"/>
   </g>
   <g id="PolyCollection_2">
    <path d="M 30.995178 109.282656 
L 30.995178 109.282656 
L 37.143836 109.282656 
L 37.143836 109.282656 
z
" clip-path="url(#p37e4097e3f)" style="fill: #57d3db; fill-opacity: 0.6; stroke: #000000; stroke-width: 0.886227"/>
    <path d="M 37.143836 109.282656 
L 37.143836 109.282656 
L 43.292494 109.282656 
L 43.292494 109.282656 
z
" clip-path="url(#p37e4097e3f)" style="fill: #57d3db; fill-opacity: 0.6; stroke: #000000; stroke-width: 0.886227"/>
    <path d="M 43.292494 109.282656 
L 43.292494 109.282656 
L 49.441153 109.282656 
L 49.441153 109.282656 
z
" clip-path="url(#p37e4097e3f)" style="fill: #57d3db; fill-opacity: 0.6; stroke: #000000; stroke-width: 0.886227"/>
    <path d="M 49.441153 109.282656 
L 49.441153 107.218225 
L 55.589811 107.218225 
L 55.589811 109.282656 
z
" clip-path="url(#p37e4097e3f)" style="fill: #57d3db; fill-opacity: 0.6; stroke: #000000; stroke-width: 0.886227"/>
    <path d="M 55.589811 109.282656 
L 55.589811 109.282656 
L 61.73847 109.282656 
L 61.73847 109.282656 
z
" clip-path="url(#p37e4097e3f)" style="fill: #57d3db; fill-opacity: 0.6; stroke: #000000; stroke-width: 0.886227"/>
    <path d="M 61.73847 109.282656 
L 61.73847 104.121578 
L 67.887128 104.121578 
L 67.887128 109.282656 
z
" clip-path="url(#p37e4097e3f)" style="fill: #57d3db; fill-opacity: 0.6; stroke: #000000; stroke-width: 0.886227"/>
    <path d="M 67.887128 109.282656 
L 67.887128 90.702772 
L 74.035787 90.702772 
L 74.035787 109.282656 
z
" clip-path="url(#p37e4097e3f)" style="fill: #57d3db; fill-opacity: 0.6; stroke: #000000; stroke-width: 0.886227"/>
    <path d="M 74.035787 109.282656 
L 74.035787 82.445046 
L 80.184445 82.445046 
L 80.184445 109.282656 
z
" clip-path="url(#p37e4097e3f)" style="fill: #57d3db; fill-opacity: 0.6; stroke: #000000; stroke-width: 0.886227"/>
    <path d="M 80.184445 109.282656 
L 80.184445 9.157726 
L 86.333104 9.157726 
L 86.333104 109.282656 
z
" clip-path="url(#p37e4097e3f)" style="fill: #57d3db; fill-opacity: 0.6; stroke: #000000; stroke-width: 0.886227"/>
   </g>
  </g>
  <g id="patch_3">
   <path d="M 28.228281 114.443735 
L 89.1 114.443735 
L 89.1 0.9 
L 28.228281 0.9 
L 28.228281 114.443735 
z
" style="fill: none; stroke: #7f7f7f; stroke-linejoin: miter"/>
  </g>
  <g id="text_10">
   <!-- ESA -->
   <g transform="translate(49.659219 141.224063) scale(0.09 -0.09)">
    <defs>
     <path id="Helvetica-45" d="M 547 4591 
L 3894 4591 
L 3894 4028 
L 1153 4028 
L 1153 2634 
L 3688 2634 
L 3688 2103 
L 1153 2103 
L 1153 547 
L 3941 547 
L 3941 0 
L 547 0 
L 547 4591 
z
M 2244 4591 
L 2244 4591 
z
" transform="scale(0.015625)"/>
     <path id="Helvetica-53" d="M 894 1481 
Q 916 1091 1078 847 
Q 1388 391 2169 391 
Q 2519 391 2806 491 
Q 3363 684 3363 1184 
Q 3363 1559 3128 1719 
Q 2891 1875 2384 1991 
L 1763 2131 
Q 1153 2269 900 2434 
Q 463 2722 463 3294 
Q 463 3913 891 4309 
Q 1319 4706 2103 4706 
Q 2825 4706 3329 4357 
Q 3834 4009 3834 3244 
L 3250 3244 
Q 3203 3613 3050 3809 
Q 2766 4169 2084 4169 
Q 1534 4169 1293 3937 
Q 1053 3706 1053 3400 
Q 1053 3063 1334 2906 
Q 1519 2806 2169 2656 
L 2813 2509 
Q 3278 2403 3531 2219 
Q 3969 1897 3969 1284 
Q 3969 522 3414 194 
Q 2859 -134 2125 -134 
Q 1269 -134 784 303 
Q 300 738 309 1481 
L 894 1481 
z
M 2150 4716 
L 2150 4716 
z
" transform="scale(0.015625)"/>
     <path id="Helvetica-41" d="M 2844 1881 
L 2147 3909 
L 1406 1881 
L 2844 1881 
z
M 1822 4591 
L 2525 4591 
L 4191 0 
L 3509 0 
L 3044 1375 
L 1228 1375 
L 731 0 
L 94 0 
L 1822 4591 
z
" transform="scale(0.015625)"/>
    </defs>
    <use xlink:href="#Helvetica-45"/>
    <use xlink:href="#Helvetica-53" x="66.699219"/>
    <use xlink:href="#Helvetica-41" x="133.398438"/>
   </g>
  </g>
  <g id="text_11">
   <!-- # Examples -->
   <g transform="translate(7.356094 81.181555) rotate(-90) scale(0.09 -0.09)">
    <defs>
     <path id="Helvetica-23" d="M 94 1753 
L 822 1753 
L 1116 2828 
L 391 2828 
L 488 3191 
L 1213 3191 
L 1584 4591 
L 2050 4591 
L 1672 3191 
L 2363 3191 
L 2747 4591 
L 3206 4591 
L 2828 3191 
L 3553 3191 
L 3456 2828 
L 2731 2828 
L 2434 1753 
L 3163 1753 
L 3066 1391 
L 2347 1391 
L 1963 0 
L 1503 0 
L 1881 1391 
L 1184 1391 
L 813 0 
L 347 0 
L 725 1391 
L 0 1391 
L 94 1753 
z
M 1969 1753 
L 2266 2828 
L 1575 2828 
L 1288 1753 
L 1969 1753 
z
" transform="scale(0.015625)"/>
     <path id="Helvetica-20" transform="scale(0.015625)"/>
     <path id="Helvetica-78" d="M 94 3347 
L 822 3347 
L 1591 2169 
L 2369 3347 
L 3053 3331 
L 1925 1716 
L 3103 0 
L 2384 0 
L 1553 1256 
L 747 0 
L 34 0 
L 1213 1716 
L 94 3347 
z
" transform="scale(0.015625)"/>
     <path id="Helvetica-61" d="M 844 891 
Q 844 647 1022 506 
Q 1200 366 1444 366 
Q 1741 366 2019 503 
Q 2488 731 2488 1250 
L 2488 1703 
Q 2384 1638 2221 1594 
Q 2059 1550 1903 1531 
L 1563 1488 
Q 1256 1447 1103 1359 
Q 844 1213 844 891 
z
M 2206 2028 
Q 2400 2053 2466 2191 
Q 2503 2266 2503 2406 
Q 2503 2694 2298 2823 
Q 2094 2953 1713 2953 
Q 1272 2953 1088 2716 
Q 984 2584 953 2325 
L 428 2325 
Q 444 2944 830 3186 
Q 1216 3428 1725 3428 
Q 2316 3428 2684 3203 
Q 3050 2978 3050 2503 
L 3050 575 
Q 3050 488 3086 434 
Q 3122 381 3238 381 
Q 3275 381 3322 386 
Q 3369 391 3422 400 
L 3422 -16 
Q 3291 -53 3222 -62 
Q 3153 -72 3034 -72 
Q 2744 -72 2613 134 
Q 2544 244 2516 444 
Q 2344 219 2022 53 
Q 1700 -113 1313 -113 
Q 847 -113 551 170 
Q 256 453 256 878 
Q 256 1344 547 1600 
Q 838 1856 1309 1916 
L 2206 2028 
z
M 1741 3428 
L 1741 3428 
z
" transform="scale(0.015625)"/>
     <path id="Helvetica-6d" d="M 413 3347 
L 969 3347 
L 969 2872 
Q 1169 3119 1331 3231 
Q 1609 3422 1963 3422 
Q 2363 3422 2606 3225 
Q 2744 3113 2856 2894 
Q 3044 3163 3297 3292 
Q 3550 3422 3866 3422 
Q 4541 3422 4784 2934 
Q 4916 2672 4916 2228 
L 4916 0 
L 4331 0 
L 4331 2325 
Q 4331 2659 4164 2784 
Q 3997 2909 3756 2909 
Q 3425 2909 3186 2687 
Q 2947 2466 2947 1947 
L 2947 0 
L 2375 0 
L 2375 2184 
Q 2375 2525 2294 2681 
Q 2166 2916 1816 2916 
Q 1497 2916 1236 2669 
Q 975 2422 975 1775 
L 975 0 
L 413 0 
L 413 3347 
z
" transform="scale(0.015625)"/>
     <path id="Helvetica-70" d="M 1825 378 
Q 2219 378 2480 708 
Q 2741 1038 2741 1694 
Q 2741 2094 2625 2381 
Q 2406 2934 1825 2934 
Q 1241 2934 1025 2350 
Q 909 2038 909 1556 
Q 909 1169 1025 897 
Q 1244 378 1825 378 
z
M 369 3331 
L 916 3331 
L 916 2888 
Q 1084 3116 1284 3241 
Q 1569 3428 1953 3428 
Q 2522 3428 2919 2992 
Q 3316 2556 3316 1747 
Q 3316 653 2744 184 
Q 2381 -113 1900 -113 
Q 1522 -113 1266 53 
Q 1116 147 931 375 
L 931 -1334 
L 369 -1334 
L 369 3331 
z
" transform="scale(0.015625)"/>
     <path id="Helvetica-6c" d="M 428 4591 
L 991 4591 
L 991 0 
L 428 0 
L 428 4591 
z
" transform="scale(0.015625)"/>
     <path id="Helvetica-65" d="M 1806 3422 
Q 2163 3422 2497 3255 
Q 2831 3088 3006 2822 
Q 3175 2569 3231 2231 
Q 3281 2000 3281 1494 
L 828 1494 
Q 844 984 1069 676 
Q 1294 369 1766 369 
Q 2206 369 2469 659 
Q 2619 828 2681 1050 
L 3234 1050 
Q 3213 866 3089 639 
Q 2966 413 2813 269 
Q 2556 19 2178 -69 
Q 1975 -119 1719 -119 
Q 1094 -119 659 336 
Q 225 791 225 1609 
Q 225 2416 662 2919 
Q 1100 3422 1806 3422 
z
M 2703 1941 
Q 2669 2306 2544 2525 
Q 2313 2931 1772 2931 
Q 1384 2931 1121 2651 
Q 859 2372 844 1941 
L 2703 1941 
z
M 1753 3428 
L 1753 3428 
z
" transform="scale(0.015625)"/>
     <path id="Helvetica-73" d="M 747 1050 
Q 772 769 888 619 
Q 1100 347 1625 347 
Q 1938 347 2175 483 
Q 2413 619 2413 903 
Q 2413 1119 2222 1231 
Q 2100 1300 1741 1391 
L 1294 1503 
Q 866 1609 663 1741 
Q 300 1969 300 2372 
Q 300 2847 642 3140 
Q 984 3434 1563 3434 
Q 2319 3434 2653 2991 
Q 2863 2709 2856 2384 
L 2325 2384 
Q 2309 2575 2191 2731 
Q 1997 2953 1519 2953 
Q 1200 2953 1036 2831 
Q 872 2709 872 2509 
Q 872 2291 1088 2159 
Q 1213 2081 1456 2022 
L 1828 1931 
Q 2434 1784 2641 1647 
Q 2969 1431 2969 969 
Q 2969 522 2630 197 
Q 2291 -128 1597 -128 
Q 850 -128 539 211 
Q 228 550 206 1050 
L 747 1050 
z
M 1578 3428 
L 1578 3428 
z
" transform="scale(0.015625)"/>
    </defs>
    <use xlink:href="#Helvetica-23"/>
    <use xlink:href="#Helvetica-20" x="55.615234"/>
    <use xlink:href="#Helvetica-45" x="83.398438"/>
    <use xlink:href="#Helvetica-78" x="150.097656"/>
    <use xlink:href="#Helvetica-61" x="200.097656"/>
    <use xlink:href="#Helvetica-6d" x="255.712891"/>
    <use xlink:href="#Helvetica-70" x="339.013672"/>
    <use xlink:href="#Helvetica-6c" x="394.628906"/>
    <use xlink:href="#Helvetica-65" x="416.845703"/>
    <use xlink:href="#Helvetica-73" x="472.460938"/>
   </g>
  </g>
  <g id="patch_4">
   <path d="M 38.790297 45.208747 
L 64.455297 45.208747 
L 64.455297 18.208747 
L 38.790297 18.208747 
z
" style="fill: #ffffff"/>
  </g>
  <g id="patch_5">
   <path d="M 40.790297 28.208747 
L 48.790297 28.208747 
L 48.790297 20.208747 
L 40.790297 20.208747 
L 40.790297 28.208747 
z
" clip-path="url(#pdd20f561ab)" style="fill: none; stroke: #cccccc; stroke-linejoin: miter"/>
  </g>
  <g id="patch_6">
   <path d="M 40.23341 28.765634 
L 49.347183 28.765634 
L 49.347183 19.651861 
L 40.23341 19.651861 
z
" clip-path="url(#pdd20f561ab)" style="fill: #db5f57; stroke: #000000; stroke-width: 0.886227; stroke-linejoin: miter; stroke-linecap: square"/>
  </g>
  <g id="patch_7">
   <path d="M 40.23341 28.765634 
L 49.347183 28.765634 
L 49.347183 19.651861 
L 40.23341 19.651861 
z
" clip-path="url(#pdd20f561ab)" style="fill: #db5f57; fill-opacity: 0.6; stroke: #000000; stroke-width: 0.886227; stroke-linejoin: miter; stroke-linecap: square"/>
  </g>
  <g id="text_12">
   <!-- MT -->
   <g transform="translate(50.750297 26.447935) scale(0.088 -0.088)">
    <defs>
     <path id="Helvetica-4d" d="M 472 4591 
L 1363 4591 
L 2681 709 
L 3991 4591 
L 4872 4591 
L 4872 0 
L 4281 0 
L 4281 2709 
Q 4281 2850 4287 3175 
Q 4294 3500 4294 3872 
L 2984 0 
L 2369 0 
L 1050 3872 
L 1050 3731 
Q 1050 3563 1058 3217 
Q 1066 2872 1066 2709 
L 1066 0 
L 472 0 
L 472 4591 
z
" transform="scale(0.015625)"/>
     <path id="Helvetica-54" d="M 3828 4591 
L 3828 4044 
L 2281 4044 
L 2281 0 
L 1650 0 
L 1650 4044 
L 103 4044 
L 103 4591 
L 3828 4591 
z
" transform="scale(0.015625)"/>
    </defs>
    <use xlink:href="#Helvetica-4d"/>
    <use xlink:href="#Helvetica-54" x="83.300781"/>
   </g>
  </g>
  <g id="patch_8">
   <path d="M 40.790297 43.208747 
L 48.790297 43.208747 
L 48.790297 35.208747 
L 40.790297 35.208747 
L 40.790297 43.208747 
z
" clip-path="url(#pa8c04be119)" style="fill: none; stroke: #cccccc; stroke-linejoin: miter"/>
  </g>
  <g id="patch_9">
   <path d="M 40.23341 43.765634 
L 49.347183 43.765634 
L 49.347183 34.651861 
L 40.23341 34.651861 
z
" clip-path="url(#pa8c04be119)" style="fill: #57d3db; stroke: #000000; stroke-width: 0.886227; stroke-linejoin: miter; stroke-linecap: square"/>
  </g>
  <g id="patch_10">
   <path d="M 40.23341 43.765634 
L 49.347183 43.765634 
L 49.347183 34.651861 
L 40.23341 34.651861 
z
" clip-path="url(#pa8c04be119)" style="fill: #57d3db; fill-opacity: 0.6; stroke: #000000; stroke-width: 0.886227; stroke-linejoin: miter; stroke-linecap: square"/>
  </g>
  <g id="text_13">
   <!-- PE -->
   <g transform="translate(50.750297 41.447935) scale(0.088 -0.088)">
    <defs>
     <path id="Helvetica-50" d="M 547 4591 
L 2613 4591 
Q 3225 4591 3600 4245 
Q 3975 3900 3975 3275 
Q 3975 2738 3640 2339 
Q 3306 1941 2613 1941 
L 1169 1941 
L 1169 0 
L 547 0 
L 547 4591 
z
M 3347 3272 
Q 3347 3778 2972 3959 
Q 2766 4056 2406 4056 
L 1169 4056 
L 1169 2466 
L 2406 2466 
Q 2825 2466 3086 2644 
Q 3347 2822 3347 3272 
z
" transform="scale(0.015625)"/>
    </defs>
    <use xlink:href="#Helvetica-50"/>
    <use xlink:href="#Helvetica-45" x="66.699219"/>
   </g>
  </g>
 </g>
 <defs>
  <clipPath id="p37e4097e3f">
   <rect x="28.228281" y="0.9" width="60.871719" height="113.543735"/>
  </clipPath>
  <clipPath id="pdd20f561ab">
   <path d="M 39.790297 29.208747 
L 39.790297 19.208747 
L 49.790297 19.208747 
L 49.790297 29.208747 
"/>
  </clipPath>
  <clipPath id="pa8c04be119">
   <path d="M 39.790297 44.208747 
L 39.790297 34.208747 
L 49.790297 34.208747 
L 49.790297 44.208747 
"/>
  </clipPath>
 </defs>
</svg>
