<?xml version="1.0" encoding="utf-8" standalone="no"?>
<!DOCTYPE svg PUBLIC "-//W3C//DTD SVG 1.1//EN"
  "http://www.w3.org/Graphics/SVG/1.1/DTD/svg11.dtd">
<svg xmlns:xlink="http://www.w3.org/1999/xlink" width="216pt" height="216pt" viewBox="0 0 216 216" xmlns="http://www.w3.org/2000/svg" version="1.1">
 <metadata>
  <rdf:RDF xmlns:dc="http://purl.org/dc/elements/1.1/" xmlns:cc="http://creativecommons.org/ns#" xmlns:rdf="http://www.w3.org/1999/02/22-rdf-syntax-ns#">
   <cc:Work>
    <dc:type rdf:resource="http://purl.org/dc/dcmitype/StillImage"/>
    <dc:date>2025-02-21T12:50:06.529127</dc:date>
    <dc:format>image/svg+xml</dc:format>
    <dc:creator>
     <cc:Agent>
      <dc:title>Matplotlib v3.8.2, https://matplotlib.org/</dc:title>
     </cc:Agent>
    </dc:creator>
   </cc:Work>
  </rdf:RDF>
 </metadata>
 <defs>
  <style type="text/css">*{stroke-linejoin: round; stroke-linecap: butt}</style>
 </defs>
 <g id="figure_1">
  <g id="patch_1">
   <path d="M 0 216 
L 216 216 
L 216 0 
L 0 0 
z
" style="fill: #ffffff; stroke: #ffffff; stroke-linejoin: miter"/>
  </g>
  <g id="axes_1">
   <g id="patch_2">
    <path d="M 26.299531 98.823092 
L 111.916307 98.823092 
L 111.916307 16.173542 
L 26.299531 16.173542 
z
" style="fill: #ffffff"/>
   </g>
   <g id="matplotlib.axis_1">
    <g id="xtick_1">
     <g id="line2d_1">
      <path d="M 33.729086 98.823092 
L 33.729086 16.173542 
" clip-path="url(#p8c1aa36bd6)" style="fill: none; stroke: #e5e5e5; stroke-linecap: square"/>
     </g>
    </g>
    <g id="xtick_2">
     <g id="line2d_2">
      <path d="M 51.418503 98.823092 
L 51.418503 16.173542 
" clip-path="url(#p8c1aa36bd6)" style="fill: none; stroke: #e5e5e5; stroke-linecap: square"/>
     </g>
    </g>
    <g id="xtick_3">
     <g id="line2d_3">
      <path d="M 69.107919 98.823092 
L 69.107919 16.173542 
" clip-path="url(#p8c1aa36bd6)" style="fill: none; stroke: #e5e5e5; stroke-linecap: square"/>
     </g>
    </g>
    <g id="xtick_4">
     <g id="line2d_4">
      <path d="M 86.797336 98.823092 
L 86.797336 16.173542 
" clip-path="url(#p8c1aa36bd6)" style="fill: none; stroke: #e5e5e5; stroke-linecap: square"/>
     </g>
    </g>
    <g id="xtick_5">
     <g id="line2d_5">
      <path d="M 104.486752 98.823092 
L 104.486752 16.173542 
" clip-path="url(#p8c1aa36bd6)" style="fill: none; stroke: #e5e5e5; stroke-linecap: square"/>
     </g>
    </g>
    <g id="xtick_6"/>
    <g id="xtick_7"/>
    <g id="xtick_8"/>
    <g id="xtick_9"/>
   </g>
   <g id="matplotlib.axis_2">
    <g id="ytick_1">
     <g id="line2d_6">
      <path d="M 26.299531 95.066294 
L 111.916307 95.066294 
" clip-path="url(#p8c1aa36bd6)" style="fill: none; stroke: #e5e5e5; stroke-linecap: square"/>
     </g>
     <g id="line2d_7">
      <path d="M 26.299531 95.066294 
" style="fill: none; stroke: #333333; stroke-width: 1.5; stroke-linecap: square"/>
      <defs>
       <path id="mde01343872" d="M 0 0 
L -2.75 0 
" style="stroke: #333333"/>
      </defs>
      <g>
       <use xlink:href="#mde01343872" x="26.299531" y="95.066294" style="fill: #333333; stroke: #333333"/>
      </g>
     </g>
     <g id="text_1">
      <!-- 0 -->
      <g style="fill: #4d4d4d" transform="translate(17.100781 97.935669) scale(0.08 -0.08)">
       <defs>
        <path id="Helvetica-30" d="M 1731 4475 
Q 2600 4475 2988 3759 
Q 3288 3206 3288 2244 
Q 3288 1331 3016 734 
Q 2622 -122 1728 -122 
Q 922 -122 528 578 
Q 200 1163 200 2147 
Q 200 2909 397 3456 
Q 766 4475 1731 4475 
z
M 1725 391 
Q 2163 391 2422 778 
Q 2681 1166 2681 2222 
Q 2681 2984 2493 3476 
Q 2306 3969 1766 3969 
Q 1269 3969 1039 3501 
Q 809 3034 809 2125 
Q 809 1441 956 1025 
Q 1181 391 1725 391 
z
" transform="scale(0.015625)"/>
       </defs>
       <use xlink:href="#Helvetica-30"/>
      </g>
     </g>
    </g>
    <g id="ytick_2">
     <g id="line2d_8">
      <path d="M 26.299531 80.039103 
L 111.916307 80.039103 
" clip-path="url(#p8c1aa36bd6)" style="fill: none; stroke: #e5e5e5; stroke-linecap: square"/>
     </g>
     <g id="line2d_9">
      <path d="M 26.299531 80.039103 
" style="fill: none; stroke: #333333; stroke-width: 1.5; stroke-linecap: square"/>
      <g>
       <use xlink:href="#mde01343872" x="26.299531" y="80.039103" style="fill: #333333; stroke: #333333"/>
      </g>
     </g>
     <g id="text_2">
      <!-- 10 -->
      <g style="fill: #4d4d4d" transform="translate(12.652031 82.908478) scale(0.08 -0.08)">
       <defs>
        <path id="Helvetica-31" d="M 613 3169 
L 613 3600 
Q 1222 3659 1462 3798 
Q 1703 3938 1822 4456 
L 2266 4456 
L 2266 0 
L 1666 0 
L 1666 3169 
L 613 3169 
z
" transform="scale(0.015625)"/>
       </defs>
       <use xlink:href="#Helvetica-31"/>
       <use xlink:href="#Helvetica-30" x="55.615234"/>
      </g>
     </g>
    </g>
    <g id="ytick_3">
     <g id="line2d_10">
      <path d="M 26.299531 65.011912 
L 111.916307 65.011912 
" clip-path="url(#p8c1aa36bd6)" style="fill: none; stroke: #e5e5e5; stroke-linecap: square"/>
     </g>
     <g id="line2d_11">
      <path d="M 26.299531 65.011912 
" style="fill: none; stroke: #333333; stroke-width: 1.5; stroke-linecap: square"/>
      <g>
       <use xlink:href="#mde01343872" x="26.299531" y="65.011912" style="fill: #333333; stroke: #333333"/>
      </g>
     </g>
     <g id="text_3">
      <!-- 20 -->
      <g style="fill: #4d4d4d" transform="translate(12.652031 67.881287) scale(0.08 -0.08)">
       <defs>
        <path id="Helvetica-32" d="M 200 0 
Q 231 578 439 1006 
Q 647 1434 1250 1784 
L 1850 2131 
Q 2253 2366 2416 2531 
Q 2672 2791 2672 3125 
Q 2672 3516 2437 3745 
Q 2203 3975 1813 3975 
Q 1234 3975 1013 3538 
Q 894 3303 881 2888 
L 309 2888 
Q 319 3472 525 3841 
Q 891 4491 1816 4491 
Q 2584 4491 2939 4075 
Q 3294 3659 3294 3150 
Q 3294 2613 2916 2231 
Q 2697 2009 2131 1694 
L 1703 1456 
Q 1397 1288 1222 1134 
Q 909 863 828 531 
L 3272 531 
L 3272 0 
L 200 0 
z
" transform="scale(0.015625)"/>
       </defs>
       <use xlink:href="#Helvetica-32"/>
       <use xlink:href="#Helvetica-30" x="55.615234"/>
      </g>
     </g>
    </g>
    <g id="ytick_4">
     <g id="line2d_12">
      <path d="M 26.299531 49.984721 
L 111.916307 49.984721 
" clip-path="url(#p8c1aa36bd6)" style="fill: none; stroke: #e5e5e5; stroke-linecap: square"/>
     </g>
     <g id="line2d_13">
      <path d="M 26.299531 49.984721 
" style="fill: none; stroke: #333333; stroke-width: 1.5; stroke-linecap: square"/>
      <g>
       <use xlink:href="#mde01343872" x="26.299531" y="49.984721" style="fill: #333333; stroke: #333333"/>
      </g>
     </g>
     <g id="text_4">
      <!-- 30 -->
      <g style="fill: #4d4d4d" transform="translate(12.652031 52.854096) scale(0.08 -0.08)">
       <defs>
        <path id="Helvetica-33" d="M 1663 -122 
Q 869 -122 511 314 
Q 153 750 153 1375 
L 741 1375 
Q 778 941 903 744 
Q 1122 391 1694 391 
Q 2138 391 2406 628 
Q 2675 866 2675 1241 
Q 2675 1703 2392 1887 
Q 2109 2072 1606 2072 
Q 1550 2072 1492 2070 
Q 1434 2069 1375 2066 
L 1375 2563 
Q 1463 2553 1522 2550 
Q 1581 2547 1650 2547 
Q 1966 2547 2169 2647 
Q 2525 2822 2525 3272 
Q 2525 3606 2287 3787 
Q 2050 3969 1734 3969 
Q 1172 3969 956 3594 
Q 838 3388 822 3006 
L 266 3006 
Q 266 3506 466 3856 
Q 809 4481 1675 4481 
Q 2359 4481 2734 4176 
Q 3109 3872 3109 3294 
Q 3109 2881 2888 2625 
Q 2750 2466 2531 2375 
Q 2884 2278 3082 2001 
Q 3281 1725 3281 1325 
Q 3281 684 2859 281 
Q 2438 -122 1663 -122 
z
" transform="scale(0.015625)"/>
       </defs>
       <use xlink:href="#Helvetica-33"/>
       <use xlink:href="#Helvetica-30" x="55.615234"/>
      </g>
     </g>
    </g>
    <g id="ytick_5">
     <g id="line2d_14">
      <path d="M 26.299531 34.95753 
L 111.916307 34.95753 
" clip-path="url(#p8c1aa36bd6)" style="fill: none; stroke: #e5e5e5; stroke-linecap: square"/>
     </g>
     <g id="line2d_15">
      <path d="M 26.299531 34.95753 
" style="fill: none; stroke: #333333; stroke-width: 1.5; stroke-linecap: square"/>
      <g>
       <use xlink:href="#mde01343872" x="26.299531" y="34.95753" style="fill: #333333; stroke: #333333"/>
      </g>
     </g>
     <g id="text_5">
      <!-- 40 -->
      <g style="fill: #4d4d4d" transform="translate(12.652031 37.826905) scale(0.08 -0.08)">
       <defs>
        <path id="Helvetica-34" d="M 2116 1584 
L 2116 3613 
L 681 1584 
L 2116 1584 
z
M 2125 0 
L 2125 1094 
L 163 1094 
L 163 1644 
L 2213 4488 
L 2688 4488 
L 2688 1584 
L 3347 1584 
L 3347 1094 
L 2688 1094 
L 2688 0 
L 2125 0 
z
" transform="scale(0.015625)"/>
       </defs>
       <use xlink:href="#Helvetica-34"/>
       <use xlink:href="#Helvetica-30" x="55.615234"/>
      </g>
     </g>
    </g>
    <g id="ytick_6">
     <g id="line2d_16">
      <path d="M 26.299531 19.930339 
L 111.916307 19.930339 
" clip-path="url(#p8c1aa36bd6)" style="fill: none; stroke: #e5e5e5; stroke-linecap: square"/>
     </g>
     <g id="line2d_17">
      <path d="M 26.299531 19.930339 
" style="fill: none; stroke: #333333; stroke-width: 1.5; stroke-linecap: square"/>
      <g>
       <use xlink:href="#mde01343872" x="26.299531" y="19.930339" style="fill: #333333; stroke: #333333"/>
      </g>
     </g>
     <g id="text_6">
      <!-- 50 -->
      <g style="fill: #4d4d4d" transform="translate(12.652031 22.799714) scale(0.08 -0.08)">
       <defs>
        <path id="Helvetica-35" d="M 791 1141 
Q 847 659 1238 475 
Q 1438 381 1700 381 
Q 2200 381 2440 700 
Q 2681 1019 2681 1406 
Q 2681 1875 2395 2131 
Q 2109 2388 1709 2388 
Q 1419 2388 1211 2275 
Q 1003 2163 856 1963 
L 369 1991 
L 709 4400 
L 3034 4400 
L 3034 3856 
L 1131 3856 
L 941 2613 
Q 1097 2731 1238 2791 
Q 1488 2894 1816 2894 
Q 2431 2894 2859 2497 
Q 3288 2100 3288 1491 
Q 3288 856 2895 371 
Q 2503 -113 1644 -113 
Q 1097 -113 676 195 
Q 256 503 206 1141 
L 791 1141 
z
" transform="scale(0.015625)"/>
       </defs>
       <use xlink:href="#Helvetica-35"/>
       <use xlink:href="#Helvetica-30" x="55.615234"/>
      </g>
     </g>
    </g>
    <g id="ytick_7"/>
    <g id="ytick_8"/>
    <g id="ytick_9"/>
    <g id="ytick_10"/>
    <g id="ytick_11"/>
   </g>
   <g id="PolyCollection_1">
    <path d="M 30.191203 95.066294 
L 30.191203 95.066294 
L 37.26697 95.066294 
L 37.26697 95.066294 
z
" clip-path="url(#p8c1aa36bd6)" style="fill: #db5f57; stroke: #000000; stroke-width: 0.886227"/>
    <path d="M 37.26697 95.066294 
L 37.26697 95.066294 
L 44.342736 95.066294 
L 44.342736 95.066294 
z
" clip-path="url(#p8c1aa36bd6)" style="fill: #db5f57; stroke: #000000; stroke-width: 0.886227"/>
    <path d="M 44.342736 95.066294 
L 44.342736 95.066294 
L 51.418503 95.066294 
L 51.418503 95.066294 
z
" clip-path="url(#p8c1aa36bd6)" style="fill: #db5f57; stroke: #000000; stroke-width: 0.886227"/>
    <path d="M 51.418503 95.066294 
L 51.418503 92.060856 
L 58.494269 92.060856 
L 58.494269 95.066294 
z
" clip-path="url(#p8c1aa36bd6)" style="fill: #db5f57; stroke: #000000; stroke-width: 0.886227"/>
    <path d="M 58.494269 95.066294 
L 58.494269 87.552698 
L 65.570036 87.552698 
L 65.570036 95.066294 
z
" clip-path="url(#p8c1aa36bd6)" style="fill: #db5f57; stroke: #000000; stroke-width: 0.886227"/>
    <path d="M 65.570036 95.066294 
L 65.570036 92.060856 
L 72.645803 92.060856 
L 72.645803 95.066294 
z
" clip-path="url(#p8c1aa36bd6)" style="fill: #db5f57; stroke: #000000; stroke-width: 0.886227"/>
    <path d="M 72.645803 95.066294 
L 72.645803 86.049979 
L 79.721569 86.049979 
L 79.721569 95.066294 
z
" clip-path="url(#p8c1aa36bd6)" style="fill: #db5f57; stroke: #000000; stroke-width: 0.886227"/>
    <path d="M 79.721569 95.066294 
L 79.721569 81.541822 
L 86.797336 81.541822 
L 86.797336 95.066294 
z
" clip-path="url(#p8c1aa36bd6)" style="fill: #db5f57; stroke: #000000; stroke-width: 0.886227"/>
    <path d="M 86.797336 95.066294 
L 86.797336 78.536384 
L 93.873102 78.536384 
L 93.873102 95.066294 
z
" clip-path="url(#p8c1aa36bd6)" style="fill: #db5f57; stroke: #000000; stroke-width: 0.886227"/>
    <path d="M 93.873102 95.066294 
L 93.873102 81.541822 
L 100.948869 81.541822 
L 100.948869 95.066294 
z
" clip-path="url(#p8c1aa36bd6)" style="fill: #db5f57; stroke: #000000; stroke-width: 0.886227"/>
    <path d="M 100.948869 95.066294 
L 100.948869 43.973845 
L 108.024636 43.973845 
L 108.024636 95.066294 
z
" clip-path="url(#p8c1aa36bd6)" style="fill: #db5f57; stroke: #000000; stroke-width: 0.886227"/>
   </g>
   <g id="PolyCollection_2">
    <path d="M 30.191203 95.066294 
L 30.191203 95.066294 
L 37.26697 95.066294 
L 37.26697 95.066294 
z
" clip-path="url(#p8c1aa36bd6)" style="fill: #57d3db; fill-opacity: 0.6; stroke: #000000; stroke-width: 0.886227"/>
    <path d="M 37.26697 95.066294 
L 37.26697 95.066294 
L 44.342736 95.066294 
L 44.342736 95.066294 
z
" clip-path="url(#p8c1aa36bd6)" style="fill: #57d3db; fill-opacity: 0.6; stroke: #000000; stroke-width: 0.886227"/>
    <path d="M 44.342736 95.066294 
L 44.342736 95.066294 
L 51.418503 95.066294 
L 51.418503 95.066294 
z
" clip-path="url(#p8c1aa36bd6)" style="fill: #57d3db; fill-opacity: 0.6; stroke: #000000; stroke-width: 0.886227"/>
    <path d="M 51.418503 95.066294 
L 51.418503 95.066294 
L 58.494269 95.066294 
L 58.494269 95.066294 
z
" clip-path="url(#p8c1aa36bd6)" style="fill: #57d3db; fill-opacity: 0.6; stroke: #000000; stroke-width: 0.886227"/>
    <path d="M 58.494269 95.066294 
L 58.494269 95.066294 
L 65.570036 95.066294 
L 65.570036 95.066294 
z
" clip-path="url(#p8c1aa36bd6)" style="fill: #57d3db; fill-opacity: 0.6; stroke: #000000; stroke-width: 0.886227"/>
    <path d="M 65.570036 95.066294 
L 65.570036 93.563575 
L 72.645803 93.563575 
L 72.645803 95.066294 
z
" clip-path="url(#p8c1aa36bd6)" style="fill: #57d3db; fill-opacity: 0.6; stroke: #000000; stroke-width: 0.886227"/>
    <path d="M 72.645803 95.066294 
L 72.645803 93.563575 
L 79.721569 93.563575 
L 79.721569 95.066294 
z
" clip-path="url(#p8c1aa36bd6)" style="fill: #57d3db; fill-opacity: 0.6; stroke: #000000; stroke-width: 0.886227"/>
    <path d="M 79.721569 95.066294 
L 79.721569 84.54726 
L 86.797336 84.54726 
L 86.797336 95.066294 
z
" clip-path="url(#p8c1aa36bd6)" style="fill: #57d3db; fill-opacity: 0.6; stroke: #000000; stroke-width: 0.886227"/>
    <path d="M 86.797336 95.066294 
L 86.797336 87.552698 
L 93.873102 87.552698 
L 93.873102 95.066294 
z
" clip-path="url(#p8c1aa36bd6)" style="fill: #57d3db; fill-opacity: 0.6; stroke: #000000; stroke-width: 0.886227"/>
    <path d="M 93.873102 95.066294 
L 93.873102 69.520069 
L 100.948869 69.520069 
L 100.948869 95.066294 
z
" clip-path="url(#p8c1aa36bd6)" style="fill: #57d3db; fill-opacity: 0.6; stroke: #000000; stroke-width: 0.886227"/>
    <path d="M 100.948869 95.066294 
L 100.948869 24.438497 
L 108.024636 24.438497 
L 108.024636 95.066294 
z
" clip-path="url(#p8c1aa36bd6)" style="fill: #57d3db; fill-opacity: 0.6; stroke: #000000; stroke-width: 0.886227"/>
   </g>
  </g>
  <g id="axes_2">
   <g id="patch_3">
    <path d="M 114.076307 98.823092 
L 199.693083 98.823092 
L 199.693083 16.173542 
L 114.076307 16.173542 
z
" style="fill: #ffffff"/>
   </g>
   <g id="matplotlib.axis_3">
    <g id="xtick_10">
     <g id="line2d_18">
      <path d="M 121.505862 98.823092 
L 121.505862 16.173542 
" clip-path="url(#pc30517c810)" style="fill: none; stroke: #e5e5e5; stroke-linecap: square"/>
     </g>
    </g>
    <g id="xtick_11">
     <g id="line2d_19">
      <path d="M 139.195279 98.823092 
L 139.195279 16.173542 
" clip-path="url(#pc30517c810)" style="fill: none; stroke: #e5e5e5; stroke-linecap: square"/>
     </g>
    </g>
    <g id="xtick_12">
     <g id="line2d_20">
      <path d="M 156.884695 98.823092 
L 156.884695 16.173542 
" clip-path="url(#pc30517c810)" style="fill: none; stroke: #e5e5e5; stroke-linecap: square"/>
     </g>
    </g>
    <g id="xtick_13">
     <g id="line2d_21">
      <path d="M 174.574112 98.823092 
L 174.574112 16.173542 
" clip-path="url(#pc30517c810)" style="fill: none; stroke: #e5e5e5; stroke-linecap: square"/>
     </g>
    </g>
    <g id="xtick_14">
     <g id="line2d_22">
      <path d="M 192.263528 98.823092 
L 192.263528 16.173542 
" clip-path="url(#pc30517c810)" style="fill: none; stroke: #e5e5e5; stroke-linecap: square"/>
     </g>
    </g>
    <g id="xtick_15"/>
    <g id="xtick_16"/>
    <g id="xtick_17"/>
    <g id="xtick_18"/>
   </g>
   <g id="matplotlib.axis_4">
    <g id="ytick_12">
     <g id="line2d_23">
      <path d="M 114.076307 95.066294 
L 199.693083 95.066294 
" clip-path="url(#pc30517c810)" style="fill: none; stroke: #e5e5e5; stroke-linecap: square"/>
     </g>
    </g>
    <g id="ytick_13">
     <g id="line2d_24">
      <path d="M 114.076307 80.039103 
L 199.693083 80.039103 
" clip-path="url(#pc30517c810)" style="fill: none; stroke: #e5e5e5; stroke-linecap: square"/>
     </g>
    </g>
    <g id="ytick_14">
     <g id="line2d_25">
      <path d="M 114.076307 65.011912 
L 199.693083 65.011912 
" clip-path="url(#pc30517c810)" style="fill: none; stroke: #e5e5e5; stroke-linecap: square"/>
     </g>
    </g>
    <g id="ytick_15">
     <g id="line2d_26">
      <path d="M 114.076307 49.984721 
L 199.693083 49.984721 
" clip-path="url(#pc30517c810)" style="fill: none; stroke: #e5e5e5; stroke-linecap: square"/>
     </g>
    </g>
    <g id="ytick_16">
     <g id="line2d_27">
      <path d="M 114.076307 34.95753 
L 199.693083 34.95753 
" clip-path="url(#pc30517c810)" style="fill: none; stroke: #e5e5e5; stroke-linecap: square"/>
     </g>
    </g>
    <g id="ytick_17">
     <g id="line2d_28">
      <path d="M 114.076307 19.930339 
L 199.693083 19.930339 
" clip-path="url(#pc30517c810)" style="fill: none; stroke: #e5e5e5; stroke-linecap: square"/>
     </g>
    </g>
    <g id="ytick_18"/>
    <g id="ytick_19"/>
    <g id="ytick_20"/>
    <g id="ytick_21"/>
    <g id="ytick_22"/>
   </g>
   <g id="PolyCollection_3">
    <path d="M 117.967979 95.066294 
L 117.967979 95.066294 
L 125.043746 95.066294 
L 125.043746 95.066294 
z
" clip-path="url(#pc30517c810)" style="fill: #db5f57; stroke: #000000; stroke-width: 0.886227"/>
    <path d="M 125.043746 95.066294 
L 125.043746 95.066294 
L 132.119512 95.066294 
L 132.119512 95.066294 
z
" clip-path="url(#pc30517c810)" style="fill: #db5f57; stroke: #000000; stroke-width: 0.886227"/>
    <path d="M 132.119512 95.066294 
L 132.119512 92.060856 
L 139.195279 92.060856 
L 139.195279 95.066294 
z
" clip-path="url(#pc30517c810)" style="fill: #db5f57; stroke: #000000; stroke-width: 0.886227"/>
    <path d="M 139.195279 95.066294 
L 139.195279 90.558137 
L 146.271045 90.558137 
L 146.271045 95.066294 
z
" clip-path="url(#pc30517c810)" style="fill: #db5f57; stroke: #000000; stroke-width: 0.886227"/>
    <path d="M 146.271045 95.066294 
L 146.271045 83.044541 
L 153.346812 83.044541 
L 153.346812 95.066294 
z
" clip-path="url(#pc30517c810)" style="fill: #db5f57; stroke: #000000; stroke-width: 0.886227"/>
    <path d="M 153.346812 95.066294 
L 153.346812 84.54726 
L 160.422579 84.54726 
L 160.422579 95.066294 
z
" clip-path="url(#pc30517c810)" style="fill: #db5f57; stroke: #000000; stroke-width: 0.886227"/>
    <path d="M 160.422579 95.066294 
L 160.422579 87.552698 
L 167.498345 87.552698 
L 167.498345 95.066294 
z
" clip-path="url(#pc30517c810)" style="fill: #db5f57; stroke: #000000; stroke-width: 0.886227"/>
    <path d="M 167.498345 95.066294 
L 167.498345 83.044541 
L 174.574112 83.044541 
L 174.574112 95.066294 
z
" clip-path="url(#pc30517c810)" style="fill: #db5f57; stroke: #000000; stroke-width: 0.886227"/>
    <path d="M 174.574112 95.066294 
L 174.574112 86.049979 
L 181.649878 86.049979 
L 181.649878 95.066294 
z
" clip-path="url(#pc30517c810)" style="fill: #db5f57; stroke: #000000; stroke-width: 0.886227"/>
    <path d="M 181.649878 95.066294 
L 181.649878 84.54726 
L 188.725645 84.54726 
L 188.725645 95.066294 
z
" clip-path="url(#pc30517c810)" style="fill: #db5f57; stroke: #000000; stroke-width: 0.886227"/>
    <path d="M 188.725645 95.066294 
L 188.725645 59.001036 
L 195.801412 59.001036 
L 195.801412 95.066294 
z
" clip-path="url(#pc30517c810)" style="fill: #db5f57; stroke: #000000; stroke-width: 0.886227"/>
   </g>
   <g id="PolyCollection_4">
    <path d="M 117.967979 95.066294 
L 117.967979 95.066294 
L 125.043746 95.066294 
L 125.043746 95.066294 
z
" clip-path="url(#pc30517c810)" style="fill: #57d3db; fill-opacity: 0.6; stroke: #000000; stroke-width: 0.886227"/>
    <path d="M 125.043746 95.066294 
L 125.043746 95.066294 
L 132.119512 95.066294 
L 132.119512 95.066294 
z
" clip-path="url(#pc30517c810)" style="fill: #57d3db; fill-opacity: 0.6; stroke: #000000; stroke-width: 0.886227"/>
    <path d="M 132.119512 95.066294 
L 132.119512 95.066294 
L 139.195279 95.066294 
L 139.195279 95.066294 
z
" clip-path="url(#pc30517c810)" style="fill: #57d3db; fill-opacity: 0.6; stroke: #000000; stroke-width: 0.886227"/>
    <path d="M 139.195279 95.066294 
L 139.195279 95.066294 
L 146.271045 95.066294 
L 146.271045 95.066294 
z
" clip-path="url(#pc30517c810)" style="fill: #57d3db; fill-opacity: 0.6; stroke: #000000; stroke-width: 0.886227"/>
    <path d="M 146.271045 95.066294 
L 146.271045 95.066294 
L 153.346812 95.066294 
L 153.346812 95.066294 
z
" clip-path="url(#pc30517c810)" style="fill: #57d3db; fill-opacity: 0.6; stroke: #000000; stroke-width: 0.886227"/>
    <path d="M 153.346812 95.066294 
L 153.346812 95.066294 
L 160.422579 95.066294 
L 160.422579 95.066294 
z
" clip-path="url(#pc30517c810)" style="fill: #57d3db; fill-opacity: 0.6; stroke: #000000; stroke-width: 0.886227"/>
    <path d="M 160.422579 95.066294 
L 160.422579 95.066294 
L 167.498345 95.066294 
L 167.498345 95.066294 
z
" clip-path="url(#pc30517c810)" style="fill: #57d3db; fill-opacity: 0.6; stroke: #000000; stroke-width: 0.886227"/>
    <path d="M 167.498345 95.066294 
L 167.498345 93.563575 
L 174.574112 93.563575 
L 174.574112 95.066294 
z
" clip-path="url(#pc30517c810)" style="fill: #57d3db; fill-opacity: 0.6; stroke: #000000; stroke-width: 0.886227"/>
    <path d="M 174.574112 95.066294 
L 174.574112 81.541822 
L 181.649878 81.541822 
L 181.649878 95.066294 
z
" clip-path="url(#pc30517c810)" style="fill: #57d3db; fill-opacity: 0.6; stroke: #000000; stroke-width: 0.886227"/>
    <path d="M 181.649878 95.066294 
L 181.649878 77.033665 
L 188.725645 77.033665 
L 188.725645 95.066294 
z
" clip-path="url(#pc30517c810)" style="fill: #57d3db; fill-opacity: 0.6; stroke: #000000; stroke-width: 0.886227"/>
    <path d="M 188.725645 95.066294 
L 188.725645 22.935778 
L 195.801412 22.935778 
L 195.801412 95.066294 
z
" clip-path="url(#pc30517c810)" style="fill: #57d3db; fill-opacity: 0.6; stroke: #000000; stroke-width: 0.886227"/>
   </g>
  </g>
  <g id="axes_3">
   <g id="patch_4">
    <path d="M 26.299531 183.632642 
L 111.916307 183.632642 
L 111.916307 100.983092 
L 26.299531 100.983092 
z
" style="fill: #ffffff"/>
   </g>
   <g id="matplotlib.axis_5">
    <g id="xtick_19">
     <g id="line2d_29">
      <path d="M 33.729086 183.632642 
L 33.729086 100.983092 
" clip-path="url(#p7a062b5234)" style="fill: none; stroke: #e5e5e5; stroke-linecap: square"/>
     </g>
     <g id="line2d_30">
      <path d="M 33.729086 183.632642 
" style="fill: none; stroke: #333333; stroke-width: 1.5; stroke-linecap: square"/>
      <defs>
       <path id="m15dcd02068" d="M 0 0 
L 0 2.75 
" style="stroke: #333333"/>
      </defs>
      <g>
       <use xlink:href="#m15dcd02068" x="33.729086" y="183.632642" style="fill: #333333; stroke: #333333"/>
      </g>
     </g>
     <g id="text_7">
      <!-- 0 -->
      <g style="fill: #4d4d4d" transform="translate(29.404244 195.586292) rotate(-45) scale(0.08 -0.08)">
       <use xlink:href="#Helvetica-30"/>
      </g>
     </g>
    </g>
    <g id="xtick_20">
     <g id="line2d_31">
      <path d="M 51.418503 183.632642 
L 51.418503 100.983092 
" clip-path="url(#p7a062b5234)" style="fill: none; stroke: #e5e5e5; stroke-linecap: square"/>
     </g>
     <g id="line2d_32">
      <path d="M 51.418503 183.632642 
" style="fill: none; stroke: #333333; stroke-width: 1.5; stroke-linecap: square"/>
      <g>
       <use xlink:href="#m15dcd02068" x="51.418503" y="183.632642" style="fill: #333333; stroke: #333333"/>
      </g>
     </g>
     <g id="text_8">
      <!-- 25 -->
      <g style="fill: #4d4d4d" transform="translate(43.94792 198.732033) rotate(-45) scale(0.08 -0.08)">
       <use xlink:href="#Helvetica-32"/>
       <use xlink:href="#Helvetica-35" x="55.615234"/>
      </g>
     </g>
    </g>
    <g id="xtick_21">
     <g id="line2d_33">
      <path d="M 69.107919 183.632642 
L 69.107919 100.983092 
" clip-path="url(#p7a062b5234)" style="fill: none; stroke: #e5e5e5; stroke-linecap: square"/>
     </g>
     <g id="line2d_34">
      <path d="M 69.107919 183.632642 
" style="fill: none; stroke: #333333; stroke-width: 1.5; stroke-linecap: square"/>
      <g>
       <use xlink:href="#m15dcd02068" x="69.107919" y="183.632642" style="fill: #333333; stroke: #333333"/>
      </g>
     </g>
     <g id="text_9">
      <!-- 50 -->
      <g style="fill: #4d4d4d" transform="translate(61.637336 198.732033) rotate(-45) scale(0.08 -0.08)">
       <use xlink:href="#Helvetica-35"/>
       <use xlink:href="#Helvetica-30" x="55.615234"/>
      </g>
     </g>
    </g>
    <g id="xtick_22">
     <g id="line2d_35">
      <path d="M 86.797336 183.632642 
L 86.797336 100.983092 
" clip-path="url(#p7a062b5234)" style="fill: none; stroke: #e5e5e5; stroke-linecap: square"/>
     </g>
     <g id="line2d_36">
      <path d="M 86.797336 183.632642 
" style="fill: none; stroke: #333333; stroke-width: 1.5; stroke-linecap: square"/>
      <g>
       <use xlink:href="#m15dcd02068" x="86.797336" y="183.632642" style="fill: #333333; stroke: #333333"/>
      </g>
     </g>
     <g id="text_10">
      <!-- 75 -->
      <g style="fill: #4d4d4d" transform="translate(79.326753 198.732033) rotate(-45) scale(0.08 -0.08)">
       <defs>
        <path id="Helvetica-37" d="M 3347 4400 
L 3347 3909 
Q 3131 3700 2773 3181 
Q 2416 2663 2141 2063 
Q 1869 1478 1728 997 
Q 1638 688 1494 0 
L 872 0 
Q 1084 1281 1809 2550 
Q 2238 3294 2709 3834 
L 234 3834 
L 234 4400 
L 3347 4400 
z
" transform="scale(0.015625)"/>
       </defs>
       <use xlink:href="#Helvetica-37"/>
       <use xlink:href="#Helvetica-35" x="55.615234"/>
      </g>
     </g>
    </g>
    <g id="xtick_23">
     <g id="line2d_37">
      <path d="M 104.486752 183.632642 
L 104.486752 100.983092 
" clip-path="url(#p7a062b5234)" style="fill: none; stroke: #e5e5e5; stroke-linecap: square"/>
     </g>
     <g id="line2d_38">
      <path d="M 104.486752 183.632642 
" style="fill: none; stroke: #333333; stroke-width: 1.5; stroke-linecap: square"/>
      <g>
       <use xlink:href="#m15dcd02068" x="104.486752" y="183.632642" style="fill: #333333; stroke: #333333"/>
      </g>
     </g>
     <g id="text_11">
      <!-- 100 -->
      <g style="fill: #4d4d4d" transform="translate(93.870428 201.877774) rotate(-45) scale(0.08 -0.08)">
       <use xlink:href="#Helvetica-31"/>
       <use xlink:href="#Helvetica-30" x="55.615234"/>
       <use xlink:href="#Helvetica-30" x="111.230469"/>
      </g>
     </g>
    </g>
    <g id="xtick_24"/>
    <g id="xtick_25"/>
    <g id="xtick_26"/>
    <g id="xtick_27"/>
   </g>
   <g id="matplotlib.axis_6">
    <g id="ytick_23">
     <g id="line2d_39">
      <path d="M 26.299531 179.875844 
L 111.916307 179.875844 
" clip-path="url(#p7a062b5234)" style="fill: none; stroke: #e5e5e5; stroke-linecap: square"/>
     </g>
     <g id="line2d_40">
      <path d="M 26.299531 179.875844 
" style="fill: none; stroke: #333333; stroke-width: 1.5; stroke-linecap: square"/>
      <g>
       <use xlink:href="#mde01343872" x="26.299531" y="179.875844" style="fill: #333333; stroke: #333333"/>
      </g>
     </g>
     <g id="text_12">
      <!-- 0 -->
      <g style="fill: #4d4d4d" transform="translate(17.100781 182.745219) scale(0.08 -0.08)">
       <use xlink:href="#Helvetica-30"/>
      </g>
     </g>
    </g>
    <g id="ytick_24">
     <g id="line2d_41">
      <path d="M 26.299531 164.848653 
L 111.916307 164.848653 
" clip-path="url(#p7a062b5234)" style="fill: none; stroke: #e5e5e5; stroke-linecap: square"/>
     </g>
     <g id="line2d_42">
      <path d="M 26.299531 164.848653 
" style="fill: none; stroke: #333333; stroke-width: 1.5; stroke-linecap: square"/>
      <g>
       <use xlink:href="#mde01343872" x="26.299531" y="164.848653" style="fill: #333333; stroke: #333333"/>
      </g>
     </g>
     <g id="text_13">
      <!-- 10 -->
      <g style="fill: #4d4d4d" transform="translate(12.652031 167.718028) scale(0.08 -0.08)">
       <use xlink:href="#Helvetica-31"/>
       <use xlink:href="#Helvetica-30" x="55.615234"/>
      </g>
     </g>
    </g>
    <g id="ytick_25">
     <g id="line2d_43">
      <path d="M 26.299531 149.821462 
L 111.916307 149.821462 
" clip-path="url(#p7a062b5234)" style="fill: none; stroke: #e5e5e5; stroke-linecap: square"/>
     </g>
     <g id="line2d_44">
      <path d="M 26.299531 149.821462 
" style="fill: none; stroke: #333333; stroke-width: 1.5; stroke-linecap: square"/>
      <g>
       <use xlink:href="#mde01343872" x="26.299531" y="149.821462" style="fill: #333333; stroke: #333333"/>
      </g>
     </g>
     <g id="text_14">
      <!-- 20 -->
      <g style="fill: #4d4d4d" transform="translate(12.652031 152.690837) scale(0.08 -0.08)">
       <use xlink:href="#Helvetica-32"/>
       <use xlink:href="#Helvetica-30" x="55.615234"/>
      </g>
     </g>
    </g>
    <g id="ytick_26">
     <g id="line2d_45">
      <path d="M 26.299531 134.794271 
L 111.916307 134.794271 
" clip-path="url(#p7a062b5234)" style="fill: none; stroke: #e5e5e5; stroke-linecap: square"/>
     </g>
     <g id="line2d_46">
      <path d="M 26.299531 134.794271 
" style="fill: none; stroke: #333333; stroke-width: 1.5; stroke-linecap: square"/>
      <g>
       <use xlink:href="#mde01343872" x="26.299531" y="134.794271" style="fill: #333333; stroke: #333333"/>
      </g>
     </g>
     <g id="text_15">
      <!-- 30 -->
      <g style="fill: #4d4d4d" transform="translate(12.652031 137.663646) scale(0.08 -0.08)">
       <use xlink:href="#Helvetica-33"/>
       <use xlink:href="#Helvetica-30" x="55.615234"/>
      </g>
     </g>
    </g>
    <g id="ytick_27">
     <g id="line2d_47">
      <path d="M 26.299531 119.76708 
L 111.916307 119.76708 
" clip-path="url(#p7a062b5234)" style="fill: none; stroke: #e5e5e5; stroke-linecap: square"/>
     </g>
     <g id="line2d_48">
      <path d="M 26.299531 119.76708 
" style="fill: none; stroke: #333333; stroke-width: 1.5; stroke-linecap: square"/>
      <g>
       <use xlink:href="#mde01343872" x="26.299531" y="119.76708" style="fill: #333333; stroke: #333333"/>
      </g>
     </g>
     <g id="text_16">
      <!-- 40 -->
      <g style="fill: #4d4d4d" transform="translate(12.652031 122.636455) scale(0.08 -0.08)">
       <use xlink:href="#Helvetica-34"/>
       <use xlink:href="#Helvetica-30" x="55.615234"/>
      </g>
     </g>
    </g>
    <g id="ytick_28">
     <g id="line2d_49">
      <path d="M 26.299531 104.739889 
L 111.916307 104.739889 
" clip-path="url(#p7a062b5234)" style="fill: none; stroke: #e5e5e5; stroke-linecap: square"/>
     </g>
     <g id="line2d_50">
      <path d="M 26.299531 104.739889 
" style="fill: none; stroke: #333333; stroke-width: 1.5; stroke-linecap: square"/>
      <g>
       <use xlink:href="#mde01343872" x="26.299531" y="104.739889" style="fill: #333333; stroke: #333333"/>
      </g>
     </g>
     <g id="text_17">
      <!-- 50 -->
      <g style="fill: #4d4d4d" transform="translate(12.652031 107.609264) scale(0.08 -0.08)">
       <use xlink:href="#Helvetica-35"/>
       <use xlink:href="#Helvetica-30" x="55.615234"/>
      </g>
     </g>
    </g>
    <g id="ytick_29"/>
    <g id="ytick_30"/>
    <g id="ytick_31"/>
    <g id="ytick_32"/>
    <g id="ytick_33"/>
   </g>
   <g id="PolyCollection_5">
    <path d="M 30.191203 179.875844 
L 30.191203 176.870406 
L 37.26697 176.870406 
L 37.26697 179.875844 
z
" clip-path="url(#p7a062b5234)" style="fill: #db5f57; stroke: #000000; stroke-width: 0.886227"/>
    <path d="M 37.26697 179.875844 
L 37.26697 173.864967 
L 44.342736 173.864967 
L 44.342736 179.875844 
z
" clip-path="url(#p7a062b5234)" style="fill: #db5f57; stroke: #000000; stroke-width: 0.886227"/>
    <path d="M 44.342736 179.875844 
L 44.342736 176.870406 
L 51.418503 176.870406 
L 51.418503 179.875844 
z
" clip-path="url(#p7a062b5234)" style="fill: #db5f57; stroke: #000000; stroke-width: 0.886227"/>
    <path d="M 51.418503 179.875844 
L 51.418503 176.870406 
L 58.494269 176.870406 
L 58.494269 179.875844 
z
" clip-path="url(#p7a062b5234)" style="fill: #db5f57; stroke: #000000; stroke-width: 0.886227"/>
    <path d="M 58.494269 179.875844 
L 58.494269 176.870406 
L 65.570036 176.870406 
L 65.570036 179.875844 
z
" clip-path="url(#p7a062b5234)" style="fill: #db5f57; stroke: #000000; stroke-width: 0.886227"/>
    <path d="M 65.570036 179.875844 
L 65.570036 170.859529 
L 72.645803 170.859529 
L 72.645803 179.875844 
z
" clip-path="url(#p7a062b5234)" style="fill: #db5f57; stroke: #000000; stroke-width: 0.886227"/>
    <path d="M 72.645803 179.875844 
L 72.645803 176.870406 
L 79.721569 176.870406 
L 79.721569 179.875844 
z
" clip-path="url(#p7a062b5234)" style="fill: #db5f57; stroke: #000000; stroke-width: 0.886227"/>
    <path d="M 79.721569 179.875844 
L 79.721569 170.859529 
L 86.797336 170.859529 
L 86.797336 179.875844 
z
" clip-path="url(#p7a062b5234)" style="fill: #db5f57; stroke: #000000; stroke-width: 0.886227"/>
    <path d="M 86.797336 179.875844 
L 86.797336 164.848653 
L 93.873102 164.848653 
L 93.873102 179.875844 
z
" clip-path="url(#p7a062b5234)" style="fill: #db5f57; stroke: #000000; stroke-width: 0.886227"/>
    <path d="M 93.873102 179.875844 
L 93.873102 170.859529 
L 100.948869 170.859529 
L 100.948869 179.875844 
z
" clip-path="url(#p7a062b5234)" style="fill: #db5f57; stroke: #000000; stroke-width: 0.886227"/>
    <path d="M 100.948869 179.875844 
L 100.948869 125.777957 
L 108.024636 125.777957 
L 108.024636 179.875844 
z
" clip-path="url(#p7a062b5234)" style="fill: #db5f57; stroke: #000000; stroke-width: 0.886227"/>
   </g>
   <g id="PolyCollection_6">
    <path d="M 30.191203 179.875844 
L 30.191203 179.875844 
L 37.26697 179.875844 
L 37.26697 179.875844 
z
" clip-path="url(#p7a062b5234)" style="fill: #57d3db; fill-opacity: 0.6; stroke: #000000; stroke-width: 0.886227"/>
    <path d="M 37.26697 179.875844 
L 37.26697 179.875844 
L 44.342736 179.875844 
L 44.342736 179.875844 
z
" clip-path="url(#p7a062b5234)" style="fill: #57d3db; fill-opacity: 0.6; stroke: #000000; stroke-width: 0.886227"/>
    <path d="M 44.342736 179.875844 
L 44.342736 179.875844 
L 51.418503 179.875844 
L 51.418503 179.875844 
z
" clip-path="url(#p7a062b5234)" style="fill: #57d3db; fill-opacity: 0.6; stroke: #000000; stroke-width: 0.886227"/>
    <path d="M 51.418503 179.875844 
L 51.418503 179.875844 
L 58.494269 179.875844 
L 58.494269 179.875844 
z
" clip-path="url(#p7a062b5234)" style="fill: #57d3db; fill-opacity: 0.6; stroke: #000000; stroke-width: 0.886227"/>
    <path d="M 58.494269 179.875844 
L 58.494269 178.373125 
L 65.570036 178.373125 
L 65.570036 179.875844 
z
" clip-path="url(#p7a062b5234)" style="fill: #57d3db; fill-opacity: 0.6; stroke: #000000; stroke-width: 0.886227"/>
    <path d="M 65.570036 179.875844 
L 65.570036 178.373125 
L 72.645803 178.373125 
L 72.645803 179.875844 
z
" clip-path="url(#p7a062b5234)" style="fill: #57d3db; fill-opacity: 0.6; stroke: #000000; stroke-width: 0.886227"/>
    <path d="M 72.645803 179.875844 
L 72.645803 175.367687 
L 79.721569 175.367687 
L 79.721569 179.875844 
z
" clip-path="url(#p7a062b5234)" style="fill: #57d3db; fill-opacity: 0.6; stroke: #000000; stroke-width: 0.886227"/>
    <path d="M 79.721569 179.875844 
L 79.721569 170.859529 
L 86.797336 170.859529 
L 86.797336 179.875844 
z
" clip-path="url(#p7a062b5234)" style="fill: #57d3db; fill-opacity: 0.6; stroke: #000000; stroke-width: 0.886227"/>
    <path d="M 86.797336 179.875844 
L 86.797336 163.345934 
L 93.873102 163.345934 
L 93.873102 179.875844 
z
" clip-path="url(#p7a062b5234)" style="fill: #57d3db; fill-opacity: 0.6; stroke: #000000; stroke-width: 0.886227"/>
    <path d="M 93.873102 179.875844 
L 93.873102 154.329619 
L 100.948869 154.329619 
L 100.948869 179.875844 
z
" clip-path="url(#p7a062b5234)" style="fill: #57d3db; fill-opacity: 0.6; stroke: #000000; stroke-width: 0.886227"/>
    <path d="M 100.948869 179.875844 
L 100.948869 121.269799 
L 108.024636 121.269799 
L 108.024636 179.875844 
z
" clip-path="url(#p7a062b5234)" style="fill: #57d3db; fill-opacity: 0.6; stroke: #000000; stroke-width: 0.886227"/>
   </g>
  </g>
  <g id="axes_4">
   <g id="patch_5">
    <path d="M 114.076307 183.632642 
L 199.693083 183.632642 
L 199.693083 100.983092 
L 114.076307 100.983092 
z
" style="fill: #ffffff"/>
   </g>
   <g id="matplotlib.axis_7">
    <g id="xtick_28">
     <g id="line2d_51">
      <path d="M 121.505862 183.632642 
L 121.505862 100.983092 
" clip-path="url(#ped247787b0)" style="fill: none; stroke: #e5e5e5; stroke-linecap: square"/>
     </g>
     <g id="line2d_52">
      <path d="M 121.505862 183.632642 
" style="fill: none; stroke: #333333; stroke-width: 1.5; stroke-linecap: square"/>
      <g>
       <use xlink:href="#m15dcd02068" x="121.505862" y="183.632642" style="fill: #333333; stroke: #333333"/>
      </g>
     </g>
     <g id="text_18">
      <!-- 0 -->
      <g style="fill: #4d4d4d" transform="translate(117.18102 195.586292) rotate(-45) scale(0.08 -0.08)">
       <use xlink:href="#Helvetica-30"/>
      </g>
     </g>
    </g>
    <g id="xtick_29">
     <g id="line2d_53">
      <path d="M 139.195279 183.632642 
L 139.195279 100.983092 
" clip-path="url(#ped247787b0)" style="fill: none; stroke: #e5e5e5; stroke-linecap: square"/>
     </g>
     <g id="line2d_54">
      <path d="M 139.195279 183.632642 
" style="fill: none; stroke: #333333; stroke-width: 1.5; stroke-linecap: square"/>
      <g>
       <use xlink:href="#m15dcd02068" x="139.195279" y="183.632642" style="fill: #333333; stroke: #333333"/>
      </g>
     </g>
     <g id="text_19">
      <!-- 25 -->
      <g style="fill: #4d4d4d" transform="translate(131.724696 198.732033) rotate(-45) scale(0.08 -0.08)">
       <use xlink:href="#Helvetica-32"/>
       <use xlink:href="#Helvetica-35" x="55.615234"/>
      </g>
     </g>
    </g>
    <g id="xtick_30">
     <g id="line2d_55">
      <path d="M 156.884695 183.632642 
L 156.884695 100.983092 
" clip-path="url(#ped247787b0)" style="fill: none; stroke: #e5e5e5; stroke-linecap: square"/>
     </g>
     <g id="line2d_56">
      <path d="M 156.884695 183.632642 
" style="fill: none; stroke: #333333; stroke-width: 1.5; stroke-linecap: square"/>
      <g>
       <use xlink:href="#m15dcd02068" x="156.884695" y="183.632642" style="fill: #333333; stroke: #333333"/>
      </g>
     </g>
     <g id="text_20">
      <!-- 50 -->
      <g style="fill: #4d4d4d" transform="translate(149.414112 198.732033) rotate(-45) scale(0.08 -0.08)">
       <use xlink:href="#Helvetica-35"/>
       <use xlink:href="#Helvetica-30" x="55.615234"/>
      </g>
     </g>
    </g>
    <g id="xtick_31">
     <g id="line2d_57">
      <path d="M 174.574112 183.632642 
L 174.574112 100.983092 
" clip-path="url(#ped247787b0)" style="fill: none; stroke: #e5e5e5; stroke-linecap: square"/>
     </g>
     <g id="line2d_58">
      <path d="M 174.574112 183.632642 
" style="fill: none; stroke: #333333; stroke-width: 1.5; stroke-linecap: square"/>
      <g>
       <use xlink:href="#m15dcd02068" x="174.574112" y="183.632642" style="fill: #333333; stroke: #333333"/>
      </g>
     </g>
     <g id="text_21">
      <!-- 75 -->
      <g style="fill: #4d4d4d" transform="translate(167.103529 198.732033) rotate(-45) scale(0.08 -0.08)">
       <use xlink:href="#Helvetica-37"/>
       <use xlink:href="#Helvetica-35" x="55.615234"/>
      </g>
     </g>
    </g>
    <g id="xtick_32">
     <g id="line2d_59">
      <path d="M 192.263528 183.632642 
L 192.263528 100.983092 
" clip-path="url(#ped247787b0)" style="fill: none; stroke: #e5e5e5; stroke-linecap: square"/>
     </g>
     <g id="line2d_60">
      <path d="M 192.263528 183.632642 
" style="fill: none; stroke: #333333; stroke-width: 1.5; stroke-linecap: square"/>
      <g>
       <use xlink:href="#m15dcd02068" x="192.263528" y="183.632642" style="fill: #333333; stroke: #333333"/>
      </g>
     </g>
     <g id="text_22">
      <!-- 100 -->
      <g style="fill: #4d4d4d" transform="translate(181.647204 201.877774) rotate(-45) scale(0.08 -0.08)">
       <use xlink:href="#Helvetica-31"/>
       <use xlink:href="#Helvetica-30" x="55.615234"/>
       <use xlink:href="#Helvetica-30" x="111.230469"/>
      </g>
     </g>
    </g>
    <g id="xtick_33"/>
    <g id="xtick_34"/>
    <g id="xtick_35"/>
    <g id="xtick_36"/>
   </g>
   <g id="matplotlib.axis_8">
    <g id="ytick_34">
     <g id="line2d_61">
      <path d="M 114.076307 179.875844 
L 199.693083 179.875844 
" clip-path="url(#ped247787b0)" style="fill: none; stroke: #e5e5e5; stroke-linecap: square"/>
     </g>
    </g>
    <g id="ytick_35">
     <g id="line2d_62">
      <path d="M 114.076307 164.848653 
L 199.693083 164.848653 
" clip-path="url(#ped247787b0)" style="fill: none; stroke: #e5e5e5; stroke-linecap: square"/>
     </g>
    </g>
    <g id="ytick_36">
     <g id="line2d_63">
      <path d="M 114.076307 149.821462 
L 199.693083 149.821462 
" clip-path="url(#ped247787b0)" style="fill: none; stroke: #e5e5e5; stroke-linecap: square"/>
     </g>
    </g>
    <g id="ytick_37">
     <g id="line2d_64">
      <path d="M 114.076307 134.794271 
L 199.693083 134.794271 
" clip-path="url(#ped247787b0)" style="fill: none; stroke: #e5e5e5; stroke-linecap: square"/>
     </g>
    </g>
    <g id="ytick_38">
     <g id="line2d_65">
      <path d="M 114.076307 119.76708 
L 199.693083 119.76708 
" clip-path="url(#ped247787b0)" style="fill: none; stroke: #e5e5e5; stroke-linecap: square"/>
     </g>
    </g>
    <g id="ytick_39">
     <g id="line2d_66">
      <path d="M 114.076307 104.739889 
L 199.693083 104.739889 
" clip-path="url(#ped247787b0)" style="fill: none; stroke: #e5e5e5; stroke-linecap: square"/>
     </g>
    </g>
    <g id="ytick_40"/>
    <g id="ytick_41"/>
    <g id="ytick_42"/>
    <g id="ytick_43"/>
    <g id="ytick_44"/>
   </g>
   <g id="PolyCollection_7">
    <path d="M 117.967979 179.875844 
L 117.967979 178.373125 
L 125.043746 178.373125 
L 125.043746 179.875844 
z
" clip-path="url(#ped247787b0)" style="fill: #db5f57; stroke: #000000; stroke-width: 0.886227"/>
    <path d="M 125.043746 179.875844 
L 125.043746 176.870406 
L 132.119512 176.870406 
L 132.119512 179.875844 
z
" clip-path="url(#ped247787b0)" style="fill: #db5f57; stroke: #000000; stroke-width: 0.886227"/>
    <path d="M 132.119512 179.875844 
L 132.119512 178.373125 
L 139.195279 178.373125 
L 139.195279 179.875844 
z
" clip-path="url(#ped247787b0)" style="fill: #db5f57; stroke: #000000; stroke-width: 0.886227"/>
    <path d="M 139.195279 179.875844 
L 139.195279 176.870406 
L 146.271045 176.870406 
L 146.271045 179.875844 
z
" clip-path="url(#ped247787b0)" style="fill: #db5f57; stroke: #000000; stroke-width: 0.886227"/>
    <path d="M 146.271045 179.875844 
L 146.271045 178.373125 
L 153.346812 178.373125 
L 153.346812 179.875844 
z
" clip-path="url(#ped247787b0)" style="fill: #db5f57; stroke: #000000; stroke-width: 0.886227"/>
    <path d="M 153.346812 179.875844 
L 153.346812 172.362248 
L 160.422579 172.362248 
L 160.422579 179.875844 
z
" clip-path="url(#ped247787b0)" style="fill: #db5f57; stroke: #000000; stroke-width: 0.886227"/>
    <path d="M 160.422579 179.875844 
L 160.422579 169.35681 
L 167.498345 169.35681 
L 167.498345 179.875844 
z
" clip-path="url(#ped247787b0)" style="fill: #db5f57; stroke: #000000; stroke-width: 0.886227"/>
    <path d="M 167.498345 179.875844 
L 167.498345 164.848653 
L 174.574112 164.848653 
L 174.574112 179.875844 
z
" clip-path="url(#ped247787b0)" style="fill: #db5f57; stroke: #000000; stroke-width: 0.886227"/>
    <path d="M 174.574112 179.875844 
L 174.574112 173.864967 
L 181.649878 173.864967 
L 181.649878 179.875844 
z
" clip-path="url(#ped247787b0)" style="fill: #db5f57; stroke: #000000; stroke-width: 0.886227"/>
    <path d="M 181.649878 179.875844 
L 181.649878 167.854091 
L 188.725645 167.854091 
L 188.725645 179.875844 
z
" clip-path="url(#ped247787b0)" style="fill: #db5f57; stroke: #000000; stroke-width: 0.886227"/>
    <path d="M 188.725645 179.875844 
L 188.725645 136.29699 
L 195.801412 136.29699 
L 195.801412 179.875844 
z
" clip-path="url(#ped247787b0)" style="fill: #db5f57; stroke: #000000; stroke-width: 0.886227"/>
   </g>
   <g id="PolyCollection_8">
    <path d="M 117.967979 179.875844 
L 117.967979 179.875844 
L 125.043746 179.875844 
L 125.043746 179.875844 
z
" clip-path="url(#ped247787b0)" style="fill: #57d3db; fill-opacity: 0.6; stroke: #000000; stroke-width: 0.886227"/>
    <path d="M 125.043746 179.875844 
L 125.043746 179.875844 
L 132.119512 179.875844 
L 132.119512 179.875844 
z
" clip-path="url(#ped247787b0)" style="fill: #57d3db; fill-opacity: 0.6; stroke: #000000; stroke-width: 0.886227"/>
    <path d="M 132.119512 179.875844 
L 132.119512 179.875844 
L 139.195279 179.875844 
L 139.195279 179.875844 
z
" clip-path="url(#ped247787b0)" style="fill: #57d3db; fill-opacity: 0.6; stroke: #000000; stroke-width: 0.886227"/>
    <path d="M 139.195279 179.875844 
L 139.195279 179.875844 
L 146.271045 179.875844 
L 146.271045 179.875844 
z
" clip-path="url(#ped247787b0)" style="fill: #57d3db; fill-opacity: 0.6; stroke: #000000; stroke-width: 0.886227"/>
    <path d="M 146.271045 179.875844 
L 146.271045 179.875844 
L 153.346812 179.875844 
L 153.346812 179.875844 
z
" clip-path="url(#ped247787b0)" style="fill: #57d3db; fill-opacity: 0.6; stroke: #000000; stroke-width: 0.886227"/>
    <path d="M 153.346812 179.875844 
L 153.346812 178.373125 
L 160.422579 178.373125 
L 160.422579 179.875844 
z
" clip-path="url(#ped247787b0)" style="fill: #57d3db; fill-opacity: 0.6; stroke: #000000; stroke-width: 0.886227"/>
    <path d="M 160.422579 179.875844 
L 160.422579 175.367687 
L 167.498345 175.367687 
L 167.498345 179.875844 
z
" clip-path="url(#ped247787b0)" style="fill: #57d3db; fill-opacity: 0.6; stroke: #000000; stroke-width: 0.886227"/>
    <path d="M 167.498345 179.875844 
L 167.498345 175.367687 
L 174.574112 175.367687 
L 174.574112 179.875844 
z
" clip-path="url(#ped247787b0)" style="fill: #57d3db; fill-opacity: 0.6; stroke: #000000; stroke-width: 0.886227"/>
    <path d="M 174.574112 179.875844 
L 174.574112 166.351372 
L 181.649878 166.351372 
L 181.649878 179.875844 
z
" clip-path="url(#ped247787b0)" style="fill: #57d3db; fill-opacity: 0.6; stroke: #000000; stroke-width: 0.886227"/>
    <path d="M 181.649878 179.875844 
L 181.649878 157.335057 
L 188.725645 157.335057 
L 188.725645 179.875844 
z
" clip-path="url(#ped247787b0)" style="fill: #57d3db; fill-opacity: 0.6; stroke: #000000; stroke-width: 0.886227"/>
    <path d="M 188.725645 179.875844 
L 188.725645 121.269799 
L 195.801412 121.269799 
L 195.801412 179.875844 
z
" clip-path="url(#ped247787b0)" style="fill: #57d3db; fill-opacity: 0.6; stroke: #000000; stroke-width: 0.886227"/>
   </g>
  </g>
  <g id="patch_6">
   <path d="M 26.299531 98.823092 
L 111.916307 98.823092 
L 111.916307 16.173542 
L 26.299531 16.173542 
L 26.299531 98.823092 
z
" style="fill: none; stroke: #7f7f7f; stroke-linejoin: miter"/>
  </g>
  <g id="patch_7">
   <path d="M 114.076307 98.823092 
L 199.693083 98.823092 
L 199.693083 16.173542 
L 114.076307 16.173542 
L 114.076307 98.823092 
z
" style="fill: none; stroke: #7f7f7f; stroke-linejoin: miter"/>
  </g>
  <g id="patch_8">
   <path d="M 26.299531 183.632642 
L 111.916307 183.632642 
L 111.916307 100.983092 
L 26.299531 100.983092 
L 26.299531 183.632642 
z
" style="fill: none; stroke: #7f7f7f; stroke-linejoin: miter"/>
  </g>
  <g id="patch_9">
   <path d="M 114.076307 183.632642 
L 199.693083 183.632642 
L 199.693083 100.983092 
L 114.076307 100.983092 
L 114.076307 183.632642 
z
" style="fill: none; stroke: #7f7f7f; stroke-linejoin: miter"/>
  </g>
  <g id="text_23">
   <!-- ESA Rating (0-100) -->
   <g transform="translate(73.979198 211.84875) scale(0.09 -0.09)">
    <defs>
     <path id="Helvetica-45" d="M 547 4591 
L 3894 4591 
L 3894 4028 
L 1153 4028 
L 1153 2634 
L 3688 2634 
L 3688 2103 
L 1153 2103 
L 1153 547 
L 3941 547 
L 3941 0 
L 547 0 
L 547 4591 
z
M 2244 4591 
L 2244 4591 
z
" transform="scale(0.015625)"/>
     <path id="Helvetica-53" d="M 894 1481 
Q 916 1091 1078 847 
Q 1388 391 2169 391 
Q 2519 391 2806 491 
Q 3363 684 3363 1184 
Q 3363 1559 3128 1719 
Q 2891 1875 2384 1991 
L 1763 2131 
Q 1153 2269 900 2434 
Q 463 2722 463 3294 
Q 463 3913 891 4309 
Q 1319 4706 2103 4706 
Q 2825 4706 3329 4357 
Q 3834 4009 3834 3244 
L 3250 3244 
Q 3203 3613 3050 3809 
Q 2766 4169 2084 4169 
Q 1534 4169 1293 3937 
Q 1053 3706 1053 3400 
Q 1053 3063 1334 2906 
Q 1519 2806 2169 2656 
L 2813 2509 
Q 3278 2403 3531 2219 
Q 3969 1897 3969 1284 
Q 3969 522 3414 194 
Q 2859 -134 2125 -134 
Q 1269 -134 784 303 
Q 300 738 309 1481 
L 894 1481 
z
M 2150 4716 
L 2150 4716 
z
" transform="scale(0.015625)"/>
     <path id="Helvetica-41" d="M 2844 1881 
L 2147 3909 
L 1406 1881 
L 2844 1881 
z
M 1822 4591 
L 2525 4591 
L 4191 0 
L 3509 0 
L 3044 1375 
L 1228 1375 
L 731 0 
L 94 0 
L 1822 4591 
z
" transform="scale(0.015625)"/>
     <path id="Helvetica-20" transform="scale(0.015625)"/>
     <path id="Helvetica-52" d="M 2622 2488 
Q 3059 2488 3314 2663 
Q 3569 2838 3569 3294 
Q 3569 3784 3213 3963 
Q 3022 4056 2703 4056 
L 1184 4056 
L 1184 2488 
L 2622 2488 
z
M 563 4591 
L 2688 4591 
Q 3213 4591 3553 4438 
Q 4200 4144 4200 3353 
Q 4200 2941 4029 2678 
Q 3859 2416 3553 2256 
Q 3822 2147 3958 1969 
Q 4094 1791 4109 1391 
L 4131 775 
Q 4141 513 4175 384 
Q 4231 166 4375 103 
L 4375 0 
L 3613 0 
Q 3581 59 3562 153 
Q 3544 247 3531 516 
L 3494 1281 
Q 3472 1731 3159 1884 
Q 2981 1969 2600 1969 
L 1184 1969 
L 1184 0 
L 563 0 
L 563 4591 
z
" transform="scale(0.015625)"/>
     <path id="Helvetica-61" d="M 844 891 
Q 844 647 1022 506 
Q 1200 366 1444 366 
Q 1741 366 2019 503 
Q 2488 731 2488 1250 
L 2488 1703 
Q 2384 1638 2221 1594 
Q 2059 1550 1903 1531 
L 1563 1488 
Q 1256 1447 1103 1359 
Q 844 1213 844 891 
z
M 2206 2028 
Q 2400 2053 2466 2191 
Q 2503 2266 2503 2406 
Q 2503 2694 2298 2823 
Q 2094 2953 1713 2953 
Q 1272 2953 1088 2716 
Q 984 2584 953 2325 
L 428 2325 
Q 444 2944 830 3186 
Q 1216 3428 1725 3428 
Q 2316 3428 2684 3203 
Q 3050 2978 3050 2503 
L 3050 575 
Q 3050 488 3086 434 
Q 3122 381 3238 381 
Q 3275 381 3322 386 
Q 3369 391 3422 400 
L 3422 -16 
Q 3291 -53 3222 -62 
Q 3153 -72 3034 -72 
Q 2744 -72 2613 134 
Q 2544 244 2516 444 
Q 2344 219 2022 53 
Q 1700 -113 1313 -113 
Q 847 -113 551 170 
Q 256 453 256 878 
Q 256 1344 547 1600 
Q 838 1856 1309 1916 
L 2206 2028 
z
M 1741 3428 
L 1741 3428 
z
" transform="scale(0.015625)"/>
     <path id="Helvetica-74" d="M 525 4281 
L 1094 4281 
L 1094 3347 
L 1628 3347 
L 1628 2888 
L 1094 2888 
L 1094 703 
Q 1094 528 1213 469 
Q 1278 434 1431 434 
Q 1472 434 1519 436 
Q 1566 438 1628 444 
L 1628 0 
Q 1531 -28 1426 -40 
Q 1322 -53 1200 -53 
Q 806 -53 665 148 
Q 525 350 525 672 
L 525 2888 
L 72 2888 
L 72 3347 
L 525 3347 
L 525 4281 
z
" transform="scale(0.015625)"/>
     <path id="Helvetica-69" d="M 413 3331 
L 984 3331 
L 984 0 
L 413 0 
L 413 3331 
z
M 413 4591 
L 984 4591 
L 984 3953 
L 413 3953 
L 413 4591 
z
" transform="scale(0.015625)"/>
     <path id="Helvetica-6e" d="M 413 3347 
L 947 3347 
L 947 2872 
Q 1184 3166 1450 3294 
Q 1716 3422 2041 3422 
Q 2753 3422 3003 2925 
Q 3141 2653 3141 2147 
L 3141 0 
L 2569 0 
L 2569 2109 
Q 2569 2416 2478 2603 
Q 2328 2916 1934 2916 
Q 1734 2916 1606 2875 
Q 1375 2806 1200 2600 
Q 1059 2434 1017 2257 
Q 975 2081 975 1753 
L 975 0 
L 413 0 
L 413 3347 
z
M 1734 3428 
L 1734 3428 
z
" transform="scale(0.015625)"/>
     <path id="Helvetica-67" d="M 1594 3406 
Q 1988 3406 2281 3213 
Q 2441 3103 2606 2894 
L 2606 3316 
L 3125 3316 
L 3125 272 
Q 3125 -366 2938 -734 
Q 2588 -1416 1616 -1416 
Q 1075 -1416 706 -1173 
Q 338 -931 294 -416 
L 866 -416 
Q 906 -641 1028 -763 
Q 1219 -950 1628 -950 
Q 2275 -950 2475 -494 
Q 2594 -225 2584 466 
Q 2416 209 2178 84 
Q 1941 -41 1550 -41 
Q 1006 -41 598 345 
Q 191 731 191 1622 
Q 191 2463 602 2934 
Q 1013 3406 1594 3406 
z
M 2606 1688 
Q 2606 2309 2350 2609 
Q 2094 2909 1697 2909 
Q 1103 2909 884 2353 
Q 769 2056 769 1575 
Q 769 1009 998 714 
Q 1228 419 1616 419 
Q 2222 419 2469 966 
Q 2606 1275 2606 1688 
z
M 1659 3428 
L 1659 3428 
z
" transform="scale(0.015625)"/>
     <path id="Helvetica-28" d="M 1894 4666 
Q 1403 3713 1256 3263 
Q 1034 2578 1034 1681 
Q 1034 775 1288 25 
Q 1444 -438 1903 -1306 
L 1525 -1306 
Q 1069 -594 959 -397 
Q 850 -200 722 138 
Q 547 600 478 1125 
Q 444 1397 444 1644 
Q 444 2569 734 3291 
Q 919 3750 1503 4666 
L 1894 4666 
z
" transform="scale(0.015625)"/>
     <path id="Helvetica-2d" d="M 266 2072 
L 1834 2072 
L 1834 1494 
L 266 1494 
L 266 2072 
z
" transform="scale(0.015625)"/>
     <path id="Helvetica-29" d="M 222 -1306 
Q 719 -338 863 106 
Q 1081 778 1081 1681 
Q 1081 2584 828 3334 
Q 672 3797 213 4666 
L 591 4666 
Q 1072 3897 1173 3717 
Q 1275 3538 1394 3222 
Q 1544 2831 1608 2450 
Q 1672 2069 1672 1716 
Q 1672 791 1378 66 
Q 1194 -400 613 -1306 
L 222 -1306 
z
" transform="scale(0.015625)"/>
    </defs>
    <use xlink:href="#Helvetica-45"/>
    <use xlink:href="#Helvetica-53" x="66.699219"/>
    <use xlink:href="#Helvetica-41" x="133.398438"/>
    <use xlink:href="#Helvetica-20" x="200.097656"/>
    <use xlink:href="#Helvetica-52" x="227.880859"/>
    <use xlink:href="#Helvetica-61" x="300.097656"/>
    <use xlink:href="#Helvetica-74" x="355.712891"/>
    <use xlink:href="#Helvetica-69" x="383.496094"/>
    <use xlink:href="#Helvetica-6e" x="405.712891"/>
    <use xlink:href="#Helvetica-67" x="461.328125"/>
    <use xlink:href="#Helvetica-20" x="516.943359"/>
    <use xlink:href="#Helvetica-28" x="544.726562"/>
    <use xlink:href="#Helvetica-30" x="578.027344"/>
    <use xlink:href="#Helvetica-2d" x="633.642578"/>
    <use xlink:href="#Helvetica-31" x="666.943359"/>
    <use xlink:href="#Helvetica-30" x="722.558594"/>
    <use xlink:href="#Helvetica-30" x="778.173828"/>
    <use xlink:href="#Helvetica-29" x="833.789062"/>
   </g>
  </g>
  <g id="text_24">
   <!-- # Examples -->
   <g transform="translate(8.616094 123.412779) rotate(-90) scale(0.09 -0.09)">
    <defs>
     <path id="Helvetica-23" d="M 94 1753 
L 822 1753 
L 1116 2828 
L 391 2828 
L 488 3191 
L 1213 3191 
L 1584 4591 
L 2050 4591 
L 1672 3191 
L 2363 3191 
L 2747 4591 
L 3206 4591 
L 2828 3191 
L 3553 3191 
L 3456 2828 
L 2731 2828 
L 2434 1753 
L 3163 1753 
L 3066 1391 
L 2347 1391 
L 1963 0 
L 1503 0 
L 1881 1391 
L 1184 1391 
L 813 0 
L 347 0 
L 725 1391 
L 0 1391 
L 94 1753 
z
M 1969 1753 
L 2266 2828 
L 1575 2828 
L 1288 1753 
L 1969 1753 
z
" transform="scale(0.015625)"/>
     <path id="Helvetica-78" d="M 94 3347 
L 822 3347 
L 1591 2169 
L 2369 3347 
L 3053 3331 
L 1925 1716 
L 3103 0 
L 2384 0 
L 1553 1256 
L 747 0 
L 34 0 
L 1213 1716 
L 94 3347 
z
" transform="scale(0.015625)"/>
     <path id="Helvetica-6d" d="M 413 3347 
L 969 3347 
L 969 2872 
Q 1169 3119 1331 3231 
Q 1609 3422 1963 3422 
Q 2363 3422 2606 3225 
Q 2744 3113 2856 2894 
Q 3044 3163 3297 3292 
Q 3550 3422 3866 3422 
Q 4541 3422 4784 2934 
Q 4916 2672 4916 2228 
L 4916 0 
L 4331 0 
L 4331 2325 
Q 4331 2659 4164 2784 
Q 3997 2909 3756 2909 
Q 3425 2909 3186 2687 
Q 2947 2466 2947 1947 
L 2947 0 
L 2375 0 
L 2375 2184 
Q 2375 2525 2294 2681 
Q 2166 2916 1816 2916 
Q 1497 2916 1236 2669 
Q 975 2422 975 1775 
L 975 0 
L 413 0 
L 413 3347 
z
" transform="scale(0.015625)"/>
     <path id="Helvetica-70" d="M 1825 378 
Q 2219 378 2480 708 
Q 2741 1038 2741 1694 
Q 2741 2094 2625 2381 
Q 2406 2934 1825 2934 
Q 1241 2934 1025 2350 
Q 909 2038 909 1556 
Q 909 1169 1025 897 
Q 1244 378 1825 378 
z
M 369 3331 
L 916 3331 
L 916 2888 
Q 1084 3116 1284 3241 
Q 1569 3428 1953 3428 
Q 2522 3428 2919 2992 
Q 3316 2556 3316 1747 
Q 3316 653 2744 184 
Q 2381 -113 1900 -113 
Q 1522 -113 1266 53 
Q 1116 147 931 375 
L 931 -1334 
L 369 -1334 
L 369 3331 
z
" transform="scale(0.015625)"/>
     <path id="Helvetica-6c" d="M 428 4591 
L 991 4591 
L 991 0 
L 428 0 
L 428 4591 
z
" transform="scale(0.015625)"/>
     <path id="Helvetica-65" d="M 1806 3422 
Q 2163 3422 2497 3255 
Q 2831 3088 3006 2822 
Q 3175 2569 3231 2231 
Q 3281 2000 3281 1494 
L 828 1494 
Q 844 984 1069 676 
Q 1294 369 1766 369 
Q 2206 369 2469 659 
Q 2619 828 2681 1050 
L 3234 1050 
Q 3213 866 3089 639 
Q 2966 413 2813 269 
Q 2556 19 2178 -69 
Q 1975 -119 1719 -119 
Q 1094 -119 659 336 
Q 225 791 225 1609 
Q 225 2416 662 2919 
Q 1100 3422 1806 3422 
z
M 2703 1941 
Q 2669 2306 2544 2525 
Q 2313 2931 1772 2931 
Q 1384 2931 1121 2651 
Q 859 2372 844 1941 
L 2703 1941 
z
M 1753 3428 
L 1753 3428 
z
" transform="scale(0.015625)"/>
     <path id="Helvetica-73" d="M 747 1050 
Q 772 769 888 619 
Q 1100 347 1625 347 
Q 1938 347 2175 483 
Q 2413 619 2413 903 
Q 2413 1119 2222 1231 
Q 2100 1300 1741 1391 
L 1294 1503 
Q 866 1609 663 1741 
Q 300 1969 300 2372 
Q 300 2847 642 3140 
Q 984 3434 1563 3434 
Q 2319 3434 2653 2991 
Q 2863 2709 2856 2384 
L 2325 2384 
Q 2309 2575 2191 2731 
Q 1997 2953 1519 2953 
Q 1200 2953 1036 2831 
Q 872 2709 872 2509 
Q 872 2291 1088 2159 
Q 1213 2081 1456 2022 
L 1828 1931 
Q 2434 1784 2641 1647 
Q 2969 1431 2969 969 
Q 2969 522 2630 197 
Q 2291 -128 1597 -128 
Q 850 -128 539 211 
Q 228 550 206 1050 
L 747 1050 
z
M 1578 3428 
L 1578 3428 
z
" transform="scale(0.015625)"/>
    </defs>
    <use xlink:href="#Helvetica-23"/>
    <use xlink:href="#Helvetica-20" x="55.615234"/>
    <use xlink:href="#Helvetica-45" x="83.398438"/>
    <use xlink:href="#Helvetica-78" x="150.097656"/>
    <use xlink:href="#Helvetica-61" x="200.097656"/>
    <use xlink:href="#Helvetica-6d" x="255.712891"/>
    <use xlink:href="#Helvetica-70" x="339.013672"/>
    <use xlink:href="#Helvetica-6c" x="394.628906"/>
    <use xlink:href="#Helvetica-65" x="416.845703"/>
    <use xlink:href="#Helvetica-73" x="472.460938"/>
   </g>
  </g>
  <g id="patch_10">
   <path d="M 26.299531 16.173542 
L 111.916307 16.173542 
L 111.916307 2.16 
L 26.299531 2.16 
z
" style="fill: #cccccc; stroke: #7f7f7f; stroke-linejoin: miter"/>
  </g>
  <g id="text_25">
   <!-- Biomedical -->
   <g style="fill: #1a1a1a" transform="translate(47.587794 12.323083) scale(0.088 -0.088)">
    <defs>
     <path id="Helvetica-42" d="M 2213 2650 
Q 2606 2650 2825 2759 
Q 3169 2931 3169 3378 
Q 3169 3828 2803 3984 
Q 2597 4072 2191 4072 
L 1081 4072 
L 1081 2650 
L 2213 2650 
z
M 2422 531 
Q 2994 531 3238 863 
Q 3391 1072 3391 1369 
Q 3391 1869 2944 2050 
Q 2706 2147 2316 2147 
L 1081 2147 
L 1081 531 
L 2422 531 
z
M 472 4591 
L 2444 4591 
Q 3250 4591 3591 4109 
Q 3791 3825 3791 3453 
Q 3791 3019 3544 2741 
Q 3416 2594 3175 2472 
Q 3528 2338 3703 2169 
Q 4013 1869 4013 1341 
Q 4013 897 3734 538 
Q 3319 0 2413 0 
L 472 0 
L 472 4591 
z
" transform="scale(0.015625)"/>
     <path id="Helvetica-6f" d="M 1741 363 
Q 2300 363 2508 786 
Q 2716 1209 2716 1728 
Q 2716 2197 2566 2491 
Q 2328 2953 1747 2953 
Q 1231 2953 997 2559 
Q 763 2166 763 1609 
Q 763 1075 997 719 
Q 1231 363 1741 363 
z
M 1763 3444 
Q 2409 3444 2856 3012 
Q 3303 2581 3303 1744 
Q 3303 934 2909 406 
Q 2516 -122 1688 -122 
Q 997 -122 590 345 
Q 184 813 184 1600 
Q 184 2444 612 2944 
Q 1041 3444 1763 3444 
z
M 1744 3428 
L 1744 3428 
z
" transform="scale(0.015625)"/>
     <path id="Helvetica-64" d="M 769 1634 
Q 769 1097 997 734 
Q 1225 372 1728 372 
Q 2119 372 2370 708 
Q 2622 1044 2622 1672 
Q 2622 2306 2362 2611 
Q 2103 2916 1722 2916 
Q 1297 2916 1033 2591 
Q 769 2266 769 1634 
z
M 1616 3406 
Q 2000 3406 2259 3244 
Q 2409 3150 2600 2916 
L 2600 4606 
L 3141 4606 
L 3141 0 
L 2634 0 
L 2634 466 
Q 2438 156 2169 18 
Q 1900 -119 1553 -119 
Q 994 -119 584 351 
Q 175 822 175 1603 
Q 175 2334 548 2870 
Q 922 3406 1616 3406 
z
" transform="scale(0.015625)"/>
     <path id="Helvetica-63" d="M 1703 3444 
Q 2269 3444 2623 3169 
Q 2978 2894 3050 2222 
L 2503 2222 
Q 2453 2531 2275 2736 
Q 2097 2941 1703 2941 
Q 1166 2941 934 2416 
Q 784 2075 784 1575 
Q 784 1072 996 728 
Q 1209 384 1666 384 
Q 2016 384 2220 598 
Q 2425 813 2503 1184 
L 3050 1184 
Q 2956 519 2581 211 
Q 2206 -97 1622 -97 
Q 966 -97 575 383 
Q 184 863 184 1581 
Q 184 2463 612 2953 
Q 1041 3444 1703 3444 
z
M 1616 3428 
L 1616 3428 
z
" transform="scale(0.015625)"/>
    </defs>
    <use xlink:href="#Helvetica-42"/>
    <use xlink:href="#Helvetica-69" x="66.699219"/>
    <use xlink:href="#Helvetica-6f" x="88.916016"/>
    <use xlink:href="#Helvetica-6d" x="144.53125"/>
    <use xlink:href="#Helvetica-65" x="227.832031"/>
    <use xlink:href="#Helvetica-64" x="283.447266"/>
    <use xlink:href="#Helvetica-69" x="339.0625"/>
    <use xlink:href="#Helvetica-63" x="361.279297"/>
    <use xlink:href="#Helvetica-61" x="411.279297"/>
    <use xlink:href="#Helvetica-6c" x="466.894531"/>
   </g>
  </g>
  <g id="patch_11">
   <path d="M 114.076307 16.173542 
L 199.693083 16.173542 
L 199.693083 2.16 
L 114.076307 2.16 
z
" style="fill: #cccccc; stroke: #7f7f7f; stroke-linejoin: miter"/>
  </g>
  <g id="text_26">
   <!-- Social Media -->
   <g style="fill: #1a1a1a" transform="translate(131.695383 12.323083) scale(0.088 -0.088)">
    <defs>
     <path id="Helvetica-4d" d="M 472 4591 
L 1363 4591 
L 2681 709 
L 3991 4591 
L 4872 4591 
L 4872 0 
L 4281 0 
L 4281 2709 
Q 4281 2850 4287 3175 
Q 4294 3500 4294 3872 
L 2984 0 
L 2369 0 
L 1050 3872 
L 1050 3731 
Q 1050 3563 1058 3217 
Q 1066 2872 1066 2709 
L 1066 0 
L 472 0 
L 472 4591 
z
" transform="scale(0.015625)"/>
    </defs>
    <use xlink:href="#Helvetica-53"/>
    <use xlink:href="#Helvetica-6f" x="66.699219"/>
    <use xlink:href="#Helvetica-63" x="122.314453"/>
    <use xlink:href="#Helvetica-69" x="172.314453"/>
    <use xlink:href="#Helvetica-61" x="194.53125"/>
    <use xlink:href="#Helvetica-6c" x="250.146484"/>
    <use xlink:href="#Helvetica-20" x="272.363281"/>
    <use xlink:href="#Helvetica-4d" x="300.146484"/>
    <use xlink:href="#Helvetica-65" x="383.447266"/>
    <use xlink:href="#Helvetica-64" x="439.0625"/>
    <use xlink:href="#Helvetica-69" x="494.677734"/>
    <use xlink:href="#Helvetica-61" x="516.894531"/>
   </g>
  </g>
  <g id="patch_12">
   <path d="M 199.693083 98.823092 
L 213.84 98.823092 
L 213.84 16.173542 
L 199.693083 16.173542 
z
" style="fill: #cccccc; stroke: #7f7f7f; stroke-linejoin: miter"/>
  </g>
  <g id="text_27">
   <!-- English - Italian -->
   <g style="fill: #1a1a1a" transform="translate(203.599917 27.417442) rotate(-270) scale(0.088 -0.088)">
    <defs>
     <path id="Helvetica-68" d="M 413 4606 
L 975 4606 
L 975 2894 
Q 1175 3147 1334 3250 
Q 1606 3428 2013 3428 
Q 2741 3428 3000 2919 
Q 3141 2641 3141 2147 
L 3141 0 
L 2563 0 
L 2563 2109 
Q 2563 2478 2469 2650 
Q 2316 2925 1894 2925 
Q 1544 2925 1259 2684 
Q 975 2444 975 1775 
L 975 0 
L 413 0 
L 413 4606 
z
" transform="scale(0.015625)"/>
     <path id="Helvetica-49" d="M 628 4591 
L 1256 4591 
L 1256 0 
L 628 0 
L 628 4591 
z
" transform="scale(0.015625)"/>
    </defs>
    <use xlink:href="#Helvetica-45"/>
    <use xlink:href="#Helvetica-6e" x="66.699219"/>
    <use xlink:href="#Helvetica-67" x="122.314453"/>
    <use xlink:href="#Helvetica-6c" x="177.929688"/>
    <use xlink:href="#Helvetica-69" x="200.146484"/>
    <use xlink:href="#Helvetica-73" x="222.363281"/>
    <use xlink:href="#Helvetica-68" x="272.363281"/>
    <use xlink:href="#Helvetica-20" x="327.978516"/>
    <use xlink:href="#Helvetica-2d" x="355.761719"/>
    <use xlink:href="#Helvetica-20" x="389.0625"/>
    <use xlink:href="#Helvetica-49" x="416.845703"/>
    <use xlink:href="#Helvetica-74" x="444.628906"/>
    <use xlink:href="#Helvetica-61" x="472.412109"/>
    <use xlink:href="#Helvetica-6c" x="528.027344"/>
    <use xlink:href="#Helvetica-69" x="550.244141"/>
    <use xlink:href="#Helvetica-61" x="572.460938"/>
    <use xlink:href="#Helvetica-6e" x="628.076172"/>
   </g>
  </g>
  <g id="patch_13">
   <path d="M 199.693083 183.632642 
L 213.84 183.632642 
L 213.84 100.983092 
L 199.693083 100.983092 
z
" style="fill: #cccccc; stroke: #7f7f7f; stroke-linejoin: miter"/>
  </g>
  <g id="text_28">
   <!-- English - Dutch -->
   <g style="fill: #1a1a1a" transform="translate(203.599917 112.473804) rotate(-270) scale(0.088 -0.088)">
    <defs>
     <path id="Helvetica-44" d="M 2250 531 
Q 2566 531 2769 597 
Q 3131 719 3363 1066 
Q 3547 1344 3628 1778 
Q 3675 2038 3675 2259 
Q 3675 3113 3336 3584 
Q 2997 4056 2244 4056 
L 1141 4056 
L 1141 531 
L 2250 531 
z
M 516 4591 
L 2375 4591 
Q 3322 4591 3844 3919 
Q 4309 3313 4309 2366 
Q 4309 1634 4034 1044 
Q 3550 0 2369 0 
L 516 0 
L 516 4591 
z
" transform="scale(0.015625)"/>
     <path id="Helvetica-75" d="M 975 3347 
L 975 1125 
Q 975 869 1056 706 
Q 1206 406 1616 406 
Q 2203 406 2416 931 
Q 2531 1213 2531 1703 
L 2531 3347 
L 3094 3347 
L 3094 0 
L 2563 0 
L 2569 494 
Q 2459 303 2297 172 
Q 1975 -91 1516 -91 
Q 800 -91 541 388 
Q 400 644 400 1072 
L 400 3347 
L 975 3347 
z
M 1747 3428 
L 1747 3428 
z
" transform="scale(0.015625)"/>
    </defs>
    <use xlink:href="#Helvetica-45"/>
    <use xlink:href="#Helvetica-6e" x="66.699219"/>
    <use xlink:href="#Helvetica-67" x="122.314453"/>
    <use xlink:href="#Helvetica-6c" x="177.929688"/>
    <use xlink:href="#Helvetica-69" x="200.146484"/>
    <use xlink:href="#Helvetica-73" x="222.363281"/>
    <use xlink:href="#Helvetica-68" x="272.363281"/>
    <use xlink:href="#Helvetica-20" x="327.978516"/>
    <use xlink:href="#Helvetica-2d" x="355.761719"/>
    <use xlink:href="#Helvetica-20" x="389.0625"/>
    <use xlink:href="#Helvetica-44" x="416.845703"/>
    <use xlink:href="#Helvetica-75" x="489.0625"/>
    <use xlink:href="#Helvetica-74" x="544.677734"/>
    <use xlink:href="#Helvetica-63" x="572.460938"/>
    <use xlink:href="#Helvetica-68" x="622.460938"/>
   </g>
  </g>
  <g id="patch_14">
   <path d="M 55.749242 57.219452 
L 81.894242 57.219452 
L 81.894242 30.219452 
L 55.749242 30.219452 
z
" style="fill: #ffffff"/>
  </g>
  <g id="patch_15">
   <path d="M 57.749242 40.219452 
L 65.749242 40.219452 
L 65.749242 32.219452 
L 57.749242 32.219452 
L 57.749242 40.219452 
z
" clip-path="url(#pe40f348ba7)" style="fill: none; stroke: #cccccc; stroke-linejoin: miter"/>
  </g>
  <g id="patch_16">
   <path d="M 57.192355 40.776338 
L 66.306128 40.776338 
L 66.306128 31.662565 
L 57.192355 31.662565 
z
" clip-path="url(#pe40f348ba7)" style="fill: #db5f57; stroke: #000000; stroke-width: 0.886227; stroke-linejoin: miter; stroke-linecap: square"/>
  </g>
  <g id="patch_17">
   <path d="M 57.192355 40.776338 
L 66.306128 40.776338 
L 66.306128 31.662565 
L 57.192355 31.662565 
z
" clip-path="url(#pe40f348ba7)" style="fill: #db5f57; fill-opacity: 0.6; stroke: #000000; stroke-width: 0.886227; stroke-linejoin: miter; stroke-linecap: square"/>
  </g>
  <g id="text_29">
   <!-- MT -->
   <g transform="translate(68.189242 38.458639) scale(0.088 -0.088)">
    <defs>
     <path id="Helvetica-54" d="M 3828 4591 
L 3828 4044 
L 2281 4044 
L 2281 0 
L 1650 0 
L 1650 4044 
L 103 4044 
L 103 4591 
L 3828 4591 
z
" transform="scale(0.015625)"/>
    </defs>
    <use xlink:href="#Helvetica-4d"/>
    <use xlink:href="#Helvetica-54" x="83.300781"/>
   </g>
  </g>
  <g id="patch_18">
   <path d="M 57.749242 55.219452 
L 65.749242 55.219452 
L 65.749242 47.219452 
L 57.749242 47.219452 
L 57.749242 55.219452 
z
" clip-path="url(#p156412aa48)" style="fill: none; stroke: #cccccc; stroke-linejoin: miter"/>
  </g>
  <g id="patch_19">
   <path d="M 57.192355 55.776338 
L 66.306128 55.776338 
L 66.306128 46.662565 
L 57.192355 46.662565 
z
" clip-path="url(#p156412aa48)" style="fill: #57d3db; stroke: #000000; stroke-width: 0.886227; stroke-linejoin: miter; stroke-linecap: square"/>
  </g>
  <g id="patch_20">
   <path d="M 57.192355 55.776338 
L 66.306128 55.776338 
L 66.306128 46.662565 
L 57.192355 46.662565 
z
" clip-path="url(#p156412aa48)" style="fill: #57d3db; fill-opacity: 0.6; stroke: #000000; stroke-width: 0.886227; stroke-linejoin: miter; stroke-linecap: square"/>
  </g>
  <g id="text_30">
   <!-- PE -->
   <g transform="translate(68.189242 53.458639) scale(0.088 -0.088)">
    <defs>
     <path id="Helvetica-50" d="M 547 4591 
L 2613 4591 
Q 3225 4591 3600 4245 
Q 3975 3900 3975 3275 
Q 3975 2738 3640 2339 
Q 3306 1941 2613 1941 
L 1169 1941 
L 1169 0 
L 547 0 
L 547 4591 
z
M 3347 3272 
Q 3347 3778 2972 3959 
Q 2766 4056 2406 4056 
L 1169 4056 
L 1169 2466 
L 2406 2466 
Q 2825 2466 3086 2644 
Q 3347 2822 3347 3272 
z
" transform="scale(0.015625)"/>
    </defs>
    <use xlink:href="#Helvetica-50"/>
    <use xlink:href="#Helvetica-45" x="66.699219"/>
   </g>
  </g>
 </g>
 <defs>
  <clipPath id="p8c1aa36bd6">
   <rect x="26.299531" y="16.173542" width="85.616776" height="82.64955"/>
  </clipPath>
  <clipPath id="pc30517c810">
   <rect x="114.076307" y="16.173542" width="85.616776" height="82.64955"/>
  </clipPath>
  <clipPath id="p7a062b5234">
   <rect x="26.299531" y="100.983092" width="85.616776" height="82.64955"/>
  </clipPath>
  <clipPath id="ped247787b0">
   <rect x="114.076307" y="100.983092" width="85.616776" height="82.64955"/>
  </clipPath>
  <clipPath id="pe40f348ba7">
   <path d="M 56.749242 41.219452 
L 56.749242 31.219452 
L 66.749242 31.219452 
L 66.749242 41.219452 
"/>
  </clipPath>
  <clipPath id="p156412aa48">
   <path d="M 56.749242 56.219452 
L 56.749242 46.219452 
L 66.749242 46.219452 
L 66.749242 56.219452 
"/>
  </clipPath>
 </defs>
</svg>
