<?xml version="1.0" encoding="utf-8" standalone="no"?>
<!DOCTYPE svg PUBLIC "-//W3C//DTD SVG 1.1//EN"
  "http://www.w3.org/Graphics/SVG/1.1/DTD/svg11.dtd">
<svg xmlns:xlink="http://www.w3.org/1999/xlink" width="288pt" height="216pt" viewBox="0 0 288 216" xmlns="http://www.w3.org/2000/svg" version="1.1">
 <metadata>
  <rdf:RDF xmlns:dc="http://purl.org/dc/elements/1.1/" xmlns:cc="http://creativecommons.org/ns#" xmlns:rdf="http://www.w3.org/1999/02/22-rdf-syntax-ns#">
   <cc:Work>
    <dc:type rdf:resource="http://purl.org/dc/dcmitype/StillImage"/>
    <dc:date>2025-02-10T11:17:18.599910</dc:date>
    <dc:format>image/svg+xml</dc:format>
    <dc:creator>
     <cc:Agent>
      <dc:title>Matplotlib v3.8.2, https://matplotlib.org/</dc:title>
     </cc:Agent>
    </dc:creator>
   </cc:Work>
  </rdf:RDF>
 </metadata>
 <defs>
  <style type="text/css">*{stroke-linejoin: round; stroke-linecap: butt}</style>
 </defs>
 <g id="figure_1">
  <g id="patch_1">
   <path d="M 0 216 
L 288 216 
L 288 0 
L 0 0 
z
" style="fill: #ffffff; stroke: #ffffff; stroke-linejoin: miter"/>
  </g>
  <g id="axes_1">
   <g id="patch_2">
    <path d="M 36.104063 112.856359 
L 152.16526 112.856359 
L 152.16526 17.026917 
L 36.104063 17.026917 
z
" style="fill: #ffffff"/>
   </g>
   <g id="matplotlib.axis_1">
    <g id="xtick_1">
     <g id="line2d_1">
      <path d="M 57.865537 112.856359 
L 57.865537 17.026917 
" clip-path="url(#pf189c287ef)" style="fill: none; stroke: #e5e5e5; stroke-linecap: square"/>
     </g>
    </g>
    <g id="xtick_2">
     <g id="line2d_2">
      <path d="M 94.134661 112.856359 
L 94.134661 17.026917 
" clip-path="url(#pf189c287ef)" style="fill: none; stroke: #e5e5e5; stroke-linecap: square"/>
     </g>
    </g>
    <g id="xtick_3">
     <g id="line2d_3">
      <path d="M 130.403786 112.856359 
L 130.403786 17.026917 
" clip-path="url(#pf189c287ef)" style="fill: none; stroke: #e5e5e5; stroke-linecap: square"/>
     </g>
    </g>
   </g>
   <g id="matplotlib.axis_2">
    <g id="ytick_1">
     <g id="line2d_4">
      <path d="M 36.104063 108.500475 
" style="fill: none; stroke: #333333; stroke-width: 1.5; stroke-linecap: square"/>
      <defs>
       <path id="mec3422dbec" d="M 0 0 
L -2.75 0 
" style="stroke: #333333"/>
      </defs>
      <g>
       <use xlink:href="#mec3422dbec" x="36.104063" y="108.500475" style="fill: #333333; stroke: #333333"/>
      </g>
     </g>
     <g id="text_1">
      <!-- 0.00 -->
      <g style="fill: #4d4d4d" transform="translate(14.228438 111.656788) scale(0.088 -0.088)">
       <defs>
        <path id="Helvetica-30" d="M 1731 4475 
Q 2600 4475 2988 3759 
Q 3288 3206 3288 2244 
Q 3288 1331 3016 734 
Q 2622 -122 1728 -122 
Q 922 -122 528 578 
Q 200 1163 200 2147 
Q 200 2909 397 3456 
Q 766 4475 1731 4475 
z
M 1725 391 
Q 2163 391 2422 778 
Q 2681 1166 2681 2222 
Q 2681 2984 2493 3476 
Q 2306 3969 1766 3969 
Q 1269 3969 1039 3501 
Q 809 3034 809 2125 
Q 809 1441 956 1025 
Q 1181 391 1725 391 
z
" transform="scale(0.015625)"/>
        <path id="Helvetica-2e" d="M 547 681 
L 1200 681 
L 1200 0 
L 547 0 
L 547 681 
z
" transform="scale(0.015625)"/>
       </defs>
       <use xlink:href="#Helvetica-30"/>
       <use xlink:href="#Helvetica-2e" x="55.615234"/>
       <use xlink:href="#Helvetica-30" x="83.398438"/>
       <use xlink:href="#Helvetica-30" x="139.013672"/>
      </g>
     </g>
    </g>
    <g id="ytick_2">
     <g id="line2d_5">
      <path d="M 36.104063 86.721056 
" style="fill: none; stroke: #333333; stroke-width: 1.5; stroke-linecap: square"/>
      <g>
       <use xlink:href="#mec3422dbec" x="36.104063" y="86.721056" style="fill: #333333; stroke: #333333"/>
      </g>
     </g>
     <g id="text_2">
      <!-- 0.25 -->
      <g style="fill: #4d4d4d" transform="translate(14.228438 89.877369) scale(0.088 -0.088)">
       <defs>
        <path id="Helvetica-32" d="M 200 0 
Q 231 578 439 1006 
Q 647 1434 1250 1784 
L 1850 2131 
Q 2253 2366 2416 2531 
Q 2672 2791 2672 3125 
Q 2672 3516 2437 3745 
Q 2203 3975 1813 3975 
Q 1234 3975 1013 3538 
Q 894 3303 881 2888 
L 309 2888 
Q 319 3472 525 3841 
Q 891 4491 1816 4491 
Q 2584 4491 2939 4075 
Q 3294 3659 3294 3150 
Q 3294 2613 2916 2231 
Q 2697 2009 2131 1694 
L 1703 1456 
Q 1397 1288 1222 1134 
Q 909 863 828 531 
L 3272 531 
L 3272 0 
L 200 0 
z
" transform="scale(0.015625)"/>
        <path id="Helvetica-35" d="M 791 1141 
Q 847 659 1238 475 
Q 1438 381 1700 381 
Q 2200 381 2440 700 
Q 2681 1019 2681 1406 
Q 2681 1875 2395 2131 
Q 2109 2388 1709 2388 
Q 1419 2388 1211 2275 
Q 1003 2163 856 1963 
L 369 1991 
L 709 4400 
L 3034 4400 
L 3034 3856 
L 1131 3856 
L 941 2613 
Q 1097 2731 1238 2791 
Q 1488 2894 1816 2894 
Q 2431 2894 2859 2497 
Q 3288 2100 3288 1491 
Q 3288 856 2895 371 
Q 2503 -113 1644 -113 
Q 1097 -113 676 195 
Q 256 503 206 1141 
L 791 1141 
z
" transform="scale(0.015625)"/>
       </defs>
       <use xlink:href="#Helvetica-30"/>
       <use xlink:href="#Helvetica-2e" x="55.615234"/>
       <use xlink:href="#Helvetica-32" x="83.398438"/>
       <use xlink:href="#Helvetica-35" x="139.013672"/>
      </g>
     </g>
    </g>
    <g id="ytick_3">
     <g id="line2d_6">
      <path d="M 36.104063 64.941638 
" style="fill: none; stroke: #333333; stroke-width: 1.5; stroke-linecap: square"/>
      <g>
       <use xlink:href="#mec3422dbec" x="36.104063" y="64.941638" style="fill: #333333; stroke: #333333"/>
      </g>
     </g>
     <g id="text_3">
      <!-- 0.50 -->
      <g style="fill: #4d4d4d" transform="translate(14.228438 68.09795) scale(0.088 -0.088)">
       <use xlink:href="#Helvetica-30"/>
       <use xlink:href="#Helvetica-2e" x="55.615234"/>
       <use xlink:href="#Helvetica-35" x="83.398438"/>
       <use xlink:href="#Helvetica-30" x="139.013672"/>
      </g>
     </g>
    </g>
    <g id="ytick_4">
     <g id="line2d_7">
      <path d="M 36.104063 43.162219 
" style="fill: none; stroke: #333333; stroke-width: 1.5; stroke-linecap: square"/>
      <g>
       <use xlink:href="#mec3422dbec" x="36.104063" y="43.162219" style="fill: #333333; stroke: #333333"/>
      </g>
     </g>
     <g id="text_4">
      <!-- 0.75 -->
      <g style="fill: #4d4d4d" transform="translate(14.228438 46.318532) scale(0.088 -0.088)">
       <defs>
        <path id="Helvetica-37" d="M 3347 4400 
L 3347 3909 
Q 3131 3700 2773 3181 
Q 2416 2663 2141 2063 
Q 1869 1478 1728 997 
Q 1638 688 1494 0 
L 872 0 
Q 1084 1281 1809 2550 
Q 2238 3294 2709 3834 
L 234 3834 
L 234 4400 
L 3347 4400 
z
" transform="scale(0.015625)"/>
       </defs>
       <use xlink:href="#Helvetica-30"/>
       <use xlink:href="#Helvetica-2e" x="55.615234"/>
       <use xlink:href="#Helvetica-37" x="83.398438"/>
       <use xlink:href="#Helvetica-35" x="139.013672"/>
      </g>
     </g>
    </g>
    <g id="ytick_5">
     <g id="line2d_8">
      <path d="M 36.104063 21.3828 
" style="fill: none; stroke: #333333; stroke-width: 1.5; stroke-linecap: square"/>
      <g>
       <use xlink:href="#mec3422dbec" x="36.104063" y="21.3828" style="fill: #333333; stroke: #333333"/>
      </g>
     </g>
     <g id="text_5">
      <!-- 1.00 -->
      <g style="fill: #4d4d4d" transform="translate(14.228438 24.539113) scale(0.088 -0.088)">
       <defs>
        <path id="Helvetica-31" d="M 613 3169 
L 613 3600 
Q 1222 3659 1462 3798 
Q 1703 3938 1822 4456 
L 2266 4456 
L 2266 0 
L 1666 0 
L 1666 3169 
L 613 3169 
z
" transform="scale(0.015625)"/>
       </defs>
       <use xlink:href="#Helvetica-31"/>
       <use xlink:href="#Helvetica-2e" x="55.615234"/>
       <use xlink:href="#Helvetica-30" x="83.398438"/>
       <use xlink:href="#Helvetica-30" x="139.013672"/>
      </g>
     </g>
    </g>
    <g id="ytick_6"/>
    <g id="ytick_7"/>
    <g id="ytick_8"/>
    <g id="ytick_9"/>
   </g>
   <g id="LineCollection_1">
    <path d="M 57.865537 39.942653 
L 57.865537 21.3828 
" clip-path="url(#pf189c287ef)" style="fill: none; stroke: #333333; stroke-width: 0.886227"/>
    <path d="M 57.865537 108.500475 
L 57.865537 108.500475 
" clip-path="url(#pf189c287ef)" style="fill: none; stroke: #333333; stroke-width: 0.886227"/>
   </g>
   <g id="PolyCollection_1">
    <defs>
     <path id="m9fcef0b2ba" d="M 50.611712 -176.057347 
L 50.611712 -176.057347 
L 65.119362 -176.057347 
L 65.119362 -107.499525 
L 50.611712 -107.499525 
z
" style="stroke: #333333; stroke-width: 0.886227"/>
    </defs>
    <g clip-path="url(#pf189c287ef)">
     <use xlink:href="#m9fcef0b2ba" x="0" y="216" style="fill: #1c9a0e; stroke: #333333; stroke-width: 0.886227"/>
    </g>
   </g>
   <g id="LineCollection_2">
    <path d="M 50.611712 87.767665 
L 65.119362 87.767665 
" clip-path="url(#pf189c287ef)" style="fill: none; stroke: #333333; stroke-width: 1.772454"/>
   </g>
   <g id="LineCollection_3">
    <path d="M 94.134661 56.486099 
L 94.134661 21.3828 
" clip-path="url(#pf189c287ef)" style="fill: none; stroke: #333333; stroke-width: 0.886227"/>
    <path d="M 94.134661 108.500475 
L 94.134661 108.500475 
" clip-path="url(#pf189c287ef)" style="fill: none; stroke: #333333; stroke-width: 0.886227"/>
   </g>
   <g id="PolyCollection_2">
    <defs>
     <path id="m01de325d14" d="M 86.880837 -159.513901 
L 86.880837 -159.513901 
L 101.388486 -159.513901 
L 101.388486 -107.499525 
L 86.880837 -107.499525 
z
" style="stroke: #333333; stroke-width: 0.886227"/>
    </defs>
    <g clip-path="url(#pf189c287ef)">
     <use xlink:href="#m01de325d14" x="0" y="216" style="fill: #e6950a; stroke: #333333; stroke-width: 0.886227"/>
    </g>
   </g>
   <g id="LineCollection_4">
    <path d="M 86.880837 84.741109 
L 101.388486 84.741109 
" clip-path="url(#pf189c287ef)" style="fill: none; stroke: #333333; stroke-width: 1.772454"/>
   </g>
   <g id="PathCollection_1">
    <path d="M 130.403786 22.712141 
C 130.756331 22.712141 131.094484 22.572073 131.343771 22.322786 
C 131.593059 22.073499 131.733126 21.735346 131.733126 21.3828 
C 131.733126 21.030255 131.593059 20.692102 131.343771 20.442815 
C 131.094484 20.193528 130.756331 20.05346 130.403786 20.05346 
C 130.051241 20.05346 129.713087 20.193528 129.4638 20.442815 
C 129.214513 20.692102 129.074445 21.030255 129.074445 21.3828 
C 129.074445 21.735346 129.214513 22.073499 129.4638 22.322786 
C 129.713087 22.572073 130.051241 22.712141 130.403786 22.712141 
z
" clip-path="url(#pf189c287ef)" style="fill: #333333; fill-opacity: 0.298039; stroke: #333333; stroke-opacity: 0.298039; stroke-width: 0.886227"/>
    <path d="M 130.403786 22.712141 
C 130.756331 22.712141 131.094484 22.572073 131.343771 22.322786 
C 131.593059 22.073499 131.733126 21.735346 131.733126 21.3828 
C 131.733126 21.030255 131.593059 20.692102 131.343771 20.442815 
C 131.094484 20.193528 130.756331 20.05346 130.403786 20.05346 
C 130.051241 20.05346 129.713087 20.193528 129.4638 20.442815 
C 129.214513 20.692102 129.074445 21.030255 129.074445 21.3828 
C 129.074445 21.735346 129.214513 22.073499 129.4638 22.322786 
C 129.713087 22.572073 130.051241 22.712141 130.403786 22.712141 
z
" clip-path="url(#pf189c287ef)" style="fill: #333333; fill-opacity: 0.298039; stroke: #333333; stroke-opacity: 0.298039; stroke-width: 0.886227"/>
    <path d="M 130.403786 22.712141 
C 130.756331 22.712141 131.094484 22.572073 131.343771 22.322786 
C 131.593059 22.073499 131.733126 21.735346 131.733126 21.3828 
C 131.733126 21.030255 131.593059 20.692102 131.343771 20.442815 
C 131.094484 20.193528 130.756331 20.05346 130.403786 20.05346 
C 130.051241 20.05346 129.713087 20.193528 129.4638 20.442815 
C 129.214513 20.692102 129.074445 21.030255 129.074445 21.3828 
C 129.074445 21.735346 129.214513 22.073499 129.4638 22.322786 
C 129.713087 22.572073 130.051241 22.712141 130.403786 22.712141 
z
" clip-path="url(#pf189c287ef)" style="fill: #333333; fill-opacity: 0.298039; stroke: #333333; stroke-opacity: 0.298039; stroke-width: 0.886227"/>
    <path d="M 130.403786 22.712141 
C 130.756331 22.712141 131.094484 22.572073 131.343771 22.322786 
C 131.593059 22.073499 131.733126 21.735346 131.733126 21.3828 
C 131.733126 21.030255 131.593059 20.692102 131.343771 20.442815 
C 131.094484 20.193528 130.756331 20.05346 130.403786 20.05346 
C 130.051241 20.05346 129.713087 20.193528 129.4638 20.442815 
C 129.214513 20.692102 129.074445 21.030255 129.074445 21.3828 
C 129.074445 21.735346 129.214513 22.073499 129.4638 22.322786 
C 129.713087 22.572073 130.051241 22.712141 130.403786 22.712141 
z
" clip-path="url(#pf189c287ef)" style="fill: #333333; fill-opacity: 0.298039; stroke: #333333; stroke-opacity: 0.298039; stroke-width: 0.886227"/>
    <path d="M 130.403786 35.157523 
C 130.756331 35.157523 131.094484 35.017455 131.343771 34.768168 
C 131.593059 34.518881 131.733126 34.180728 131.733126 33.828183 
C 131.733126 33.475637 131.593059 33.137484 131.343771 32.888197 
C 131.094484 32.63891 130.756331 32.498842 130.403786 32.498842 
C 130.051241 32.498842 129.713087 32.63891 129.4638 32.888197 
C 129.214513 33.137484 129.074445 33.475637 129.074445 33.828183 
C 129.074445 34.180728 129.214513 34.518881 129.4638 34.768168 
C 129.713087 35.017455 130.051241 35.157523 130.403786 35.157523 
z
" clip-path="url(#pf189c287ef)" style="fill: #333333; fill-opacity: 0.298039; stroke: #333333; stroke-opacity: 0.298039; stroke-width: 0.886227"/>
    <path d="M 130.403786 22.712141 
C 130.756331 22.712141 131.094484 22.572073 131.343771 22.322786 
C 131.593059 22.073499 131.733126 21.735346 131.733126 21.3828 
C 131.733126 21.030255 131.593059 20.692102 131.343771 20.442815 
C 131.094484 20.193528 130.756331 20.05346 130.403786 20.05346 
C 130.051241 20.05346 129.713087 20.193528 129.4638 20.442815 
C 129.214513 20.692102 129.074445 21.030255 129.074445 21.3828 
C 129.074445 21.735346 129.214513 22.073499 129.4638 22.322786 
C 129.713087 22.572073 130.051241 22.712141 130.403786 22.712141 
z
" clip-path="url(#pf189c287ef)" style="fill: #333333; fill-opacity: 0.298039; stroke: #333333; stroke-opacity: 0.298039; stroke-width: 0.886227"/>
    <path d="M 130.403786 22.712141 
C 130.756331 22.712141 131.094484 22.572073 131.343771 22.322786 
C 131.593059 22.073499 131.733126 21.735346 131.733126 21.3828 
C 131.733126 21.030255 131.593059 20.692102 131.343771 20.442815 
C 131.094484 20.193528 130.756331 20.05346 130.403786 20.05346 
C 130.051241 20.05346 129.713087 20.193528 129.4638 20.442815 
C 129.214513 20.692102 129.074445 21.030255 129.074445 21.3828 
C 129.074445 21.735346 129.214513 22.073499 129.4638 22.322786 
C 129.713087 22.572073 130.051241 22.712141 130.403786 22.712141 
z
" clip-path="url(#pf189c287ef)" style="fill: #333333; fill-opacity: 0.298039; stroke: #333333; stroke-opacity: 0.298039; stroke-width: 0.886227"/>
    <path d="M 130.403786 31.423908 
C 130.756331 31.423908 131.094484 31.283841 131.343771 31.034553 
C 131.593059 30.785266 131.733126 30.447113 131.733126 30.094568 
C 131.733126 29.742023 131.593059 29.403869 131.343771 29.154582 
C 131.094484 28.905295 130.756331 28.765227 130.403786 28.765227 
C 130.051241 28.765227 129.713087 28.905295 129.4638 29.154582 
C 129.214513 29.403869 129.074445 29.742023 129.074445 30.094568 
C 129.074445 30.447113 129.214513 30.785266 129.4638 31.034553 
C 129.713087 31.283841 130.051241 31.423908 130.403786 31.423908 
z
" clip-path="url(#pf189c287ef)" style="fill: #333333; fill-opacity: 0.298039; stroke: #333333; stroke-opacity: 0.298039; stroke-width: 0.886227"/>
    <path d="M 130.403786 22.712141 
C 130.756331 22.712141 131.094484 22.572073 131.343771 22.322786 
C 131.593059 22.073499 131.733126 21.735346 131.733126 21.3828 
C 131.733126 21.030255 131.593059 20.692102 131.343771 20.442815 
C 131.094484 20.193528 130.756331 20.05346 130.403786 20.05346 
C 130.051241 20.05346 129.713087 20.193528 129.4638 20.442815 
C 129.214513 20.692102 129.074445 21.030255 129.074445 21.3828 
C 129.074445 21.735346 129.214513 22.073499 129.4638 22.322786 
C 129.713087 22.572073 130.051241 22.712141 130.403786 22.712141 
z
" clip-path="url(#pf189c287ef)" style="fill: #333333; fill-opacity: 0.298039; stroke: #333333; stroke-opacity: 0.298039; stroke-width: 0.886227"/>
    <path d="M 130.403786 22.712141 
C 130.756331 22.712141 131.094484 22.572073 131.343771 22.322786 
C 131.593059 22.073499 131.733126 21.735346 131.733126 21.3828 
C 131.733126 21.030255 131.593059 20.692102 131.343771 20.442815 
C 131.094484 20.193528 130.756331 20.05346 130.403786 20.05346 
C 130.051241 20.05346 129.713087 20.193528 129.4638 20.442815 
C 129.214513 20.692102 129.074445 21.030255 129.074445 21.3828 
C 129.074445 21.735346 129.214513 22.073499 129.4638 22.322786 
C 129.713087 22.572073 130.051241 22.712141 130.403786 22.712141 
z
" clip-path="url(#pf189c287ef)" style="fill: #333333; fill-opacity: 0.298039; stroke: #333333; stroke-opacity: 0.298039; stroke-width: 0.886227"/>
    <path d="M 130.403786 22.712141 
C 130.756331 22.712141 131.094484 22.572073 131.343771 22.322786 
C 131.593059 22.073499 131.733126 21.735346 131.733126 21.3828 
C 131.733126 21.030255 131.593059 20.692102 131.343771 20.442815 
C 131.094484 20.193528 130.756331 20.05346 130.403786 20.05346 
C 130.051241 20.05346 129.713087 20.193528 129.4638 20.442815 
C 129.214513 20.692102 129.074445 21.030255 129.074445 21.3828 
C 129.074445 21.735346 129.214513 22.073499 129.4638 22.322786 
C 129.713087 22.572073 130.051241 22.712141 130.403786 22.712141 
z
" clip-path="url(#pf189c287ef)" style="fill: #333333; fill-opacity: 0.298039; stroke: #333333; stroke-opacity: 0.298039; stroke-width: 0.886227"/>
    <path d="M 130.403786 22.712141 
C 130.756331 22.712141 131.094484 22.572073 131.343771 22.322786 
C 131.593059 22.073499 131.733126 21.735346 131.733126 21.3828 
C 131.733126 21.030255 131.593059 20.692102 131.343771 20.442815 
C 131.094484 20.193528 130.756331 20.05346 130.403786 20.05346 
C 130.051241 20.05346 129.713087 20.193528 129.4638 20.442815 
C 129.214513 20.692102 129.074445 21.030255 129.074445 21.3828 
C 129.074445 21.735346 129.214513 22.073499 129.4638 22.322786 
C 129.713087 22.572073 130.051241 22.712141 130.403786 22.712141 
z
" clip-path="url(#pf189c287ef)" style="fill: #333333; fill-opacity: 0.298039; stroke: #333333; stroke-opacity: 0.298039; stroke-width: 0.886227"/>
    <path d="M 130.403786 22.712141 
C 130.756331 22.712141 131.094484 22.572073 131.343771 22.322786 
C 131.593059 22.073499 131.733126 21.735346 131.733126 21.3828 
C 131.733126 21.030255 131.593059 20.692102 131.343771 20.442815 
C 131.094484 20.193528 130.756331 20.05346 130.403786 20.05346 
C 130.051241 20.05346 129.713087 20.193528 129.4638 20.442815 
C 129.214513 20.692102 129.074445 21.030255 129.074445 21.3828 
C 129.074445 21.735346 129.214513 22.073499 129.4638 22.322786 
C 129.713087 22.572073 130.051241 22.712141 130.403786 22.712141 
z
" clip-path="url(#pf189c287ef)" style="fill: #333333; fill-opacity: 0.298039; stroke: #333333; stroke-opacity: 0.298039; stroke-width: 0.886227"/>
    <path d="M 130.403786 40.135676 
C 130.756331 40.135676 131.094484 39.995608 131.343771 39.746321 
C 131.593059 39.497034 131.733126 39.158881 131.733126 38.806335 
C 131.733126 38.45379 131.593059 38.115637 131.343771 37.86635 
C 131.094484 37.617063 130.756331 37.476995 130.403786 37.476995 
C 130.051241 37.476995 129.713087 37.617063 129.4638 37.86635 
C 129.214513 38.115637 129.074445 38.45379 129.074445 38.806335 
C 129.074445 39.158881 129.214513 39.497034 129.4638 39.746321 
C 129.713087 39.995608 130.051241 40.135676 130.403786 40.135676 
z
" clip-path="url(#pf189c287ef)" style="fill: #333333; fill-opacity: 0.298039; stroke: #333333; stroke-opacity: 0.298039; stroke-width: 0.886227"/>
    <path d="M 130.403786 22.712141 
C 130.756331 22.712141 131.094484 22.572073 131.343771 22.322786 
C 131.593059 22.073499 131.733126 21.735346 131.733126 21.3828 
C 131.733126 21.030255 131.593059 20.692102 131.343771 20.442815 
C 131.094484 20.193528 130.756331 20.05346 130.403786 20.05346 
C 130.051241 20.05346 129.713087 20.193528 129.4638 20.442815 
C 129.214513 20.692102 129.074445 21.030255 129.074445 21.3828 
C 129.074445 21.735346 129.214513 22.073499 129.4638 22.322786 
C 129.713087 22.572073 130.051241 22.712141 130.403786 22.712141 
z
" clip-path="url(#pf189c287ef)" style="fill: #333333; fill-opacity: 0.298039; stroke: #333333; stroke-opacity: 0.298039; stroke-width: 0.886227"/>
    <path d="M 130.403786 22.712141 
C 130.756331 22.712141 131.094484 22.572073 131.343771 22.322786 
C 131.593059 22.073499 131.733126 21.735346 131.733126 21.3828 
C 131.733126 21.030255 131.593059 20.692102 131.343771 20.442815 
C 131.094484 20.193528 130.756331 20.05346 130.403786 20.05346 
C 130.051241 20.05346 129.713087 20.193528 129.4638 20.442815 
C 129.214513 20.692102 129.074445 21.030255 129.074445 21.3828 
C 129.074445 21.735346 129.214513 22.073499 129.4638 22.322786 
C 129.713087 22.572073 130.051241 22.712141 130.403786 22.712141 
z
" clip-path="url(#pf189c287ef)" style="fill: #333333; fill-opacity: 0.298039; stroke: #333333; stroke-opacity: 0.298039; stroke-width: 0.886227"/>
    <path d="M 130.403786 22.712141 
C 130.756331 22.712141 131.094484 22.572073 131.343771 22.322786 
C 131.593059 22.073499 131.733126 21.735346 131.733126 21.3828 
C 131.733126 21.030255 131.593059 20.692102 131.343771 20.442815 
C 131.094484 20.193528 130.756331 20.05346 130.403786 20.05346 
C 130.051241 20.05346 129.713087 20.193528 129.4638 20.442815 
C 129.214513 20.692102 129.074445 21.030255 129.074445 21.3828 
C 129.074445 21.735346 129.214513 22.073499 129.4638 22.322786 
C 129.713087 22.572073 130.051241 22.712141 130.403786 22.712141 
z
" clip-path="url(#pf189c287ef)" style="fill: #333333; fill-opacity: 0.298039; stroke: #333333; stroke-opacity: 0.298039; stroke-width: 0.886227"/>
    <path d="M 130.403786 22.712141 
C 130.756331 22.712141 131.094484 22.572073 131.343771 22.322786 
C 131.593059 22.073499 131.733126 21.735346 131.733126 21.3828 
C 131.733126 21.030255 131.593059 20.692102 131.343771 20.442815 
C 131.094484 20.193528 130.756331 20.05346 130.403786 20.05346 
C 130.051241 20.05346 129.713087 20.193528 129.4638 20.442815 
C 129.214513 20.692102 129.074445 21.030255 129.074445 21.3828 
C 129.074445 21.735346 129.214513 22.073499 129.4638 22.322786 
C 129.713087 22.572073 130.051241 22.712141 130.403786 22.712141 
z
" clip-path="url(#pf189c287ef)" style="fill: #333333; fill-opacity: 0.298039; stroke: #333333; stroke-opacity: 0.298039; stroke-width: 0.886227"/>
    <path d="M 130.403786 30.631929 
C 130.756331 30.631929 131.094484 30.491862 131.343771 30.242575 
C 131.593059 29.993288 131.733126 29.655134 131.733126 29.302589 
C 131.733126 28.950044 131.593059 28.611891 131.343771 28.362603 
C 131.094484 28.113316 130.756331 27.973249 130.403786 27.973249 
C 130.051241 27.973249 129.713087 28.113316 129.4638 28.362603 
C 129.214513 28.611891 129.074445 28.950044 129.074445 29.302589 
C 129.074445 29.655134 129.214513 29.993288 129.4638 30.242575 
C 129.713087 30.491862 130.051241 30.631929 130.403786 30.631929 
z
" clip-path="url(#pf189c287ef)" style="fill: #333333; fill-opacity: 0.298039; stroke: #333333; stroke-opacity: 0.298039; stroke-width: 0.886227"/>
    <path d="M 130.403786 33.60185 
C 130.756331 33.60185 131.094484 33.461782 131.343771 33.212495 
C 131.593059 32.963208 131.733126 32.625055 131.733126 32.27251 
C 131.733126 31.919965 131.593059 31.581811 131.343771 31.332524 
C 131.094484 31.083237 130.756331 30.943169 130.403786 30.943169 
C 130.051241 30.943169 129.713087 31.083237 129.4638 31.332524 
C 129.214513 31.581811 129.074445 31.919965 129.074445 32.27251 
C 129.074445 32.625055 129.214513 32.963208 129.4638 33.212495 
C 129.713087 33.461782 130.051241 33.60185 130.403786 33.60185 
z
" clip-path="url(#pf189c287ef)" style="fill: #333333; fill-opacity: 0.298039; stroke: #333333; stroke-opacity: 0.298039; stroke-width: 0.886227"/>
    <path d="M 130.403786 35.157523 
C 130.756331 35.157523 131.094484 35.017455 131.343771 34.768168 
C 131.593059 34.518881 131.733126 34.180728 131.733126 33.828183 
C 131.733126 33.475637 131.593059 33.137484 131.343771 32.888197 
C 131.094484 32.63891 130.756331 32.498842 130.403786 32.498842 
C 130.051241 32.498842 129.713087 32.63891 129.4638 32.888197 
C 129.214513 33.137484 129.074445 33.475637 129.074445 33.828183 
C 129.074445 34.180728 129.214513 34.518881 129.4638 34.768168 
C 129.713087 35.017455 130.051241 35.157523 130.403786 35.157523 
z
" clip-path="url(#pf189c287ef)" style="fill: #333333; fill-opacity: 0.298039; stroke: #333333; stroke-opacity: 0.298039; stroke-width: 0.886227"/>
    <path d="M 130.403786 37.231753 
C 130.756331 37.231753 131.094484 37.091686 131.343771 36.842398 
C 131.593059 36.593111 131.733126 36.254958 131.733126 35.902413 
C 131.733126 35.549868 131.593059 35.211714 131.343771 34.962427 
C 131.094484 34.71314 130.756331 34.573072 130.403786 34.573072 
C 130.051241 34.573072 129.713087 34.71314 129.4638 34.962427 
C 129.214513 35.211714 129.074445 35.549868 129.074445 35.902413 
C 129.074445 36.254958 129.214513 36.593111 129.4638 36.842398 
C 129.713087 37.091686 130.051241 37.231753 130.403786 37.231753 
z
" clip-path="url(#pf189c287ef)" style="fill: #333333; fill-opacity: 0.298039; stroke: #333333; stroke-opacity: 0.298039; stroke-width: 0.886227"/>
    <path d="M 130.403786 22.712141 
C 130.756331 22.712141 131.094484 22.572073 131.343771 22.322786 
C 131.593059 22.073499 131.733126 21.735346 131.733126 21.3828 
C 131.733126 21.030255 131.593059 20.692102 131.343771 20.442815 
C 131.094484 20.193528 130.756331 20.05346 130.403786 20.05346 
C 130.051241 20.05346 129.713087 20.193528 129.4638 20.442815 
C 129.214513 20.692102 129.074445 21.030255 129.074445 21.3828 
C 129.074445 21.735346 129.214513 22.073499 129.4638 22.322786 
C 129.713087 22.572073 130.051241 22.712141 130.403786 22.712141 
z
" clip-path="url(#pf189c287ef)" style="fill: #333333; fill-opacity: 0.298039; stroke: #333333; stroke-opacity: 0.298039; stroke-width: 0.886227"/>
    <path d="M 130.403786 22.712141 
C 130.756331 22.712141 131.094484 22.572073 131.343771 22.322786 
C 131.593059 22.073499 131.733126 21.735346 131.733126 21.3828 
C 131.733126 21.030255 131.593059 20.692102 131.343771 20.442815 
C 131.094484 20.193528 130.756331 20.05346 130.403786 20.05346 
C 130.051241 20.05346 129.713087 20.193528 129.4638 20.442815 
C 129.214513 20.692102 129.074445 21.030255 129.074445 21.3828 
C 129.074445 21.735346 129.214513 22.073499 129.4638 22.322786 
C 129.713087 22.572073 130.051241 22.712141 130.403786 22.712141 
z
" clip-path="url(#pf189c287ef)" style="fill: #333333; fill-opacity: 0.298039; stroke: #333333; stroke-opacity: 0.298039; stroke-width: 0.886227"/>
    <path d="M 130.403786 35.157523 
C 130.756331 35.157523 131.094484 35.017455 131.343771 34.768168 
C 131.593059 34.518881 131.733126 34.180728 131.733126 33.828183 
C 131.733126 33.475637 131.593059 33.137484 131.343771 32.888197 
C 131.094484 32.63891 130.756331 32.498842 130.403786 32.498842 
C 130.051241 32.498842 129.713087 32.63891 129.4638 32.888197 
C 129.214513 33.137484 129.074445 33.475637 129.074445 33.828183 
C 129.074445 34.180728 129.214513 34.518881 129.4638 34.768168 
C 129.713087 35.017455 130.051241 35.157523 130.403786 35.157523 
z
" clip-path="url(#pf189c287ef)" style="fill: #333333; fill-opacity: 0.298039; stroke: #333333; stroke-opacity: 0.298039; stroke-width: 0.886227"/>
    <path d="M 130.403786 25.274425 
C 130.756331 25.274425 131.094484 25.134358 131.343771 24.885071 
C 131.593059 24.635783 131.733126 24.29763 131.733126 23.945085 
C 131.733126 23.59254 131.593059 23.254386 131.343771 23.005099 
C 131.094484 22.755812 130.756331 22.615745 130.403786 22.615745 
C 130.051241 22.615745 129.713087 22.755812 129.4638 23.005099 
C 129.214513 23.254386 129.074445 23.59254 129.074445 23.945085 
C 129.074445 24.29763 129.214513 24.635783 129.4638 24.885071 
C 129.713087 25.134358 130.051241 25.274425 130.403786 25.274425 
z
" clip-path="url(#pf189c287ef)" style="fill: #333333; fill-opacity: 0.298039; stroke: #333333; stroke-opacity: 0.298039; stroke-width: 0.886227"/>
    <path d="M 130.403786 35.157523 
C 130.756331 35.157523 131.094484 35.017455 131.343771 34.768168 
C 131.593059 34.518881 131.733126 34.180728 131.733126 33.828183 
C 131.733126 33.475637 131.593059 33.137484 131.343771 32.888197 
C 131.094484 32.63891 130.756331 32.498842 130.403786 32.498842 
C 130.051241 32.498842 129.713087 32.63891 129.4638 32.888197 
C 129.214513 33.137484 129.074445 33.475637 129.074445 33.828183 
C 129.074445 34.180728 129.214513 34.518881 129.4638 34.768168 
C 129.713087 35.017455 130.051241 35.157523 130.403786 35.157523 
z
" clip-path="url(#pf189c287ef)" style="fill: #333333; fill-opacity: 0.298039; stroke: #333333; stroke-opacity: 0.298039; stroke-width: 0.886227"/>
    <path d="M 130.403786 40.135676 
C 130.756331 40.135676 131.094484 39.995608 131.343771 39.746321 
C 131.593059 39.497034 131.733126 39.158881 131.733126 38.806335 
C 131.733126 38.45379 131.593059 38.115637 131.343771 37.86635 
C 131.094484 37.617063 130.756331 37.476995 130.403786 37.476995 
C 130.051241 37.476995 129.713087 37.617063 129.4638 37.86635 
C 129.214513 38.115637 129.074445 38.45379 129.074445 38.806335 
C 129.074445 39.158881 129.214513 39.497034 129.4638 39.746321 
C 129.713087 39.995608 130.051241 40.135676 130.403786 40.135676 
z
" clip-path="url(#pf189c287ef)" style="fill: #333333; fill-opacity: 0.298039; stroke: #333333; stroke-opacity: 0.298039; stroke-width: 0.886227"/>
    <path d="M 130.403786 22.712141 
C 130.756331 22.712141 131.094484 22.572073 131.343771 22.322786 
C 131.593059 22.073499 131.733126 21.735346 131.733126 21.3828 
C 131.733126 21.030255 131.593059 20.692102 131.343771 20.442815 
C 131.094484 20.193528 130.756331 20.05346 130.403786 20.05346 
C 130.051241 20.05346 129.713087 20.193528 129.4638 20.442815 
C 129.214513 20.692102 129.074445 21.030255 129.074445 21.3828 
C 129.074445 21.735346 129.214513 22.073499 129.4638 22.322786 
C 129.713087 22.572073 130.051241 22.712141 130.403786 22.712141 
z
" clip-path="url(#pf189c287ef)" style="fill: #333333; fill-opacity: 0.298039; stroke: #333333; stroke-opacity: 0.298039; stroke-width: 0.886227"/>
    <path d="M 130.403786 22.712141 
C 130.756331 22.712141 131.094484 22.572073 131.343771 22.322786 
C 131.593059 22.073499 131.733126 21.735346 131.733126 21.3828 
C 131.733126 21.030255 131.593059 20.692102 131.343771 20.442815 
C 131.094484 20.193528 130.756331 20.05346 130.403786 20.05346 
C 130.051241 20.05346 129.713087 20.193528 129.4638 20.442815 
C 129.214513 20.692102 129.074445 21.030255 129.074445 21.3828 
C 129.074445 21.735346 129.214513 22.073499 129.4638 22.322786 
C 129.713087 22.572073 130.051241 22.712141 130.403786 22.712141 
z
" clip-path="url(#pf189c287ef)" style="fill: #333333; fill-opacity: 0.298039; stroke: #333333; stroke-opacity: 0.298039; stroke-width: 0.886227"/>
    <path d="M 130.403786 31.423908 
C 130.756331 31.423908 131.094484 31.283841 131.343771 31.034553 
C 131.593059 30.785266 131.733126 30.447113 131.733126 30.094568 
C 131.733126 29.742023 131.593059 29.403869 131.343771 29.154582 
C 131.094484 28.905295 130.756331 28.765227 130.403786 28.765227 
C 130.051241 28.765227 129.713087 28.905295 129.4638 29.154582 
C 129.214513 29.403869 129.074445 29.742023 129.074445 30.094568 
C 129.074445 30.447113 129.214513 30.785266 129.4638 31.034553 
C 129.713087 31.283841 130.051241 31.423908 130.403786 31.423908 
z
" clip-path="url(#pf189c287ef)" style="fill: #333333; fill-opacity: 0.298039; stroke: #333333; stroke-opacity: 0.298039; stroke-width: 0.886227"/>
    <path d="M 130.403786 33.60185 
C 130.756331 33.60185 131.094484 33.461782 131.343771 33.212495 
C 131.593059 32.963208 131.733126 32.625055 131.733126 32.27251 
C 131.733126 31.919965 131.593059 31.581811 131.343771 31.332524 
C 131.094484 31.083237 130.756331 30.943169 130.403786 30.943169 
C 130.051241 30.943169 129.713087 31.083237 129.4638 31.332524 
C 129.214513 31.581811 129.074445 31.919965 129.074445 32.27251 
C 129.074445 32.625055 129.214513 32.963208 129.4638 33.212495 
C 129.713087 33.461782 130.051241 33.60185 130.403786 33.60185 
z
" clip-path="url(#pf189c287ef)" style="fill: #333333; fill-opacity: 0.298039; stroke: #333333; stroke-opacity: 0.298039; stroke-width: 0.886227"/>
    <path d="M 130.403786 42.071624 
C 130.756331 42.071624 131.094484 41.931556 131.343771 41.682269 
C 131.593059 41.432982 131.733126 41.094829 131.733126 40.742284 
C 131.733126 40.389738 131.593059 40.051585 131.343771 39.802298 
C 131.094484 39.553011 130.756331 39.412943 130.403786 39.412943 
C 130.051241 39.412943 129.713087 39.553011 129.4638 39.802298 
C 129.214513 40.051585 129.074445 40.389738 129.074445 40.742284 
C 129.074445 41.094829 129.214513 41.432982 129.4638 41.682269 
C 129.713087 41.931556 130.051241 42.071624 130.403786 42.071624 
z
" clip-path="url(#pf189c287ef)" style="fill: #333333; fill-opacity: 0.298039; stroke: #333333; stroke-opacity: 0.298039; stroke-width: 0.886227"/>
    <path d="M 130.403786 22.712141 
C 130.756331 22.712141 131.094484 22.572073 131.343771 22.322786 
C 131.593059 22.073499 131.733126 21.735346 131.733126 21.3828 
C 131.733126 21.030255 131.593059 20.692102 131.343771 20.442815 
C 131.094484 20.193528 130.756331 20.05346 130.403786 20.05346 
C 130.051241 20.05346 129.713087 20.193528 129.4638 20.442815 
C 129.214513 20.692102 129.074445 21.030255 129.074445 21.3828 
C 129.074445 21.735346 129.214513 22.073499 129.4638 22.322786 
C 129.713087 22.572073 130.051241 22.712141 130.403786 22.712141 
z
" clip-path="url(#pf189c287ef)" style="fill: #333333; fill-opacity: 0.298039; stroke: #333333; stroke-opacity: 0.298039; stroke-width: 0.886227"/>
    <path d="M 130.403786 22.712141 
C 130.756331 22.712141 131.094484 22.572073 131.343771 22.322786 
C 131.593059 22.073499 131.733126 21.735346 131.733126 21.3828 
C 131.733126 21.030255 131.593059 20.692102 131.343771 20.442815 
C 131.094484 20.193528 130.756331 20.05346 130.403786 20.05346 
C 130.051241 20.05346 129.713087 20.193528 129.4638 20.442815 
C 129.214513 20.692102 129.074445 21.030255 129.074445 21.3828 
C 129.074445 21.735346 129.214513 22.073499 129.4638 22.322786 
C 129.713087 22.572073 130.051241 22.712141 130.403786 22.712141 
z
" clip-path="url(#pf189c287ef)" style="fill: #333333; fill-opacity: 0.298039; stroke: #333333; stroke-opacity: 0.298039; stroke-width: 0.886227"/>
    <path d="M 130.403786 22.712141 
C 130.756331 22.712141 131.094484 22.572073 131.343771 22.322786 
C 131.593059 22.073499 131.733126 21.735346 131.733126 21.3828 
C 131.733126 21.030255 131.593059 20.692102 131.343771 20.442815 
C 131.094484 20.193528 130.756331 20.05346 130.403786 20.05346 
C 130.051241 20.05346 129.713087 20.193528 129.4638 20.442815 
C 129.214513 20.692102 129.074445 21.030255 129.074445 21.3828 
C 129.074445 21.735346 129.214513 22.073499 129.4638 22.322786 
C 129.713087 22.572073 130.051241 22.712141 130.403786 22.712141 
z
" clip-path="url(#pf189c287ef)" style="fill: #333333; fill-opacity: 0.298039; stroke: #333333; stroke-opacity: 0.298039; stroke-width: 0.886227"/>
    <path d="M 130.403786 22.712141 
C 130.756331 22.712141 131.094484 22.572073 131.343771 22.322786 
C 131.593059 22.073499 131.733126 21.735346 131.733126 21.3828 
C 131.733126 21.030255 131.593059 20.692102 131.343771 20.442815 
C 131.094484 20.193528 130.756331 20.05346 130.403786 20.05346 
C 130.051241 20.05346 129.713087 20.193528 129.4638 20.442815 
C 129.214513 20.692102 129.074445 21.030255 129.074445 21.3828 
C 129.074445 21.735346 129.214513 22.073499 129.4638 22.322786 
C 129.713087 22.572073 130.051241 22.712141 130.403786 22.712141 
z
" clip-path="url(#pf189c287ef)" style="fill: #333333; fill-opacity: 0.298039; stroke: #333333; stroke-opacity: 0.298039; stroke-width: 0.886227"/>
    <path d="M 130.403786 22.712141 
C 130.756331 22.712141 131.094484 22.572073 131.343771 22.322786 
C 131.593059 22.073499 131.733126 21.735346 131.733126 21.3828 
C 131.733126 21.030255 131.593059 20.692102 131.343771 20.442815 
C 131.094484 20.193528 130.756331 20.05346 130.403786 20.05346 
C 130.051241 20.05346 129.713087 20.193528 129.4638 20.442815 
C 129.214513 20.692102 129.074445 21.030255 129.074445 21.3828 
C 129.074445 21.735346 129.214513 22.073499 129.4638 22.322786 
C 129.713087 22.572073 130.051241 22.712141 130.403786 22.712141 
z
" clip-path="url(#pf189c287ef)" style="fill: #333333; fill-opacity: 0.298039; stroke: #333333; stroke-opacity: 0.298039; stroke-width: 0.886227"/>
    <path d="M 130.403786 40.135676 
C 130.756331 40.135676 131.094484 39.995608 131.343771 39.746321 
C 131.593059 39.497034 131.733126 39.158881 131.733126 38.806335 
C 131.733126 38.45379 131.593059 38.115637 131.343771 37.86635 
C 131.094484 37.617063 130.756331 37.476995 130.403786 37.476995 
C 130.051241 37.476995 129.713087 37.617063 129.4638 37.86635 
C 129.214513 38.115637 129.074445 38.45379 129.074445 38.806335 
C 129.074445 39.158881 129.214513 39.497034 129.4638 39.746321 
C 129.713087 39.995608 130.051241 40.135676 130.403786 40.135676 
z
" clip-path="url(#pf189c287ef)" style="fill: #333333; fill-opacity: 0.298039; stroke: #333333; stroke-opacity: 0.298039; stroke-width: 0.886227"/>
    <path d="M 130.403786 28.519986 
C 130.756331 28.519986 131.094484 28.379918 131.343771 28.130631 
C 131.593059 27.881344 131.733126 27.543191 131.733126 27.190645 
C 131.733126 26.8381 131.593059 26.499947 131.343771 26.25066 
C 131.094484 26.001373 130.756331 25.861305 130.403786 25.861305 
C 130.051241 25.861305 129.713087 26.001373 129.4638 26.25066 
C 129.214513 26.499947 129.074445 26.8381 129.074445 27.190645 
C 129.074445 27.543191 129.214513 27.881344 129.4638 28.130631 
C 129.713087 28.379918 130.051241 28.519986 130.403786 28.519986 
z
" clip-path="url(#pf189c287ef)" style="fill: #333333; fill-opacity: 0.298039; stroke: #333333; stroke-opacity: 0.298039; stroke-width: 0.886227"/>
    <path d="M 130.403786 41.380214 
C 130.756331 41.380214 131.094484 41.240146 131.343771 40.990859 
C 131.593059 40.741572 131.733126 40.403419 131.733126 40.050874 
C 131.733126 39.698328 131.593059 39.360175 131.343771 39.110888 
C 131.094484 38.861601 130.756331 38.721533 130.403786 38.721533 
C 130.051241 38.721533 129.713087 38.861601 129.4638 39.110888 
C 129.214513 39.360175 129.074445 39.698328 129.074445 40.050874 
C 129.074445 40.403419 129.214513 40.741572 129.4638 40.990859 
C 129.713087 41.240146 130.051241 41.380214 130.403786 41.380214 
z
" clip-path="url(#pf189c287ef)" style="fill: #333333; fill-opacity: 0.298039; stroke: #333333; stroke-opacity: 0.298039; stroke-width: 0.886227"/>
    <path d="M 130.403786 22.712141 
C 130.756331 22.712141 131.094484 22.572073 131.343771 22.322786 
C 131.593059 22.073499 131.733126 21.735346 131.733126 21.3828 
C 131.733126 21.030255 131.593059 20.692102 131.343771 20.442815 
C 131.094484 20.193528 130.756331 20.05346 130.403786 20.05346 
C 130.051241 20.05346 129.713087 20.193528 129.4638 20.442815 
C 129.214513 20.692102 129.074445 21.030255 129.074445 21.3828 
C 129.074445 21.735346 129.214513 22.073499 129.4638 22.322786 
C 129.713087 22.572073 130.051241 22.712141 130.403786 22.712141 
z
" clip-path="url(#pf189c287ef)" style="fill: #333333; fill-opacity: 0.298039; stroke: #333333; stroke-opacity: 0.298039; stroke-width: 0.886227"/>
   </g>
   <g id="LineCollection_5">
    <path d="M 130.403786 81.695037 
L 130.403786 43.162219 
" clip-path="url(#pf189c287ef)" style="fill: none; stroke: #333333; stroke-width: 0.886227"/>
    <path d="M 130.403786 108.500475 
L 130.403786 108.500475 
" clip-path="url(#pf189c287ef)" style="fill: none; stroke: #333333; stroke-width: 0.886227"/>
   </g>
   <g id="PolyCollection_3">
    <defs>
     <path id="m34bdb3bc98" d="M 123.149961 -134.304963 
L 123.149961 -134.304963 
L 137.657611 -134.304963 
L 137.657611 -107.499525 
L 123.149961 -107.499525 
z
" style="stroke: #333333; stroke-width: 0.886227"/>
    </defs>
    <g clip-path="url(#pf189c287ef)">
     <use xlink:href="#m34bdb3bc98" x="0" y="216" style="fill: #dc0d97; stroke: #333333; stroke-width: 0.886227"/>
    </g>
   </g>
   <g id="LineCollection_6">
    <path d="M 123.149961 108.500475 
L 137.657611 108.500475 
" clip-path="url(#pf189c287ef)" style="fill: none; stroke: #333333; stroke-width: 1.772454"/>
   </g>
  </g>
  <g id="axes_2">
   <g id="patch_3">
    <path d="M 155.04526 112.856359 
L 271.106458 112.856359 
L 271.106458 17.026917 
L 155.04526 17.026917 
z
" style="fill: #ffffff"/>
   </g>
   <g id="matplotlib.axis_3">
    <g id="xtick_4">
     <g id="line2d_9">
      <path d="M 176.806735 112.856359 
L 176.806735 17.026917 
" clip-path="url(#pdb07d787c9)" style="fill: none; stroke: #e5e5e5; stroke-linecap: square"/>
     </g>
    </g>
    <g id="xtick_5">
     <g id="line2d_10">
      <path d="M 213.075859 112.856359 
L 213.075859 17.026917 
" clip-path="url(#pdb07d787c9)" style="fill: none; stroke: #e5e5e5; stroke-linecap: square"/>
     </g>
    </g>
    <g id="xtick_6">
     <g id="line2d_11">
      <path d="M 249.344984 112.856359 
L 249.344984 17.026917 
" clip-path="url(#pdb07d787c9)" style="fill: none; stroke: #e5e5e5; stroke-linecap: square"/>
     </g>
    </g>
   </g>
   <g id="matplotlib.axis_4">
    <g id="ytick_10"/>
    <g id="ytick_11"/>
    <g id="ytick_12"/>
    <g id="ytick_13"/>
    <g id="ytick_14"/>
    <g id="ytick_15"/>
    <g id="ytick_16"/>
    <g id="ytick_17"/>
    <g id="ytick_18"/>
   </g>
   <g id="LineCollection_7">
    <path d="M 176.806735 21.3828 
L 176.806735 21.3828 
" clip-path="url(#pdb07d787c9)" style="fill: none; stroke: #333333; stroke-width: 0.886227"/>
    <path d="M 176.806735 91.219756 
L 176.806735 108.500475 
" clip-path="url(#pdb07d787c9)" style="fill: none; stroke: #333333; stroke-width: 0.886227"/>
   </g>
   <g id="PolyCollection_4">
    <defs>
     <path id="m51f0e93d46" d="M 169.55291 -194.6172 
L 169.55291 -194.6172 
L 184.06056 -194.6172 
L 184.06056 -124.780244 
L 169.55291 -124.780244 
z
" style="stroke: #333333; stroke-width: 0.886227"/>
    </defs>
    <g clip-path="url(#pdb07d787c9)">
     <use xlink:href="#m51f0e93d46" x="0" y="216" style="fill: #1c9a0e; stroke: #333333; stroke-width: 0.886227"/>
    </g>
   </g>
   <g id="LineCollection_8">
    <path d="M 169.55291 51.991713 
L 184.06056 51.991713 
" clip-path="url(#pdb07d787c9)" style="fill: none; stroke: #333333; stroke-width: 1.772454"/>
   </g>
   <g id="LineCollection_9">
    <path d="M 213.075859 21.3828 
L 213.075859 21.3828 
" clip-path="url(#pdb07d787c9)" style="fill: none; stroke: #333333; stroke-width: 0.886227"/>
    <path d="M 213.075859 89.189391 
L 213.075859 108.500475 
" clip-path="url(#pdb07d787c9)" style="fill: none; stroke: #333333; stroke-width: 0.886227"/>
   </g>
   <g id="PolyCollection_5">
    <defs>
     <path id="mbe05aa04cc" d="M 205.822035 -194.6172 
L 205.822035 -194.6172 
L 220.329684 -194.6172 
L 220.329684 -126.810609 
L 205.822035 -126.810609 
z
" style="stroke: #333333; stroke-width: 0.886227"/>
    </defs>
    <g clip-path="url(#pdb07d787c9)">
     <use xlink:href="#mbe05aa04cc" x="0" y="216" style="fill: #e6950a; stroke: #333333; stroke-width: 0.886227"/>
    </g>
   </g>
   <g id="LineCollection_10">
    <path d="M 205.822035 61.672682 
L 220.329684 61.672682 
" clip-path="url(#pdb07d787c9)" style="fill: none; stroke: #333333; stroke-width: 1.772454"/>
   </g>
   <g id="LineCollection_11">
    <path d="M 249.344984 40.816743 
L 249.344984 21.3828 
" clip-path="url(#pdb07d787c9)" style="fill: none; stroke: #333333; stroke-width: 0.886227"/>
    <path d="M 249.344984 108.500475 
L 249.344984 108.500475 
" clip-path="url(#pdb07d787c9)" style="fill: none; stroke: #333333; stroke-width: 0.886227"/>
   </g>
   <g id="PolyCollection_6">
    <defs>
     <path id="mb5c5bba987" d="M 242.091159 -175.183257 
L 242.091159 -175.183257 
L 256.598809 -175.183257 
L 256.598809 -107.499525 
L 242.091159 -107.499525 
z
" style="stroke: #333333; stroke-width: 0.886227"/>
    </defs>
    <g clip-path="url(#pdb07d787c9)">
     <use xlink:href="#mb5c5bba987" x="0" y="216" style="fill: #dc0d97; stroke: #333333; stroke-width: 0.886227"/>
    </g>
   </g>
   <g id="LineCollection_12">
    <path d="M 242.091159 94.539309 
L 256.598809 94.539309 
" clip-path="url(#pdb07d787c9)" style="fill: none; stroke: #333333; stroke-width: 1.772454"/>
   </g>
  </g>
  <g id="axes_3">
   <g id="patch_4">
    <path d="M 36.104063 211.565801 
L 152.16526 211.565801 
L 152.16526 115.736359 
L 36.104063 115.736359 
z
" style="fill: #ffffff"/>
   </g>
   <g id="matplotlib.axis_5">
    <g id="xtick_7">
     <g id="line2d_12">
      <path d="M 57.865537 211.565801 
L 57.865537 115.736359 
" clip-path="url(#pdc378ecd68)" style="fill: none; stroke: #e5e5e5; stroke-linecap: square"/>
     </g>
    </g>
    <g id="xtick_8">
     <g id="line2d_13">
      <path d="M 94.134661 211.565801 
L 94.134661 115.736359 
" clip-path="url(#pdc378ecd68)" style="fill: none; stroke: #e5e5e5; stroke-linecap: square"/>
     </g>
    </g>
    <g id="xtick_9">
     <g id="line2d_14">
      <path d="M 130.403786 211.565801 
L 130.403786 115.736359 
" clip-path="url(#pdc378ecd68)" style="fill: none; stroke: #e5e5e5; stroke-linecap: square"/>
     </g>
    </g>
   </g>
   <g id="matplotlib.axis_6">
    <g id="ytick_19">
     <g id="line2d_15">
      <path d="M 36.104063 207.209917 
" style="fill: none; stroke: #333333; stroke-width: 1.5; stroke-linecap: square"/>
      <g>
       <use xlink:href="#mec3422dbec" x="36.104063" y="207.209917" style="fill: #333333; stroke: #333333"/>
      </g>
     </g>
     <g id="text_6">
      <!-- 0.00 -->
      <g style="fill: #4d4d4d" transform="translate(14.228438 210.36623) scale(0.088 -0.088)">
       <use xlink:href="#Helvetica-30"/>
       <use xlink:href="#Helvetica-2e" x="55.615234"/>
       <use xlink:href="#Helvetica-30" x="83.398438"/>
       <use xlink:href="#Helvetica-30" x="139.013672"/>
      </g>
     </g>
    </g>
    <g id="ytick_20">
     <g id="line2d_16">
      <path d="M 36.104063 185.430499 
" style="fill: none; stroke: #333333; stroke-width: 1.5; stroke-linecap: square"/>
      <g>
       <use xlink:href="#mec3422dbec" x="36.104063" y="185.430499" style="fill: #333333; stroke: #333333"/>
      </g>
     </g>
     <g id="text_7">
      <!-- 0.25 -->
      <g style="fill: #4d4d4d" transform="translate(14.228438 188.586811) scale(0.088 -0.088)">
       <use xlink:href="#Helvetica-30"/>
       <use xlink:href="#Helvetica-2e" x="55.615234"/>
       <use xlink:href="#Helvetica-32" x="83.398438"/>
       <use xlink:href="#Helvetica-35" x="139.013672"/>
      </g>
     </g>
    </g>
    <g id="ytick_21">
     <g id="line2d_17">
      <path d="M 36.104063 163.65108 
" style="fill: none; stroke: #333333; stroke-width: 1.5; stroke-linecap: square"/>
      <g>
       <use xlink:href="#mec3422dbec" x="36.104063" y="163.65108" style="fill: #333333; stroke: #333333"/>
      </g>
     </g>
     <g id="text_8">
      <!-- 0.50 -->
      <g style="fill: #4d4d4d" transform="translate(14.228438 166.807393) scale(0.088 -0.088)">
       <use xlink:href="#Helvetica-30"/>
       <use xlink:href="#Helvetica-2e" x="55.615234"/>
       <use xlink:href="#Helvetica-35" x="83.398438"/>
       <use xlink:href="#Helvetica-30" x="139.013672"/>
      </g>
     </g>
    </g>
    <g id="ytick_22">
     <g id="line2d_18">
      <path d="M 36.104063 141.871661 
" style="fill: none; stroke: #333333; stroke-width: 1.5; stroke-linecap: square"/>
      <g>
       <use xlink:href="#mec3422dbec" x="36.104063" y="141.871661" style="fill: #333333; stroke: #333333"/>
      </g>
     </g>
     <g id="text_9">
      <!-- 0.75 -->
      <g style="fill: #4d4d4d" transform="translate(14.228438 145.027974) scale(0.088 -0.088)">
       <use xlink:href="#Helvetica-30"/>
       <use xlink:href="#Helvetica-2e" x="55.615234"/>
       <use xlink:href="#Helvetica-37" x="83.398438"/>
       <use xlink:href="#Helvetica-35" x="139.013672"/>
      </g>
     </g>
    </g>
    <g id="ytick_23">
     <g id="line2d_19">
      <path d="M 36.104063 120.092243 
" style="fill: none; stroke: #333333; stroke-width: 1.5; stroke-linecap: square"/>
      <g>
       <use xlink:href="#mec3422dbec" x="36.104063" y="120.092243" style="fill: #333333; stroke: #333333"/>
      </g>
     </g>
     <g id="text_10">
      <!-- 1.00 -->
      <g style="fill: #4d4d4d" transform="translate(14.228438 123.248555) scale(0.088 -0.088)">
       <use xlink:href="#Helvetica-31"/>
       <use xlink:href="#Helvetica-2e" x="55.615234"/>
       <use xlink:href="#Helvetica-30" x="83.398438"/>
       <use xlink:href="#Helvetica-30" x="139.013672"/>
      </g>
     </g>
    </g>
    <g id="ytick_24"/>
    <g id="ytick_25"/>
    <g id="ytick_26"/>
    <g id="ytick_27"/>
   </g>
   <g id="LineCollection_13">
    <path d="M 57.865537 127.352049 
L 57.865537 120.092243 
" clip-path="url(#pdc378ecd68)" style="fill: none; stroke: #333333; stroke-width: 0.886227"/>
    <path d="M 57.865537 182.558487 
L 57.865537 207.209917 
" clip-path="url(#pdc378ecd68)" style="fill: none; stroke: #333333; stroke-width: 0.886227"/>
   </g>
   <g id="PolyCollection_7">
    <defs>
     <path id="mbcb4861d2f" d="M 50.611712 -88.647951 
L 50.611712 -88.647951 
L 65.119362 -88.647951 
L 65.119362 -33.441513 
L 50.611712 -33.441513 
z
" style="stroke: #333333; stroke-width: 0.886227"/>
    </defs>
    <g clip-path="url(#pdc378ecd68)">
     <use xlink:href="#mbcb4861d2f" x="0" y="216" style="fill: #1c9a0e; stroke: #333333; stroke-width: 0.886227"/>
    </g>
   </g>
   <g id="LineCollection_14">
    <path d="M 50.611712 152.215521 
L 65.119362 152.215521 
" clip-path="url(#pdc378ecd68)" style="fill: none; stroke: #333333; stroke-width: 1.772454"/>
   </g>
   <g id="LineCollection_15">
    <path d="M 94.134661 158.811209 
L 94.134661 120.092243 
" clip-path="url(#pdc378ecd68)" style="fill: none; stroke: #333333; stroke-width: 0.886227"/>
    <path d="M 94.134661 196.930276 
L 94.134661 207.209917 
" clip-path="url(#pdc378ecd68)" style="fill: none; stroke: #333333; stroke-width: 0.886227"/>
   </g>
   <g id="PolyCollection_8">
    <defs>
     <path id="m808c53eb7a" d="M 86.880837 -57.188791 
L 86.880837 -57.188791 
L 101.388486 -57.188791 
L 101.388486 -19.069724 
L 86.880837 -19.069724 
z
" style="stroke: #333333; stroke-width: 0.886227"/>
    </defs>
    <g clip-path="url(#pdc378ecd68)">
     <use xlink:href="#m808c53eb7a" x="0" y="216" style="fill: #e6950a; stroke: #333333; stroke-width: 0.886227"/>
    </g>
   </g>
   <g id="LineCollection_16">
    <path d="M 86.880837 177.670016 
L 101.388486 177.670016 
" clip-path="url(#pdc378ecd68)" style="fill: none; stroke: #333333; stroke-width: 1.772454"/>
   </g>
   <g id="LineCollection_17">
    <path d="M 130.403786 165.117708 
L 130.403786 120.092243 
" clip-path="url(#pdc378ecd68)" style="fill: none; stroke: #333333; stroke-width: 0.886227"/>
    <path d="M 130.403786 207.209917 
L 130.403786 207.209917 
" clip-path="url(#pdc378ecd68)" style="fill: none; stroke: #333333; stroke-width: 0.886227"/>
   </g>
   <g id="PolyCollection_9">
    <defs>
     <path id="m53d5feacd9" d="M 123.149961 -50.882292 
L 123.149961 -50.882292 
L 137.657611 -50.882292 
L 137.657611 -8.790083 
L 123.149961 -8.790083 
z
" style="stroke: #333333; stroke-width: 0.886227"/>
    </defs>
    <g clip-path="url(#pdc378ecd68)">
     <use xlink:href="#m53d5feacd9" x="0" y="216" style="fill: #dc0d97; stroke: #333333; stroke-width: 0.886227"/>
    </g>
   </g>
   <g id="LineCollection_18">
    <path d="M 123.149961 188.373663 
L 137.657611 188.373663 
" clip-path="url(#pdc378ecd68)" style="fill: none; stroke: #333333; stroke-width: 1.772454"/>
   </g>
  </g>
  <g id="axes_4">
   <g id="patch_5">
    <path d="M 155.04526 211.565801 
L 271.106458 211.565801 
L 271.106458 115.736359 
L 155.04526 115.736359 
z
" style="fill: #ffffff"/>
   </g>
   <g id="matplotlib.axis_7">
    <g id="xtick_10">
     <g id="line2d_20">
      <path d="M 176.806735 211.565801 
L 176.806735 115.736359 
" clip-path="url(#p2d2df7d5f3)" style="fill: none; stroke: #e5e5e5; stroke-linecap: square"/>
     </g>
    </g>
    <g id="xtick_11">
     <g id="line2d_21">
      <path d="M 213.075859 211.565801 
L 213.075859 115.736359 
" clip-path="url(#p2d2df7d5f3)" style="fill: none; stroke: #e5e5e5; stroke-linecap: square"/>
     </g>
    </g>
    <g id="xtick_12">
     <g id="line2d_22">
      <path d="M 249.344984 211.565801 
L 249.344984 115.736359 
" clip-path="url(#p2d2df7d5f3)" style="fill: none; stroke: #e5e5e5; stroke-linecap: square"/>
     </g>
    </g>
   </g>
   <g id="matplotlib.axis_8">
    <g id="ytick_28"/>
    <g id="ytick_29"/>
    <g id="ytick_30"/>
    <g id="ytick_31"/>
    <g id="ytick_32"/>
    <g id="ytick_33"/>
    <g id="ytick_34"/>
    <g id="ytick_35"/>
    <g id="ytick_36"/>
   </g>
   <g id="LineCollection_19">
    <path d="M 176.806735 127.072826 
L 176.806735 120.092243 
" clip-path="url(#p2d2df7d5f3)" style="fill: none; stroke: #333333; stroke-width: 0.886227"/>
    <path d="M 176.806735 187.850434 
L 176.806735 207.209917 
" clip-path="url(#p2d2df7d5f3)" style="fill: none; stroke: #333333; stroke-width: 0.886227"/>
   </g>
   <g id="PolyCollection_10">
    <defs>
     <path id="m242a6d1907" d="M 169.55291 -88.927174 
L 169.55291 -88.927174 
L 184.06056 -88.927174 
L 184.06056 -28.149566 
L 169.55291 -28.149566 
z
" style="stroke: #333333; stroke-width: 0.886227"/>
    </defs>
    <g clip-path="url(#p2d2df7d5f3)">
     <use xlink:href="#m242a6d1907" x="0" y="216" style="fill: #1c9a0e; stroke: #333333; stroke-width: 0.886227"/>
    </g>
   </g>
   <g id="LineCollection_20">
    <path d="M 169.55291 156.625461 
L 184.06056 156.625461 
" clip-path="url(#p2d2df7d5f3)" style="fill: none; stroke: #333333; stroke-width: 1.772454"/>
   </g>
   <g id="LineCollection_21">
    <path d="M 213.075859 149.131468 
L 213.075859 120.092243 
" clip-path="url(#p2d2df7d5f3)" style="fill: none; stroke: #333333; stroke-width: 0.886227"/>
    <path d="M 213.075859 204.569988 
L 213.075859 207.209917 
" clip-path="url(#p2d2df7d5f3)" style="fill: none; stroke: #333333; stroke-width: 0.886227"/>
   </g>
   <g id="PolyCollection_11">
    <defs>
     <path id="m958ee0d28a" d="M 205.822035 -66.868532 
L 205.822035 -66.868532 
L 220.329684 -66.868532 
L 220.329684 -11.430012 
L 205.822035 -11.430012 
z
" style="stroke: #333333; stroke-width: 0.886227"/>
    </defs>
    <g clip-path="url(#p2d2df7d5f3)">
     <use xlink:href="#m958ee0d28a" x="0" y="216" style="fill: #e6950a; stroke: #333333; stroke-width: 0.886227"/>
    </g>
   </g>
   <g id="LineCollection_22">
    <path d="M 205.822035 183.450552 
L 220.329684 183.450552 
" clip-path="url(#p2d2df7d5f3)" style="fill: none; stroke: #333333; stroke-width: 1.772454"/>
   </g>
   <g id="LineCollection_23">
    <path d="M 249.344984 153.751344 
L 249.344984 120.092243 
" clip-path="url(#p2d2df7d5f3)" style="fill: none; stroke: #333333; stroke-width: 0.886227"/>
    <path d="M 249.344984 207.209917 
L 249.344984 207.209917 
" clip-path="url(#p2d2df7d5f3)" style="fill: none; stroke: #333333; stroke-width: 0.886227"/>
   </g>
   <g id="PolyCollection_12">
    <defs>
     <path id="meb98cc410b" d="M 242.091159 -62.248656 
L 242.091159 -62.248656 
L 256.598809 -62.248656 
L 256.598809 -8.790083 
L 242.091159 -8.790083 
z
" style="stroke: #333333; stroke-width: 0.886227"/>
    </defs>
    <g clip-path="url(#p2d2df7d5f3)">
     <use xlink:href="#meb98cc410b" x="0" y="216" style="fill: #dc0d97; stroke: #333333; stroke-width: 0.886227"/>
    </g>
   </g>
   <g id="LineCollection_24">
    <path d="M 242.091159 186.07107 
L 256.598809 186.07107 
" clip-path="url(#p2d2df7d5f3)" style="fill: none; stroke: #333333; stroke-width: 1.772454"/>
   </g>
  </g>
  <g id="patch_6">
   <path d="M 36.104063 112.856359 
L 152.16526 112.856359 
L 152.16526 17.026917 
L 36.104063 17.026917 
L 36.104063 112.856359 
z
" style="fill: none; stroke: #7f7f7f; stroke-linejoin: miter"/>
  </g>
  <g id="patch_7">
   <path d="M 155.04526 112.856359 
L 271.106458 112.856359 
L 271.106458 17.026917 
L 155.04526 17.026917 
L 155.04526 112.856359 
z
" style="fill: none; stroke: #7f7f7f; stroke-linejoin: miter"/>
  </g>
  <g id="patch_8">
   <path d="M 36.104063 211.565801 
L 152.16526 211.565801 
L 152.16526 115.736359 
L 36.104063 115.736359 
L 36.104063 211.565801 
z
" style="fill: none; stroke: #7f7f7f; stroke-linejoin: miter"/>
  </g>
  <g id="patch_9">
   <path d="M 155.04526 211.565801 
L 271.106458 211.565801 
L 271.106458 115.736359 
L 155.04526 115.736359 
L 155.04526 211.565801 
z
" style="fill: none; stroke: #7f7f7f; stroke-linejoin: miter"/>
  </g>
  <g id="text_11">
   <!-- In-Highlight Edit Rate -->
   <g transform="translate(9.357188 156.815734) rotate(-90) scale(0.09 -0.09)">
    <defs>
     <path id="Helvetica-49" d="M 628 4591 
L 1256 4591 
L 1256 0 
L 628 0 
L 628 4591 
z
" transform="scale(0.015625)"/>
     <path id="Helvetica-6e" d="M 413 3347 
L 947 3347 
L 947 2872 
Q 1184 3166 1450 3294 
Q 1716 3422 2041 3422 
Q 2753 3422 3003 2925 
Q 3141 2653 3141 2147 
L 3141 0 
L 2569 0 
L 2569 2109 
Q 2569 2416 2478 2603 
Q 2328 2916 1934 2916 
Q 1734 2916 1606 2875 
Q 1375 2806 1200 2600 
Q 1059 2434 1017 2257 
Q 975 2081 975 1753 
L 975 0 
L 413 0 
L 413 3347 
z
M 1734 3428 
L 1734 3428 
z
" transform="scale(0.015625)"/>
     <path id="Helvetica-2d" d="M 266 2072 
L 1834 2072 
L 1834 1494 
L 266 1494 
L 266 2072 
z
" transform="scale(0.015625)"/>
     <path id="Helvetica-48" d="M 503 4591 
L 1131 4591 
L 1131 2694 
L 3519 2694 
L 3519 4591 
L 4147 4591 
L 4147 0 
L 3519 0 
L 3519 2147 
L 1131 2147 
L 1131 0 
L 503 0 
L 503 4591 
z
" transform="scale(0.015625)"/>
     <path id="Helvetica-69" d="M 413 3331 
L 984 3331 
L 984 0 
L 413 0 
L 413 3331 
z
M 413 4591 
L 984 4591 
L 984 3953 
L 413 3953 
L 413 4591 
z
" transform="scale(0.015625)"/>
     <path id="Helvetica-67" d="M 1594 3406 
Q 1988 3406 2281 3213 
Q 2441 3103 2606 2894 
L 2606 3316 
L 3125 3316 
L 3125 272 
Q 3125 -366 2938 -734 
Q 2588 -1416 1616 -1416 
Q 1075 -1416 706 -1173 
Q 338 -931 294 -416 
L 866 -416 
Q 906 -641 1028 -763 
Q 1219 -950 1628 -950 
Q 2275 -950 2475 -494 
Q 2594 -225 2584 466 
Q 2416 209 2178 84 
Q 1941 -41 1550 -41 
Q 1006 -41 598 345 
Q 191 731 191 1622 
Q 191 2463 602 2934 
Q 1013 3406 1594 3406 
z
M 2606 1688 
Q 2606 2309 2350 2609 
Q 2094 2909 1697 2909 
Q 1103 2909 884 2353 
Q 769 2056 769 1575 
Q 769 1009 998 714 
Q 1228 419 1616 419 
Q 2222 419 2469 966 
Q 2606 1275 2606 1688 
z
M 1659 3428 
L 1659 3428 
z
" transform="scale(0.015625)"/>
     <path id="Helvetica-68" d="M 413 4606 
L 975 4606 
L 975 2894 
Q 1175 3147 1334 3250 
Q 1606 3428 2013 3428 
Q 2741 3428 3000 2919 
Q 3141 2641 3141 2147 
L 3141 0 
L 2563 0 
L 2563 2109 
Q 2563 2478 2469 2650 
Q 2316 2925 1894 2925 
Q 1544 2925 1259 2684 
Q 975 2444 975 1775 
L 975 0 
L 413 0 
L 413 4606 
z
" transform="scale(0.015625)"/>
     <path id="Helvetica-6c" d="M 428 4591 
L 991 4591 
L 991 0 
L 428 0 
L 428 4591 
z
" transform="scale(0.015625)"/>
     <path id="Helvetica-74" d="M 525 4281 
L 1094 4281 
L 1094 3347 
L 1628 3347 
L 1628 2888 
L 1094 2888 
L 1094 703 
Q 1094 528 1213 469 
Q 1278 434 1431 434 
Q 1472 434 1519 436 
Q 1566 438 1628 444 
L 1628 0 
Q 1531 -28 1426 -40 
Q 1322 -53 1200 -53 
Q 806 -53 665 148 
Q 525 350 525 672 
L 525 2888 
L 72 2888 
L 72 3347 
L 525 3347 
L 525 4281 
z
" transform="scale(0.015625)"/>
     <path id="Helvetica-20" transform="scale(0.015625)"/>
     <path id="Helvetica-45" d="M 547 4591 
L 3894 4591 
L 3894 4028 
L 1153 4028 
L 1153 2634 
L 3688 2634 
L 3688 2103 
L 1153 2103 
L 1153 547 
L 3941 547 
L 3941 0 
L 547 0 
L 547 4591 
z
M 2244 4591 
L 2244 4591 
z
" transform="scale(0.015625)"/>
     <path id="Helvetica-64" d="M 769 1634 
Q 769 1097 997 734 
Q 1225 372 1728 372 
Q 2119 372 2370 708 
Q 2622 1044 2622 1672 
Q 2622 2306 2362 2611 
Q 2103 2916 1722 2916 
Q 1297 2916 1033 2591 
Q 769 2266 769 1634 
z
M 1616 3406 
Q 2000 3406 2259 3244 
Q 2409 3150 2600 2916 
L 2600 4606 
L 3141 4606 
L 3141 0 
L 2634 0 
L 2634 466 
Q 2438 156 2169 18 
Q 1900 -119 1553 -119 
Q 994 -119 584 351 
Q 175 822 175 1603 
Q 175 2334 548 2870 
Q 922 3406 1616 3406 
z
" transform="scale(0.015625)"/>
     <path id="Helvetica-52" d="M 2622 2488 
Q 3059 2488 3314 2663 
Q 3569 2838 3569 3294 
Q 3569 3784 3213 3963 
Q 3022 4056 2703 4056 
L 1184 4056 
L 1184 2488 
L 2622 2488 
z
M 563 4591 
L 2688 4591 
Q 3213 4591 3553 4438 
Q 4200 4144 4200 3353 
Q 4200 2941 4029 2678 
Q 3859 2416 3553 2256 
Q 3822 2147 3958 1969 
Q 4094 1791 4109 1391 
L 4131 775 
Q 4141 513 4175 384 
Q 4231 166 4375 103 
L 4375 0 
L 3613 0 
Q 3581 59 3562 153 
Q 3544 247 3531 516 
L 3494 1281 
Q 3472 1731 3159 1884 
Q 2981 1969 2600 1969 
L 1184 1969 
L 1184 0 
L 563 0 
L 563 4591 
z
" transform="scale(0.015625)"/>
     <path id="Helvetica-61" d="M 844 891 
Q 844 647 1022 506 
Q 1200 366 1444 366 
Q 1741 366 2019 503 
Q 2488 731 2488 1250 
L 2488 1703 
Q 2384 1638 2221 1594 
Q 2059 1550 1903 1531 
L 1563 1488 
Q 1256 1447 1103 1359 
Q 844 1213 844 891 
z
M 2206 2028 
Q 2400 2053 2466 2191 
Q 2503 2266 2503 2406 
Q 2503 2694 2298 2823 
Q 2094 2953 1713 2953 
Q 1272 2953 1088 2716 
Q 984 2584 953 2325 
L 428 2325 
Q 444 2944 830 3186 
Q 1216 3428 1725 3428 
Q 2316 3428 2684 3203 
Q 3050 2978 3050 2503 
L 3050 575 
Q 3050 488 3086 434 
Q 3122 381 3238 381 
Q 3275 381 3322 386 
Q 3369 391 3422 400 
L 3422 -16 
Q 3291 -53 3222 -62 
Q 3153 -72 3034 -72 
Q 2744 -72 2613 134 
Q 2544 244 2516 444 
Q 2344 219 2022 53 
Q 1700 -113 1313 -113 
Q 847 -113 551 170 
Q 256 453 256 878 
Q 256 1344 547 1600 
Q 838 1856 1309 1916 
L 2206 2028 
z
M 1741 3428 
L 1741 3428 
z
" transform="scale(0.015625)"/>
     <path id="Helvetica-65" d="M 1806 3422 
Q 2163 3422 2497 3255 
Q 2831 3088 3006 2822 
Q 3175 2569 3231 2231 
Q 3281 2000 3281 1494 
L 828 1494 
Q 844 984 1069 676 
Q 1294 369 1766 369 
Q 2206 369 2469 659 
Q 2619 828 2681 1050 
L 3234 1050 
Q 3213 866 3089 639 
Q 2966 413 2813 269 
Q 2556 19 2178 -69 
Q 1975 -119 1719 -119 
Q 1094 -119 659 336 
Q 225 791 225 1609 
Q 225 2416 662 2919 
Q 1100 3422 1806 3422 
z
M 2703 1941 
Q 2669 2306 2544 2525 
Q 2313 2931 1772 2931 
Q 1384 2931 1121 2651 
Q 859 2372 844 1941 
L 2703 1941 
z
M 1753 3428 
L 1753 3428 
z
" transform="scale(0.015625)"/>
    </defs>
    <use xlink:href="#Helvetica-49"/>
    <use xlink:href="#Helvetica-6e" x="27.783203"/>
    <use xlink:href="#Helvetica-2d" x="83.398438"/>
    <use xlink:href="#Helvetica-48" x="116.699219"/>
    <use xlink:href="#Helvetica-69" x="188.916016"/>
    <use xlink:href="#Helvetica-67" x="211.132812"/>
    <use xlink:href="#Helvetica-68" x="266.748047"/>
    <use xlink:href="#Helvetica-6c" x="322.363281"/>
    <use xlink:href="#Helvetica-69" x="344.580078"/>
    <use xlink:href="#Helvetica-67" x="366.796875"/>
    <use xlink:href="#Helvetica-68" x="422.412109"/>
    <use xlink:href="#Helvetica-74" x="478.027344"/>
    <use xlink:href="#Helvetica-20" x="505.810547"/>
    <use xlink:href="#Helvetica-45" x="533.59375"/>
    <use xlink:href="#Helvetica-64" x="600.292969"/>
    <use xlink:href="#Helvetica-69" x="655.908203"/>
    <use xlink:href="#Helvetica-74" x="678.125"/>
    <use xlink:href="#Helvetica-20" x="705.908203"/>
    <use xlink:href="#Helvetica-52" x="733.691406"/>
    <use xlink:href="#Helvetica-61" x="805.908203"/>
    <use xlink:href="#Helvetica-74" x="861.523438"/>
    <use xlink:href="#Helvetica-65" x="889.306641"/>
   </g>
  </g>
  <g id="patch_10">
   <path d="M 36.104063 17.026917 
L 152.16526 17.026917 
L 152.16526 2.88 
L 36.104063 2.88 
z
" style="fill: #cccccc; stroke: #7f7f7f; stroke-linejoin: miter"/>
  </g>
  <g id="text_12">
   <!-- English - Italian -->
   <g style="fill: #1a1a1a" transform="translate(64.053786 13.120083) scale(0.088 -0.088)">
    <defs>
     <path id="Helvetica-73" d="M 747 1050 
Q 772 769 888 619 
Q 1100 347 1625 347 
Q 1938 347 2175 483 
Q 2413 619 2413 903 
Q 2413 1119 2222 1231 
Q 2100 1300 1741 1391 
L 1294 1503 
Q 866 1609 663 1741 
Q 300 1969 300 2372 
Q 300 2847 642 3140 
Q 984 3434 1563 3434 
Q 2319 3434 2653 2991 
Q 2863 2709 2856 2384 
L 2325 2384 
Q 2309 2575 2191 2731 
Q 1997 2953 1519 2953 
Q 1200 2953 1036 2831 
Q 872 2709 872 2509 
Q 872 2291 1088 2159 
Q 1213 2081 1456 2022 
L 1828 1931 
Q 2434 1784 2641 1647 
Q 2969 1431 2969 969 
Q 2969 522 2630 197 
Q 2291 -128 1597 -128 
Q 850 -128 539 211 
Q 228 550 206 1050 
L 747 1050 
z
M 1578 3428 
L 1578 3428 
z
" transform="scale(0.015625)"/>
    </defs>
    <use xlink:href="#Helvetica-45"/>
    <use xlink:href="#Helvetica-6e" x="66.699219"/>
    <use xlink:href="#Helvetica-67" x="122.314453"/>
    <use xlink:href="#Helvetica-6c" x="177.929688"/>
    <use xlink:href="#Helvetica-69" x="200.146484"/>
    <use xlink:href="#Helvetica-73" x="222.363281"/>
    <use xlink:href="#Helvetica-68" x="272.363281"/>
    <use xlink:href="#Helvetica-20" x="327.978516"/>
    <use xlink:href="#Helvetica-2d" x="355.761719"/>
    <use xlink:href="#Helvetica-20" x="389.0625"/>
    <use xlink:href="#Helvetica-49" x="416.845703"/>
    <use xlink:href="#Helvetica-74" x="444.628906"/>
    <use xlink:href="#Helvetica-61" x="472.412109"/>
    <use xlink:href="#Helvetica-6c" x="528.027344"/>
    <use xlink:href="#Helvetica-69" x="550.244141"/>
    <use xlink:href="#Helvetica-61" x="572.460938"/>
    <use xlink:href="#Helvetica-6e" x="628.076172"/>
   </g>
  </g>
  <g id="patch_11">
   <path d="M 155.04526 17.026917 
L 271.106458 17.026917 
L 271.106458 2.88 
L 155.04526 2.88 
z
" style="fill: #cccccc; stroke: #7f7f7f; stroke-linejoin: miter"/>
  </g>
  <g id="text_13">
   <!-- English - Dutch -->
   <g style="fill: #1a1a1a" transform="translate(183.241797 13.120083) scale(0.088 -0.088)">
    <defs>
     <path id="Helvetica-44" d="M 2250 531 
Q 2566 531 2769 597 
Q 3131 719 3363 1066 
Q 3547 1344 3628 1778 
Q 3675 2038 3675 2259 
Q 3675 3113 3336 3584 
Q 2997 4056 2244 4056 
L 1141 4056 
L 1141 531 
L 2250 531 
z
M 516 4591 
L 2375 4591 
Q 3322 4591 3844 3919 
Q 4309 3313 4309 2366 
Q 4309 1634 4034 1044 
Q 3550 0 2369 0 
L 516 0 
L 516 4591 
z
" transform="scale(0.015625)"/>
     <path id="Helvetica-75" d="M 975 3347 
L 975 1125 
Q 975 869 1056 706 
Q 1206 406 1616 406 
Q 2203 406 2416 931 
Q 2531 1213 2531 1703 
L 2531 3347 
L 3094 3347 
L 3094 0 
L 2563 0 
L 2569 494 
Q 2459 303 2297 172 
Q 1975 -91 1516 -91 
Q 800 -91 541 388 
Q 400 644 400 1072 
L 400 3347 
L 975 3347 
z
M 1747 3428 
L 1747 3428 
z
" transform="scale(0.015625)"/>
     <path id="Helvetica-63" d="M 1703 3444 
Q 2269 3444 2623 3169 
Q 2978 2894 3050 2222 
L 2503 2222 
Q 2453 2531 2275 2736 
Q 2097 2941 1703 2941 
Q 1166 2941 934 2416 
Q 784 2075 784 1575 
Q 784 1072 996 728 
Q 1209 384 1666 384 
Q 2016 384 2220 598 
Q 2425 813 2503 1184 
L 3050 1184 
Q 2956 519 2581 211 
Q 2206 -97 1622 -97 
Q 966 -97 575 383 
Q 184 863 184 1581 
Q 184 2463 612 2953 
Q 1041 3444 1703 3444 
z
M 1616 3428 
L 1616 3428 
z
" transform="scale(0.015625)"/>
    </defs>
    <use xlink:href="#Helvetica-45"/>
    <use xlink:href="#Helvetica-6e" x="66.699219"/>
    <use xlink:href="#Helvetica-67" x="122.314453"/>
    <use xlink:href="#Helvetica-6c" x="177.929688"/>
    <use xlink:href="#Helvetica-69" x="200.146484"/>
    <use xlink:href="#Helvetica-73" x="222.363281"/>
    <use xlink:href="#Helvetica-68" x="272.363281"/>
    <use xlink:href="#Helvetica-20" x="327.978516"/>
    <use xlink:href="#Helvetica-2d" x="355.761719"/>
    <use xlink:href="#Helvetica-20" x="389.0625"/>
    <use xlink:href="#Helvetica-44" x="416.845703"/>
    <use xlink:href="#Helvetica-75" x="489.0625"/>
    <use xlink:href="#Helvetica-74" x="544.677734"/>
    <use xlink:href="#Helvetica-63" x="572.460938"/>
    <use xlink:href="#Helvetica-68" x="622.460938"/>
   </g>
  </g>
  <g id="patch_12">
   <path d="M 271.106458 112.856359 
L 285.12 112.856359 
L 285.12 17.026917 
L 271.106458 17.026917 
z
" style="fill: #cccccc; stroke: #7f7f7f; stroke-linejoin: miter"/>
  </g>
  <g id="text_14">
   <!-- Biomedical -->
   <g style="fill: #1a1a1a" transform="translate(274.956917 43.421513) rotate(-270) scale(0.088 -0.088)">
    <defs>
     <path id="Helvetica-42" d="M 2213 2650 
Q 2606 2650 2825 2759 
Q 3169 2931 3169 3378 
Q 3169 3828 2803 3984 
Q 2597 4072 2191 4072 
L 1081 4072 
L 1081 2650 
L 2213 2650 
z
M 2422 531 
Q 2994 531 3238 863 
Q 3391 1072 3391 1369 
Q 3391 1869 2944 2050 
Q 2706 2147 2316 2147 
L 1081 2147 
L 1081 531 
L 2422 531 
z
M 472 4591 
L 2444 4591 
Q 3250 4591 3591 4109 
Q 3791 3825 3791 3453 
Q 3791 3019 3544 2741 
Q 3416 2594 3175 2472 
Q 3528 2338 3703 2169 
Q 4013 1869 4013 1341 
Q 4013 897 3734 538 
Q 3319 0 2413 0 
L 472 0 
L 472 4591 
z
" transform="scale(0.015625)"/>
     <path id="Helvetica-6f" d="M 1741 363 
Q 2300 363 2508 786 
Q 2716 1209 2716 1728 
Q 2716 2197 2566 2491 
Q 2328 2953 1747 2953 
Q 1231 2953 997 2559 
Q 763 2166 763 1609 
Q 763 1075 997 719 
Q 1231 363 1741 363 
z
M 1763 3444 
Q 2409 3444 2856 3012 
Q 3303 2581 3303 1744 
Q 3303 934 2909 406 
Q 2516 -122 1688 -122 
Q 997 -122 590 345 
Q 184 813 184 1600 
Q 184 2444 612 2944 
Q 1041 3444 1763 3444 
z
M 1744 3428 
L 1744 3428 
z
" transform="scale(0.015625)"/>
     <path id="Helvetica-6d" d="M 413 3347 
L 969 3347 
L 969 2872 
Q 1169 3119 1331 3231 
Q 1609 3422 1963 3422 
Q 2363 3422 2606 3225 
Q 2744 3113 2856 2894 
Q 3044 3163 3297 3292 
Q 3550 3422 3866 3422 
Q 4541 3422 4784 2934 
Q 4916 2672 4916 2228 
L 4916 0 
L 4331 0 
L 4331 2325 
Q 4331 2659 4164 2784 
Q 3997 2909 3756 2909 
Q 3425 2909 3186 2687 
Q 2947 2466 2947 1947 
L 2947 0 
L 2375 0 
L 2375 2184 
Q 2375 2525 2294 2681 
Q 2166 2916 1816 2916 
Q 1497 2916 1236 2669 
Q 975 2422 975 1775 
L 975 0 
L 413 0 
L 413 3347 
z
" transform="scale(0.015625)"/>
    </defs>
    <use xlink:href="#Helvetica-42"/>
    <use xlink:href="#Helvetica-69" x="66.699219"/>
    <use xlink:href="#Helvetica-6f" x="88.916016"/>
    <use xlink:href="#Helvetica-6d" x="144.53125"/>
    <use xlink:href="#Helvetica-65" x="227.832031"/>
    <use xlink:href="#Helvetica-64" x="283.447266"/>
    <use xlink:href="#Helvetica-69" x="339.0625"/>
    <use xlink:href="#Helvetica-63" x="361.279297"/>
    <use xlink:href="#Helvetica-61" x="411.279297"/>
    <use xlink:href="#Helvetica-6c" x="466.894531"/>
   </g>
  </g>
  <g id="patch_13">
   <path d="M 271.106458 211.565801 
L 285.12 211.565801 
L 285.12 115.736359 
L 271.106458 115.736359 
z
" style="fill: #cccccc; stroke: #7f7f7f; stroke-linejoin: miter"/>
  </g>
  <g id="text_15">
   <!-- Social Media -->
   <g style="fill: #1a1a1a" transform="translate(274.956917 138.461768) rotate(-270) scale(0.088 -0.088)">
    <defs>
     <path id="Helvetica-53" d="M 894 1481 
Q 916 1091 1078 847 
Q 1388 391 2169 391 
Q 2519 391 2806 491 
Q 3363 684 3363 1184 
Q 3363 1559 3128 1719 
Q 2891 1875 2384 1991 
L 1763 2131 
Q 1153 2269 900 2434 
Q 463 2722 463 3294 
Q 463 3913 891 4309 
Q 1319 4706 2103 4706 
Q 2825 4706 3329 4357 
Q 3834 4009 3834 3244 
L 3250 3244 
Q 3203 3613 3050 3809 
Q 2766 4169 2084 4169 
Q 1534 4169 1293 3937 
Q 1053 3706 1053 3400 
Q 1053 3063 1334 2906 
Q 1519 2806 2169 2656 
L 2813 2509 
Q 3278 2403 3531 2219 
Q 3969 1897 3969 1284 
Q 3969 522 3414 194 
Q 2859 -134 2125 -134 
Q 1269 -134 784 303 
Q 300 738 309 1481 
L 894 1481 
z
M 2150 4716 
L 2150 4716 
z
" transform="scale(0.015625)"/>
     <path id="Helvetica-4d" d="M 472 4591 
L 1363 4591 
L 2681 709 
L 3991 4591 
L 4872 4591 
L 4872 0 
L 4281 0 
L 4281 2709 
Q 4281 2850 4287 3175 
Q 4294 3500 4294 3872 
L 2984 0 
L 2369 0 
L 1050 3872 
L 1050 3731 
Q 1050 3563 1058 3217 
Q 1066 2872 1066 2709 
L 1066 0 
L 472 0 
L 472 4591 
z
" transform="scale(0.015625)"/>
    </defs>
    <use xlink:href="#Helvetica-53"/>
    <use xlink:href="#Helvetica-6f" x="66.699219"/>
    <use xlink:href="#Helvetica-63" x="122.314453"/>
    <use xlink:href="#Helvetica-69" x="172.314453"/>
    <use xlink:href="#Helvetica-61" x="194.53125"/>
    <use xlink:href="#Helvetica-6c" x="250.146484"/>
    <use xlink:href="#Helvetica-20" x="272.363281"/>
    <use xlink:href="#Helvetica-4d" x="300.146484"/>
    <use xlink:href="#Helvetica-65" x="383.447266"/>
    <use xlink:href="#Helvetica-64" x="439.0625"/>
    <use xlink:href="#Helvetica-69" x="494.677734"/>
    <use xlink:href="#Helvetica-61" x="516.894531"/>
   </g>
  </g>
 </g>
 <defs>
  <clipPath id="pf189c287ef">
   <rect x="36.104063" y="17.026917" width="116.061198" height="95.829442"/>
  </clipPath>
  <clipPath id="pdb07d787c9">
   <rect x="155.04526" y="17.026917" width="116.061198" height="95.829442"/>
  </clipPath>
  <clipPath id="pdc378ecd68">
   <rect x="36.104063" y="115.736359" width="116.061198" height="95.829442"/>
  </clipPath>
  <clipPath id="p2d2df7d5f3">
   <rect x="155.04526" y="115.736359" width="116.061198" height="95.829442"/>
  </clipPath>
 </defs>
</svg>
