<?xml version="1.0" encoding="utf-8" standalone="no"?>
<!DOCTYPE svg PUBLIC "-//W3C//DTD SVG 1.1//EN"
  "http://www.w3.org/Graphics/SVG/1.1/DTD/svg11.dtd">
<svg xmlns:xlink="http://www.w3.org/1999/xlink" width="252pt" height="230.4pt" viewBox="0 0 252 230.4" xmlns="http://www.w3.org/2000/svg" version="1.1">
 <metadata>
  <rdf:RDF xmlns:dc="http://purl.org/dc/elements/1.1/" xmlns:cc="http://creativecommons.org/ns#" xmlns:rdf="http://www.w3.org/1999/02/22-rdf-syntax-ns#">
   <cc:Work>
    <dc:type rdf:resource="http://purl.org/dc/dcmitype/StillImage"/>
    <dc:date>2025-02-20T10:27:23.518783</dc:date>
    <dc:format>image/svg+xml</dc:format>
    <dc:creator>
     <cc:Agent>
      <dc:title>Matplotlib v3.8.2, https://matplotlib.org/</dc:title>
     </cc:Agent>
    </dc:creator>
   </cc:Work>
  </rdf:RDF>
 </metadata>
 <defs>
  <style type="text/css">*{stroke-linejoin: round; stroke-linecap: butt}</style>
 </defs>
 <g id="figure_1">
  <g id="patch_1">
   <path d="M 0 230.4 
L 252 230.4 
L 252 0 
L 0 0 
z
" style="fill: #ffffff; stroke: #ffffff; stroke-linejoin: miter"/>
  </g>
  <g id="axes_1">
   <g id="patch_2">
    <path d="M 27.019531 116.342763 
L 129.916307 116.342763 
L 129.916307 36.093542 
L 27.019531 36.093542 
z
" style="fill: #ffffff"/>
   </g>
   <g id="matplotlib.axis_1">
    <g id="xtick_1">
     <g id="line2d_1">
      <path d="M 38.892236 116.342763 
L 38.892236 36.093542 
" clip-path="url(#p33e23c5783)" style="fill: none; stroke: #e5e5e5; stroke-linecap: square"/>
     </g>
    </g>
    <g id="xtick_2">
     <g id="line2d_2">
      <path d="M 58.680078 116.342763 
L 58.680078 36.093542 
" clip-path="url(#p33e23c5783)" style="fill: none; stroke: #e5e5e5; stroke-linecap: square"/>
     </g>
    </g>
    <g id="xtick_3">
     <g id="line2d_3">
      <path d="M 78.467919 116.342763 
L 78.467919 36.093542 
" clip-path="url(#p33e23c5783)" style="fill: none; stroke: #e5e5e5; stroke-linecap: square"/>
     </g>
    </g>
    <g id="xtick_4">
     <g id="line2d_4">
      <path d="M 98.255761 116.342763 
L 98.255761 36.093542 
" clip-path="url(#p33e23c5783)" style="fill: none; stroke: #e5e5e5; stroke-linecap: square"/>
     </g>
    </g>
    <g id="xtick_5">
     <g id="line2d_5">
      <path d="M 118.043602 116.342763 
L 118.043602 36.093542 
" clip-path="url(#p33e23c5783)" style="fill: none; stroke: #e5e5e5; stroke-linecap: square"/>
     </g>
    </g>
   </g>
   <g id="matplotlib.axis_2">
    <g id="ytick_1">
     <g id="line2d_6">
      <path d="M 27.019531 112.695071 
L 129.916307 112.695071 
" clip-path="url(#p33e23c5783)" style="fill: none; stroke: #e5e5e5; stroke-linecap: square"/>
     </g>
     <g id="line2d_7">
      <path d="M 27.019531 112.695071 
" style="fill: none; stroke: #333333; stroke-width: 1.5; stroke-linecap: square"/>
      <defs>
       <path id="md9b6866406" d="M 0 0 
L -2.75 0 
" style="stroke: #333333"/>
      </defs>
      <g>
       <use xlink:href="#md9b6866406" x="27.019531" y="112.695071" style="fill: #333333; stroke: #333333"/>
      </g>
     </g>
     <g id="text_1">
      <!-- 0 -->
      <g style="fill: #4d4d4d" transform="translate(17.820781 115.564446) scale(0.08 -0.08)">
       <defs>
        <path id="Helvetica-30" d="M 1731 4475 
Q 2600 4475 2988 3759 
Q 3288 3206 3288 2244 
Q 3288 1331 3016 734 
Q 2622 -122 1728 -122 
Q 922 -122 528 578 
Q 200 1163 200 2147 
Q 200 2909 397 3456 
Q 766 4475 1731 4475 
z
M 1725 391 
Q 2163 391 2422 778 
Q 2681 1166 2681 2222 
Q 2681 2984 2493 3476 
Q 2306 3969 1766 3969 
Q 1269 3969 1039 3501 
Q 809 3034 809 2125 
Q 809 1441 956 1025 
Q 1181 391 1725 391 
z
" transform="scale(0.015625)"/>
       </defs>
       <use xlink:href="#Helvetica-30"/>
      </g>
     </g>
    </g>
    <g id="ytick_2">
     <g id="line2d_8">
      <path d="M 27.019531 91.969549 
L 129.916307 91.969549 
" clip-path="url(#p33e23c5783)" style="fill: none; stroke: #e5e5e5; stroke-linecap: square"/>
     </g>
     <g id="line2d_9">
      <path d="M 27.019531 91.969549 
" style="fill: none; stroke: #333333; stroke-width: 1.5; stroke-linecap: square"/>
      <g>
       <use xlink:href="#md9b6866406" x="27.019531" y="91.969549" style="fill: #333333; stroke: #333333"/>
      </g>
     </g>
     <g id="text_2">
      <!-- 25 -->
      <g style="fill: #4d4d4d" transform="translate(13.372031 94.838924) scale(0.08 -0.08)">
       <defs>
        <path id="Helvetica-32" d="M 200 0 
Q 231 578 439 1006 
Q 647 1434 1250 1784 
L 1850 2131 
Q 2253 2366 2416 2531 
Q 2672 2791 2672 3125 
Q 2672 3516 2437 3745 
Q 2203 3975 1813 3975 
Q 1234 3975 1013 3538 
Q 894 3303 881 2888 
L 309 2888 
Q 319 3472 525 3841 
Q 891 4491 1816 4491 
Q 2584 4491 2939 4075 
Q 3294 3659 3294 3150 
Q 3294 2613 2916 2231 
Q 2697 2009 2131 1694 
L 1703 1456 
Q 1397 1288 1222 1134 
Q 909 863 828 531 
L 3272 531 
L 3272 0 
L 200 0 
z
" transform="scale(0.015625)"/>
        <path id="Helvetica-35" d="M 791 1141 
Q 847 659 1238 475 
Q 1438 381 1700 381 
Q 2200 381 2440 700 
Q 2681 1019 2681 1406 
Q 2681 1875 2395 2131 
Q 2109 2388 1709 2388 
Q 1419 2388 1211 2275 
Q 1003 2163 856 1963 
L 369 1991 
L 709 4400 
L 3034 4400 
L 3034 3856 
L 1131 3856 
L 941 2613 
Q 1097 2731 1238 2791 
Q 1488 2894 1816 2894 
Q 2431 2894 2859 2497 
Q 3288 2100 3288 1491 
Q 3288 856 2895 371 
Q 2503 -113 1644 -113 
Q 1097 -113 676 195 
Q 256 503 206 1141 
L 791 1141 
z
" transform="scale(0.015625)"/>
       </defs>
       <use xlink:href="#Helvetica-32"/>
       <use xlink:href="#Helvetica-35" x="55.615234"/>
      </g>
     </g>
    </g>
    <g id="ytick_3">
     <g id="line2d_10">
      <path d="M 27.019531 71.244027 
L 129.916307 71.244027 
" clip-path="url(#p33e23c5783)" style="fill: none; stroke: #e5e5e5; stroke-linecap: square"/>
     </g>
     <g id="line2d_11">
      <path d="M 27.019531 71.244027 
" style="fill: none; stroke: #333333; stroke-width: 1.5; stroke-linecap: square"/>
      <g>
       <use xlink:href="#md9b6866406" x="27.019531" y="71.244027" style="fill: #333333; stroke: #333333"/>
      </g>
     </g>
     <g id="text_3">
      <!-- 50 -->
      <g style="fill: #4d4d4d" transform="translate(13.372031 74.113402) scale(0.08 -0.08)">
       <use xlink:href="#Helvetica-35"/>
       <use xlink:href="#Helvetica-30" x="55.615234"/>
      </g>
     </g>
    </g>
    <g id="ytick_4">
     <g id="line2d_12">
      <path d="M 27.019531 50.518505 
L 129.916307 50.518505 
" clip-path="url(#p33e23c5783)" style="fill: none; stroke: #e5e5e5; stroke-linecap: square"/>
     </g>
     <g id="line2d_13">
      <path d="M 27.019531 50.518505 
" style="fill: none; stroke: #333333; stroke-width: 1.5; stroke-linecap: square"/>
      <g>
       <use xlink:href="#md9b6866406" x="27.019531" y="50.518505" style="fill: #333333; stroke: #333333"/>
      </g>
     </g>
     <g id="text_4">
      <!-- 75 -->
      <g style="fill: #4d4d4d" transform="translate(13.372031 53.38788) scale(0.08 -0.08)">
       <defs>
        <path id="Helvetica-37" d="M 3347 4400 
L 3347 3909 
Q 3131 3700 2773 3181 
Q 2416 2663 2141 2063 
Q 1869 1478 1728 997 
Q 1638 688 1494 0 
L 872 0 
Q 1084 1281 1809 2550 
Q 2238 3294 2709 3834 
L 234 3834 
L 234 4400 
L 3347 4400 
z
" transform="scale(0.015625)"/>
       </defs>
       <use xlink:href="#Helvetica-37"/>
       <use xlink:href="#Helvetica-35" x="55.615234"/>
      </g>
     </g>
    </g>
    <g id="ytick_5"/>
    <g id="ytick_6"/>
    <g id="ytick_7"/>
    <g id="ytick_8"/>
   </g>
   <g id="PolyCollection_1">
    <path d="M 29.987707 112.695071 
L 29.987707 105.233883 
L 47.796765 105.233883 
L 47.796765 112.695071 
z
" clip-path="url(#p33e23c5783)" style="fill: #5f57db; stroke: #5f57db; stroke-width: 0.886227"/>
    <path d="M 29.987707 105.233883 
L 29.987707 86.995423 
L 47.796765 86.995423 
L 47.796765 105.233883 
z
" clip-path="url(#p33e23c5783)" style="fill: #57db5f; stroke: #57db5f; stroke-width: 0.886227"/>
    <path d="M 29.987707 86.995423 
L 29.987707 61.295776 
L 47.796765 61.295776 
L 47.796765 86.995423 
z
" clip-path="url(#p33e23c5783)" style="fill: #db5f57; stroke: #db5f57; stroke-width: 0.886227"/>
    <path d="M 49.775549 112.695071 
L 49.775549 104.404862 
L 67.584606 104.404862 
L 67.584606 112.695071 
z
" clip-path="url(#p33e23c5783)" style="fill: #5f57db; stroke: #5f57db; stroke-width: 0.886227"/>
    <path d="M 49.775549 104.404862 
L 49.775549 92.79857 
L 67.584606 92.79857 
L 67.584606 104.404862 
z
" clip-path="url(#p33e23c5783)" style="fill: #57db5f; stroke: #57db5f; stroke-width: 0.886227"/>
    <path d="M 49.775549 92.79857 
L 49.775549 77.047173 
L 67.584606 77.047173 
L 67.584606 92.79857 
z
" clip-path="url(#p33e23c5783)" style="fill: #db5f57; stroke: #db5f57; stroke-width: 0.886227"/>
    <path d="M 69.563391 112.695071 
L 69.563391 107.720945 
L 87.372448 107.720945 
L 87.372448 112.695071 
z
" clip-path="url(#p33e23c5783)" style="fill: #5f57db; stroke: #5f57db; stroke-width: 0.886227"/>
    <path d="M 69.563391 107.720945 
L 69.563391 102.74682 
L 87.372448 102.74682 
L 87.372448 107.720945 
z
" clip-path="url(#p33e23c5783)" style="fill: #57db5f; stroke: #57db5f; stroke-width: 0.886227"/>
    <path d="M 69.563391 102.74682 
L 69.563391 92.79857 
L 87.372448 92.79857 
L 87.372448 102.74682 
z
" clip-path="url(#p33e23c5783)" style="fill: #db5f57; stroke: #db5f57; stroke-width: 0.886227"/>
    <path d="M 89.351232 112.695071 
L 89.351232 99.430737 
L 107.16029 99.430737 
L 107.16029 112.695071 
z
" clip-path="url(#p33e23c5783)" style="fill: #5f57db; stroke: #5f57db; stroke-width: 0.886227"/>
    <path d="M 89.351232 99.430737 
L 89.351232 93.627591 
L 107.16029 93.627591 
L 107.16029 99.430737 
z
" clip-path="url(#p33e23c5783)" style="fill: #57db5f; stroke: #57db5f; stroke-width: 0.886227"/>
    <path d="M 89.351232 93.627591 
L 89.351232 66.269902 
L 107.16029 66.269902 
L 107.16029 93.627591 
z
" clip-path="url(#p33e23c5783)" style="fill: #db5f57; stroke: #db5f57; stroke-width: 0.886227"/>
    <path d="M 109.139074 112.695071 
L 109.139074 100.259758 
L 126.948131 100.259758 
L 126.948131 112.695071 
z
" clip-path="url(#p33e23c5783)" style="fill: #5f57db; stroke: #5f57db; stroke-width: 0.886227"/>
    <path d="M 109.139074 100.259758 
L 109.139074 86.995423 
L 126.948131 86.995423 
L 126.948131 100.259758 
z
" clip-path="url(#p33e23c5783)" style="fill: #57db5f; stroke: #57db5f; stroke-width: 0.886227"/>
    <path d="M 109.139074 86.995423 
L 109.139074 60.466755 
L 126.948131 60.466755 
L 126.948131 86.995423 
z
" clip-path="url(#p33e23c5783)" style="fill: #db5f57; stroke: #db5f57; stroke-width: 0.886227"/>
   </g>
  </g>
  <g id="axes_2">
   <g id="patch_3">
    <path d="M 132.436307 116.342763 
L 235.333083 116.342763 
L 235.333083 36.093542 
L 132.436307 36.093542 
z
" style="fill: #ffffff"/>
   </g>
   <g id="matplotlib.axis_3">
    <g id="xtick_6">
     <g id="line2d_14">
      <path d="M 144.309012 116.342763 
L 144.309012 36.093542 
" clip-path="url(#p27323e5239)" style="fill: none; stroke: #e5e5e5; stroke-linecap: square"/>
     </g>
    </g>
    <g id="xtick_7">
     <g id="line2d_15">
      <path d="M 164.096854 116.342763 
L 164.096854 36.093542 
" clip-path="url(#p27323e5239)" style="fill: none; stroke: #e5e5e5; stroke-linecap: square"/>
     </g>
    </g>
    <g id="xtick_8">
     <g id="line2d_16">
      <path d="M 183.884695 116.342763 
L 183.884695 36.093542 
" clip-path="url(#p27323e5239)" style="fill: none; stroke: #e5e5e5; stroke-linecap: square"/>
     </g>
    </g>
    <g id="xtick_9">
     <g id="line2d_17">
      <path d="M 203.672537 116.342763 
L 203.672537 36.093542 
" clip-path="url(#p27323e5239)" style="fill: none; stroke: #e5e5e5; stroke-linecap: square"/>
     </g>
    </g>
    <g id="xtick_10">
     <g id="line2d_18">
      <path d="M 223.460378 116.342763 
L 223.460378 36.093542 
" clip-path="url(#p27323e5239)" style="fill: none; stroke: #e5e5e5; stroke-linecap: square"/>
     </g>
    </g>
   </g>
   <g id="matplotlib.axis_4">
    <g id="ytick_9">
     <g id="line2d_19">
      <path d="M 132.436307 112.695071 
L 235.333083 112.695071 
" clip-path="url(#p27323e5239)" style="fill: none; stroke: #e5e5e5; stroke-linecap: square"/>
     </g>
    </g>
    <g id="ytick_10">
     <g id="line2d_20">
      <path d="M 132.436307 91.969549 
L 235.333083 91.969549 
" clip-path="url(#p27323e5239)" style="fill: none; stroke: #e5e5e5; stroke-linecap: square"/>
     </g>
    </g>
    <g id="ytick_11">
     <g id="line2d_21">
      <path d="M 132.436307 71.244027 
L 235.333083 71.244027 
" clip-path="url(#p27323e5239)" style="fill: none; stroke: #e5e5e5; stroke-linecap: square"/>
     </g>
    </g>
    <g id="ytick_12">
     <g id="line2d_22">
      <path d="M 132.436307 50.518505 
L 235.333083 50.518505 
" clip-path="url(#p27323e5239)" style="fill: none; stroke: #e5e5e5; stroke-linecap: square"/>
     </g>
    </g>
    <g id="ytick_13"/>
    <g id="ytick_14"/>
    <g id="ytick_15"/>
    <g id="ytick_16"/>
   </g>
   <g id="PolyCollection_2">
    <path d="M 135.404484 112.695071 
L 135.404484 78.705215 
L 153.213541 78.705215 
L 153.213541 112.695071 
z
" clip-path="url(#p27323e5239)" style="fill: #5f57db; stroke: #5f57db; stroke-width: 0.886227"/>
    <path d="M 135.404484 78.705215 
L 135.404484 61.295776 
L 153.213541 61.295776 
L 153.213541 78.705215 
z
" clip-path="url(#p27323e5239)" style="fill: #57db5f; stroke: #57db5f; stroke-width: 0.886227"/>
    <path d="M 135.404484 61.295776 
L 135.404484 39.741234 
L 153.213541 39.741234 
L 153.213541 61.295776 
z
" clip-path="url(#p27323e5239)" style="fill: #db5f57; stroke: #db5f57; stroke-width: 0.886227"/>
    <path d="M 155.192325 112.695071 
L 155.192325 89.482486 
L 173.001382 89.482486 
L 173.001382 112.695071 
z
" clip-path="url(#p27323e5239)" style="fill: #5f57db; stroke: #5f57db; stroke-width: 0.886227"/>
    <path d="M 155.192325 89.482486 
L 155.192325 74.56011 
L 173.001382 74.56011 
L 173.001382 89.482486 
z
" clip-path="url(#p27323e5239)" style="fill: #57db5f; stroke: #57db5f; stroke-width: 0.886227"/>
    <path d="M 155.192325 74.56011 
L 155.192325 66.269902 
L 173.001382 66.269902 
L 173.001382 74.56011 
z
" clip-path="url(#p27323e5239)" style="fill: #db5f57; stroke: #db5f57; stroke-width: 0.886227"/>
    <path d="M 174.980167 112.695071 
L 174.980167 105.233883 
L 192.789224 105.233883 
L 192.789224 112.695071 
z
" clip-path="url(#p27323e5239)" style="fill: #5f57db; stroke: #5f57db; stroke-width: 0.886227"/>
    <path d="M 174.980167 105.233883 
L 174.980167 101.088778 
L 192.789224 101.088778 
L 192.789224 105.233883 
z
" clip-path="url(#p27323e5239)" style="fill: #57db5f; stroke: #57db5f; stroke-width: 0.886227"/>
    <path d="M 174.980167 101.088778 
L 174.980167 95.285632 
L 192.789224 95.285632 
L 192.789224 101.088778 
z
" clip-path="url(#p27323e5239)" style="fill: #db5f57; stroke: #db5f57; stroke-width: 0.886227"/>
    <path d="M 194.768008 112.695071 
L 194.768008 96.943674 
L 212.577066 96.943674 
L 212.577066 112.695071 
z
" clip-path="url(#p27323e5239)" style="fill: #5f57db; stroke: #5f57db; stroke-width: 0.886227"/>
    <path d="M 194.768008 96.943674 
L 194.768008 86.995423 
L 212.577066 86.995423 
L 212.577066 96.943674 
z
" clip-path="url(#p27323e5239)" style="fill: #57db5f; stroke: #57db5f; stroke-width: 0.886227"/>
    <path d="M 194.768008 86.995423 
L 194.768008 75.389131 
L 212.577066 75.389131 
L 212.577066 86.995423 
z
" clip-path="url(#p27323e5239)" style="fill: #db5f57; stroke: #db5f57; stroke-width: 0.886227"/>
    <path d="M 214.55585 112.695071 
L 214.55585 91.969549 
L 232.364907 91.969549 
L 232.364907 112.695071 
z
" clip-path="url(#p27323e5239)" style="fill: #5f57db; stroke: #5f57db; stroke-width: 0.886227"/>
    <path d="M 214.55585 91.969549 
L 214.55585 82.850319 
L 232.364907 82.850319 
L 232.364907 91.969549 
z
" clip-path="url(#p27323e5239)" style="fill: #57db5f; stroke: #57db5f; stroke-width: 0.886227"/>
    <path d="M 214.55585 82.850319 
L 214.55585 67.098922 
L 232.364907 67.098922 
L 232.364907 82.850319 
z
" clip-path="url(#p27323e5239)" style="fill: #db5f57; stroke: #db5f57; stroke-width: 0.886227"/>
   </g>
  </g>
  <g id="axes_3">
   <g id="patch_4">
    <path d="M 27.019531 199.111983 
L 129.916307 199.111983 
L 129.916307 118.862763 
L 27.019531 118.862763 
z
" style="fill: #ffffff"/>
   </g>
   <g id="matplotlib.axis_5">
    <g id="xtick_11">
     <g id="line2d_23">
      <path d="M 38.892236 199.111983 
L 38.892236 118.862763 
" clip-path="url(#pa2ecb76208)" style="fill: none; stroke: #e5e5e5; stroke-linecap: square"/>
     </g>
     <g id="line2d_24">
      <path d="M 38.892236 199.111983 
" style="fill: none; stroke: #333333; stroke-width: 1.5; stroke-linecap: square"/>
      <defs>
       <path id="mb5c7148018" d="M 0 0 
L 0 2.75 
" style="stroke: #333333"/>
      </defs>
      <g>
       <use xlink:href="#mb5c7148018" x="38.892236" y="199.111983" style="fill: #333333; stroke: #333333"/>
      </g>
     </g>
     <g id="text_5">
      <!-- MT -->
      <g style="fill: #4d4d4d" transform="translate(28.474591 215.1877) rotate(-35) scale(0.08 -0.08)">
       <defs>
        <path id="Helvetica-4d" d="M 472 4591 
L 1363 4591 
L 2681 709 
L 3991 4591 
L 4872 4591 
L 4872 0 
L 4281 0 
L 4281 2709 
Q 4281 2850 4287 3175 
Q 4294 3500 4294 3872 
L 2984 0 
L 2369 0 
L 1050 3872 
L 1050 3731 
Q 1050 3563 1058 3217 
Q 1066 2872 1066 2709 
L 1066 0 
L 472 0 
L 472 4591 
z
" transform="scale(0.015625)"/>
        <path id="Helvetica-54" d="M 3828 4591 
L 3828 4044 
L 2281 4044 
L 2281 0 
L 1650 0 
L 1650 4044 
L 103 4044 
L 103 4591 
L 3828 4591 
z
" transform="scale(0.015625)"/>
       </defs>
       <use xlink:href="#Helvetica-4d"/>
       <use xlink:href="#Helvetica-54" x="83.300781"/>
      </g>
     </g>
    </g>
    <g id="xtick_12">
     <g id="line2d_25">
      <path d="M 58.680078 199.111983 
L 58.680078 118.862763 
" clip-path="url(#pa2ecb76208)" style="fill: none; stroke: #e5e5e5; stroke-linecap: square"/>
     </g>
     <g id="line2d_26">
      <path d="M 58.680078 199.111983 
" style="fill: none; stroke: #333333; stroke-width: 1.5; stroke-linecap: square"/>
      <g>
       <use xlink:href="#mb5c7148018" x="58.680078" y="199.111983" style="fill: #333333; stroke: #333333"/>
      </g>
     </g>
     <g id="text_6">
      <!-- No High. -->
      <g style="fill: #4d4d4d" transform="translate(32.169764 226.430101) rotate(-35) scale(0.08 -0.08)">
       <defs>
        <path id="Helvetica-4e" d="M 488 4591 
L 1222 4591 
L 3541 872 
L 3541 4591 
L 4131 4591 
L 4131 0 
L 3434 0 
L 1081 3716 
L 1081 0 
L 488 0 
L 488 4591 
z
M 2269 4591 
L 2269 4591 
z
" transform="scale(0.015625)"/>
        <path id="Helvetica-6f" d="M 1741 363 
Q 2300 363 2508 786 
Q 2716 1209 2716 1728 
Q 2716 2197 2566 2491 
Q 2328 2953 1747 2953 
Q 1231 2953 997 2559 
Q 763 2166 763 1609 
Q 763 1075 997 719 
Q 1231 363 1741 363 
z
M 1763 3444 
Q 2409 3444 2856 3012 
Q 3303 2581 3303 1744 
Q 3303 934 2909 406 
Q 2516 -122 1688 -122 
Q 997 -122 590 345 
Q 184 813 184 1600 
Q 184 2444 612 2944 
Q 1041 3444 1763 3444 
z
M 1744 3428 
L 1744 3428 
z
" transform="scale(0.015625)"/>
        <path id="Helvetica-20" transform="scale(0.015625)"/>
        <path id="Helvetica-48" d="M 503 4591 
L 1131 4591 
L 1131 2694 
L 3519 2694 
L 3519 4591 
L 4147 4591 
L 4147 0 
L 3519 0 
L 3519 2147 
L 1131 2147 
L 1131 0 
L 503 0 
L 503 4591 
z
" transform="scale(0.015625)"/>
        <path id="Helvetica-69" d="M 413 3331 
L 984 3331 
L 984 0 
L 413 0 
L 413 3331 
z
M 413 4591 
L 984 4591 
L 984 3953 
L 413 3953 
L 413 4591 
z
" transform="scale(0.015625)"/>
        <path id="Helvetica-67" d="M 1594 3406 
Q 1988 3406 2281 3213 
Q 2441 3103 2606 2894 
L 2606 3316 
L 3125 3316 
L 3125 272 
Q 3125 -366 2938 -734 
Q 2588 -1416 1616 -1416 
Q 1075 -1416 706 -1173 
Q 338 -931 294 -416 
L 866 -416 
Q 906 -641 1028 -763 
Q 1219 -950 1628 -950 
Q 2275 -950 2475 -494 
Q 2594 -225 2584 466 
Q 2416 209 2178 84 
Q 1941 -41 1550 -41 
Q 1006 -41 598 345 
Q 191 731 191 1622 
Q 191 2463 602 2934 
Q 1013 3406 1594 3406 
z
M 2606 1688 
Q 2606 2309 2350 2609 
Q 2094 2909 1697 2909 
Q 1103 2909 884 2353 
Q 769 2056 769 1575 
Q 769 1009 998 714 
Q 1228 419 1616 419 
Q 2222 419 2469 966 
Q 2606 1275 2606 1688 
z
M 1659 3428 
L 1659 3428 
z
" transform="scale(0.015625)"/>
        <path id="Helvetica-68" d="M 413 4606 
L 975 4606 
L 975 2894 
Q 1175 3147 1334 3250 
Q 1606 3428 2013 3428 
Q 2741 3428 3000 2919 
Q 3141 2641 3141 2147 
L 3141 0 
L 2563 0 
L 2563 2109 
Q 2563 2478 2469 2650 
Q 2316 2925 1894 2925 
Q 1544 2925 1259 2684 
Q 975 2444 975 1775 
L 975 0 
L 413 0 
L 413 4606 
z
" transform="scale(0.015625)"/>
        <path id="Helvetica-2e" d="M 547 681 
L 1200 681 
L 1200 0 
L 547 0 
L 547 681 
z
" transform="scale(0.015625)"/>
       </defs>
       <use xlink:href="#Helvetica-4e"/>
       <use xlink:href="#Helvetica-6f" x="72.216797"/>
       <use xlink:href="#Helvetica-20" x="127.832031"/>
       <use xlink:href="#Helvetica-48" x="155.615234"/>
       <use xlink:href="#Helvetica-69" x="227.832031"/>
       <use xlink:href="#Helvetica-67" x="250.048828"/>
       <use xlink:href="#Helvetica-68" x="305.664062"/>
       <use xlink:href="#Helvetica-2e" x="361.279297"/>
      </g>
     </g>
    </g>
    <g id="xtick_13">
     <g id="line2d_27">
      <path d="M 78.467919 199.111983 
L 78.467919 118.862763 
" clip-path="url(#pa2ecb76208)" style="fill: none; stroke: #e5e5e5; stroke-linecap: square"/>
     </g>
     <g id="line2d_28">
      <path d="M 78.467919 199.111983 
" style="fill: none; stroke: #333333; stroke-width: 1.5; stroke-linecap: square"/>
      <g>
       <use xlink:href="#mb5c7148018" x="78.467919" y="199.111983" style="fill: #333333; stroke: #333333"/>
      </g>
     </g>
     <g id="text_7">
      <!-- Oracle -->
      <g style="fill: #4d4d4d" transform="translate(58.211234 222.07707) rotate(-35) scale(0.08 -0.08)">
       <defs>
        <path id="Helvetica-4f" d="M 2469 4716 
Q 3684 4716 4269 3934 
Q 4725 3325 4725 2375 
Q 4725 1347 4203 666 
Q 3591 -134 2456 -134 
Q 1397 -134 791 566 
Q 250 1241 250 2272 
Q 250 3203 713 3866 
Q 1306 4716 2469 4716 
z
M 2531 422 
Q 3353 422 3720 1011 
Q 4088 1600 4088 2366 
Q 4088 3175 3664 3669 
Q 3241 4163 2506 4163 
Q 1794 4163 1344 3673 
Q 894 3184 894 2231 
Q 894 1469 1280 945 
Q 1666 422 2531 422 
z
M 2488 4716 
L 2488 4716 
z
" transform="scale(0.015625)"/>
        <path id="Helvetica-72" d="M 428 3347 
L 963 3347 
L 963 2769 
Q 1028 2938 1284 3180 
Q 1541 3422 1875 3422 
Q 1891 3422 1928 3419 
Q 1966 3416 2056 3406 
L 2056 2813 
Q 2006 2822 1964 2825 
Q 1922 2828 1872 2828 
Q 1447 2828 1219 2554 
Q 991 2281 991 1925 
L 991 0 
L 428 0 
L 428 3347 
z
" transform="scale(0.015625)"/>
        <path id="Helvetica-61" d="M 844 891 
Q 844 647 1022 506 
Q 1200 366 1444 366 
Q 1741 366 2019 503 
Q 2488 731 2488 1250 
L 2488 1703 
Q 2384 1638 2221 1594 
Q 2059 1550 1903 1531 
L 1563 1488 
Q 1256 1447 1103 1359 
Q 844 1213 844 891 
z
M 2206 2028 
Q 2400 2053 2466 2191 
Q 2503 2266 2503 2406 
Q 2503 2694 2298 2823 
Q 2094 2953 1713 2953 
Q 1272 2953 1088 2716 
Q 984 2584 953 2325 
L 428 2325 
Q 444 2944 830 3186 
Q 1216 3428 1725 3428 
Q 2316 3428 2684 3203 
Q 3050 2978 3050 2503 
L 3050 575 
Q 3050 488 3086 434 
Q 3122 381 3238 381 
Q 3275 381 3322 386 
Q 3369 391 3422 400 
L 3422 -16 
Q 3291 -53 3222 -62 
Q 3153 -72 3034 -72 
Q 2744 -72 2613 134 
Q 2544 244 2516 444 
Q 2344 219 2022 53 
Q 1700 -113 1313 -113 
Q 847 -113 551 170 
Q 256 453 256 878 
Q 256 1344 547 1600 
Q 838 1856 1309 1916 
L 2206 2028 
z
M 1741 3428 
L 1741 3428 
z
" transform="scale(0.015625)"/>
        <path id="Helvetica-63" d="M 1703 3444 
Q 2269 3444 2623 3169 
Q 2978 2894 3050 2222 
L 2503 2222 
Q 2453 2531 2275 2736 
Q 2097 2941 1703 2941 
Q 1166 2941 934 2416 
Q 784 2075 784 1575 
Q 784 1072 996 728 
Q 1209 384 1666 384 
Q 2016 384 2220 598 
Q 2425 813 2503 1184 
L 3050 1184 
Q 2956 519 2581 211 
Q 2206 -97 1622 -97 
Q 966 -97 575 383 
Q 184 863 184 1581 
Q 184 2463 612 2953 
Q 1041 3444 1703 3444 
z
M 1616 3428 
L 1616 3428 
z
" transform="scale(0.015625)"/>
        <path id="Helvetica-6c" d="M 428 4591 
L 991 4591 
L 991 0 
L 428 0 
L 428 4591 
z
" transform="scale(0.015625)"/>
        <path id="Helvetica-65" d="M 1806 3422 
Q 2163 3422 2497 3255 
Q 2831 3088 3006 2822 
Q 3175 2569 3231 2231 
Q 3281 2000 3281 1494 
L 828 1494 
Q 844 984 1069 676 
Q 1294 369 1766 369 
Q 2206 369 2469 659 
Q 2619 828 2681 1050 
L 3234 1050 
Q 3213 866 3089 639 
Q 2966 413 2813 269 
Q 2556 19 2178 -69 
Q 1975 -119 1719 -119 
Q 1094 -119 659 336 
Q 225 791 225 1609 
Q 225 2416 662 2919 
Q 1100 3422 1806 3422 
z
M 2703 1941 
Q 2669 2306 2544 2525 
Q 2313 2931 1772 2931 
Q 1384 2931 1121 2651 
Q 859 2372 844 1941 
L 2703 1941 
z
M 1753 3428 
L 1753 3428 
z
" transform="scale(0.015625)"/>
       </defs>
       <use xlink:href="#Helvetica-4f"/>
       <use xlink:href="#Helvetica-72" x="77.783203"/>
       <use xlink:href="#Helvetica-61" x="111.083984"/>
       <use xlink:href="#Helvetica-63" x="166.699219"/>
       <use xlink:href="#Helvetica-6c" x="216.699219"/>
       <use xlink:href="#Helvetica-65" x="238.916016"/>
      </g>
     </g>
    </g>
    <g id="xtick_14">
     <g id="line2d_29">
      <path d="M 98.255761 199.111983 
L 98.255761 118.862763 
" clip-path="url(#pa2ecb76208)" style="fill: none; stroke: #e5e5e5; stroke-linecap: square"/>
     </g>
     <g id="line2d_30">
      <path d="M 98.255761 199.111983 
" style="fill: none; stroke: #333333; stroke-width: 1.5; stroke-linecap: square"/>
      <g>
       <use xlink:href="#mb5c7148018" x="98.255761" y="199.111983" style="fill: #333333; stroke: #333333"/>
      </g>
     </g>
     <g id="text_8">
      <!-- Sup. -->
      <g style="fill: #4d4d4d" transform="translate(83.819151 218.129802) rotate(-35) scale(0.08 -0.08)">
       <defs>
        <path id="Helvetica-53" d="M 894 1481 
Q 916 1091 1078 847 
Q 1388 391 2169 391 
Q 2519 391 2806 491 
Q 3363 684 3363 1184 
Q 3363 1559 3128 1719 
Q 2891 1875 2384 1991 
L 1763 2131 
Q 1153 2269 900 2434 
Q 463 2722 463 3294 
Q 463 3913 891 4309 
Q 1319 4706 2103 4706 
Q 2825 4706 3329 4357 
Q 3834 4009 3834 3244 
L 3250 3244 
Q 3203 3613 3050 3809 
Q 2766 4169 2084 4169 
Q 1534 4169 1293 3937 
Q 1053 3706 1053 3400 
Q 1053 3063 1334 2906 
Q 1519 2806 2169 2656 
L 2813 2509 
Q 3278 2403 3531 2219 
Q 3969 1897 3969 1284 
Q 3969 522 3414 194 
Q 2859 -134 2125 -134 
Q 1269 -134 784 303 
Q 300 738 309 1481 
L 894 1481 
z
M 2150 4716 
L 2150 4716 
z
" transform="scale(0.015625)"/>
        <path id="Helvetica-75" d="M 975 3347 
L 975 1125 
Q 975 869 1056 706 
Q 1206 406 1616 406 
Q 2203 406 2416 931 
Q 2531 1213 2531 1703 
L 2531 3347 
L 3094 3347 
L 3094 0 
L 2563 0 
L 2569 494 
Q 2459 303 2297 172 
Q 1975 -91 1516 -91 
Q 800 -91 541 388 
Q 400 644 400 1072 
L 400 3347 
L 975 3347 
z
M 1747 3428 
L 1747 3428 
z
" transform="scale(0.015625)"/>
        <path id="Helvetica-70" d="M 1825 378 
Q 2219 378 2480 708 
Q 2741 1038 2741 1694 
Q 2741 2094 2625 2381 
Q 2406 2934 1825 2934 
Q 1241 2934 1025 2350 
Q 909 2038 909 1556 
Q 909 1169 1025 897 
Q 1244 378 1825 378 
z
M 369 3331 
L 916 3331 
L 916 2888 
Q 1084 3116 1284 3241 
Q 1569 3428 1953 3428 
Q 2522 3428 2919 2992 
Q 3316 2556 3316 1747 
Q 3316 653 2744 184 
Q 2381 -113 1900 -113 
Q 1522 -113 1266 53 
Q 1116 147 931 375 
L 931 -1334 
L 369 -1334 
L 369 3331 
z
" transform="scale(0.015625)"/>
       </defs>
       <use xlink:href="#Helvetica-53"/>
       <use xlink:href="#Helvetica-75" x="66.699219"/>
       <use xlink:href="#Helvetica-70" x="122.314453"/>
       <use xlink:href="#Helvetica-2e" x="177.929688"/>
      </g>
     </g>
    </g>
    <g id="xtick_15">
     <g id="line2d_31">
      <path d="M 118.043602 199.111983 
L 118.043602 118.862763 
" clip-path="url(#pa2ecb76208)" style="fill: none; stroke: #e5e5e5; stroke-linecap: square"/>
     </g>
     <g id="line2d_32">
      <path d="M 118.043602 199.111983 
" style="fill: none; stroke: #333333; stroke-width: 1.5; stroke-linecap: square"/>
      <g>
       <use xlink:href="#mb5c7148018" x="118.043602" y="199.111983" style="fill: #333333; stroke: #333333"/>
      </g>
     </g>
     <g id="text_9">
      <!-- Unsup. -->
      <g style="fill: #4d4d4d" transform="translate(96.324731 223.100904) rotate(-35) scale(0.08 -0.08)">
       <defs>
        <path id="Helvetica-55" d="M 1163 4591 
L 1163 1753 
Q 1163 1253 1350 922 
Q 1628 422 2288 422 
Q 3078 422 3363 963 
Q 3516 1256 3516 1753 
L 3516 4591 
L 4147 4591 
L 4147 2013 
Q 4147 1166 3919 709 
Q 3500 -122 2338 -122 
Q 1175 -122 759 709 
Q 531 1166 531 2013 
L 531 4591 
L 1163 4591 
z
M 2341 4591 
L 2341 4591 
z
" transform="scale(0.015625)"/>
        <path id="Helvetica-6e" d="M 413 3347 
L 947 3347 
L 947 2872 
Q 1184 3166 1450 3294 
Q 1716 3422 2041 3422 
Q 2753 3422 3003 2925 
Q 3141 2653 3141 2147 
L 3141 0 
L 2569 0 
L 2569 2109 
Q 2569 2416 2478 2603 
Q 2328 2916 1934 2916 
Q 1734 2916 1606 2875 
Q 1375 2806 1200 2600 
Q 1059 2434 1017 2257 
Q 975 2081 975 1753 
L 975 0 
L 413 0 
L 413 3347 
z
M 1734 3428 
L 1734 3428 
z
" transform="scale(0.015625)"/>
        <path id="Helvetica-73" d="M 747 1050 
Q 772 769 888 619 
Q 1100 347 1625 347 
Q 1938 347 2175 483 
Q 2413 619 2413 903 
Q 2413 1119 2222 1231 
Q 2100 1300 1741 1391 
L 1294 1503 
Q 866 1609 663 1741 
Q 300 1969 300 2372 
Q 300 2847 642 3140 
Q 984 3434 1563 3434 
Q 2319 3434 2653 2991 
Q 2863 2709 2856 2384 
L 2325 2384 
Q 2309 2575 2191 2731 
Q 1997 2953 1519 2953 
Q 1200 2953 1036 2831 
Q 872 2709 872 2509 
Q 872 2291 1088 2159 
Q 1213 2081 1456 2022 
L 1828 1931 
Q 2434 1784 2641 1647 
Q 2969 1431 2969 969 
Q 2969 522 2630 197 
Q 2291 -128 1597 -128 
Q 850 -128 539 211 
Q 228 550 206 1050 
L 747 1050 
z
M 1578 3428 
L 1578 3428 
z
" transform="scale(0.015625)"/>
       </defs>
       <use xlink:href="#Helvetica-55"/>
       <use xlink:href="#Helvetica-6e" x="72.216797"/>
       <use xlink:href="#Helvetica-73" x="127.832031"/>
       <use xlink:href="#Helvetica-75" x="177.832031"/>
       <use xlink:href="#Helvetica-70" x="233.447266"/>
       <use xlink:href="#Helvetica-2e" x="289.0625"/>
      </g>
     </g>
    </g>
   </g>
   <g id="matplotlib.axis_6">
    <g id="ytick_17">
     <g id="line2d_33">
      <path d="M 27.019531 195.464292 
L 129.916307 195.464292 
" clip-path="url(#pa2ecb76208)" style="fill: none; stroke: #e5e5e5; stroke-linecap: square"/>
     </g>
     <g id="line2d_34">
      <path d="M 27.019531 195.464292 
" style="fill: none; stroke: #333333; stroke-width: 1.5; stroke-linecap: square"/>
      <g>
       <use xlink:href="#md9b6866406" x="27.019531" y="195.464292" style="fill: #333333; stroke: #333333"/>
      </g>
     </g>
     <g id="text_10">
      <!-- 0 -->
      <g style="fill: #4d4d4d" transform="translate(17.820781 198.333667) scale(0.08 -0.08)">
       <use xlink:href="#Helvetica-30"/>
      </g>
     </g>
    </g>
    <g id="ytick_18">
     <g id="line2d_35">
      <path d="M 27.019531 174.73877 
L 129.916307 174.73877 
" clip-path="url(#pa2ecb76208)" style="fill: none; stroke: #e5e5e5; stroke-linecap: square"/>
     </g>
     <g id="line2d_36">
      <path d="M 27.019531 174.73877 
" style="fill: none; stroke: #333333; stroke-width: 1.5; stroke-linecap: square"/>
      <g>
       <use xlink:href="#md9b6866406" x="27.019531" y="174.73877" style="fill: #333333; stroke: #333333"/>
      </g>
     </g>
     <g id="text_11">
      <!-- 25 -->
      <g style="fill: #4d4d4d" transform="translate(13.372031 177.608145) scale(0.08 -0.08)">
       <use xlink:href="#Helvetica-32"/>
       <use xlink:href="#Helvetica-35" x="55.615234"/>
      </g>
     </g>
    </g>
    <g id="ytick_19">
     <g id="line2d_37">
      <path d="M 27.019531 154.013248 
L 129.916307 154.013248 
" clip-path="url(#pa2ecb76208)" style="fill: none; stroke: #e5e5e5; stroke-linecap: square"/>
     </g>
     <g id="line2d_38">
      <path d="M 27.019531 154.013248 
" style="fill: none; stroke: #333333; stroke-width: 1.5; stroke-linecap: square"/>
      <g>
       <use xlink:href="#md9b6866406" x="27.019531" y="154.013248" style="fill: #333333; stroke: #333333"/>
      </g>
     </g>
     <g id="text_12">
      <!-- 50 -->
      <g style="fill: #4d4d4d" transform="translate(13.372031 156.882623) scale(0.08 -0.08)">
       <use xlink:href="#Helvetica-35"/>
       <use xlink:href="#Helvetica-30" x="55.615234"/>
      </g>
     </g>
    </g>
    <g id="ytick_20">
     <g id="line2d_39">
      <path d="M 27.019531 133.287726 
L 129.916307 133.287726 
" clip-path="url(#pa2ecb76208)" style="fill: none; stroke: #e5e5e5; stroke-linecap: square"/>
     </g>
     <g id="line2d_40">
      <path d="M 27.019531 133.287726 
" style="fill: none; stroke: #333333; stroke-width: 1.5; stroke-linecap: square"/>
      <g>
       <use xlink:href="#md9b6866406" x="27.019531" y="133.287726" style="fill: #333333; stroke: #333333"/>
      </g>
     </g>
     <g id="text_13">
      <!-- 75 -->
      <g style="fill: #4d4d4d" transform="translate(13.372031 136.157101) scale(0.08 -0.08)">
       <use xlink:href="#Helvetica-37"/>
       <use xlink:href="#Helvetica-35" x="55.615234"/>
      </g>
     </g>
    </g>
    <g id="ytick_21"/>
    <g id="ytick_22"/>
    <g id="ytick_23"/>
    <g id="ytick_24"/>
   </g>
   <g id="PolyCollection_3">
    <path d="M 29.987707 195.464292 
L 29.987707 186.345062 
L 47.796765 186.345062 
L 47.796765 195.464292 
z
" clip-path="url(#pa2ecb76208)" style="fill: #5f57db; stroke: #5f57db; stroke-width: 0.886227"/>
    <path d="M 29.987707 186.345062 
L 29.987707 173.909749 
L 47.796765 173.909749 
L 47.796765 186.345062 
z
" clip-path="url(#pa2ecb76208)" style="fill: #57db5f; stroke: #57db5f; stroke-width: 0.886227"/>
    <path d="M 29.987707 173.909749 
L 29.987707 135.774788 
L 47.796765 135.774788 
L 47.796765 173.909749 
z
" clip-path="url(#pa2ecb76208)" style="fill: #db5f57; stroke: #db5f57; stroke-width: 0.886227"/>
    <path d="M 49.775549 195.464292 
L 49.775549 182.199957 
L 67.584606 182.199957 
L 67.584606 195.464292 
z
" clip-path="url(#pa2ecb76208)" style="fill: #5f57db; stroke: #5f57db; stroke-width: 0.886227"/>
    <path d="M 49.775549 182.199957 
L 49.775549 173.080728 
L 67.584606 173.080728 
L 67.584606 182.199957 
z
" clip-path="url(#pa2ecb76208)" style="fill: #57db5f; stroke: #57db5f; stroke-width: 0.886227"/>
    <path d="M 49.775549 173.080728 
L 49.775549 149.868143 
L 67.584606 149.868143 
L 67.584606 173.080728 
z
" clip-path="url(#pa2ecb76208)" style="fill: #db5f57; stroke: #db5f57; stroke-width: 0.886227"/>
    <path d="M 69.563391 195.464292 
L 69.563391 183.857999 
L 87.372448 183.857999 
L 87.372448 195.464292 
z
" clip-path="url(#pa2ecb76208)" style="fill: #5f57db; stroke: #5f57db; stroke-width: 0.886227"/>
    <path d="M 69.563391 183.857999 
L 69.563391 169.764644 
L 87.372448 169.764644 
L 87.372448 183.857999 
z
" clip-path="url(#pa2ecb76208)" style="fill: #57db5f; stroke: #57db5f; stroke-width: 0.886227"/>
    <path d="M 69.563391 169.764644 
L 69.563391 145.723039 
L 87.372448 145.723039 
L 87.372448 169.764644 
z
" clip-path="url(#pa2ecb76208)" style="fill: #db5f57; stroke: #db5f57; stroke-width: 0.886227"/>
    <path d="M 89.351232 195.464292 
L 89.351232 168.106603 
L 107.16029 168.106603 
L 107.16029 195.464292 
z
" clip-path="url(#pa2ecb76208)" style="fill: #5f57db; stroke: #5f57db; stroke-width: 0.886227"/>
    <path d="M 89.351232 168.106603 
L 89.351232 158.158352 
L 107.16029 158.158352 
L 107.16029 168.106603 
z
" clip-path="url(#pa2ecb76208)" style="fill: #57db5f; stroke: #57db5f; stroke-width: 0.886227"/>
    <path d="M 89.351232 158.158352 
L 89.351232 124.168496 
L 107.16029 124.168496 
L 107.16029 158.158352 
z
" clip-path="url(#pa2ecb76208)" style="fill: #db5f57; stroke: #db5f57; stroke-width: 0.886227"/>
    <path d="M 109.139074 195.464292 
L 109.139074 188.003104 
L 126.948131 188.003104 
L 126.948131 195.464292 
z
" clip-path="url(#pa2ecb76208)" style="fill: #5f57db; stroke: #5f57db; stroke-width: 0.886227"/>
    <path d="M 109.139074 188.003104 
L 109.139074 183.857999 
L 126.948131 183.857999 
L 126.948131 188.003104 
z
" clip-path="url(#pa2ecb76208)" style="fill: #57db5f; stroke: #57db5f; stroke-width: 0.886227"/>
    <path d="M 109.139074 183.857999 
L 109.139074 153.184227 
L 126.948131 153.184227 
L 126.948131 183.857999 
z
" clip-path="url(#pa2ecb76208)" style="fill: #db5f57; stroke: #db5f57; stroke-width: 0.886227"/>
   </g>
  </g>
  <g id="axes_4">
   <g id="patch_5">
    <path d="M 132.436307 199.111983 
L 235.333083 199.111983 
L 235.333083 118.862763 
L 132.436307 118.862763 
z
" style="fill: #ffffff"/>
   </g>
   <g id="matplotlib.axis_7">
    <g id="xtick_16">
     <g id="line2d_41">
      <path d="M 144.309012 199.111983 
L 144.309012 118.862763 
" clip-path="url(#p67e8d16f60)" style="fill: none; stroke: #e5e5e5; stroke-linecap: square"/>
     </g>
     <g id="line2d_42">
      <path d="M 144.309012 199.111983 
" style="fill: none; stroke: #333333; stroke-width: 1.5; stroke-linecap: square"/>
      <g>
       <use xlink:href="#mb5c7148018" x="144.309012" y="199.111983" style="fill: #333333; stroke: #333333"/>
      </g>
     </g>
     <g id="text_14">
      <!-- MT -->
      <g style="fill: #4d4d4d" transform="translate(133.891367 215.1877) rotate(-35) scale(0.08 -0.08)">
       <use xlink:href="#Helvetica-4d"/>
       <use xlink:href="#Helvetica-54" x="83.300781"/>
      </g>
     </g>
    </g>
    <g id="xtick_17">
     <g id="line2d_43">
      <path d="M 164.096854 199.111983 
L 164.096854 118.862763 
" clip-path="url(#p67e8d16f60)" style="fill: none; stroke: #e5e5e5; stroke-linecap: square"/>
     </g>
     <g id="line2d_44">
      <path d="M 164.096854 199.111983 
" style="fill: none; stroke: #333333; stroke-width: 1.5; stroke-linecap: square"/>
      <g>
       <use xlink:href="#mb5c7148018" x="164.096854" y="199.111983" style="fill: #333333; stroke: #333333"/>
      </g>
     </g>
     <g id="text_15">
      <!-- No High. -->
      <g style="fill: #4d4d4d" transform="translate(137.58654 226.430101) rotate(-35) scale(0.08 -0.08)">
       <use xlink:href="#Helvetica-4e"/>
       <use xlink:href="#Helvetica-6f" x="72.216797"/>
       <use xlink:href="#Helvetica-20" x="127.832031"/>
       <use xlink:href="#Helvetica-48" x="155.615234"/>
       <use xlink:href="#Helvetica-69" x="227.832031"/>
       <use xlink:href="#Helvetica-67" x="250.048828"/>
       <use xlink:href="#Helvetica-68" x="305.664062"/>
       <use xlink:href="#Helvetica-2e" x="361.279297"/>
      </g>
     </g>
    </g>
    <g id="xtick_18">
     <g id="line2d_45">
      <path d="M 183.884695 199.111983 
L 183.884695 118.862763 
" clip-path="url(#p67e8d16f60)" style="fill: none; stroke: #e5e5e5; stroke-linecap: square"/>
     </g>
     <g id="line2d_46">
      <path d="M 183.884695 199.111983 
" style="fill: none; stroke: #333333; stroke-width: 1.5; stroke-linecap: square"/>
      <g>
       <use xlink:href="#mb5c7148018" x="183.884695" y="199.111983" style="fill: #333333; stroke: #333333"/>
      </g>
     </g>
     <g id="text_16">
      <!-- Oracle -->
      <g style="fill: #4d4d4d" transform="translate(163.628011 222.07707) rotate(-35) scale(0.08 -0.08)">
       <use xlink:href="#Helvetica-4f"/>
       <use xlink:href="#Helvetica-72" x="77.783203"/>
       <use xlink:href="#Helvetica-61" x="111.083984"/>
       <use xlink:href="#Helvetica-63" x="166.699219"/>
       <use xlink:href="#Helvetica-6c" x="216.699219"/>
       <use xlink:href="#Helvetica-65" x="238.916016"/>
      </g>
     </g>
    </g>
    <g id="xtick_19">
     <g id="line2d_47">
      <path d="M 203.672537 199.111983 
L 203.672537 118.862763 
" clip-path="url(#p67e8d16f60)" style="fill: none; stroke: #e5e5e5; stroke-linecap: square"/>
     </g>
     <g id="line2d_48">
      <path d="M 203.672537 199.111983 
" style="fill: none; stroke: #333333; stroke-width: 1.5; stroke-linecap: square"/>
      <g>
       <use xlink:href="#mb5c7148018" x="203.672537" y="199.111983" style="fill: #333333; stroke: #333333"/>
      </g>
     </g>
     <g id="text_17">
      <!-- Sup. -->
      <g style="fill: #4d4d4d" transform="translate(189.235927 218.129802) rotate(-35) scale(0.08 -0.08)">
       <use xlink:href="#Helvetica-53"/>
       <use xlink:href="#Helvetica-75" x="66.699219"/>
       <use xlink:href="#Helvetica-70" x="122.314453"/>
       <use xlink:href="#Helvetica-2e" x="177.929688"/>
      </g>
     </g>
    </g>
    <g id="xtick_20">
     <g id="line2d_49">
      <path d="M 223.460378 199.111983 
L 223.460378 118.862763 
" clip-path="url(#p67e8d16f60)" style="fill: none; stroke: #e5e5e5; stroke-linecap: square"/>
     </g>
     <g id="line2d_50">
      <path d="M 223.460378 199.111983 
" style="fill: none; stroke: #333333; stroke-width: 1.5; stroke-linecap: square"/>
      <g>
       <use xlink:href="#mb5c7148018" x="223.460378" y="199.111983" style="fill: #333333; stroke: #333333"/>
      </g>
     </g>
     <g id="text_18">
      <!-- Unsup. -->
      <g style="fill: #4d4d4d" transform="translate(201.741507 223.100904) rotate(-35) scale(0.08 -0.08)">
       <use xlink:href="#Helvetica-55"/>
       <use xlink:href="#Helvetica-6e" x="72.216797"/>
       <use xlink:href="#Helvetica-73" x="127.832031"/>
       <use xlink:href="#Helvetica-75" x="177.832031"/>
       <use xlink:href="#Helvetica-70" x="233.447266"/>
       <use xlink:href="#Helvetica-2e" x="289.0625"/>
      </g>
     </g>
    </g>
   </g>
   <g id="matplotlib.axis_8">
    <g id="ytick_25">
     <g id="line2d_51">
      <path d="M 132.436307 195.464292 
L 235.333083 195.464292 
" clip-path="url(#p67e8d16f60)" style="fill: none; stroke: #e5e5e5; stroke-linecap: square"/>
     </g>
    </g>
    <g id="ytick_26">
     <g id="line2d_52">
      <path d="M 132.436307 174.73877 
L 235.333083 174.73877 
" clip-path="url(#p67e8d16f60)" style="fill: none; stroke: #e5e5e5; stroke-linecap: square"/>
     </g>
    </g>
    <g id="ytick_27">
     <g id="line2d_53">
      <path d="M 132.436307 154.013248 
L 235.333083 154.013248 
" clip-path="url(#p67e8d16f60)" style="fill: none; stroke: #e5e5e5; stroke-linecap: square"/>
     </g>
    </g>
    <g id="ytick_28">
     <g id="line2d_54">
      <path d="M 132.436307 133.287726 
L 235.333083 133.287726 
" clip-path="url(#p67e8d16f60)" style="fill: none; stroke: #e5e5e5; stroke-linecap: square"/>
     </g>
    </g>
    <g id="ytick_29"/>
    <g id="ytick_30"/>
    <g id="ytick_31"/>
    <g id="ytick_32"/>
   </g>
   <g id="PolyCollection_4">
    <path d="M 135.404484 195.464292 
L 135.404484 178.054853 
L 153.213541 178.054853 
L 153.213541 195.464292 
z
" clip-path="url(#p67e8d16f60)" style="fill: #5f57db; stroke: #5f57db; stroke-width: 0.886227"/>
    <path d="M 135.404484 178.054853 
L 135.404484 165.61954 
L 153.213541 165.61954 
L 153.213541 178.054853 
z
" clip-path="url(#p67e8d16f60)" style="fill: #57db5f; stroke: #57db5f; stroke-width: 0.886227"/>
    <path d="M 135.404484 165.61954 
L 135.404484 144.064997 
L 153.213541 144.064997 
L 153.213541 165.61954 
z
" clip-path="url(#p67e8d16f60)" style="fill: #db5f57; stroke: #db5f57; stroke-width: 0.886227"/>
    <path d="M 155.192325 195.464292 
L 155.192325 185.516041 
L 173.001382 185.516041 
L 173.001382 195.464292 
z
" clip-path="url(#p67e8d16f60)" style="fill: #5f57db; stroke: #5f57db; stroke-width: 0.886227"/>
    <path d="M 155.192325 185.516041 
L 155.192325 176.396811 
L 173.001382 176.396811 
L 173.001382 185.516041 
z
" clip-path="url(#p67e8d16f60)" style="fill: #57db5f; stroke: #57db5f; stroke-width: 0.886227"/>
    <path d="M 155.192325 176.396811 
L 155.192325 157.329331 
L 173.001382 157.329331 
L 173.001382 176.396811 
z
" clip-path="url(#p67e8d16f60)" style="fill: #db5f57; stroke: #db5f57; stroke-width: 0.886227"/>
    <path d="M 174.980167 195.464292 
L 174.980167 188.003104 
L 192.789224 188.003104 
L 192.789224 195.464292 
z
" clip-path="url(#p67e8d16f60)" style="fill: #5f57db; stroke: #5f57db; stroke-width: 0.886227"/>
    <path d="M 174.980167 188.003104 
L 174.980167 174.73877 
L 192.789224 174.73877 
L 192.789224 188.003104 
z
" clip-path="url(#p67e8d16f60)" style="fill: #57db5f; stroke: #57db5f; stroke-width: 0.886227"/>
    <path d="M 174.980167 174.73877 
L 174.980167 147.381081 
L 192.789224 147.381081 
L 192.789224 174.73877 
z
" clip-path="url(#p67e8d16f60)" style="fill: #db5f57; stroke: #db5f57; stroke-width: 0.886227"/>
    <path d="M 194.768008 195.464292 
L 194.768008 174.73877 
L 212.577066 174.73877 
L 212.577066 195.464292 
z
" clip-path="url(#p67e8d16f60)" style="fill: #5f57db; stroke: #5f57db; stroke-width: 0.886227"/>
    <path d="M 194.768008 174.73877 
L 194.768008 168.935623 
L 212.577066 168.935623 
L 212.577066 174.73877 
z
" clip-path="url(#p67e8d16f60)" style="fill: #57db5f; stroke: #57db5f; stroke-width: 0.886227"/>
    <path d="M 194.768008 168.935623 
L 194.768008 154.842269 
L 212.577066 154.842269 
L 212.577066 168.935623 
z
" clip-path="url(#p67e8d16f60)" style="fill: #db5f57; stroke: #db5f57; stroke-width: 0.886227"/>
    <path d="M 214.55585 195.464292 
L 214.55585 186.345062 
L 232.364907 186.345062 
L 232.364907 195.464292 
z
" clip-path="url(#p67e8d16f60)" style="fill: #5f57db; stroke: #5f57db; stroke-width: 0.886227"/>
    <path d="M 214.55585 186.345062 
L 214.55585 181.370937 
L 232.364907 181.370937 
L 232.364907 186.345062 
z
" clip-path="url(#p67e8d16f60)" style="fill: #57db5f; stroke: #57db5f; stroke-width: 0.886227"/>
    <path d="M 214.55585 181.370937 
L 214.55585 167.277582 
L 232.364907 167.277582 
L 232.364907 181.370937 
z
" clip-path="url(#p67e8d16f60)" style="fill: #db5f57; stroke: #db5f57; stroke-width: 0.886227"/>
   </g>
  </g>
  <g id="patch_6">
   <path d="M 27.019531 116.342763 
L 129.916307 116.342763 
L 129.916307 36.093542 
L 27.019531 36.093542 
L 27.019531 116.342763 
z
" style="fill: none; stroke: #7f7f7f; stroke-linejoin: miter"/>
  </g>
  <g id="patch_7">
   <path d="M 132.436307 116.342763 
L 235.333083 116.342763 
L 235.333083 36.093542 
L 132.436307 36.093542 
L 132.436307 116.342763 
z
" style="fill: none; stroke: #7f7f7f; stroke-linejoin: miter"/>
  </g>
  <g id="patch_8">
   <path d="M 27.019531 199.111983 
L 129.916307 199.111983 
L 129.916307 118.862763 
L 27.019531 118.862763 
L 27.019531 199.111983 
z
" style="fill: none; stroke: #7f7f7f; stroke-linejoin: miter"/>
  </g>
  <g id="patch_9">
   <path d="M 132.436307 199.111983 
L 235.333083 199.111983 
L 235.333083 118.862763 
L 132.436307 118.862763 
L 132.436307 199.111983 
z
" style="fill: none; stroke: #7f7f7f; stroke-linejoin: miter"/>
  </g>
  <g id="text_19">
   <!-- Count -->
   <g transform="translate(8.976094 129.610028) rotate(-90) scale(0.09 -0.09)">
    <defs>
     <path id="Helvetica-43" d="M 2422 4716 
Q 3294 4716 3775 4256 
Q 4256 3797 4309 3213 
L 3703 3213 
Q 3600 3656 3292 3915 
Q 2984 4175 2428 4175 
Q 1750 4175 1333 3698 
Q 916 3222 916 2238 
Q 916 1431 1292 929 
Q 1669 428 2416 428 
Q 3103 428 3463 956 
Q 3653 1234 3747 1688 
L 4353 1688 
Q 4272 963 3816 472 
Q 3269 -119 2341 -119 
Q 1541 -119 997 366 
Q 281 1006 281 2344 
Q 281 3359 819 4009 
Q 1400 4716 2422 4716 
z
M 2297 4716 
L 2297 4716 
z
" transform="scale(0.015625)"/>
     <path id="Helvetica-74" d="M 525 4281 
L 1094 4281 
L 1094 3347 
L 1628 3347 
L 1628 2888 
L 1094 2888 
L 1094 703 
Q 1094 528 1213 469 
Q 1278 434 1431 434 
Q 1472 434 1519 436 
Q 1566 438 1628 444 
L 1628 0 
Q 1531 -28 1426 -40 
Q 1322 -53 1200 -53 
Q 806 -53 665 148 
Q 525 350 525 672 
L 525 2888 
L 72 2888 
L 72 3347 
L 525 3347 
L 525 4281 
z
" transform="scale(0.015625)"/>
    </defs>
    <use xlink:href="#Helvetica-43"/>
    <use xlink:href="#Helvetica-6f" x="72.216797"/>
    <use xlink:href="#Helvetica-75" x="127.832031"/>
    <use xlink:href="#Helvetica-6e" x="183.447266"/>
    <use xlink:href="#Helvetica-74" x="239.0625"/>
   </g>
  </g>
  <g id="patch_10">
   <path d="M 27.019531 36.093542 
L 129.916307 36.093542 
L 129.916307 22.08 
L 27.019531 22.08 
z
" style="fill: #cccccc; stroke: #7f7f7f; stroke-linejoin: miter"/>
  </g>
  <g id="text_20">
   <!-- Biomedical -->
   <g style="fill: #1a1a1a" transform="translate(56.947794 32.243083) scale(0.088 -0.088)">
    <defs>
     <path id="Helvetica-42" d="M 2213 2650 
Q 2606 2650 2825 2759 
Q 3169 2931 3169 3378 
Q 3169 3828 2803 3984 
Q 2597 4072 2191 4072 
L 1081 4072 
L 1081 2650 
L 2213 2650 
z
M 2422 531 
Q 2994 531 3238 863 
Q 3391 1072 3391 1369 
Q 3391 1869 2944 2050 
Q 2706 2147 2316 2147 
L 1081 2147 
L 1081 531 
L 2422 531 
z
M 472 4591 
L 2444 4591 
Q 3250 4591 3591 4109 
Q 3791 3825 3791 3453 
Q 3791 3019 3544 2741 
Q 3416 2594 3175 2472 
Q 3528 2338 3703 2169 
Q 4013 1869 4013 1341 
Q 4013 897 3734 538 
Q 3319 0 2413 0 
L 472 0 
L 472 4591 
z
" transform="scale(0.015625)"/>
     <path id="Helvetica-6d" d="M 413 3347 
L 969 3347 
L 969 2872 
Q 1169 3119 1331 3231 
Q 1609 3422 1963 3422 
Q 2363 3422 2606 3225 
Q 2744 3113 2856 2894 
Q 3044 3163 3297 3292 
Q 3550 3422 3866 3422 
Q 4541 3422 4784 2934 
Q 4916 2672 4916 2228 
L 4916 0 
L 4331 0 
L 4331 2325 
Q 4331 2659 4164 2784 
Q 3997 2909 3756 2909 
Q 3425 2909 3186 2687 
Q 2947 2466 2947 1947 
L 2947 0 
L 2375 0 
L 2375 2184 
Q 2375 2525 2294 2681 
Q 2166 2916 1816 2916 
Q 1497 2916 1236 2669 
Q 975 2422 975 1775 
L 975 0 
L 413 0 
L 413 3347 
z
" transform="scale(0.015625)"/>
     <path id="Helvetica-64" d="M 769 1634 
Q 769 1097 997 734 
Q 1225 372 1728 372 
Q 2119 372 2370 708 
Q 2622 1044 2622 1672 
Q 2622 2306 2362 2611 
Q 2103 2916 1722 2916 
Q 1297 2916 1033 2591 
Q 769 2266 769 1634 
z
M 1616 3406 
Q 2000 3406 2259 3244 
Q 2409 3150 2600 2916 
L 2600 4606 
L 3141 4606 
L 3141 0 
L 2634 0 
L 2634 466 
Q 2438 156 2169 18 
Q 1900 -119 1553 -119 
Q 994 -119 584 351 
Q 175 822 175 1603 
Q 175 2334 548 2870 
Q 922 3406 1616 3406 
z
" transform="scale(0.015625)"/>
    </defs>
    <use xlink:href="#Helvetica-42"/>
    <use xlink:href="#Helvetica-69" x="66.699219"/>
    <use xlink:href="#Helvetica-6f" x="88.916016"/>
    <use xlink:href="#Helvetica-6d" x="144.53125"/>
    <use xlink:href="#Helvetica-65" x="227.832031"/>
    <use xlink:href="#Helvetica-64" x="283.447266"/>
    <use xlink:href="#Helvetica-69" x="339.0625"/>
    <use xlink:href="#Helvetica-63" x="361.279297"/>
    <use xlink:href="#Helvetica-61" x="411.279297"/>
    <use xlink:href="#Helvetica-6c" x="466.894531"/>
   </g>
  </g>
  <g id="patch_11">
   <path d="M 132.436307 36.093542 
L 235.333083 36.093542 
L 235.333083 22.08 
L 132.436307 22.08 
z
" style="fill: #cccccc; stroke: #7f7f7f; stroke-linejoin: miter"/>
  </g>
  <g id="text_21">
   <!-- Social Media -->
   <g style="fill: #1a1a1a" transform="translate(158.695383 32.243083) scale(0.088 -0.088)">
    <use xlink:href="#Helvetica-53"/>
    <use xlink:href="#Helvetica-6f" x="66.699219"/>
    <use xlink:href="#Helvetica-63" x="122.314453"/>
    <use xlink:href="#Helvetica-69" x="172.314453"/>
    <use xlink:href="#Helvetica-61" x="194.53125"/>
    <use xlink:href="#Helvetica-6c" x="250.146484"/>
    <use xlink:href="#Helvetica-20" x="272.363281"/>
    <use xlink:href="#Helvetica-4d" x="300.146484"/>
    <use xlink:href="#Helvetica-65" x="383.447266"/>
    <use xlink:href="#Helvetica-64" x="439.0625"/>
    <use xlink:href="#Helvetica-69" x="494.677734"/>
    <use xlink:href="#Helvetica-61" x="516.894531"/>
   </g>
  </g>
  <g id="patch_12">
   <path d="M 235.333083 116.342763 
L 249.48 116.342763 
L 249.48 36.093542 
L 235.333083 36.093542 
z
" style="fill: #cccccc; stroke: #7f7f7f; stroke-linejoin: miter"/>
  </g>
  <g id="text_22">
   <!-- English - Italian -->
   <g style="fill: #1a1a1a" transform="translate(239.239917 46.137277) rotate(-270) scale(0.088 -0.088)">
    <defs>
     <path id="Helvetica-45" d="M 547 4591 
L 3894 4591 
L 3894 4028 
L 1153 4028 
L 1153 2634 
L 3688 2634 
L 3688 2103 
L 1153 2103 
L 1153 547 
L 3941 547 
L 3941 0 
L 547 0 
L 547 4591 
z
M 2244 4591 
L 2244 4591 
z
" transform="scale(0.015625)"/>
     <path id="Helvetica-2d" d="M 266 2072 
L 1834 2072 
L 1834 1494 
L 266 1494 
L 266 2072 
z
" transform="scale(0.015625)"/>
     <path id="Helvetica-49" d="M 628 4591 
L 1256 4591 
L 1256 0 
L 628 0 
L 628 4591 
z
" transform="scale(0.015625)"/>
    </defs>
    <use xlink:href="#Helvetica-45"/>
    <use xlink:href="#Helvetica-6e" x="66.699219"/>
    <use xlink:href="#Helvetica-67" x="122.314453"/>
    <use xlink:href="#Helvetica-6c" x="177.929688"/>
    <use xlink:href="#Helvetica-69" x="200.146484"/>
    <use xlink:href="#Helvetica-73" x="222.363281"/>
    <use xlink:href="#Helvetica-68" x="272.363281"/>
    <use xlink:href="#Helvetica-20" x="327.978516"/>
    <use xlink:href="#Helvetica-2d" x="355.761719"/>
    <use xlink:href="#Helvetica-20" x="389.0625"/>
    <use xlink:href="#Helvetica-49" x="416.845703"/>
    <use xlink:href="#Helvetica-74" x="444.628906"/>
    <use xlink:href="#Helvetica-61" x="472.412109"/>
    <use xlink:href="#Helvetica-6c" x="528.027344"/>
    <use xlink:href="#Helvetica-69" x="550.244141"/>
    <use xlink:href="#Helvetica-61" x="572.460938"/>
    <use xlink:href="#Helvetica-6e" x="628.076172"/>
   </g>
  </g>
  <g id="patch_13">
   <path d="M 235.333083 199.111983 
L 249.48 199.111983 
L 249.48 118.862763 
L 235.333083 118.862763 
z
" style="fill: #cccccc; stroke: #7f7f7f; stroke-linejoin: miter"/>
  </g>
  <g id="text_23">
   <!-- English - Dutch -->
   <g style="fill: #1a1a1a" transform="translate(239.239917 129.15331) rotate(-270) scale(0.088 -0.088)">
    <defs>
     <path id="Helvetica-44" d="M 2250 531 
Q 2566 531 2769 597 
Q 3131 719 3363 1066 
Q 3547 1344 3628 1778 
Q 3675 2038 3675 2259 
Q 3675 3113 3336 3584 
Q 2997 4056 2244 4056 
L 1141 4056 
L 1141 531 
L 2250 531 
z
M 516 4591 
L 2375 4591 
Q 3322 4591 3844 3919 
Q 4309 3313 4309 2366 
Q 4309 1634 4034 1044 
Q 3550 0 2369 0 
L 516 0 
L 516 4591 
z
" transform="scale(0.015625)"/>
    </defs>
    <use xlink:href="#Helvetica-45"/>
    <use xlink:href="#Helvetica-6e" x="66.699219"/>
    <use xlink:href="#Helvetica-67" x="122.314453"/>
    <use xlink:href="#Helvetica-6c" x="177.929688"/>
    <use xlink:href="#Helvetica-69" x="200.146484"/>
    <use xlink:href="#Helvetica-73" x="222.363281"/>
    <use xlink:href="#Helvetica-68" x="272.363281"/>
    <use xlink:href="#Helvetica-20" x="327.978516"/>
    <use xlink:href="#Helvetica-2d" x="355.761719"/>
    <use xlink:href="#Helvetica-20" x="389.0625"/>
    <use xlink:href="#Helvetica-44" x="416.845703"/>
    <use xlink:href="#Helvetica-75" x="489.0625"/>
    <use xlink:href="#Helvetica-74" x="544.677734"/>
    <use xlink:href="#Helvetica-63" x="572.460938"/>
    <use xlink:href="#Helvetica-68" x="622.460938"/>
   </g>
  </g>
  <g id="patch_14">
   <path d="M 60.654432 14.52 
L 201.698182 14.52 
L 201.698182 2.52 
L 60.654432 2.52 
z
" style="fill: #ffffff"/>
  </g>
  <g id="patch_15">
   <path d="M 62.654432 12.52 
L 70.654432 12.52 
L 70.654432 4.52 
L 62.654432 4.52 
L 62.654432 12.52 
z
" clip-path="url(#p7bbfaab95d)" style="fill: none; stroke: #cccccc; stroke-linejoin: miter"/>
  </g>
  <g id="patch_16">
   <path d="M 62.097546 13.076887 
L 71.211319 13.076887 
L 71.211319 3.963113 
L 62.097546 3.963113 
z
" clip-path="url(#p7bbfaab95d)" style="fill: #db5f57; stroke: #db5f57; stroke-width: 0.886227; stroke-linejoin: miter; stroke-linecap: square"/>
  </g>
  <g id="text_24">
   <!-- Accuracy -->
   <g transform="translate(73.190432 10.733063) scale(0.088 -0.088)">
    <defs>
     <path id="Helvetica-41" d="M 2844 1881 
L 2147 3909 
L 1406 1881 
L 2844 1881 
z
M 1822 4591 
L 2525 4591 
L 4191 0 
L 3509 0 
L 3044 1375 
L 1228 1375 
L 731 0 
L 94 0 
L 1822 4591 
z
" transform="scale(0.015625)"/>
     <path id="Helvetica-79" d="M 2503 3347 
L 3125 3347 
Q 3006 3025 2597 1878 
Q 2291 1016 2084 472 
Q 1597 -809 1397 -1090 
Q 1197 -1372 709 -1372 
Q 591 -1372 527 -1362 
Q 463 -1353 369 -1328 
L 369 -816 
Q 516 -856 581 -865 
Q 647 -875 697 -875 
Q 853 -875 926 -823 
Q 1000 -772 1050 -697 
Q 1066 -672 1162 -440 
Q 1259 -209 1303 -97 
L 66 3347 
L 703 3347 
L 1600 622 
L 2503 3347 
z
M 1597 3428 
L 1597 3428 
z
" transform="scale(0.015625)"/>
    </defs>
    <use xlink:href="#Helvetica-41"/>
    <use xlink:href="#Helvetica-63" x="66.699219"/>
    <use xlink:href="#Helvetica-63" x="116.699219"/>
    <use xlink:href="#Helvetica-75" x="166.699219"/>
    <use xlink:href="#Helvetica-72" x="222.314453"/>
    <use xlink:href="#Helvetica-61" x="255.615234"/>
    <use xlink:href="#Helvetica-63" x="311.230469"/>
    <use xlink:href="#Helvetica-79" x="361.230469"/>
   </g>
  </g>
  <g id="patch_17">
   <path d="M 116.377682 12.52 
L 124.377682 12.52 
L 124.377682 4.52 
L 116.377682 4.52 
L 116.377682 12.52 
z
" clip-path="url(#pfaa0e38f05)" style="fill: none; stroke: #cccccc; stroke-linejoin: miter"/>
  </g>
  <g id="patch_18">
   <path d="M 115.820796 13.076887 
L 124.934569 13.076887 
L 124.934569 3.963113 
L 115.820796 3.963113 
z
" clip-path="url(#pfaa0e38f05)" style="fill: #57db5f; stroke: #57db5f; stroke-width: 0.886227; stroke-linejoin: miter; stroke-linecap: square"/>
  </g>
  <g id="text_25">
   <!-- Linguistic -->
   <g transform="translate(126.913682 10.702813) scale(0.088 -0.088)">
    <defs>
     <path id="Helvetica-4c" d="M 488 4591 
L 1109 4591 
L 1109 547 
L 3434 547 
L 3434 0 
L 488 0 
L 488 4591 
z
" transform="scale(0.015625)"/>
    </defs>
    <use xlink:href="#Helvetica-4c"/>
    <use xlink:href="#Helvetica-69" x="55.615234"/>
    <use xlink:href="#Helvetica-6e" x="77.832031"/>
    <use xlink:href="#Helvetica-67" x="133.447266"/>
    <use xlink:href="#Helvetica-75" x="189.0625"/>
    <use xlink:href="#Helvetica-69" x="244.677734"/>
    <use xlink:href="#Helvetica-73" x="266.894531"/>
    <use xlink:href="#Helvetica-74" x="316.894531"/>
    <use xlink:href="#Helvetica-69" x="344.677734"/>
    <use xlink:href="#Helvetica-63" x="366.894531"/>
   </g>
  </g>
  <g id="patch_19">
   <path d="M 170.598682 12.52 
L 178.598682 12.52 
L 178.598682 4.52 
L 170.598682 4.52 
L 170.598682 12.52 
z
" clip-path="url(#p0ab7e21bc1)" style="fill: none; stroke: #cccccc; stroke-linejoin: miter"/>
  </g>
  <g id="patch_20">
   <path d="M 170.041796 13.076887 
L 179.155569 13.076887 
L 179.155569 3.963113 
L 170.041796 3.963113 
z
" clip-path="url(#p0ab7e21bc1)" style="fill: #5f57db; stroke: #5f57db; stroke-width: 0.886227; stroke-linejoin: miter; stroke-linecap: square"/>
  </g>
  <g id="text_26">
   <!-- Style -->
   <g transform="translate(181.134682 10.819) scale(0.088 -0.088)">
    <use xlink:href="#Helvetica-53"/>
    <use xlink:href="#Helvetica-74" x="66.699219"/>
    <use xlink:href="#Helvetica-79" x="94.482422"/>
    <use xlink:href="#Helvetica-6c" x="144.482422"/>
    <use xlink:href="#Helvetica-65" x="166.699219"/>
   </g>
  </g>
 </g>
 <defs>
  <clipPath id="p33e23c5783">
   <rect x="27.019531" y="36.093542" width="102.896776" height="80.249221"/>
  </clipPath>
  <clipPath id="p27323e5239">
   <rect x="132.436307" y="36.093542" width="102.896776" height="80.249221"/>
  </clipPath>
  <clipPath id="pa2ecb76208">
   <rect x="27.019531" y="118.862763" width="102.896776" height="80.249221"/>
  </clipPath>
  <clipPath id="p67e8d16f60">
   <rect x="132.436307" y="118.862763" width="102.896776" height="80.249221"/>
  </clipPath>
  <clipPath id="p7bbfaab95d">
   <path d="M 61.654432 13.52 
L 61.654432 3.52 
L 71.654432 3.52 
L 71.654432 13.52 
"/>
  </clipPath>
  <clipPath id="pfaa0e38f05">
   <path d="M 115.377682 13.52 
L 115.377682 3.52 
L 125.377682 3.52 
L 125.377682 13.52 
"/>
  </clipPath>
  <clipPath id="p0ab7e21bc1">
   <path d="M 169.598682 13.52 
L 169.598682 3.52 
L 179.598682 3.52 
L 179.598682 13.52 
"/>
  </clipPath>
 </defs>
</svg>
