<?xml version="1.0" encoding="utf-8" standalone="no"?>
<!DOCTYPE svg PUBLIC "-//W3C//DTD SVG 1.1//EN"
  "http://www.w3.org/Graphics/SVG/1.1/DTD/svg11.dtd">
<svg xmlns:xlink="http://www.w3.org/1999/xlink" width="180pt" height="216pt" viewBox="0 0 180 216" xmlns="http://www.w3.org/2000/svg" version="1.1">
 <metadata>
  <rdf:RDF xmlns:dc="http://purl.org/dc/elements/1.1/" xmlns:cc="http://creativecommons.org/ns#" xmlns:rdf="http://www.w3.org/1999/02/22-rdf-syntax-ns#">
   <cc:Work>
    <dc:type rdf:resource="http://purl.org/dc/dcmitype/StillImage"/>
    <dc:date>2025-02-19T10:41:50.004196</dc:date>
    <dc:format>image/svg+xml</dc:format>
    <dc:creator>
     <cc:Agent>
      <dc:title>Matplotlib v3.8.2, https://matplotlib.org/</dc:title>
     </cc:Agent>
    </dc:creator>
   </cc:Work>
  </rdf:RDF>
 </metadata>
 <defs>
  <style type="text/css">*{stroke-linejoin: round; stroke-linecap: butt}</style>
 </defs>
 <g id="figure_1">
  <g id="patch_1">
   <path d="M 0 216 
L 180 216 
L 180 0 
L 0 0 
z
" style="fill: #ffffff; stroke: #ffffff; stroke-linejoin: miter"/>
  </g>
  <g id="axes_1">
   <g id="patch_2">
    <path d="M 34.477031 196.045907 
L 178.2 196.045907 
L 178.2 19.2 
L 34.477031 19.2 
z
" style="fill: #ffffff"/>
   </g>
   <g id="matplotlib.axis_1">
    <g id="xtick_1">
     <g id="line2d_1">
      <path d="M 73.674205 196.045907 
L 73.674205 19.2 
" clip-path="url(#p288634449a)" style="fill: none; stroke: #e5e5e5; stroke-linecap: square"/>
     </g>
     <g id="line2d_2">
      <path d="M 73.674205 196.045907 
" style="fill: none; stroke: #333333; stroke-width: 1.5; stroke-linecap: square"/>
      <defs>
       <path id="m5af0654b42" d="M 0 0 
L 0 2.75 
" style="stroke: #333333"/>
      </defs>
      <g>
       <use xlink:href="#m5af0654b42" x="73.674205" y="196.045907" style="fill: #333333; stroke: #333333"/>
      </g>
     </g>
     <g id="text_1">
      <!-- MT -->
      <g style="fill: #4d4d4d" transform="translate(64.328021 213.020899) rotate(-45) scale(0.08 -0.08)">
       <defs>
        <path id="Helvetica-4d" d="M 472 4591 
L 1363 4591 
L 2681 709 
L 3991 4591 
L 4872 4591 
L 4872 0 
L 4281 0 
L 4281 2709 
Q 4281 2850 4287 3175 
Q 4294 3500 4294 3872 
L 2984 0 
L 2369 0 
L 1050 3872 
L 1050 3731 
Q 1050 3563 1058 3217 
Q 1066 2872 1066 2709 
L 1066 0 
L 472 0 
L 472 4591 
z
" transform="scale(0.015625)"/>
        <path id="Helvetica-54" d="M 3828 4591 
L 3828 4044 
L 2281 4044 
L 2281 0 
L 1650 0 
L 1650 4044 
L 103 4044 
L 103 4591 
L 3828 4591 
z
" transform="scale(0.015625)"/>
       </defs>
       <use xlink:href="#Helvetica-4d"/>
       <use xlink:href="#Helvetica-54" x="83.300781"/>
      </g>
     </g>
    </g>
    <g id="xtick_2">
     <g id="line2d_3">
      <path d="M 139.002827 196.045907 
L 139.002827 19.2 
" clip-path="url(#p288634449a)" style="fill: none; stroke: #e5e5e5; stroke-linecap: square"/>
     </g>
     <g id="line2d_4">
      <path d="M 139.002827 196.045907 
" style="fill: none; stroke: #333333; stroke-width: 1.5; stroke-linecap: square"/>
      <g>
       <use xlink:href="#m5af0654b42" x="139.002827" y="196.045907" style="fill: #333333; stroke: #333333"/>
      </g>
     </g>
     <g id="text_2">
      <!-- PE -->
      <g style="fill: #4d4d4d" transform="translate(130.277129 212.400413) rotate(-45) scale(0.08 -0.08)">
       <defs>
        <path id="Helvetica-50" d="M 547 4591 
L 2613 4591 
Q 3225 4591 3600 4245 
Q 3975 3900 3975 3275 
Q 3975 2738 3640 2339 
Q 3306 1941 2613 1941 
L 1169 1941 
L 1169 0 
L 547 0 
L 547 4591 
z
M 3347 3272 
Q 3347 3778 2972 3959 
Q 2766 4056 2406 4056 
L 1169 4056 
L 1169 2466 
L 2406 2466 
Q 2825 2466 3086 2644 
Q 3347 2822 3347 3272 
z
" transform="scale(0.015625)"/>
        <path id="Helvetica-45" d="M 547 4591 
L 3894 4591 
L 3894 4028 
L 1153 4028 
L 1153 2634 
L 3688 2634 
L 3688 2103 
L 1153 2103 
L 1153 547 
L 3941 547 
L 3941 0 
L 547 0 
L 547 4591 
z
M 2244 4591 
L 2244 4591 
z
" transform="scale(0.015625)"/>
       </defs>
       <use xlink:href="#Helvetica-50"/>
       <use xlink:href="#Helvetica-45" x="66.699219"/>
      </g>
     </g>
    </g>
   </g>
   <g id="matplotlib.axis_2">
    <g id="ytick_1">
     <g id="line2d_5">
      <path d="M 34.477031 188.007457 
L 178.2 188.007457 
" clip-path="url(#p288634449a)" style="fill: none; stroke: #e5e5e5; stroke-linecap: square"/>
     </g>
     <g id="line2d_6">
      <path d="M 34.477031 188.007457 
" style="fill: none; stroke: #333333; stroke-width: 1.5; stroke-linecap: square"/>
      <defs>
       <path id="mad9317dde2" d="M 0 0 
L -2.75 0 
" style="stroke: #333333"/>
      </defs>
      <g>
       <use xlink:href="#mad9317dde2" x="34.477031" y="188.007457" style="fill: #333333; stroke: #333333"/>
      </g>
     </g>
     <g id="text_3">
      <!-- 0 -->
      <g style="fill: #4d4d4d" transform="translate(25.278281 190.876832) scale(0.08 -0.08)">
       <defs>
        <path id="Helvetica-30" d="M 1731 4475 
Q 2600 4475 2988 3759 
Q 3288 3206 3288 2244 
Q 3288 1331 3016 734 
Q 2622 -122 1728 -122 
Q 922 -122 528 578 
Q 200 1163 200 2147 
Q 200 2909 397 3456 
Q 766 4475 1731 4475 
z
M 1725 391 
Q 2163 391 2422 778 
Q 2681 1166 2681 2222 
Q 2681 2984 2493 3476 
Q 2306 3969 1766 3969 
Q 1269 3969 1039 3501 
Q 809 3034 809 2125 
Q 809 1441 956 1025 
Q 1181 391 1725 391 
z
" transform="scale(0.015625)"/>
       </defs>
       <use xlink:href="#Helvetica-30"/>
      </g>
     </g>
    </g>
    <g id="ytick_2">
     <g id="line2d_7">
      <path d="M 34.477031 146.572146 
L 178.2 146.572146 
" clip-path="url(#p288634449a)" style="fill: none; stroke: #e5e5e5; stroke-linecap: square"/>
     </g>
     <g id="line2d_8">
      <path d="M 34.477031 146.572146 
" style="fill: none; stroke: #333333; stroke-width: 1.5; stroke-linecap: square"/>
      <g>
       <use xlink:href="#mad9317dde2" x="34.477031" y="146.572146" style="fill: #333333; stroke: #333333"/>
      </g>
     </g>
     <g id="text_4">
      <!-- 300 -->
      <g style="fill: #4d4d4d" transform="translate(16.380781 149.441521) scale(0.08 -0.08)">
       <defs>
        <path id="Helvetica-33" d="M 1663 -122 
Q 869 -122 511 314 
Q 153 750 153 1375 
L 741 1375 
Q 778 941 903 744 
Q 1122 391 1694 391 
Q 2138 391 2406 628 
Q 2675 866 2675 1241 
Q 2675 1703 2392 1887 
Q 2109 2072 1606 2072 
Q 1550 2072 1492 2070 
Q 1434 2069 1375 2066 
L 1375 2563 
Q 1463 2553 1522 2550 
Q 1581 2547 1650 2547 
Q 1966 2547 2169 2647 
Q 2525 2822 2525 3272 
Q 2525 3606 2287 3787 
Q 2050 3969 1734 3969 
Q 1172 3969 956 3594 
Q 838 3388 822 3006 
L 266 3006 
Q 266 3506 466 3856 
Q 809 4481 1675 4481 
Q 2359 4481 2734 4176 
Q 3109 3872 3109 3294 
Q 3109 2881 2888 2625 
Q 2750 2466 2531 2375 
Q 2884 2278 3082 2001 
Q 3281 1725 3281 1325 
Q 3281 684 2859 281 
Q 2438 -122 1663 -122 
z
" transform="scale(0.015625)"/>
       </defs>
       <use xlink:href="#Helvetica-33"/>
       <use xlink:href="#Helvetica-30" x="55.615234"/>
       <use xlink:href="#Helvetica-30" x="111.230469"/>
      </g>
     </g>
    </g>
    <g id="ytick_3">
     <g id="line2d_9">
      <path d="M 34.477031 105.136835 
L 178.2 105.136835 
" clip-path="url(#p288634449a)" style="fill: none; stroke: #e5e5e5; stroke-linecap: square"/>
     </g>
     <g id="line2d_10">
      <path d="M 34.477031 105.136835 
" style="fill: none; stroke: #333333; stroke-width: 1.5; stroke-linecap: square"/>
      <g>
       <use xlink:href="#mad9317dde2" x="34.477031" y="105.136835" style="fill: #333333; stroke: #333333"/>
      </g>
     </g>
     <g id="text_5">
      <!-- 600 -->
      <g style="fill: #4d4d4d" transform="translate(16.380781 108.00621) scale(0.08 -0.08)">
       <defs>
        <path id="Helvetica-36" d="M 1872 4494 
Q 2622 4494 2917 4105 
Q 3213 3716 3213 3303 
L 2656 3303 
Q 2606 3569 2497 3719 
Q 2294 4000 1881 4000 
Q 1409 4000 1131 3564 
Q 853 3128 822 2316 
Q 1016 2600 1309 2741 
Q 1578 2866 1909 2866 
Q 2472 2866 2890 2506 
Q 3309 2147 3309 1434 
Q 3309 825 2912 354 
Q 2516 -116 1781 -116 
Q 1153 -116 697 361 
Q 241 838 241 1966 
Q 241 2800 444 3381 
Q 834 4494 1872 4494 
z
M 1831 384 
Q 2275 384 2495 682 
Q 2716 981 2716 1388 
Q 2716 1731 2519 2042 
Q 2322 2353 1803 2353 
Q 1441 2353 1167 2112 
Q 894 1872 894 1388 
Q 894 963 1142 673 
Q 1391 384 1831 384 
z
" transform="scale(0.015625)"/>
       </defs>
       <use xlink:href="#Helvetica-36"/>
       <use xlink:href="#Helvetica-30" x="55.615234"/>
       <use xlink:href="#Helvetica-30" x="111.230469"/>
      </g>
     </g>
    </g>
    <g id="ytick_4">
     <g id="line2d_11">
      <path d="M 34.477031 63.701524 
L 178.2 63.701524 
" clip-path="url(#p288634449a)" style="fill: none; stroke: #e5e5e5; stroke-linecap: square"/>
     </g>
     <g id="line2d_12">
      <path d="M 34.477031 63.701524 
" style="fill: none; stroke: #333333; stroke-width: 1.5; stroke-linecap: square"/>
      <g>
       <use xlink:href="#mad9317dde2" x="34.477031" y="63.701524" style="fill: #333333; stroke: #333333"/>
      </g>
     </g>
     <g id="text_6">
      <!-- 900 -->
      <g style="fill: #4d4d4d" transform="translate(16.380781 66.570899) scale(0.08 -0.08)">
       <defs>
        <path id="Helvetica-39" d="M 850 1081 
Q 875 616 1209 438 
Q 1381 344 1597 344 
Q 2000 344 2284 680 
Q 2569 1016 2688 2044 
Q 2500 1747 2223 1626 
Q 1947 1506 1628 1506 
Q 981 1506 604 1909 
Q 228 2313 228 2947 
Q 228 3556 600 4018 
Q 972 4481 1697 4481 
Q 2675 4481 3047 3600 
Q 3253 3116 3253 2388 
Q 3253 1566 3006 931 
Q 2597 -125 1619 -125 
Q 963 -125 622 219 
Q 281 563 281 1081 
L 850 1081 
z
M 1703 2000 
Q 2038 2000 2314 2220 
Q 2591 2441 2591 2991 
Q 2591 3484 2342 3726 
Q 2094 3969 1709 3969 
Q 1297 3969 1055 3692 
Q 813 3416 813 2953 
Q 813 2516 1025 2258 
Q 1238 2000 1703 2000 
z
" transform="scale(0.015625)"/>
       </defs>
       <use xlink:href="#Helvetica-39"/>
       <use xlink:href="#Helvetica-30" x="55.615234"/>
       <use xlink:href="#Helvetica-30" x="111.230469"/>
      </g>
     </g>
    </g>
    <g id="ytick_5">
     <g id="line2d_13">
      <path d="M 34.477031 22.266213 
L 178.2 22.266213 
" clip-path="url(#p288634449a)" style="fill: none; stroke: #e5e5e5; stroke-linecap: square"/>
     </g>
     <g id="line2d_14">
      <path d="M 34.477031 22.266213 
" style="fill: none; stroke: #333333; stroke-width: 1.5; stroke-linecap: square"/>
      <g>
       <use xlink:href="#mad9317dde2" x="34.477031" y="22.266213" style="fill: #333333; stroke: #333333"/>
      </g>
     </g>
     <g id="text_7">
      <!-- 1200 -->
      <g style="fill: #4d4d4d" transform="translate(11.932031 25.135588) scale(0.08 -0.08)">
       <defs>
        <path id="Helvetica-31" d="M 613 3169 
L 613 3600 
Q 1222 3659 1462 3798 
Q 1703 3938 1822 4456 
L 2266 4456 
L 2266 0 
L 1666 0 
L 1666 3169 
L 613 3169 
z
" transform="scale(0.015625)"/>
        <path id="Helvetica-32" d="M 200 0 
Q 231 578 439 1006 
Q 647 1434 1250 1784 
L 1850 2131 
Q 2253 2366 2416 2531 
Q 2672 2791 2672 3125 
Q 2672 3516 2437 3745 
Q 2203 3975 1813 3975 
Q 1234 3975 1013 3538 
Q 894 3303 881 2888 
L 309 2888 
Q 319 3472 525 3841 
Q 891 4491 1816 4491 
Q 2584 4491 2939 4075 
Q 3294 3659 3294 3150 
Q 3294 2613 2916 2231 
Q 2697 2009 2131 1694 
L 1703 1456 
Q 1397 1288 1222 1134 
Q 909 863 828 531 
L 3272 531 
L 3272 0 
L 200 0 
z
" transform="scale(0.015625)"/>
       </defs>
       <use xlink:href="#Helvetica-31"/>
       <use xlink:href="#Helvetica-32" x="55.615234"/>
       <use xlink:href="#Helvetica-30" x="111.230469"/>
       <use xlink:href="#Helvetica-30" x="166.845703"/>
      </g>
     </g>
    </g>
    <g id="ytick_6"/>
    <g id="ytick_7"/>
    <g id="ytick_8"/>
    <g id="ytick_9"/>
   </g>
   <g id="PolyCollection_1">
    <path d="M 44.276325 188.007457 
L 44.276325 159.831445 
L 103.072085 159.831445 
L 103.072085 188.007457 
z
" clip-path="url(#p288634449a)" style="fill: #5f57db"/>
    <path d="M 44.276325 159.831445 
L 44.276325 131.655434 
L 103.072085 131.655434 
L 103.072085 159.831445 
z
" clip-path="url(#p288634449a)" style="fill: #5f57db"/>
    <path d="M 44.276325 131.655434 
L 44.276325 120.053547 
L 103.072085 120.053547 
L 103.072085 131.655434 
z
" clip-path="url(#p288634449a)" style="fill: #5f57db"/>
    <path d="M 44.276325 120.053547 
L 44.276325 110.109072 
L 103.072085 110.109072 
L 103.072085 120.053547 
z
" clip-path="url(#p288634449a)" style="fill: #5f57db"/>
    <path d="M 44.276325 110.109072 
L 44.276325 96.849773 
L 103.072085 96.849773 
L 103.072085 110.109072 
z
" clip-path="url(#p288634449a)" style="fill: #57db5f"/>
    <path d="M 44.276325 96.849773 
L 44.276325 90.220123 
L 103.072085 90.220123 
L 103.072085 96.849773 
z
" clip-path="url(#p288634449a)" style="fill: #57db5f"/>
    <path d="M 44.276325 90.220123 
L 44.276325 83.590473 
L 103.072085 83.590473 
L 103.072085 90.220123 
z
" clip-path="url(#p288634449a)" style="fill: #57db5f"/>
    <path d="M 44.276325 83.590473 
L 44.276325 78.618236 
L 103.072085 78.618236 
L 103.072085 83.590473 
z
" clip-path="url(#p288634449a)" style="fill: #57db5f"/>
    <path d="M 44.276325 78.618236 
L 44.276325 73.645999 
L 103.072085 73.645999 
L 103.072085 78.618236 
z
" clip-path="url(#p288634449a)" style="fill: #57db5f"/>
    <path d="M 44.276325 73.645999 
L 44.276325 71.988586 
L 103.072085 71.988586 
L 103.072085 73.645999 
z
" clip-path="url(#p288634449a)" style="fill: #57db5f"/>
    <path d="M 44.276325 71.988586 
L 44.276325 70.331174 
L 103.072085 70.331174 
L 103.072085 71.988586 
z
" clip-path="url(#p288634449a)" style="fill: #57db5f"/>
    <path d="M 44.276325 70.331174 
L 44.276325 48.784812 
L 103.072085 48.784812 
L 103.072085 70.331174 
z
" clip-path="url(#p288634449a)" style="fill: #db5f57"/>
    <path d="M 44.276325 48.784812 
L 44.276325 35.525513 
L 103.072085 35.525513 
L 103.072085 48.784812 
z
" clip-path="url(#p288634449a)" style="fill: #db5f57"/>
    <path d="M 44.276325 35.525513 
L 44.276325 32.210688 
L 103.072085 32.210688 
L 103.072085 35.525513 
z
" clip-path="url(#p288634449a)" style="fill: #db5f57"/>
    <path d="M 44.276325 32.210688 
L 44.276325 30.553275 
L 103.072085 30.553275 
L 103.072085 32.210688 
z
" clip-path="url(#p288634449a)" style="fill: #db5f57"/>
    <path d="M 44.276325 30.553275 
L 44.276325 28.895863 
L 103.072085 28.895863 
L 103.072085 30.553275 
z
" clip-path="url(#p288634449a)" style="fill: #db5f57"/>
    <path d="M 44.276325 28.895863 
L 44.276325 27.23845 
L 103.072085 27.23845 
L 103.072085 28.895863 
z
" clip-path="url(#p288634449a)" style="fill: #db5f57"/>
    <path d="M 109.604947 188.007457 
L 109.604947 161.903211 
L 168.400707 161.903211 
L 168.400707 188.007457 
z
" clip-path="url(#p288634449a)" style="fill: #5f57db"/>
    <path d="M 109.604947 161.903211 
L 109.604947 158.450268 
L 168.400707 158.450268 
L 168.400707 161.903211 
z
" clip-path="url(#p288634449a)" style="fill: #5f57db"/>
    <path d="M 109.604947 158.450268 
L 109.604947 154.997326 
L 168.400707 154.997326 
L 168.400707 158.450268 
z
" clip-path="url(#p288634449a)" style="fill: #5f57db"/>
    <path d="M 109.604947 154.997326 
L 109.604947 151.820619 
L 168.400707 151.820619 
L 168.400707 154.997326 
z
" clip-path="url(#p288634449a)" style="fill: #5f57db"/>
    <path d="M 109.604947 151.820619 
L 109.604947 151.268148 
L 168.400707 151.268148 
L 168.400707 151.820619 
z
" clip-path="url(#p288634449a)" style="fill: #5f57db"/>
    <path d="M 109.604947 151.268148 
L 109.604947 140.494967 
L 168.400707 140.494967 
L 168.400707 151.268148 
z
" clip-path="url(#p288634449a)" style="fill: #57db5f"/>
    <path d="M 109.604947 140.494967 
L 109.604947 136.0752 
L 168.400707 136.0752 
L 168.400707 140.494967 
z
" clip-path="url(#p288634449a)" style="fill: #57db5f"/>
    <path d="M 109.604947 136.0752 
L 109.604947 134.27967 
L 168.400707 134.27967 
L 168.400707 136.0752 
z
" clip-path="url(#p288634449a)" style="fill: #57db5f"/>
    <path d="M 109.604947 134.27967 
L 109.604947 132.760376 
L 168.400707 132.760376 
L 168.400707 134.27967 
z
" clip-path="url(#p288634449a)" style="fill: #57db5f"/>
    <path d="M 109.604947 132.760376 
L 109.604947 132.346022 
L 168.400707 132.346022 
L 168.400707 132.760376 
z
" clip-path="url(#p288634449a)" style="fill: #57db5f"/>
    <path d="M 109.604947 132.346022 
L 109.604947 132.069787 
L 168.400707 132.069787 
L 168.400707 132.346022 
z
" clip-path="url(#p288634449a)" style="fill: #57db5f"/>
    <path d="M 109.604947 132.069787 
L 109.604947 131.793552 
L 168.400707 131.793552 
L 168.400707 132.069787 
z
" clip-path="url(#p288634449a)" style="fill: #57db5f"/>
    <path d="M 109.604947 131.793552 
L 109.604947 131.655434 
L 168.400707 131.655434 
L 168.400707 131.793552 
z
" clip-path="url(#p288634449a)" style="fill: #57db5f"/>
    <path d="M 109.604947 131.655434 
L 109.604947 131.517316 
L 168.400707 131.517316 
L 168.400707 131.655434 
z
" clip-path="url(#p288634449a)" style="fill: #57db5f"/>
    <path d="M 109.604947 131.517316 
L 109.604947 123.506489 
L 168.400707 123.506489 
L 168.400707 131.517316 
z
" clip-path="url(#p288634449a)" style="fill: #db5f57"/>
    <path d="M 109.604947 123.506489 
L 109.604947 116.186251 
L 168.400707 116.186251 
L 168.400707 123.506489 
z
" clip-path="url(#p288634449a)" style="fill: #db5f57"/>
    <path d="M 109.604947 116.186251 
L 109.604947 114.805074 
L 168.400707 114.805074 
L 168.400707 116.186251 
z
" clip-path="url(#p288634449a)" style="fill: #db5f57"/>
    <path d="M 109.604947 114.805074 
L 109.604947 113.83825 
L 168.400707 113.83825 
L 168.400707 114.805074 
z
" clip-path="url(#p288634449a)" style="fill: #db5f57"/>
    <path d="M 109.604947 113.83825 
L 109.604947 113.147662 
L 168.400707 113.147662 
L 168.400707 113.83825 
z
" clip-path="url(#p288634449a)" style="fill: #db5f57"/>
    <path d="M 109.604947 113.147662 
L 109.604947 112.457073 
L 168.400707 112.457073 
L 168.400707 113.147662 
z
" clip-path="url(#p288634449a)" style="fill: #db5f57"/>
    <path d="M 109.604947 112.457073 
L 109.604947 111.766485 
L 168.400707 111.766485 
L 168.400707 112.457073 
z
" clip-path="url(#p288634449a)" style="fill: #db5f57"/>
    <path d="M 109.604947 111.766485 
L 109.604947 111.214014 
L 168.400707 111.214014 
L 168.400707 111.766485 
z
" clip-path="url(#p288634449a)" style="fill: #db5f57"/>
    <path d="M 109.604947 111.214014 
L 109.604947 110.937778 
L 168.400707 110.937778 
L 168.400707 111.214014 
z
" clip-path="url(#p288634449a)" style="fill: #db5f57"/>
    <path d="M 109.604947 110.937778 
L 109.604947 110.799661 
L 168.400707 110.799661 
L 168.400707 110.937778 
z
" clip-path="url(#p288634449a)" style="fill: #db5f57"/>
   </g>
  </g>
  <g id="patch_3">
   <path d="M 34.477031 196.045907 
L 178.2 196.045907 
L 178.2 19.2 
L 34.477031 19.2 
L 34.477031 196.045907 
z
" style="fill: none; stroke: #7f7f7f; stroke-linejoin: miter"/>
  </g>
  <g id="text_8">
   <!-- num_vals -->
   <g transform="translate(8.256094 126.880844) rotate(-90) scale(0.09 -0.09)">
    <defs>
     <path id="Helvetica-6e" d="M 413 3347 
L 947 3347 
L 947 2872 
Q 1184 3166 1450 3294 
Q 1716 3422 2041 3422 
Q 2753 3422 3003 2925 
Q 3141 2653 3141 2147 
L 3141 0 
L 2569 0 
L 2569 2109 
Q 2569 2416 2478 2603 
Q 2328 2916 1934 2916 
Q 1734 2916 1606 2875 
Q 1375 2806 1200 2600 
Q 1059 2434 1017 2257 
Q 975 2081 975 1753 
L 975 0 
L 413 0 
L 413 3347 
z
M 1734 3428 
L 1734 3428 
z
" transform="scale(0.015625)"/>
     <path id="Helvetica-75" d="M 975 3347 
L 975 1125 
Q 975 869 1056 706 
Q 1206 406 1616 406 
Q 2203 406 2416 931 
Q 2531 1213 2531 1703 
L 2531 3347 
L 3094 3347 
L 3094 0 
L 2563 0 
L 2569 494 
Q 2459 303 2297 172 
Q 1975 -91 1516 -91 
Q 800 -91 541 388 
Q 400 644 400 1072 
L 400 3347 
L 975 3347 
z
M 1747 3428 
L 1747 3428 
z
" transform="scale(0.015625)"/>
     <path id="Helvetica-6d" d="M 413 3347 
L 969 3347 
L 969 2872 
Q 1169 3119 1331 3231 
Q 1609 3422 1963 3422 
Q 2363 3422 2606 3225 
Q 2744 3113 2856 2894 
Q 3044 3163 3297 3292 
Q 3550 3422 3866 3422 
Q 4541 3422 4784 2934 
Q 4916 2672 4916 2228 
L 4916 0 
L 4331 0 
L 4331 2325 
Q 4331 2659 4164 2784 
Q 3997 2909 3756 2909 
Q 3425 2909 3186 2687 
Q 2947 2466 2947 1947 
L 2947 0 
L 2375 0 
L 2375 2184 
Q 2375 2525 2294 2681 
Q 2166 2916 1816 2916 
Q 1497 2916 1236 2669 
Q 975 2422 975 1775 
L 975 0 
L 413 0 
L 413 3347 
z
" transform="scale(0.015625)"/>
     <path id="Helvetica-5f" d="M 0 -800 
L 0 -484 
L 3559 -484 
L 3559 -800 
L 0 -800 
z
" transform="scale(0.015625)"/>
     <path id="Helvetica-76" d="M 688 3347 
L 1581 622 
L 2516 3347 
L 3131 3347 
L 1869 0 
L 1269 0 
L 34 3347 
L 688 3347 
z
" transform="scale(0.015625)"/>
     <path id="Helvetica-61" d="M 844 891 
Q 844 647 1022 506 
Q 1200 366 1444 366 
Q 1741 366 2019 503 
Q 2488 731 2488 1250 
L 2488 1703 
Q 2384 1638 2221 1594 
Q 2059 1550 1903 1531 
L 1563 1488 
Q 1256 1447 1103 1359 
Q 844 1213 844 891 
z
M 2206 2028 
Q 2400 2053 2466 2191 
Q 2503 2266 2503 2406 
Q 2503 2694 2298 2823 
Q 2094 2953 1713 2953 
Q 1272 2953 1088 2716 
Q 984 2584 953 2325 
L 428 2325 
Q 444 2944 830 3186 
Q 1216 3428 1725 3428 
Q 2316 3428 2684 3203 
Q 3050 2978 3050 2503 
L 3050 575 
Q 3050 488 3086 434 
Q 3122 381 3238 381 
Q 3275 381 3322 386 
Q 3369 391 3422 400 
L 3422 -16 
Q 3291 -53 3222 -62 
Q 3153 -72 3034 -72 
Q 2744 -72 2613 134 
Q 2544 244 2516 444 
Q 2344 219 2022 53 
Q 1700 -113 1313 -113 
Q 847 -113 551 170 
Q 256 453 256 878 
Q 256 1344 547 1600 
Q 838 1856 1309 1916 
L 2206 2028 
z
M 1741 3428 
L 1741 3428 
z
" transform="scale(0.015625)"/>
     <path id="Helvetica-6c" d="M 428 4591 
L 991 4591 
L 991 0 
L 428 0 
L 428 4591 
z
" transform="scale(0.015625)"/>
     <path id="Helvetica-73" d="M 747 1050 
Q 772 769 888 619 
Q 1100 347 1625 347 
Q 1938 347 2175 483 
Q 2413 619 2413 903 
Q 2413 1119 2222 1231 
Q 2100 1300 1741 1391 
L 1294 1503 
Q 866 1609 663 1741 
Q 300 1969 300 2372 
Q 300 2847 642 3140 
Q 984 3434 1563 3434 
Q 2319 3434 2653 2991 
Q 2863 2709 2856 2384 
L 2325 2384 
Q 2309 2575 2191 2731 
Q 1997 2953 1519 2953 
Q 1200 2953 1036 2831 
Q 872 2709 872 2509 
Q 872 2291 1088 2159 
Q 1213 2081 1456 2022 
L 1828 1931 
Q 2434 1784 2641 1647 
Q 2969 1431 2969 969 
Q 2969 522 2630 197 
Q 2291 -128 1597 -128 
Q 850 -128 539 211 
Q 228 550 206 1050 
L 747 1050 
z
M 1578 3428 
L 1578 3428 
z
" transform="scale(0.015625)"/>
    </defs>
    <use xlink:href="#Helvetica-6e"/>
    <use xlink:href="#Helvetica-75" x="55.615234"/>
    <use xlink:href="#Helvetica-6d" x="111.230469"/>
    <use xlink:href="#Helvetica-5f" x="194.53125"/>
    <use xlink:href="#Helvetica-76" x="250.146484"/>
    <use xlink:href="#Helvetica-61" x="300.146484"/>
    <use xlink:href="#Helvetica-6c" x="355.761719"/>
    <use xlink:href="#Helvetica-73" x="377.978516"/>
   </g>
  </g>
  <g id="patch_4">
   <path d="M 35.960641 13.8 
L 176.716391 13.8 
L 176.716391 1.8 
L 35.960641 1.8 
z
" style="fill: #ffffff"/>
  </g>
  <g id="patch_5">
   <path d="M 37.960641 11.8 
L 45.960641 11.8 
L 45.960641 3.8 
L 37.960641 3.8 
L 37.960641 11.8 
z
" clip-path="url(#p31f4b9f161)" style="fill: none; stroke: #cccccc; stroke-linejoin: miter"/>
  </g>
  <g id="patch_6">
   <path d="M 36.960641 12.8 
L 46.960641 12.8 
L 46.960641 2.8 
L 36.960641 2.8 
z
" clip-path="url(#p31f4b9f161)" style="fill: #db5f57"/>
  </g>
  <g id="text_9">
   <!-- Accuracy -->
   <g transform="translate(48.400641 10.013062) scale(0.088 -0.088)">
    <defs>
     <path id="Helvetica-41" d="M 2844 1881 
L 2147 3909 
L 1406 1881 
L 2844 1881 
z
M 1822 4591 
L 2525 4591 
L 4191 0 
L 3509 0 
L 3044 1375 
L 1228 1375 
L 731 0 
L 94 0 
L 1822 4591 
z
" transform="scale(0.015625)"/>
     <path id="Helvetica-63" d="M 1703 3444 
Q 2269 3444 2623 3169 
Q 2978 2894 3050 2222 
L 2503 2222 
Q 2453 2531 2275 2736 
Q 2097 2941 1703 2941 
Q 1166 2941 934 2416 
Q 784 2075 784 1575 
Q 784 1072 996 728 
Q 1209 384 1666 384 
Q 2016 384 2220 598 
Q 2425 813 2503 1184 
L 3050 1184 
Q 2956 519 2581 211 
Q 2206 -97 1622 -97 
Q 966 -97 575 383 
Q 184 863 184 1581 
Q 184 2463 612 2953 
Q 1041 3444 1703 3444 
z
M 1616 3428 
L 1616 3428 
z
" transform="scale(0.015625)"/>
     <path id="Helvetica-72" d="M 428 3347 
L 963 3347 
L 963 2769 
Q 1028 2938 1284 3180 
Q 1541 3422 1875 3422 
Q 1891 3422 1928 3419 
Q 1966 3416 2056 3406 
L 2056 2813 
Q 2006 2822 1964 2825 
Q 1922 2828 1872 2828 
Q 1447 2828 1219 2554 
Q 991 2281 991 1925 
L 991 0 
L 428 0 
L 428 3347 
z
" transform="scale(0.015625)"/>
     <path id="Helvetica-79" d="M 2503 3347 
L 3125 3347 
Q 3006 3025 2597 1878 
Q 2291 1016 2084 472 
Q 1597 -809 1397 -1090 
Q 1197 -1372 709 -1372 
Q 591 -1372 527 -1362 
Q 463 -1353 369 -1328 
L 369 -816 
Q 516 -856 581 -865 
Q 647 -875 697 -875 
Q 853 -875 926 -823 
Q 1000 -772 1050 -697 
Q 1066 -672 1162 -440 
Q 1259 -209 1303 -97 
L 66 3347 
L 703 3347 
L 1600 622 
L 2503 3347 
z
M 1597 3428 
L 1597 3428 
z
" transform="scale(0.015625)"/>
    </defs>
    <use xlink:href="#Helvetica-41"/>
    <use xlink:href="#Helvetica-63" x="66.699219"/>
    <use xlink:href="#Helvetica-63" x="116.699219"/>
    <use xlink:href="#Helvetica-75" x="166.699219"/>
    <use xlink:href="#Helvetica-72" x="222.314453"/>
    <use xlink:href="#Helvetica-61" x="255.615234"/>
    <use xlink:href="#Helvetica-63" x="311.230469"/>
    <use xlink:href="#Helvetica-79" x="361.230469"/>
   </g>
  </g>
  <g id="patch_7">
   <path d="M 91.587891 11.8 
L 99.587891 11.8 
L 99.587891 3.8 
L 91.587891 3.8 
L 91.587891 11.8 
z
" clip-path="url(#pdb4ebbd28b)" style="fill: none; stroke: #cccccc; stroke-linejoin: miter"/>
  </g>
  <g id="patch_8">
   <path d="M 90.587891 12.8 
L 100.587891 12.8 
L 100.587891 2.8 
L 90.587891 2.8 
z
" clip-path="url(#pdb4ebbd28b)" style="fill: #57db5f"/>
  </g>
  <g id="text_10">
   <!-- Linguistic -->
   <g transform="translate(102.027891 9.982812) scale(0.088 -0.088)">
    <defs>
     <path id="Helvetica-4c" d="M 488 4591 
L 1109 4591 
L 1109 547 
L 3434 547 
L 3434 0 
L 488 0 
L 488 4591 
z
" transform="scale(0.015625)"/>
     <path id="Helvetica-69" d="M 413 3331 
L 984 3331 
L 984 0 
L 413 0 
L 413 3331 
z
M 413 4591 
L 984 4591 
L 984 3953 
L 413 3953 
L 413 4591 
z
" transform="scale(0.015625)"/>
     <path id="Helvetica-67" d="M 1594 3406 
Q 1988 3406 2281 3213 
Q 2441 3103 2606 2894 
L 2606 3316 
L 3125 3316 
L 3125 272 
Q 3125 -366 2938 -734 
Q 2588 -1416 1616 -1416 
Q 1075 -1416 706 -1173 
Q 338 -931 294 -416 
L 866 -416 
Q 906 -641 1028 -763 
Q 1219 -950 1628 -950 
Q 2275 -950 2475 -494 
Q 2594 -225 2584 466 
Q 2416 209 2178 84 
Q 1941 -41 1550 -41 
Q 1006 -41 598 345 
Q 191 731 191 1622 
Q 191 2463 602 2934 
Q 1013 3406 1594 3406 
z
M 2606 1688 
Q 2606 2309 2350 2609 
Q 2094 2909 1697 2909 
Q 1103 2909 884 2353 
Q 769 2056 769 1575 
Q 769 1009 998 714 
Q 1228 419 1616 419 
Q 2222 419 2469 966 
Q 2606 1275 2606 1688 
z
M 1659 3428 
L 1659 3428 
z
" transform="scale(0.015625)"/>
     <path id="Helvetica-74" d="M 525 4281 
L 1094 4281 
L 1094 3347 
L 1628 3347 
L 1628 2888 
L 1094 2888 
L 1094 703 
Q 1094 528 1213 469 
Q 1278 434 1431 434 
Q 1472 434 1519 436 
Q 1566 438 1628 444 
L 1628 0 
Q 1531 -28 1426 -40 
Q 1322 -53 1200 -53 
Q 806 -53 665 148 
Q 525 350 525 672 
L 525 2888 
L 72 2888 
L 72 3347 
L 525 3347 
L 525 4281 
z
" transform="scale(0.015625)"/>
    </defs>
    <use xlink:href="#Helvetica-4c"/>
    <use xlink:href="#Helvetica-69" x="55.615234"/>
    <use xlink:href="#Helvetica-6e" x="77.832031"/>
    <use xlink:href="#Helvetica-67" x="133.447266"/>
    <use xlink:href="#Helvetica-75" x="189.0625"/>
    <use xlink:href="#Helvetica-69" x="244.677734"/>
    <use xlink:href="#Helvetica-73" x="266.894531"/>
    <use xlink:href="#Helvetica-74" x="316.894531"/>
    <use xlink:href="#Helvetica-69" x="344.677734"/>
    <use xlink:href="#Helvetica-63" x="366.894531"/>
   </g>
  </g>
  <g id="patch_9">
   <path d="M 145.712891 11.8 
L 153.712891 11.8 
L 153.712891 3.8 
L 145.712891 3.8 
L 145.712891 11.8 
z
" clip-path="url(#p4d897dabdf)" style="fill: none; stroke: #cccccc; stroke-linejoin: miter"/>
  </g>
  <g id="patch_10">
   <path d="M 144.712891 12.8 
L 154.712891 12.8 
L 154.712891 2.8 
L 144.712891 2.8 
z
" clip-path="url(#p4d897dabdf)" style="fill: #5f57db"/>
  </g>
  <g id="text_11">
   <!-- Style -->
   <g transform="translate(156.152891 10.099) scale(0.088 -0.088)">
    <defs>
     <path id="Helvetica-53" d="M 894 1481 
Q 916 1091 1078 847 
Q 1388 391 2169 391 
Q 2519 391 2806 491 
Q 3363 684 3363 1184 
Q 3363 1559 3128 1719 
Q 2891 1875 2384 1991 
L 1763 2131 
Q 1153 2269 900 2434 
Q 463 2722 463 3294 
Q 463 3913 891 4309 
Q 1319 4706 2103 4706 
Q 2825 4706 3329 4357 
Q 3834 4009 3834 3244 
L 3250 3244 
Q 3203 3613 3050 3809 
Q 2766 4169 2084 4169 
Q 1534 4169 1293 3937 
Q 1053 3706 1053 3400 
Q 1053 3063 1334 2906 
Q 1519 2806 2169 2656 
L 2813 2509 
Q 3278 2403 3531 2219 
Q 3969 1897 3969 1284 
Q 3969 522 3414 194 
Q 2859 -134 2125 -134 
Q 1269 -134 784 303 
Q 300 738 309 1481 
L 894 1481 
z
M 2150 4716 
L 2150 4716 
z
" transform="scale(0.015625)"/>
     <path id="Helvetica-65" d="M 1806 3422 
Q 2163 3422 2497 3255 
Q 2831 3088 3006 2822 
Q 3175 2569 3231 2231 
Q 3281 2000 3281 1494 
L 828 1494 
Q 844 984 1069 676 
Q 1294 369 1766 369 
Q 2206 369 2469 659 
Q 2619 828 2681 1050 
L 3234 1050 
Q 3213 866 3089 639 
Q 2966 413 2813 269 
Q 2556 19 2178 -69 
Q 1975 -119 1719 -119 
Q 1094 -119 659 336 
Q 225 791 225 1609 
Q 225 2416 662 2919 
Q 1100 3422 1806 3422 
z
M 2703 1941 
Q 2669 2306 2544 2525 
Q 2313 2931 1772 2931 
Q 1384 2931 1121 2651 
Q 859 2372 844 1941 
L 2703 1941 
z
M 1753 3428 
L 1753 3428 
z
" transform="scale(0.015625)"/>
    </defs>
    <use xlink:href="#Helvetica-53"/>
    <use xlink:href="#Helvetica-74" x="66.699219"/>
    <use xlink:href="#Helvetica-79" x="94.482422"/>
    <use xlink:href="#Helvetica-6c" x="144.482422"/>
    <use xlink:href="#Helvetica-65" x="166.699219"/>
   </g>
  </g>
 </g>
 <defs>
  <clipPath id="p288634449a">
   <rect x="34.477031" y="19.2" width="143.722969" height="176.845907"/>
  </clipPath>
  <clipPath id="p31f4b9f161">
   <path d="M 36.960641 12.8 
L 36.960641 2.8 
L 46.960641 2.8 
L 46.960641 12.8 
"/>
  </clipPath>
  <clipPath id="pdb4ebbd28b">
   <path d="M 90.587891 12.8 
L 90.587891 2.8 
L 100.587891 2.8 
L 100.587891 12.8 
"/>
  </clipPath>
  <clipPath id="p4d897dabdf">
   <path d="M 144.712891 12.8 
L 144.712891 2.8 
L 154.712891 2.8 
L 154.712891 12.8 
"/>
  </clipPath>
 </defs>
</svg>
