<?xml version="1.0" encoding="utf-8" standalone="no"?>
<!DOCTYPE svg PUBLIC "-//W3C//DTD SVG 1.1//EN"
  "http://www.w3.org/Graphics/SVG/1.1/DTD/svg11.dtd">
<svg xmlns:xlink="http://www.w3.org/1999/xlink" width="180pt" height="216pt" viewBox="0 0 180 216" xmlns="http://www.w3.org/2000/svg" version="1.1">
 <metadata>
  <rdf:RDF xmlns:dc="http://purl.org/dc/elements/1.1/" xmlns:cc="http://creativecommons.org/ns#" xmlns:rdf="http://www.w3.org/1999/02/22-rdf-syntax-ns#">
   <cc:Work>
    <dc:type rdf:resource="http://purl.org/dc/dcmitype/StillImage"/>
    <dc:date>2025-02-19T10:41:48.323111</dc:date>
    <dc:format>image/svg+xml</dc:format>
    <dc:creator>
     <cc:Agent>
      <dc:title>Matplotlib v3.8.2, https://matplotlib.org/</dc:title>
     </cc:Agent>
    </dc:creator>
   </cc:Work>
  </rdf:RDF>
 </metadata>
 <defs>
  <style type="text/css">*{stroke-linejoin: round; stroke-linecap: butt}</style>
 </defs>
 <g id="figure_1">
  <g id="patch_1">
   <path d="M 0 216 
L 180 216 
L 180 0 
L 0 0 
z
" style="fill: #ffffff; stroke: #ffffff; stroke-linejoin: miter"/>
  </g>
  <g id="axes_1">
   <g id="patch_2">
    <path d="M 30.028281 196.045907 
L 178.2 196.045907 
L 178.2 19.2 
L 30.028281 19.2 
z
" style="fill: #ffffff"/>
   </g>
   <g id="matplotlib.axis_1">
    <g id="xtick_1">
     <g id="line2d_1">
      <path d="M 70.43875 196.045907 
L 70.43875 19.2 
" clip-path="url(#pf47aa751c5)" style="fill: none; stroke: #e5e5e5; stroke-linecap: square"/>
     </g>
     <g id="line2d_2">
      <path d="M 70.43875 196.045907 
" style="fill: none; stroke: #333333; stroke-width: 1.5; stroke-linecap: square"/>
      <defs>
       <path id="m20f5424041" d="M 0 0 
L 0 2.75 
" style="stroke: #333333"/>
      </defs>
      <g>
       <use xlink:href="#m20f5424041" x="70.43875" y="196.045907" style="fill: #333333; stroke: #333333"/>
      </g>
     </g>
     <g id="text_1">
      <!-- MT -->
      <g style="fill: #4d4d4d" transform="translate(61.092566 213.020899) rotate(-45) scale(0.08 -0.08)">
       <defs>
        <path id="Helvetica-4d" d="M 472 4591 
L 1363 4591 
L 2681 709 
L 3991 4591 
L 4872 4591 
L 4872 0 
L 4281 0 
L 4281 2709 
Q 4281 2850 4287 3175 
Q 4294 3500 4294 3872 
L 2984 0 
L 2369 0 
L 1050 3872 
L 1050 3731 
Q 1050 3563 1058 3217 
Q 1066 2872 1066 2709 
L 1066 0 
L 472 0 
L 472 4591 
z
" transform="scale(0.015625)"/>
        <path id="Helvetica-54" d="M 3828 4591 
L 3828 4044 
L 2281 4044 
L 2281 0 
L 1650 0 
L 1650 4044 
L 103 4044 
L 103 4591 
L 3828 4591 
z
" transform="scale(0.015625)"/>
       </defs>
       <use xlink:href="#Helvetica-4d"/>
       <use xlink:href="#Helvetica-54" x="83.300781"/>
      </g>
     </g>
    </g>
    <g id="xtick_2">
     <g id="line2d_3">
      <path d="M 137.789531 196.045907 
L 137.789531 19.2 
" clip-path="url(#pf47aa751c5)" style="fill: none; stroke: #e5e5e5; stroke-linecap: square"/>
     </g>
     <g id="line2d_4">
      <path d="M 137.789531 196.045907 
" style="fill: none; stroke: #333333; stroke-width: 1.5; stroke-linecap: square"/>
      <g>
       <use xlink:href="#m20f5424041" x="137.789531" y="196.045907" style="fill: #333333; stroke: #333333"/>
      </g>
     </g>
     <g id="text_2">
      <!-- PE -->
      <g style="fill: #4d4d4d" transform="translate(129.063834 212.400413) rotate(-45) scale(0.08 -0.08)">
       <defs>
        <path id="Helvetica-50" d="M 547 4591 
L 2613 4591 
Q 3225 4591 3600 4245 
Q 3975 3900 3975 3275 
Q 3975 2738 3640 2339 
Q 3306 1941 2613 1941 
L 1169 1941 
L 1169 0 
L 547 0 
L 547 4591 
z
M 3347 3272 
Q 3347 3778 2972 3959 
Q 2766 4056 2406 4056 
L 1169 4056 
L 1169 2466 
L 2406 2466 
Q 2825 2466 3086 2644 
Q 3347 2822 3347 3272 
z
" transform="scale(0.015625)"/>
        <path id="Helvetica-45" d="M 547 4591 
L 3894 4591 
L 3894 4028 
L 1153 4028 
L 1153 2634 
L 3688 2634 
L 3688 2103 
L 1153 2103 
L 1153 547 
L 3941 547 
L 3941 0 
L 547 0 
L 547 4591 
z
M 2244 4591 
L 2244 4591 
z
" transform="scale(0.015625)"/>
       </defs>
       <use xlink:href="#Helvetica-50"/>
       <use xlink:href="#Helvetica-45" x="66.699219"/>
      </g>
     </g>
    </g>
   </g>
   <g id="matplotlib.axis_2">
    <g id="ytick_1">
     <g id="line2d_5">
      <path d="M 30.028281 188.007457 
L 178.2 188.007457 
" clip-path="url(#pf47aa751c5)" style="fill: none; stroke: #e5e5e5; stroke-linecap: square"/>
     </g>
     <g id="line2d_6">
      <path d="M 30.028281 188.007457 
" style="fill: none; stroke: #333333; stroke-width: 1.5; stroke-linecap: square"/>
      <defs>
       <path id="mea6f6a68ad" d="M 0 0 
L -2.75 0 
" style="stroke: #333333"/>
      </defs>
      <g>
       <use xlink:href="#mea6f6a68ad" x="30.028281" y="188.007457" style="fill: #333333; stroke: #333333"/>
      </g>
     </g>
     <g id="text_3">
      <!-- 0 -->
      <g style="fill: #4d4d4d" transform="translate(20.829531 190.876832) scale(0.08 -0.08)">
       <defs>
        <path id="Helvetica-30" d="M 1731 4475 
Q 2600 4475 2988 3759 
Q 3288 3206 3288 2244 
Q 3288 1331 3016 734 
Q 2622 -122 1728 -122 
Q 922 -122 528 578 
Q 200 1163 200 2147 
Q 200 2909 397 3456 
Q 766 4475 1731 4475 
z
M 1725 391 
Q 2163 391 2422 778 
Q 2681 1166 2681 2222 
Q 2681 2984 2493 3476 
Q 2306 3969 1766 3969 
Q 1269 3969 1039 3501 
Q 809 3034 809 2125 
Q 809 1441 956 1025 
Q 1181 391 1725 391 
z
" transform="scale(0.015625)"/>
       </defs>
       <use xlink:href="#Helvetica-30"/>
      </g>
     </g>
    </g>
    <g id="ytick_2">
     <g id="line2d_7">
      <path d="M 30.028281 142.125891 
L 178.2 142.125891 
" clip-path="url(#pf47aa751c5)" style="fill: none; stroke: #e5e5e5; stroke-linecap: square"/>
     </g>
     <g id="line2d_8">
      <path d="M 30.028281 142.125891 
" style="fill: none; stroke: #333333; stroke-width: 1.5; stroke-linecap: square"/>
      <g>
       <use xlink:href="#mea6f6a68ad" x="30.028281" y="142.125891" style="fill: #333333; stroke: #333333"/>
      </g>
     </g>
     <g id="text_4">
      <!-- 250 -->
      <g style="fill: #4d4d4d" transform="translate(11.932031 144.995266) scale(0.08 -0.08)">
       <defs>
        <path id="Helvetica-32" d="M 200 0 
Q 231 578 439 1006 
Q 647 1434 1250 1784 
L 1850 2131 
Q 2253 2366 2416 2531 
Q 2672 2791 2672 3125 
Q 2672 3516 2437 3745 
Q 2203 3975 1813 3975 
Q 1234 3975 1013 3538 
Q 894 3303 881 2888 
L 309 2888 
Q 319 3472 525 3841 
Q 891 4491 1816 4491 
Q 2584 4491 2939 4075 
Q 3294 3659 3294 3150 
Q 3294 2613 2916 2231 
Q 2697 2009 2131 1694 
L 1703 1456 
Q 1397 1288 1222 1134 
Q 909 863 828 531 
L 3272 531 
L 3272 0 
L 200 0 
z
" transform="scale(0.015625)"/>
        <path id="Helvetica-35" d="M 791 1141 
Q 847 659 1238 475 
Q 1438 381 1700 381 
Q 2200 381 2440 700 
Q 2681 1019 2681 1406 
Q 2681 1875 2395 2131 
Q 2109 2388 1709 2388 
Q 1419 2388 1211 2275 
Q 1003 2163 856 1963 
L 369 1991 
L 709 4400 
L 3034 4400 
L 3034 3856 
L 1131 3856 
L 941 2613 
Q 1097 2731 1238 2791 
Q 1488 2894 1816 2894 
Q 2431 2894 2859 2497 
Q 3288 2100 3288 1491 
Q 3288 856 2895 371 
Q 2503 -113 1644 -113 
Q 1097 -113 676 195 
Q 256 503 206 1141 
L 791 1141 
z
" transform="scale(0.015625)"/>
       </defs>
       <use xlink:href="#Helvetica-32"/>
       <use xlink:href="#Helvetica-35" x="55.615234"/>
       <use xlink:href="#Helvetica-30" x="111.230469"/>
      </g>
     </g>
    </g>
    <g id="ytick_3">
     <g id="line2d_9">
      <path d="M 30.028281 96.244325 
L 178.2 96.244325 
" clip-path="url(#pf47aa751c5)" style="fill: none; stroke: #e5e5e5; stroke-linecap: square"/>
     </g>
     <g id="line2d_10">
      <path d="M 30.028281 96.244325 
" style="fill: none; stroke: #333333; stroke-width: 1.5; stroke-linecap: square"/>
      <g>
       <use xlink:href="#mea6f6a68ad" x="30.028281" y="96.244325" style="fill: #333333; stroke: #333333"/>
      </g>
     </g>
     <g id="text_5">
      <!-- 500 -->
      <g style="fill: #4d4d4d" transform="translate(11.932031 99.1137) scale(0.08 -0.08)">
       <use xlink:href="#Helvetica-35"/>
       <use xlink:href="#Helvetica-30" x="55.615234"/>
       <use xlink:href="#Helvetica-30" x="111.230469"/>
      </g>
     </g>
    </g>
    <g id="ytick_4">
     <g id="line2d_11">
      <path d="M 30.028281 50.362759 
L 178.2 50.362759 
" clip-path="url(#pf47aa751c5)" style="fill: none; stroke: #e5e5e5; stroke-linecap: square"/>
     </g>
     <g id="line2d_12">
      <path d="M 30.028281 50.362759 
" style="fill: none; stroke: #333333; stroke-width: 1.5; stroke-linecap: square"/>
      <g>
       <use xlink:href="#mea6f6a68ad" x="30.028281" y="50.362759" style="fill: #333333; stroke: #333333"/>
      </g>
     </g>
     <g id="text_6">
      <!-- 750 -->
      <g style="fill: #4d4d4d" transform="translate(11.932031 53.232134) scale(0.08 -0.08)">
       <defs>
        <path id="Helvetica-37" d="M 3347 4400 
L 3347 3909 
Q 3131 3700 2773 3181 
Q 2416 2663 2141 2063 
Q 1869 1478 1728 997 
Q 1638 688 1494 0 
L 872 0 
Q 1084 1281 1809 2550 
Q 2238 3294 2709 3834 
L 234 3834 
L 234 4400 
L 3347 4400 
z
" transform="scale(0.015625)"/>
       </defs>
       <use xlink:href="#Helvetica-37"/>
       <use xlink:href="#Helvetica-35" x="55.615234"/>
       <use xlink:href="#Helvetica-30" x="111.230469"/>
      </g>
     </g>
    </g>
    <g id="ytick_5"/>
    <g id="ytick_6"/>
    <g id="ytick_7"/>
    <g id="ytick_8"/>
   </g>
   <g id="PolyCollection_1">
    <path d="M 40.130898 188.007457 
L 40.130898 170.388936 
L 100.746602 170.388936 
L 100.746602 188.007457 
z
" clip-path="url(#pf47aa751c5)" style="fill: #5f57db"/>
    <path d="M 40.130898 170.388936 
L 40.130898 161.579675 
L 100.746602 161.579675 
L 100.746602 170.388936 
z
" clip-path="url(#pf47aa751c5)" style="fill: #5f57db"/>
    <path d="M 40.130898 161.579675 
L 40.130898 157.175045 
L 100.746602 157.175045 
L 100.746602 161.579675 
z
" clip-path="url(#pf47aa751c5)" style="fill: #5f57db"/>
    <path d="M 40.130898 157.175045 
L 40.130898 154.972729 
L 100.746602 154.972729 
L 100.746602 157.175045 
z
" clip-path="url(#pf47aa751c5)" style="fill: #5f57db"/>
    <path d="M 40.130898 154.972729 
L 40.130898 132.949578 
L 100.746602 132.949578 
L 100.746602 154.972729 
z
" clip-path="url(#pf47aa751c5)" style="fill: #57db5f"/>
    <path d="M 40.130898 132.949578 
L 40.130898 117.533372 
L 100.746602 117.533372 
L 100.746602 132.949578 
z
" clip-path="url(#pf47aa751c5)" style="fill: #57db5f"/>
    <path d="M 40.130898 117.533372 
L 40.130898 106.521796 
L 100.746602 106.521796 
L 100.746602 117.533372 
z
" clip-path="url(#pf47aa751c5)" style="fill: #57db5f"/>
    <path d="M 40.130898 106.521796 
L 40.130898 102.117166 
L 100.746602 102.117166 
L 100.746602 106.521796 
z
" clip-path="url(#pf47aa751c5)" style="fill: #57db5f"/>
    <path d="M 40.130898 102.117166 
L 40.130898 97.712535 
L 100.746602 97.712535 
L 100.746602 102.117166 
z
" clip-path="url(#pf47aa751c5)" style="fill: #57db5f"/>
    <path d="M 40.130898 97.712535 
L 40.130898 95.51022 
L 100.746602 95.51022 
L 100.746602 97.712535 
z
" clip-path="url(#pf47aa751c5)" style="fill: #57db5f"/>
    <path d="M 40.130898 95.51022 
L 40.130898 64.677808 
L 100.746602 64.677808 
L 100.746602 95.51022 
z
" clip-path="url(#pf47aa751c5)" style="fill: #db5f57"/>
    <path d="M 40.130898 64.677808 
L 40.130898 47.059287 
L 100.746602 47.059287 
L 100.746602 64.677808 
z
" clip-path="url(#pf47aa751c5)" style="fill: #db5f57"/>
    <path d="M 40.130898 47.059287 
L 40.130898 38.250026 
L 100.746602 38.250026 
L 100.746602 47.059287 
z
" clip-path="url(#pf47aa751c5)" style="fill: #db5f57"/>
    <path d="M 40.130898 38.250026 
L 40.130898 29.440765 
L 100.746602 29.440765 
L 100.746602 38.250026 
z
" clip-path="url(#pf47aa751c5)" style="fill: #db5f57"/>
    <path d="M 40.130898 29.440765 
L 40.130898 27.23845 
L 100.746602 27.23845 
L 100.746602 29.440765 
z
" clip-path="url(#pf47aa751c5)" style="fill: #db5f57"/>
    <path d="M 107.48168 188.007457 
L 107.48168 165.066674 
L 168.097383 165.066674 
L 168.097383 188.007457 
z
" clip-path="url(#pf47aa751c5)" style="fill: #5f57db"/>
    <path d="M 107.48168 165.066674 
L 107.48168 156.257413 
L 168.097383 156.257413 
L 168.097383 165.066674 
z
" clip-path="url(#pf47aa751c5)" style="fill: #5f57db"/>
    <path d="M 107.48168 156.257413 
L 107.48168 154.789203 
L 168.097383 154.789203 
L 168.097383 156.257413 
z
" clip-path="url(#pf47aa751c5)" style="fill: #5f57db"/>
    <path d="M 107.48168 154.789203 
L 107.48168 153.688046 
L 168.097383 153.688046 
L 168.097383 154.789203 
z
" clip-path="url(#pf47aa751c5)" style="fill: #5f57db"/>
    <path d="M 107.48168 153.688046 
L 107.48168 152.770414 
L 168.097383 152.770414 
L 168.097383 153.688046 
z
" clip-path="url(#pf47aa751c5)" style="fill: #5f57db"/>
    <path d="M 107.48168 152.770414 
L 107.48168 152.586888 
L 168.097383 152.586888 
L 168.097383 152.770414 
z
" clip-path="url(#pf47aa751c5)" style="fill: #5f57db"/>
    <path d="M 107.48168 152.586888 
L 107.48168 152.403362 
L 168.097383 152.403362 
L 168.097383 152.586888 
z
" clip-path="url(#pf47aa751c5)" style="fill: #5f57db"/>
    <path d="M 107.48168 152.403362 
L 107.48168 141.758838 
L 168.097383 141.758838 
L 168.097383 152.403362 
z
" clip-path="url(#pf47aa751c5)" style="fill: #57db5f"/>
    <path d="M 107.48168 141.758838 
L 107.48168 135.702472 
L 168.097383 135.702472 
L 168.097383 141.758838 
z
" clip-path="url(#pf47aa751c5)" style="fill: #57db5f"/>
    <path d="M 107.48168 135.702472 
L 107.48168 132.766052 
L 168.097383 132.766052 
L 168.097383 135.702472 
z
" clip-path="url(#pf47aa751c5)" style="fill: #57db5f"/>
    <path d="M 107.48168 132.766052 
L 107.48168 130.930789 
L 168.097383 130.930789 
L 168.097383 132.766052 
z
" clip-path="url(#pf47aa751c5)" style="fill: #57db5f"/>
    <path d="M 107.48168 130.930789 
L 107.48168 129.646105 
L 168.097383 129.646105 
L 168.097383 130.930789 
z
" clip-path="url(#pf47aa751c5)" style="fill: #57db5f"/>
    <path d="M 107.48168 129.646105 
L 107.48168 128.912 
L 168.097383 128.912 
L 168.097383 129.646105 
z
" clip-path="url(#pf47aa751c5)" style="fill: #57db5f"/>
    <path d="M 107.48168 128.912 
L 107.48168 128.361421 
L 168.097383 128.361421 
L 168.097383 128.912 
z
" clip-path="url(#pf47aa751c5)" style="fill: #57db5f"/>
    <path d="M 107.48168 128.361421 
L 107.48168 127.810842 
L 168.097383 127.810842 
L 168.097383 128.361421 
z
" clip-path="url(#pf47aa751c5)" style="fill: #57db5f"/>
    <path d="M 107.48168 127.810842 
L 107.48168 127.260264 
L 168.097383 127.260264 
L 168.097383 127.810842 
z
" clip-path="url(#pf47aa751c5)" style="fill: #57db5f"/>
    <path d="M 107.48168 127.260264 
L 107.48168 107.255901 
L 168.097383 107.255901 
L 168.097383 127.260264 
z
" clip-path="url(#pf47aa751c5)" style="fill: #db5f57"/>
    <path d="M 107.48168 107.255901 
L 107.48168 87.618591 
L 168.097383 87.618591 
L 168.097383 107.255901 
z
" clip-path="url(#pf47aa751c5)" style="fill: #db5f57"/>
    <path d="M 107.48168 87.618591 
L 107.48168 83.213961 
L 168.097383 83.213961 
L 168.097383 87.618591 
z
" clip-path="url(#pf47aa751c5)" style="fill: #db5f57"/>
    <path d="M 107.48168 83.213961 
L 107.48168 81.011645 
L 168.097383 81.011645 
L 168.097383 83.213961 
z
" clip-path="url(#pf47aa751c5)" style="fill: #db5f57"/>
    <path d="M 107.48168 81.011645 
L 107.48168 79.359909 
L 168.097383 79.359909 
L 168.097383 81.011645 
z
" clip-path="url(#pf47aa751c5)" style="fill: #db5f57"/>
    <path d="M 107.48168 79.359909 
L 107.48168 77.891699 
L 168.097383 77.891699 
L 168.097383 79.359909 
z
" clip-path="url(#pf47aa751c5)" style="fill: #db5f57"/>
    <path d="M 107.48168 77.891699 
L 107.48168 76.423489 
L 168.097383 76.423489 
L 168.097383 77.891699 
z
" clip-path="url(#pf47aa751c5)" style="fill: #db5f57"/>
    <path d="M 107.48168 76.423489 
L 107.48168 75.138805 
L 168.097383 75.138805 
L 168.097383 76.423489 
z
" clip-path="url(#pf47aa751c5)" style="fill: #db5f57"/>
    <path d="M 107.48168 75.138805 
L 107.48168 74.221174 
L 168.097383 74.221174 
L 168.097383 75.138805 
z
" clip-path="url(#pf47aa751c5)" style="fill: #db5f57"/>
    <path d="M 107.48168 74.221174 
L 107.48168 73.487069 
L 168.097383 73.487069 
L 168.097383 74.221174 
z
" clip-path="url(#pf47aa751c5)" style="fill: #db5f57"/>
    <path d="M 107.48168 73.487069 
L 107.48168 72.93649 
L 168.097383 72.93649 
L 168.097383 73.487069 
z
" clip-path="url(#pf47aa751c5)" style="fill: #db5f57"/>
    <path d="M 107.48168 72.93649 
L 107.48168 72.752964 
L 168.097383 72.752964 
L 168.097383 72.93649 
z
" clip-path="url(#pf47aa751c5)" style="fill: #db5f57"/>
   </g>
  </g>
  <g id="patch_3">
   <path d="M 30.028281 196.045907 
L 178.2 196.045907 
L 178.2 19.2 
L 30.028281 19.2 
L 30.028281 196.045907 
z
" style="fill: none; stroke: #7f7f7f; stroke-linejoin: miter"/>
  </g>
  <g id="text_7">
   <!-- num_vals -->
   <g transform="translate(8.256094 126.880844) rotate(-90) scale(0.09 -0.09)">
    <defs>
     <path id="Helvetica-6e" d="M 413 3347 
L 947 3347 
L 947 2872 
Q 1184 3166 1450 3294 
Q 1716 3422 2041 3422 
Q 2753 3422 3003 2925 
Q 3141 2653 3141 2147 
L 3141 0 
L 2569 0 
L 2569 2109 
Q 2569 2416 2478 2603 
Q 2328 2916 1934 2916 
Q 1734 2916 1606 2875 
Q 1375 2806 1200 2600 
Q 1059 2434 1017 2257 
Q 975 2081 975 1753 
L 975 0 
L 413 0 
L 413 3347 
z
M 1734 3428 
L 1734 3428 
z
" transform="scale(0.015625)"/>
     <path id="Helvetica-75" d="M 975 3347 
L 975 1125 
Q 975 869 1056 706 
Q 1206 406 1616 406 
Q 2203 406 2416 931 
Q 2531 1213 2531 1703 
L 2531 3347 
L 3094 3347 
L 3094 0 
L 2563 0 
L 2569 494 
Q 2459 303 2297 172 
Q 1975 -91 1516 -91 
Q 800 -91 541 388 
Q 400 644 400 1072 
L 400 3347 
L 975 3347 
z
M 1747 3428 
L 1747 3428 
z
" transform="scale(0.015625)"/>
     <path id="Helvetica-6d" d="M 413 3347 
L 969 3347 
L 969 2872 
Q 1169 3119 1331 3231 
Q 1609 3422 1963 3422 
Q 2363 3422 2606 3225 
Q 2744 3113 2856 2894 
Q 3044 3163 3297 3292 
Q 3550 3422 3866 3422 
Q 4541 3422 4784 2934 
Q 4916 2672 4916 2228 
L 4916 0 
L 4331 0 
L 4331 2325 
Q 4331 2659 4164 2784 
Q 3997 2909 3756 2909 
Q 3425 2909 3186 2687 
Q 2947 2466 2947 1947 
L 2947 0 
L 2375 0 
L 2375 2184 
Q 2375 2525 2294 2681 
Q 2166 2916 1816 2916 
Q 1497 2916 1236 2669 
Q 975 2422 975 1775 
L 975 0 
L 413 0 
L 413 3347 
z
" transform="scale(0.015625)"/>
     <path id="Helvetica-5f" d="M 0 -800 
L 0 -484 
L 3559 -484 
L 3559 -800 
L 0 -800 
z
" transform="scale(0.015625)"/>
     <path id="Helvetica-76" d="M 688 3347 
L 1581 622 
L 2516 3347 
L 3131 3347 
L 1869 0 
L 1269 0 
L 34 3347 
L 688 3347 
z
" transform="scale(0.015625)"/>
     <path id="Helvetica-61" d="M 844 891 
Q 844 647 1022 506 
Q 1200 366 1444 366 
Q 1741 366 2019 503 
Q 2488 731 2488 1250 
L 2488 1703 
Q 2384 1638 2221 1594 
Q 2059 1550 1903 1531 
L 1563 1488 
Q 1256 1447 1103 1359 
Q 844 1213 844 891 
z
M 2206 2028 
Q 2400 2053 2466 2191 
Q 2503 2266 2503 2406 
Q 2503 2694 2298 2823 
Q 2094 2953 1713 2953 
Q 1272 2953 1088 2716 
Q 984 2584 953 2325 
L 428 2325 
Q 444 2944 830 3186 
Q 1216 3428 1725 3428 
Q 2316 3428 2684 3203 
Q 3050 2978 3050 2503 
L 3050 575 
Q 3050 488 3086 434 
Q 3122 381 3238 381 
Q 3275 381 3322 386 
Q 3369 391 3422 400 
L 3422 -16 
Q 3291 -53 3222 -62 
Q 3153 -72 3034 -72 
Q 2744 -72 2613 134 
Q 2544 244 2516 444 
Q 2344 219 2022 53 
Q 1700 -113 1313 -113 
Q 847 -113 551 170 
Q 256 453 256 878 
Q 256 1344 547 1600 
Q 838 1856 1309 1916 
L 2206 2028 
z
M 1741 3428 
L 1741 3428 
z
" transform="scale(0.015625)"/>
     <path id="Helvetica-6c" d="M 428 4591 
L 991 4591 
L 991 0 
L 428 0 
L 428 4591 
z
" transform="scale(0.015625)"/>
     <path id="Helvetica-73" d="M 747 1050 
Q 772 769 888 619 
Q 1100 347 1625 347 
Q 1938 347 2175 483 
Q 2413 619 2413 903 
Q 2413 1119 2222 1231 
Q 2100 1300 1741 1391 
L 1294 1503 
Q 866 1609 663 1741 
Q 300 1969 300 2372 
Q 300 2847 642 3140 
Q 984 3434 1563 3434 
Q 2319 3434 2653 2991 
Q 2863 2709 2856 2384 
L 2325 2384 
Q 2309 2575 2191 2731 
Q 1997 2953 1519 2953 
Q 1200 2953 1036 2831 
Q 872 2709 872 2509 
Q 872 2291 1088 2159 
Q 1213 2081 1456 2022 
L 1828 1931 
Q 2434 1784 2641 1647 
Q 2969 1431 2969 969 
Q 2969 522 2630 197 
Q 2291 -128 1597 -128 
Q 850 -128 539 211 
Q 228 550 206 1050 
L 747 1050 
z
M 1578 3428 
L 1578 3428 
z
" transform="scale(0.015625)"/>
    </defs>
    <use xlink:href="#Helvetica-6e"/>
    <use xlink:href="#Helvetica-75" x="55.615234"/>
    <use xlink:href="#Helvetica-6d" x="111.230469"/>
    <use xlink:href="#Helvetica-5f" x="194.53125"/>
    <use xlink:href="#Helvetica-76" x="250.146484"/>
    <use xlink:href="#Helvetica-61" x="300.146484"/>
    <use xlink:href="#Helvetica-6c" x="355.761719"/>
    <use xlink:href="#Helvetica-73" x="377.978516"/>
   </g>
  </g>
  <g id="patch_4">
   <path d="M 33.736266 13.8 
L 174.492016 13.8 
L 174.492016 1.8 
L 33.736266 1.8 
z
" style="fill: #ffffff"/>
  </g>
  <g id="patch_5">
   <path d="M 35.736266 11.8 
L 43.736266 11.8 
L 43.736266 3.8 
L 35.736266 3.8 
L 35.736266 11.8 
z
" clip-path="url(#p3983d4e36c)" style="fill: none; stroke: #cccccc; stroke-linejoin: miter"/>
  </g>
  <g id="patch_6">
   <path d="M 34.736266 12.8 
L 44.736266 12.8 
L 44.736266 2.8 
L 34.736266 2.8 
z
" clip-path="url(#p3983d4e36c)" style="fill: #db5f57"/>
  </g>
  <g id="text_8">
   <!-- Accuracy -->
   <g transform="translate(46.176266 10.013062) scale(0.088 -0.088)">
    <defs>
     <path id="Helvetica-41" d="M 2844 1881 
L 2147 3909 
L 1406 1881 
L 2844 1881 
z
M 1822 4591 
L 2525 4591 
L 4191 0 
L 3509 0 
L 3044 1375 
L 1228 1375 
L 731 0 
L 94 0 
L 1822 4591 
z
" transform="scale(0.015625)"/>
     <path id="Helvetica-63" d="M 1703 3444 
Q 2269 3444 2623 3169 
Q 2978 2894 3050 2222 
L 2503 2222 
Q 2453 2531 2275 2736 
Q 2097 2941 1703 2941 
Q 1166 2941 934 2416 
Q 784 2075 784 1575 
Q 784 1072 996 728 
Q 1209 384 1666 384 
Q 2016 384 2220 598 
Q 2425 813 2503 1184 
L 3050 1184 
Q 2956 519 2581 211 
Q 2206 -97 1622 -97 
Q 966 -97 575 383 
Q 184 863 184 1581 
Q 184 2463 612 2953 
Q 1041 3444 1703 3444 
z
M 1616 3428 
L 1616 3428 
z
" transform="scale(0.015625)"/>
     <path id="Helvetica-72" d="M 428 3347 
L 963 3347 
L 963 2769 
Q 1028 2938 1284 3180 
Q 1541 3422 1875 3422 
Q 1891 3422 1928 3419 
Q 1966 3416 2056 3406 
L 2056 2813 
Q 2006 2822 1964 2825 
Q 1922 2828 1872 2828 
Q 1447 2828 1219 2554 
Q 991 2281 991 1925 
L 991 0 
L 428 0 
L 428 3347 
z
" transform="scale(0.015625)"/>
     <path id="Helvetica-79" d="M 2503 3347 
L 3125 3347 
Q 3006 3025 2597 1878 
Q 2291 1016 2084 472 
Q 1597 -809 1397 -1090 
Q 1197 -1372 709 -1372 
Q 591 -1372 527 -1362 
Q 463 -1353 369 -1328 
L 369 -816 
Q 516 -856 581 -865 
Q 647 -875 697 -875 
Q 853 -875 926 -823 
Q 1000 -772 1050 -697 
Q 1066 -672 1162 -440 
Q 1259 -209 1303 -97 
L 66 3347 
L 703 3347 
L 1600 622 
L 2503 3347 
z
M 1597 3428 
L 1597 3428 
z
" transform="scale(0.015625)"/>
    </defs>
    <use xlink:href="#Helvetica-41"/>
    <use xlink:href="#Helvetica-63" x="66.699219"/>
    <use xlink:href="#Helvetica-63" x="116.699219"/>
    <use xlink:href="#Helvetica-75" x="166.699219"/>
    <use xlink:href="#Helvetica-72" x="222.314453"/>
    <use xlink:href="#Helvetica-61" x="255.615234"/>
    <use xlink:href="#Helvetica-63" x="311.230469"/>
    <use xlink:href="#Helvetica-79" x="361.230469"/>
   </g>
  </g>
  <g id="patch_7">
   <path d="M 89.363516 11.8 
L 97.363516 11.8 
L 97.363516 3.8 
L 89.363516 3.8 
L 89.363516 11.8 
z
" clip-path="url(#pc00e1798e7)" style="fill: none; stroke: #cccccc; stroke-linejoin: miter"/>
  </g>
  <g id="patch_8">
   <path d="M 88.363516 12.8 
L 98.363516 12.8 
L 98.363516 2.8 
L 88.363516 2.8 
z
" clip-path="url(#pc00e1798e7)" style="fill: #57db5f"/>
  </g>
  <g id="text_9">
   <!-- Linguistic -->
   <g transform="translate(99.803516 9.982812) scale(0.088 -0.088)">
    <defs>
     <path id="Helvetica-4c" d="M 488 4591 
L 1109 4591 
L 1109 547 
L 3434 547 
L 3434 0 
L 488 0 
L 488 4591 
z
" transform="scale(0.015625)"/>
     <path id="Helvetica-69" d="M 413 3331 
L 984 3331 
L 984 0 
L 413 0 
L 413 3331 
z
M 413 4591 
L 984 4591 
L 984 3953 
L 413 3953 
L 413 4591 
z
" transform="scale(0.015625)"/>
     <path id="Helvetica-67" d="M 1594 3406 
Q 1988 3406 2281 3213 
Q 2441 3103 2606 2894 
L 2606 3316 
L 3125 3316 
L 3125 272 
Q 3125 -366 2938 -734 
Q 2588 -1416 1616 -1416 
Q 1075 -1416 706 -1173 
Q 338 -931 294 -416 
L 866 -416 
Q 906 -641 1028 -763 
Q 1219 -950 1628 -950 
Q 2275 -950 2475 -494 
Q 2594 -225 2584 466 
Q 2416 209 2178 84 
Q 1941 -41 1550 -41 
Q 1006 -41 598 345 
Q 191 731 191 1622 
Q 191 2463 602 2934 
Q 1013 3406 1594 3406 
z
M 2606 1688 
Q 2606 2309 2350 2609 
Q 2094 2909 1697 2909 
Q 1103 2909 884 2353 
Q 769 2056 769 1575 
Q 769 1009 998 714 
Q 1228 419 1616 419 
Q 2222 419 2469 966 
Q 2606 1275 2606 1688 
z
M 1659 3428 
L 1659 3428 
z
" transform="scale(0.015625)"/>
     <path id="Helvetica-74" d="M 525 4281 
L 1094 4281 
L 1094 3347 
L 1628 3347 
L 1628 2888 
L 1094 2888 
L 1094 703 
Q 1094 528 1213 469 
Q 1278 434 1431 434 
Q 1472 434 1519 436 
Q 1566 438 1628 444 
L 1628 0 
Q 1531 -28 1426 -40 
Q 1322 -53 1200 -53 
Q 806 -53 665 148 
Q 525 350 525 672 
L 525 2888 
L 72 2888 
L 72 3347 
L 525 3347 
L 525 4281 
z
" transform="scale(0.015625)"/>
    </defs>
    <use xlink:href="#Helvetica-4c"/>
    <use xlink:href="#Helvetica-69" x="55.615234"/>
    <use xlink:href="#Helvetica-6e" x="77.832031"/>
    <use xlink:href="#Helvetica-67" x="133.447266"/>
    <use xlink:href="#Helvetica-75" x="189.0625"/>
    <use xlink:href="#Helvetica-69" x="244.677734"/>
    <use xlink:href="#Helvetica-73" x="266.894531"/>
    <use xlink:href="#Helvetica-74" x="316.894531"/>
    <use xlink:href="#Helvetica-69" x="344.677734"/>
    <use xlink:href="#Helvetica-63" x="366.894531"/>
   </g>
  </g>
  <g id="patch_9">
   <path d="M 143.488516 11.8 
L 151.488516 11.8 
L 151.488516 3.8 
L 143.488516 3.8 
L 143.488516 11.8 
z
" clip-path="url(#pe7a6d31c84)" style="fill: none; stroke: #cccccc; stroke-linejoin: miter"/>
  </g>
  <g id="patch_10">
   <path d="M 142.488516 12.8 
L 152.488516 12.8 
L 152.488516 2.8 
L 142.488516 2.8 
z
" clip-path="url(#pe7a6d31c84)" style="fill: #5f57db"/>
  </g>
  <g id="text_10">
   <!-- Style -->
   <g transform="translate(153.928516 10.099) scale(0.088 -0.088)">
    <defs>
     <path id="Helvetica-53" d="M 894 1481 
Q 916 1091 1078 847 
Q 1388 391 2169 391 
Q 2519 391 2806 491 
Q 3363 684 3363 1184 
Q 3363 1559 3128 1719 
Q 2891 1875 2384 1991 
L 1763 2131 
Q 1153 2269 900 2434 
Q 463 2722 463 3294 
Q 463 3913 891 4309 
Q 1319 4706 2103 4706 
Q 2825 4706 3329 4357 
Q 3834 4009 3834 3244 
L 3250 3244 
Q 3203 3613 3050 3809 
Q 2766 4169 2084 4169 
Q 1534 4169 1293 3937 
Q 1053 3706 1053 3400 
Q 1053 3063 1334 2906 
Q 1519 2806 2169 2656 
L 2813 2509 
Q 3278 2403 3531 2219 
Q 3969 1897 3969 1284 
Q 3969 522 3414 194 
Q 2859 -134 2125 -134 
Q 1269 -134 784 303 
Q 300 738 309 1481 
L 894 1481 
z
M 2150 4716 
L 2150 4716 
z
" transform="scale(0.015625)"/>
     <path id="Helvetica-65" d="M 1806 3422 
Q 2163 3422 2497 3255 
Q 2831 3088 3006 2822 
Q 3175 2569 3231 2231 
Q 3281 2000 3281 1494 
L 828 1494 
Q 844 984 1069 676 
Q 1294 369 1766 369 
Q 2206 369 2469 659 
Q 2619 828 2681 1050 
L 3234 1050 
Q 3213 866 3089 639 
Q 2966 413 2813 269 
Q 2556 19 2178 -69 
Q 1975 -119 1719 -119 
Q 1094 -119 659 336 
Q 225 791 225 1609 
Q 225 2416 662 2919 
Q 1100 3422 1806 3422 
z
M 2703 1941 
Q 2669 2306 2544 2525 
Q 2313 2931 1772 2931 
Q 1384 2931 1121 2651 
Q 859 2372 844 1941 
L 2703 1941 
z
M 1753 3428 
L 1753 3428 
z
" transform="scale(0.015625)"/>
    </defs>
    <use xlink:href="#Helvetica-53"/>
    <use xlink:href="#Helvetica-74" x="66.699219"/>
    <use xlink:href="#Helvetica-79" x="94.482422"/>
    <use xlink:href="#Helvetica-6c" x="144.482422"/>
    <use xlink:href="#Helvetica-65" x="166.699219"/>
   </g>
  </g>
 </g>
 <defs>
  <clipPath id="pf47aa751c5">
   <rect x="30.028281" y="19.2" width="148.171719" height="176.845907"/>
  </clipPath>
  <clipPath id="p3983d4e36c">
   <path d="M 34.736266 12.8 
L 34.736266 2.8 
L 44.736266 2.8 
L 44.736266 12.8 
"/>
  </clipPath>
  <clipPath id="pc00e1798e7">
   <path d="M 88.363516 12.8 
L 88.363516 2.8 
L 98.363516 2.8 
L 98.363516 12.8 
"/>
  </clipPath>
  <clipPath id="pe7a6d31c84">
   <path d="M 142.488516 12.8 
L 142.488516 2.8 
L 152.488516 2.8 
L 152.488516 12.8 
"/>
  </clipPath>
 </defs>
</svg>
