<?xml version="1.0" encoding="utf-8" standalone="no"?>
<!DOCTYPE svg PUBLIC "-//W3C//DTD SVG 1.1//EN"
  "http://www.w3.org/Graphics/SVG/1.1/DTD/svg11.dtd">
<svg xmlns:xlink="http://www.w3.org/1999/xlink" width="360pt" height="216pt" viewBox="0 0 360 216" xmlns="http://www.w3.org/2000/svg" version="1.1">
 <metadata>
  <rdf:RDF xmlns:dc="http://purl.org/dc/elements/1.1/" xmlns:cc="http://creativecommons.org/ns#" xmlns:rdf="http://www.w3.org/1999/02/22-rdf-syntax-ns#">
   <cc:Work>
    <dc:type rdf:resource="http://purl.org/dc/dcmitype/StillImage"/>
    <dc:date>2025-02-19T18:46:18.420091</dc:date>
    <dc:format>image/svg+xml</dc:format>
    <dc:creator>
     <cc:Agent>
      <dc:title>Matplotlib v3.8.2, https://matplotlib.org/</dc:title>
     </cc:Agent>
    </dc:creator>
   </cc:Work>
  </rdf:RDF>
 </metadata>
 <defs>
  <style type="text/css">*{stroke-linejoin: round; stroke-linecap: butt}</style>
 </defs>
 <g id="figure_1">
  <g id="patch_1">
   <path d="M 0 216 
L 360 216 
L 360 0 
L 0 0 
z
" style="fill: #ffffff; stroke: #ffffff; stroke-linejoin: miter"/>
  </g>
  <g id="axes_1">
   <g id="patch_2">
    <path d="M 31.24975 172.863616 
L 192.024875 172.863616 
L 192.024875 46.253542 
L 31.24975 46.253542 
z
" style="fill: #ffffff"/>
   </g>
   <g id="matplotlib.axis_1">
    <g id="xtick_1">
     <g id="line2d_1">
      <path d="M 38.55771 172.863616 
L 38.55771 46.253542 
" clip-path="url(#p935388f141)" style="fill: none; stroke: #e5e5e5; stroke-linecap: square"/>
     </g>
     <g id="line2d_2">
      <path d="M 38.55771 172.863616 
" style="fill: none; stroke: #333333; stroke-width: 1.5; stroke-linecap: square"/>
      <defs>
       <path id="mc34794c2d9" d="M 0 0 
L 0 2.75 
" style="stroke: #333333"/>
      </defs>
      <g>
       <use xlink:href="#mc34794c2d9" x="38.55771" y="172.863616" style="fill: #333333; stroke: #333333"/>
      </g>
     </g>
     <g id="text_1">
      <!-- &lt; 75 -->
      <g style="fill: #4d4d4d" transform="translate(24.977017 194.360999) rotate(-45) scale(0.088 -0.088)">
       <defs>
        <path id="Helvetica-3c" d="M 88 1894 
L 3741 3325 
L 3741 2763 
L 753 1634 
L 3741 503 
L 3741 -59 
L 88 1375 
L 88 1894 
z
" transform="scale(0.015625)"/>
        <path id="Helvetica-20" transform="scale(0.015625)"/>
        <path id="Helvetica-37" d="M 3347 4400 
L 3347 3909 
Q 3131 3700 2773 3181 
Q 2416 2663 2141 2063 
Q 1869 1478 1728 997 
Q 1638 688 1494 0 
L 872 0 
Q 1084 1281 1809 2550 
Q 2238 3294 2709 3834 
L 234 3834 
L 234 4400 
L 3347 4400 
z
" transform="scale(0.015625)"/>
        <path id="Helvetica-35" d="M 791 1141 
Q 847 659 1238 475 
Q 1438 381 1700 381 
Q 2200 381 2440 700 
Q 2681 1019 2681 1406 
Q 2681 1875 2395 2131 
Q 2109 2388 1709 2388 
Q 1419 2388 1211 2275 
Q 1003 2163 856 1963 
L 369 1991 
L 709 4400 
L 3034 4400 
L 3034 3856 
L 1131 3856 
L 941 2613 
Q 1097 2731 1238 2791 
Q 1488 2894 1816 2894 
Q 2431 2894 2859 2497 
Q 3288 2100 3288 1491 
Q 3288 856 2895 371 
Q 2503 -113 1644 -113 
Q 1097 -113 676 195 
Q 256 503 206 1141 
L 791 1141 
z
" transform="scale(0.015625)"/>
       </defs>
       <use xlink:href="#Helvetica-3c"/>
       <use xlink:href="#Helvetica-20" x="58.398438"/>
       <use xlink:href="#Helvetica-37" x="86.181641"/>
       <use xlink:href="#Helvetica-35" x="141.796875"/>
      </g>
     </g>
    </g>
    <g id="xtick_2">
     <g id="line2d_3">
      <path d="M 67.789551 172.863616 
L 67.789551 46.253542 
" clip-path="url(#p935388f141)" style="fill: none; stroke: #e5e5e5; stroke-linecap: square"/>
     </g>
     <g id="line2d_4">
      <path d="M 67.789551 172.863616 
" style="fill: none; stroke: #333333; stroke-width: 1.5; stroke-linecap: square"/>
      <g>
       <use xlink:href="#mc34794c2d9" x="67.789551" y="172.863616" style="fill: #333333; stroke: #333333"/>
      </g>
     </g>
     <g id="text_2">
      <!-- 75-80 -->
      <g style="fill: #4d4d4d" transform="translate(50.579368 197.990489) rotate(-45) scale(0.088 -0.088)">
       <defs>
        <path id="Helvetica-2d" d="M 266 2072 
L 1834 2072 
L 1834 1494 
L 266 1494 
L 266 2072 
z
" transform="scale(0.015625)"/>
        <path id="Helvetica-38" d="M 1741 2600 
Q 2113 2600 2322 2808 
Q 2531 3016 2531 3303 
Q 2531 3553 2331 3762 
Q 2131 3972 1722 3972 
Q 1316 3972 1134 3762 
Q 953 3553 953 3272 
Q 953 2956 1187 2778 
Q 1422 2600 1741 2600 
z
M 1775 384 
Q 2166 384 2423 595 
Q 2681 806 2681 1225 
Q 2681 1659 2415 1884 
Q 2150 2109 1734 2109 
Q 1331 2109 1076 1879 
Q 822 1650 822 1244 
Q 822 894 1055 639 
Q 1288 384 1775 384 
z
M 975 2384 
Q 741 2484 609 2619 
Q 363 2869 363 3269 
Q 363 3769 725 4128 
Q 1088 4488 1753 4488 
Q 2397 4488 2762 4148 
Q 3128 3809 3128 3356 
Q 3128 2938 2916 2678 
Q 2797 2531 2547 2391 
Q 2825 2263 2984 2097 
Q 3281 1784 3281 1284 
Q 3281 694 2884 283 
Q 2488 -128 1763 -128 
Q 1109 -128 657 226 
Q 206 581 206 1256 
Q 206 1653 400 1942 
Q 594 2231 975 2384 
z
" transform="scale(0.015625)"/>
        <path id="Helvetica-30" d="M 1731 4475 
Q 2600 4475 2988 3759 
Q 3288 3206 3288 2244 
Q 3288 1331 3016 734 
Q 2622 -122 1728 -122 
Q 922 -122 528 578 
Q 200 1163 200 2147 
Q 200 2909 397 3456 
Q 766 4475 1731 4475 
z
M 1725 391 
Q 2163 391 2422 778 
Q 2681 1166 2681 2222 
Q 2681 2984 2493 3476 
Q 2306 3969 1766 3969 
Q 1269 3969 1039 3501 
Q 809 3034 809 2125 
Q 809 1441 956 1025 
Q 1181 391 1725 391 
z
" transform="scale(0.015625)"/>
       </defs>
       <use xlink:href="#Helvetica-37"/>
       <use xlink:href="#Helvetica-35" x="55.615234"/>
       <use xlink:href="#Helvetica-2d" x="111.230469"/>
       <use xlink:href="#Helvetica-38" x="144.53125"/>
       <use xlink:href="#Helvetica-30" x="200.146484"/>
      </g>
     </g>
    </g>
    <g id="xtick_3">
     <g id="line2d_5">
      <path d="M 97.021392 172.863616 
L 97.021392 46.253542 
" clip-path="url(#p935388f141)" style="fill: none; stroke: #e5e5e5; stroke-linecap: square"/>
     </g>
     <g id="line2d_6">
      <path d="M 97.021392 172.863616 
" style="fill: none; stroke: #333333; stroke-width: 1.5; stroke-linecap: square"/>
      <g>
       <use xlink:href="#mc34794c2d9" x="97.021392" y="172.863616" style="fill: #333333; stroke: #333333"/>
      </g>
     </g>
     <g id="text_3">
      <!-- 80-85 -->
      <g style="fill: #4d4d4d" transform="translate(79.811208 197.990489) rotate(-45) scale(0.088 -0.088)">
       <use xlink:href="#Helvetica-38"/>
       <use xlink:href="#Helvetica-30" x="55.615234"/>
       <use xlink:href="#Helvetica-2d" x="111.230469"/>
       <use xlink:href="#Helvetica-38" x="144.53125"/>
       <use xlink:href="#Helvetica-35" x="200.146484"/>
      </g>
     </g>
    </g>
    <g id="xtick_4">
     <g id="line2d_7">
      <path d="M 126.253233 172.863616 
L 126.253233 46.253542 
" clip-path="url(#p935388f141)" style="fill: none; stroke: #e5e5e5; stroke-linecap: square"/>
     </g>
     <g id="line2d_8">
      <path d="M 126.253233 172.863616 
" style="fill: none; stroke: #333333; stroke-width: 1.5; stroke-linecap: square"/>
      <g>
       <use xlink:href="#mc34794c2d9" x="126.253233" y="172.863616" style="fill: #333333; stroke: #333333"/>
      </g>
     </g>
     <g id="text_4">
      <!-- 85-90 -->
      <g style="fill: #4d4d4d" transform="translate(109.043049 197.990489) rotate(-45) scale(0.088 -0.088)">
       <defs>
        <path id="Helvetica-39" d="M 850 1081 
Q 875 616 1209 438 
Q 1381 344 1597 344 
Q 2000 344 2284 680 
Q 2569 1016 2688 2044 
Q 2500 1747 2223 1626 
Q 1947 1506 1628 1506 
Q 981 1506 604 1909 
Q 228 2313 228 2947 
Q 228 3556 600 4018 
Q 972 4481 1697 4481 
Q 2675 4481 3047 3600 
Q 3253 3116 3253 2388 
Q 3253 1566 3006 931 
Q 2597 -125 1619 -125 
Q 963 -125 622 219 
Q 281 563 281 1081 
L 850 1081 
z
M 1703 2000 
Q 2038 2000 2314 2220 
Q 2591 2441 2591 2991 
Q 2591 3484 2342 3726 
Q 2094 3969 1709 3969 
Q 1297 3969 1055 3692 
Q 813 3416 813 2953 
Q 813 2516 1025 2258 
Q 1238 2000 1703 2000 
z
" transform="scale(0.015625)"/>
       </defs>
       <use xlink:href="#Helvetica-38"/>
       <use xlink:href="#Helvetica-35" x="55.615234"/>
       <use xlink:href="#Helvetica-2d" x="111.230469"/>
       <use xlink:href="#Helvetica-39" x="144.53125"/>
       <use xlink:href="#Helvetica-30" x="200.146484"/>
      </g>
     </g>
    </g>
    <g id="xtick_5">
     <g id="line2d_9">
      <path d="M 155.485074 172.863616 
L 155.485074 46.253542 
" clip-path="url(#p935388f141)" style="fill: none; stroke: #e5e5e5; stroke-linecap: square"/>
     </g>
     <g id="line2d_10">
      <path d="M 155.485074 172.863616 
" style="fill: none; stroke: #333333; stroke-width: 1.5; stroke-linecap: square"/>
      <g>
       <use xlink:href="#mc34794c2d9" x="155.485074" y="172.863616" style="fill: #333333; stroke: #333333"/>
      </g>
     </g>
     <g id="text_5">
      <!-- 90-95 -->
      <g style="fill: #4d4d4d" transform="translate(138.27489 197.990489) rotate(-45) scale(0.088 -0.088)">
       <use xlink:href="#Helvetica-39"/>
       <use xlink:href="#Helvetica-30" x="55.615234"/>
       <use xlink:href="#Helvetica-2d" x="111.230469"/>
       <use xlink:href="#Helvetica-39" x="144.53125"/>
       <use xlink:href="#Helvetica-35" x="200.146484"/>
      </g>
     </g>
    </g>
    <g id="xtick_6">
     <g id="line2d_11">
      <path d="M 184.716915 172.863616 
L 184.716915 46.253542 
" clip-path="url(#p935388f141)" style="fill: none; stroke: #e5e5e5; stroke-linecap: square"/>
     </g>
     <g id="line2d_12">
      <path d="M 184.716915 172.863616 
" style="fill: none; stroke: #333333; stroke-width: 1.5; stroke-linecap: square"/>
      <g>
       <use xlink:href="#mc34794c2d9" x="184.716915" y="172.863616" style="fill: #333333; stroke: #333333"/>
      </g>
     </g>
     <g id="text_6">
      <!-- &gt; 95 -->
      <g style="fill: #4d4d4d" transform="translate(171.136222 194.360999) rotate(-45) scale(0.088 -0.088)">
       <defs>
        <path id="Helvetica-3e" d="M 3741 1369 
L 88 -59 
L 88 503 
L 3072 1634 
L 88 2763 
L 88 3325 
L 3741 1894 
L 3741 1369 
z
" transform="scale(0.015625)"/>
       </defs>
       <use xlink:href="#Helvetica-3e"/>
       <use xlink:href="#Helvetica-20" x="58.398438"/>
       <use xlink:href="#Helvetica-39" x="86.181641"/>
       <use xlink:href="#Helvetica-35" x="141.796875"/>
      </g>
     </g>
    </g>
    <g id="xtick_7"/>
    <g id="xtick_8"/>
    <g id="xtick_9"/>
    <g id="xtick_10"/>
    <g id="xtick_11"/>
   </g>
   <g id="matplotlib.axis_2">
    <g id="ytick_1">
     <g id="line2d_13">
      <path d="M 31.24975 154.918248 
L 192.024875 154.918248 
" clip-path="url(#p935388f141)" style="fill: none; stroke: #e5e5e5; stroke-linecap: square"/>
     </g>
     <g id="line2d_14">
      <path d="M 31.24975 154.918248 
" style="fill: none; stroke: #333333; stroke-width: 1.5; stroke-linecap: square"/>
      <defs>
       <path id="mc2b6bb2aae" d="M 0 0 
L -2.75 0 
" style="stroke: #333333"/>
      </defs>
      <g>
       <use xlink:href="#mc2b6bb2aae" x="31.24975" y="154.918248" style="fill: #333333; stroke: #333333"/>
      </g>
     </g>
     <g id="text_7">
      <!-- 0 -->
      <g style="fill: #4d4d4d" transform="translate(21.606125 158.074561) scale(0.088 -0.088)">
       <use xlink:href="#Helvetica-30"/>
      </g>
     </g>
    </g>
    <g id="ytick_2">
     <g id="line2d_15">
      <path d="M 31.24975 133.116225 
L 192.024875 133.116225 
" clip-path="url(#p935388f141)" style="fill: none; stroke: #e5e5e5; stroke-linecap: square"/>
     </g>
     <g id="line2d_16">
      <path d="M 31.24975 133.116225 
" style="fill: none; stroke: #333333; stroke-width: 1.5; stroke-linecap: square"/>
      <g>
       <use xlink:href="#mc2b6bb2aae" x="31.24975" y="133.116225" style="fill: #333333; stroke: #333333"/>
      </g>
     </g>
     <g id="text_8">
      <!-- 5 -->
      <g style="fill: #4d4d4d" transform="translate(21.606125 136.272538) scale(0.088 -0.088)">
       <use xlink:href="#Helvetica-35"/>
      </g>
     </g>
    </g>
    <g id="ytick_3">
     <g id="line2d_17">
      <path d="M 31.24975 111.314202 
L 192.024875 111.314202 
" clip-path="url(#p935388f141)" style="fill: none; stroke: #e5e5e5; stroke-linecap: square"/>
     </g>
     <g id="line2d_18">
      <path d="M 31.24975 111.314202 
" style="fill: none; stroke: #333333; stroke-width: 1.5; stroke-linecap: square"/>
      <g>
       <use xlink:href="#mc2b6bb2aae" x="31.24975" y="111.314202" style="fill: #333333; stroke: #333333"/>
      </g>
     </g>
     <g id="text_9">
      <!-- 10 -->
      <g style="fill: #4d4d4d" transform="translate(16.7125 114.470515) scale(0.088 -0.088)">
       <defs>
        <path id="Helvetica-31" d="M 613 3169 
L 613 3600 
Q 1222 3659 1462 3798 
Q 1703 3938 1822 4456 
L 2266 4456 
L 2266 0 
L 1666 0 
L 1666 3169 
L 613 3169 
z
" transform="scale(0.015625)"/>
       </defs>
       <use xlink:href="#Helvetica-31"/>
       <use xlink:href="#Helvetica-30" x="55.615234"/>
      </g>
     </g>
    </g>
    <g id="ytick_4">
     <g id="line2d_19">
      <path d="M 31.24975 89.512179 
L 192.024875 89.512179 
" clip-path="url(#p935388f141)" style="fill: none; stroke: #e5e5e5; stroke-linecap: square"/>
     </g>
     <g id="line2d_20">
      <path d="M 31.24975 89.512179 
" style="fill: none; stroke: #333333; stroke-width: 1.5; stroke-linecap: square"/>
      <g>
       <use xlink:href="#mc2b6bb2aae" x="31.24975" y="89.512179" style="fill: #333333; stroke: #333333"/>
      </g>
     </g>
     <g id="text_10">
      <!-- 15 -->
      <g style="fill: #4d4d4d" transform="translate(16.7125 92.668492) scale(0.088 -0.088)">
       <use xlink:href="#Helvetica-31"/>
       <use xlink:href="#Helvetica-35" x="55.615234"/>
      </g>
     </g>
    </g>
    <g id="ytick_5">
     <g id="line2d_21">
      <path d="M 31.24975 67.710156 
L 192.024875 67.710156 
" clip-path="url(#p935388f141)" style="fill: none; stroke: #e5e5e5; stroke-linecap: square"/>
     </g>
     <g id="line2d_22">
      <path d="M 31.24975 67.710156 
" style="fill: none; stroke: #333333; stroke-width: 1.5; stroke-linecap: square"/>
      <g>
       <use xlink:href="#mc2b6bb2aae" x="31.24975" y="67.710156" style="fill: #333333; stroke: #333333"/>
      </g>
     </g>
     <g id="text_11">
      <!-- 20 -->
      <g style="fill: #4d4d4d" transform="translate(16.7125 70.866469) scale(0.088 -0.088)">
       <defs>
        <path id="Helvetica-32" d="M 200 0 
Q 231 578 439 1006 
Q 647 1434 1250 1784 
L 1850 2131 
Q 2253 2366 2416 2531 
Q 2672 2791 2672 3125 
Q 2672 3516 2437 3745 
Q 2203 3975 1813 3975 
Q 1234 3975 1013 3538 
Q 894 3303 881 2888 
L 309 2888 
Q 319 3472 525 3841 
Q 891 4491 1816 4491 
Q 2584 4491 2939 4075 
Q 3294 3659 3294 3150 
Q 3294 2613 2916 2231 
Q 2697 2009 2131 1694 
L 1703 1456 
Q 1397 1288 1222 1134 
Q 909 863 828 531 
L 3272 531 
L 3272 0 
L 200 0 
z
" transform="scale(0.015625)"/>
       </defs>
       <use xlink:href="#Helvetica-32"/>
       <use xlink:href="#Helvetica-30" x="55.615234"/>
      </g>
     </g>
    </g>
    <g id="ytick_6"/>
    <g id="ytick_7"/>
    <g id="ytick_8"/>
    <g id="ytick_9"/>
    <g id="ytick_10"/>
    <g id="ytick_11"/>
   </g>
   <g id="line2d_23">
    <path d="M 38.55771 152.738046 
L 67.789551 137.47663 
L 97.021392 150.557844 
L 126.253233 154.918248 
L 155.485074 154.918248 
L 184.716915 154.918248 
" clip-path="url(#p935388f141)" style="fill: none; stroke: #3949f5; stroke-width: 1.772454"/>
   </g>
   <g id="line2d_24">
    <path d="M 38.55771 128.755821 
L 67.789551 146.197439 
L 97.021392 141.837034 
L 126.253233 137.47663 
L 155.485074 154.918248 
L 184.716915 154.918248 
" clip-path="url(#p935388f141)" style="fill: none; stroke: #1c9a0e; stroke-width: 1.772454"/>
   </g>
   <g id="line2d_25">
    <path d="M 38.55771 128.755821 
L 67.789551 150.557844 
L 97.021392 146.197439 
L 126.253233 150.557844 
L 155.485074 154.918248 
L 184.716915 154.918248 
" clip-path="url(#p935388f141)" style="fill: none; stroke: #e6950a; stroke-width: 1.772454"/>
   </g>
   <g id="line2d_26">
    <path d="M 38.55771 124.395416 
L 67.789551 148.377641 
L 97.021392 141.837034 
L 126.253233 137.47663 
L 155.485074 150.557844 
L 184.716915 154.918248 
" clip-path="url(#p935388f141)" style="fill: none; stroke: #dc0d97; stroke-width: 1.772454"/>
   </g>
   <g id="PathCollection_1">
    <path d="M 38.55771 154.953613 
C 39.145286 154.953613 39.708874 154.720167 40.124353 154.304689 
C 40.539831 153.88921 40.773278 153.325621 40.773278 152.738046 
C 40.773278 152.150471 40.539831 151.586882 40.124353 151.171403 
C 39.708874 150.755925 39.145286 150.522479 38.55771 150.522479 
C 37.970135 150.522479 37.406546 150.755925 36.991068 151.171403 
C 36.575589 151.586882 36.342143 152.150471 36.342143 152.738046 
C 36.342143 153.325621 36.575589 153.88921 36.991068 154.304689 
C 37.406546 154.720167 37.970135 154.953613 38.55771 154.953613 
z
" clip-path="url(#p935388f141)" style="fill: #3949f5; stroke: #3949f5; stroke-width: 0.886227"/>
    <path d="M 38.55771 130.971388 
C 39.145286 130.971388 39.708874 130.737942 40.124353 130.322463 
C 40.539831 129.906985 40.773278 129.343396 40.773278 128.755821 
C 40.773278 128.168245 40.539831 127.604656 40.124353 127.189178 
C 39.708874 126.773699 39.145286 126.540253 38.55771 126.540253 
C 37.970135 126.540253 37.406546 126.773699 36.991068 127.189178 
C 36.575589 127.604656 36.342143 128.168245 36.342143 128.755821 
C 36.342143 129.343396 36.575589 129.906985 36.991068 130.322463 
C 37.406546 130.737942 37.970135 130.971388 38.55771 130.971388 
z
" clip-path="url(#p935388f141)" style="fill: #1c9a0e; stroke: #1c9a0e; stroke-width: 0.886227"/>
    <path d="M 38.55771 126.610983 
C 39.145286 126.610983 39.708874 126.377537 40.124353 125.962059 
C 40.539831 125.54658 40.773278 124.982991 40.773278 124.395416 
C 40.773278 123.807841 40.539831 123.244252 40.124353 122.828773 
C 39.708874 122.413295 39.145286 122.179849 38.55771 122.179849 
C 37.970135 122.179849 37.406546 122.413295 36.991068 122.828773 
C 36.575589 123.244252 36.342143 123.807841 36.342143 124.395416 
C 36.342143 124.982991 36.575589 125.54658 36.991068 125.962059 
C 37.406546 126.377537 37.970135 126.610983 38.55771 126.610983 
z
" clip-path="url(#p935388f141)" style="fill: #dc0d97; stroke: #dc0d97; stroke-width: 0.886227"/>
    <path d="M 38.55771 130.971388 
C 39.145286 130.971388 39.708874 130.737942 40.124353 130.322463 
C 40.539831 129.906985 40.773278 129.343396 40.773278 128.755821 
C 40.773278 128.168245 40.539831 127.604656 40.124353 127.189178 
C 39.708874 126.773699 39.145286 126.540253 38.55771 126.540253 
C 37.970135 126.540253 37.406546 126.773699 36.991068 127.189178 
C 36.575589 127.604656 36.342143 128.168245 36.342143 128.755821 
C 36.342143 129.343396 36.575589 129.906985 36.991068 130.322463 
C 37.406546 130.737942 37.970135 130.971388 38.55771 130.971388 
z
" clip-path="url(#p935388f141)" style="fill: #e6950a; stroke: #e6950a; stroke-width: 0.886227"/>
    <path d="M 67.789551 139.692197 
C 68.377126 139.692197 68.940715 139.458751 69.356194 139.043272 
C 69.771672 138.627794 70.005118 138.064205 70.005118 137.47663 
C 70.005118 136.889054 69.771672 136.325466 69.356194 135.909987 
C 68.940715 135.494509 68.377126 135.261062 67.789551 135.261062 
C 67.201976 135.261062 66.638387 135.494509 66.222908 135.909987 
C 65.80743 136.325466 65.573984 136.889054 65.573984 137.47663 
C 65.573984 138.064205 65.80743 138.627794 66.222908 139.043272 
C 66.638387 139.458751 67.201976 139.692197 67.789551 139.692197 
z
" clip-path="url(#p935388f141)" style="fill: #3949f5; stroke: #3949f5; stroke-width: 0.886227"/>
    <path d="M 67.789551 148.413006 
C 68.377126 148.413006 68.940715 148.17956 69.356194 147.764082 
C 69.771672 147.348603 70.005118 146.785014 70.005118 146.197439 
C 70.005118 145.609864 69.771672 145.046275 69.356194 144.630796 
C 68.940715 144.215318 68.377126 143.981872 67.789551 143.981872 
C 67.201976 143.981872 66.638387 144.215318 66.222908 144.630796 
C 65.80743 145.046275 65.573984 145.609864 65.573984 146.197439 
C 65.573984 146.785014 65.80743 147.348603 66.222908 147.764082 
C 66.638387 148.17956 67.201976 148.413006 67.789551 148.413006 
z
" clip-path="url(#p935388f141)" style="fill: #1c9a0e; stroke: #1c9a0e; stroke-width: 0.886227"/>
    <path d="M 67.789551 150.593209 
C 68.377126 150.593209 68.940715 150.359762 69.356194 149.944284 
C 69.771672 149.528805 70.005118 148.965217 70.005118 148.377641 
C 70.005118 147.790066 69.771672 147.226477 69.356194 146.810999 
C 68.940715 146.39552 68.377126 146.162074 67.789551 146.162074 
C 67.201976 146.162074 66.638387 146.39552 66.222908 146.810999 
C 65.80743 147.226477 65.573984 147.790066 65.573984 148.377641 
C 65.573984 148.965217 65.80743 149.528805 66.222908 149.944284 
C 66.638387 150.359762 67.201976 150.593209 67.789551 150.593209 
z
" clip-path="url(#p935388f141)" style="fill: #dc0d97; stroke: #dc0d97; stroke-width: 0.886227"/>
    <path d="M 67.789551 152.773411 
C 68.377126 152.773411 68.940715 152.539965 69.356194 152.124486 
C 69.771672 151.709008 70.005118 151.145419 70.005118 150.557844 
C 70.005118 149.970268 69.771672 149.406679 69.356194 148.991201 
C 68.940715 148.575722 68.377126 148.342276 67.789551 148.342276 
C 67.201976 148.342276 66.638387 148.575722 66.222908 148.991201 
C 65.80743 149.406679 65.573984 149.970268 65.573984 150.557844 
C 65.573984 151.145419 65.80743 151.709008 66.222908 152.124486 
C 66.638387 152.539965 67.201976 152.773411 67.789551 152.773411 
z
" clip-path="url(#p935388f141)" style="fill: #e6950a; stroke: #e6950a; stroke-width: 0.886227"/>
    <path d="M 97.021392 152.773411 
C 97.608967 152.773411 98.172556 152.539965 98.588035 152.124486 
C 99.003513 151.709008 99.236959 151.145419 99.236959 150.557844 
C 99.236959 149.970268 99.003513 149.406679 98.588035 148.991201 
C 98.172556 148.575722 97.608967 148.342276 97.021392 148.342276 
C 96.433817 148.342276 95.870228 148.575722 95.454749 148.991201 
C 95.039271 149.406679 94.805825 149.970268 94.805825 150.557844 
C 94.805825 151.145419 95.039271 151.709008 95.454749 152.124486 
C 95.870228 152.539965 96.433817 152.773411 97.021392 152.773411 
z
" clip-path="url(#p935388f141)" style="fill: #3949f5; stroke: #3949f5; stroke-width: 0.886227"/>
    <path d="M 97.021392 144.052602 
C 97.608967 144.052602 98.172556 143.819156 98.588035 143.403677 
C 99.003513 142.988199 99.236959 142.42461 99.236959 141.837034 
C 99.236959 141.249459 99.003513 140.68587 98.588035 140.270392 
C 98.172556 139.854913 97.608967 139.621467 97.021392 139.621467 
C 96.433817 139.621467 95.870228 139.854913 95.454749 140.270392 
C 95.039271 140.68587 94.805825 141.249459 94.805825 141.837034 
C 94.805825 142.42461 95.039271 142.988199 95.454749 143.403677 
C 95.870228 143.819156 96.433817 144.052602 97.021392 144.052602 
z
" clip-path="url(#p935388f141)" style="fill: #1c9a0e; stroke: #1c9a0e; stroke-width: 0.886227"/>
    <path d="M 97.021392 144.052602 
C 97.608967 144.052602 98.172556 143.819156 98.588035 143.403677 
C 99.003513 142.988199 99.236959 142.42461 99.236959 141.837034 
C 99.236959 141.249459 99.003513 140.68587 98.588035 140.270392 
C 98.172556 139.854913 97.608967 139.621467 97.021392 139.621467 
C 96.433817 139.621467 95.870228 139.854913 95.454749 140.270392 
C 95.039271 140.68587 94.805825 141.249459 94.805825 141.837034 
C 94.805825 142.42461 95.039271 142.988199 95.454749 143.403677 
C 95.870228 143.819156 96.433817 144.052602 97.021392 144.052602 
z
" clip-path="url(#p935388f141)" style="fill: #dc0d97; stroke: #dc0d97; stroke-width: 0.886227"/>
    <path d="M 97.021392 148.413006 
C 97.608967 148.413006 98.172556 148.17956 98.588035 147.764082 
C 99.003513 147.348603 99.236959 146.785014 99.236959 146.197439 
C 99.236959 145.609864 99.003513 145.046275 98.588035 144.630796 
C 98.172556 144.215318 97.608967 143.981872 97.021392 143.981872 
C 96.433817 143.981872 95.870228 144.215318 95.454749 144.630796 
C 95.039271 145.046275 94.805825 145.609864 94.805825 146.197439 
C 94.805825 146.785014 95.039271 147.348603 95.454749 147.764082 
C 95.870228 148.17956 96.433817 148.413006 97.021392 148.413006 
z
" clip-path="url(#p935388f141)" style="fill: #e6950a; stroke: #e6950a; stroke-width: 0.886227"/>
    <path d="M 126.253233 157.133816 
C 126.840808 157.133816 127.404397 156.900369 127.819876 156.484891 
C 128.235354 156.069412 128.4688 155.505824 128.4688 154.918248 
C 128.4688 154.330673 128.235354 153.767084 127.819876 153.351606 
C 127.404397 152.936127 126.840808 152.702681 126.253233 152.702681 
C 125.665658 152.702681 125.102069 152.936127 124.68659 153.351606 
C 124.271112 153.767084 124.037666 154.330673 124.037666 154.918248 
C 124.037666 155.505824 124.271112 156.069412 124.68659 156.484891 
C 125.102069 156.900369 125.665658 157.133816 126.253233 157.133816 
z
" clip-path="url(#p935388f141)" style="fill: #3949f5; stroke: #3949f5; stroke-width: 0.886227"/>
    <path d="M 126.253233 139.692197 
C 126.840808 139.692197 127.404397 139.458751 127.819876 139.043272 
C 128.235354 138.627794 128.4688 138.064205 128.4688 137.47663 
C 128.4688 136.889054 128.235354 136.325466 127.819876 135.909987 
C 127.404397 135.494509 126.840808 135.261062 126.253233 135.261062 
C 125.665658 135.261062 125.102069 135.494509 124.68659 135.909987 
C 124.271112 136.325466 124.037666 136.889054 124.037666 137.47663 
C 124.037666 138.064205 124.271112 138.627794 124.68659 139.043272 
C 125.102069 139.458751 125.665658 139.692197 126.253233 139.692197 
z
" clip-path="url(#p935388f141)" style="fill: #1c9a0e; stroke: #1c9a0e; stroke-width: 0.886227"/>
    <path d="M 126.253233 139.692197 
C 126.840808 139.692197 127.404397 139.458751 127.819876 139.043272 
C 128.235354 138.627794 128.4688 138.064205 128.4688 137.47663 
C 128.4688 136.889054 128.235354 136.325466 127.819876 135.909987 
C 127.404397 135.494509 126.840808 135.261062 126.253233 135.261062 
C 125.665658 135.261062 125.102069 135.494509 124.68659 135.909987 
C 124.271112 136.325466 124.037666 136.889054 124.037666 137.47663 
C 124.037666 138.064205 124.271112 138.627794 124.68659 139.043272 
C 125.102069 139.458751 125.665658 139.692197 126.253233 139.692197 
z
" clip-path="url(#p935388f141)" style="fill: #dc0d97; stroke: #dc0d97; stroke-width: 0.886227"/>
    <path d="M 126.253233 152.773411 
C 126.840808 152.773411 127.404397 152.539965 127.819876 152.124486 
C 128.235354 151.709008 128.4688 151.145419 128.4688 150.557844 
C 128.4688 149.970268 128.235354 149.406679 127.819876 148.991201 
C 127.404397 148.575722 126.840808 148.342276 126.253233 148.342276 
C 125.665658 148.342276 125.102069 148.575722 124.68659 148.991201 
C 124.271112 149.406679 124.037666 149.970268 124.037666 150.557844 
C 124.037666 151.145419 124.271112 151.709008 124.68659 152.124486 
C 125.102069 152.539965 125.665658 152.773411 126.253233 152.773411 
z
" clip-path="url(#p935388f141)" style="fill: #e6950a; stroke: #e6950a; stroke-width: 0.886227"/>
    <path d="M 155.485074 157.133816 
C 156.072649 157.133816 156.636238 156.900369 157.051717 156.484891 
C 157.467195 156.069412 157.700641 155.505824 157.700641 154.918248 
C 157.700641 154.330673 157.467195 153.767084 157.051717 153.351606 
C 156.636238 152.936127 156.072649 152.702681 155.485074 152.702681 
C 154.897499 152.702681 154.33391 152.936127 153.918431 153.351606 
C 153.502953 153.767084 153.269507 154.330673 153.269507 154.918248 
C 153.269507 155.505824 153.502953 156.069412 153.918431 156.484891 
C 154.33391 156.900369 154.897499 157.133816 155.485074 157.133816 
z
" clip-path="url(#p935388f141)" style="fill: #3949f5; stroke: #3949f5; stroke-width: 0.886227"/>
    <path d="M 155.485074 157.133816 
C 156.072649 157.133816 156.636238 156.900369 157.051717 156.484891 
C 157.467195 156.069412 157.700641 155.505824 157.700641 154.918248 
C 157.700641 154.330673 157.467195 153.767084 157.051717 153.351606 
C 156.636238 152.936127 156.072649 152.702681 155.485074 152.702681 
C 154.897499 152.702681 154.33391 152.936127 153.918431 153.351606 
C 153.502953 153.767084 153.269507 154.330673 153.269507 154.918248 
C 153.269507 155.505824 153.502953 156.069412 153.918431 156.484891 
C 154.33391 156.900369 154.897499 157.133816 155.485074 157.133816 
z
" clip-path="url(#p935388f141)" style="fill: #1c9a0e; stroke: #1c9a0e; stroke-width: 0.886227"/>
    <path d="M 155.485074 152.773411 
C 156.072649 152.773411 156.636238 152.539965 157.051717 152.124486 
C 157.467195 151.709008 157.700641 151.145419 157.700641 150.557844 
C 157.700641 149.970268 157.467195 149.406679 157.051717 148.991201 
C 156.636238 148.575722 156.072649 148.342276 155.485074 148.342276 
C 154.897499 148.342276 154.33391 148.575722 153.918431 148.991201 
C 153.502953 149.406679 153.269507 149.970268 153.269507 150.557844 
C 153.269507 151.145419 153.502953 151.709008 153.918431 152.124486 
C 154.33391 152.539965 154.897499 152.773411 155.485074 152.773411 
z
" clip-path="url(#p935388f141)" style="fill: #dc0d97; stroke: #dc0d97; stroke-width: 0.886227"/>
    <path d="M 155.485074 157.133816 
C 156.072649 157.133816 156.636238 156.900369 157.051717 156.484891 
C 157.467195 156.069412 157.700641 155.505824 157.700641 154.918248 
C 157.700641 154.330673 157.467195 153.767084 157.051717 153.351606 
C 156.636238 152.936127 156.072649 152.702681 155.485074 152.702681 
C 154.897499 152.702681 154.33391 152.936127 153.918431 153.351606 
C 153.502953 153.767084 153.269507 154.330673 153.269507 154.918248 
C 153.269507 155.505824 153.502953 156.069412 153.918431 156.484891 
C 154.33391 156.900369 154.897499 157.133816 155.485074 157.133816 
z
" clip-path="url(#p935388f141)" style="fill: #e6950a; stroke: #e6950a; stroke-width: 0.886227"/>
    <path d="M 184.716915 157.133816 
C 185.30449 157.133816 185.868079 156.900369 186.283557 156.484891 
C 186.699036 156.069412 186.932482 155.505824 186.932482 154.918248 
C 186.932482 154.330673 186.699036 153.767084 186.283557 153.351606 
C 185.868079 152.936127 185.30449 152.702681 184.716915 152.702681 
C 184.129339 152.702681 183.565751 152.936127 183.150272 153.351606 
C 182.734794 153.767084 182.501347 154.330673 182.501347 154.918248 
C 182.501347 155.505824 182.734794 156.069412 183.150272 156.484891 
C 183.565751 156.900369 184.129339 157.133816 184.716915 157.133816 
z
" clip-path="url(#p935388f141)" style="fill: #3949f5; stroke: #3949f5; stroke-width: 0.886227"/>
    <path d="M 184.716915 157.133816 
C 185.30449 157.133816 185.868079 156.900369 186.283557 156.484891 
C 186.699036 156.069412 186.932482 155.505824 186.932482 154.918248 
C 186.932482 154.330673 186.699036 153.767084 186.283557 153.351606 
C 185.868079 152.936127 185.30449 152.702681 184.716915 152.702681 
C 184.129339 152.702681 183.565751 152.936127 183.150272 153.351606 
C 182.734794 153.767084 182.501347 154.330673 182.501347 154.918248 
C 182.501347 155.505824 182.734794 156.069412 183.150272 156.484891 
C 183.565751 156.900369 184.129339 157.133816 184.716915 157.133816 
z
" clip-path="url(#p935388f141)" style="fill: #1c9a0e; stroke: #1c9a0e; stroke-width: 0.886227"/>
    <path d="M 184.716915 157.133816 
C 185.30449 157.133816 185.868079 156.900369 186.283557 156.484891 
C 186.699036 156.069412 186.932482 155.505824 186.932482 154.918248 
C 186.932482 154.330673 186.699036 153.767084 186.283557 153.351606 
C 185.868079 152.936127 185.30449 152.702681 184.716915 152.702681 
C 184.129339 152.702681 183.565751 152.936127 183.150272 153.351606 
C 182.734794 153.767084 182.501347 154.330673 182.501347 154.918248 
C 182.501347 155.505824 182.734794 156.069412 183.150272 156.484891 
C 183.565751 156.900369 184.129339 157.133816 184.716915 157.133816 
z
" clip-path="url(#p935388f141)" style="fill: #dc0d97; stroke: #dc0d97; stroke-width: 0.886227"/>
    <path d="M 184.716915 157.133816 
C 185.30449 157.133816 185.868079 156.900369 186.283557 156.484891 
C 186.699036 156.069412 186.932482 155.505824 186.932482 154.918248 
C 186.932482 154.330673 186.699036 153.767084 186.283557 153.351606 
C 185.868079 152.936127 185.30449 152.702681 184.716915 152.702681 
C 184.129339 152.702681 183.565751 152.936127 183.150272 153.351606 
C 182.734794 153.767084 182.501347 154.330673 182.501347 154.918248 
C 182.501347 155.505824 182.734794 156.069412 183.150272 156.484891 
C 183.565751 156.900369 184.129339 157.133816 184.716915 157.133816 
z
" clip-path="url(#p935388f141)" style="fill: #e6950a; stroke: #e6950a; stroke-width: 0.886227"/>
   </g>
   <g id="PolyCollection_1">
    <path d="M 38.55771 139.773452 
L 38.55771 165.70264 
L 67.789551 150.324934 
L 97.021392 159.936645 
L 126.253233 161.664232 
L 155.485074 158.398661 
L 184.716915 156.600469 
L 184.716915 153.236028 
L 184.716915 153.236028 
L 155.485074 151.437835 
L 126.253233 148.172265 
L 97.021392 141.179042 
L 67.789551 124.628326 
L 38.55771 139.773452 
z
" clip-path="url(#p935388f141)" style="fill: #3949f5; fill-opacity: 0.14902"/>
   </g>
   <g id="line2d_27"/>
   <g id="line2d_28"/>
   <g id="PolyCollection_2">
    <path d="M 38.55771 114.26915 
L 38.55771 143.242491 
L 67.789551 157.596989 
L 97.021392 151.831278 
L 126.253233 144.314943 
L 155.485074 158.737109 
L 184.716915 156.992258 
L 184.716915 152.844239 
L 184.716915 152.844239 
L 155.485074 151.099387 
L 126.253233 130.638316 
L 97.021392 131.842791 
L 67.789551 134.797889 
L 38.55771 114.26915 
z
" clip-path="url(#p935388f141)" style="fill: #1c9a0e; fill-opacity: 0.14902"/>
   </g>
   <g id="line2d_29"/>
   <g id="line2d_30"/>
   <g id="PolyCollection_3">
    <path d="M 38.55771 112.801738 
L 38.55771 144.709903 
L 67.789551 167.108613 
L 97.021392 154.249793 
L 126.253233 156.783202 
L 155.485074 158.264568 
L 184.716915 157.247434 
L 184.716915 152.589063 
L 184.716915 152.589063 
L 155.485074 151.571928 
L 126.253233 144.332485 
L 97.021392 138.145085 
L 67.789551 134.007074 
L 38.55771 112.801738 
z
" clip-path="url(#p935388f141)" style="fill: #e6950a; fill-opacity: 0.14902"/>
   </g>
   <g id="line2d_31"/>
   <g id="line2d_32"/>
   <g id="PolyCollection_4">
    <path d="M 38.55771 107.143483 
L 38.55771 141.647349 
L 67.789551 158.319361 
L 97.021392 155.123595 
L 126.253233 146.734378 
L 155.485074 154.862213 
L 184.716915 157.70249 
L 184.716915 152.134007 
L 184.716915 152.134007 
L 155.485074 146.253475 
L 126.253233 128.218882 
L 97.021392 128.550474 
L 67.789551 138.435922 
L 38.55771 107.143483 
z
" clip-path="url(#p935388f141)" style="fill: #dc0d97; fill-opacity: 0.14902"/>
   </g>
   <g id="line2d_33"/>
   <g id="line2d_34"/>
   <g id="LineCollection_1">
    <path d="M 31.24975 40.457627 
L 192.024875 160.368754 
" clip-path="url(#p935388f141)" style="fill: none; stroke-dasharray: 3.27904,1.417963; stroke-dashoffset: 0; stroke: #000000; stroke-opacity: 0.501961; stroke-width: 0.886227"/>
   </g>
  </g>
  <g id="axes_2">
   <g id="patch_3">
    <path d="M 195.624875 172.863616 
L 356.4 172.863616 
L 356.4 46.253542 
L 195.624875 46.253542 
z
" style="fill: #ffffff"/>
   </g>
   <g id="matplotlib.axis_3">
    <g id="xtick_12">
     <g id="line2d_35">
      <path d="M 202.932835 172.863616 
L 202.932835 46.253542 
" clip-path="url(#pcad9e62474)" style="fill: none; stroke: #e5e5e5; stroke-linecap: square"/>
     </g>
     <g id="line2d_36">
      <path d="M 202.932835 172.863616 
" style="fill: none; stroke: #333333; stroke-width: 1.5; stroke-linecap: square"/>
      <g>
       <use xlink:href="#mc34794c2d9" x="202.932835" y="172.863616" style="fill: #333333; stroke: #333333"/>
      </g>
     </g>
     <g id="text_12">
      <!-- &lt; 75 -->
      <g style="fill: #4d4d4d" transform="translate(189.352142 194.360999) rotate(-45) scale(0.088 -0.088)">
       <use xlink:href="#Helvetica-3c"/>
       <use xlink:href="#Helvetica-20" x="58.398438"/>
       <use xlink:href="#Helvetica-37" x="86.181641"/>
       <use xlink:href="#Helvetica-35" x="141.796875"/>
      </g>
     </g>
    </g>
    <g id="xtick_13">
     <g id="line2d_37">
      <path d="M 232.164676 172.863616 
L 232.164676 46.253542 
" clip-path="url(#pcad9e62474)" style="fill: none; stroke: #e5e5e5; stroke-linecap: square"/>
     </g>
     <g id="line2d_38">
      <path d="M 232.164676 172.863616 
" style="fill: none; stroke: #333333; stroke-width: 1.5; stroke-linecap: square"/>
      <g>
       <use xlink:href="#mc34794c2d9" x="232.164676" y="172.863616" style="fill: #333333; stroke: #333333"/>
      </g>
     </g>
     <g id="text_13">
      <!-- 75-80 -->
      <g style="fill: #4d4d4d" transform="translate(214.954493 197.990489) rotate(-45) scale(0.088 -0.088)">
       <use xlink:href="#Helvetica-37"/>
       <use xlink:href="#Helvetica-35" x="55.615234"/>
       <use xlink:href="#Helvetica-2d" x="111.230469"/>
       <use xlink:href="#Helvetica-38" x="144.53125"/>
       <use xlink:href="#Helvetica-30" x="200.146484"/>
      </g>
     </g>
    </g>
    <g id="xtick_14">
     <g id="line2d_39">
      <path d="M 261.396517 172.863616 
L 261.396517 46.253542 
" clip-path="url(#pcad9e62474)" style="fill: none; stroke: #e5e5e5; stroke-linecap: square"/>
     </g>
     <g id="line2d_40">
      <path d="M 261.396517 172.863616 
" style="fill: none; stroke: #333333; stroke-width: 1.5; stroke-linecap: square"/>
      <g>
       <use xlink:href="#mc34794c2d9" x="261.396517" y="172.863616" style="fill: #333333; stroke: #333333"/>
      </g>
     </g>
     <g id="text_14">
      <!-- 80-85 -->
      <g style="fill: #4d4d4d" transform="translate(244.186333 197.990489) rotate(-45) scale(0.088 -0.088)">
       <use xlink:href="#Helvetica-38"/>
       <use xlink:href="#Helvetica-30" x="55.615234"/>
       <use xlink:href="#Helvetica-2d" x="111.230469"/>
       <use xlink:href="#Helvetica-38" x="144.53125"/>
       <use xlink:href="#Helvetica-35" x="200.146484"/>
      </g>
     </g>
    </g>
    <g id="xtick_15">
     <g id="line2d_41">
      <path d="M 290.628358 172.863616 
L 290.628358 46.253542 
" clip-path="url(#pcad9e62474)" style="fill: none; stroke: #e5e5e5; stroke-linecap: square"/>
     </g>
     <g id="line2d_42">
      <path d="M 290.628358 172.863616 
" style="fill: none; stroke: #333333; stroke-width: 1.5; stroke-linecap: square"/>
      <g>
       <use xlink:href="#mc34794c2d9" x="290.628358" y="172.863616" style="fill: #333333; stroke: #333333"/>
      </g>
     </g>
     <g id="text_15">
      <!-- 85-90 -->
      <g style="fill: #4d4d4d" transform="translate(273.418174 197.990489) rotate(-45) scale(0.088 -0.088)">
       <use xlink:href="#Helvetica-38"/>
       <use xlink:href="#Helvetica-35" x="55.615234"/>
       <use xlink:href="#Helvetica-2d" x="111.230469"/>
       <use xlink:href="#Helvetica-39" x="144.53125"/>
       <use xlink:href="#Helvetica-30" x="200.146484"/>
      </g>
     </g>
    </g>
    <g id="xtick_16">
     <g id="line2d_43">
      <path d="M 319.860199 172.863616 
L 319.860199 46.253542 
" clip-path="url(#pcad9e62474)" style="fill: none; stroke: #e5e5e5; stroke-linecap: square"/>
     </g>
     <g id="line2d_44">
      <path d="M 319.860199 172.863616 
" style="fill: none; stroke: #333333; stroke-width: 1.5; stroke-linecap: square"/>
      <g>
       <use xlink:href="#mc34794c2d9" x="319.860199" y="172.863616" style="fill: #333333; stroke: #333333"/>
      </g>
     </g>
     <g id="text_16">
      <!-- 90-95 -->
      <g style="fill: #4d4d4d" transform="translate(302.650015 197.990489) rotate(-45) scale(0.088 -0.088)">
       <use xlink:href="#Helvetica-39"/>
       <use xlink:href="#Helvetica-30" x="55.615234"/>
       <use xlink:href="#Helvetica-2d" x="111.230469"/>
       <use xlink:href="#Helvetica-39" x="144.53125"/>
       <use xlink:href="#Helvetica-35" x="200.146484"/>
      </g>
     </g>
    </g>
    <g id="xtick_17">
     <g id="line2d_45">
      <path d="M 349.09204 172.863616 
L 349.09204 46.253542 
" clip-path="url(#pcad9e62474)" style="fill: none; stroke: #e5e5e5; stroke-linecap: square"/>
     </g>
     <g id="line2d_46">
      <path d="M 349.09204 172.863616 
" style="fill: none; stroke: #333333; stroke-width: 1.5; stroke-linecap: square"/>
      <g>
       <use xlink:href="#mc34794c2d9" x="349.09204" y="172.863616" style="fill: #333333; stroke: #333333"/>
      </g>
     </g>
     <g id="text_17">
      <!-- &gt; 95 -->
      <g style="fill: #4d4d4d" transform="translate(335.511347 194.360999) rotate(-45) scale(0.088 -0.088)">
       <use xlink:href="#Helvetica-3e"/>
       <use xlink:href="#Helvetica-20" x="58.398438"/>
       <use xlink:href="#Helvetica-39" x="86.181641"/>
       <use xlink:href="#Helvetica-35" x="141.796875"/>
      </g>
     </g>
    </g>
    <g id="xtick_18"/>
    <g id="xtick_19"/>
    <g id="xtick_20"/>
    <g id="xtick_21"/>
    <g id="xtick_22"/>
   </g>
   <g id="matplotlib.axis_4">
    <g id="ytick_12">
     <g id="line2d_47">
      <path d="M 195.624875 154.918248 
L 356.4 154.918248 
" clip-path="url(#pcad9e62474)" style="fill: none; stroke: #e5e5e5; stroke-linecap: square"/>
     </g>
    </g>
    <g id="ytick_13">
     <g id="line2d_48">
      <path d="M 195.624875 133.116225 
L 356.4 133.116225 
" clip-path="url(#pcad9e62474)" style="fill: none; stroke: #e5e5e5; stroke-linecap: square"/>
     </g>
    </g>
    <g id="ytick_14">
     <g id="line2d_49">
      <path d="M 195.624875 111.314202 
L 356.4 111.314202 
" clip-path="url(#pcad9e62474)" style="fill: none; stroke: #e5e5e5; stroke-linecap: square"/>
     </g>
    </g>
    <g id="ytick_15">
     <g id="line2d_50">
      <path d="M 195.624875 89.512179 
L 356.4 89.512179 
" clip-path="url(#pcad9e62474)" style="fill: none; stroke: #e5e5e5; stroke-linecap: square"/>
     </g>
    </g>
    <g id="ytick_16">
     <g id="line2d_51">
      <path d="M 195.624875 67.710156 
L 356.4 67.710156 
" clip-path="url(#pcad9e62474)" style="fill: none; stroke: #e5e5e5; stroke-linecap: square"/>
     </g>
    </g>
    <g id="ytick_17"/>
    <g id="ytick_18"/>
    <g id="ytick_19"/>
    <g id="ytick_20"/>
    <g id="ytick_21"/>
    <g id="ytick_22"/>
   </g>
   <g id="line2d_52">
    <path d="M 202.932835 87.331977 
L 232.164676 93.872584 
L 261.396517 113.494404 
L 290.628358 150.557844 
L 319.860199 150.557844 
L 349.09204 154.918248 
" clip-path="url(#pcad9e62474)" style="fill: none; stroke: #3949f5; stroke-width: 1.772454"/>
   </g>
   <g id="line2d_53">
    <path d="M 202.932835 67.710156 
L 232.164676 102.593393 
L 261.396517 117.854809 
L 290.628358 141.837034 
L 319.860199 144.017237 
L 349.09204 154.918248 
" clip-path="url(#pcad9e62474)" style="fill: none; stroke: #1c9a0e; stroke-width: 1.772454"/>
   </g>
   <g id="line2d_54">
    <path d="M 202.932835 76.430965 
L 232.164676 98.232988 
L 261.396517 124.395416 
L 290.628358 154.918248 
L 319.860199 152.738046 
L 349.09204 154.918248 
" clip-path="url(#pcad9e62474)" style="fill: none; stroke: #e6950a; stroke-width: 1.772454"/>
   </g>
   <g id="line2d_55">
    <path d="M 202.932835 72.070561 
L 232.164676 91.692381 
L 261.396517 124.395416 
L 290.628358 148.377641 
L 319.860199 154.918248 
L 349.09204 154.918248 
" clip-path="url(#pcad9e62474)" style="fill: none; stroke: #dc0d97; stroke-width: 1.772454"/>
   </g>
   <g id="PathCollection_2">
    <path d="M 202.932835 89.547544 
C 203.520411 89.547544 204.083999 89.314098 204.499478 88.898619 
C 204.914956 88.483141 205.148403 87.919552 205.148403 87.331977 
C 205.148403 86.744401 204.914956 86.180813 204.499478 85.765334 
C 204.083999 85.349856 203.520411 85.116409 202.932835 85.116409 
C 202.34526 85.116409 201.781671 85.349856 201.366193 85.765334 
C 200.950714 86.180813 200.717268 86.744401 200.717268 87.331977 
C 200.717268 87.919552 200.950714 88.483141 201.366193 88.898619 
C 201.781671 89.314098 202.34526 89.547544 202.932835 89.547544 
z
" clip-path="url(#pcad9e62474)" style="fill: #3949f5; stroke: #3949f5; stroke-width: 0.886227"/>
    <path d="M 202.932835 69.925723 
C 203.520411 69.925723 204.083999 69.692277 204.499478 69.276799 
C 204.914956 68.86132 205.148403 68.297731 205.148403 67.710156 
C 205.148403 67.122581 204.914956 66.558992 204.499478 66.143513 
C 204.083999 65.728035 203.520411 65.494589 202.932835 65.494589 
C 202.34526 65.494589 201.781671 65.728035 201.366193 66.143513 
C 200.950714 66.558992 200.717268 67.122581 200.717268 67.710156 
C 200.717268 68.297731 200.950714 68.86132 201.366193 69.276799 
C 201.781671 69.692277 202.34526 69.925723 202.932835 69.925723 
z
" clip-path="url(#pcad9e62474)" style="fill: #1c9a0e; stroke: #1c9a0e; stroke-width: 0.886227"/>
    <path d="M 202.932835 74.286128 
C 203.520411 74.286128 204.083999 74.052682 204.499478 73.637203 
C 204.914956 73.221725 205.148403 72.658136 205.148403 72.070561 
C 205.148403 71.482985 204.914956 70.919396 204.499478 70.503918 
C 204.083999 70.088439 203.520411 69.854993 202.932835 69.854993 
C 202.34526 69.854993 201.781671 70.088439 201.366193 70.503918 
C 200.950714 70.919396 200.717268 71.482985 200.717268 72.070561 
C 200.717268 72.658136 200.950714 73.221725 201.366193 73.637203 
C 201.781671 74.052682 202.34526 74.286128 202.932835 74.286128 
z
" clip-path="url(#pcad9e62474)" style="fill: #dc0d97; stroke: #dc0d97; stroke-width: 0.886227"/>
    <path d="M 202.932835 78.646533 
C 203.520411 78.646533 204.083999 78.413086 204.499478 77.997608 
C 204.914956 77.582129 205.148403 77.018541 205.148403 76.430965 
C 205.148403 75.84339 204.914956 75.279801 204.499478 74.864323 
C 204.083999 74.448844 203.520411 74.215398 202.932835 74.215398 
C 202.34526 74.215398 201.781671 74.448844 201.366193 74.864323 
C 200.950714 75.279801 200.717268 75.84339 200.717268 76.430965 
C 200.717268 77.018541 200.950714 77.582129 201.366193 77.997608 
C 201.781671 78.413086 202.34526 78.646533 202.932835 78.646533 
z
" clip-path="url(#pcad9e62474)" style="fill: #e6950a; stroke: #e6950a; stroke-width: 0.886227"/>
    <path d="M 232.164676 96.088151 
C 232.752251 96.088151 233.31584 95.854705 233.731319 95.439226 
C 234.146797 95.023748 234.380243 94.460159 234.380243 93.872584 
C 234.380243 93.285008 234.146797 92.72142 233.731319 92.305941 
C 233.31584 91.890463 232.752251 91.657016 232.164676 91.657016 
C 231.577101 91.657016 231.013512 91.890463 230.598033 92.305941 
C 230.182555 92.72142 229.949109 93.285008 229.949109 93.872584 
C 229.949109 94.460159 230.182555 95.023748 230.598033 95.439226 
C 231.013512 95.854705 231.577101 96.088151 232.164676 96.088151 
z
" clip-path="url(#pcad9e62474)" style="fill: #3949f5; stroke: #3949f5; stroke-width: 0.886227"/>
    <path d="M 232.164676 104.80896 
C 232.752251 104.80896 233.31584 104.575514 233.731319 104.160036 
C 234.146797 103.744557 234.380243 103.180968 234.380243 102.593393 
C 234.380243 102.005818 234.146797 101.442229 233.731319 101.02675 
C 233.31584 100.611272 232.752251 100.377826 232.164676 100.377826 
C 231.577101 100.377826 231.013512 100.611272 230.598033 101.02675 
C 230.182555 101.442229 229.949109 102.005818 229.949109 102.593393 
C 229.949109 103.180968 230.182555 103.744557 230.598033 104.160036 
C 231.013512 104.575514 231.577101 104.80896 232.164676 104.80896 
z
" clip-path="url(#pcad9e62474)" style="fill: #1c9a0e; stroke: #1c9a0e; stroke-width: 0.886227"/>
    <path d="M 232.164676 93.907949 
C 232.752251 93.907949 233.31584 93.674503 233.731319 93.259024 
C 234.146797 92.843546 234.380243 92.279957 234.380243 91.692381 
C 234.380243 91.104806 234.146797 90.541217 233.731319 90.125739 
C 233.31584 89.71026 232.752251 89.476814 232.164676 89.476814 
C 231.577101 89.476814 231.013512 89.71026 230.598033 90.125739 
C 230.182555 90.541217 229.949109 91.104806 229.949109 91.692381 
C 229.949109 92.279957 230.182555 92.843546 230.598033 93.259024 
C 231.013512 93.674503 231.577101 93.907949 232.164676 93.907949 
z
" clip-path="url(#pcad9e62474)" style="fill: #dc0d97; stroke: #dc0d97; stroke-width: 0.886227"/>
    <path d="M 232.164676 100.448556 
C 232.752251 100.448556 233.31584 100.215109 233.731319 99.799631 
C 234.146797 99.384152 234.380243 98.820564 234.380243 98.232988 
C 234.380243 97.645413 234.146797 97.081824 233.731319 96.666346 
C 233.31584 96.250867 232.752251 96.017421 232.164676 96.017421 
C 231.577101 96.017421 231.013512 96.250867 230.598033 96.666346 
C 230.182555 97.081824 229.949109 97.645413 229.949109 98.232988 
C 229.949109 98.820564 230.182555 99.384152 230.598033 99.799631 
C 231.013512 100.215109 231.577101 100.448556 232.164676 100.448556 
z
" clip-path="url(#pcad9e62474)" style="fill: #e6950a; stroke: #e6950a; stroke-width: 0.886227"/>
    <path d="M 261.396517 115.709972 
C 261.984092 115.709972 262.547681 115.476526 262.96316 115.061047 
C 263.378638 114.645569 263.612084 114.08198 263.612084 113.494404 
C 263.612084 112.906829 263.378638 112.34324 262.96316 111.927762 
C 262.547681 111.512283 261.984092 111.278837 261.396517 111.278837 
C 260.808942 111.278837 260.245353 111.512283 259.829874 111.927762 
C 259.414396 112.34324 259.18095 112.906829 259.18095 113.494404 
C 259.18095 114.08198 259.414396 114.645569 259.829874 115.061047 
C 260.245353 115.476526 260.808942 115.709972 261.396517 115.709972 
z
" clip-path="url(#pcad9e62474)" style="fill: #3949f5; stroke: #3949f5; stroke-width: 0.886227"/>
    <path d="M 261.396517 120.070376 
C 261.984092 120.070376 262.547681 119.83693 262.96316 119.421452 
C 263.378638 119.005973 263.612084 118.442384 263.612084 117.854809 
C 263.612084 117.267234 263.378638 116.703645 262.96316 116.288166 
C 262.547681 115.872688 261.984092 115.639242 261.396517 115.639242 
C 260.808942 115.639242 260.245353 115.872688 259.829874 116.288166 
C 259.414396 116.703645 259.18095 117.267234 259.18095 117.854809 
C 259.18095 118.442384 259.414396 119.005973 259.829874 119.421452 
C 260.245353 119.83693 260.808942 120.070376 261.396517 120.070376 
z
" clip-path="url(#pcad9e62474)" style="fill: #1c9a0e; stroke: #1c9a0e; stroke-width: 0.886227"/>
    <path d="M 261.396517 126.610983 
C 261.984092 126.610983 262.547681 126.377537 262.96316 125.962059 
C 263.378638 125.54658 263.612084 124.982991 263.612084 124.395416 
C 263.612084 123.807841 263.378638 123.244252 262.96316 122.828773 
C 262.547681 122.413295 261.984092 122.179849 261.396517 122.179849 
C 260.808942 122.179849 260.245353 122.413295 259.829874 122.828773 
C 259.414396 123.244252 259.18095 123.807841 259.18095 124.395416 
C 259.18095 124.982991 259.414396 125.54658 259.829874 125.962059 
C 260.245353 126.377537 260.808942 126.610983 261.396517 126.610983 
z
" clip-path="url(#pcad9e62474)" style="fill: #dc0d97; stroke: #dc0d97; stroke-width: 0.886227"/>
    <path d="M 261.396517 126.610983 
C 261.984092 126.610983 262.547681 126.377537 262.96316 125.962059 
C 263.378638 125.54658 263.612084 124.982991 263.612084 124.395416 
C 263.612084 123.807841 263.378638 123.244252 262.96316 122.828773 
C 262.547681 122.413295 261.984092 122.179849 261.396517 122.179849 
C 260.808942 122.179849 260.245353 122.413295 259.829874 122.828773 
C 259.414396 123.244252 259.18095 123.807841 259.18095 124.395416 
C 259.18095 124.982991 259.414396 125.54658 259.829874 125.962059 
C 260.245353 126.377537 260.808942 126.610983 261.396517 126.610983 
z
" clip-path="url(#pcad9e62474)" style="fill: #e6950a; stroke: #e6950a; stroke-width: 0.886227"/>
    <path d="M 290.628358 152.773411 
C 291.215933 152.773411 291.779522 152.539965 292.195001 152.124486 
C 292.610479 151.709008 292.843925 151.145419 292.843925 150.557844 
C 292.843925 149.970268 292.610479 149.406679 292.195001 148.991201 
C 291.779522 148.575722 291.215933 148.342276 290.628358 148.342276 
C 290.040783 148.342276 289.477194 148.575722 289.061715 148.991201 
C 288.646237 149.406679 288.412791 149.970268 288.412791 150.557844 
C 288.412791 151.145419 288.646237 151.709008 289.061715 152.124486 
C 289.477194 152.539965 290.040783 152.773411 290.628358 152.773411 
z
" clip-path="url(#pcad9e62474)" style="fill: #3949f5; stroke: #3949f5; stroke-width: 0.886227"/>
    <path d="M 290.628358 144.052602 
C 291.215933 144.052602 291.779522 143.819156 292.195001 143.403677 
C 292.610479 142.988199 292.843925 142.42461 292.843925 141.837034 
C 292.843925 141.249459 292.610479 140.68587 292.195001 140.270392 
C 291.779522 139.854913 291.215933 139.621467 290.628358 139.621467 
C 290.040783 139.621467 289.477194 139.854913 289.061715 140.270392 
C 288.646237 140.68587 288.412791 141.249459 288.412791 141.837034 
C 288.412791 142.42461 288.646237 142.988199 289.061715 143.403677 
C 289.477194 143.819156 290.040783 144.052602 290.628358 144.052602 
z
" clip-path="url(#pcad9e62474)" style="fill: #1c9a0e; stroke: #1c9a0e; stroke-width: 0.886227"/>
    <path d="M 290.628358 150.593209 
C 291.215933 150.593209 291.779522 150.359762 292.195001 149.944284 
C 292.610479 149.528805 292.843925 148.965217 292.843925 148.377641 
C 292.843925 147.790066 292.610479 147.226477 292.195001 146.810999 
C 291.779522 146.39552 291.215933 146.162074 290.628358 146.162074 
C 290.040783 146.162074 289.477194 146.39552 289.061715 146.810999 
C 288.646237 147.226477 288.412791 147.790066 288.412791 148.377641 
C 288.412791 148.965217 288.646237 149.528805 289.061715 149.944284 
C 289.477194 150.359762 290.040783 150.593209 290.628358 150.593209 
z
" clip-path="url(#pcad9e62474)" style="fill: #dc0d97; stroke: #dc0d97; stroke-width: 0.886227"/>
    <path d="M 290.628358 157.133816 
C 291.215933 157.133816 291.779522 156.900369 292.195001 156.484891 
C 292.610479 156.069412 292.843925 155.505824 292.843925 154.918248 
C 292.843925 154.330673 292.610479 153.767084 292.195001 153.351606 
C 291.779522 152.936127 291.215933 152.702681 290.628358 152.702681 
C 290.040783 152.702681 289.477194 152.936127 289.061715 153.351606 
C 288.646237 153.767084 288.412791 154.330673 288.412791 154.918248 
C 288.412791 155.505824 288.646237 156.069412 289.061715 156.484891 
C 289.477194 156.900369 290.040783 157.133816 290.628358 157.133816 
z
" clip-path="url(#pcad9e62474)" style="fill: #e6950a; stroke: #e6950a; stroke-width: 0.886227"/>
    <path d="M 319.860199 152.773411 
C 320.447774 152.773411 321.011363 152.539965 321.426842 152.124486 
C 321.84232 151.709008 322.075766 151.145419 322.075766 150.557844 
C 322.075766 149.970268 321.84232 149.406679 321.426842 148.991201 
C 321.011363 148.575722 320.447774 148.342276 319.860199 148.342276 
C 319.272624 148.342276 318.709035 148.575722 318.293556 148.991201 
C 317.878078 149.406679 317.644632 149.970268 317.644632 150.557844 
C 317.644632 151.145419 317.878078 151.709008 318.293556 152.124486 
C 318.709035 152.539965 319.272624 152.773411 319.860199 152.773411 
z
" clip-path="url(#pcad9e62474)" style="fill: #3949f5; stroke: #3949f5; stroke-width: 0.886227"/>
    <path d="M 319.860199 146.232804 
C 320.447774 146.232804 321.011363 145.999358 321.426842 145.583879 
C 321.84232 145.168401 322.075766 144.604812 322.075766 144.017237 
C 322.075766 143.429661 321.84232 142.866073 321.426842 142.450594 
C 321.011363 142.035116 320.447774 141.801669 319.860199 141.801669 
C 319.272624 141.801669 318.709035 142.035116 318.293556 142.450594 
C 317.878078 142.866073 317.644632 143.429661 317.644632 144.017237 
C 317.644632 144.604812 317.878078 145.168401 318.293556 145.583879 
C 318.709035 145.999358 319.272624 146.232804 319.860199 146.232804 
z
" clip-path="url(#pcad9e62474)" style="fill: #1c9a0e; stroke: #1c9a0e; stroke-width: 0.886227"/>
    <path d="M 319.860199 157.133816 
C 320.447774 157.133816 321.011363 156.900369 321.426842 156.484891 
C 321.84232 156.069412 322.075766 155.505824 322.075766 154.918248 
C 322.075766 154.330673 321.84232 153.767084 321.426842 153.351606 
C 321.011363 152.936127 320.447774 152.702681 319.860199 152.702681 
C 319.272624 152.702681 318.709035 152.936127 318.293556 153.351606 
C 317.878078 153.767084 317.644632 154.330673 317.644632 154.918248 
C 317.644632 155.505824 317.878078 156.069412 318.293556 156.484891 
C 318.709035 156.900369 319.272624 157.133816 319.860199 157.133816 
z
" clip-path="url(#pcad9e62474)" style="fill: #dc0d97; stroke: #dc0d97; stroke-width: 0.886227"/>
    <path d="M 319.860199 154.953613 
C 320.447774 154.953613 321.011363 154.720167 321.426842 154.304689 
C 321.84232 153.88921 322.075766 153.325621 322.075766 152.738046 
C 322.075766 152.150471 321.84232 151.586882 321.426842 151.171403 
C 321.011363 150.755925 320.447774 150.522479 319.860199 150.522479 
C 319.272624 150.522479 318.709035 150.755925 318.293556 151.171403 
C 317.878078 151.586882 317.644632 152.150471 317.644632 152.738046 
C 317.644632 153.325621 317.878078 153.88921 318.293556 154.304689 
C 318.709035 154.720167 319.272624 154.953613 319.860199 154.953613 
z
" clip-path="url(#pcad9e62474)" style="fill: #e6950a; stroke: #e6950a; stroke-width: 0.886227"/>
    <path d="M 349.09204 157.133816 
C 349.679615 157.133816 350.243204 156.900369 350.658682 156.484891 
C 351.074161 156.069412 351.307607 155.505824 351.307607 154.918248 
C 351.307607 154.330673 351.074161 153.767084 350.658682 153.351606 
C 350.243204 152.936127 349.679615 152.702681 349.09204 152.702681 
C 348.504464 152.702681 347.940876 152.936127 347.525397 153.351606 
C 347.109919 153.767084 346.876472 154.330673 346.876472 154.918248 
C 346.876472 155.505824 347.109919 156.069412 347.525397 156.484891 
C 347.940876 156.900369 348.504464 157.133816 349.09204 157.133816 
z
" clip-path="url(#pcad9e62474)" style="fill: #3949f5; stroke: #3949f5; stroke-width: 0.886227"/>
    <path d="M 349.09204 157.133816 
C 349.679615 157.133816 350.243204 156.900369 350.658682 156.484891 
C 351.074161 156.069412 351.307607 155.505824 351.307607 154.918248 
C 351.307607 154.330673 351.074161 153.767084 350.658682 153.351606 
C 350.243204 152.936127 349.679615 152.702681 349.09204 152.702681 
C 348.504464 152.702681 347.940876 152.936127 347.525397 153.351606 
C 347.109919 153.767084 346.876472 154.330673 346.876472 154.918248 
C 346.876472 155.505824 347.109919 156.069412 347.525397 156.484891 
C 347.940876 156.900369 348.504464 157.133816 349.09204 157.133816 
z
" clip-path="url(#pcad9e62474)" style="fill: #1c9a0e; stroke: #1c9a0e; stroke-width: 0.886227"/>
    <path d="M 349.09204 157.133816 
C 349.679615 157.133816 350.243204 156.900369 350.658682 156.484891 
C 351.074161 156.069412 351.307607 155.505824 351.307607 154.918248 
C 351.307607 154.330673 351.074161 153.767084 350.658682 153.351606 
C 350.243204 152.936127 349.679615 152.702681 349.09204 152.702681 
C 348.504464 152.702681 347.940876 152.936127 347.525397 153.351606 
C 347.109919 153.767084 346.876472 154.330673 346.876472 154.918248 
C 346.876472 155.505824 347.109919 156.069412 347.525397 156.484891 
C 347.940876 156.900369 348.504464 157.133816 349.09204 157.133816 
z
" clip-path="url(#pcad9e62474)" style="fill: #dc0d97; stroke: #dc0d97; stroke-width: 0.886227"/>
    <path d="M 349.09204 157.133816 
C 349.679615 157.133816 350.243204 156.900369 350.658682 156.484891 
C 351.074161 156.069412 351.307607 155.505824 351.307607 154.918248 
C 351.307607 154.330673 351.074161 153.767084 350.658682 153.351606 
C 350.243204 152.936127 349.679615 152.702681 349.09204 152.702681 
C 348.504464 152.702681 347.940876 152.936127 347.525397 153.351606 
C 347.109919 153.767084 346.876472 154.330673 346.876472 154.918248 
C 346.876472 155.505824 347.109919 156.069412 347.525397 156.484891 
C 347.940876 156.900369 348.504464 157.133816 349.09204 157.133816 
z
" clip-path="url(#pcad9e62474)" style="fill: #e6950a; stroke: #e6950a; stroke-width: 0.886227"/>
   </g>
   <g id="PolyCollection_5">
    <path d="M 202.932835 73.745193 
L 202.932835 100.918761 
L 232.164676 106.995314 
L 261.396517 124.067095 
L 290.628358 156.671693 
L 319.860199 155.155721 
L 349.09204 158.295789 
L 349.09204 151.540708 
L 349.09204 151.540708 
L 319.860199 145.959966 
L 290.628358 144.443994 
L 261.396517 102.921714 
L 232.164676 80.749853 
L 202.932835 73.745193 
z
" clip-path="url(#pcad9e62474)" style="fill: #3949f5; fill-opacity: 0.14902"/>
   </g>
   <g id="line2d_56"/>
   <g id="line2d_57"/>
   <g id="PolyCollection_6">
    <path d="M 202.932835 52.008545 
L 202.932835 83.411767 
L 232.164676 121.651001 
L 261.396517 127.696128 
L 290.628358 150.002801 
L 319.860199 148.869043 
L 349.09204 161.492788 
L 349.09204 148.343708 
L 349.09204 148.343708 
L 319.860199 139.16543 
L 290.628358 133.671268 
L 261.396517 108.01349 
L 232.164676 83.535785 
L 202.932835 52.008545 
z
" clip-path="url(#pcad9e62474)" style="fill: #1c9a0e; fill-opacity: 0.14902"/>
   </g>
   <g id="line2d_58"/>
   <g id="line2d_59"/>
   <g id="PolyCollection_7">
    <path d="M 202.932835 63.529275 
L 202.932835 89.332655 
L 232.164676 115.358505 
L 261.396517 142.887365 
L 290.628358 166.818292 
L 319.860199 159.397797 
L 349.09204 159.345473 
L 349.09204 150.491024 
L 349.09204 150.491024 
L 319.860199 146.078295 
L 290.628358 143.018204 
L 261.396517 105.903467 
L 232.164676 81.107471 
L 202.932835 63.529275 
z
" clip-path="url(#pcad9e62474)" style="fill: #e6950a; fill-opacity: 0.14902"/>
   </g>
   <g id="line2d_60"/>
   <g id="line2d_61"/>
   <g id="PolyCollection_8">
    <path d="M 202.932835 57.374875 
L 202.932835 86.766247 
L 232.164676 110.651061 
L 261.396517 135.676993 
L 290.628358 160.865947 
L 319.860199 163.154617 
L 349.09204 160.365991 
L 349.09204 149.470505 
L 349.09204 149.470505 
L 319.860199 146.681879 
L 290.628358 135.889335 
L 261.396517 113.113839 
L 232.164676 72.733702 
L 202.932835 57.374875 
z
" clip-path="url(#pcad9e62474)" style="fill: #dc0d97; fill-opacity: 0.14902"/>
   </g>
   <g id="line2d_62"/>
   <g id="line2d_63"/>
   <g id="LineCollection_2">
    <path d="M 195.624875 40.457627 
L 356.4 160.368754 
" clip-path="url(#pcad9e62474)" style="fill: none; stroke-dasharray: 3.27904,1.417963; stroke-dashoffset: 0; stroke: #000000; stroke-opacity: 0.501961; stroke-width: 0.886227"/>
   </g>
  </g>
  <g id="patch_4">
   <path d="M 31.24975 172.863616 
L 192.024875 172.863616 
L 192.024875 46.253542 
L 31.24975 46.253542 
L 31.24975 172.863616 
z
" style="fill: none; stroke: #7f7f7f; stroke-linejoin: miter"/>
  </g>
  <g id="patch_5">
   <path d="M 195.624875 172.863616 
L 356.4 172.863616 
L 356.4 46.253542 
L 195.624875 46.253542 
L 195.624875 172.863616 
z
" style="fill: none; stroke: #7f7f7f; stroke-linejoin: miter"/>
  </g>
  <g id="text_18">
   <!-- MT Quality Score -->
   <g transform="translate(155.206125 210.25625) scale(0.1 -0.1)">
    <defs>
     <path id="Helvetica-4d" d="M 472 4591 
L 1363 4591 
L 2681 709 
L 3991 4591 
L 4872 4591 
L 4872 0 
L 4281 0 
L 4281 2709 
Q 4281 2850 4287 3175 
Q 4294 3500 4294 3872 
L 2984 0 
L 2369 0 
L 1050 3872 
L 1050 3731 
Q 1050 3563 1058 3217 
Q 1066 2872 1066 2709 
L 1066 0 
L 472 0 
L 472 4591 
z
" transform="scale(0.015625)"/>
     <path id="Helvetica-54" d="M 3828 4591 
L 3828 4044 
L 2281 4044 
L 2281 0 
L 1650 0 
L 1650 4044 
L 103 4044 
L 103 4591 
L 3828 4591 
z
" transform="scale(0.015625)"/>
     <path id="Helvetica-51" d="M 4688 13 
L 4375 -366 
L 3666 175 
Q 3409 34 3111 -50 
Q 2813 -134 2459 -134 
Q 1391 -134 784 566 
Q 250 1247 250 2272 
Q 250 3203 713 3866 
Q 1306 4716 2469 4716 
Q 3684 4716 4269 3934 
Q 4725 3325 4725 2375 
Q 4725 1931 4616 1522 
Q 4450 897 4056 503 
L 4688 13 
z
M 2534 422 
Q 2728 422 2897 448 
Q 3066 475 3191 553 
L 2688 947 
L 3000 1331 
L 3600 866 
Q 3884 1191 3986 1594 
Q 4088 1997 4088 2366 
Q 4088 3175 3664 3669 
Q 3241 4163 2506 4163 
Q 1763 4163 1328 3689 
Q 894 3216 894 2231 
Q 894 1403 1311 912 
Q 1728 422 2534 422 
z
" transform="scale(0.015625)"/>
     <path id="Helvetica-75" d="M 975 3347 
L 975 1125 
Q 975 869 1056 706 
Q 1206 406 1616 406 
Q 2203 406 2416 931 
Q 2531 1213 2531 1703 
L 2531 3347 
L 3094 3347 
L 3094 0 
L 2563 0 
L 2569 494 
Q 2459 303 2297 172 
Q 1975 -91 1516 -91 
Q 800 -91 541 388 
Q 400 644 400 1072 
L 400 3347 
L 975 3347 
z
M 1747 3428 
L 1747 3428 
z
" transform="scale(0.015625)"/>
     <path id="Helvetica-61" d="M 844 891 
Q 844 647 1022 506 
Q 1200 366 1444 366 
Q 1741 366 2019 503 
Q 2488 731 2488 1250 
L 2488 1703 
Q 2384 1638 2221 1594 
Q 2059 1550 1903 1531 
L 1563 1488 
Q 1256 1447 1103 1359 
Q 844 1213 844 891 
z
M 2206 2028 
Q 2400 2053 2466 2191 
Q 2503 2266 2503 2406 
Q 2503 2694 2298 2823 
Q 2094 2953 1713 2953 
Q 1272 2953 1088 2716 
Q 984 2584 953 2325 
L 428 2325 
Q 444 2944 830 3186 
Q 1216 3428 1725 3428 
Q 2316 3428 2684 3203 
Q 3050 2978 3050 2503 
L 3050 575 
Q 3050 488 3086 434 
Q 3122 381 3238 381 
Q 3275 381 3322 386 
Q 3369 391 3422 400 
L 3422 -16 
Q 3291 -53 3222 -62 
Q 3153 -72 3034 -72 
Q 2744 -72 2613 134 
Q 2544 244 2516 444 
Q 2344 219 2022 53 
Q 1700 -113 1313 -113 
Q 847 -113 551 170 
Q 256 453 256 878 
Q 256 1344 547 1600 
Q 838 1856 1309 1916 
L 2206 2028 
z
M 1741 3428 
L 1741 3428 
z
" transform="scale(0.015625)"/>
     <path id="Helvetica-6c" d="M 428 4591 
L 991 4591 
L 991 0 
L 428 0 
L 428 4591 
z
" transform="scale(0.015625)"/>
     <path id="Helvetica-69" d="M 413 3331 
L 984 3331 
L 984 0 
L 413 0 
L 413 3331 
z
M 413 4591 
L 984 4591 
L 984 3953 
L 413 3953 
L 413 4591 
z
" transform="scale(0.015625)"/>
     <path id="Helvetica-74" d="M 525 4281 
L 1094 4281 
L 1094 3347 
L 1628 3347 
L 1628 2888 
L 1094 2888 
L 1094 703 
Q 1094 528 1213 469 
Q 1278 434 1431 434 
Q 1472 434 1519 436 
Q 1566 438 1628 444 
L 1628 0 
Q 1531 -28 1426 -40 
Q 1322 -53 1200 -53 
Q 806 -53 665 148 
Q 525 350 525 672 
L 525 2888 
L 72 2888 
L 72 3347 
L 525 3347 
L 525 4281 
z
" transform="scale(0.015625)"/>
     <path id="Helvetica-79" d="M 2503 3347 
L 3125 3347 
Q 3006 3025 2597 1878 
Q 2291 1016 2084 472 
Q 1597 -809 1397 -1090 
Q 1197 -1372 709 -1372 
Q 591 -1372 527 -1362 
Q 463 -1353 369 -1328 
L 369 -816 
Q 516 -856 581 -865 
Q 647 -875 697 -875 
Q 853 -875 926 -823 
Q 1000 -772 1050 -697 
Q 1066 -672 1162 -440 
Q 1259 -209 1303 -97 
L 66 3347 
L 703 3347 
L 1600 622 
L 2503 3347 
z
M 1597 3428 
L 1597 3428 
z
" transform="scale(0.015625)"/>
     <path id="Helvetica-53" d="M 894 1481 
Q 916 1091 1078 847 
Q 1388 391 2169 391 
Q 2519 391 2806 491 
Q 3363 684 3363 1184 
Q 3363 1559 3128 1719 
Q 2891 1875 2384 1991 
L 1763 2131 
Q 1153 2269 900 2434 
Q 463 2722 463 3294 
Q 463 3913 891 4309 
Q 1319 4706 2103 4706 
Q 2825 4706 3329 4357 
Q 3834 4009 3834 3244 
L 3250 3244 
Q 3203 3613 3050 3809 
Q 2766 4169 2084 4169 
Q 1534 4169 1293 3937 
Q 1053 3706 1053 3400 
Q 1053 3063 1334 2906 
Q 1519 2806 2169 2656 
L 2813 2509 
Q 3278 2403 3531 2219 
Q 3969 1897 3969 1284 
Q 3969 522 3414 194 
Q 2859 -134 2125 -134 
Q 1269 -134 784 303 
Q 300 738 309 1481 
L 894 1481 
z
M 2150 4716 
L 2150 4716 
z
" transform="scale(0.015625)"/>
     <path id="Helvetica-63" d="M 1703 3444 
Q 2269 3444 2623 3169 
Q 2978 2894 3050 2222 
L 2503 2222 
Q 2453 2531 2275 2736 
Q 2097 2941 1703 2941 
Q 1166 2941 934 2416 
Q 784 2075 784 1575 
Q 784 1072 996 728 
Q 1209 384 1666 384 
Q 2016 384 2220 598 
Q 2425 813 2503 1184 
L 3050 1184 
Q 2956 519 2581 211 
Q 2206 -97 1622 -97 
Q 966 -97 575 383 
Q 184 863 184 1581 
Q 184 2463 612 2953 
Q 1041 3444 1703 3444 
z
M 1616 3428 
L 1616 3428 
z
" transform="scale(0.015625)"/>
     <path id="Helvetica-6f" d="M 1741 363 
Q 2300 363 2508 786 
Q 2716 1209 2716 1728 
Q 2716 2197 2566 2491 
Q 2328 2953 1747 2953 
Q 1231 2953 997 2559 
Q 763 2166 763 1609 
Q 763 1075 997 719 
Q 1231 363 1741 363 
z
M 1763 3444 
Q 2409 3444 2856 3012 
Q 3303 2581 3303 1744 
Q 3303 934 2909 406 
Q 2516 -122 1688 -122 
Q 997 -122 590 345 
Q 184 813 184 1600 
Q 184 2444 612 2944 
Q 1041 3444 1763 3444 
z
M 1744 3428 
L 1744 3428 
z
" transform="scale(0.015625)"/>
     <path id="Helvetica-72" d="M 428 3347 
L 963 3347 
L 963 2769 
Q 1028 2938 1284 3180 
Q 1541 3422 1875 3422 
Q 1891 3422 1928 3419 
Q 1966 3416 2056 3406 
L 2056 2813 
Q 2006 2822 1964 2825 
Q 1922 2828 1872 2828 
Q 1447 2828 1219 2554 
Q 991 2281 991 1925 
L 991 0 
L 428 0 
L 428 3347 
z
" transform="scale(0.015625)"/>
     <path id="Helvetica-65" d="M 1806 3422 
Q 2163 3422 2497 3255 
Q 2831 3088 3006 2822 
Q 3175 2569 3231 2231 
Q 3281 2000 3281 1494 
L 828 1494 
Q 844 984 1069 676 
Q 1294 369 1766 369 
Q 2206 369 2469 659 
Q 2619 828 2681 1050 
L 3234 1050 
Q 3213 866 3089 639 
Q 2966 413 2813 269 
Q 2556 19 2178 -69 
Q 1975 -119 1719 -119 
Q 1094 -119 659 336 
Q 225 791 225 1609 
Q 225 2416 662 2919 
Q 1100 3422 1806 3422 
z
M 2703 1941 
Q 2669 2306 2544 2525 
Q 2313 2931 1772 2931 
Q 1384 2931 1121 2651 
Q 859 2372 844 1941 
L 2703 1941 
z
M 1753 3428 
L 1753 3428 
z
" transform="scale(0.015625)"/>
    </defs>
    <use xlink:href="#Helvetica-4d"/>
    <use xlink:href="#Helvetica-54" x="83.300781"/>
    <use xlink:href="#Helvetica-20" x="144.384766"/>
    <use xlink:href="#Helvetica-51" x="172.167969"/>
    <use xlink:href="#Helvetica-75" x="249.951172"/>
    <use xlink:href="#Helvetica-61" x="305.566406"/>
    <use xlink:href="#Helvetica-6c" x="361.181641"/>
    <use xlink:href="#Helvetica-69" x="383.398438"/>
    <use xlink:href="#Helvetica-74" x="405.615234"/>
    <use xlink:href="#Helvetica-79" x="433.398438"/>
    <use xlink:href="#Helvetica-20" x="483.398438"/>
    <use xlink:href="#Helvetica-53" x="511.181641"/>
    <use xlink:href="#Helvetica-63" x="577.880859"/>
    <use xlink:href="#Helvetica-6f" x="627.880859"/>
    <use xlink:href="#Helvetica-72" x="683.496094"/>
    <use xlink:href="#Helvetica-65" x="716.796875"/>
   </g>
  </g>
  <g id="text_19">
   <!-- Median Edited Quality Improvement -->
   <g transform="translate(10.96875 189.035923) rotate(-90) scale(0.1 -0.1)">
    <defs>
     <path id="Helvetica-64" d="M 769 1634 
Q 769 1097 997 734 
Q 1225 372 1728 372 
Q 2119 372 2370 708 
Q 2622 1044 2622 1672 
Q 2622 2306 2362 2611 
Q 2103 2916 1722 2916 
Q 1297 2916 1033 2591 
Q 769 2266 769 1634 
z
M 1616 3406 
Q 2000 3406 2259 3244 
Q 2409 3150 2600 2916 
L 2600 4606 
L 3141 4606 
L 3141 0 
L 2634 0 
L 2634 466 
Q 2438 156 2169 18 
Q 1900 -119 1553 -119 
Q 994 -119 584 351 
Q 175 822 175 1603 
Q 175 2334 548 2870 
Q 922 3406 1616 3406 
z
" transform="scale(0.015625)"/>
     <path id="Helvetica-6e" d="M 413 3347 
L 947 3347 
L 947 2872 
Q 1184 3166 1450 3294 
Q 1716 3422 2041 3422 
Q 2753 3422 3003 2925 
Q 3141 2653 3141 2147 
L 3141 0 
L 2569 0 
L 2569 2109 
Q 2569 2416 2478 2603 
Q 2328 2916 1934 2916 
Q 1734 2916 1606 2875 
Q 1375 2806 1200 2600 
Q 1059 2434 1017 2257 
Q 975 2081 975 1753 
L 975 0 
L 413 0 
L 413 3347 
z
M 1734 3428 
L 1734 3428 
z
" transform="scale(0.015625)"/>
     <path id="Helvetica-45" d="M 547 4591 
L 3894 4591 
L 3894 4028 
L 1153 4028 
L 1153 2634 
L 3688 2634 
L 3688 2103 
L 1153 2103 
L 1153 547 
L 3941 547 
L 3941 0 
L 547 0 
L 547 4591 
z
M 2244 4591 
L 2244 4591 
z
" transform="scale(0.015625)"/>
     <path id="Helvetica-49" d="M 628 4591 
L 1256 4591 
L 1256 0 
L 628 0 
L 628 4591 
z
" transform="scale(0.015625)"/>
     <path id="Helvetica-6d" d="M 413 3347 
L 969 3347 
L 969 2872 
Q 1169 3119 1331 3231 
Q 1609 3422 1963 3422 
Q 2363 3422 2606 3225 
Q 2744 3113 2856 2894 
Q 3044 3163 3297 3292 
Q 3550 3422 3866 3422 
Q 4541 3422 4784 2934 
Q 4916 2672 4916 2228 
L 4916 0 
L 4331 0 
L 4331 2325 
Q 4331 2659 4164 2784 
Q 3997 2909 3756 2909 
Q 3425 2909 3186 2687 
Q 2947 2466 2947 1947 
L 2947 0 
L 2375 0 
L 2375 2184 
Q 2375 2525 2294 2681 
Q 2166 2916 1816 2916 
Q 1497 2916 1236 2669 
Q 975 2422 975 1775 
L 975 0 
L 413 0 
L 413 3347 
z
" transform="scale(0.015625)"/>
     <path id="Helvetica-70" d="M 1825 378 
Q 2219 378 2480 708 
Q 2741 1038 2741 1694 
Q 2741 2094 2625 2381 
Q 2406 2934 1825 2934 
Q 1241 2934 1025 2350 
Q 909 2038 909 1556 
Q 909 1169 1025 897 
Q 1244 378 1825 378 
z
M 369 3331 
L 916 3331 
L 916 2888 
Q 1084 3116 1284 3241 
Q 1569 3428 1953 3428 
Q 2522 3428 2919 2992 
Q 3316 2556 3316 1747 
Q 3316 653 2744 184 
Q 2381 -113 1900 -113 
Q 1522 -113 1266 53 
Q 1116 147 931 375 
L 931 -1334 
L 369 -1334 
L 369 3331 
z
" transform="scale(0.015625)"/>
     <path id="Helvetica-76" d="M 688 3347 
L 1581 622 
L 2516 3347 
L 3131 3347 
L 1869 0 
L 1269 0 
L 34 3347 
L 688 3347 
z
" transform="scale(0.015625)"/>
    </defs>
    <use xlink:href="#Helvetica-4d"/>
    <use xlink:href="#Helvetica-65" x="83.300781"/>
    <use xlink:href="#Helvetica-64" x="138.916016"/>
    <use xlink:href="#Helvetica-69" x="194.53125"/>
    <use xlink:href="#Helvetica-61" x="216.748047"/>
    <use xlink:href="#Helvetica-6e" x="272.363281"/>
    <use xlink:href="#Helvetica-20" x="327.978516"/>
    <use xlink:href="#Helvetica-45" x="355.761719"/>
    <use xlink:href="#Helvetica-64" x="422.460938"/>
    <use xlink:href="#Helvetica-69" x="478.076172"/>
    <use xlink:href="#Helvetica-74" x="500.292969"/>
    <use xlink:href="#Helvetica-65" x="528.076172"/>
    <use xlink:href="#Helvetica-64" x="583.691406"/>
    <use xlink:href="#Helvetica-20" x="639.306641"/>
    <use xlink:href="#Helvetica-51" x="667.089844"/>
    <use xlink:href="#Helvetica-75" x="744.873047"/>
    <use xlink:href="#Helvetica-61" x="800.488281"/>
    <use xlink:href="#Helvetica-6c" x="856.103516"/>
    <use xlink:href="#Helvetica-69" x="878.320312"/>
    <use xlink:href="#Helvetica-74" x="900.537109"/>
    <use xlink:href="#Helvetica-79" x="928.320312"/>
    <use xlink:href="#Helvetica-20" x="978.320312"/>
    <use xlink:href="#Helvetica-49" x="1006.103516"/>
    <use xlink:href="#Helvetica-6d" x="1033.886719"/>
    <use xlink:href="#Helvetica-70" x="1117.1875"/>
    <use xlink:href="#Helvetica-72" x="1172.802734"/>
    <use xlink:href="#Helvetica-6f" x="1206.103516"/>
    <use xlink:href="#Helvetica-76" x="1261.71875"/>
    <use xlink:href="#Helvetica-65" x="1311.71875"/>
    <use xlink:href="#Helvetica-6d" x="1367.333984"/>
    <use xlink:href="#Helvetica-65" x="1450.634766"/>
    <use xlink:href="#Helvetica-6e" x="1506.25"/>
    <use xlink:href="#Helvetica-74" x="1561.865234"/>
   </g>
  </g>
  <g id="patch_6">
   <path d="M 31.24975 46.253542 
L 192.024875 46.253542 
L 192.024875 32.24 
L 31.24975 32.24 
z
" style="fill: #cccccc; stroke: #7f7f7f; stroke-linejoin: miter"/>
  </g>
  <g id="text_20">
   <!-- Biomedical -->
   <g style="fill: #1a1a1a" transform="translate(90.117188 42.403083) scale(0.088 -0.088)">
    <defs>
     <path id="Helvetica-42" d="M 2213 2650 
Q 2606 2650 2825 2759 
Q 3169 2931 3169 3378 
Q 3169 3828 2803 3984 
Q 2597 4072 2191 4072 
L 1081 4072 
L 1081 2650 
L 2213 2650 
z
M 2422 531 
Q 2994 531 3238 863 
Q 3391 1072 3391 1369 
Q 3391 1869 2944 2050 
Q 2706 2147 2316 2147 
L 1081 2147 
L 1081 531 
L 2422 531 
z
M 472 4591 
L 2444 4591 
Q 3250 4591 3591 4109 
Q 3791 3825 3791 3453 
Q 3791 3019 3544 2741 
Q 3416 2594 3175 2472 
Q 3528 2338 3703 2169 
Q 4013 1869 4013 1341 
Q 4013 897 3734 538 
Q 3319 0 2413 0 
L 472 0 
L 472 4591 
z
" transform="scale(0.015625)"/>
    </defs>
    <use xlink:href="#Helvetica-42"/>
    <use xlink:href="#Helvetica-69" x="66.699219"/>
    <use xlink:href="#Helvetica-6f" x="88.916016"/>
    <use xlink:href="#Helvetica-6d" x="144.53125"/>
    <use xlink:href="#Helvetica-65" x="227.832031"/>
    <use xlink:href="#Helvetica-64" x="283.447266"/>
    <use xlink:href="#Helvetica-69" x="339.0625"/>
    <use xlink:href="#Helvetica-63" x="361.279297"/>
    <use xlink:href="#Helvetica-61" x="411.279297"/>
    <use xlink:href="#Helvetica-6c" x="466.894531"/>
   </g>
  </g>
  <g id="patch_7">
   <path d="M 195.624875 46.253542 
L 356.4 46.253542 
L 356.4 32.24 
L 195.624875 32.24 
z
" style="fill: #cccccc; stroke: #7f7f7f; stroke-linejoin: miter"/>
  </g>
  <g id="text_21">
   <!-- Social Media -->
   <g style="fill: #1a1a1a" transform="translate(250.823125 42.403083) scale(0.088 -0.088)">
    <use xlink:href="#Helvetica-53"/>
    <use xlink:href="#Helvetica-6f" x="66.699219"/>
    <use xlink:href="#Helvetica-63" x="122.314453"/>
    <use xlink:href="#Helvetica-69" x="172.314453"/>
    <use xlink:href="#Helvetica-61" x="194.53125"/>
    <use xlink:href="#Helvetica-6c" x="250.146484"/>
    <use xlink:href="#Helvetica-20" x="272.363281"/>
    <use xlink:href="#Helvetica-4d" x="300.146484"/>
    <use xlink:href="#Helvetica-65" x="383.447266"/>
    <use xlink:href="#Helvetica-64" x="439.0625"/>
    <use xlink:href="#Helvetica-69" x="494.677734"/>
    <use xlink:href="#Helvetica-61" x="516.894531"/>
   </g>
  </g>
  <g id="patch_8">
   <path d="M 63.426375 21.44 
L 324.223375 21.44 
L 324.223375 3.6 
L 63.426375 3.6 
z
" style="fill: #ffffff"/>
  </g>
  <g id="patch_9">
   <path d="M 65.426375 19.44 
L 79.266375 19.44 
L 79.266375 5.6 
L 65.426375 5.6 
L 65.426375 19.44 
z
" clip-path="url(#pd660432424)" style="fill: none; stroke: #cccccc; stroke-linejoin: miter"/>
  </g>
  <g id="line2d_64">
   <path d="M 64.426375 12.52 
L 80.266375 12.52 
" clip-path="url(#pd660432424)" style="fill: none; stroke: #3949f5; stroke-width: 1.772454"/>
  </g>
  <g id="line2d_65">
   <path d="M 72.346375 12.52 
" clip-path="url(#pd660432424)" style="fill: none; stroke: #1f77b4; stroke-width: 1.5; stroke-linecap: square"/>
   <defs>
    <path id="mb8ad885a22" d="M 0 2.215567 
C 0.587575 2.215567 1.151164 1.982121 1.566643 1.566643 
C 1.982121 1.151164 2.215567 0.587575 2.215567 0 
C 2.215567 -0.587575 1.982121 -1.151164 1.566643 -1.566643 
C 1.151164 -1.982121 0.587575 -2.215567 0 -2.215567 
C -0.587575 -2.215567 -1.151164 -1.982121 -1.566643 -1.566643 
C -1.982121 -1.151164 -2.215567 -0.587575 -2.215567 0 
C -2.215567 0.587575 -1.982121 1.151164 -1.566643 1.566643 
C -1.151164 1.982121 -0.587575 2.215567 0 2.215567 
z
" style="stroke: #3949f5; stroke-width: 0.886227"/>
   </defs>
   <g clip-path="url(#pd660432424)">
    <use xlink:href="#mb8ad885a22" x="72.346375" y="12.52" style="fill: #3949f5; stroke: #3949f5; stroke-width: 0.886227"/>
   </g>
  </g>
  <g id="patch_10">
   <path d="M 64.426375 20.44 
L 80.266375 20.44 
L 80.266375 4.6 
L 64.426375 4.6 
z
" clip-path="url(#pd660432424)" style="fill: #3949f5; fill-opacity: 0.14902"/>
  </g>
  <g id="text_22">
   <!-- No Highlight -->
   <g transform="translate(81.706375 14.713125) scale(0.088 -0.088)">
    <defs>
     <path id="Helvetica-4e" d="M 488 4591 
L 1222 4591 
L 3541 872 
L 3541 4591 
L 4131 4591 
L 4131 0 
L 3434 0 
L 1081 3716 
L 1081 0 
L 488 0 
L 488 4591 
z
M 2269 4591 
L 2269 4591 
z
" transform="scale(0.015625)"/>
     <path id="Helvetica-48" d="M 503 4591 
L 1131 4591 
L 1131 2694 
L 3519 2694 
L 3519 4591 
L 4147 4591 
L 4147 0 
L 3519 0 
L 3519 2147 
L 1131 2147 
L 1131 0 
L 503 0 
L 503 4591 
z
" transform="scale(0.015625)"/>
     <path id="Helvetica-67" d="M 1594 3406 
Q 1988 3406 2281 3213 
Q 2441 3103 2606 2894 
L 2606 3316 
L 3125 3316 
L 3125 272 
Q 3125 -366 2938 -734 
Q 2588 -1416 1616 -1416 
Q 1075 -1416 706 -1173 
Q 338 -931 294 -416 
L 866 -416 
Q 906 -641 1028 -763 
Q 1219 -950 1628 -950 
Q 2275 -950 2475 -494 
Q 2594 -225 2584 466 
Q 2416 209 2178 84 
Q 1941 -41 1550 -41 
Q 1006 -41 598 345 
Q 191 731 191 1622 
Q 191 2463 602 2934 
Q 1013 3406 1594 3406 
z
M 2606 1688 
Q 2606 2309 2350 2609 
Q 2094 2909 1697 2909 
Q 1103 2909 884 2353 
Q 769 2056 769 1575 
Q 769 1009 998 714 
Q 1228 419 1616 419 
Q 2222 419 2469 966 
Q 2606 1275 2606 1688 
z
M 1659 3428 
L 1659 3428 
z
" transform="scale(0.015625)"/>
     <path id="Helvetica-68" d="M 413 4606 
L 975 4606 
L 975 2894 
Q 1175 3147 1334 3250 
Q 1606 3428 2013 3428 
Q 2741 3428 3000 2919 
Q 3141 2641 3141 2147 
L 3141 0 
L 2563 0 
L 2563 2109 
Q 2563 2478 2469 2650 
Q 2316 2925 1894 2925 
Q 1544 2925 1259 2684 
Q 975 2444 975 1775 
L 975 0 
L 413 0 
L 413 4606 
z
" transform="scale(0.015625)"/>
    </defs>
    <use xlink:href="#Helvetica-4e"/>
    <use xlink:href="#Helvetica-6f" x="72.216797"/>
    <use xlink:href="#Helvetica-20" x="127.832031"/>
    <use xlink:href="#Helvetica-48" x="155.615234"/>
    <use xlink:href="#Helvetica-69" x="227.832031"/>
    <use xlink:href="#Helvetica-67" x="250.048828"/>
    <use xlink:href="#Helvetica-68" x="305.664062"/>
    <use xlink:href="#Helvetica-6c" x="361.279297"/>
    <use xlink:href="#Helvetica-69" x="383.496094"/>
    <use xlink:href="#Helvetica-67" x="405.712891"/>
    <use xlink:href="#Helvetica-68" x="461.328125"/>
    <use xlink:href="#Helvetica-74" x="516.943359"/>
   </g>
  </g>
  <g id="patch_11">
   <path d="M 136.64025 19.44 
L 150.48025 19.44 
L 150.48025 5.6 
L 136.64025 5.6 
L 136.64025 19.44 
z
" clip-path="url(#p94dffef834)" style="fill: none; stroke: #cccccc; stroke-linejoin: miter"/>
  </g>
  <g id="line2d_66">
   <path d="M 135.64025 12.52 
L 151.48025 12.52 
" clip-path="url(#p94dffef834)" style="fill: none; stroke: #1c9a0e; stroke-width: 1.772454"/>
  </g>
  <g id="line2d_67">
   <path d="M 143.56025 12.52 
" clip-path="url(#p94dffef834)" style="fill: none; stroke: #1f77b4; stroke-width: 1.5; stroke-linecap: square"/>
   <defs>
    <path id="mba0aaf73e7" d="M 0 2.215567 
C 0.587575 2.215567 1.151164 1.982121 1.566643 1.566643 
C 1.982121 1.151164 2.215567 0.587575 2.215567 0 
C 2.215567 -0.587575 1.982121 -1.151164 1.566643 -1.566643 
C 1.151164 -1.982121 0.587575 -2.215567 0 -2.215567 
C -0.587575 -2.215567 -1.151164 -1.982121 -1.566643 -1.566643 
C -1.982121 -1.151164 -2.215567 -0.587575 -2.215567 0 
C -2.215567 0.587575 -1.982121 1.151164 -1.566643 1.566643 
C -1.151164 1.982121 -0.587575 2.215567 0 2.215567 
z
" style="stroke: #1c9a0e; stroke-width: 0.886227"/>
   </defs>
   <g clip-path="url(#p94dffef834)">
    <use xlink:href="#mba0aaf73e7" x="143.56025" y="12.52" style="fill: #1c9a0e; stroke: #1c9a0e; stroke-width: 0.886227"/>
   </g>
  </g>
  <g id="patch_12">
   <path d="M 135.64025 20.44 
L 151.48025 20.44 
L 151.48025 4.6 
L 135.64025 4.6 
z
" clip-path="url(#p94dffef834)" style="fill: #1c9a0e; fill-opacity: 0.14902"/>
  </g>
  <g id="text_23">
   <!-- Oracle -->
   <g transform="translate(152.92025 14.759188) scale(0.088 -0.088)">
    <defs>
     <path id="Helvetica-4f" d="M 2469 4716 
Q 3684 4716 4269 3934 
Q 4725 3325 4725 2375 
Q 4725 1347 4203 666 
Q 3591 -134 2456 -134 
Q 1397 -134 791 566 
Q 250 1241 250 2272 
Q 250 3203 713 3866 
Q 1306 4716 2469 4716 
z
M 2531 422 
Q 3353 422 3720 1011 
Q 4088 1600 4088 2366 
Q 4088 3175 3664 3669 
Q 3241 4163 2506 4163 
Q 1794 4163 1344 3673 
Q 894 3184 894 2231 
Q 894 1469 1280 945 
Q 1666 422 2531 422 
z
M 2488 4716 
L 2488 4716 
z
" transform="scale(0.015625)"/>
    </defs>
    <use xlink:href="#Helvetica-4f"/>
    <use xlink:href="#Helvetica-72" x="77.783203"/>
    <use xlink:href="#Helvetica-61" x="111.083984"/>
    <use xlink:href="#Helvetica-63" x="166.699219"/>
    <use xlink:href="#Helvetica-6c" x="216.699219"/>
    <use xlink:href="#Helvetica-65" x="238.916016"/>
   </g>
  </g>
  <g id="patch_13">
   <path d="M 185.837625 19.44 
L 199.677625 19.44 
L 199.677625 5.6 
L 185.837625 5.6 
L 185.837625 19.44 
z
" clip-path="url(#p4468e83198)" style="fill: none; stroke: #cccccc; stroke-linejoin: miter"/>
  </g>
  <g id="line2d_68">
   <path d="M 184.837625 12.52 
L 200.677625 12.52 
" clip-path="url(#p4468e83198)" style="fill: none; stroke: #e6950a; stroke-width: 1.772454"/>
  </g>
  <g id="line2d_69">
   <path d="M 192.757625 12.52 
" clip-path="url(#p4468e83198)" style="fill: none; stroke: #1f77b4; stroke-width: 1.5; stroke-linecap: square"/>
   <defs>
    <path id="md573e3dc99" d="M 0 2.215567 
C 0.587575 2.215567 1.151164 1.982121 1.566643 1.566643 
C 1.982121 1.151164 2.215567 0.587575 2.215567 0 
C 2.215567 -0.587575 1.982121 -1.151164 1.566643 -1.566643 
C 1.151164 -1.982121 0.587575 -2.215567 0 -2.215567 
C -0.587575 -2.215567 -1.151164 -1.982121 -1.566643 -1.566643 
C -1.982121 -1.151164 -2.215567 -0.587575 -2.215567 0 
C -2.215567 0.587575 -1.982121 1.151164 -1.566643 1.566643 
C -1.151164 1.982121 -0.587575 2.215567 0 2.215567 
z
" style="stroke: #e6950a; stroke-width: 0.886227"/>
   </defs>
   <g clip-path="url(#p4468e83198)">
    <use xlink:href="#md573e3dc99" x="192.757625" y="12.52" style="fill: #e6950a; stroke: #e6950a; stroke-width: 0.886227"/>
   </g>
  </g>
  <g id="patch_14">
   <path d="M 184.837625 20.44 
L 200.677625 20.44 
L 200.677625 4.6 
L 184.837625 4.6 
z
" clip-path="url(#p4468e83198)" style="fill: #e6950a; fill-opacity: 0.14902"/>
  </g>
  <g id="text_24">
   <!-- Unsupervised -->
   <g transform="translate(202.117625 14.7695) scale(0.088 -0.088)">
    <defs>
     <path id="Helvetica-55" d="M 1163 4591 
L 1163 1753 
Q 1163 1253 1350 922 
Q 1628 422 2288 422 
Q 3078 422 3363 963 
Q 3516 1256 3516 1753 
L 3516 4591 
L 4147 4591 
L 4147 2013 
Q 4147 1166 3919 709 
Q 3500 -122 2338 -122 
Q 1175 -122 759 709 
Q 531 1166 531 2013 
L 531 4591 
L 1163 4591 
z
M 2341 4591 
L 2341 4591 
z
" transform="scale(0.015625)"/>
     <path id="Helvetica-73" d="M 747 1050 
Q 772 769 888 619 
Q 1100 347 1625 347 
Q 1938 347 2175 483 
Q 2413 619 2413 903 
Q 2413 1119 2222 1231 
Q 2100 1300 1741 1391 
L 1294 1503 
Q 866 1609 663 1741 
Q 300 1969 300 2372 
Q 300 2847 642 3140 
Q 984 3434 1563 3434 
Q 2319 3434 2653 2991 
Q 2863 2709 2856 2384 
L 2325 2384 
Q 2309 2575 2191 2731 
Q 1997 2953 1519 2953 
Q 1200 2953 1036 2831 
Q 872 2709 872 2509 
Q 872 2291 1088 2159 
Q 1213 2081 1456 2022 
L 1828 1931 
Q 2434 1784 2641 1647 
Q 2969 1431 2969 969 
Q 2969 522 2630 197 
Q 2291 -128 1597 -128 
Q 850 -128 539 211 
Q 228 550 206 1050 
L 747 1050 
z
M 1578 3428 
L 1578 3428 
z
" transform="scale(0.015625)"/>
    </defs>
    <use xlink:href="#Helvetica-55"/>
    <use xlink:href="#Helvetica-6e" x="72.216797"/>
    <use xlink:href="#Helvetica-73" x="127.832031"/>
    <use xlink:href="#Helvetica-75" x="177.832031"/>
    <use xlink:href="#Helvetica-70" x="233.447266"/>
    <use xlink:href="#Helvetica-65" x="289.0625"/>
    <use xlink:href="#Helvetica-72" x="344.677734"/>
    <use xlink:href="#Helvetica-76" x="377.978516"/>
    <use xlink:href="#Helvetica-69" x="427.978516"/>
    <use xlink:href="#Helvetica-73" x="450.195312"/>
    <use xlink:href="#Helvetica-65" x="500.195312"/>
    <use xlink:href="#Helvetica-64" x="555.810547"/>
   </g>
  </g>
  <g id="patch_15">
   <path d="M 262.92 19.44 
L 276.76 19.44 
L 276.76 5.6 
L 262.92 5.6 
L 262.92 19.44 
z
" clip-path="url(#pdce12edf46)" style="fill: none; stroke: #cccccc; stroke-linejoin: miter"/>
  </g>
  <g id="line2d_70">
   <path d="M 261.92 12.52 
L 277.76 12.52 
" clip-path="url(#pdce12edf46)" style="fill: none; stroke: #dc0d97; stroke-width: 1.772454"/>
  </g>
  <g id="line2d_71">
   <path d="M 269.84 12.52 
" clip-path="url(#pdce12edf46)" style="fill: none; stroke: #1f77b4; stroke-width: 1.5; stroke-linecap: square"/>
   <defs>
    <path id="mffb2547835" d="M 0 2.215567 
C 0.587575 2.215567 1.151164 1.982121 1.566643 1.566643 
C 1.982121 1.151164 2.215567 0.587575 2.215567 0 
C 2.215567 -0.587575 1.982121 -1.151164 1.566643 -1.566643 
C 1.151164 -1.982121 0.587575 -2.215567 0 -2.215567 
C -0.587575 -2.215567 -1.151164 -1.982121 -1.566643 -1.566643 
C -1.982121 -1.151164 -2.215567 -0.587575 -2.215567 0 
C -2.215567 0.587575 -1.982121 1.151164 -1.566643 1.566643 
C -1.151164 1.982121 -0.587575 2.215567 0 2.215567 
z
" style="stroke: #dc0d97; stroke-width: 0.886227"/>
   </defs>
   <g clip-path="url(#pdce12edf46)">
    <use xlink:href="#mffb2547835" x="269.84" y="12.52" style="fill: #dc0d97; stroke: #dc0d97; stroke-width: 0.886227"/>
   </g>
  </g>
  <g id="patch_16">
   <path d="M 261.92 20.44 
L 277.76 20.44 
L 277.76 4.6 
L 261.92 4.6 
z
" clip-path="url(#pdce12edf46)" style="fill: #dc0d97; fill-opacity: 0.14902"/>
  </g>
  <g id="text_25">
   <!-- Supervised -->
   <g transform="translate(279.2 14.845125) scale(0.088 -0.088)">
    <use xlink:href="#Helvetica-53"/>
    <use xlink:href="#Helvetica-75" x="66.699219"/>
    <use xlink:href="#Helvetica-70" x="122.314453"/>
    <use xlink:href="#Helvetica-65" x="177.929688"/>
    <use xlink:href="#Helvetica-72" x="233.544922"/>
    <use xlink:href="#Helvetica-76" x="266.845703"/>
    <use xlink:href="#Helvetica-69" x="316.845703"/>
    <use xlink:href="#Helvetica-73" x="339.0625"/>
    <use xlink:href="#Helvetica-65" x="389.0625"/>
    <use xlink:href="#Helvetica-64" x="444.677734"/>
   </g>
  </g>
 </g>
 <defs>
  <clipPath id="p935388f141">
   <rect x="31.24975" y="46.253542" width="160.775125" height="126.610075"/>
  </clipPath>
  <clipPath id="pcad9e62474">
   <rect x="195.624875" y="46.253542" width="160.775125" height="126.610075"/>
  </clipPath>
  <clipPath id="pd660432424">
   <path d="M 64.426375 20.44 
L 64.426375 4.6 
L 80.266375 4.6 
L 80.266375 20.44 
"/>
  </clipPath>
  <clipPath id="p94dffef834">
   <path d="M 135.64025 20.44 
L 135.64025 4.6 
L 151.48025 4.6 
L 151.48025 20.44 
"/>
  </clipPath>
  <clipPath id="p4468e83198">
   <path d="M 184.837625 20.44 
L 184.837625 4.6 
L 200.677625 4.6 
L 200.677625 20.44 
"/>
  </clipPath>
  <clipPath id="pdce12edf46">
   <path d="M 261.92 20.44 
L 261.92 4.6 
L 277.76 4.6 
L 277.76 20.44 
"/>
  </clipPath>
 </defs>
</svg>
