<?xml version="1.0" encoding="utf-8" standalone="no"?>
<!DOCTYPE svg PUBLIC "-//W3C//DTD SVG 1.1//EN"
  "http://www.w3.org/Graphics/SVG/1.1/DTD/svg11.dtd">
<svg xmlns:xlink="http://www.w3.org/1999/xlink" width="360pt" height="216pt" viewBox="0 0 360 216" xmlns="http://www.w3.org/2000/svg" version="1.1">
 <metadata>
  <rdf:RDF xmlns:dc="http://purl.org/dc/elements/1.1/" xmlns:cc="http://creativecommons.org/ns#" xmlns:rdf="http://www.w3.org/1999/02/22-rdf-syntax-ns#">
   <cc:Work>
    <dc:type rdf:resource="http://purl.org/dc/dcmitype/StillImage"/>
    <dc:date>2025-02-18T18:01:12.201181</dc:date>
    <dc:format>image/svg+xml</dc:format>
    <dc:creator>
     <cc:Agent>
      <dc:title>Matplotlib v3.8.2, https://matplotlib.org/</dc:title>
     </cc:Agent>
    </dc:creator>
   </cc:Work>
  </rdf:RDF>
 </metadata>
 <defs>
  <style type="text/css">*{stroke-linejoin: round; stroke-linecap: butt}</style>
 </defs>
 <g id="figure_1">
  <g id="patch_1">
   <path d="M 0 216 
L 360 216 
L 360 0 
L 0 0 
z
" style="fill: #ffffff; stroke: #ffffff; stroke-linejoin: miter"/>
  </g>
  <g id="axes_1">
   <g id="patch_2">
    <path d="M 34.179875 172.863616 
L 193.489937 172.863616 
L 193.489937 59.111354 
L 34.179875 59.111354 
z
" style="fill: #ffffff"/>
   </g>
   <g id="matplotlib.axis_1">
    <g id="xtick_1">
     <g id="line2d_1">
      <path d="M 41.421241 172.863616 
L 41.421241 59.111354 
" clip-path="url(#pb101371c14)" style="fill: none; stroke: #e5e5e5; stroke-linecap: square"/>
     </g>
     <g id="line2d_2">
      <path d="M 41.421241 172.863616 
" style="fill: none; stroke: #333333; stroke-width: 1.5; stroke-linecap: square"/>
      <defs>
       <path id="m16439fbf06" d="M 0 0 
L 0 2.75 
" style="stroke: #333333"/>
      </defs>
      <g>
       <use xlink:href="#m16439fbf06" x="41.421241" y="172.863616" style="fill: #333333; stroke: #333333"/>
      </g>
     </g>
     <g id="text_1">
      <!-- &lt; 75 -->
      <g style="fill: #4d4d4d" transform="translate(27.840549 194.360999) rotate(-45) scale(0.088 -0.088)">
       <defs>
        <path id="Helvetica-3c" d="M 88 1894 
L 3741 3325 
L 3741 2763 
L 753 1634 
L 3741 503 
L 3741 -59 
L 88 1375 
L 88 1894 
z
" transform="scale(0.015625)"/>
        <path id="Helvetica-20" transform="scale(0.015625)"/>
        <path id="Helvetica-37" d="M 3347 4400 
L 3347 3909 
Q 3131 3700 2773 3181 
Q 2416 2663 2141 2063 
Q 1869 1478 1728 997 
Q 1638 688 1494 0 
L 872 0 
Q 1084 1281 1809 2550 
Q 2238 3294 2709 3834 
L 234 3834 
L 234 4400 
L 3347 4400 
z
" transform="scale(0.015625)"/>
        <path id="Helvetica-35" d="M 791 1141 
Q 847 659 1238 475 
Q 1438 381 1700 381 
Q 2200 381 2440 700 
Q 2681 1019 2681 1406 
Q 2681 1875 2395 2131 
Q 2109 2388 1709 2388 
Q 1419 2388 1211 2275 
Q 1003 2163 856 1963 
L 369 1991 
L 709 4400 
L 3034 4400 
L 3034 3856 
L 1131 3856 
L 941 2613 
Q 1097 2731 1238 2791 
Q 1488 2894 1816 2894 
Q 2431 2894 2859 2497 
Q 3288 2100 3288 1491 
Q 3288 856 2895 371 
Q 2503 -113 1644 -113 
Q 1097 -113 676 195 
Q 256 503 206 1141 
L 791 1141 
z
" transform="scale(0.015625)"/>
       </defs>
       <use xlink:href="#Helvetica-3c"/>
       <use xlink:href="#Helvetica-20" x="58.398438"/>
       <use xlink:href="#Helvetica-37" x="86.181641"/>
       <use xlink:href="#Helvetica-35" x="141.796875"/>
      </g>
     </g>
    </g>
    <g id="xtick_2">
     <g id="line2d_3">
      <path d="M 70.386707 172.863616 
L 70.386707 59.111354 
" clip-path="url(#pb101371c14)" style="fill: none; stroke: #e5e5e5; stroke-linecap: square"/>
     </g>
     <g id="line2d_4">
      <path d="M 70.386707 172.863616 
" style="fill: none; stroke: #333333; stroke-width: 1.5; stroke-linecap: square"/>
      <g>
       <use xlink:href="#m16439fbf06" x="70.386707" y="172.863616" style="fill: #333333; stroke: #333333"/>
      </g>
     </g>
     <g id="text_2">
      <!-- 75-80 -->
      <g style="fill: #4d4d4d" transform="translate(53.176524 197.990489) rotate(-45) scale(0.088 -0.088)">
       <defs>
        <path id="Helvetica-2d" d="M 266 2072 
L 1834 2072 
L 1834 1494 
L 266 1494 
L 266 2072 
z
" transform="scale(0.015625)"/>
        <path id="Helvetica-38" d="M 1741 2600 
Q 2113 2600 2322 2808 
Q 2531 3016 2531 3303 
Q 2531 3553 2331 3762 
Q 2131 3972 1722 3972 
Q 1316 3972 1134 3762 
Q 953 3553 953 3272 
Q 953 2956 1187 2778 
Q 1422 2600 1741 2600 
z
M 1775 384 
Q 2166 384 2423 595 
Q 2681 806 2681 1225 
Q 2681 1659 2415 1884 
Q 2150 2109 1734 2109 
Q 1331 2109 1076 1879 
Q 822 1650 822 1244 
Q 822 894 1055 639 
Q 1288 384 1775 384 
z
M 975 2384 
Q 741 2484 609 2619 
Q 363 2869 363 3269 
Q 363 3769 725 4128 
Q 1088 4488 1753 4488 
Q 2397 4488 2762 4148 
Q 3128 3809 3128 3356 
Q 3128 2938 2916 2678 
Q 2797 2531 2547 2391 
Q 2825 2263 2984 2097 
Q 3281 1784 3281 1284 
Q 3281 694 2884 283 
Q 2488 -128 1763 -128 
Q 1109 -128 657 226 
Q 206 581 206 1256 
Q 206 1653 400 1942 
Q 594 2231 975 2384 
z
" transform="scale(0.015625)"/>
        <path id="Helvetica-30" d="M 1731 4475 
Q 2600 4475 2988 3759 
Q 3288 3206 3288 2244 
Q 3288 1331 3016 734 
Q 2622 -122 1728 -122 
Q 922 -122 528 578 
Q 200 1163 200 2147 
Q 200 2909 397 3456 
Q 766 4475 1731 4475 
z
M 1725 391 
Q 2163 391 2422 778 
Q 2681 1166 2681 2222 
Q 2681 2984 2493 3476 
Q 2306 3969 1766 3969 
Q 1269 3969 1039 3501 
Q 809 3034 809 2125 
Q 809 1441 956 1025 
Q 1181 391 1725 391 
z
" transform="scale(0.015625)"/>
       </defs>
       <use xlink:href="#Helvetica-37"/>
       <use xlink:href="#Helvetica-35" x="55.615234"/>
       <use xlink:href="#Helvetica-2d" x="111.230469"/>
       <use xlink:href="#Helvetica-38" x="144.53125"/>
       <use xlink:href="#Helvetica-30" x="200.146484"/>
      </g>
     </g>
    </g>
    <g id="xtick_3">
     <g id="line2d_5">
      <path d="M 99.352173 172.863616 
L 99.352173 59.111354 
" clip-path="url(#pb101371c14)" style="fill: none; stroke: #e5e5e5; stroke-linecap: square"/>
     </g>
     <g id="line2d_6">
      <path d="M 99.352173 172.863616 
" style="fill: none; stroke: #333333; stroke-width: 1.5; stroke-linecap: square"/>
      <g>
       <use xlink:href="#m16439fbf06" x="99.352173" y="172.863616" style="fill: #333333; stroke: #333333"/>
      </g>
     </g>
     <g id="text_3">
      <!-- 80-85 -->
      <g style="fill: #4d4d4d" transform="translate(82.14199 197.990489) rotate(-45) scale(0.088 -0.088)">
       <use xlink:href="#Helvetica-38"/>
       <use xlink:href="#Helvetica-30" x="55.615234"/>
       <use xlink:href="#Helvetica-2d" x="111.230469"/>
       <use xlink:href="#Helvetica-38" x="144.53125"/>
       <use xlink:href="#Helvetica-35" x="200.146484"/>
      </g>
     </g>
    </g>
    <g id="xtick_4">
     <g id="line2d_7">
      <path d="M 128.317639 172.863616 
L 128.317639 59.111354 
" clip-path="url(#pb101371c14)" style="fill: none; stroke: #e5e5e5; stroke-linecap: square"/>
     </g>
     <g id="line2d_8">
      <path d="M 128.317639 172.863616 
" style="fill: none; stroke: #333333; stroke-width: 1.5; stroke-linecap: square"/>
      <g>
       <use xlink:href="#m16439fbf06" x="128.317639" y="172.863616" style="fill: #333333; stroke: #333333"/>
      </g>
     </g>
     <g id="text_4">
      <!-- 85-90 -->
      <g style="fill: #4d4d4d" transform="translate(111.107456 197.990489) rotate(-45) scale(0.088 -0.088)">
       <defs>
        <path id="Helvetica-39" d="M 850 1081 
Q 875 616 1209 438 
Q 1381 344 1597 344 
Q 2000 344 2284 680 
Q 2569 1016 2688 2044 
Q 2500 1747 2223 1626 
Q 1947 1506 1628 1506 
Q 981 1506 604 1909 
Q 228 2313 228 2947 
Q 228 3556 600 4018 
Q 972 4481 1697 4481 
Q 2675 4481 3047 3600 
Q 3253 3116 3253 2388 
Q 3253 1566 3006 931 
Q 2597 -125 1619 -125 
Q 963 -125 622 219 
Q 281 563 281 1081 
L 850 1081 
z
M 1703 2000 
Q 2038 2000 2314 2220 
Q 2591 2441 2591 2991 
Q 2591 3484 2342 3726 
Q 2094 3969 1709 3969 
Q 1297 3969 1055 3692 
Q 813 3416 813 2953 
Q 813 2516 1025 2258 
Q 1238 2000 1703 2000 
z
" transform="scale(0.015625)"/>
       </defs>
       <use xlink:href="#Helvetica-38"/>
       <use xlink:href="#Helvetica-35" x="55.615234"/>
       <use xlink:href="#Helvetica-2d" x="111.230469"/>
       <use xlink:href="#Helvetica-39" x="144.53125"/>
       <use xlink:href="#Helvetica-30" x="200.146484"/>
      </g>
     </g>
    </g>
    <g id="xtick_5">
     <g id="line2d_9">
      <path d="M 157.283105 172.863616 
L 157.283105 59.111354 
" clip-path="url(#pb101371c14)" style="fill: none; stroke: #e5e5e5; stroke-linecap: square"/>
     </g>
     <g id="line2d_10">
      <path d="M 157.283105 172.863616 
" style="fill: none; stroke: #333333; stroke-width: 1.5; stroke-linecap: square"/>
      <g>
       <use xlink:href="#m16439fbf06" x="157.283105" y="172.863616" style="fill: #333333; stroke: #333333"/>
      </g>
     </g>
     <g id="text_5">
      <!-- 90-95 -->
      <g style="fill: #4d4d4d" transform="translate(140.072922 197.990489) rotate(-45) scale(0.088 -0.088)">
       <use xlink:href="#Helvetica-39"/>
       <use xlink:href="#Helvetica-30" x="55.615234"/>
       <use xlink:href="#Helvetica-2d" x="111.230469"/>
       <use xlink:href="#Helvetica-39" x="144.53125"/>
       <use xlink:href="#Helvetica-35" x="200.146484"/>
      </g>
     </g>
    </g>
    <g id="xtick_6">
     <g id="line2d_11">
      <path d="M 186.248571 172.863616 
L 186.248571 59.111354 
" clip-path="url(#pb101371c14)" style="fill: none; stroke: #e5e5e5; stroke-linecap: square"/>
     </g>
     <g id="line2d_12">
      <path d="M 186.248571 172.863616 
" style="fill: none; stroke: #333333; stroke-width: 1.5; stroke-linecap: square"/>
      <g>
       <use xlink:href="#m16439fbf06" x="186.248571" y="172.863616" style="fill: #333333; stroke: #333333"/>
      </g>
     </g>
     <g id="text_6">
      <!-- &gt; 95 -->
      <g style="fill: #4d4d4d" transform="translate(172.667878 194.360999) rotate(-45) scale(0.088 -0.088)">
       <defs>
        <path id="Helvetica-3e" d="M 3741 1369 
L 88 -59 
L 88 503 
L 3072 1634 
L 88 2763 
L 88 3325 
L 3741 1894 
L 3741 1369 
z
" transform="scale(0.015625)"/>
       </defs>
       <use xlink:href="#Helvetica-3e"/>
       <use xlink:href="#Helvetica-20" x="58.398438"/>
       <use xlink:href="#Helvetica-39" x="86.181641"/>
       <use xlink:href="#Helvetica-35" x="141.796875"/>
      </g>
     </g>
    </g>
    <g id="xtick_7"/>
    <g id="xtick_8"/>
    <g id="xtick_9"/>
    <g id="xtick_10"/>
    <g id="xtick_11"/>
   </g>
   <g id="matplotlib.axis_2">
    <g id="ytick_1">
     <g id="line2d_13">
      <path d="M 34.179875 165.204041 
L 193.489937 165.204041 
" clip-path="url(#pb101371c14)" style="fill: none; stroke: #e5e5e5; stroke-linecap: square"/>
     </g>
     <g id="line2d_14">
      <path d="M 34.179875 165.204041 
" style="fill: none; stroke: #333333; stroke-width: 1.5; stroke-linecap: square"/>
      <defs>
       <path id="m9ad55d0658" d="M 0 0 
L -2.75 0 
" style="stroke: #333333"/>
      </defs>
      <g>
       <use xlink:href="#m9ad55d0658" x="34.179875" y="165.204041" style="fill: #333333; stroke: #333333"/>
      </g>
     </g>
     <g id="text_7">
      <!-- -10 -->
      <g style="fill: #4d4d4d" transform="translate(16.7125 168.360354) scale(0.088 -0.088)">
       <defs>
        <path id="Helvetica-31" d="M 613 3169 
L 613 3600 
Q 1222 3659 1462 3798 
Q 1703 3938 1822 4456 
L 2266 4456 
L 2266 0 
L 1666 0 
L 1666 3169 
L 613 3169 
z
" transform="scale(0.015625)"/>
       </defs>
       <use xlink:href="#Helvetica-2d"/>
       <use xlink:href="#Helvetica-31" x="33.300781"/>
       <use xlink:href="#Helvetica-30" x="88.916016"/>
      </g>
     </g>
    </g>
    <g id="ytick_2">
     <g id="line2d_15">
      <path d="M 34.179875 135.81054 
L 193.489937 135.81054 
" clip-path="url(#pb101371c14)" style="fill: none; stroke: #e5e5e5; stroke-linecap: square"/>
     </g>
     <g id="line2d_16">
      <path d="M 34.179875 135.81054 
" style="fill: none; stroke: #333333; stroke-width: 1.5; stroke-linecap: square"/>
      <g>
       <use xlink:href="#m9ad55d0658" x="34.179875" y="135.81054" style="fill: #333333; stroke: #333333"/>
      </g>
     </g>
     <g id="text_8">
      <!-- 0 -->
      <g style="fill: #4d4d4d" transform="translate(24.53625 138.966853) scale(0.088 -0.088)">
       <use xlink:href="#Helvetica-30"/>
      </g>
     </g>
    </g>
    <g id="ytick_3">
     <g id="line2d_17">
      <path d="M 34.179875 106.41704 
L 193.489937 106.41704 
" clip-path="url(#pb101371c14)" style="fill: none; stroke: #e5e5e5; stroke-linecap: square"/>
     </g>
     <g id="line2d_18">
      <path d="M 34.179875 106.41704 
" style="fill: none; stroke: #333333; stroke-width: 1.5; stroke-linecap: square"/>
      <g>
       <use xlink:href="#m9ad55d0658" x="34.179875" y="106.41704" style="fill: #333333; stroke: #333333"/>
      </g>
     </g>
     <g id="text_9">
      <!-- 10 -->
      <g style="fill: #4d4d4d" transform="translate(19.642625 109.573352) scale(0.088 -0.088)">
       <use xlink:href="#Helvetica-31"/>
       <use xlink:href="#Helvetica-30" x="55.615234"/>
      </g>
     </g>
    </g>
    <g id="ytick_4">
     <g id="line2d_19">
      <path d="M 34.179875 77.023539 
L 193.489937 77.023539 
" clip-path="url(#pb101371c14)" style="fill: none; stroke: #e5e5e5; stroke-linecap: square"/>
     </g>
     <g id="line2d_20">
      <path d="M 34.179875 77.023539 
" style="fill: none; stroke: #333333; stroke-width: 1.5; stroke-linecap: square"/>
      <g>
       <use xlink:href="#m9ad55d0658" x="34.179875" y="77.023539" style="fill: #333333; stroke: #333333"/>
      </g>
     </g>
     <g id="text_10">
      <!-- 20 -->
      <g style="fill: #4d4d4d" transform="translate(19.642625 80.179852) scale(0.088 -0.088)">
       <defs>
        <path id="Helvetica-32" d="M 200 0 
Q 231 578 439 1006 
Q 647 1434 1250 1784 
L 1850 2131 
Q 2253 2366 2416 2531 
Q 2672 2791 2672 3125 
Q 2672 3516 2437 3745 
Q 2203 3975 1813 3975 
Q 1234 3975 1013 3538 
Q 894 3303 881 2888 
L 309 2888 
Q 319 3472 525 3841 
Q 891 4491 1816 4491 
Q 2584 4491 2939 4075 
Q 3294 3659 3294 3150 
Q 3294 2613 2916 2231 
Q 2697 2009 2131 1694 
L 1703 1456 
Q 1397 1288 1222 1134 
Q 909 863 828 531 
L 3272 531 
L 3272 0 
L 200 0 
z
" transform="scale(0.015625)"/>
       </defs>
       <use xlink:href="#Helvetica-32"/>
       <use xlink:href="#Helvetica-30" x="55.615234"/>
      </g>
     </g>
    </g>
    <g id="ytick_5"/>
    <g id="ytick_6"/>
    <g id="ytick_7"/>
    <g id="ytick_8"/>
   </g>
   <g id="line2d_21">
    <path d="M 41.421241 119.084239 
L 70.386707 117.824517 
L 99.352173 133.361082 
L 128.317639 127.692335 
L 157.283105 135.014466 
L 186.248571 135.991027 
" clip-path="url(#pb101371c14)" style="fill: none; stroke: #3949f5; stroke-width: 1.772454"/>
   </g>
   <g id="line2d_22">
    <path d="M 41.421241 115.445043 
L 70.386707 114.115338 
L 99.352173 128.625462 
L 128.317639 126.432614 
L 157.283105 134.157156 
L 186.248571 137.44781 
" clip-path="url(#pb101371c14)" style="fill: none; stroke: #1c9a0e; stroke-width: 1.772454"/>
   </g>
   <g id="line2d_23">
    <path d="M 41.421241 108.516575 
L 70.386707 111.945817 
L 99.352173 133.034488 
L 128.317639 130.281763 
L 157.283105 134.004065 
L 186.248571 136.841891 
" clip-path="url(#pb101371c14)" style="fill: none; stroke: #e6950a; stroke-width: 1.772454"/>
   </g>
   <g id="line2d_24">
    <path d="M 41.421241 108.726529 
L 70.386707 119.399169 
L 99.352173 124.379735 
L 128.317639 129.986273 
L 157.283105 134.655796 
L 186.248571 138.322805 
" clip-path="url(#pb101371c14)" style="fill: none; stroke: #dc0d97; stroke-width: 1.772454"/>
   </g>
   <g id="PathCollection_1">
    <path d="M 41.421241 121.299806 
C 42.008817 121.299806 42.572406 121.06636 42.987884 120.650881 
C 43.403363 120.235403 43.636809 119.671814 43.636809 119.084239 
C 43.636809 118.496663 43.403363 117.933075 42.987884 117.517596 
C 42.572406 117.102118 42.008817 116.868671 41.421241 116.868671 
C 40.833666 116.868671 40.270077 117.102118 39.854599 117.517596 
C 39.43912 117.933075 39.205674 118.496663 39.205674 119.084239 
C 39.205674 119.671814 39.43912 120.235403 39.854599 120.650881 
C 40.270077 121.06636 40.833666 121.299806 41.421241 121.299806 
z
" clip-path="url(#pb101371c14)" style="fill: #3949f5; stroke: #3949f5; stroke-width: 0.886227"/>
    <path d="M 41.421241 117.660611 
C 42.008817 117.660611 42.572406 117.427165 42.987884 117.011686 
C 43.403363 116.596208 43.636809 116.032619 43.636809 115.445043 
C 43.636809 114.857468 43.403363 114.293879 42.987884 113.878401 
C 42.572406 113.462922 42.008817 113.229476 41.421241 113.229476 
C 40.833666 113.229476 40.270077 113.462922 39.854599 113.878401 
C 39.43912 114.293879 39.205674 114.857468 39.205674 115.445043 
C 39.205674 116.032619 39.43912 116.596208 39.854599 117.011686 
C 40.270077 117.427165 40.833666 117.660611 41.421241 117.660611 
z
" clip-path="url(#pb101371c14)" style="fill: #1c9a0e; stroke: #1c9a0e; stroke-width: 0.886227"/>
    <path d="M 41.421241 110.942096 
C 42.008817 110.942096 42.572406 110.70865 42.987884 110.293172 
C 43.403363 109.877693 43.636809 109.314104 43.636809 108.726529 
C 43.636809 108.138954 43.403363 107.575365 42.987884 107.159886 
C 42.572406 106.744408 42.008817 106.510962 41.421241 106.510962 
C 40.833666 106.510962 40.270077 106.744408 39.854599 107.159886 
C 39.43912 107.575365 39.205674 108.138954 39.205674 108.726529 
C 39.205674 109.314104 39.43912 109.877693 39.854599 110.293172 
C 40.270077 110.70865 40.833666 110.942096 41.421241 110.942096 
z
" clip-path="url(#pb101371c14)" style="fill: #dc0d97; stroke: #dc0d97; stroke-width: 0.886227"/>
    <path d="M 41.421241 110.732143 
C 42.008817 110.732143 42.572406 110.498697 42.987884 110.083218 
C 43.403363 109.66774 43.636809 109.104151 43.636809 108.516575 
C 43.636809 107.929 43.403363 107.365411 42.987884 106.949933 
C 42.572406 106.534454 42.008817 106.301008 41.421241 106.301008 
C 40.833666 106.301008 40.270077 106.534454 39.854599 106.949933 
C 39.43912 107.365411 39.205674 107.929 39.205674 108.516575 
C 39.205674 109.104151 39.43912 109.66774 39.854599 110.083218 
C 40.270077 110.498697 40.833666 110.732143 41.421241 110.732143 
z
" clip-path="url(#pb101371c14)" style="fill: #e6950a; stroke: #e6950a; stroke-width: 0.886227"/>
    <path d="M 70.386707 120.040085 
C 70.974283 120.040085 71.537872 119.806639 71.95335 119.39116 
C 72.368829 118.975682 72.602275 118.412093 72.602275 117.824517 
C 72.602275 117.236942 72.368829 116.673353 71.95335 116.257875 
C 71.537872 115.842396 70.974283 115.60895 70.386707 115.60895 
C 69.799132 115.60895 69.235543 115.842396 68.820065 116.257875 
C 68.404586 116.673353 68.17114 117.236942 68.17114 117.824517 
C 68.17114 118.412093 68.404586 118.975682 68.820065 119.39116 
C 69.235543 119.806639 69.799132 120.040085 70.386707 120.040085 
z
" clip-path="url(#pb101371c14)" style="fill: #3949f5; stroke: #3949f5; stroke-width: 0.886227"/>
    <path d="M 70.386707 116.330905 
C 70.974283 116.330905 71.537872 116.097459 71.95335 115.68198 
C 72.368829 115.266502 72.602275 114.702913 72.602275 114.115338 
C 72.602275 113.527762 72.368829 112.964173 71.95335 112.548695 
C 71.537872 112.133216 70.974283 111.89977 70.386707 111.89977 
C 69.799132 111.89977 69.235543 112.133216 68.820065 112.548695 
C 68.404586 112.964173 68.17114 113.527762 68.17114 114.115338 
C 68.17114 114.702913 68.404586 115.266502 68.820065 115.68198 
C 69.235543 116.097459 69.799132 116.330905 70.386707 116.330905 
z
" clip-path="url(#pb101371c14)" style="fill: #1c9a0e; stroke: #1c9a0e; stroke-width: 0.886227"/>
    <path d="M 70.386707 121.614736 
C 70.974283 121.614736 71.537872 121.38129 71.95335 120.965812 
C 72.368829 120.550333 72.602275 119.986744 72.602275 119.399169 
C 72.602275 118.811594 72.368829 118.248005 71.95335 117.832527 
C 71.537872 117.417048 70.974283 117.183602 70.386707 117.183602 
C 69.799132 117.183602 69.235543 117.417048 68.820065 117.832527 
C 68.404586 118.248005 68.17114 118.811594 68.17114 119.399169 
C 68.17114 119.986744 68.404586 120.550333 68.820065 120.965812 
C 69.235543 121.38129 69.799132 121.614736 70.386707 121.614736 
z
" clip-path="url(#pb101371c14)" style="fill: #dc0d97; stroke: #dc0d97; stroke-width: 0.886227"/>
    <path d="M 70.386707 114.161385 
C 70.974283 114.161385 71.537872 113.927938 71.95335 113.51246 
C 72.368829 113.096981 72.602275 112.533393 72.602275 111.945817 
C 72.602275 111.358242 72.368829 110.794653 71.95335 110.379175 
C 71.537872 109.963696 70.974283 109.73025 70.386707 109.73025 
C 69.799132 109.73025 69.235543 109.963696 68.820065 110.379175 
C 68.404586 110.794653 68.17114 111.358242 68.17114 111.945817 
C 68.17114 112.533393 68.404586 113.096981 68.820065 113.51246 
C 69.235543 113.927938 69.799132 114.161385 70.386707 114.161385 
z
" clip-path="url(#pb101371c14)" style="fill: #e6950a; stroke: #e6950a; stroke-width: 0.886227"/>
    <path d="M 99.352173 135.576649 
C 99.939749 135.576649 100.503337 135.343203 100.918816 134.927725 
C 101.334294 134.512246 101.567741 133.948657 101.567741 133.361082 
C 101.567741 132.773507 101.334294 132.209918 100.918816 131.794439 
C 100.503337 131.378961 99.939749 131.145515 99.352173 131.145515 
C 98.764598 131.145515 98.201009 131.378961 97.785531 131.794439 
C 97.370052 132.209918 97.136606 132.773507 97.136606 133.361082 
C 97.136606 133.948657 97.370052 134.512246 97.785531 134.927725 
C 98.201009 135.343203 98.764598 135.576649 99.352173 135.576649 
z
" clip-path="url(#pb101371c14)" style="fill: #3949f5; stroke: #3949f5; stroke-width: 0.886227"/>
    <path d="M 99.352173 130.84103 
C 99.939749 130.84103 100.503337 130.607584 100.918816 130.192105 
C 101.334294 129.776627 101.567741 129.213038 101.567741 128.625462 
C 101.567741 128.037887 101.334294 127.474298 100.918816 127.05882 
C 100.503337 126.643341 99.939749 126.409895 99.352173 126.409895 
C 98.764598 126.409895 98.201009 126.643341 97.785531 127.05882 
C 97.370052 127.474298 97.136606 128.037887 97.136606 128.625462 
C 97.136606 129.213038 97.370052 129.776627 97.785531 130.192105 
C 98.201009 130.607584 98.764598 130.84103 99.352173 130.84103 
z
" clip-path="url(#pb101371c14)" style="fill: #1c9a0e; stroke: #1c9a0e; stroke-width: 0.886227"/>
    <path d="M 99.352173 126.595302 
C 99.939749 126.595302 100.503337 126.361856 100.918816 125.946377 
C 101.334294 125.530899 101.567741 124.96731 101.567741 124.379735 
C 101.567741 123.792159 101.334294 123.22857 100.918816 122.813092 
C 100.503337 122.397613 99.939749 122.164167 99.352173 122.164167 
C 98.764598 122.164167 98.201009 122.397613 97.785531 122.813092 
C 97.370052 123.22857 97.136606 123.792159 97.136606 124.379735 
C 97.136606 124.96731 97.370052 125.530899 97.785531 125.946377 
C 98.201009 126.361856 98.764598 126.595302 99.352173 126.595302 
z
" clip-path="url(#pb101371c14)" style="fill: #dc0d97; stroke: #dc0d97; stroke-width: 0.886227"/>
    <path d="M 99.352173 135.250055 
C 99.939749 135.250055 100.503337 135.016609 100.918816 134.60113 
C 101.334294 134.185652 101.567741 133.622063 101.567741 133.034488 
C 101.567741 132.446912 101.334294 131.883323 100.918816 131.467845 
C 100.503337 131.052366 99.939749 130.81892 99.352173 130.81892 
C 98.764598 130.81892 98.201009 131.052366 97.785531 131.467845 
C 97.370052 131.883323 97.136606 132.446912 97.136606 133.034488 
C 97.136606 133.622063 97.370052 134.185652 97.785531 134.60113 
C 98.201009 135.016609 98.764598 135.250055 99.352173 135.250055 
z
" clip-path="url(#pb101371c14)" style="fill: #e6950a; stroke: #e6950a; stroke-width: 0.886227"/>
    <path d="M 128.317639 129.907903 
C 128.905215 129.907903 129.468803 129.674457 129.884282 129.258978 
C 130.29976 128.8435 130.533207 128.279911 130.533207 127.692335 
C 130.533207 127.10476 130.29976 126.541171 129.884282 126.125693 
C 129.468803 125.710214 128.905215 125.476768 128.317639 125.476768 
C 127.730064 125.476768 127.166475 125.710214 126.750997 126.125693 
C 126.335518 126.541171 126.102072 127.10476 126.102072 127.692335 
C 126.102072 128.279911 126.335518 128.8435 126.750997 129.258978 
C 127.166475 129.674457 127.730064 129.907903 128.317639 129.907903 
z
" clip-path="url(#pb101371c14)" style="fill: #3949f5; stroke: #3949f5; stroke-width: 0.886227"/>
    <path d="M 128.317639 128.648181 
C 128.905215 128.648181 129.468803 128.414735 129.884282 127.999257 
C 130.29976 127.583778 130.533207 127.020189 130.533207 126.432614 
C 130.533207 125.845039 130.29976 125.28145 129.884282 124.865971 
C 129.468803 124.450493 128.905215 124.217047 128.317639 124.217047 
C 127.730064 124.217047 127.166475 124.450493 126.750997 124.865971 
C 126.335518 125.28145 126.102072 125.845039 126.102072 126.432614 
C 126.102072 127.020189 126.335518 127.583778 126.750997 127.999257 
C 127.166475 128.414735 127.730064 128.648181 128.317639 128.648181 
z
" clip-path="url(#pb101371c14)" style="fill: #1c9a0e; stroke: #1c9a0e; stroke-width: 0.886227"/>
    <path d="M 128.317639 132.20184 
C 128.905215 132.20184 129.468803 131.968394 129.884282 131.552915 
C 130.29976 131.137437 130.533207 130.573848 130.533207 129.986273 
C 130.533207 129.398697 130.29976 128.835108 129.884282 128.41963 
C 129.468803 128.004151 128.905215 127.770705 128.317639 127.770705 
C 127.730064 127.770705 127.166475 128.004151 126.750997 128.41963 
C 126.335518 128.835108 126.102072 129.398697 126.102072 129.986273 
C 126.102072 130.573848 126.335518 131.137437 126.750997 131.552915 
C 127.166475 131.968394 127.730064 132.20184 128.317639 132.20184 
z
" clip-path="url(#pb101371c14)" style="fill: #dc0d97; stroke: #dc0d97; stroke-width: 0.886227"/>
    <path d="M 128.317639 132.49733 
C 128.905215 132.49733 129.468803 132.263884 129.884282 131.848406 
C 130.29976 131.432927 130.533207 130.869338 130.533207 130.281763 
C 130.533207 129.694188 130.29976 129.130599 129.884282 128.71512 
C 129.468803 128.299642 128.905215 128.066196 128.317639 128.066196 
C 127.730064 128.066196 127.166475 128.299642 126.750997 128.71512 
C 126.335518 129.130599 126.102072 129.694188 126.102072 130.281763 
C 126.102072 130.869338 126.335518 131.432927 126.750997 131.848406 
C 127.166475 132.263884 127.730064 132.49733 128.317639 132.49733 
z
" clip-path="url(#pb101371c14)" style="fill: #e6950a; stroke: #e6950a; stroke-width: 0.886227"/>
    <path d="M 157.283105 137.230034 
C 157.87068 137.230034 158.434269 136.996588 158.849748 136.581109 
C 159.265226 136.165631 159.498672 135.602042 159.498672 135.014466 
C 159.498672 134.426891 159.265226 133.863302 158.849748 133.447824 
C 158.434269 133.032345 157.87068 132.798899 157.283105 132.798899 
C 156.69553 132.798899 156.131941 133.032345 155.716462 133.447824 
C 155.300984 133.863302 155.067538 134.426891 155.067538 135.014466 
C 155.067538 135.602042 155.300984 136.165631 155.716462 136.581109 
C 156.131941 136.996588 156.69553 137.230034 157.283105 137.230034 
z
" clip-path="url(#pb101371c14)" style="fill: #3949f5; stroke: #3949f5; stroke-width: 0.886227"/>
    <path d="M 157.283105 136.372723 
C 157.87068 136.372723 158.434269 136.139277 158.849748 135.723799 
C 159.265226 135.30832 159.498672 134.744731 159.498672 134.157156 
C 159.498672 133.569581 159.265226 133.005992 158.849748 132.590513 
C 158.434269 132.175035 157.87068 131.941589 157.283105 131.941589 
C 156.69553 131.941589 156.131941 132.175035 155.716462 132.590513 
C 155.300984 133.005992 155.067538 133.569581 155.067538 134.157156 
C 155.067538 134.744731 155.300984 135.30832 155.716462 135.723799 
C 156.131941 136.139277 156.69553 136.372723 157.283105 136.372723 
z
" clip-path="url(#pb101371c14)" style="fill: #1c9a0e; stroke: #1c9a0e; stroke-width: 0.886227"/>
    <path d="M 157.283105 136.871363 
C 157.87068 136.871363 158.434269 136.637917 158.849748 136.222438 
C 159.265226 135.80696 159.498672 135.243371 159.498672 134.655796 
C 159.498672 134.06822 159.265226 133.504632 158.849748 133.089153 
C 158.434269 132.673675 157.87068 132.440228 157.283105 132.440228 
C 156.69553 132.440228 156.131941 132.673675 155.716462 133.089153 
C 155.300984 133.504632 155.067538 134.06822 155.067538 134.655796 
C 155.067538 135.243371 155.300984 135.80696 155.716462 136.222438 
C 156.131941 136.637917 156.69553 136.871363 157.283105 136.871363 
z
" clip-path="url(#pb101371c14)" style="fill: #dc0d97; stroke: #dc0d97; stroke-width: 0.886227"/>
    <path d="M 157.283105 136.219632 
C 157.87068 136.219632 158.434269 135.986186 158.849748 135.570708 
C 159.265226 135.155229 159.498672 134.59164 159.498672 134.004065 
C 159.498672 133.41649 159.265226 132.852901 158.849748 132.437422 
C 158.434269 132.021944 157.87068 131.788498 157.283105 131.788498 
C 156.69553 131.788498 156.131941 132.021944 155.716462 132.437422 
C 155.300984 132.852901 155.067538 133.41649 155.067538 134.004065 
C 155.067538 134.59164 155.300984 135.155229 155.716462 135.570708 
C 156.131941 135.986186 156.69553 136.219632 157.283105 136.219632 
z
" clip-path="url(#pb101371c14)" style="fill: #e6950a; stroke: #e6950a; stroke-width: 0.886227"/>
    <path d="M 186.248571 138.206594 
C 186.836146 138.206594 187.399735 137.973148 187.815214 137.557669 
C 188.230692 137.142191 188.464138 136.578602 188.464138 135.991027 
C 188.464138 135.403451 188.230692 134.839863 187.815214 134.424384 
C 187.399735 134.008906 186.836146 133.775459 186.248571 133.775459 
C 185.660996 133.775459 185.097407 134.008906 184.681928 134.424384 
C 184.26645 134.839863 184.033004 135.403451 184.033004 135.991027 
C 184.033004 136.578602 184.26645 137.142191 184.681928 137.557669 
C 185.097407 137.973148 185.660996 138.206594 186.248571 138.206594 
z
" clip-path="url(#pb101371c14)" style="fill: #3949f5; stroke: #3949f5; stroke-width: 0.886227"/>
    <path d="M 186.248571 139.663377 
C 186.836146 139.663377 187.399735 139.429931 187.815214 139.014453 
C 188.230692 138.598974 188.464138 138.035385 188.464138 137.44781 
C 188.464138 136.860235 188.230692 136.296646 187.815214 135.881167 
C 187.399735 135.465689 186.836146 135.232243 186.248571 135.232243 
C 185.660996 135.232243 185.097407 135.465689 184.681928 135.881167 
C 184.26645 136.296646 184.033004 136.860235 184.033004 137.44781 
C 184.033004 138.035385 184.26645 138.598974 184.681928 139.014453 
C 185.097407 139.429931 185.660996 139.663377 186.248571 139.663377 
z
" clip-path="url(#pb101371c14)" style="fill: #1c9a0e; stroke: #1c9a0e; stroke-width: 0.886227"/>
    <path d="M 186.248571 140.538373 
C 186.836146 140.538373 187.399735 140.304927 187.815214 139.889448 
C 188.230692 139.47397 188.464138 138.910381 188.464138 138.322805 
C 188.464138 137.73523 188.230692 137.171641 187.815214 136.756163 
C 187.399735 136.340684 186.836146 136.107238 186.248571 136.107238 
C 185.660996 136.107238 185.097407 136.340684 184.681928 136.756163 
C 184.26645 137.171641 184.033004 137.73523 184.033004 138.322805 
C 184.033004 138.910381 184.26645 139.47397 184.681928 139.889448 
C 185.097407 140.304927 185.660996 140.538373 186.248571 140.538373 
z
" clip-path="url(#pb101371c14)" style="fill: #dc0d97; stroke: #dc0d97; stroke-width: 0.886227"/>
    <path d="M 186.248571 139.057459 
C 186.836146 139.057459 187.399735 138.824012 187.815214 138.408534 
C 188.230692 137.993055 188.464138 137.429467 188.464138 136.841891 
C 188.464138 136.254316 188.230692 135.690727 187.815214 135.275249 
C 187.399735 134.85977 186.836146 134.626324 186.248571 134.626324 
C 185.660996 134.626324 185.097407 134.85977 184.681928 135.275249 
C 184.26645 135.690727 184.033004 136.254316 184.033004 136.841891 
C 184.033004 137.429467 184.26645 137.993055 184.681928 138.408534 
C 185.097407 138.824012 185.660996 139.057459 186.248571 139.057459 
z
" clip-path="url(#pb101371c14)" style="fill: #e6950a; stroke: #e6950a; stroke-width: 0.886227"/>
   </g>
   <g id="PolyCollection_1">
    <path d="M 41.421241 110.185557 
L 41.421241 142.81964 
L 70.386707 126.901349 
L 99.352173 142.061558 
L 128.317639 131.539924 
L 157.283105 136.689362 
L 186.248571 137.788915 
L 186.248571 133.832166 
L 186.248571 133.832166 
L 157.283105 131.992369 
L 128.317639 120.48549 
L 99.352173 130.539306 
L 70.386707 109.447531 
L 41.421241 110.185557 
z
" clip-path="url(#pb101371c14)" style="fill: #3949f5; fill-opacity: 0.14902"/>
   </g>
   <g id="line2d_25"/>
   <g id="line2d_26"/>
   <g id="PolyCollection_2">
    <path d="M 41.421241 104.617056 
L 41.421241 145.448791 
L 70.386707 125.677125 
L 99.352173 136.502921 
L 128.317639 130.555592 
L 157.283105 136.608936 
L 186.248571 138.021177 
L 186.248571 134.089795 
L 186.248571 134.089795 
L 157.283105 129.623337 
L 128.317639 118.530471 
L 99.352173 124.340543 
L 70.386707 96.954788 
L 41.421241 104.617056 
z
" clip-path="url(#pb101371c14)" style="fill: #1c9a0e; fill-opacity: 0.14902"/>
   </g>
   <g id="line2d_27"/>
   <g id="line2d_28"/>
   <g id="PolyCollection_3">
    <path d="M 41.421241 96.789464 
L 41.421241 129.761583 
L 70.386707 131.787505 
L 99.352173 141.817209 
L 128.317639 135.741209 
L 157.283105 136.559052 
L 186.248571 137.55249 
L 186.248571 134.558483 
L 186.248571 134.558483 
L 157.283105 128.203545 
L 128.317639 124.122471 
L 99.352173 128.824088 
L 70.386707 99.662458 
L 41.421241 96.789464 
z
" clip-path="url(#pb101371c14)" style="fill: #e6950a; fill-opacity: 0.14902"/>
   </g>
   <g id="line2d_29"/>
   <g id="line2d_30"/>
   <g id="PolyCollection_4">
    <path d="M 41.421241 99.161776 
L 41.421241 160.701905 
L 70.386707 135.903856 
L 99.352173 153.519079 
L 128.317639 137.064415 
L 157.283105 136.559961 
L 186.248571 138.370225 
L 186.248571 134.230639 
L 186.248571 134.230639 
L 157.283105 129.672312 
L 128.317639 119.859915 
L 99.352173 105.364818 
L 70.386707 100.934916 
L 41.421241 99.161776 
z
" clip-path="url(#pb101371c14)" style="fill: #dc0d97; fill-opacity: 0.14902"/>
   </g>
   <g id="line2d_31"/>
   <g id="line2d_32"/>
   <g id="LineCollection_1">
    <path d="M 34.179875 58.652601 
L 193.489938 139.484728 
" clip-path="url(#pb101371c14)" style="fill: none; stroke-dasharray: 3.27904,1.417963; stroke-dashoffset: 0; stroke: #000000; stroke-opacity: 0.501961; stroke-width: 0.886227"/>
   </g>
  </g>
  <g id="axes_2">
   <g id="patch_3">
    <path d="M 197.089937 172.863616 
L 356.4 172.863616 
L 356.4 59.111354 
L 197.089937 59.111354 
z
" style="fill: #ffffff"/>
   </g>
   <g id="matplotlib.axis_3">
    <g id="xtick_12">
     <g id="line2d_33">
      <path d="M 204.331304 172.863616 
L 204.331304 59.111354 
" clip-path="url(#p062986efef)" style="fill: none; stroke: #e5e5e5; stroke-linecap: square"/>
     </g>
     <g id="line2d_34">
      <path d="M 204.331304 172.863616 
" style="fill: none; stroke: #333333; stroke-width: 1.5; stroke-linecap: square"/>
      <g>
       <use xlink:href="#m16439fbf06" x="204.331304" y="172.863616" style="fill: #333333; stroke: #333333"/>
      </g>
     </g>
     <g id="text_11">
      <!-- &lt; 75 -->
      <g style="fill: #4d4d4d" transform="translate(190.750611 194.360999) rotate(-45) scale(0.088 -0.088)">
       <use xlink:href="#Helvetica-3c"/>
       <use xlink:href="#Helvetica-20" x="58.398438"/>
       <use xlink:href="#Helvetica-37" x="86.181641"/>
       <use xlink:href="#Helvetica-35" x="141.796875"/>
      </g>
     </g>
    </g>
    <g id="xtick_13">
     <g id="line2d_35">
      <path d="M 233.29677 172.863616 
L 233.29677 59.111354 
" clip-path="url(#p062986efef)" style="fill: none; stroke: #e5e5e5; stroke-linecap: square"/>
     </g>
     <g id="line2d_36">
      <path d="M 233.29677 172.863616 
" style="fill: none; stroke: #333333; stroke-width: 1.5; stroke-linecap: square"/>
      <g>
       <use xlink:href="#m16439fbf06" x="233.29677" y="172.863616" style="fill: #333333; stroke: #333333"/>
      </g>
     </g>
     <g id="text_12">
      <!-- 75-80 -->
      <g style="fill: #4d4d4d" transform="translate(216.086586 197.990489) rotate(-45) scale(0.088 -0.088)">
       <use xlink:href="#Helvetica-37"/>
       <use xlink:href="#Helvetica-35" x="55.615234"/>
       <use xlink:href="#Helvetica-2d" x="111.230469"/>
       <use xlink:href="#Helvetica-38" x="144.53125"/>
       <use xlink:href="#Helvetica-30" x="200.146484"/>
      </g>
     </g>
    </g>
    <g id="xtick_14">
     <g id="line2d_37">
      <path d="M 262.262236 172.863616 
L 262.262236 59.111354 
" clip-path="url(#p062986efef)" style="fill: none; stroke: #e5e5e5; stroke-linecap: square"/>
     </g>
     <g id="line2d_38">
      <path d="M 262.262236 172.863616 
" style="fill: none; stroke: #333333; stroke-width: 1.5; stroke-linecap: square"/>
      <g>
       <use xlink:href="#m16439fbf06" x="262.262236" y="172.863616" style="fill: #333333; stroke: #333333"/>
      </g>
     </g>
     <g id="text_13">
      <!-- 80-85 -->
      <g style="fill: #4d4d4d" transform="translate(245.052052 197.990489) rotate(-45) scale(0.088 -0.088)">
       <use xlink:href="#Helvetica-38"/>
       <use xlink:href="#Helvetica-30" x="55.615234"/>
       <use xlink:href="#Helvetica-2d" x="111.230469"/>
       <use xlink:href="#Helvetica-38" x="144.53125"/>
       <use xlink:href="#Helvetica-35" x="200.146484"/>
      </g>
     </g>
    </g>
    <g id="xtick_15">
     <g id="line2d_39">
      <path d="M 291.227702 172.863616 
L 291.227702 59.111354 
" clip-path="url(#p062986efef)" style="fill: none; stroke: #e5e5e5; stroke-linecap: square"/>
     </g>
     <g id="line2d_40">
      <path d="M 291.227702 172.863616 
" style="fill: none; stroke: #333333; stroke-width: 1.5; stroke-linecap: square"/>
      <g>
       <use xlink:href="#m16439fbf06" x="291.227702" y="172.863616" style="fill: #333333; stroke: #333333"/>
      </g>
     </g>
     <g id="text_14">
      <!-- 85-90 -->
      <g style="fill: #4d4d4d" transform="translate(274.017518 197.990489) rotate(-45) scale(0.088 -0.088)">
       <use xlink:href="#Helvetica-38"/>
       <use xlink:href="#Helvetica-35" x="55.615234"/>
       <use xlink:href="#Helvetica-2d" x="111.230469"/>
       <use xlink:href="#Helvetica-39" x="144.53125"/>
       <use xlink:href="#Helvetica-30" x="200.146484"/>
      </g>
     </g>
    </g>
    <g id="xtick_16">
     <g id="line2d_41">
      <path d="M 320.193168 172.863616 
L 320.193168 59.111354 
" clip-path="url(#p062986efef)" style="fill: none; stroke: #e5e5e5; stroke-linecap: square"/>
     </g>
     <g id="line2d_42">
      <path d="M 320.193168 172.863616 
" style="fill: none; stroke: #333333; stroke-width: 1.5; stroke-linecap: square"/>
      <g>
       <use xlink:href="#m16439fbf06" x="320.193168" y="172.863616" style="fill: #333333; stroke: #333333"/>
      </g>
     </g>
     <g id="text_15">
      <!-- 90-95 -->
      <g style="fill: #4d4d4d" transform="translate(302.982984 197.990489) rotate(-45) scale(0.088 -0.088)">
       <use xlink:href="#Helvetica-39"/>
       <use xlink:href="#Helvetica-30" x="55.615234"/>
       <use xlink:href="#Helvetica-2d" x="111.230469"/>
       <use xlink:href="#Helvetica-39" x="144.53125"/>
       <use xlink:href="#Helvetica-35" x="200.146484"/>
      </g>
     </g>
    </g>
    <g id="xtick_17">
     <g id="line2d_43">
      <path d="M 349.158634 172.863616 
L 349.158634 59.111354 
" clip-path="url(#p062986efef)" style="fill: none; stroke: #e5e5e5; stroke-linecap: square"/>
     </g>
     <g id="line2d_44">
      <path d="M 349.158634 172.863616 
" style="fill: none; stroke: #333333; stroke-width: 1.5; stroke-linecap: square"/>
      <g>
       <use xlink:href="#m16439fbf06" x="349.158634" y="172.863616" style="fill: #333333; stroke: #333333"/>
      </g>
     </g>
     <g id="text_16">
      <!-- &gt; 95 -->
      <g style="fill: #4d4d4d" transform="translate(335.577941 194.360999) rotate(-45) scale(0.088 -0.088)">
       <use xlink:href="#Helvetica-3e"/>
       <use xlink:href="#Helvetica-20" x="58.398438"/>
       <use xlink:href="#Helvetica-39" x="86.181641"/>
       <use xlink:href="#Helvetica-35" x="141.796875"/>
      </g>
     </g>
    </g>
    <g id="xtick_18"/>
    <g id="xtick_19"/>
    <g id="xtick_20"/>
    <g id="xtick_21"/>
    <g id="xtick_22"/>
   </g>
   <g id="matplotlib.axis_4">
    <g id="ytick_9">
     <g id="line2d_45">
      <path d="M 197.089937 165.204041 
L 356.4 165.204041 
" clip-path="url(#p062986efef)" style="fill: none; stroke: #e5e5e5; stroke-linecap: square"/>
     </g>
    </g>
    <g id="ytick_10">
     <g id="line2d_46">
      <path d="M 197.089937 135.81054 
L 356.4 135.81054 
" clip-path="url(#p062986efef)" style="fill: none; stroke: #e5e5e5; stroke-linecap: square"/>
     </g>
    </g>
    <g id="ytick_11">
     <g id="line2d_47">
      <path d="M 197.089937 106.41704 
L 356.4 106.41704 
" clip-path="url(#p062986efef)" style="fill: none; stroke: #e5e5e5; stroke-linecap: square"/>
     </g>
    </g>
    <g id="ytick_12">
     <g id="line2d_48">
      <path d="M 197.089937 77.023539 
L 356.4 77.023539 
" clip-path="url(#p062986efef)" style="fill: none; stroke: #e5e5e5; stroke-linecap: square"/>
     </g>
    </g>
    <g id="ytick_13"/>
    <g id="ytick_14"/>
    <g id="ytick_15"/>
    <g id="ytick_16"/>
   </g>
   <g id="line2d_49">
    <path d="M 204.331304 99.628541 
L 233.29677 109.682984 
L 262.262236 109.791849 
L 291.227702 125.958274 
L 320.193168 129.278651 
L 349.158634 138.880528 
" clip-path="url(#p062986efef)" style="fill: none; stroke: #3949f5; stroke-width: 1.772454"/>
   </g>
   <g id="line2d_50">
    <path d="M 204.331304 90.18063 
L 233.29677 115.561684 
L 262.262236 111.588119 
L 291.227702 121.385952 
L 320.193168 131.360691 
L 349.158634 142.522056 
" clip-path="url(#p062986efef)" style="fill: none; stroke: #1c9a0e; stroke-width: 1.772454"/>
   </g>
   <g id="line2d_51">
    <path d="M 204.331304 91.440351 
L 233.29677 111.805848 
L 262.262236 116.81363 
L 291.227702 127.373517 
L 320.193168 129.768543 
L 349.158634 140.464511 
" clip-path="url(#p062986efef)" style="fill: none; stroke: #e6950a; stroke-width: 1.772454"/>
   </g>
   <g id="line2d_52">
    <path d="M 204.331304 88.361032 
L 233.29677 126.829193 
L 262.262236 111.132247 
L 291.227702 126.176004 
L 320.193168 135.961276 
L 349.158634 141.819878 
" clip-path="url(#p062986efef)" style="fill: none; stroke: #dc0d97; stroke-width: 1.772454"/>
   </g>
   <g id="PathCollection_2">
    <path d="M 204.331304 101.844108 
C 204.918879 101.844108 205.482468 101.610662 205.897947 101.195183 
C 206.313425 100.779705 206.546871 100.216116 206.546871 99.628541 
C 206.546871 99.040965 206.313425 98.477377 205.897947 98.061898 
C 205.482468 97.64642 204.918879 97.412973 204.331304 97.412973 
C 203.743729 97.412973 203.18014 97.64642 202.764661 98.061898 
C 202.349183 98.477377 202.115737 99.040965 202.115737 99.628541 
C 202.115737 100.216116 202.349183 100.779705 202.764661 101.195183 
C 203.18014 101.610662 203.743729 101.844108 204.331304 101.844108 
z
" clip-path="url(#p062986efef)" style="fill: #3949f5; stroke: #3949f5; stroke-width: 0.886227"/>
    <path d="M 204.331304 92.396197 
C 204.918879 92.396197 205.482468 92.162751 205.897947 91.747272 
C 206.313425 91.331794 206.546871 90.768205 206.546871 90.18063 
C 206.546871 89.593054 206.313425 89.029466 205.897947 88.613987 
C 205.482468 88.198509 204.918879 87.965062 204.331304 87.965062 
C 203.743729 87.965062 203.18014 88.198509 202.764661 88.613987 
C 202.349183 89.029466 202.115737 89.593054 202.115737 90.18063 
C 202.115737 90.768205 202.349183 91.331794 202.764661 91.747272 
C 203.18014 92.162751 203.743729 92.396197 204.331304 92.396197 
z
" clip-path="url(#p062986efef)" style="fill: #1c9a0e; stroke: #1c9a0e; stroke-width: 0.886227"/>
    <path d="M 204.331304 90.576599 
C 204.918879 90.576599 205.482468 90.343153 205.897947 89.927675 
C 206.313425 89.512196 206.546871 88.948607 206.546871 88.361032 
C 206.546871 87.773457 206.313425 87.209868 205.897947 86.794389 
C 205.482468 86.378911 204.918879 86.145465 204.331304 86.145465 
C 203.743729 86.145465 203.18014 86.378911 202.764661 86.794389 
C 202.349183 87.209868 202.115737 87.773457 202.115737 88.361032 
C 202.115737 88.948607 202.349183 89.512196 202.764661 89.927675 
C 203.18014 90.343153 203.743729 90.576599 204.331304 90.576599 
z
" clip-path="url(#p062986efef)" style="fill: #dc0d97; stroke: #dc0d97; stroke-width: 0.886227"/>
    <path d="M 204.331304 93.655919 
C 204.918879 93.655919 205.482468 93.422472 205.897947 93.006994 
C 206.313425 92.591515 206.546871 92.027927 206.546871 91.440351 
C 206.546871 90.852776 206.313425 90.289187 205.897947 89.873709 
C 205.482468 89.45823 204.918879 89.224784 204.331304 89.224784 
C 203.743729 89.224784 203.18014 89.45823 202.764661 89.873709 
C 202.349183 90.289187 202.115737 90.852776 202.115737 91.440351 
C 202.115737 92.027927 202.349183 92.591515 202.764661 93.006994 
C 203.18014 93.422472 203.743729 93.655919 204.331304 93.655919 
z
" clip-path="url(#p062986efef)" style="fill: #e6950a; stroke: #e6950a; stroke-width: 0.886227"/>
    <path d="M 233.29677 111.898552 
C 233.884345 111.898552 234.447934 111.665105 234.863413 111.249627 
C 235.278891 110.834148 235.512337 110.27056 235.512337 109.682984 
C 235.512337 109.095409 235.278891 108.53182 234.863413 108.116342 
C 234.447934 107.700863 233.884345 107.467417 233.29677 107.467417 
C 232.709195 107.467417 232.145606 107.700863 231.730127 108.116342 
C 231.314649 108.53182 231.081203 109.095409 231.081203 109.682984 
C 231.081203 110.27056 231.314649 110.834148 231.730127 111.249627 
C 232.145606 111.665105 232.709195 111.898552 233.29677 111.898552 
z
" clip-path="url(#p062986efef)" style="fill: #3949f5; stroke: #3949f5; stroke-width: 0.886227"/>
    <path d="M 233.29677 117.777252 
C 233.884345 117.777252 234.447934 117.543806 234.863413 117.128327 
C 235.278891 116.712849 235.512337 116.14926 235.512337 115.561684 
C 235.512337 114.974109 235.278891 114.41052 234.863413 113.995042 
C 234.447934 113.579563 233.884345 113.346117 233.29677 113.346117 
C 232.709195 113.346117 232.145606 113.579563 231.730127 113.995042 
C 231.314649 114.41052 231.081203 114.974109 231.081203 115.561684 
C 231.081203 116.14926 231.314649 116.712849 231.730127 117.128327 
C 232.145606 117.543806 232.709195 117.777252 233.29677 117.777252 
z
" clip-path="url(#p062986efef)" style="fill: #1c9a0e; stroke: #1c9a0e; stroke-width: 0.886227"/>
    <path d="M 233.29677 129.04476 
C 233.884345 129.04476 234.447934 128.811314 234.863413 128.395836 
C 235.278891 127.980357 235.512337 127.416768 235.512337 126.829193 
C 235.512337 126.241618 235.278891 125.678029 234.863413 125.26255 
C 234.447934 124.847072 233.884345 124.613626 233.29677 124.613626 
C 232.709195 124.613626 232.145606 124.847072 231.730127 125.26255 
C 231.314649 125.678029 231.081203 126.241618 231.081203 126.829193 
C 231.081203 127.416768 231.314649 127.980357 231.730127 128.395836 
C 232.145606 128.811314 232.709195 129.04476 233.29677 129.04476 
z
" clip-path="url(#p062986efef)" style="fill: #dc0d97; stroke: #dc0d97; stroke-width: 0.886227"/>
    <path d="M 233.29677 114.021415 
C 233.884345 114.021415 234.447934 113.787969 234.863413 113.372491 
C 235.278891 112.957012 235.512337 112.393423 235.512337 111.805848 
C 235.512337 111.218273 235.278891 110.654684 234.863413 110.239205 
C 234.447934 109.823727 233.884345 109.590281 233.29677 109.590281 
C 232.709195 109.590281 232.145606 109.823727 231.730127 110.239205 
C 231.314649 110.654684 231.081203 111.218273 231.081203 111.805848 
C 231.081203 112.393423 231.314649 112.957012 231.730127 113.372491 
C 232.145606 113.787969 232.709195 114.021415 233.29677 114.021415 
z
" clip-path="url(#p062986efef)" style="fill: #e6950a; stroke: #e6950a; stroke-width: 0.886227"/>
    <path d="M 262.262236 112.007416 
C 262.849811 112.007416 263.4134 111.77397 263.828878 111.358492 
C 264.244357 110.943013 264.477803 110.379424 264.477803 109.791849 
C 264.477803 109.204274 264.244357 108.640685 263.828878 108.225206 
C 263.4134 107.809728 262.849811 107.576282 262.262236 107.576282 
C 261.67466 107.576282 261.111072 107.809728 260.695593 108.225206 
C 260.280115 108.640685 260.046668 109.204274 260.046668 109.791849 
C 260.046668 110.379424 260.280115 110.943013 260.695593 111.358492 
C 261.111072 111.77397 261.67466 112.007416 262.262236 112.007416 
z
" clip-path="url(#p062986efef)" style="fill: #3949f5; stroke: #3949f5; stroke-width: 0.886227"/>
    <path d="M 262.262236 113.803686 
C 262.849811 113.803686 263.4134 113.57024 263.828878 113.154761 
C 264.244357 112.739283 264.477803 112.175694 264.477803 111.588119 
C 264.477803 111.000543 264.244357 110.436954 263.828878 110.021476 
C 263.4134 109.605997 262.849811 109.372551 262.262236 109.372551 
C 261.67466 109.372551 261.111072 109.605997 260.695593 110.021476 
C 260.280115 110.436954 260.046668 111.000543 260.046668 111.588119 
C 260.046668 112.175694 260.280115 112.739283 260.695593 113.154761 
C 261.111072 113.57024 261.67466 113.803686 262.262236 113.803686 
z
" clip-path="url(#p062986efef)" style="fill: #1c9a0e; stroke: #1c9a0e; stroke-width: 0.886227"/>
    <path d="M 262.262236 113.347814 
C 262.849811 113.347814 263.4134 113.114368 263.828878 112.69889 
C 264.244357 112.283411 264.477803 111.719822 264.477803 111.132247 
C 264.477803 110.544672 264.244357 109.981083 263.828878 109.565604 
C 263.4134 109.150126 262.849811 108.91668 262.262236 108.91668 
C 261.67466 108.91668 261.111072 109.150126 260.695593 109.565604 
C 260.280115 109.981083 260.046668 110.544672 260.046668 111.132247 
C 260.046668 111.719822 260.280115 112.283411 260.695593 112.69889 
C 261.111072 113.114368 261.67466 113.347814 262.262236 113.347814 
z
" clip-path="url(#p062986efef)" style="fill: #dc0d97; stroke: #dc0d97; stroke-width: 0.886227"/>
    <path d="M 262.262236 119.029197 
C 262.849811 119.029197 263.4134 118.795751 263.828878 118.380272 
C 264.244357 117.964794 264.477803 117.401205 264.477803 116.81363 
C 264.477803 116.226054 264.244357 115.662466 263.828878 115.246987 
C 263.4134 114.831509 262.849811 114.598062 262.262236 114.598062 
C 261.67466 114.598062 261.111072 114.831509 260.695593 115.246987 
C 260.280115 115.662466 260.046668 116.226054 260.046668 116.81363 
C 260.046668 117.401205 260.280115 117.964794 260.695593 118.380272 
C 261.111072 118.795751 261.67466 119.029197 262.262236 119.029197 
z
" clip-path="url(#p062986efef)" style="fill: #e6950a; stroke: #e6950a; stroke-width: 0.886227"/>
    <path d="M 291.227702 128.173842 
C 291.815277 128.173842 292.378866 127.940396 292.794344 127.524917 
C 293.209823 127.109439 293.443269 126.54585 293.443269 125.958274 
C 293.443269 125.370699 293.209823 124.80711 292.794344 124.391632 
C 292.378866 123.976153 291.815277 123.742707 291.227702 123.742707 
C 290.640126 123.742707 290.076538 123.976153 289.661059 124.391632 
C 289.245581 124.80711 289.012134 125.370699 289.012134 125.958274 
C 289.012134 126.54585 289.245581 127.109439 289.661059 127.524917 
C 290.076538 127.940396 290.640126 128.173842 291.227702 128.173842 
z
" clip-path="url(#p062986efef)" style="fill: #3949f5; stroke: #3949f5; stroke-width: 0.886227"/>
    <path d="M 291.227702 123.601519 
C 291.815277 123.601519 292.378866 123.368073 292.794344 122.952595 
C 293.209823 122.537116 293.443269 121.973527 293.443269 121.385952 
C 293.443269 120.798377 293.209823 120.234788 292.794344 119.819309 
C 292.378866 119.403831 291.815277 119.170385 291.227702 119.170385 
C 290.640126 119.170385 290.076538 119.403831 289.661059 119.819309 
C 289.245581 120.234788 289.012134 120.798377 289.012134 121.385952 
C 289.012134 121.973527 289.245581 122.537116 289.661059 122.952595 
C 290.076538 123.368073 290.640126 123.601519 291.227702 123.601519 
z
" clip-path="url(#p062986efef)" style="fill: #1c9a0e; stroke: #1c9a0e; stroke-width: 0.886227"/>
    <path d="M 291.227702 128.391571 
C 291.815277 128.391571 292.378866 128.158125 292.794344 127.742647 
C 293.209823 127.327168 293.443269 126.763579 293.443269 126.176004 
C 293.443269 125.588429 293.209823 125.02484 292.794344 124.609361 
C 292.378866 124.193883 291.815277 123.960437 291.227702 123.960437 
C 290.640126 123.960437 290.076538 124.193883 289.661059 124.609361 
C 289.245581 125.02484 289.012134 125.588429 289.012134 126.176004 
C 289.012134 126.763579 289.245581 127.327168 289.661059 127.742647 
C 290.076538 128.158125 290.640126 128.391571 291.227702 128.391571 
z
" clip-path="url(#p062986efef)" style="fill: #dc0d97; stroke: #dc0d97; stroke-width: 0.886227"/>
    <path d="M 291.227702 129.589084 
C 291.815277 129.589084 292.378866 129.355638 292.794344 128.94016 
C 293.209823 128.524681 293.443269 127.961092 293.443269 127.373517 
C 293.443269 126.785942 293.209823 126.222353 292.794344 125.806874 
C 292.378866 125.391396 291.815277 125.15795 291.227702 125.15795 
C 290.640126 125.15795 290.076538 125.391396 289.661059 125.806874 
C 289.245581 126.222353 289.012134 126.785942 289.012134 127.373517 
C 289.012134 127.961092 289.245581 128.524681 289.661059 128.94016 
C 290.076538 129.355638 290.640126 129.589084 291.227702 129.589084 
z
" clip-path="url(#p062986efef)" style="fill: #e6950a; stroke: #e6950a; stroke-width: 0.886227"/>
    <path d="M 320.193168 131.494219 
C 320.780743 131.494219 321.344332 131.260773 321.75981 130.845294 
C 322.175289 130.429816 322.408735 129.866227 322.408735 129.278651 
C 322.408735 128.691076 322.175289 128.127487 321.75981 127.712009 
C 321.344332 127.29653 320.780743 127.063084 320.193168 127.063084 
C 319.605592 127.063084 319.042003 127.29653 318.626525 127.712009 
C 318.211046 128.127487 317.9776 128.691076 317.9776 129.278651 
C 317.9776 129.866227 318.211046 130.429816 318.626525 130.845294 
C 319.042003 131.260773 319.605592 131.494219 320.193168 131.494219 
z
" clip-path="url(#p062986efef)" style="fill: #3949f5; stroke: #3949f5; stroke-width: 0.886227"/>
    <path d="M 320.193168 133.576258 
C 320.780743 133.576258 321.344332 133.342812 321.75981 132.927334 
C 322.175289 132.511855 322.408735 131.948266 322.408735 131.360691 
C 322.408735 130.773116 322.175289 130.209527 321.75981 129.794048 
C 321.344332 129.37857 320.780743 129.145124 320.193168 129.145124 
C 319.605592 129.145124 319.042003 129.37857 318.626525 129.794048 
C 318.211046 130.209527 317.9776 130.773116 317.9776 131.360691 
C 317.9776 131.948266 318.211046 132.511855 318.626525 132.927334 
C 319.042003 133.342812 319.605592 133.576258 320.193168 133.576258 
z
" clip-path="url(#p062986efef)" style="fill: #1c9a0e; stroke: #1c9a0e; stroke-width: 0.886227"/>
    <path d="M 320.193168 138.176844 
C 320.780743 138.176844 321.344332 137.943397 321.75981 137.527919 
C 322.175289 137.11244 322.408735 136.548852 322.408735 135.961276 
C 322.408735 135.373701 322.175289 134.810112 321.75981 134.394634 
C 321.344332 133.979155 320.780743 133.745709 320.193168 133.745709 
C 319.605592 133.745709 319.042003 133.979155 318.626525 134.394634 
C 318.211046 134.810112 317.9776 135.373701 317.9776 135.961276 
C 317.9776 136.548852 318.211046 137.11244 318.626525 137.527919 
C 319.042003 137.943397 319.605592 138.176844 320.193168 138.176844 
z
" clip-path="url(#p062986efef)" style="fill: #dc0d97; stroke: #dc0d97; stroke-width: 0.886227"/>
    <path d="M 320.193168 131.98411 
C 320.780743 131.98411 321.344332 131.750664 321.75981 131.335186 
C 322.175289 130.919707 322.408735 130.356118 322.408735 129.768543 
C 322.408735 129.180968 322.175289 128.617379 321.75981 128.2019 
C 321.344332 127.786422 320.780743 127.552976 320.193168 127.552976 
C 319.605592 127.552976 319.042003 127.786422 318.626525 128.2019 
C 318.211046 128.617379 317.9776 129.180968 317.9776 129.768543 
C 317.9776 130.356118 318.211046 130.919707 318.626525 131.335186 
C 319.042003 131.750664 319.605592 131.98411 320.193168 131.98411 
z
" clip-path="url(#p062986efef)" style="fill: #e6950a; stroke: #e6950a; stroke-width: 0.886227"/>
    <path d="M 349.158634 141.096096 
C 349.746209 141.096096 350.309798 140.862649 350.725276 140.447171 
C 351.140755 140.031692 351.374201 139.468104 351.374201 138.880528 
C 351.374201 138.292953 351.140755 137.729364 350.725276 137.313886 
C 350.309798 136.898407 349.746209 136.664961 349.158634 136.664961 
C 348.571058 136.664961 348.007469 136.898407 347.591991 137.313886 
C 347.176512 137.729364 346.943066 138.292953 346.943066 138.880528 
C 346.943066 139.468104 347.176512 140.031692 347.591991 140.447171 
C 348.007469 140.862649 348.571058 141.096096 349.158634 141.096096 
z
" clip-path="url(#p062986efef)" style="fill: #3949f5; stroke: #3949f5; stroke-width: 0.886227"/>
    <path d="M 349.158634 144.737624 
C 349.746209 144.737624 350.309798 144.504178 350.725276 144.088699 
C 351.140755 143.673221 351.374201 143.109632 351.374201 142.522056 
C 351.374201 141.934481 351.140755 141.370892 350.725276 140.955414 
C 350.309798 140.539935 349.746209 140.306489 349.158634 140.306489 
C 348.571058 140.306489 348.007469 140.539935 347.591991 140.955414 
C 347.176512 141.370892 346.943066 141.934481 346.943066 142.522056 
C 346.943066 143.109632 347.176512 143.673221 347.591991 144.088699 
C 348.007469 144.504178 348.571058 144.737624 349.158634 144.737624 
z
" clip-path="url(#p062986efef)" style="fill: #1c9a0e; stroke: #1c9a0e; stroke-width: 0.886227"/>
    <path d="M 349.158634 144.035446 
C 349.746209 144.035446 350.309798 143.801999 350.725276 143.386521 
C 351.140755 142.971042 351.374201 142.407454 351.374201 141.819878 
C 351.374201 141.232303 351.140755 140.668714 350.725276 140.253236 
C 350.309798 139.837757 349.746209 139.604311 349.158634 139.604311 
C 348.571058 139.604311 348.007469 139.837757 347.591991 140.253236 
C 347.176512 140.668714 346.943066 141.232303 346.943066 141.819878 
C 346.943066 142.407454 347.176512 142.971042 347.591991 143.386521 
C 348.007469 143.801999 348.571058 144.035446 349.158634 144.035446 
z
" clip-path="url(#p062986efef)" style="fill: #dc0d97; stroke: #dc0d97; stroke-width: 0.886227"/>
    <path d="M 349.158634 142.680079 
C 349.746209 142.680079 350.309798 142.446633 350.725276 142.031154 
C 351.140755 141.615676 351.374201 141.052087 351.374201 140.464511 
C 351.374201 139.876936 351.140755 139.313347 350.725276 138.897869 
C 350.309798 138.48239 349.746209 138.248944 349.158634 138.248944 
C 348.571058 138.248944 348.007469 138.48239 347.591991 138.897869 
C 347.176512 139.313347 346.943066 139.876936 346.943066 140.464511 
C 346.943066 141.052087 347.176512 141.615676 347.591991 142.031154 
C 348.007469 142.446633 348.571058 142.680079 349.158634 142.680079 
z
" clip-path="url(#p062986efef)" style="fill: #e6950a; stroke: #e6950a; stroke-width: 0.886227"/>
   </g>
   <g id="PolyCollection_5">
    <path d="M 204.331304 94.278073 
L 204.331304 116.59644 
L 233.29677 126.729537 
L 262.262236 124.148281 
L 291.227702 133.124298 
L 320.193168 132.272996 
L 349.158634 140.217499 
L 349.158634 133.85304 
L 349.158634 133.85304 
L 320.193168 126.121009 
L 291.227702 122.820249 
L 262.262236 103.382548 
L 233.29677 101.781076 
L 204.331304 94.278073 
z
" clip-path="url(#p062986efef)" style="fill: #3949f5; fill-opacity: 0.14902"/>
   </g>
   <g id="line2d_53"/>
   <g id="line2d_54"/>
   <g id="PolyCollection_6">
    <path d="M 204.331304 82.925029 
L 204.331304 102.475116 
L 233.29677 134.835201 
L 262.262236 124.320515 
L 291.227702 127.195879 
L 320.193168 136.913834 
L 349.158634 142.031249 
L 349.158634 129.589831 
L 349.158634 129.589831 
L 320.193168 129.318438 
L 291.227702 116.011485 
L 262.262236 105.169882 
L 233.29677 64.281912 
L 204.331304 82.925029 
z
" clip-path="url(#p062986efef)" style="fill: #1c9a0e; fill-opacity: 0.14902"/>
   </g>
   <g id="line2d_55"/>
   <g id="line2d_56"/>
   <g id="PolyCollection_7">
    <path d="M 204.331304 82.816227 
L 204.331304 100.624351 
L 233.29677 127.959519 
L 262.262236 130.211025 
L 291.227702 138.092942 
L 320.193168 135.131257 
L 349.158634 141.352217 
L 349.158634 131.738538 
L 349.158634 131.738538 
L 320.193168 128.161665 
L 291.227702 112.952689 
L 262.262236 99.279371 
L 233.29677 70.17781 
L 204.331304 82.816227 
z
" clip-path="url(#p062986efef)" style="fill: #e6950a; fill-opacity: 0.14902"/>
   </g>
   <g id="line2d_57"/>
   <g id="line2d_58"/>
   <g id="PolyCollection_8">
    <path d="M 204.331304 77.304242 
L 204.331304 105.156554 
L 233.29677 167.693059 
L 262.262236 127.050691 
L 291.227702 131.902557 
L 320.193168 138.179108 
L 349.158634 142.657095 
L 349.158634 135.82247 
L 349.158634 135.82247 
L 320.193168 123.644139 
L 291.227702 110.325023 
L 262.262236 104.889164 
L 233.29677 70.615388 
L 204.331304 77.304242 
z
" clip-path="url(#p062986efef)" style="fill: #dc0d97; fill-opacity: 0.14902"/>
   </g>
   <g id="line2d_59"/>
   <g id="line2d_60"/>
   <g id="LineCollection_2">
    <path d="M 197.089937 58.652601 
L 356.4 139.484728 
" clip-path="url(#p062986efef)" style="fill: none; stroke-dasharray: 3.27904,1.417963; stroke-dashoffset: 0; stroke: #000000; stroke-opacity: 0.501961; stroke-width: 0.886227"/>
   </g>
  </g>
  <g id="patch_4">
   <path d="M 34.179875 172.863616 
L 193.489937 172.863616 
L 193.489937 59.111354 
L 34.179875 59.111354 
L 34.179875 172.863616 
z
" style="fill: none; stroke: #7f7f7f; stroke-linejoin: miter"/>
  </g>
  <g id="patch_5">
   <path d="M 197.089937 172.863616 
L 356.4 172.863616 
L 356.4 59.111354 
L 197.089937 59.111354 
L 197.089937 172.863616 
z
" style="fill: none; stroke: #7f7f7f; stroke-linejoin: miter"/>
  </g>
  <g id="text_17">
   <!-- XCOMET -->
   <g transform="translate(173.900875 10.773438) scale(0.1 -0.1)">
    <defs>
     <path id="Helvetica-58" d="M 881 0 
L 131 0 
L 1775 2353 
L 234 4591 
L 1013 4591 
L 2184 2834 
L 3347 4591 
L 4088 4591 
L 2547 2353 
L 4163 0 
L 3391 0 
L 2153 1888 
L 881 0 
z
" transform="scale(0.015625)"/>
     <path id="Helvetica-43" d="M 2422 4716 
Q 3294 4716 3775 4256 
Q 4256 3797 4309 3213 
L 3703 3213 
Q 3600 3656 3292 3915 
Q 2984 4175 2428 4175 
Q 1750 4175 1333 3698 
Q 916 3222 916 2238 
Q 916 1431 1292 929 
Q 1669 428 2416 428 
Q 3103 428 3463 956 
Q 3653 1234 3747 1688 
L 4353 1688 
Q 4272 963 3816 472 
Q 3269 -119 2341 -119 
Q 1541 -119 997 366 
Q 281 1006 281 2344 
Q 281 3359 819 4009 
Q 1400 4716 2422 4716 
z
M 2297 4716 
L 2297 4716 
z
" transform="scale(0.015625)"/>
     <path id="Helvetica-4f" d="M 2469 4716 
Q 3684 4716 4269 3934 
Q 4725 3325 4725 2375 
Q 4725 1347 4203 666 
Q 3591 -134 2456 -134 
Q 1397 -134 791 566 
Q 250 1241 250 2272 
Q 250 3203 713 3866 
Q 1306 4716 2469 4716 
z
M 2531 422 
Q 3353 422 3720 1011 
Q 4088 1600 4088 2366 
Q 4088 3175 3664 3669 
Q 3241 4163 2506 4163 
Q 1794 4163 1344 3673 
Q 894 3184 894 2231 
Q 894 1469 1280 945 
Q 1666 422 2531 422 
z
M 2488 4716 
L 2488 4716 
z
" transform="scale(0.015625)"/>
     <path id="Helvetica-4d" d="M 472 4591 
L 1363 4591 
L 2681 709 
L 3991 4591 
L 4872 4591 
L 4872 0 
L 4281 0 
L 4281 2709 
Q 4281 2850 4287 3175 
Q 4294 3500 4294 3872 
L 2984 0 
L 2369 0 
L 1050 3872 
L 1050 3731 
Q 1050 3563 1058 3217 
Q 1066 2872 1066 2709 
L 1066 0 
L 472 0 
L 472 4591 
z
" transform="scale(0.015625)"/>
     <path id="Helvetica-45" d="M 547 4591 
L 3894 4591 
L 3894 4028 
L 1153 4028 
L 1153 2634 
L 3688 2634 
L 3688 2103 
L 1153 2103 
L 1153 547 
L 3941 547 
L 3941 0 
L 547 0 
L 547 4591 
z
M 2244 4591 
L 2244 4591 
z
" transform="scale(0.015625)"/>
     <path id="Helvetica-54" d="M 3828 4591 
L 3828 4044 
L 2281 4044 
L 2281 0 
L 1650 0 
L 1650 4044 
L 103 4044 
L 103 4591 
L 3828 4591 
z
" transform="scale(0.015625)"/>
    </defs>
    <use xlink:href="#Helvetica-58"/>
    <use xlink:href="#Helvetica-43" x="66.699219"/>
    <use xlink:href="#Helvetica-4f" x="138.916016"/>
    <use xlink:href="#Helvetica-4d" x="216.699219"/>
    <use xlink:href="#Helvetica-45" x="300"/>
    <use xlink:href="#Helvetica-54" x="366.699219"/>
   </g>
  </g>
  <g id="text_18">
   <!-- MT Quality Score -->
   <g transform="translate(156.671188 210.25625) scale(0.1 -0.1)">
    <defs>
     <path id="Helvetica-51" d="M 4688 13 
L 4375 -366 
L 3666 175 
Q 3409 34 3111 -50 
Q 2813 -134 2459 -134 
Q 1391 -134 784 566 
Q 250 1247 250 2272 
Q 250 3203 713 3866 
Q 1306 4716 2469 4716 
Q 3684 4716 4269 3934 
Q 4725 3325 4725 2375 
Q 4725 1931 4616 1522 
Q 4450 897 4056 503 
L 4688 13 
z
M 2534 422 
Q 2728 422 2897 448 
Q 3066 475 3191 553 
L 2688 947 
L 3000 1331 
L 3600 866 
Q 3884 1191 3986 1594 
Q 4088 1997 4088 2366 
Q 4088 3175 3664 3669 
Q 3241 4163 2506 4163 
Q 1763 4163 1328 3689 
Q 894 3216 894 2231 
Q 894 1403 1311 912 
Q 1728 422 2534 422 
z
" transform="scale(0.015625)"/>
     <path id="Helvetica-75" d="M 975 3347 
L 975 1125 
Q 975 869 1056 706 
Q 1206 406 1616 406 
Q 2203 406 2416 931 
Q 2531 1213 2531 1703 
L 2531 3347 
L 3094 3347 
L 3094 0 
L 2563 0 
L 2569 494 
Q 2459 303 2297 172 
Q 1975 -91 1516 -91 
Q 800 -91 541 388 
Q 400 644 400 1072 
L 400 3347 
L 975 3347 
z
M 1747 3428 
L 1747 3428 
z
" transform="scale(0.015625)"/>
     <path id="Helvetica-61" d="M 844 891 
Q 844 647 1022 506 
Q 1200 366 1444 366 
Q 1741 366 2019 503 
Q 2488 731 2488 1250 
L 2488 1703 
Q 2384 1638 2221 1594 
Q 2059 1550 1903 1531 
L 1563 1488 
Q 1256 1447 1103 1359 
Q 844 1213 844 891 
z
M 2206 2028 
Q 2400 2053 2466 2191 
Q 2503 2266 2503 2406 
Q 2503 2694 2298 2823 
Q 2094 2953 1713 2953 
Q 1272 2953 1088 2716 
Q 984 2584 953 2325 
L 428 2325 
Q 444 2944 830 3186 
Q 1216 3428 1725 3428 
Q 2316 3428 2684 3203 
Q 3050 2978 3050 2503 
L 3050 575 
Q 3050 488 3086 434 
Q 3122 381 3238 381 
Q 3275 381 3322 386 
Q 3369 391 3422 400 
L 3422 -16 
Q 3291 -53 3222 -62 
Q 3153 -72 3034 -72 
Q 2744 -72 2613 134 
Q 2544 244 2516 444 
Q 2344 219 2022 53 
Q 1700 -113 1313 -113 
Q 847 -113 551 170 
Q 256 453 256 878 
Q 256 1344 547 1600 
Q 838 1856 1309 1916 
L 2206 2028 
z
M 1741 3428 
L 1741 3428 
z
" transform="scale(0.015625)"/>
     <path id="Helvetica-6c" d="M 428 4591 
L 991 4591 
L 991 0 
L 428 0 
L 428 4591 
z
" transform="scale(0.015625)"/>
     <path id="Helvetica-69" d="M 413 3331 
L 984 3331 
L 984 0 
L 413 0 
L 413 3331 
z
M 413 4591 
L 984 4591 
L 984 3953 
L 413 3953 
L 413 4591 
z
" transform="scale(0.015625)"/>
     <path id="Helvetica-74" d="M 525 4281 
L 1094 4281 
L 1094 3347 
L 1628 3347 
L 1628 2888 
L 1094 2888 
L 1094 703 
Q 1094 528 1213 469 
Q 1278 434 1431 434 
Q 1472 434 1519 436 
Q 1566 438 1628 444 
L 1628 0 
Q 1531 -28 1426 -40 
Q 1322 -53 1200 -53 
Q 806 -53 665 148 
Q 525 350 525 672 
L 525 2888 
L 72 2888 
L 72 3347 
L 525 3347 
L 525 4281 
z
" transform="scale(0.015625)"/>
     <path id="Helvetica-79" d="M 2503 3347 
L 3125 3347 
Q 3006 3025 2597 1878 
Q 2291 1016 2084 472 
Q 1597 -809 1397 -1090 
Q 1197 -1372 709 -1372 
Q 591 -1372 527 -1362 
Q 463 -1353 369 -1328 
L 369 -816 
Q 516 -856 581 -865 
Q 647 -875 697 -875 
Q 853 -875 926 -823 
Q 1000 -772 1050 -697 
Q 1066 -672 1162 -440 
Q 1259 -209 1303 -97 
L 66 3347 
L 703 3347 
L 1600 622 
L 2503 3347 
z
M 1597 3428 
L 1597 3428 
z
" transform="scale(0.015625)"/>
     <path id="Helvetica-53" d="M 894 1481 
Q 916 1091 1078 847 
Q 1388 391 2169 391 
Q 2519 391 2806 491 
Q 3363 684 3363 1184 
Q 3363 1559 3128 1719 
Q 2891 1875 2384 1991 
L 1763 2131 
Q 1153 2269 900 2434 
Q 463 2722 463 3294 
Q 463 3913 891 4309 
Q 1319 4706 2103 4706 
Q 2825 4706 3329 4357 
Q 3834 4009 3834 3244 
L 3250 3244 
Q 3203 3613 3050 3809 
Q 2766 4169 2084 4169 
Q 1534 4169 1293 3937 
Q 1053 3706 1053 3400 
Q 1053 3063 1334 2906 
Q 1519 2806 2169 2656 
L 2813 2509 
Q 3278 2403 3531 2219 
Q 3969 1897 3969 1284 
Q 3969 522 3414 194 
Q 2859 -134 2125 -134 
Q 1269 -134 784 303 
Q 300 738 309 1481 
L 894 1481 
z
M 2150 4716 
L 2150 4716 
z
" transform="scale(0.015625)"/>
     <path id="Helvetica-63" d="M 1703 3444 
Q 2269 3444 2623 3169 
Q 2978 2894 3050 2222 
L 2503 2222 
Q 2453 2531 2275 2736 
Q 2097 2941 1703 2941 
Q 1166 2941 934 2416 
Q 784 2075 784 1575 
Q 784 1072 996 728 
Q 1209 384 1666 384 
Q 2016 384 2220 598 
Q 2425 813 2503 1184 
L 3050 1184 
Q 2956 519 2581 211 
Q 2206 -97 1622 -97 
Q 966 -97 575 383 
Q 184 863 184 1581 
Q 184 2463 612 2953 
Q 1041 3444 1703 3444 
z
M 1616 3428 
L 1616 3428 
z
" transform="scale(0.015625)"/>
     <path id="Helvetica-6f" d="M 1741 363 
Q 2300 363 2508 786 
Q 2716 1209 2716 1728 
Q 2716 2197 2566 2491 
Q 2328 2953 1747 2953 
Q 1231 2953 997 2559 
Q 763 2166 763 1609 
Q 763 1075 997 719 
Q 1231 363 1741 363 
z
M 1763 3444 
Q 2409 3444 2856 3012 
Q 3303 2581 3303 1744 
Q 3303 934 2909 406 
Q 2516 -122 1688 -122 
Q 997 -122 590 345 
Q 184 813 184 1600 
Q 184 2444 612 2944 
Q 1041 3444 1763 3444 
z
M 1744 3428 
L 1744 3428 
z
" transform="scale(0.015625)"/>
     <path id="Helvetica-72" d="M 428 3347 
L 963 3347 
L 963 2769 
Q 1028 2938 1284 3180 
Q 1541 3422 1875 3422 
Q 1891 3422 1928 3419 
Q 1966 3416 2056 3406 
L 2056 2813 
Q 2006 2822 1964 2825 
Q 1922 2828 1872 2828 
Q 1447 2828 1219 2554 
Q 991 2281 991 1925 
L 991 0 
L 428 0 
L 428 3347 
z
" transform="scale(0.015625)"/>
     <path id="Helvetica-65" d="M 1806 3422 
Q 2163 3422 2497 3255 
Q 2831 3088 3006 2822 
Q 3175 2569 3231 2231 
Q 3281 2000 3281 1494 
L 828 1494 
Q 844 984 1069 676 
Q 1294 369 1766 369 
Q 2206 369 2469 659 
Q 2619 828 2681 1050 
L 3234 1050 
Q 3213 866 3089 639 
Q 2966 413 2813 269 
Q 2556 19 2178 -69 
Q 1975 -119 1719 -119 
Q 1094 -119 659 336 
Q 225 791 225 1609 
Q 225 2416 662 2919 
Q 1100 3422 1806 3422 
z
M 2703 1941 
Q 2669 2306 2544 2525 
Q 2313 2931 1772 2931 
Q 1384 2931 1121 2651 
Q 859 2372 844 1941 
L 2703 1941 
z
M 1753 3428 
L 1753 3428 
z
" transform="scale(0.015625)"/>
    </defs>
    <use xlink:href="#Helvetica-4d"/>
    <use xlink:href="#Helvetica-54" x="83.300781"/>
    <use xlink:href="#Helvetica-20" x="144.384766"/>
    <use xlink:href="#Helvetica-51" x="172.167969"/>
    <use xlink:href="#Helvetica-75" x="249.951172"/>
    <use xlink:href="#Helvetica-61" x="305.566406"/>
    <use xlink:href="#Helvetica-6c" x="361.181641"/>
    <use xlink:href="#Helvetica-69" x="383.398438"/>
    <use xlink:href="#Helvetica-74" x="405.615234"/>
    <use xlink:href="#Helvetica-79" x="433.398438"/>
    <use xlink:href="#Helvetica-20" x="483.398438"/>
    <use xlink:href="#Helvetica-53" x="511.181641"/>
    <use xlink:href="#Helvetica-63" x="577.880859"/>
    <use xlink:href="#Helvetica-6f" x="627.880859"/>
    <use xlink:href="#Helvetica-72" x="683.496094"/>
    <use xlink:href="#Helvetica-65" x="716.796875"/>
   </g>
  </g>
  <g id="text_19">
   <!-- Median Edited Quality Improvement -->
   <g transform="translate(10.96875 195.464829) rotate(-90) scale(0.1 -0.1)">
    <defs>
     <path id="Helvetica-64" d="M 769 1634 
Q 769 1097 997 734 
Q 1225 372 1728 372 
Q 2119 372 2370 708 
Q 2622 1044 2622 1672 
Q 2622 2306 2362 2611 
Q 2103 2916 1722 2916 
Q 1297 2916 1033 2591 
Q 769 2266 769 1634 
z
M 1616 3406 
Q 2000 3406 2259 3244 
Q 2409 3150 2600 2916 
L 2600 4606 
L 3141 4606 
L 3141 0 
L 2634 0 
L 2634 466 
Q 2438 156 2169 18 
Q 1900 -119 1553 -119 
Q 994 -119 584 351 
Q 175 822 175 1603 
Q 175 2334 548 2870 
Q 922 3406 1616 3406 
z
" transform="scale(0.015625)"/>
     <path id="Helvetica-6e" d="M 413 3347 
L 947 3347 
L 947 2872 
Q 1184 3166 1450 3294 
Q 1716 3422 2041 3422 
Q 2753 3422 3003 2925 
Q 3141 2653 3141 2147 
L 3141 0 
L 2569 0 
L 2569 2109 
Q 2569 2416 2478 2603 
Q 2328 2916 1934 2916 
Q 1734 2916 1606 2875 
Q 1375 2806 1200 2600 
Q 1059 2434 1017 2257 
Q 975 2081 975 1753 
L 975 0 
L 413 0 
L 413 3347 
z
M 1734 3428 
L 1734 3428 
z
" transform="scale(0.015625)"/>
     <path id="Helvetica-49" d="M 628 4591 
L 1256 4591 
L 1256 0 
L 628 0 
L 628 4591 
z
" transform="scale(0.015625)"/>
     <path id="Helvetica-6d" d="M 413 3347 
L 969 3347 
L 969 2872 
Q 1169 3119 1331 3231 
Q 1609 3422 1963 3422 
Q 2363 3422 2606 3225 
Q 2744 3113 2856 2894 
Q 3044 3163 3297 3292 
Q 3550 3422 3866 3422 
Q 4541 3422 4784 2934 
Q 4916 2672 4916 2228 
L 4916 0 
L 4331 0 
L 4331 2325 
Q 4331 2659 4164 2784 
Q 3997 2909 3756 2909 
Q 3425 2909 3186 2687 
Q 2947 2466 2947 1947 
L 2947 0 
L 2375 0 
L 2375 2184 
Q 2375 2525 2294 2681 
Q 2166 2916 1816 2916 
Q 1497 2916 1236 2669 
Q 975 2422 975 1775 
L 975 0 
L 413 0 
L 413 3347 
z
" transform="scale(0.015625)"/>
     <path id="Helvetica-70" d="M 1825 378 
Q 2219 378 2480 708 
Q 2741 1038 2741 1694 
Q 2741 2094 2625 2381 
Q 2406 2934 1825 2934 
Q 1241 2934 1025 2350 
Q 909 2038 909 1556 
Q 909 1169 1025 897 
Q 1244 378 1825 378 
z
M 369 3331 
L 916 3331 
L 916 2888 
Q 1084 3116 1284 3241 
Q 1569 3428 1953 3428 
Q 2522 3428 2919 2992 
Q 3316 2556 3316 1747 
Q 3316 653 2744 184 
Q 2381 -113 1900 -113 
Q 1522 -113 1266 53 
Q 1116 147 931 375 
L 931 -1334 
L 369 -1334 
L 369 3331 
z
" transform="scale(0.015625)"/>
     <path id="Helvetica-76" d="M 688 3347 
L 1581 622 
L 2516 3347 
L 3131 3347 
L 1869 0 
L 1269 0 
L 34 3347 
L 688 3347 
z
" transform="scale(0.015625)"/>
    </defs>
    <use xlink:href="#Helvetica-4d"/>
    <use xlink:href="#Helvetica-65" x="83.300781"/>
    <use xlink:href="#Helvetica-64" x="138.916016"/>
    <use xlink:href="#Helvetica-69" x="194.53125"/>
    <use xlink:href="#Helvetica-61" x="216.748047"/>
    <use xlink:href="#Helvetica-6e" x="272.363281"/>
    <use xlink:href="#Helvetica-20" x="327.978516"/>
    <use xlink:href="#Helvetica-45" x="355.761719"/>
    <use xlink:href="#Helvetica-64" x="422.460938"/>
    <use xlink:href="#Helvetica-69" x="478.076172"/>
    <use xlink:href="#Helvetica-74" x="500.292969"/>
    <use xlink:href="#Helvetica-65" x="528.076172"/>
    <use xlink:href="#Helvetica-64" x="583.691406"/>
    <use xlink:href="#Helvetica-20" x="639.306641"/>
    <use xlink:href="#Helvetica-51" x="667.089844"/>
    <use xlink:href="#Helvetica-75" x="744.873047"/>
    <use xlink:href="#Helvetica-61" x="800.488281"/>
    <use xlink:href="#Helvetica-6c" x="856.103516"/>
    <use xlink:href="#Helvetica-69" x="878.320312"/>
    <use xlink:href="#Helvetica-74" x="900.537109"/>
    <use xlink:href="#Helvetica-79" x="928.320312"/>
    <use xlink:href="#Helvetica-20" x="978.320312"/>
    <use xlink:href="#Helvetica-49" x="1006.103516"/>
    <use xlink:href="#Helvetica-6d" x="1033.886719"/>
    <use xlink:href="#Helvetica-70" x="1117.1875"/>
    <use xlink:href="#Helvetica-72" x="1172.802734"/>
    <use xlink:href="#Helvetica-6f" x="1206.103516"/>
    <use xlink:href="#Helvetica-76" x="1261.71875"/>
    <use xlink:href="#Helvetica-65" x="1311.71875"/>
    <use xlink:href="#Helvetica-6d" x="1367.333984"/>
    <use xlink:href="#Helvetica-65" x="1450.634766"/>
    <use xlink:href="#Helvetica-6e" x="1506.25"/>
    <use xlink:href="#Helvetica-74" x="1561.865234"/>
   </g>
  </g>
  <g id="patch_6">
   <path d="M 34.179875 59.111354 
L 193.489937 59.111354 
L 193.489937 45.097813 
L 34.179875 45.097813 
z
" style="fill: #cccccc; stroke: #7f7f7f; stroke-linejoin: miter"/>
  </g>
  <g id="text_20">
   <!-- Biomedical -->
   <g style="fill: #1a1a1a" transform="translate(92.314781 55.260896) scale(0.088 -0.088)">
    <defs>
     <path id="Helvetica-42" d="M 2213 2650 
Q 2606 2650 2825 2759 
Q 3169 2931 3169 3378 
Q 3169 3828 2803 3984 
Q 2597 4072 2191 4072 
L 1081 4072 
L 1081 2650 
L 2213 2650 
z
M 2422 531 
Q 2994 531 3238 863 
Q 3391 1072 3391 1369 
Q 3391 1869 2944 2050 
Q 2706 2147 2316 2147 
L 1081 2147 
L 1081 531 
L 2422 531 
z
M 472 4591 
L 2444 4591 
Q 3250 4591 3591 4109 
Q 3791 3825 3791 3453 
Q 3791 3019 3544 2741 
Q 3416 2594 3175 2472 
Q 3528 2338 3703 2169 
Q 4013 1869 4013 1341 
Q 4013 897 3734 538 
Q 3319 0 2413 0 
L 472 0 
L 472 4591 
z
" transform="scale(0.015625)"/>
    </defs>
    <use xlink:href="#Helvetica-42"/>
    <use xlink:href="#Helvetica-69" x="66.699219"/>
    <use xlink:href="#Helvetica-6f" x="88.916016"/>
    <use xlink:href="#Helvetica-6d" x="144.53125"/>
    <use xlink:href="#Helvetica-65" x="227.832031"/>
    <use xlink:href="#Helvetica-64" x="283.447266"/>
    <use xlink:href="#Helvetica-69" x="339.0625"/>
    <use xlink:href="#Helvetica-63" x="361.279297"/>
    <use xlink:href="#Helvetica-61" x="411.279297"/>
    <use xlink:href="#Helvetica-6c" x="466.894531"/>
   </g>
  </g>
  <g id="patch_7">
   <path d="M 197.089937 59.111354 
L 356.4 59.111354 
L 356.4 45.097813 
L 197.089937 45.097813 
z
" style="fill: #cccccc; stroke: #7f7f7f; stroke-linejoin: miter"/>
  </g>
  <g id="text_21">
   <!-- Social Media -->
   <g style="fill: #1a1a1a" transform="translate(251.555656 55.260896) scale(0.088 -0.088)">
    <use xlink:href="#Helvetica-53"/>
    <use xlink:href="#Helvetica-6f" x="66.699219"/>
    <use xlink:href="#Helvetica-63" x="122.314453"/>
    <use xlink:href="#Helvetica-69" x="172.314453"/>
    <use xlink:href="#Helvetica-61" x="194.53125"/>
    <use xlink:href="#Helvetica-6c" x="250.146484"/>
    <use xlink:href="#Helvetica-20" x="272.363281"/>
    <use xlink:href="#Helvetica-4d" x="300.146484"/>
    <use xlink:href="#Helvetica-65" x="383.447266"/>
    <use xlink:href="#Helvetica-64" x="439.0625"/>
    <use xlink:href="#Helvetica-69" x="494.677734"/>
    <use xlink:href="#Helvetica-61" x="516.894531"/>
   </g>
  </g>
  <g id="patch_8">
   <path d="M 64.891437 34.297813 
L 325.688438 34.297813 
L 325.688438 16.457813 
L 64.891437 16.457813 
z
" style="fill: #ffffff"/>
  </g>
  <g id="patch_9">
   <path d="M 66.891437 32.297813 
L 80.731437 32.297813 
L 80.731437 18.457813 
L 66.891437 18.457813 
L 66.891437 32.297813 
z
" clip-path="url(#p329ced6e4b)" style="fill: none; stroke: #cccccc; stroke-linejoin: miter"/>
  </g>
  <g id="line2d_61">
   <path d="M 65.891437 25.377813 
L 81.731437 25.377813 
" clip-path="url(#p329ced6e4b)" style="fill: none; stroke: #3949f5; stroke-width: 1.772454"/>
  </g>
  <g id="line2d_62">
   <path d="M 73.811437 25.377813 
" clip-path="url(#p329ced6e4b)" style="fill: none; stroke: #1f77b4; stroke-width: 1.5; stroke-linecap: square"/>
   <defs>
    <path id="mdbba7803f7" d="M 0 2.215567 
C 0.587575 2.215567 1.151164 1.982121 1.566643 1.566643 
C 1.982121 1.151164 2.215567 0.587575 2.215567 0 
C 2.215567 -0.587575 1.982121 -1.151164 1.566643 -1.566643 
C 1.151164 -1.982121 0.587575 -2.215567 0 -2.215567 
C -0.587575 -2.215567 -1.151164 -1.982121 -1.566643 -1.566643 
C -1.982121 -1.151164 -2.215567 -0.587575 -2.215567 0 
C -2.215567 0.587575 -1.982121 1.151164 -1.566643 1.566643 
C -1.151164 1.982121 -0.587575 2.215567 0 2.215567 
z
" style="stroke: #3949f5; stroke-width: 0.886227"/>
   </defs>
   <g clip-path="url(#p329ced6e4b)">
    <use xlink:href="#mdbba7803f7" x="73.811437" y="25.377813" style="fill: #3949f5; stroke: #3949f5; stroke-width: 0.886227"/>
   </g>
  </g>
  <g id="patch_10">
   <path d="M 65.891437 33.297813 
L 81.731437 33.297813 
L 81.731437 17.457813 
L 65.891437 17.457813 
z
" clip-path="url(#p329ced6e4b)" style="fill: #3949f5; fill-opacity: 0.14902"/>
  </g>
  <g id="text_22">
   <!-- No Highlight -->
   <g transform="translate(83.171437 27.570938) scale(0.088 -0.088)">
    <defs>
     <path id="Helvetica-4e" d="M 488 4591 
L 1222 4591 
L 3541 872 
L 3541 4591 
L 4131 4591 
L 4131 0 
L 3434 0 
L 1081 3716 
L 1081 0 
L 488 0 
L 488 4591 
z
M 2269 4591 
L 2269 4591 
z
" transform="scale(0.015625)"/>
     <path id="Helvetica-48" d="M 503 4591 
L 1131 4591 
L 1131 2694 
L 3519 2694 
L 3519 4591 
L 4147 4591 
L 4147 0 
L 3519 0 
L 3519 2147 
L 1131 2147 
L 1131 0 
L 503 0 
L 503 4591 
z
" transform="scale(0.015625)"/>
     <path id="Helvetica-67" d="M 1594 3406 
Q 1988 3406 2281 3213 
Q 2441 3103 2606 2894 
L 2606 3316 
L 3125 3316 
L 3125 272 
Q 3125 -366 2938 -734 
Q 2588 -1416 1616 -1416 
Q 1075 -1416 706 -1173 
Q 338 -931 294 -416 
L 866 -416 
Q 906 -641 1028 -763 
Q 1219 -950 1628 -950 
Q 2275 -950 2475 -494 
Q 2594 -225 2584 466 
Q 2416 209 2178 84 
Q 1941 -41 1550 -41 
Q 1006 -41 598 345 
Q 191 731 191 1622 
Q 191 2463 602 2934 
Q 1013 3406 1594 3406 
z
M 2606 1688 
Q 2606 2309 2350 2609 
Q 2094 2909 1697 2909 
Q 1103 2909 884 2353 
Q 769 2056 769 1575 
Q 769 1009 998 714 
Q 1228 419 1616 419 
Q 2222 419 2469 966 
Q 2606 1275 2606 1688 
z
M 1659 3428 
L 1659 3428 
z
" transform="scale(0.015625)"/>
     <path id="Helvetica-68" d="M 413 4606 
L 975 4606 
L 975 2894 
Q 1175 3147 1334 3250 
Q 1606 3428 2013 3428 
Q 2741 3428 3000 2919 
Q 3141 2641 3141 2147 
L 3141 0 
L 2563 0 
L 2563 2109 
Q 2563 2478 2469 2650 
Q 2316 2925 1894 2925 
Q 1544 2925 1259 2684 
Q 975 2444 975 1775 
L 975 0 
L 413 0 
L 413 4606 
z
" transform="scale(0.015625)"/>
    </defs>
    <use xlink:href="#Helvetica-4e"/>
    <use xlink:href="#Helvetica-6f" x="72.216797"/>
    <use xlink:href="#Helvetica-20" x="127.832031"/>
    <use xlink:href="#Helvetica-48" x="155.615234"/>
    <use xlink:href="#Helvetica-69" x="227.832031"/>
    <use xlink:href="#Helvetica-67" x="250.048828"/>
    <use xlink:href="#Helvetica-68" x="305.664062"/>
    <use xlink:href="#Helvetica-6c" x="361.279297"/>
    <use xlink:href="#Helvetica-69" x="383.496094"/>
    <use xlink:href="#Helvetica-67" x="405.712891"/>
    <use xlink:href="#Helvetica-68" x="461.328125"/>
    <use xlink:href="#Helvetica-74" x="516.943359"/>
   </g>
  </g>
  <g id="patch_11">
   <path d="M 138.105312 32.297813 
L 151.945312 32.297813 
L 151.945312 18.457813 
L 138.105312 18.457813 
L 138.105312 32.297813 
z
" clip-path="url(#p39be18e3a4)" style="fill: none; stroke: #cccccc; stroke-linejoin: miter"/>
  </g>
  <g id="line2d_63">
   <path d="M 137.105312 25.377813 
L 152.945312 25.377813 
" clip-path="url(#p39be18e3a4)" style="fill: none; stroke: #1c9a0e; stroke-width: 1.772454"/>
  </g>
  <g id="line2d_64">
   <path d="M 145.025312 25.377813 
" clip-path="url(#p39be18e3a4)" style="fill: none; stroke: #1f77b4; stroke-width: 1.5; stroke-linecap: square"/>
   <defs>
    <path id="m63ef750173" d="M 0 2.215567 
C 0.587575 2.215567 1.151164 1.982121 1.566643 1.566643 
C 1.982121 1.151164 2.215567 0.587575 2.215567 0 
C 2.215567 -0.587575 1.982121 -1.151164 1.566643 -1.566643 
C 1.151164 -1.982121 0.587575 -2.215567 0 -2.215567 
C -0.587575 -2.215567 -1.151164 -1.982121 -1.566643 -1.566643 
C -1.982121 -1.151164 -2.215567 -0.587575 -2.215567 0 
C -2.215567 0.587575 -1.982121 1.151164 -1.566643 1.566643 
C -1.151164 1.982121 -0.587575 2.215567 0 2.215567 
z
" style="stroke: #1c9a0e; stroke-width: 0.886227"/>
   </defs>
   <g clip-path="url(#p39be18e3a4)">
    <use xlink:href="#m63ef750173" x="145.025312" y="25.377813" style="fill: #1c9a0e; stroke: #1c9a0e; stroke-width: 0.886227"/>
   </g>
  </g>
  <g id="patch_12">
   <path d="M 137.105312 33.297813 
L 152.945312 33.297813 
L 152.945312 17.457813 
L 137.105312 17.457813 
z
" clip-path="url(#p39be18e3a4)" style="fill: #1c9a0e; fill-opacity: 0.14902"/>
  </g>
  <g id="text_23">
   <!-- Oracle -->
   <g transform="translate(154.385312 27.617) scale(0.088 -0.088)">
    <use xlink:href="#Helvetica-4f"/>
    <use xlink:href="#Helvetica-72" x="77.783203"/>
    <use xlink:href="#Helvetica-61" x="111.083984"/>
    <use xlink:href="#Helvetica-63" x="166.699219"/>
    <use xlink:href="#Helvetica-6c" x="216.699219"/>
    <use xlink:href="#Helvetica-65" x="238.916016"/>
   </g>
  </g>
  <g id="patch_13">
   <path d="M 187.302687 32.297813 
L 201.142687 32.297813 
L 201.142687 18.457813 
L 187.302687 18.457813 
L 187.302687 32.297813 
z
" clip-path="url(#pcfb2b13a27)" style="fill: none; stroke: #cccccc; stroke-linejoin: miter"/>
  </g>
  <g id="line2d_65">
   <path d="M 186.302687 25.377813 
L 202.142687 25.377813 
" clip-path="url(#pcfb2b13a27)" style="fill: none; stroke: #e6950a; stroke-width: 1.772454"/>
  </g>
  <g id="line2d_66">
   <path d="M 194.222687 25.377813 
" clip-path="url(#pcfb2b13a27)" style="fill: none; stroke: #1f77b4; stroke-width: 1.5; stroke-linecap: square"/>
   <defs>
    <path id="mc00e69a4d2" d="M 0 2.215567 
C 0.587575 2.215567 1.151164 1.982121 1.566643 1.566643 
C 1.982121 1.151164 2.215567 0.587575 2.215567 0 
C 2.215567 -0.587575 1.982121 -1.151164 1.566643 -1.566643 
C 1.151164 -1.982121 0.587575 -2.215567 0 -2.215567 
C -0.587575 -2.215567 -1.151164 -1.982121 -1.566643 -1.566643 
C -1.982121 -1.151164 -2.215567 -0.587575 -2.215567 0 
C -2.215567 0.587575 -1.982121 1.151164 -1.566643 1.566643 
C -1.151164 1.982121 -0.587575 2.215567 0 2.215567 
z
" style="stroke: #e6950a; stroke-width: 0.886227"/>
   </defs>
   <g clip-path="url(#pcfb2b13a27)">
    <use xlink:href="#mc00e69a4d2" x="194.222687" y="25.377813" style="fill: #e6950a; stroke: #e6950a; stroke-width: 0.886227"/>
   </g>
  </g>
  <g id="patch_14">
   <path d="M 186.302687 33.297813 
L 202.142687 33.297813 
L 202.142687 17.457813 
L 186.302687 17.457813 
z
" clip-path="url(#pcfb2b13a27)" style="fill: #e6950a; fill-opacity: 0.14902"/>
  </g>
  <g id="text_24">
   <!-- Unsupervised -->
   <g transform="translate(203.582688 27.627313) scale(0.088 -0.088)">
    <defs>
     <path id="Helvetica-55" d="M 1163 4591 
L 1163 1753 
Q 1163 1253 1350 922 
Q 1628 422 2288 422 
Q 3078 422 3363 963 
Q 3516 1256 3516 1753 
L 3516 4591 
L 4147 4591 
L 4147 2013 
Q 4147 1166 3919 709 
Q 3500 -122 2338 -122 
Q 1175 -122 759 709 
Q 531 1166 531 2013 
L 531 4591 
L 1163 4591 
z
M 2341 4591 
L 2341 4591 
z
" transform="scale(0.015625)"/>
     <path id="Helvetica-73" d="M 747 1050 
Q 772 769 888 619 
Q 1100 347 1625 347 
Q 1938 347 2175 483 
Q 2413 619 2413 903 
Q 2413 1119 2222 1231 
Q 2100 1300 1741 1391 
L 1294 1503 
Q 866 1609 663 1741 
Q 300 1969 300 2372 
Q 300 2847 642 3140 
Q 984 3434 1563 3434 
Q 2319 3434 2653 2991 
Q 2863 2709 2856 2384 
L 2325 2384 
Q 2309 2575 2191 2731 
Q 1997 2953 1519 2953 
Q 1200 2953 1036 2831 
Q 872 2709 872 2509 
Q 872 2291 1088 2159 
Q 1213 2081 1456 2022 
L 1828 1931 
Q 2434 1784 2641 1647 
Q 2969 1431 2969 969 
Q 2969 522 2630 197 
Q 2291 -128 1597 -128 
Q 850 -128 539 211 
Q 228 550 206 1050 
L 747 1050 
z
M 1578 3428 
L 1578 3428 
z
" transform="scale(0.015625)"/>
    </defs>
    <use xlink:href="#Helvetica-55"/>
    <use xlink:href="#Helvetica-6e" x="72.216797"/>
    <use xlink:href="#Helvetica-73" x="127.832031"/>
    <use xlink:href="#Helvetica-75" x="177.832031"/>
    <use xlink:href="#Helvetica-70" x="233.447266"/>
    <use xlink:href="#Helvetica-65" x="289.0625"/>
    <use xlink:href="#Helvetica-72" x="344.677734"/>
    <use xlink:href="#Helvetica-76" x="377.978516"/>
    <use xlink:href="#Helvetica-69" x="427.978516"/>
    <use xlink:href="#Helvetica-73" x="450.195312"/>
    <use xlink:href="#Helvetica-65" x="500.195312"/>
    <use xlink:href="#Helvetica-64" x="555.810547"/>
   </g>
  </g>
  <g id="patch_15">
   <path d="M 264.385063 32.297813 
L 278.225062 32.297813 
L 278.225062 18.457813 
L 264.385063 18.457813 
L 264.385063 32.297813 
z
" clip-path="url(#pe3769d2334)" style="fill: none; stroke: #cccccc; stroke-linejoin: miter"/>
  </g>
  <g id="line2d_67">
   <path d="M 263.385063 25.377813 
L 279.225062 25.377813 
" clip-path="url(#pe3769d2334)" style="fill: none; stroke: #dc0d97; stroke-width: 1.772454"/>
  </g>
  <g id="line2d_68">
   <path d="M 271.305063 25.377813 
" clip-path="url(#pe3769d2334)" style="fill: none; stroke: #1f77b4; stroke-width: 1.5; stroke-linecap: square"/>
   <defs>
    <path id="ma3da228954" d="M 0 2.215567 
C 0.587575 2.215567 1.151164 1.982121 1.566643 1.566643 
C 1.982121 1.151164 2.215567 0.587575 2.215567 0 
C 2.215567 -0.587575 1.982121 -1.151164 1.566643 -1.566643 
C 1.151164 -1.982121 0.587575 -2.215567 0 -2.215567 
C -0.587575 -2.215567 -1.151164 -1.982121 -1.566643 -1.566643 
C -1.982121 -1.151164 -2.215567 -0.587575 -2.215567 0 
C -2.215567 0.587575 -1.982121 1.151164 -1.566643 1.566643 
C -1.151164 1.982121 -0.587575 2.215567 0 2.215567 
z
" style="stroke: #dc0d97; stroke-width: 0.886227"/>
   </defs>
   <g clip-path="url(#pe3769d2334)">
    <use xlink:href="#ma3da228954" x="271.305063" y="25.377813" style="fill: #dc0d97; stroke: #dc0d97; stroke-width: 0.886227"/>
   </g>
  </g>
  <g id="patch_16">
   <path d="M 263.385063 33.297813 
L 279.225062 33.297813 
L 279.225062 17.457813 
L 263.385063 17.457813 
z
" clip-path="url(#pe3769d2334)" style="fill: #dc0d97; fill-opacity: 0.14902"/>
  </g>
  <g id="text_25">
   <!-- Supervised -->
   <g transform="translate(280.665063 27.702938) scale(0.088 -0.088)">
    <use xlink:href="#Helvetica-53"/>
    <use xlink:href="#Helvetica-75" x="66.699219"/>
    <use xlink:href="#Helvetica-70" x="122.314453"/>
    <use xlink:href="#Helvetica-65" x="177.929688"/>
    <use xlink:href="#Helvetica-72" x="233.544922"/>
    <use xlink:href="#Helvetica-76" x="266.845703"/>
    <use xlink:href="#Helvetica-69" x="316.845703"/>
    <use xlink:href="#Helvetica-73" x="339.0625"/>
    <use xlink:href="#Helvetica-65" x="389.0625"/>
    <use xlink:href="#Helvetica-64" x="444.677734"/>
   </g>
  </g>
 </g>
 <defs>
  <clipPath id="pb101371c14">
   <rect x="34.179875" y="59.111354" width="159.310062" height="113.752262"/>
  </clipPath>
  <clipPath id="p062986efef">
   <rect x="197.089937" y="59.111354" width="159.310062" height="113.752262"/>
  </clipPath>
  <clipPath id="p329ced6e4b">
   <path d="M 65.891437 33.297813 
L 65.891437 17.457813 
L 81.731437 17.457813 
L 81.731437 33.297813 
"/>
  </clipPath>
  <clipPath id="p39be18e3a4">
   <path d="M 137.105312 33.297813 
L 137.105312 17.457813 
L 152.945312 17.457813 
L 152.945312 33.297813 
"/>
  </clipPath>
  <clipPath id="pcfb2b13a27">
   <path d="M 186.302687 33.297813 
L 186.302687 17.457813 
L 202.142687 17.457813 
L 202.142687 33.297813 
"/>
  </clipPath>
  <clipPath id="pe3769d2334">
   <path d="M 263.385063 33.297813 
L 263.385063 17.457813 
L 279.225062 17.457813 
L 279.225062 33.297813 
"/>
  </clipPath>
 </defs>
</svg>
