<?xml version="1.0" encoding="utf-8" standalone="no"?>
<!DOCTYPE svg PUBLIC "-//W3C//DTD SVG 1.1//EN"
  "http://www.w3.org/Graphics/SVG/1.1/DTD/svg11.dtd">
<svg xmlns:xlink="http://www.w3.org/1999/xlink" width="360pt" height="216pt" viewBox="0 0 360 216" xmlns="http://www.w3.org/2000/svg" version="1.1">
 <metadata>
  <rdf:RDF xmlns:dc="http://purl.org/dc/elements/1.1/" xmlns:cc="http://creativecommons.org/ns#" xmlns:rdf="http://www.w3.org/1999/02/22-rdf-syntax-ns#">
   <cc:Work>
    <dc:type rdf:resource="http://purl.org/dc/dcmitype/StillImage"/>
    <dc:date>2025-02-19T18:46:53.635889</dc:date>
    <dc:format>image/svg+xml</dc:format>
    <dc:creator>
     <cc:Agent>
      <dc:title>Matplotlib v3.8.2, https://matplotlib.org/</dc:title>
     </cc:Agent>
    </dc:creator>
   </cc:Work>
  </rdf:RDF>
 </metadata>
 <defs>
  <style type="text/css">*{stroke-linejoin: round; stroke-linecap: butt}</style>
 </defs>
 <g id="figure_1">
  <g id="patch_1">
   <path d="M 0 216 
L 360 216 
L 360 0 
L 0 0 
z
" style="fill: #ffffff; stroke: #ffffff; stroke-linejoin: miter"/>
  </g>
  <g id="axes_1">
   <g id="patch_2">
    <path d="M 34.179875 172.863616 
L 193.489937 172.863616 
L 193.489937 46.253542 
L 34.179875 46.253542 
z
" style="fill: #ffffff"/>
   </g>
   <g id="matplotlib.axis_1">
    <g id="xtick_1">
     <g id="line2d_1">
      <path d="M 41.421241 172.863616 
L 41.421241 46.253542 
" clip-path="url(#p4080e73dfa)" style="fill: none; stroke: #e5e5e5; stroke-linecap: square"/>
     </g>
     <g id="line2d_2">
      <path d="M 41.421241 172.863616 
" style="fill: none; stroke: #333333; stroke-width: 1.5; stroke-linecap: square"/>
      <defs>
       <path id="md7722293e5" d="M 0 0 
L 0 2.75 
" style="stroke: #333333"/>
      </defs>
      <g>
       <use xlink:href="#md7722293e5" x="41.421241" y="172.863616" style="fill: #333333; stroke: #333333"/>
      </g>
     </g>
     <g id="text_1">
      <!-- &lt; 75 -->
      <g style="fill: #4d4d4d" transform="translate(27.840549 194.360999) rotate(-45) scale(0.088 -0.088)">
       <defs>
        <path id="Helvetica-3c" d="M 88 1894 
L 3741 3325 
L 3741 2763 
L 753 1634 
L 3741 503 
L 3741 -59 
L 88 1375 
L 88 1894 
z
" transform="scale(0.015625)"/>
        <path id="Helvetica-20" transform="scale(0.015625)"/>
        <path id="Helvetica-37" d="M 3347 4400 
L 3347 3909 
Q 3131 3700 2773 3181 
Q 2416 2663 2141 2063 
Q 1869 1478 1728 997 
Q 1638 688 1494 0 
L 872 0 
Q 1084 1281 1809 2550 
Q 2238 3294 2709 3834 
L 234 3834 
L 234 4400 
L 3347 4400 
z
" transform="scale(0.015625)"/>
        <path id="Helvetica-35" d="M 791 1141 
Q 847 659 1238 475 
Q 1438 381 1700 381 
Q 2200 381 2440 700 
Q 2681 1019 2681 1406 
Q 2681 1875 2395 2131 
Q 2109 2388 1709 2388 
Q 1419 2388 1211 2275 
Q 1003 2163 856 1963 
L 369 1991 
L 709 4400 
L 3034 4400 
L 3034 3856 
L 1131 3856 
L 941 2613 
Q 1097 2731 1238 2791 
Q 1488 2894 1816 2894 
Q 2431 2894 2859 2497 
Q 3288 2100 3288 1491 
Q 3288 856 2895 371 
Q 2503 -113 1644 -113 
Q 1097 -113 676 195 
Q 256 503 206 1141 
L 791 1141 
z
" transform="scale(0.015625)"/>
       </defs>
       <use xlink:href="#Helvetica-3c"/>
       <use xlink:href="#Helvetica-20" x="58.398438"/>
       <use xlink:href="#Helvetica-37" x="86.181641"/>
       <use xlink:href="#Helvetica-35" x="141.796875"/>
      </g>
     </g>
    </g>
    <g id="xtick_2">
     <g id="line2d_3">
      <path d="M 70.386707 172.863616 
L 70.386707 46.253542 
" clip-path="url(#p4080e73dfa)" style="fill: none; stroke: #e5e5e5; stroke-linecap: square"/>
     </g>
     <g id="line2d_4">
      <path d="M 70.386707 172.863616 
" style="fill: none; stroke: #333333; stroke-width: 1.5; stroke-linecap: square"/>
      <g>
       <use xlink:href="#md7722293e5" x="70.386707" y="172.863616" style="fill: #333333; stroke: #333333"/>
      </g>
     </g>
     <g id="text_2">
      <!-- 75-80 -->
      <g style="fill: #4d4d4d" transform="translate(53.176524 197.990489) rotate(-45) scale(0.088 -0.088)">
       <defs>
        <path id="Helvetica-2d" d="M 266 2072 
L 1834 2072 
L 1834 1494 
L 266 1494 
L 266 2072 
z
" transform="scale(0.015625)"/>
        <path id="Helvetica-38" d="M 1741 2600 
Q 2113 2600 2322 2808 
Q 2531 3016 2531 3303 
Q 2531 3553 2331 3762 
Q 2131 3972 1722 3972 
Q 1316 3972 1134 3762 
Q 953 3553 953 3272 
Q 953 2956 1187 2778 
Q 1422 2600 1741 2600 
z
M 1775 384 
Q 2166 384 2423 595 
Q 2681 806 2681 1225 
Q 2681 1659 2415 1884 
Q 2150 2109 1734 2109 
Q 1331 2109 1076 1879 
Q 822 1650 822 1244 
Q 822 894 1055 639 
Q 1288 384 1775 384 
z
M 975 2384 
Q 741 2484 609 2619 
Q 363 2869 363 3269 
Q 363 3769 725 4128 
Q 1088 4488 1753 4488 
Q 2397 4488 2762 4148 
Q 3128 3809 3128 3356 
Q 3128 2938 2916 2678 
Q 2797 2531 2547 2391 
Q 2825 2263 2984 2097 
Q 3281 1784 3281 1284 
Q 3281 694 2884 283 
Q 2488 -128 1763 -128 
Q 1109 -128 657 226 
Q 206 581 206 1256 
Q 206 1653 400 1942 
Q 594 2231 975 2384 
z
" transform="scale(0.015625)"/>
        <path id="Helvetica-30" d="M 1731 4475 
Q 2600 4475 2988 3759 
Q 3288 3206 3288 2244 
Q 3288 1331 3016 734 
Q 2622 -122 1728 -122 
Q 922 -122 528 578 
Q 200 1163 200 2147 
Q 200 2909 397 3456 
Q 766 4475 1731 4475 
z
M 1725 391 
Q 2163 391 2422 778 
Q 2681 1166 2681 2222 
Q 2681 2984 2493 3476 
Q 2306 3969 1766 3969 
Q 1269 3969 1039 3501 
Q 809 3034 809 2125 
Q 809 1441 956 1025 
Q 1181 391 1725 391 
z
" transform="scale(0.015625)"/>
       </defs>
       <use xlink:href="#Helvetica-37"/>
       <use xlink:href="#Helvetica-35" x="55.615234"/>
       <use xlink:href="#Helvetica-2d" x="111.230469"/>
       <use xlink:href="#Helvetica-38" x="144.53125"/>
       <use xlink:href="#Helvetica-30" x="200.146484"/>
      </g>
     </g>
    </g>
    <g id="xtick_3">
     <g id="line2d_5">
      <path d="M 99.352173 172.863616 
L 99.352173 46.253542 
" clip-path="url(#p4080e73dfa)" style="fill: none; stroke: #e5e5e5; stroke-linecap: square"/>
     </g>
     <g id="line2d_6">
      <path d="M 99.352173 172.863616 
" style="fill: none; stroke: #333333; stroke-width: 1.5; stroke-linecap: square"/>
      <g>
       <use xlink:href="#md7722293e5" x="99.352173" y="172.863616" style="fill: #333333; stroke: #333333"/>
      </g>
     </g>
     <g id="text_3">
      <!-- 80-85 -->
      <g style="fill: #4d4d4d" transform="translate(82.14199 197.990489) rotate(-45) scale(0.088 -0.088)">
       <use xlink:href="#Helvetica-38"/>
       <use xlink:href="#Helvetica-30" x="55.615234"/>
       <use xlink:href="#Helvetica-2d" x="111.230469"/>
       <use xlink:href="#Helvetica-38" x="144.53125"/>
       <use xlink:href="#Helvetica-35" x="200.146484"/>
      </g>
     </g>
    </g>
    <g id="xtick_4">
     <g id="line2d_7">
      <path d="M 128.317639 172.863616 
L 128.317639 46.253542 
" clip-path="url(#p4080e73dfa)" style="fill: none; stroke: #e5e5e5; stroke-linecap: square"/>
     </g>
     <g id="line2d_8">
      <path d="M 128.317639 172.863616 
" style="fill: none; stroke: #333333; stroke-width: 1.5; stroke-linecap: square"/>
      <g>
       <use xlink:href="#md7722293e5" x="128.317639" y="172.863616" style="fill: #333333; stroke: #333333"/>
      </g>
     </g>
     <g id="text_4">
      <!-- 85-90 -->
      <g style="fill: #4d4d4d" transform="translate(111.107456 197.990489) rotate(-45) scale(0.088 -0.088)">
       <defs>
        <path id="Helvetica-39" d="M 850 1081 
Q 875 616 1209 438 
Q 1381 344 1597 344 
Q 2000 344 2284 680 
Q 2569 1016 2688 2044 
Q 2500 1747 2223 1626 
Q 1947 1506 1628 1506 
Q 981 1506 604 1909 
Q 228 2313 228 2947 
Q 228 3556 600 4018 
Q 972 4481 1697 4481 
Q 2675 4481 3047 3600 
Q 3253 3116 3253 2388 
Q 3253 1566 3006 931 
Q 2597 -125 1619 -125 
Q 963 -125 622 219 
Q 281 563 281 1081 
L 850 1081 
z
M 1703 2000 
Q 2038 2000 2314 2220 
Q 2591 2441 2591 2991 
Q 2591 3484 2342 3726 
Q 2094 3969 1709 3969 
Q 1297 3969 1055 3692 
Q 813 3416 813 2953 
Q 813 2516 1025 2258 
Q 1238 2000 1703 2000 
z
" transform="scale(0.015625)"/>
       </defs>
       <use xlink:href="#Helvetica-38"/>
       <use xlink:href="#Helvetica-35" x="55.615234"/>
       <use xlink:href="#Helvetica-2d" x="111.230469"/>
       <use xlink:href="#Helvetica-39" x="144.53125"/>
       <use xlink:href="#Helvetica-30" x="200.146484"/>
      </g>
     </g>
    </g>
    <g id="xtick_5">
     <g id="line2d_9">
      <path d="M 157.283105 172.863616 
L 157.283105 46.253542 
" clip-path="url(#p4080e73dfa)" style="fill: none; stroke: #e5e5e5; stroke-linecap: square"/>
     </g>
     <g id="line2d_10">
      <path d="M 157.283105 172.863616 
" style="fill: none; stroke: #333333; stroke-width: 1.5; stroke-linecap: square"/>
      <g>
       <use xlink:href="#md7722293e5" x="157.283105" y="172.863616" style="fill: #333333; stroke: #333333"/>
      </g>
     </g>
     <g id="text_5">
      <!-- 90-95 -->
      <g style="fill: #4d4d4d" transform="translate(140.072922 197.990489) rotate(-45) scale(0.088 -0.088)">
       <use xlink:href="#Helvetica-39"/>
       <use xlink:href="#Helvetica-30" x="55.615234"/>
       <use xlink:href="#Helvetica-2d" x="111.230469"/>
       <use xlink:href="#Helvetica-39" x="144.53125"/>
       <use xlink:href="#Helvetica-35" x="200.146484"/>
      </g>
     </g>
    </g>
    <g id="xtick_6">
     <g id="line2d_11">
      <path d="M 186.248571 172.863616 
L 186.248571 46.253542 
" clip-path="url(#p4080e73dfa)" style="fill: none; stroke: #e5e5e5; stroke-linecap: square"/>
     </g>
     <g id="line2d_12">
      <path d="M 186.248571 172.863616 
" style="fill: none; stroke: #333333; stroke-width: 1.5; stroke-linecap: square"/>
      <g>
       <use xlink:href="#md7722293e5" x="186.248571" y="172.863616" style="fill: #333333; stroke: #333333"/>
      </g>
     </g>
     <g id="text_6">
      <!-- &gt; 95 -->
      <g style="fill: #4d4d4d" transform="translate(172.667878 194.360999) rotate(-45) scale(0.088 -0.088)">
       <defs>
        <path id="Helvetica-3e" d="M 3741 1369 
L 88 -59 
L 88 503 
L 3072 1634 
L 88 2763 
L 88 3325 
L 3741 1894 
L 3741 1369 
z
" transform="scale(0.015625)"/>
       </defs>
       <use xlink:href="#Helvetica-3e"/>
       <use xlink:href="#Helvetica-20" x="58.398438"/>
       <use xlink:href="#Helvetica-39" x="86.181641"/>
       <use xlink:href="#Helvetica-35" x="141.796875"/>
      </g>
     </g>
    </g>
    <g id="xtick_7"/>
    <g id="xtick_8"/>
    <g id="xtick_9"/>
    <g id="xtick_10"/>
    <g id="xtick_11"/>
   </g>
   <g id="matplotlib.axis_2">
    <g id="ytick_1">
     <g id="line2d_13">
      <path d="M 34.179875 164.338253 
L 193.489937 164.338253 
" clip-path="url(#p4080e73dfa)" style="fill: none; stroke: #e5e5e5; stroke-linecap: square"/>
     </g>
     <g id="line2d_14">
      <path d="M 34.179875 164.338253 
" style="fill: none; stroke: #333333; stroke-width: 1.5; stroke-linecap: square"/>
      <defs>
       <path id="md691c5160b" d="M 0 0 
L -2.75 0 
" style="stroke: #333333"/>
      </defs>
      <g>
       <use xlink:href="#md691c5160b" x="34.179875" y="164.338253" style="fill: #333333; stroke: #333333"/>
      </g>
     </g>
     <g id="text_7">
      <!-- -10 -->
      <g style="fill: #4d4d4d" transform="translate(16.7125 167.494565) scale(0.088 -0.088)">
       <defs>
        <path id="Helvetica-31" d="M 613 3169 
L 613 3600 
Q 1222 3659 1462 3798 
Q 1703 3938 1822 4456 
L 2266 4456 
L 2266 0 
L 1666 0 
L 1666 3169 
L 613 3169 
z
" transform="scale(0.015625)"/>
       </defs>
       <use xlink:href="#Helvetica-2d"/>
       <use xlink:href="#Helvetica-31" x="33.300781"/>
       <use xlink:href="#Helvetica-30" x="88.916016"/>
      </g>
     </g>
    </g>
    <g id="ytick_2">
     <g id="line2d_15">
      <path d="M 34.179875 131.622303 
L 193.489937 131.622303 
" clip-path="url(#p4080e73dfa)" style="fill: none; stroke: #e5e5e5; stroke-linecap: square"/>
     </g>
     <g id="line2d_16">
      <path d="M 34.179875 131.622303 
" style="fill: none; stroke: #333333; stroke-width: 1.5; stroke-linecap: square"/>
      <g>
       <use xlink:href="#md691c5160b" x="34.179875" y="131.622303" style="fill: #333333; stroke: #333333"/>
      </g>
     </g>
     <g id="text_8">
      <!-- 0 -->
      <g style="fill: #4d4d4d" transform="translate(24.53625 134.778615) scale(0.088 -0.088)">
       <use xlink:href="#Helvetica-30"/>
      </g>
     </g>
    </g>
    <g id="ytick_3">
     <g id="line2d_17">
      <path d="M 34.179875 98.906353 
L 193.489937 98.906353 
" clip-path="url(#p4080e73dfa)" style="fill: none; stroke: #e5e5e5; stroke-linecap: square"/>
     </g>
     <g id="line2d_18">
      <path d="M 34.179875 98.906353 
" style="fill: none; stroke: #333333; stroke-width: 1.5; stroke-linecap: square"/>
      <g>
       <use xlink:href="#md691c5160b" x="34.179875" y="98.906353" style="fill: #333333; stroke: #333333"/>
      </g>
     </g>
     <g id="text_9">
      <!-- 10 -->
      <g style="fill: #4d4d4d" transform="translate(19.642625 102.062665) scale(0.088 -0.088)">
       <use xlink:href="#Helvetica-31"/>
       <use xlink:href="#Helvetica-30" x="55.615234"/>
      </g>
     </g>
    </g>
    <g id="ytick_4">
     <g id="line2d_19">
      <path d="M 34.179875 66.190403 
L 193.489937 66.190403 
" clip-path="url(#p4080e73dfa)" style="fill: none; stroke: #e5e5e5; stroke-linecap: square"/>
     </g>
     <g id="line2d_20">
      <path d="M 34.179875 66.190403 
" style="fill: none; stroke: #333333; stroke-width: 1.5; stroke-linecap: square"/>
      <g>
       <use xlink:href="#md691c5160b" x="34.179875" y="66.190403" style="fill: #333333; stroke: #333333"/>
      </g>
     </g>
     <g id="text_10">
      <!-- 20 -->
      <g style="fill: #4d4d4d" transform="translate(19.642625 69.346715) scale(0.088 -0.088)">
       <defs>
        <path id="Helvetica-32" d="M 200 0 
Q 231 578 439 1006 
Q 647 1434 1250 1784 
L 1850 2131 
Q 2253 2366 2416 2531 
Q 2672 2791 2672 3125 
Q 2672 3516 2437 3745 
Q 2203 3975 1813 3975 
Q 1234 3975 1013 3538 
Q 894 3303 881 2888 
L 309 2888 
Q 319 3472 525 3841 
Q 891 4491 1816 4491 
Q 2584 4491 2939 4075 
Q 3294 3659 3294 3150 
Q 3294 2613 2916 2231 
Q 2697 2009 2131 1694 
L 1703 1456 
Q 1397 1288 1222 1134 
Q 909 863 828 531 
L 3272 531 
L 3272 0 
L 200 0 
z
" transform="scale(0.015625)"/>
       </defs>
       <use xlink:href="#Helvetica-32"/>
       <use xlink:href="#Helvetica-30" x="55.615234"/>
      </g>
     </g>
    </g>
    <g id="ytick_5"/>
    <g id="ytick_6"/>
    <g id="ytick_7"/>
    <g id="ytick_8"/>
   </g>
   <g id="line2d_21">
    <path d="M 41.421241 113.005369 
L 70.386707 111.603257 
L 99.352173 128.895974 
L 128.317639 122.586469 
L 157.283105 130.736246 
L 186.248571 131.82319 
" clip-path="url(#p4080e73dfa)" style="fill: none; stroke: #3949f5; stroke-width: 1.772454"/>
   </g>
   <g id="line2d_22">
    <path d="M 41.421241 108.954823 
L 70.386707 107.474816 
L 99.352173 123.625071 
L 128.317639 121.184357 
L 157.283105 129.782031 
L 186.248571 133.444639 
" clip-path="url(#p4080e73dfa)" style="fill: none; stroke: #1c9a0e; stroke-width: 1.772454"/>
   </g>
   <g id="line2d_23">
    <path d="M 41.421241 101.243206 
L 70.386707 105.060067 
L 99.352173 128.532463 
L 128.317639 125.468588 
L 157.283105 129.611635 
L 186.248571 132.770231 
" clip-path="url(#p4080e73dfa)" style="fill: none; stroke: #e6950a; stroke-width: 1.772454"/>
   </g>
   <g id="line2d_24">
    <path d="M 41.421241 101.476892 
L 70.386707 113.355897 
L 99.352173 118.899433 
L 128.317639 125.139698 
L 157.283105 130.337033 
L 186.248571 134.418538 
" clip-path="url(#p4080e73dfa)" style="fill: none; stroke: #dc0d97; stroke-width: 1.772454"/>
   </g>
   <g id="PathCollection_1">
    <path d="M 41.421241 115.220937 
C 42.008817 115.220937 42.572406 114.987491 42.987884 114.572012 
C 43.403363 114.156534 43.636809 113.592945 43.636809 113.005369 
C 43.636809 112.417794 43.403363 111.854205 42.987884 111.438727 
C 42.572406 111.023248 42.008817 110.789802 41.421241 110.789802 
C 40.833666 110.789802 40.270077 111.023248 39.854599 111.438727 
C 39.43912 111.854205 39.205674 112.417794 39.205674 113.005369 
C 39.205674 113.592945 39.43912 114.156534 39.854599 114.572012 
C 40.270077 114.987491 40.833666 115.220937 41.421241 115.220937 
z
" clip-path="url(#p4080e73dfa)" style="fill: #3949f5; stroke: #3949f5; stroke-width: 0.886227"/>
    <path d="M 41.421241 111.17039 
C 42.008817 111.17039 42.572406 110.936944 42.987884 110.521466 
C 43.403363 110.105987 43.636809 109.542398 43.636809 108.954823 
C 43.636809 108.367248 43.403363 107.803659 42.987884 107.38818 
C 42.572406 106.972702 42.008817 106.739256 41.421241 106.739256 
C 40.833666 106.739256 40.270077 106.972702 39.854599 107.38818 
C 39.43912 107.803659 39.205674 108.367248 39.205674 108.954823 
C 39.205674 109.542398 39.43912 110.105987 39.854599 110.521466 
C 40.270077 110.936944 40.833666 111.17039 41.421241 111.17039 
z
" clip-path="url(#p4080e73dfa)" style="fill: #1c9a0e; stroke: #1c9a0e; stroke-width: 0.886227"/>
    <path d="M 41.421241 103.692459 
C 42.008817 103.692459 42.572406 103.459013 42.987884 103.043534 
C 43.403363 102.628056 43.636809 102.064467 43.636809 101.476892 
C 43.636809 100.889316 43.403363 100.325728 42.987884 99.910249 
C 42.572406 99.494771 42.008817 99.261324 41.421241 99.261324 
C 40.833666 99.261324 40.270077 99.494771 39.854599 99.910249 
C 39.43912 100.325728 39.205674 100.889316 39.205674 101.476892 
C 39.205674 102.064467 39.43912 102.628056 39.854599 103.043534 
C 40.270077 103.459013 40.833666 103.692459 41.421241 103.692459 
z
" clip-path="url(#p4080e73dfa)" style="fill: #dc0d97; stroke: #dc0d97; stroke-width: 0.886227"/>
    <path d="M 41.421241 103.458774 
C 42.008817 103.458774 42.572406 103.225328 42.987884 102.809849 
C 43.403363 102.394371 43.636809 101.830782 43.636809 101.243206 
C 43.636809 100.655631 43.403363 100.092042 42.987884 99.676564 
C 42.572406 99.261085 42.008817 99.027639 41.421241 99.027639 
C 40.833666 99.027639 40.270077 99.261085 39.854599 99.676564 
C 39.43912 100.092042 39.205674 100.655631 39.205674 101.243206 
C 39.205674 101.830782 39.43912 102.394371 39.854599 102.809849 
C 40.270077 103.225328 40.833666 103.458774 41.421241 103.458774 
z
" clip-path="url(#p4080e73dfa)" style="fill: #e6950a; stroke: #e6950a; stroke-width: 0.886227"/>
    <path d="M 70.386707 113.818825 
C 70.974283 113.818825 71.537872 113.585378 71.95335 113.1699 
C 72.368829 112.754421 72.602275 112.190833 72.602275 111.603257 
C 72.602275 111.015682 72.368829 110.452093 71.95335 110.036615 
C 71.537872 109.621136 70.974283 109.38769 70.386707 109.38769 
C 69.799132 109.38769 69.235543 109.621136 68.820065 110.036615 
C 68.404586 110.452093 68.17114 111.015682 68.17114 111.603257 
C 68.17114 112.190833 68.404586 112.754421 68.820065 113.1699 
C 69.235543 113.585378 69.799132 113.818825 70.386707 113.818825 
z
" clip-path="url(#p4080e73dfa)" style="fill: #3949f5; stroke: #3949f5; stroke-width: 0.886227"/>
    <path d="M 70.386707 109.690383 
C 70.974283 109.690383 71.537872 109.456937 71.95335 109.041459 
C 72.368829 108.62598 72.602275 108.062391 72.602275 107.474816 
C 72.602275 106.887241 72.368829 106.323652 71.95335 105.908173 
C 71.537872 105.492695 70.974283 105.259249 70.386707 105.259249 
C 69.799132 105.259249 69.235543 105.492695 68.820065 105.908173 
C 68.404586 106.323652 68.17114 106.887241 68.17114 107.474816 
C 68.17114 108.062391 68.404586 108.62598 68.820065 109.041459 
C 69.235543 109.456937 69.799132 109.690383 70.386707 109.690383 
z
" clip-path="url(#p4080e73dfa)" style="fill: #1c9a0e; stroke: #1c9a0e; stroke-width: 0.886227"/>
    <path d="M 70.386707 115.571465 
C 70.974283 115.571465 71.537872 115.338019 71.95335 114.92254 
C 72.368829 114.507062 72.602275 113.943473 72.602275 113.355897 
C 72.602275 112.768322 72.368829 112.204733 71.95335 111.789255 
C 71.537872 111.373776 70.974283 111.14033 70.386707 111.14033 
C 69.799132 111.14033 69.235543 111.373776 68.820065 111.789255 
C 68.404586 112.204733 68.17114 112.768322 68.17114 113.355897 
C 68.17114 113.943473 68.404586 114.507062 68.820065 114.92254 
C 69.235543 115.338019 69.799132 115.571465 70.386707 115.571465 
z
" clip-path="url(#p4080e73dfa)" style="fill: #dc0d97; stroke: #dc0d97; stroke-width: 0.886227"/>
    <path d="M 70.386707 107.275635 
C 70.974283 107.275635 71.537872 107.042188 71.95335 106.62671 
C 72.368829 106.211231 72.602275 105.647643 72.602275 105.060067 
C 72.602275 104.472492 72.368829 103.908903 71.95335 103.493425 
C 71.537872 103.077946 70.974283 102.8445 70.386707 102.8445 
C 69.799132 102.8445 69.235543 103.077946 68.820065 103.493425 
C 68.404586 103.908903 68.17114 104.472492 68.17114 105.060067 
C 68.17114 105.647643 68.404586 106.211231 68.820065 106.62671 
C 69.235543 107.042188 69.799132 107.275635 70.386707 107.275635 
z
" clip-path="url(#p4080e73dfa)" style="fill: #e6950a; stroke: #e6950a; stroke-width: 0.886227"/>
    <path d="M 99.352173 131.111541 
C 99.939749 131.111541 100.503337 130.878095 100.918816 130.462616 
C 101.334294 130.047138 101.567741 129.483549 101.567741 128.895974 
C 101.567741 128.308398 101.334294 127.744809 100.918816 127.329331 
C 100.503337 126.913852 99.939749 126.680406 99.352173 126.680406 
C 98.764598 126.680406 98.201009 126.913852 97.785531 127.329331 
C 97.370052 127.744809 97.136606 128.308398 97.136606 128.895974 
C 97.136606 129.483549 97.370052 130.047138 97.785531 130.462616 
C 98.201009 130.878095 98.764598 131.111541 99.352173 131.111541 
z
" clip-path="url(#p4080e73dfa)" style="fill: #3949f5; stroke: #3949f5; stroke-width: 0.886227"/>
    <path d="M 99.352173 125.840638 
C 99.939749 125.840638 100.503337 125.607192 100.918816 125.191713 
C 101.334294 124.776235 101.567741 124.212646 101.567741 123.625071 
C 101.567741 123.037495 101.334294 122.473906 100.918816 122.058428 
C 100.503337 121.642949 99.939749 121.409503 99.352173 121.409503 
C 98.764598 121.409503 98.201009 121.642949 97.785531 122.058428 
C 97.370052 122.473906 97.136606 123.037495 97.136606 123.625071 
C 97.136606 124.212646 97.370052 124.776235 97.785531 125.191713 
C 98.201009 125.607192 98.764598 125.840638 99.352173 125.840638 
z
" clip-path="url(#p4080e73dfa)" style="fill: #1c9a0e; stroke: #1c9a0e; stroke-width: 0.886227"/>
    <path d="M 99.352173 121.115001 
C 99.939749 121.115001 100.503337 120.881555 100.918816 120.466076 
C 101.334294 120.050598 101.567741 119.487009 101.567741 118.899433 
C 101.567741 118.311858 101.334294 117.748269 100.918816 117.332791 
C 100.503337 116.917312 99.939749 116.683866 99.352173 116.683866 
C 98.764598 116.683866 98.201009 116.917312 97.785531 117.332791 
C 97.370052 117.748269 97.136606 118.311858 97.136606 118.899433 
C 97.136606 119.487009 97.370052 120.050598 97.785531 120.466076 
C 98.201009 120.881555 98.764598 121.115001 99.352173 121.115001 
z
" clip-path="url(#p4080e73dfa)" style="fill: #dc0d97; stroke: #dc0d97; stroke-width: 0.886227"/>
    <path d="M 99.352173 130.74803 
C 99.939749 130.74803 100.503337 130.514584 100.918816 130.099106 
C 101.334294 129.683627 101.567741 129.120038 101.567741 128.532463 
C 101.567741 127.944888 101.334294 127.381299 100.918816 126.96582 
C 100.503337 126.550342 99.939749 126.316896 99.352173 126.316896 
C 98.764598 126.316896 98.201009 126.550342 97.785531 126.96582 
C 97.370052 127.381299 97.136606 127.944888 97.136606 128.532463 
C 97.136606 129.120038 97.370052 129.683627 97.785531 130.099106 
C 98.201009 130.514584 98.764598 130.74803 99.352173 130.74803 
z
" clip-path="url(#p4080e73dfa)" style="fill: #e6950a; stroke: #e6950a; stroke-width: 0.886227"/>
    <path d="M 128.317639 124.802036 
C 128.905215 124.802036 129.468803 124.56859 129.884282 124.153112 
C 130.29976 123.737633 130.533207 123.174044 130.533207 122.586469 
C 130.533207 121.998894 130.29976 121.435305 129.884282 121.019826 
C 129.468803 120.604348 128.905215 120.370902 128.317639 120.370902 
C 127.730064 120.370902 127.166475 120.604348 126.750997 121.019826 
C 126.335518 121.435305 126.102072 121.998894 126.102072 122.586469 
C 126.102072 123.174044 126.335518 123.737633 126.750997 124.153112 
C 127.166475 124.56859 127.730064 124.802036 128.317639 124.802036 
z
" clip-path="url(#p4080e73dfa)" style="fill: #3949f5; stroke: #3949f5; stroke-width: 0.886227"/>
    <path d="M 128.317639 123.399924 
C 128.905215 123.399924 129.468803 123.166478 129.884282 122.751 
C 130.29976 122.335521 130.533207 121.771932 130.533207 121.184357 
C 130.533207 120.596782 130.29976 120.033193 129.884282 119.617714 
C 129.468803 119.202236 128.905215 118.96879 128.317639 118.96879 
C 127.730064 118.96879 127.166475 119.202236 126.750997 119.617714 
C 126.335518 120.033193 126.102072 120.596782 126.102072 121.184357 
C 126.102072 121.771932 126.335518 122.335521 126.750997 122.751 
C 127.166475 123.166478 127.730064 123.399924 128.317639 123.399924 
z
" clip-path="url(#p4080e73dfa)" style="fill: #1c9a0e; stroke: #1c9a0e; stroke-width: 0.886227"/>
    <path d="M 128.317639 127.355265 
C 128.905215 127.355265 129.468803 127.121819 129.884282 126.706341 
C 130.29976 126.290862 130.533207 125.727273 130.533207 125.139698 
C 130.533207 124.552123 130.29976 123.988534 129.884282 123.573055 
C 129.468803 123.157577 128.905215 122.924131 128.317639 122.924131 
C 127.730064 122.924131 127.166475 123.157577 126.750997 123.573055 
C 126.335518 123.988534 126.102072 124.552123 126.102072 125.139698 
C 126.102072 125.727273 126.335518 126.290862 126.750997 126.706341 
C 127.166475 127.121819 127.730064 127.355265 128.317639 127.355265 
z
" clip-path="url(#p4080e73dfa)" style="fill: #dc0d97; stroke: #dc0d97; stroke-width: 0.886227"/>
    <path d="M 128.317639 127.684156 
C 128.905215 127.684156 129.468803 127.45071 129.884282 127.035231 
C 130.29976 126.619753 130.533207 126.056164 130.533207 125.468588 
C 130.533207 124.881013 130.29976 124.317424 129.884282 123.901946 
C 129.468803 123.486467 128.905215 123.253021 128.317639 123.253021 
C 127.730064 123.253021 127.166475 123.486467 126.750997 123.901946 
C 126.335518 124.317424 126.102072 124.881013 126.102072 125.468588 
C 126.102072 126.056164 126.335518 126.619753 126.750997 127.035231 
C 127.166475 127.45071 127.730064 127.684156 128.317639 127.684156 
z
" clip-path="url(#p4080e73dfa)" style="fill: #e6950a; stroke: #e6950a; stroke-width: 0.886227"/>
    <path d="M 157.283105 132.951813 
C 157.87068 132.951813 158.434269 132.718367 158.849748 132.302888 
C 159.265226 131.88741 159.498672 131.323821 159.498672 130.736246 
C 159.498672 130.14867 159.265226 129.585082 158.849748 129.169603 
C 158.434269 128.754125 157.87068 128.520678 157.283105 128.520678 
C 156.69553 128.520678 156.131941 128.754125 155.716462 129.169603 
C 155.300984 129.585082 155.067538 130.14867 155.067538 130.736246 
C 155.067538 131.323821 155.300984 131.88741 155.716462 132.302888 
C 156.131941 132.718367 156.69553 132.951813 157.283105 132.951813 
z
" clip-path="url(#p4080e73dfa)" style="fill: #3949f5; stroke: #3949f5; stroke-width: 0.886227"/>
    <path d="M 157.283105 131.997598 
C 157.87068 131.997598 158.434269 131.764152 158.849748 131.348673 
C 159.265226 130.933195 159.498672 130.369606 159.498672 129.782031 
C 159.498672 129.194455 159.265226 128.630866 158.849748 128.215388 
C 158.434269 127.799909 157.87068 127.566463 157.283105 127.566463 
C 156.69553 127.566463 156.131941 127.799909 155.716462 128.215388 
C 155.300984 128.630866 155.067538 129.194455 155.067538 129.782031 
C 155.067538 130.369606 155.300984 130.933195 155.716462 131.348673 
C 156.131941 131.764152 156.69553 131.997598 157.283105 131.997598 
z
" clip-path="url(#p4080e73dfa)" style="fill: #1c9a0e; stroke: #1c9a0e; stroke-width: 0.886227"/>
    <path d="M 157.283105 132.552601 
C 157.87068 132.552601 158.434269 132.319154 158.849748 131.903676 
C 159.265226 131.488197 159.498672 130.924609 159.498672 130.337033 
C 159.498672 129.749458 159.265226 129.185869 158.849748 128.770391 
C 158.434269 128.354912 157.87068 128.121466 157.283105 128.121466 
C 156.69553 128.121466 156.131941 128.354912 155.716462 128.770391 
C 155.300984 129.185869 155.067538 129.749458 155.067538 130.337033 
C 155.067538 130.924609 155.300984 131.488197 155.716462 131.903676 
C 156.131941 132.319154 156.69553 132.552601 157.283105 132.552601 
z
" clip-path="url(#p4080e73dfa)" style="fill: #dc0d97; stroke: #dc0d97; stroke-width: 0.886227"/>
    <path d="M 157.283105 131.827202 
C 157.87068 131.827202 158.434269 131.593756 158.849748 131.178278 
C 159.265226 130.762799 159.498672 130.19921 159.498672 129.611635 
C 159.498672 129.02406 159.265226 128.460471 158.849748 128.044992 
C 158.434269 127.629514 157.87068 127.396068 157.283105 127.396068 
C 156.69553 127.396068 156.131941 127.629514 155.716462 128.044992 
C 155.300984 128.460471 155.067538 129.02406 155.067538 129.611635 
C 155.067538 130.19921 155.300984 130.762799 155.716462 131.178278 
C 156.131941 131.593756 156.69553 131.827202 157.283105 131.827202 
z
" clip-path="url(#p4080e73dfa)" style="fill: #e6950a; stroke: #e6950a; stroke-width: 0.886227"/>
    <path d="M 186.248571 134.038757 
C 186.836146 134.038757 187.399735 133.805311 187.815214 133.389833 
C 188.230692 132.974354 188.464138 132.410766 188.464138 131.82319 
C 188.464138 131.235615 188.230692 130.672026 187.815214 130.256548 
C 187.399735 129.841069 186.836146 129.607623 186.248571 129.607623 
C 185.660996 129.607623 185.097407 129.841069 184.681928 130.256548 
C 184.26645 130.672026 184.033004 131.235615 184.033004 131.82319 
C 184.033004 132.410766 184.26645 132.974354 184.681928 133.389833 
C 185.097407 133.805311 185.660996 134.038757 186.248571 134.038757 
z
" clip-path="url(#p4080e73dfa)" style="fill: #3949f5; stroke: #3949f5; stroke-width: 0.886227"/>
    <path d="M 186.248571 135.660206 
C 186.836146 135.660206 187.399735 135.42676 187.815214 135.011281 
C 188.230692 134.595803 188.464138 134.032214 188.464138 133.444639 
C 188.464138 132.857063 188.230692 132.293474 187.815214 131.877996 
C 187.399735 131.462517 186.836146 131.229071 186.248571 131.229071 
C 185.660996 131.229071 185.097407 131.462517 184.681928 131.877996 
C 184.26645 132.293474 184.033004 132.857063 184.033004 133.444639 
C 184.033004 134.032214 184.26645 134.595803 184.681928 135.011281 
C 185.097407 135.42676 185.660996 135.660206 186.248571 135.660206 
z
" clip-path="url(#p4080e73dfa)" style="fill: #1c9a0e; stroke: #1c9a0e; stroke-width: 0.886227"/>
    <path d="M 186.248571 136.634105 
C 186.836146 136.634105 187.399735 136.400659 187.815214 135.98518 
C 188.230692 135.569702 188.464138 135.006113 188.464138 134.418538 
C 188.464138 133.830962 188.230692 133.267374 187.815214 132.851895 
C 187.399735 132.436417 186.836146 132.20297 186.248571 132.20297 
C 185.660996 132.20297 185.097407 132.436417 184.681928 132.851895 
C 184.26645 133.267374 184.033004 133.830962 184.033004 134.418538 
C 184.033004 135.006113 184.26645 135.569702 184.681928 135.98518 
C 185.097407 136.400659 185.660996 136.634105 186.248571 136.634105 
z
" clip-path="url(#p4080e73dfa)" style="fill: #dc0d97; stroke: #dc0d97; stroke-width: 0.886227"/>
    <path d="M 186.248571 134.985798 
C 186.836146 134.985798 187.399735 134.752352 187.815214 134.336874 
C 188.230692 133.921395 188.464138 133.357806 188.464138 132.770231 
C 188.464138 132.182656 188.230692 131.619067 187.815214 131.203588 
C 187.399735 130.78811 186.836146 130.554664 186.248571 130.554664 
C 185.660996 130.554664 185.097407 130.78811 184.681928 131.203588 
C 184.26645 131.619067 184.033004 132.182656 184.033004 132.770231 
C 184.033004 133.357806 184.26645 133.921395 184.681928 134.336874 
C 185.097407 134.752352 185.660996 134.985798 186.248571 134.985798 
z
" clip-path="url(#p4080e73dfa)" style="fill: #e6950a; stroke: #e6950a; stroke-width: 0.886227"/>
   </g>
   <g id="PolyCollection_1">
    <path d="M 41.421241 103.100838 
L 41.421241 139.423666 
L 70.386707 121.706075 
L 99.352173 138.579895 
L 128.317639 126.868964 
L 157.283105 132.600461 
L 186.248571 133.8243 
L 186.248571 129.420306 
L 186.248571 129.420306 
L 157.283105 127.37255 
L 128.317639 114.565008 
L 99.352173 125.755242 
L 70.386707 102.279391 
L 41.421241 103.100838 
z
" clip-path="url(#p4080e73dfa)" style="fill: #3949f5; fill-opacity: 0.14902"/>
   </g>
   <g id="line2d_25"/>
   <g id="line2d_26"/>
   <g id="PolyCollection_2">
    <path d="M 41.421241 96.902911 
L 41.421241 142.349998 
L 70.386707 120.343473 
L 99.352173 132.392945 
L 128.317639 125.77337 
L 157.283105 132.510944 
L 186.248571 134.082815 
L 186.248571 129.707056 
L 186.248571 129.707056 
L 157.283105 124.735738 
L 128.317639 112.389008 
L 99.352173 118.855812 
L 70.386707 88.37455 
L 41.421241 96.902911 
z
" clip-path="url(#p4080e73dfa)" style="fill: #1c9a0e; fill-opacity: 0.14902"/>
   </g>
   <g id="line2d_27"/>
   <g id="line2d_28"/>
   <g id="PolyCollection_3">
    <path d="M 41.421241 88.190538 
L 41.421241 124.889611 
L 70.386707 127.14453 
L 99.352173 138.307926 
L 128.317639 131.545135 
L 157.283105 132.455421 
L 186.248571 133.56115 
L 186.248571 130.228721 
L 186.248571 130.228721 
L 157.283105 123.155463 
L 128.317639 118.613091 
L 99.352173 123.846148 
L 70.386707 91.388277 
L 41.421241 88.190538 
z
" clip-path="url(#p4080e73dfa)" style="fill: #e6950a; fill-opacity: 0.14902"/>
   </g>
   <g id="line2d_29"/>
   <g id="line2d_30"/>
   <g id="PolyCollection_4">
    <path d="M 41.421241 90.831001 
L 41.421241 159.327225 
L 70.386707 131.726166 
L 99.352173 151.332499 
L 128.317639 133.017907 
L 157.283105 132.456433 
L 186.248571 134.471317 
L 186.248571 129.86382 
L 186.248571 129.86382 
L 157.283105 124.790249 
L 128.317639 113.868723 
L 99.352173 97.735195 
L 70.386707 92.804565 
L 41.421241 90.831001 
z
" clip-path="url(#p4080e73dfa)" style="fill: #dc0d97; fill-opacity: 0.14902"/>
   </g>
   <g id="line2d_31"/>
   <g id="line2d_32"/>
   <g id="LineCollection_1">
    <path d="M 34.179875 45.742934 
L 193.489938 135.711797 
" clip-path="url(#p4080e73dfa)" style="fill: none; stroke-dasharray: 3.27904,1.417963; stroke-dashoffset: 0; stroke: #000000; stroke-opacity: 0.501961; stroke-width: 0.886227"/>
   </g>
  </g>
  <g id="axes_2">
   <g id="patch_3">
    <path d="M 197.089937 172.863616 
L 356.4 172.863616 
L 356.4 46.253542 
L 197.089937 46.253542 
z
" style="fill: #ffffff"/>
   </g>
   <g id="matplotlib.axis_3">
    <g id="xtick_12">
     <g id="line2d_33">
      <path d="M 204.331304 172.863616 
L 204.331304 46.253542 
" clip-path="url(#p8a8238001c)" style="fill: none; stroke: #e5e5e5; stroke-linecap: square"/>
     </g>
     <g id="line2d_34">
      <path d="M 204.331304 172.863616 
" style="fill: none; stroke: #333333; stroke-width: 1.5; stroke-linecap: square"/>
      <g>
       <use xlink:href="#md7722293e5" x="204.331304" y="172.863616" style="fill: #333333; stroke: #333333"/>
      </g>
     </g>
     <g id="text_11">
      <!-- &lt; 75 -->
      <g style="fill: #4d4d4d" transform="translate(190.750611 194.360999) rotate(-45) scale(0.088 -0.088)">
       <use xlink:href="#Helvetica-3c"/>
       <use xlink:href="#Helvetica-20" x="58.398438"/>
       <use xlink:href="#Helvetica-37" x="86.181641"/>
       <use xlink:href="#Helvetica-35" x="141.796875"/>
      </g>
     </g>
    </g>
    <g id="xtick_13">
     <g id="line2d_35">
      <path d="M 233.29677 172.863616 
L 233.29677 46.253542 
" clip-path="url(#p8a8238001c)" style="fill: none; stroke: #e5e5e5; stroke-linecap: square"/>
     </g>
     <g id="line2d_36">
      <path d="M 233.29677 172.863616 
" style="fill: none; stroke: #333333; stroke-width: 1.5; stroke-linecap: square"/>
      <g>
       <use xlink:href="#md7722293e5" x="233.29677" y="172.863616" style="fill: #333333; stroke: #333333"/>
      </g>
     </g>
     <g id="text_12">
      <!-- 75-80 -->
      <g style="fill: #4d4d4d" transform="translate(216.086586 197.990489) rotate(-45) scale(0.088 -0.088)">
       <use xlink:href="#Helvetica-37"/>
       <use xlink:href="#Helvetica-35" x="55.615234"/>
       <use xlink:href="#Helvetica-2d" x="111.230469"/>
       <use xlink:href="#Helvetica-38" x="144.53125"/>
       <use xlink:href="#Helvetica-30" x="200.146484"/>
      </g>
     </g>
    </g>
    <g id="xtick_14">
     <g id="line2d_37">
      <path d="M 262.262236 172.863616 
L 262.262236 46.253542 
" clip-path="url(#p8a8238001c)" style="fill: none; stroke: #e5e5e5; stroke-linecap: square"/>
     </g>
     <g id="line2d_38">
      <path d="M 262.262236 172.863616 
" style="fill: none; stroke: #333333; stroke-width: 1.5; stroke-linecap: square"/>
      <g>
       <use xlink:href="#md7722293e5" x="262.262236" y="172.863616" style="fill: #333333; stroke: #333333"/>
      </g>
     </g>
     <g id="text_13">
      <!-- 80-85 -->
      <g style="fill: #4d4d4d" transform="translate(245.052052 197.990489) rotate(-45) scale(0.088 -0.088)">
       <use xlink:href="#Helvetica-38"/>
       <use xlink:href="#Helvetica-30" x="55.615234"/>
       <use xlink:href="#Helvetica-2d" x="111.230469"/>
       <use xlink:href="#Helvetica-38" x="144.53125"/>
       <use xlink:href="#Helvetica-35" x="200.146484"/>
      </g>
     </g>
    </g>
    <g id="xtick_15">
     <g id="line2d_39">
      <path d="M 291.227702 172.863616 
L 291.227702 46.253542 
" clip-path="url(#p8a8238001c)" style="fill: none; stroke: #e5e5e5; stroke-linecap: square"/>
     </g>
     <g id="line2d_40">
      <path d="M 291.227702 172.863616 
" style="fill: none; stroke: #333333; stroke-width: 1.5; stroke-linecap: square"/>
      <g>
       <use xlink:href="#md7722293e5" x="291.227702" y="172.863616" style="fill: #333333; stroke: #333333"/>
      </g>
     </g>
     <g id="text_14">
      <!-- 85-90 -->
      <g style="fill: #4d4d4d" transform="translate(274.017518 197.990489) rotate(-45) scale(0.088 -0.088)">
       <use xlink:href="#Helvetica-38"/>
       <use xlink:href="#Helvetica-35" x="55.615234"/>
       <use xlink:href="#Helvetica-2d" x="111.230469"/>
       <use xlink:href="#Helvetica-39" x="144.53125"/>
       <use xlink:href="#Helvetica-30" x="200.146484"/>
      </g>
     </g>
    </g>
    <g id="xtick_16">
     <g id="line2d_41">
      <path d="M 320.193168 172.863616 
L 320.193168 46.253542 
" clip-path="url(#p8a8238001c)" style="fill: none; stroke: #e5e5e5; stroke-linecap: square"/>
     </g>
     <g id="line2d_42">
      <path d="M 320.193168 172.863616 
" style="fill: none; stroke: #333333; stroke-width: 1.5; stroke-linecap: square"/>
      <g>
       <use xlink:href="#md7722293e5" x="320.193168" y="172.863616" style="fill: #333333; stroke: #333333"/>
      </g>
     </g>
     <g id="text_15">
      <!-- 90-95 -->
      <g style="fill: #4d4d4d" transform="translate(302.982984 197.990489) rotate(-45) scale(0.088 -0.088)">
       <use xlink:href="#Helvetica-39"/>
       <use xlink:href="#Helvetica-30" x="55.615234"/>
       <use xlink:href="#Helvetica-2d" x="111.230469"/>
       <use xlink:href="#Helvetica-39" x="144.53125"/>
       <use xlink:href="#Helvetica-35" x="200.146484"/>
      </g>
     </g>
    </g>
    <g id="xtick_17">
     <g id="line2d_43">
      <path d="M 349.158634 172.863616 
L 349.158634 46.253542 
" clip-path="url(#p8a8238001c)" style="fill: none; stroke: #e5e5e5; stroke-linecap: square"/>
     </g>
     <g id="line2d_44">
      <path d="M 349.158634 172.863616 
" style="fill: none; stroke: #333333; stroke-width: 1.5; stroke-linecap: square"/>
      <g>
       <use xlink:href="#md7722293e5" x="349.158634" y="172.863616" style="fill: #333333; stroke: #333333"/>
      </g>
     </g>
     <g id="text_16">
      <!-- &gt; 95 -->
      <g style="fill: #4d4d4d" transform="translate(335.577941 194.360999) rotate(-45) scale(0.088 -0.088)">
       <use xlink:href="#Helvetica-3e"/>
       <use xlink:href="#Helvetica-20" x="58.398438"/>
       <use xlink:href="#Helvetica-39" x="86.181641"/>
       <use xlink:href="#Helvetica-35" x="141.796875"/>
      </g>
     </g>
    </g>
    <g id="xtick_18"/>
    <g id="xtick_19"/>
    <g id="xtick_20"/>
    <g id="xtick_21"/>
    <g id="xtick_22"/>
   </g>
   <g id="matplotlib.axis_4">
    <g id="ytick_9">
     <g id="line2d_45">
      <path d="M 197.089937 164.338253 
L 356.4 164.338253 
" clip-path="url(#p8a8238001c)" style="fill: none; stroke: #e5e5e5; stroke-linecap: square"/>
     </g>
    </g>
    <g id="ytick_10">
     <g id="line2d_46">
      <path d="M 197.089937 131.622303 
L 356.4 131.622303 
" clip-path="url(#p8a8238001c)" style="fill: none; stroke: #e5e5e5; stroke-linecap: square"/>
     </g>
    </g>
    <g id="ytick_11">
     <g id="line2d_47">
      <path d="M 197.089937 98.906353 
L 356.4 98.906353 
" clip-path="url(#p8a8238001c)" style="fill: none; stroke: #e5e5e5; stroke-linecap: square"/>
     </g>
    </g>
    <g id="ytick_12">
     <g id="line2d_48">
      <path d="M 197.089937 66.190403 
L 356.4 66.190403 
" clip-path="url(#p8a8238001c)" style="fill: none; stroke: #e5e5e5; stroke-linecap: square"/>
     </g>
    </g>
    <g id="ytick_13"/>
    <g id="ytick_14"/>
    <g id="ytick_15"/>
    <g id="ytick_16"/>
   </g>
   <g id="line2d_49">
    <path d="M 204.331304 91.350526 
L 233.29677 102.541458 
L 262.262236 102.662629 
L 291.227702 120.656401 
L 320.193168 124.352092 
L 349.158634 135.039302 
" clip-path="url(#p8a8238001c)" style="fill: none; stroke: #3949f5; stroke-width: 1.772454"/>
   </g>
   <g id="line2d_50">
    <path d="M 204.331304 80.834685 
L 233.29677 109.084648 
L 262.262236 104.661937 
L 291.227702 115.567253 
L 320.193168 126.669471 
L 349.158634 139.092445 
" clip-path="url(#p8a8238001c)" style="fill: none; stroke: #1c9a0e; stroke-width: 1.772454"/>
   </g>
   <g id="line2d_51">
    <path d="M 204.331304 82.236797 
L 233.29677 104.904277 
L 262.262236 110.478105 
L 291.227702 122.231613 
L 320.193168 124.897357 
L 349.158634 136.802328 
" clip-path="url(#p8a8238001c)" style="fill: none; stroke: #e6950a; stroke-width: 1.772454"/>
   </g>
   <g id="line2d_52">
    <path d="M 204.331304 78.809412 
L 233.29677 121.625763 
L 262.262236 104.154536 
L 291.227702 120.898741 
L 320.193168 131.790077 
L 349.158634 138.310897 
" clip-path="url(#p8a8238001c)" style="fill: none; stroke: #dc0d97; stroke-width: 1.772454"/>
   </g>
   <g id="PathCollection_2">
    <path d="M 204.331304 93.566094 
C 204.918879 93.566094 205.482468 93.332647 205.897947 92.917169 
C 206.313425 92.50169 206.546871 91.938102 206.546871 91.350526 
C 206.546871 90.762951 206.313425 90.199362 205.897947 89.783884 
C 205.482468 89.368405 204.918879 89.134959 204.331304 89.134959 
C 203.743729 89.134959 203.18014 89.368405 202.764661 89.783884 
C 202.349183 90.199362 202.115737 90.762951 202.115737 91.350526 
C 202.115737 91.938102 202.349183 92.50169 202.764661 92.917169 
C 203.18014 93.332647 203.743729 93.566094 204.331304 93.566094 
z
" clip-path="url(#p8a8238001c)" style="fill: #3949f5; stroke: #3949f5; stroke-width: 0.886227"/>
    <path d="M 204.331304 83.050253 
C 204.918879 83.050253 205.482468 82.816806 205.897947 82.401328 
C 206.313425 81.985849 206.546871 81.422261 206.546871 80.834685 
C 206.546871 80.24711 206.313425 79.683521 205.897947 79.268043 
C 205.482468 78.852564 204.918879 78.619118 204.331304 78.619118 
C 203.743729 78.619118 203.18014 78.852564 202.764661 79.268043 
C 202.349183 79.683521 202.115737 80.24711 202.115737 80.834685 
C 202.115737 81.422261 202.349183 81.985849 202.764661 82.401328 
C 203.18014 82.816806 203.743729 83.050253 204.331304 83.050253 
z
" clip-path="url(#p8a8238001c)" style="fill: #1c9a0e; stroke: #1c9a0e; stroke-width: 0.886227"/>
    <path d="M 204.331304 81.024979 
C 204.918879 81.024979 205.482468 80.791533 205.897947 80.376055 
C 206.313425 79.960576 206.546871 79.396987 206.546871 78.809412 
C 206.546871 78.221837 206.313425 77.658248 205.897947 77.242769 
C 205.482468 76.827291 204.918879 76.593845 204.331304 76.593845 
C 203.743729 76.593845 203.18014 76.827291 202.764661 77.242769 
C 202.349183 77.658248 202.115737 78.221837 202.115737 78.809412 
C 202.115737 79.396987 202.349183 79.960576 202.764661 80.376055 
C 203.18014 80.791533 203.743729 81.024979 204.331304 81.024979 
z
" clip-path="url(#p8a8238001c)" style="fill: #dc0d97; stroke: #dc0d97; stroke-width: 0.886227"/>
    <path d="M 204.331304 84.452365 
C 204.918879 84.452365 205.482468 84.218919 205.897947 83.80344 
C 206.313425 83.387962 206.546871 82.824373 206.546871 82.236797 
C 206.546871 81.649222 206.313425 81.085633 205.897947 80.670155 
C 205.482468 80.254676 204.918879 80.02123 204.331304 80.02123 
C 203.743729 80.02123 203.18014 80.254676 202.764661 80.670155 
C 202.349183 81.085633 202.115737 81.649222 202.115737 82.236797 
C 202.115737 82.824373 202.349183 83.387962 202.764661 83.80344 
C 203.18014 84.218919 203.743729 84.452365 204.331304 84.452365 
z
" clip-path="url(#p8a8238001c)" style="fill: #e6950a; stroke: #e6950a; stroke-width: 0.886227"/>
    <path d="M 233.29677 104.757026 
C 233.884345 104.757026 234.447934 104.52358 234.863413 104.108101 
C 235.278891 103.692623 235.512337 103.129034 235.512337 102.541458 
C 235.512337 101.953883 235.278891 101.390294 234.863413 100.974816 
C 234.447934 100.559337 233.884345 100.325891 233.29677 100.325891 
C 232.709195 100.325891 232.145606 100.559337 231.730127 100.974816 
C 231.314649 101.390294 231.081203 101.953883 231.081203 102.541458 
C 231.081203 103.129034 231.314649 103.692623 231.730127 104.108101 
C 232.145606 104.52358 232.709195 104.757026 233.29677 104.757026 
z
" clip-path="url(#p8a8238001c)" style="fill: #3949f5; stroke: #3949f5; stroke-width: 0.886227"/>
    <path d="M 233.29677 111.300216 
C 233.884345 111.300216 234.447934 111.06677 234.863413 110.651291 
C 235.278891 110.235813 235.512337 109.672224 235.512337 109.084648 
C 235.512337 108.497073 235.278891 107.933484 234.863413 107.518006 
C 234.447934 107.102527 233.884345 106.869081 233.29677 106.869081 
C 232.709195 106.869081 232.145606 107.102527 231.730127 107.518006 
C 231.314649 107.933484 231.081203 108.497073 231.081203 109.084648 
C 231.081203 109.672224 231.314649 110.235813 231.730127 110.651291 
C 232.145606 111.06677 232.709195 111.300216 233.29677 111.300216 
z
" clip-path="url(#p8a8238001c)" style="fill: #1c9a0e; stroke: #1c9a0e; stroke-width: 0.886227"/>
    <path d="M 233.29677 123.84133 
C 233.884345 123.84133 234.447934 123.607884 234.863413 123.192405 
C 235.278891 122.776927 235.512337 122.213338 235.512337 121.625763 
C 235.512337 121.038187 235.278891 120.474598 234.863413 120.05912 
C 234.447934 119.643641 233.884345 119.410195 233.29677 119.410195 
C 232.709195 119.410195 232.145606 119.643641 231.730127 120.05912 
C 231.314649 120.474598 231.081203 121.038187 231.081203 121.625763 
C 231.081203 122.213338 231.314649 122.776927 231.730127 123.192405 
C 232.145606 123.607884 232.709195 123.84133 233.29677 123.84133 
z
" clip-path="url(#p8a8238001c)" style="fill: #dc0d97; stroke: #dc0d97; stroke-width: 0.886227"/>
    <path d="M 233.29677 107.119844 
C 233.884345 107.119844 234.447934 106.886398 234.863413 106.47092 
C 235.278891 106.055441 235.512337 105.491852 235.512337 104.904277 
C 235.512337 104.316702 235.278891 103.753113 234.863413 103.337634 
C 234.447934 102.922156 233.884345 102.68871 233.29677 102.68871 
C 232.709195 102.68871 232.145606 102.922156 231.730127 103.337634 
C 231.314649 103.753113 231.081203 104.316702 231.081203 104.904277 
C 231.081203 105.491852 231.314649 106.055441 231.730127 106.47092 
C 232.145606 106.886398 232.709195 107.119844 233.29677 107.119844 
z
" clip-path="url(#p8a8238001c)" style="fill: #e6950a; stroke: #e6950a; stroke-width: 0.886227"/>
    <path d="M 262.262236 104.878196 
C 262.849811 104.878196 263.4134 104.64475 263.828878 104.229271 
C 264.244357 103.813793 264.477803 103.250204 264.477803 102.662629 
C 264.477803 102.075053 264.244357 101.511464 263.828878 101.095986 
C 263.4134 100.680507 262.849811 100.447061 262.262236 100.447061 
C 261.67466 100.447061 261.111072 100.680507 260.695593 101.095986 
C 260.280115 101.511464 260.046668 102.075053 260.046668 102.662629 
C 260.046668 103.250204 260.280115 103.813793 260.695593 104.229271 
C 261.111072 104.64475 261.67466 104.878196 262.262236 104.878196 
z
" clip-path="url(#p8a8238001c)" style="fill: #3949f5; stroke: #3949f5; stroke-width: 0.886227"/>
    <path d="M 262.262236 106.877504 
C 262.849811 106.877504 263.4134 106.644058 263.828878 106.228579 
C 264.244357 105.813101 264.477803 105.249512 264.477803 104.661937 
C 264.477803 104.074361 264.244357 103.510772 263.828878 103.095294 
C 263.4134 102.679815 262.849811 102.446369 262.262236 102.446369 
C 261.67466 102.446369 261.111072 102.679815 260.695593 103.095294 
C 260.280115 103.510772 260.046668 104.074361 260.046668 104.661937 
C 260.046668 105.249512 260.280115 105.813101 260.695593 106.228579 
C 261.111072 106.644058 261.67466 106.877504 262.262236 106.877504 
z
" clip-path="url(#p8a8238001c)" style="fill: #1c9a0e; stroke: #1c9a0e; stroke-width: 0.886227"/>
    <path d="M 262.262236 106.370104 
C 262.849811 106.370104 263.4134 106.136658 263.828878 105.721179 
C 264.244357 105.305701 264.477803 104.742112 264.477803 104.154536 
C 264.477803 103.566961 264.244357 103.003372 263.828878 102.587894 
C 263.4134 102.172415 262.849811 101.938969 262.262236 101.938969 
C 261.67466 101.938969 261.111072 102.172415 260.695593 102.587894 
C 260.280115 103.003372 260.046668 103.566961 260.046668 104.154536 
C 260.046668 104.742112 260.280115 105.305701 260.695593 105.721179 
C 261.111072 106.136658 261.67466 106.370104 262.262236 106.370104 
z
" clip-path="url(#p8a8238001c)" style="fill: #dc0d97; stroke: #dc0d97; stroke-width: 0.886227"/>
    <path d="M 262.262236 112.693673 
C 262.849811 112.693673 263.4134 112.460227 263.828878 112.044748 
C 264.244357 111.62927 264.477803 111.065681 264.477803 110.478105 
C 264.477803 109.89053 264.244357 109.326941 263.828878 108.911463 
C 263.4134 108.495984 262.849811 108.262538 262.262236 108.262538 
C 261.67466 108.262538 261.111072 108.495984 260.695593 108.911463 
C 260.280115 109.326941 260.046668 109.89053 260.046668 110.478105 
C 260.046668 111.065681 260.280115 111.62927 260.695593 112.044748 
C 261.111072 112.460227 261.67466 112.693673 262.262236 112.693673 
z
" clip-path="url(#p8a8238001c)" style="fill: #e6950a; stroke: #e6950a; stroke-width: 0.886227"/>
    <path d="M 291.227702 122.871968 
C 291.815277 122.871968 292.378866 122.638522 292.794344 122.223044 
C 293.209823 121.807565 293.443269 121.243976 293.443269 120.656401 
C 293.443269 120.068826 293.209823 119.505237 292.794344 119.089758 
C 292.378866 118.67428 291.815277 118.440834 291.227702 118.440834 
C 290.640126 118.440834 290.076538 118.67428 289.661059 119.089758 
C 289.245581 119.505237 289.012134 120.068826 289.012134 120.656401 
C 289.012134 121.243976 289.245581 121.807565 289.661059 122.223044 
C 290.076538 122.638522 290.640126 122.871968 291.227702 122.871968 
z
" clip-path="url(#p8a8238001c)" style="fill: #3949f5; stroke: #3949f5; stroke-width: 0.886227"/>
    <path d="M 291.227702 117.782821 
C 291.815277 117.782821 292.378866 117.549374 292.794344 117.133896 
C 293.209823 116.718417 293.443269 116.154829 293.443269 115.567253 
C 293.443269 114.979678 293.209823 114.416089 292.794344 114.000611 
C 292.378866 113.585132 291.815277 113.351686 291.227702 113.351686 
C 290.640126 113.351686 290.076538 113.585132 289.661059 114.000611 
C 289.245581 114.416089 289.012134 114.979678 289.012134 115.567253 
C 289.012134 116.154829 289.245581 116.718417 289.661059 117.133896 
C 290.076538 117.549374 290.640126 117.782821 291.227702 117.782821 
z
" clip-path="url(#p8a8238001c)" style="fill: #1c9a0e; stroke: #1c9a0e; stroke-width: 0.886227"/>
    <path d="M 291.227702 123.114309 
C 291.815277 123.114309 292.378866 122.880863 292.794344 122.465384 
C 293.209823 122.049906 293.443269 121.486317 293.443269 120.898741 
C 293.443269 120.311166 293.209823 119.747577 292.794344 119.332099 
C 292.378866 118.91662 291.815277 118.683174 291.227702 118.683174 
C 290.640126 118.683174 290.076538 118.91662 289.661059 119.332099 
C 289.245581 119.747577 289.012134 120.311166 289.012134 120.898741 
C 289.012134 121.486317 289.245581 122.049906 289.661059 122.465384 
C 290.076538 122.880863 290.640126 123.114309 291.227702 123.114309 
z
" clip-path="url(#p8a8238001c)" style="fill: #dc0d97; stroke: #dc0d97; stroke-width: 0.886227"/>
    <path d="M 291.227702 124.447181 
C 291.815277 124.447181 292.378866 124.213735 292.794344 123.798256 
C 293.209823 123.382778 293.443269 122.819189 293.443269 122.231613 
C 293.443269 121.644038 293.209823 121.080449 292.794344 120.664971 
C 292.378866 120.249492 291.815277 120.016046 291.227702 120.016046 
C 290.640126 120.016046 290.076538 120.249492 289.661059 120.664971 
C 289.245581 121.080449 289.012134 121.644038 289.012134 122.231613 
C 289.012134 122.819189 289.245581 123.382778 289.661059 123.798256 
C 290.076538 124.213735 290.640126 124.447181 291.227702 124.447181 
z
" clip-path="url(#p8a8238001c)" style="fill: #e6950a; stroke: #e6950a; stroke-width: 0.886227"/>
    <path d="M 320.193168 126.567659 
C 320.780743 126.567659 321.344332 126.334213 321.75981 125.918734 
C 322.175289 125.503256 322.408735 124.939667 322.408735 124.352092 
C 322.408735 123.764516 322.175289 123.200927 321.75981 122.785449 
C 321.344332 122.369971 320.780743 122.136524 320.193168 122.136524 
C 319.605592 122.136524 319.042003 122.369971 318.626525 122.785449 
C 318.211046 123.200927 317.9776 123.764516 317.9776 124.352092 
C 317.9776 124.939667 318.211046 125.503256 318.626525 125.918734 
C 319.042003 126.334213 319.605592 126.567659 320.193168 126.567659 
z
" clip-path="url(#p8a8238001c)" style="fill: #3949f5; stroke: #3949f5; stroke-width: 0.886227"/>
    <path d="M 320.193168 128.885039 
C 320.780743 128.885039 321.344332 128.651593 321.75981 128.236114 
C 322.175289 127.820636 322.408735 127.257047 322.408735 126.669471 
C 322.408735 126.081896 322.175289 125.518307 321.75981 125.102829 
C 321.344332 124.68735 320.780743 124.453904 320.193168 124.453904 
C 319.605592 124.453904 319.042003 124.68735 318.626525 125.102829 
C 318.211046 125.518307 317.9776 126.081896 317.9776 126.669471 
C 317.9776 127.257047 318.211046 127.820636 318.626525 128.236114 
C 319.042003 128.651593 319.605592 128.885039 320.193168 128.885039 
z
" clip-path="url(#p8a8238001c)" style="fill: #1c9a0e; stroke: #1c9a0e; stroke-width: 0.886227"/>
    <path d="M 320.193168 134.005644 
C 320.780743 134.005644 321.344332 133.772198 321.75981 133.35672 
C 322.175289 132.941241 322.408735 132.377652 322.408735 131.790077 
C 322.408735 131.202502 322.175289 130.638913 321.75981 130.223434 
C 321.344332 129.807956 320.780743 129.57451 320.193168 129.57451 
C 319.605592 129.57451 319.042003 129.807956 318.626525 130.223434 
C 318.211046 130.638913 317.9776 131.202502 317.9776 131.790077 
C 317.9776 132.377652 318.211046 132.941241 318.626525 133.35672 
C 319.042003 133.772198 319.605592 134.005644 320.193168 134.005644 
z
" clip-path="url(#p8a8238001c)" style="fill: #dc0d97; stroke: #dc0d97; stroke-width: 0.886227"/>
    <path d="M 320.193168 127.112925 
C 320.780743 127.112925 321.344332 126.879479 321.75981 126.464 
C 322.175289 126.048522 322.408735 125.484933 322.408735 124.897357 
C 322.408735 124.309782 322.175289 123.746193 321.75981 123.330715 
C 321.344332 122.915236 320.780743 122.68179 320.193168 122.68179 
C 319.605592 122.68179 319.042003 122.915236 318.626525 123.330715 
C 318.211046 123.746193 317.9776 124.309782 317.9776 124.897357 
C 317.9776 125.484933 318.211046 126.048522 318.626525 126.464 
C 319.042003 126.879479 319.605592 127.112925 320.193168 127.112925 
z
" clip-path="url(#p8a8238001c)" style="fill: #e6950a; stroke: #e6950a; stroke-width: 0.886227"/>
    <path d="M 349.158634 137.254869 
C 349.746209 137.254869 350.309798 137.021423 350.725276 136.605945 
C 351.140755 136.190466 351.374201 135.626877 351.374201 135.039302 
C 351.374201 134.451727 351.140755 133.888138 350.725276 133.472659 
C 350.309798 133.057181 349.746209 132.823735 349.158634 132.823735 
C 348.571058 132.823735 348.007469 133.057181 347.591991 133.472659 
C 347.176512 133.888138 346.943066 134.451727 346.943066 135.039302 
C 346.943066 135.626877 347.176512 136.190466 347.591991 136.605945 
C 348.007469 137.021423 348.571058 137.254869 349.158634 137.254869 
z
" clip-path="url(#p8a8238001c)" style="fill: #3949f5; stroke: #3949f5; stroke-width: 0.886227"/>
    <path d="M 349.158634 141.308012 
C 349.746209 141.308012 350.309798 141.074566 350.725276 140.659087 
C 351.140755 140.243609 351.374201 139.68002 351.374201 139.092445 
C 351.374201 138.504869 351.140755 137.94128 350.725276 137.525802 
C 350.309798 137.110324 349.746209 136.876877 349.158634 136.876877 
C 348.571058 136.876877 348.007469 137.110324 347.591991 137.525802 
C 347.176512 137.94128 346.943066 138.504869 346.943066 139.092445 
C 346.943066 139.68002 347.176512 140.243609 347.591991 140.659087 
C 348.007469 141.074566 348.571058 141.308012 349.158634 141.308012 
z
" clip-path="url(#p8a8238001c)" style="fill: #1c9a0e; stroke: #1c9a0e; stroke-width: 0.886227"/>
    <path d="M 349.158634 140.526464 
C 349.746209 140.526464 350.309798 140.293018 350.725276 139.87754 
C 351.140755 139.462061 351.374201 138.898472 351.374201 138.310897 
C 351.374201 137.723322 351.140755 137.159733 350.725276 136.744254 
C 350.309798 136.328776 349.746209 136.09533 349.158634 136.09533 
C 348.571058 136.09533 348.007469 136.328776 347.591991 136.744254 
C 347.176512 137.159733 346.943066 137.723322 346.943066 138.310897 
C 346.943066 138.898472 347.176512 139.462061 347.591991 139.87754 
C 348.007469 140.293018 348.571058 140.526464 349.158634 140.526464 
z
" clip-path="url(#p8a8238001c)" style="fill: #dc0d97; stroke: #dc0d97; stroke-width: 0.886227"/>
    <path d="M 349.158634 139.017895 
C 349.746209 139.017895 350.309798 138.784449 350.725276 138.368971 
C 351.140755 137.953492 351.374201 137.389904 351.374201 136.802328 
C 351.374201 136.214753 351.140755 135.651164 350.725276 135.235686 
C 350.309798 134.820207 349.746209 134.586761 349.158634 134.586761 
C 348.571058 134.586761 348.007469 134.820207 347.591991 135.235686 
C 347.176512 135.651164 346.943066 136.214753 346.943066 136.802328 
C 346.943066 137.389904 347.176512 137.953492 347.591991 138.368971 
C 348.007469 138.784449 348.571058 139.017895 349.158634 139.017895 
z
" clip-path="url(#p8a8238001c)" style="fill: #e6950a; stroke: #e6950a; stroke-width: 0.886227"/>
   </g>
   <g id="PolyCollection_5">
    <path d="M 204.331304 85.395277 
L 204.331304 110.236366 
L 233.29677 121.514842 
L 262.262236 118.641818 
L 291.227702 128.632425 
L 320.193168 127.684898 
L 349.158634 136.527396 
L 349.158634 129.443539 
L 349.158634 129.443539 
L 320.193168 120.837531 
L 291.227702 117.163674 
L 262.262236 95.528862 
L 233.29677 93.74637 
L 204.331304 85.395277 
z
" clip-path="url(#p8a8238001c)" style="fill: #3949f5; fill-opacity: 0.14902"/>
   </g>
   <g id="line2d_53"/>
   <g id="line2d_54"/>
   <g id="PolyCollection_6">
    <path d="M 204.331304 72.758959 
L 204.331304 94.51886 
L 233.29677 130.536717 
L 262.262236 118.83352 
L 291.227702 122.033896 
L 320.193168 132.850306 
L 349.158634 138.54616 
L 349.158634 124.698445 
L 349.158634 124.698445 
L 320.193168 124.396376 
L 291.227702 109.585291 
L 262.262236 97.518224 
L 233.29677 52.008545 
L 204.331304 72.758959 
z
" clip-path="url(#p8a8238001c)" style="fill: #1c9a0e; fill-opacity: 0.14902"/>
   </g>
   <g id="line2d_55"/>
   <g id="line2d_56"/>
   <g id="PolyCollection_7">
    <path d="M 204.331304 72.637859 
L 204.331304 92.458897 
L 233.29677 122.883853 
L 262.262236 125.389855 
L 291.227702 134.162692 
L 320.193168 130.866238 
L 349.158634 137.790375 
L 349.158634 127.090028 
L 349.158634 127.090028 
L 320.193168 123.108849 
L 291.227702 106.180749 
L 262.262236 90.961889 
L 233.29677 58.570877 
L 204.331304 72.637859 
z
" clip-path="url(#p8a8238001c)" style="fill: #e6950a; fill-opacity: 0.14902"/>
   </g>
   <g id="line2d_57"/>
   <g id="line2d_58"/>
   <g id="PolyCollection_8">
    <path d="M 204.331304 66.502834 
L 204.331304 97.50339 
L 233.29677 167.108613 
L 262.262236 121.872297 
L 291.227702 127.272587 
L 320.193168 134.258598 
L 349.158634 139.242747 
L 349.158634 131.635581 
L 349.158634 131.635581 
L 320.193168 118.080691 
L 291.227702 103.256069 
L 262.262236 97.205776 
L 233.29677 59.057916 
L 204.331304 66.502834 
z
" clip-path="url(#p8a8238001c)" style="fill: #dc0d97; fill-opacity: 0.14902"/>
   </g>
   <g id="line2d_59"/>
   <g id="line2d_60"/>
   <g id="LineCollection_2">
    <path d="M 197.089937 45.742934 
L 356.4 135.711797 
" clip-path="url(#p8a8238001c)" style="fill: none; stroke-dasharray: 3.27904,1.417963; stroke-dashoffset: 0; stroke: #000000; stroke-opacity: 0.501961; stroke-width: 0.886227"/>
   </g>
  </g>
  <g id="patch_4">
   <path d="M 34.179875 172.863616 
L 193.489937 172.863616 
L 193.489937 46.253542 
L 34.179875 46.253542 
L 34.179875 172.863616 
z
" style="fill: none; stroke: #7f7f7f; stroke-linejoin: miter"/>
  </g>
  <g id="patch_5">
   <path d="M 197.089937 172.863616 
L 356.4 172.863616 
L 356.4 46.253542 
L 197.089937 46.253542 
L 197.089937 172.863616 
z
" style="fill: none; stroke: #7f7f7f; stroke-linejoin: miter"/>
  </g>
  <g id="text_17">
   <!-- MT Quality Score -->
   <g transform="translate(156.671188 210.25625) scale(0.1 -0.1)">
    <defs>
     <path id="Helvetica-4d" d="M 472 4591 
L 1363 4591 
L 2681 709 
L 3991 4591 
L 4872 4591 
L 4872 0 
L 4281 0 
L 4281 2709 
Q 4281 2850 4287 3175 
Q 4294 3500 4294 3872 
L 2984 0 
L 2369 0 
L 1050 3872 
L 1050 3731 
Q 1050 3563 1058 3217 
Q 1066 2872 1066 2709 
L 1066 0 
L 472 0 
L 472 4591 
z
" transform="scale(0.015625)"/>
     <path id="Helvetica-54" d="M 3828 4591 
L 3828 4044 
L 2281 4044 
L 2281 0 
L 1650 0 
L 1650 4044 
L 103 4044 
L 103 4591 
L 3828 4591 
z
" transform="scale(0.015625)"/>
     <path id="Helvetica-51" d="M 4688 13 
L 4375 -366 
L 3666 175 
Q 3409 34 3111 -50 
Q 2813 -134 2459 -134 
Q 1391 -134 784 566 
Q 250 1247 250 2272 
Q 250 3203 713 3866 
Q 1306 4716 2469 4716 
Q 3684 4716 4269 3934 
Q 4725 3325 4725 2375 
Q 4725 1931 4616 1522 
Q 4450 897 4056 503 
L 4688 13 
z
M 2534 422 
Q 2728 422 2897 448 
Q 3066 475 3191 553 
L 2688 947 
L 3000 1331 
L 3600 866 
Q 3884 1191 3986 1594 
Q 4088 1997 4088 2366 
Q 4088 3175 3664 3669 
Q 3241 4163 2506 4163 
Q 1763 4163 1328 3689 
Q 894 3216 894 2231 
Q 894 1403 1311 912 
Q 1728 422 2534 422 
z
" transform="scale(0.015625)"/>
     <path id="Helvetica-75" d="M 975 3347 
L 975 1125 
Q 975 869 1056 706 
Q 1206 406 1616 406 
Q 2203 406 2416 931 
Q 2531 1213 2531 1703 
L 2531 3347 
L 3094 3347 
L 3094 0 
L 2563 0 
L 2569 494 
Q 2459 303 2297 172 
Q 1975 -91 1516 -91 
Q 800 -91 541 388 
Q 400 644 400 1072 
L 400 3347 
L 975 3347 
z
M 1747 3428 
L 1747 3428 
z
" transform="scale(0.015625)"/>
     <path id="Helvetica-61" d="M 844 891 
Q 844 647 1022 506 
Q 1200 366 1444 366 
Q 1741 366 2019 503 
Q 2488 731 2488 1250 
L 2488 1703 
Q 2384 1638 2221 1594 
Q 2059 1550 1903 1531 
L 1563 1488 
Q 1256 1447 1103 1359 
Q 844 1213 844 891 
z
M 2206 2028 
Q 2400 2053 2466 2191 
Q 2503 2266 2503 2406 
Q 2503 2694 2298 2823 
Q 2094 2953 1713 2953 
Q 1272 2953 1088 2716 
Q 984 2584 953 2325 
L 428 2325 
Q 444 2944 830 3186 
Q 1216 3428 1725 3428 
Q 2316 3428 2684 3203 
Q 3050 2978 3050 2503 
L 3050 575 
Q 3050 488 3086 434 
Q 3122 381 3238 381 
Q 3275 381 3322 386 
Q 3369 391 3422 400 
L 3422 -16 
Q 3291 -53 3222 -62 
Q 3153 -72 3034 -72 
Q 2744 -72 2613 134 
Q 2544 244 2516 444 
Q 2344 219 2022 53 
Q 1700 -113 1313 -113 
Q 847 -113 551 170 
Q 256 453 256 878 
Q 256 1344 547 1600 
Q 838 1856 1309 1916 
L 2206 2028 
z
M 1741 3428 
L 1741 3428 
z
" transform="scale(0.015625)"/>
     <path id="Helvetica-6c" d="M 428 4591 
L 991 4591 
L 991 0 
L 428 0 
L 428 4591 
z
" transform="scale(0.015625)"/>
     <path id="Helvetica-69" d="M 413 3331 
L 984 3331 
L 984 0 
L 413 0 
L 413 3331 
z
M 413 4591 
L 984 4591 
L 984 3953 
L 413 3953 
L 413 4591 
z
" transform="scale(0.015625)"/>
     <path id="Helvetica-74" d="M 525 4281 
L 1094 4281 
L 1094 3347 
L 1628 3347 
L 1628 2888 
L 1094 2888 
L 1094 703 
Q 1094 528 1213 469 
Q 1278 434 1431 434 
Q 1472 434 1519 436 
Q 1566 438 1628 444 
L 1628 0 
Q 1531 -28 1426 -40 
Q 1322 -53 1200 -53 
Q 806 -53 665 148 
Q 525 350 525 672 
L 525 2888 
L 72 2888 
L 72 3347 
L 525 3347 
L 525 4281 
z
" transform="scale(0.015625)"/>
     <path id="Helvetica-79" d="M 2503 3347 
L 3125 3347 
Q 3006 3025 2597 1878 
Q 2291 1016 2084 472 
Q 1597 -809 1397 -1090 
Q 1197 -1372 709 -1372 
Q 591 -1372 527 -1362 
Q 463 -1353 369 -1328 
L 369 -816 
Q 516 -856 581 -865 
Q 647 -875 697 -875 
Q 853 -875 926 -823 
Q 1000 -772 1050 -697 
Q 1066 -672 1162 -440 
Q 1259 -209 1303 -97 
L 66 3347 
L 703 3347 
L 1600 622 
L 2503 3347 
z
M 1597 3428 
L 1597 3428 
z
" transform="scale(0.015625)"/>
     <path id="Helvetica-53" d="M 894 1481 
Q 916 1091 1078 847 
Q 1388 391 2169 391 
Q 2519 391 2806 491 
Q 3363 684 3363 1184 
Q 3363 1559 3128 1719 
Q 2891 1875 2384 1991 
L 1763 2131 
Q 1153 2269 900 2434 
Q 463 2722 463 3294 
Q 463 3913 891 4309 
Q 1319 4706 2103 4706 
Q 2825 4706 3329 4357 
Q 3834 4009 3834 3244 
L 3250 3244 
Q 3203 3613 3050 3809 
Q 2766 4169 2084 4169 
Q 1534 4169 1293 3937 
Q 1053 3706 1053 3400 
Q 1053 3063 1334 2906 
Q 1519 2806 2169 2656 
L 2813 2509 
Q 3278 2403 3531 2219 
Q 3969 1897 3969 1284 
Q 3969 522 3414 194 
Q 2859 -134 2125 -134 
Q 1269 -134 784 303 
Q 300 738 309 1481 
L 894 1481 
z
M 2150 4716 
L 2150 4716 
z
" transform="scale(0.015625)"/>
     <path id="Helvetica-63" d="M 1703 3444 
Q 2269 3444 2623 3169 
Q 2978 2894 3050 2222 
L 2503 2222 
Q 2453 2531 2275 2736 
Q 2097 2941 1703 2941 
Q 1166 2941 934 2416 
Q 784 2075 784 1575 
Q 784 1072 996 728 
Q 1209 384 1666 384 
Q 2016 384 2220 598 
Q 2425 813 2503 1184 
L 3050 1184 
Q 2956 519 2581 211 
Q 2206 -97 1622 -97 
Q 966 -97 575 383 
Q 184 863 184 1581 
Q 184 2463 612 2953 
Q 1041 3444 1703 3444 
z
M 1616 3428 
L 1616 3428 
z
" transform="scale(0.015625)"/>
     <path id="Helvetica-6f" d="M 1741 363 
Q 2300 363 2508 786 
Q 2716 1209 2716 1728 
Q 2716 2197 2566 2491 
Q 2328 2953 1747 2953 
Q 1231 2953 997 2559 
Q 763 2166 763 1609 
Q 763 1075 997 719 
Q 1231 363 1741 363 
z
M 1763 3444 
Q 2409 3444 2856 3012 
Q 3303 2581 3303 1744 
Q 3303 934 2909 406 
Q 2516 -122 1688 -122 
Q 997 -122 590 345 
Q 184 813 184 1600 
Q 184 2444 612 2944 
Q 1041 3444 1763 3444 
z
M 1744 3428 
L 1744 3428 
z
" transform="scale(0.015625)"/>
     <path id="Helvetica-72" d="M 428 3347 
L 963 3347 
L 963 2769 
Q 1028 2938 1284 3180 
Q 1541 3422 1875 3422 
Q 1891 3422 1928 3419 
Q 1966 3416 2056 3406 
L 2056 2813 
Q 2006 2822 1964 2825 
Q 1922 2828 1872 2828 
Q 1447 2828 1219 2554 
Q 991 2281 991 1925 
L 991 0 
L 428 0 
L 428 3347 
z
" transform="scale(0.015625)"/>
     <path id="Helvetica-65" d="M 1806 3422 
Q 2163 3422 2497 3255 
Q 2831 3088 3006 2822 
Q 3175 2569 3231 2231 
Q 3281 2000 3281 1494 
L 828 1494 
Q 844 984 1069 676 
Q 1294 369 1766 369 
Q 2206 369 2469 659 
Q 2619 828 2681 1050 
L 3234 1050 
Q 3213 866 3089 639 
Q 2966 413 2813 269 
Q 2556 19 2178 -69 
Q 1975 -119 1719 -119 
Q 1094 -119 659 336 
Q 225 791 225 1609 
Q 225 2416 662 2919 
Q 1100 3422 1806 3422 
z
M 2703 1941 
Q 2669 2306 2544 2525 
Q 2313 2931 1772 2931 
Q 1384 2931 1121 2651 
Q 859 2372 844 1941 
L 2703 1941 
z
M 1753 3428 
L 1753 3428 
z
" transform="scale(0.015625)"/>
    </defs>
    <use xlink:href="#Helvetica-4d"/>
    <use xlink:href="#Helvetica-54" x="83.300781"/>
    <use xlink:href="#Helvetica-20" x="144.384766"/>
    <use xlink:href="#Helvetica-51" x="172.167969"/>
    <use xlink:href="#Helvetica-75" x="249.951172"/>
    <use xlink:href="#Helvetica-61" x="305.566406"/>
    <use xlink:href="#Helvetica-6c" x="361.181641"/>
    <use xlink:href="#Helvetica-69" x="383.398438"/>
    <use xlink:href="#Helvetica-74" x="405.615234"/>
    <use xlink:href="#Helvetica-79" x="433.398438"/>
    <use xlink:href="#Helvetica-20" x="483.398438"/>
    <use xlink:href="#Helvetica-53" x="511.181641"/>
    <use xlink:href="#Helvetica-63" x="577.880859"/>
    <use xlink:href="#Helvetica-6f" x="627.880859"/>
    <use xlink:href="#Helvetica-72" x="683.496094"/>
    <use xlink:href="#Helvetica-65" x="716.796875"/>
   </g>
  </g>
  <g id="text_18">
   <!-- Median Edited Quality Improvement -->
   <g transform="translate(10.96875 189.035923) rotate(-90) scale(0.1 -0.1)">
    <defs>
     <path id="Helvetica-64" d="M 769 1634 
Q 769 1097 997 734 
Q 1225 372 1728 372 
Q 2119 372 2370 708 
Q 2622 1044 2622 1672 
Q 2622 2306 2362 2611 
Q 2103 2916 1722 2916 
Q 1297 2916 1033 2591 
Q 769 2266 769 1634 
z
M 1616 3406 
Q 2000 3406 2259 3244 
Q 2409 3150 2600 2916 
L 2600 4606 
L 3141 4606 
L 3141 0 
L 2634 0 
L 2634 466 
Q 2438 156 2169 18 
Q 1900 -119 1553 -119 
Q 994 -119 584 351 
Q 175 822 175 1603 
Q 175 2334 548 2870 
Q 922 3406 1616 3406 
z
" transform="scale(0.015625)"/>
     <path id="Helvetica-6e" d="M 413 3347 
L 947 3347 
L 947 2872 
Q 1184 3166 1450 3294 
Q 1716 3422 2041 3422 
Q 2753 3422 3003 2925 
Q 3141 2653 3141 2147 
L 3141 0 
L 2569 0 
L 2569 2109 
Q 2569 2416 2478 2603 
Q 2328 2916 1934 2916 
Q 1734 2916 1606 2875 
Q 1375 2806 1200 2600 
Q 1059 2434 1017 2257 
Q 975 2081 975 1753 
L 975 0 
L 413 0 
L 413 3347 
z
M 1734 3428 
L 1734 3428 
z
" transform="scale(0.015625)"/>
     <path id="Helvetica-45" d="M 547 4591 
L 3894 4591 
L 3894 4028 
L 1153 4028 
L 1153 2634 
L 3688 2634 
L 3688 2103 
L 1153 2103 
L 1153 547 
L 3941 547 
L 3941 0 
L 547 0 
L 547 4591 
z
M 2244 4591 
L 2244 4591 
z
" transform="scale(0.015625)"/>
     <path id="Helvetica-49" d="M 628 4591 
L 1256 4591 
L 1256 0 
L 628 0 
L 628 4591 
z
" transform="scale(0.015625)"/>
     <path id="Helvetica-6d" d="M 413 3347 
L 969 3347 
L 969 2872 
Q 1169 3119 1331 3231 
Q 1609 3422 1963 3422 
Q 2363 3422 2606 3225 
Q 2744 3113 2856 2894 
Q 3044 3163 3297 3292 
Q 3550 3422 3866 3422 
Q 4541 3422 4784 2934 
Q 4916 2672 4916 2228 
L 4916 0 
L 4331 0 
L 4331 2325 
Q 4331 2659 4164 2784 
Q 3997 2909 3756 2909 
Q 3425 2909 3186 2687 
Q 2947 2466 2947 1947 
L 2947 0 
L 2375 0 
L 2375 2184 
Q 2375 2525 2294 2681 
Q 2166 2916 1816 2916 
Q 1497 2916 1236 2669 
Q 975 2422 975 1775 
L 975 0 
L 413 0 
L 413 3347 
z
" transform="scale(0.015625)"/>
     <path id="Helvetica-70" d="M 1825 378 
Q 2219 378 2480 708 
Q 2741 1038 2741 1694 
Q 2741 2094 2625 2381 
Q 2406 2934 1825 2934 
Q 1241 2934 1025 2350 
Q 909 2038 909 1556 
Q 909 1169 1025 897 
Q 1244 378 1825 378 
z
M 369 3331 
L 916 3331 
L 916 2888 
Q 1084 3116 1284 3241 
Q 1569 3428 1953 3428 
Q 2522 3428 2919 2992 
Q 3316 2556 3316 1747 
Q 3316 653 2744 184 
Q 2381 -113 1900 -113 
Q 1522 -113 1266 53 
Q 1116 147 931 375 
L 931 -1334 
L 369 -1334 
L 369 3331 
z
" transform="scale(0.015625)"/>
     <path id="Helvetica-76" d="M 688 3347 
L 1581 622 
L 2516 3347 
L 3131 3347 
L 1869 0 
L 1269 0 
L 34 3347 
L 688 3347 
z
" transform="scale(0.015625)"/>
    </defs>
    <use xlink:href="#Helvetica-4d"/>
    <use xlink:href="#Helvetica-65" x="83.300781"/>
    <use xlink:href="#Helvetica-64" x="138.916016"/>
    <use xlink:href="#Helvetica-69" x="194.53125"/>
    <use xlink:href="#Helvetica-61" x="216.748047"/>
    <use xlink:href="#Helvetica-6e" x="272.363281"/>
    <use xlink:href="#Helvetica-20" x="327.978516"/>
    <use xlink:href="#Helvetica-45" x="355.761719"/>
    <use xlink:href="#Helvetica-64" x="422.460938"/>
    <use xlink:href="#Helvetica-69" x="478.076172"/>
    <use xlink:href="#Helvetica-74" x="500.292969"/>
    <use xlink:href="#Helvetica-65" x="528.076172"/>
    <use xlink:href="#Helvetica-64" x="583.691406"/>
    <use xlink:href="#Helvetica-20" x="639.306641"/>
    <use xlink:href="#Helvetica-51" x="667.089844"/>
    <use xlink:href="#Helvetica-75" x="744.873047"/>
    <use xlink:href="#Helvetica-61" x="800.488281"/>
    <use xlink:href="#Helvetica-6c" x="856.103516"/>
    <use xlink:href="#Helvetica-69" x="878.320312"/>
    <use xlink:href="#Helvetica-74" x="900.537109"/>
    <use xlink:href="#Helvetica-79" x="928.320312"/>
    <use xlink:href="#Helvetica-20" x="978.320312"/>
    <use xlink:href="#Helvetica-49" x="1006.103516"/>
    <use xlink:href="#Helvetica-6d" x="1033.886719"/>
    <use xlink:href="#Helvetica-70" x="1117.1875"/>
    <use xlink:href="#Helvetica-72" x="1172.802734"/>
    <use xlink:href="#Helvetica-6f" x="1206.103516"/>
    <use xlink:href="#Helvetica-76" x="1261.71875"/>
    <use xlink:href="#Helvetica-65" x="1311.71875"/>
    <use xlink:href="#Helvetica-6d" x="1367.333984"/>
    <use xlink:href="#Helvetica-65" x="1450.634766"/>
    <use xlink:href="#Helvetica-6e" x="1506.25"/>
    <use xlink:href="#Helvetica-74" x="1561.865234"/>
   </g>
  </g>
  <g id="patch_6">
   <path d="M 34.179875 46.253542 
L 193.489937 46.253542 
L 193.489937 32.24 
L 34.179875 32.24 
z
" style="fill: #cccccc; stroke: #7f7f7f; stroke-linejoin: miter"/>
  </g>
  <g id="text_19">
   <!-- Biomedical -->
   <g style="fill: #1a1a1a" transform="translate(92.314781 42.403083) scale(0.088 -0.088)">
    <defs>
     <path id="Helvetica-42" d="M 2213 2650 
Q 2606 2650 2825 2759 
Q 3169 2931 3169 3378 
Q 3169 3828 2803 3984 
Q 2597 4072 2191 4072 
L 1081 4072 
L 1081 2650 
L 2213 2650 
z
M 2422 531 
Q 2994 531 3238 863 
Q 3391 1072 3391 1369 
Q 3391 1869 2944 2050 
Q 2706 2147 2316 2147 
L 1081 2147 
L 1081 531 
L 2422 531 
z
M 472 4591 
L 2444 4591 
Q 3250 4591 3591 4109 
Q 3791 3825 3791 3453 
Q 3791 3019 3544 2741 
Q 3416 2594 3175 2472 
Q 3528 2338 3703 2169 
Q 4013 1869 4013 1341 
Q 4013 897 3734 538 
Q 3319 0 2413 0 
L 472 0 
L 472 4591 
z
" transform="scale(0.015625)"/>
    </defs>
    <use xlink:href="#Helvetica-42"/>
    <use xlink:href="#Helvetica-69" x="66.699219"/>
    <use xlink:href="#Helvetica-6f" x="88.916016"/>
    <use xlink:href="#Helvetica-6d" x="144.53125"/>
    <use xlink:href="#Helvetica-65" x="227.832031"/>
    <use xlink:href="#Helvetica-64" x="283.447266"/>
    <use xlink:href="#Helvetica-69" x="339.0625"/>
    <use xlink:href="#Helvetica-63" x="361.279297"/>
    <use xlink:href="#Helvetica-61" x="411.279297"/>
    <use xlink:href="#Helvetica-6c" x="466.894531"/>
   </g>
  </g>
  <g id="patch_7">
   <path d="M 197.089937 46.253542 
L 356.4 46.253542 
L 356.4 32.24 
L 197.089937 32.24 
z
" style="fill: #cccccc; stroke: #7f7f7f; stroke-linejoin: miter"/>
  </g>
  <g id="text_20">
   <!-- Social Media -->
   <g style="fill: #1a1a1a" transform="translate(251.555656 42.403083) scale(0.088 -0.088)">
    <use xlink:href="#Helvetica-53"/>
    <use xlink:href="#Helvetica-6f" x="66.699219"/>
    <use xlink:href="#Helvetica-63" x="122.314453"/>
    <use xlink:href="#Helvetica-69" x="172.314453"/>
    <use xlink:href="#Helvetica-61" x="194.53125"/>
    <use xlink:href="#Helvetica-6c" x="250.146484"/>
    <use xlink:href="#Helvetica-20" x="272.363281"/>
    <use xlink:href="#Helvetica-4d" x="300.146484"/>
    <use xlink:href="#Helvetica-65" x="383.447266"/>
    <use xlink:href="#Helvetica-64" x="439.0625"/>
    <use xlink:href="#Helvetica-69" x="494.677734"/>
    <use xlink:href="#Helvetica-61" x="516.894531"/>
   </g>
  </g>
  <g id="patch_8">
   <path d="M 64.891437 21.44 
L 325.688438 21.44 
L 325.688438 3.6 
L 64.891437 3.6 
z
" style="fill: #ffffff"/>
  </g>
  <g id="patch_9">
   <path d="M 66.891437 19.44 
L 80.731437 19.44 
L 80.731437 5.6 
L 66.891437 5.6 
L 66.891437 19.44 
z
" clip-path="url(#pc993bf5853)" style="fill: none; stroke: #cccccc; stroke-linejoin: miter"/>
  </g>
  <g id="line2d_61">
   <path d="M 65.891437 12.52 
L 81.731437 12.52 
" clip-path="url(#pc993bf5853)" style="fill: none; stroke: #3949f5; stroke-width: 1.772454"/>
  </g>
  <g id="line2d_62">
   <path d="M 73.811437 12.52 
" clip-path="url(#pc993bf5853)" style="fill: none; stroke: #1f77b4; stroke-width: 1.5; stroke-linecap: square"/>
   <defs>
    <path id="mfa59f88c7d" d="M 0 2.215567 
C 0.587575 2.215567 1.151164 1.982121 1.566643 1.566643 
C 1.982121 1.151164 2.215567 0.587575 2.215567 0 
C 2.215567 -0.587575 1.982121 -1.151164 1.566643 -1.566643 
C 1.151164 -1.982121 0.587575 -2.215567 0 -2.215567 
C -0.587575 -2.215567 -1.151164 -1.982121 -1.566643 -1.566643 
C -1.982121 -1.151164 -2.215567 -0.587575 -2.215567 0 
C -2.215567 0.587575 -1.982121 1.151164 -1.566643 1.566643 
C -1.151164 1.982121 -0.587575 2.215567 0 2.215567 
z
" style="stroke: #3949f5; stroke-width: 0.886227"/>
   </defs>
   <g clip-path="url(#pc993bf5853)">
    <use xlink:href="#mfa59f88c7d" x="73.811437" y="12.52" style="fill: #3949f5; stroke: #3949f5; stroke-width: 0.886227"/>
   </g>
  </g>
  <g id="patch_10">
   <path d="M 65.891437 20.44 
L 81.731437 20.44 
L 81.731437 4.6 
L 65.891437 4.6 
z
" clip-path="url(#pc993bf5853)" style="fill: #3949f5; fill-opacity: 0.14902"/>
  </g>
  <g id="text_21">
   <!-- No Highlight -->
   <g transform="translate(83.171437 14.713125) scale(0.088 -0.088)">
    <defs>
     <path id="Helvetica-4e" d="M 488 4591 
L 1222 4591 
L 3541 872 
L 3541 4591 
L 4131 4591 
L 4131 0 
L 3434 0 
L 1081 3716 
L 1081 0 
L 488 0 
L 488 4591 
z
M 2269 4591 
L 2269 4591 
z
" transform="scale(0.015625)"/>
     <path id="Helvetica-48" d="M 503 4591 
L 1131 4591 
L 1131 2694 
L 3519 2694 
L 3519 4591 
L 4147 4591 
L 4147 0 
L 3519 0 
L 3519 2147 
L 1131 2147 
L 1131 0 
L 503 0 
L 503 4591 
z
" transform="scale(0.015625)"/>
     <path id="Helvetica-67" d="M 1594 3406 
Q 1988 3406 2281 3213 
Q 2441 3103 2606 2894 
L 2606 3316 
L 3125 3316 
L 3125 272 
Q 3125 -366 2938 -734 
Q 2588 -1416 1616 -1416 
Q 1075 -1416 706 -1173 
Q 338 -931 294 -416 
L 866 -416 
Q 906 -641 1028 -763 
Q 1219 -950 1628 -950 
Q 2275 -950 2475 -494 
Q 2594 -225 2584 466 
Q 2416 209 2178 84 
Q 1941 -41 1550 -41 
Q 1006 -41 598 345 
Q 191 731 191 1622 
Q 191 2463 602 2934 
Q 1013 3406 1594 3406 
z
M 2606 1688 
Q 2606 2309 2350 2609 
Q 2094 2909 1697 2909 
Q 1103 2909 884 2353 
Q 769 2056 769 1575 
Q 769 1009 998 714 
Q 1228 419 1616 419 
Q 2222 419 2469 966 
Q 2606 1275 2606 1688 
z
M 1659 3428 
L 1659 3428 
z
" transform="scale(0.015625)"/>
     <path id="Helvetica-68" d="M 413 4606 
L 975 4606 
L 975 2894 
Q 1175 3147 1334 3250 
Q 1606 3428 2013 3428 
Q 2741 3428 3000 2919 
Q 3141 2641 3141 2147 
L 3141 0 
L 2563 0 
L 2563 2109 
Q 2563 2478 2469 2650 
Q 2316 2925 1894 2925 
Q 1544 2925 1259 2684 
Q 975 2444 975 1775 
L 975 0 
L 413 0 
L 413 4606 
z
" transform="scale(0.015625)"/>
    </defs>
    <use xlink:href="#Helvetica-4e"/>
    <use xlink:href="#Helvetica-6f" x="72.216797"/>
    <use xlink:href="#Helvetica-20" x="127.832031"/>
    <use xlink:href="#Helvetica-48" x="155.615234"/>
    <use xlink:href="#Helvetica-69" x="227.832031"/>
    <use xlink:href="#Helvetica-67" x="250.048828"/>
    <use xlink:href="#Helvetica-68" x="305.664062"/>
    <use xlink:href="#Helvetica-6c" x="361.279297"/>
    <use xlink:href="#Helvetica-69" x="383.496094"/>
    <use xlink:href="#Helvetica-67" x="405.712891"/>
    <use xlink:href="#Helvetica-68" x="461.328125"/>
    <use xlink:href="#Helvetica-74" x="516.943359"/>
   </g>
  </g>
  <g id="patch_11">
   <path d="M 138.105312 19.44 
L 151.945312 19.44 
L 151.945312 5.6 
L 138.105312 5.6 
L 138.105312 19.44 
z
" clip-path="url(#pa7dd0dd162)" style="fill: none; stroke: #cccccc; stroke-linejoin: miter"/>
  </g>
  <g id="line2d_63">
   <path d="M 137.105312 12.52 
L 152.945312 12.52 
" clip-path="url(#pa7dd0dd162)" style="fill: none; stroke: #1c9a0e; stroke-width: 1.772454"/>
  </g>
  <g id="line2d_64">
   <path d="M 145.025312 12.52 
" clip-path="url(#pa7dd0dd162)" style="fill: none; stroke: #1f77b4; stroke-width: 1.5; stroke-linecap: square"/>
   <defs>
    <path id="m296163673c" d="M 0 2.215567 
C 0.587575 2.215567 1.151164 1.982121 1.566643 1.566643 
C 1.982121 1.151164 2.215567 0.587575 2.215567 0 
C 2.215567 -0.587575 1.982121 -1.151164 1.566643 -1.566643 
C 1.151164 -1.982121 0.587575 -2.215567 0 -2.215567 
C -0.587575 -2.215567 -1.151164 -1.982121 -1.566643 -1.566643 
C -1.982121 -1.151164 -2.215567 -0.587575 -2.215567 0 
C -2.215567 0.587575 -1.982121 1.151164 -1.566643 1.566643 
C -1.151164 1.982121 -0.587575 2.215567 0 2.215567 
z
" style="stroke: #1c9a0e; stroke-width: 0.886227"/>
   </defs>
   <g clip-path="url(#pa7dd0dd162)">
    <use xlink:href="#m296163673c" x="145.025312" y="12.52" style="fill: #1c9a0e; stroke: #1c9a0e; stroke-width: 0.886227"/>
   </g>
  </g>
  <g id="patch_12">
   <path d="M 137.105312 20.44 
L 152.945312 20.44 
L 152.945312 4.6 
L 137.105312 4.6 
z
" clip-path="url(#pa7dd0dd162)" style="fill: #1c9a0e; fill-opacity: 0.14902"/>
  </g>
  <g id="text_22">
   <!-- Oracle -->
   <g transform="translate(154.385312 14.759188) scale(0.088 -0.088)">
    <defs>
     <path id="Helvetica-4f" d="M 2469 4716 
Q 3684 4716 4269 3934 
Q 4725 3325 4725 2375 
Q 4725 1347 4203 666 
Q 3591 -134 2456 -134 
Q 1397 -134 791 566 
Q 250 1241 250 2272 
Q 250 3203 713 3866 
Q 1306 4716 2469 4716 
z
M 2531 422 
Q 3353 422 3720 1011 
Q 4088 1600 4088 2366 
Q 4088 3175 3664 3669 
Q 3241 4163 2506 4163 
Q 1794 4163 1344 3673 
Q 894 3184 894 2231 
Q 894 1469 1280 945 
Q 1666 422 2531 422 
z
M 2488 4716 
L 2488 4716 
z
" transform="scale(0.015625)"/>
    </defs>
    <use xlink:href="#Helvetica-4f"/>
    <use xlink:href="#Helvetica-72" x="77.783203"/>
    <use xlink:href="#Helvetica-61" x="111.083984"/>
    <use xlink:href="#Helvetica-63" x="166.699219"/>
    <use xlink:href="#Helvetica-6c" x="216.699219"/>
    <use xlink:href="#Helvetica-65" x="238.916016"/>
   </g>
  </g>
  <g id="patch_13">
   <path d="M 187.302687 19.44 
L 201.142687 19.44 
L 201.142687 5.6 
L 187.302687 5.6 
L 187.302687 19.44 
z
" clip-path="url(#p80267d1cc4)" style="fill: none; stroke: #cccccc; stroke-linejoin: miter"/>
  </g>
  <g id="line2d_65">
   <path d="M 186.302687 12.52 
L 202.142687 12.52 
" clip-path="url(#p80267d1cc4)" style="fill: none; stroke: #e6950a; stroke-width: 1.772454"/>
  </g>
  <g id="line2d_66">
   <path d="M 194.222687 12.52 
" clip-path="url(#p80267d1cc4)" style="fill: none; stroke: #1f77b4; stroke-width: 1.5; stroke-linecap: square"/>
   <defs>
    <path id="m2604972850" d="M 0 2.215567 
C 0.587575 2.215567 1.151164 1.982121 1.566643 1.566643 
C 1.982121 1.151164 2.215567 0.587575 2.215567 0 
C 2.215567 -0.587575 1.982121 -1.151164 1.566643 -1.566643 
C 1.151164 -1.982121 0.587575 -2.215567 0 -2.215567 
C -0.587575 -2.215567 -1.151164 -1.982121 -1.566643 -1.566643 
C -1.982121 -1.151164 -2.215567 -0.587575 -2.215567 0 
C -2.215567 0.587575 -1.982121 1.151164 -1.566643 1.566643 
C -1.151164 1.982121 -0.587575 2.215567 0 2.215567 
z
" style="stroke: #e6950a; stroke-width: 0.886227"/>
   </defs>
   <g clip-path="url(#p80267d1cc4)">
    <use xlink:href="#m2604972850" x="194.222687" y="12.52" style="fill: #e6950a; stroke: #e6950a; stroke-width: 0.886227"/>
   </g>
  </g>
  <g id="patch_14">
   <path d="M 186.302687 20.44 
L 202.142687 20.44 
L 202.142687 4.6 
L 186.302687 4.6 
z
" clip-path="url(#p80267d1cc4)" style="fill: #e6950a; fill-opacity: 0.14902"/>
  </g>
  <g id="text_23">
   <!-- Unsupervised -->
   <g transform="translate(203.582688 14.7695) scale(0.088 -0.088)">
    <defs>
     <path id="Helvetica-55" d="M 1163 4591 
L 1163 1753 
Q 1163 1253 1350 922 
Q 1628 422 2288 422 
Q 3078 422 3363 963 
Q 3516 1256 3516 1753 
L 3516 4591 
L 4147 4591 
L 4147 2013 
Q 4147 1166 3919 709 
Q 3500 -122 2338 -122 
Q 1175 -122 759 709 
Q 531 1166 531 2013 
L 531 4591 
L 1163 4591 
z
M 2341 4591 
L 2341 4591 
z
" transform="scale(0.015625)"/>
     <path id="Helvetica-73" d="M 747 1050 
Q 772 769 888 619 
Q 1100 347 1625 347 
Q 1938 347 2175 483 
Q 2413 619 2413 903 
Q 2413 1119 2222 1231 
Q 2100 1300 1741 1391 
L 1294 1503 
Q 866 1609 663 1741 
Q 300 1969 300 2372 
Q 300 2847 642 3140 
Q 984 3434 1563 3434 
Q 2319 3434 2653 2991 
Q 2863 2709 2856 2384 
L 2325 2384 
Q 2309 2575 2191 2731 
Q 1997 2953 1519 2953 
Q 1200 2953 1036 2831 
Q 872 2709 872 2509 
Q 872 2291 1088 2159 
Q 1213 2081 1456 2022 
L 1828 1931 
Q 2434 1784 2641 1647 
Q 2969 1431 2969 969 
Q 2969 522 2630 197 
Q 2291 -128 1597 -128 
Q 850 -128 539 211 
Q 228 550 206 1050 
L 747 1050 
z
M 1578 3428 
L 1578 3428 
z
" transform="scale(0.015625)"/>
    </defs>
    <use xlink:href="#Helvetica-55"/>
    <use xlink:href="#Helvetica-6e" x="72.216797"/>
    <use xlink:href="#Helvetica-73" x="127.832031"/>
    <use xlink:href="#Helvetica-75" x="177.832031"/>
    <use xlink:href="#Helvetica-70" x="233.447266"/>
    <use xlink:href="#Helvetica-65" x="289.0625"/>
    <use xlink:href="#Helvetica-72" x="344.677734"/>
    <use xlink:href="#Helvetica-76" x="377.978516"/>
    <use xlink:href="#Helvetica-69" x="427.978516"/>
    <use xlink:href="#Helvetica-73" x="450.195312"/>
    <use xlink:href="#Helvetica-65" x="500.195312"/>
    <use xlink:href="#Helvetica-64" x="555.810547"/>
   </g>
  </g>
  <g id="patch_15">
   <path d="M 264.385063 19.44 
L 278.225062 19.44 
L 278.225062 5.6 
L 264.385063 5.6 
L 264.385063 19.44 
z
" clip-path="url(#pd14ded39be)" style="fill: none; stroke: #cccccc; stroke-linejoin: miter"/>
  </g>
  <g id="line2d_67">
   <path d="M 263.385063 12.52 
L 279.225062 12.52 
" clip-path="url(#pd14ded39be)" style="fill: none; stroke: #dc0d97; stroke-width: 1.772454"/>
  </g>
  <g id="line2d_68">
   <path d="M 271.305063 12.52 
" clip-path="url(#pd14ded39be)" style="fill: none; stroke: #1f77b4; stroke-width: 1.5; stroke-linecap: square"/>
   <defs>
    <path id="mfde7b80c7e" d="M 0 2.215567 
C 0.587575 2.215567 1.151164 1.982121 1.566643 1.566643 
C 1.982121 1.151164 2.215567 0.587575 2.215567 0 
C 2.215567 -0.587575 1.982121 -1.151164 1.566643 -1.566643 
C 1.151164 -1.982121 0.587575 -2.215567 0 -2.215567 
C -0.587575 -2.215567 -1.151164 -1.982121 -1.566643 -1.566643 
C -1.982121 -1.151164 -2.215567 -0.587575 -2.215567 0 
C -2.215567 0.587575 -1.982121 1.151164 -1.566643 1.566643 
C -1.151164 1.982121 -0.587575 2.215567 0 2.215567 
z
" style="stroke: #dc0d97; stroke-width: 0.886227"/>
   </defs>
   <g clip-path="url(#pd14ded39be)">
    <use xlink:href="#mfde7b80c7e" x="271.305063" y="12.52" style="fill: #dc0d97; stroke: #dc0d97; stroke-width: 0.886227"/>
   </g>
  </g>
  <g id="patch_16">
   <path d="M 263.385063 20.44 
L 279.225062 20.44 
L 279.225062 4.6 
L 263.385063 4.6 
z
" clip-path="url(#pd14ded39be)" style="fill: #dc0d97; fill-opacity: 0.14902"/>
  </g>
  <g id="text_24">
   <!-- Supervised -->
   <g transform="translate(280.665063 14.845125) scale(0.088 -0.088)">
    <use xlink:href="#Helvetica-53"/>
    <use xlink:href="#Helvetica-75" x="66.699219"/>
    <use xlink:href="#Helvetica-70" x="122.314453"/>
    <use xlink:href="#Helvetica-65" x="177.929688"/>
    <use xlink:href="#Helvetica-72" x="233.544922"/>
    <use xlink:href="#Helvetica-76" x="266.845703"/>
    <use xlink:href="#Helvetica-69" x="316.845703"/>
    <use xlink:href="#Helvetica-73" x="339.0625"/>
    <use xlink:href="#Helvetica-65" x="389.0625"/>
    <use xlink:href="#Helvetica-64" x="444.677734"/>
   </g>
  </g>
 </g>
 <defs>
  <clipPath id="p4080e73dfa">
   <rect x="34.179875" y="46.253542" width="159.310062" height="126.610075"/>
  </clipPath>
  <clipPath id="p8a8238001c">
   <rect x="197.089937" y="46.253542" width="159.310062" height="126.610075"/>
  </clipPath>
  <clipPath id="pc993bf5853">
   <path d="M 65.891437 20.44 
L 65.891437 4.6 
L 81.731437 4.6 
L 81.731437 20.44 
"/>
  </clipPath>
  <clipPath id="pa7dd0dd162">
   <path d="M 137.105312 20.44 
L 137.105312 4.6 
L 152.945312 4.6 
L 152.945312 20.44 
"/>
  </clipPath>
  <clipPath id="p80267d1cc4">
   <path d="M 186.302687 20.44 
L 186.302687 4.6 
L 202.142687 4.6 
L 202.142687 20.44 
"/>
  </clipPath>
  <clipPath id="pd14ded39be">
   <path d="M 263.385063 20.44 
L 263.385063 4.6 
L 279.225062 4.6 
L 279.225062 20.44 
"/>
  </clipPath>
 </defs>
</svg>
