<?xml version="1.0" encoding="utf-8" standalone="no"?>
<!DOCTYPE svg PUBLIC "-//W3C//DTD SVG 1.1//EN"
  "http://www.w3.org/Graphics/SVG/1.1/DTD/svg11.dtd">
<svg xmlns:xlink="http://www.w3.org/1999/xlink" width="360pt" height="216pt" viewBox="0 0 360 216" xmlns="http://www.w3.org/2000/svg" version="1.1">
 <metadata>
  <rdf:RDF xmlns:dc="http://purl.org/dc/elements/1.1/" xmlns:cc="http://creativecommons.org/ns#" xmlns:rdf="http://www.w3.org/1999/02/22-rdf-syntax-ns#">
   <cc:Work>
    <dc:type rdf:resource="http://purl.org/dc/dcmitype/StillImage"/>
    <dc:date>2025-02-18T18:01:04.226438</dc:date>
    <dc:format>image/svg+xml</dc:format>
    <dc:creator>
     <cc:Agent>
      <dc:title>Matplotlib v3.8.2, https://matplotlib.org/</dc:title>
     </cc:Agent>
    </dc:creator>
   </cc:Work>
  </rdf:RDF>
 </metadata>
 <defs>
  <style type="text/css">*{stroke-linejoin: round; stroke-linecap: butt}</style>
 </defs>
 <g id="figure_1">
  <g id="patch_1">
   <path d="M 0 216 
L 360 216 
L 360 0 
L 0 0 
z
" style="fill: #ffffff; stroke: #ffffff; stroke-linejoin: miter"/>
  </g>
  <g id="axes_1">
   <g id="patch_2">
    <path d="M 31.24975 172.863616 
L 192.024875 172.863616 
L 192.024875 59.111354 
L 31.24975 59.111354 
z
" style="fill: #ffffff"/>
   </g>
   <g id="matplotlib.axis_1">
    <g id="xtick_1">
     <g id="line2d_1">
      <path d="M 38.55771 172.863616 
L 38.55771 59.111354 
" clip-path="url(#p5d763f9a6d)" style="fill: none; stroke: #e5e5e5; stroke-linecap: square"/>
     </g>
     <g id="line2d_2">
      <path d="M 38.55771 172.863616 
" style="fill: none; stroke: #333333; stroke-width: 1.5; stroke-linecap: square"/>
      <defs>
       <path id="m526f717b94" d="M 0 0 
L 0 2.75 
" style="stroke: #333333"/>
      </defs>
      <g>
       <use xlink:href="#m526f717b94" x="38.55771" y="172.863616" style="fill: #333333; stroke: #333333"/>
      </g>
     </g>
     <g id="text_1">
      <!-- &lt; 75 -->
      <g style="fill: #4d4d4d" transform="translate(24.977017 194.360999) rotate(-45) scale(0.088 -0.088)">
       <defs>
        <path id="Helvetica-3c" d="M 88 1894 
L 3741 3325 
L 3741 2763 
L 753 1634 
L 3741 503 
L 3741 -59 
L 88 1375 
L 88 1894 
z
" transform="scale(0.015625)"/>
        <path id="Helvetica-20" transform="scale(0.015625)"/>
        <path id="Helvetica-37" d="M 3347 4400 
L 3347 3909 
Q 3131 3700 2773 3181 
Q 2416 2663 2141 2063 
Q 1869 1478 1728 997 
Q 1638 688 1494 0 
L 872 0 
Q 1084 1281 1809 2550 
Q 2238 3294 2709 3834 
L 234 3834 
L 234 4400 
L 3347 4400 
z
" transform="scale(0.015625)"/>
        <path id="Helvetica-35" d="M 791 1141 
Q 847 659 1238 475 
Q 1438 381 1700 381 
Q 2200 381 2440 700 
Q 2681 1019 2681 1406 
Q 2681 1875 2395 2131 
Q 2109 2388 1709 2388 
Q 1419 2388 1211 2275 
Q 1003 2163 856 1963 
L 369 1991 
L 709 4400 
L 3034 4400 
L 3034 3856 
L 1131 3856 
L 941 2613 
Q 1097 2731 1238 2791 
Q 1488 2894 1816 2894 
Q 2431 2894 2859 2497 
Q 3288 2100 3288 1491 
Q 3288 856 2895 371 
Q 2503 -113 1644 -113 
Q 1097 -113 676 195 
Q 256 503 206 1141 
L 791 1141 
z
" transform="scale(0.015625)"/>
       </defs>
       <use xlink:href="#Helvetica-3c"/>
       <use xlink:href="#Helvetica-20" x="58.398438"/>
       <use xlink:href="#Helvetica-37" x="86.181641"/>
       <use xlink:href="#Helvetica-35" x="141.796875"/>
      </g>
     </g>
    </g>
    <g id="xtick_2">
     <g id="line2d_3">
      <path d="M 67.789551 172.863616 
L 67.789551 59.111354 
" clip-path="url(#p5d763f9a6d)" style="fill: none; stroke: #e5e5e5; stroke-linecap: square"/>
     </g>
     <g id="line2d_4">
      <path d="M 67.789551 172.863616 
" style="fill: none; stroke: #333333; stroke-width: 1.5; stroke-linecap: square"/>
      <g>
       <use xlink:href="#m526f717b94" x="67.789551" y="172.863616" style="fill: #333333; stroke: #333333"/>
      </g>
     </g>
     <g id="text_2">
      <!-- 75-80 -->
      <g style="fill: #4d4d4d" transform="translate(50.579368 197.990489) rotate(-45) scale(0.088 -0.088)">
       <defs>
        <path id="Helvetica-2d" d="M 266 2072 
L 1834 2072 
L 1834 1494 
L 266 1494 
L 266 2072 
z
" transform="scale(0.015625)"/>
        <path id="Helvetica-38" d="M 1741 2600 
Q 2113 2600 2322 2808 
Q 2531 3016 2531 3303 
Q 2531 3553 2331 3762 
Q 2131 3972 1722 3972 
Q 1316 3972 1134 3762 
Q 953 3553 953 3272 
Q 953 2956 1187 2778 
Q 1422 2600 1741 2600 
z
M 1775 384 
Q 2166 384 2423 595 
Q 2681 806 2681 1225 
Q 2681 1659 2415 1884 
Q 2150 2109 1734 2109 
Q 1331 2109 1076 1879 
Q 822 1650 822 1244 
Q 822 894 1055 639 
Q 1288 384 1775 384 
z
M 975 2384 
Q 741 2484 609 2619 
Q 363 2869 363 3269 
Q 363 3769 725 4128 
Q 1088 4488 1753 4488 
Q 2397 4488 2762 4148 
Q 3128 3809 3128 3356 
Q 3128 2938 2916 2678 
Q 2797 2531 2547 2391 
Q 2825 2263 2984 2097 
Q 3281 1784 3281 1284 
Q 3281 694 2884 283 
Q 2488 -128 1763 -128 
Q 1109 -128 657 226 
Q 206 581 206 1256 
Q 206 1653 400 1942 
Q 594 2231 975 2384 
z
" transform="scale(0.015625)"/>
        <path id="Helvetica-30" d="M 1731 4475 
Q 2600 4475 2988 3759 
Q 3288 3206 3288 2244 
Q 3288 1331 3016 734 
Q 2622 -122 1728 -122 
Q 922 -122 528 578 
Q 200 1163 200 2147 
Q 200 2909 397 3456 
Q 766 4475 1731 4475 
z
M 1725 391 
Q 2163 391 2422 778 
Q 2681 1166 2681 2222 
Q 2681 2984 2493 3476 
Q 2306 3969 1766 3969 
Q 1269 3969 1039 3501 
Q 809 3034 809 2125 
Q 809 1441 956 1025 
Q 1181 391 1725 391 
z
" transform="scale(0.015625)"/>
       </defs>
       <use xlink:href="#Helvetica-37"/>
       <use xlink:href="#Helvetica-35" x="55.615234"/>
       <use xlink:href="#Helvetica-2d" x="111.230469"/>
       <use xlink:href="#Helvetica-38" x="144.53125"/>
       <use xlink:href="#Helvetica-30" x="200.146484"/>
      </g>
     </g>
    </g>
    <g id="xtick_3">
     <g id="line2d_5">
      <path d="M 97.021392 172.863616 
L 97.021392 59.111354 
" clip-path="url(#p5d763f9a6d)" style="fill: none; stroke: #e5e5e5; stroke-linecap: square"/>
     </g>
     <g id="line2d_6">
      <path d="M 97.021392 172.863616 
" style="fill: none; stroke: #333333; stroke-width: 1.5; stroke-linecap: square"/>
      <g>
       <use xlink:href="#m526f717b94" x="97.021392" y="172.863616" style="fill: #333333; stroke: #333333"/>
      </g>
     </g>
     <g id="text_3">
      <!-- 80-85 -->
      <g style="fill: #4d4d4d" transform="translate(79.811208 197.990489) rotate(-45) scale(0.088 -0.088)">
       <use xlink:href="#Helvetica-38"/>
       <use xlink:href="#Helvetica-30" x="55.615234"/>
       <use xlink:href="#Helvetica-2d" x="111.230469"/>
       <use xlink:href="#Helvetica-38" x="144.53125"/>
       <use xlink:href="#Helvetica-35" x="200.146484"/>
      </g>
     </g>
    </g>
    <g id="xtick_4">
     <g id="line2d_7">
      <path d="M 126.253233 172.863616 
L 126.253233 59.111354 
" clip-path="url(#p5d763f9a6d)" style="fill: none; stroke: #e5e5e5; stroke-linecap: square"/>
     </g>
     <g id="line2d_8">
      <path d="M 126.253233 172.863616 
" style="fill: none; stroke: #333333; stroke-width: 1.5; stroke-linecap: square"/>
      <g>
       <use xlink:href="#m526f717b94" x="126.253233" y="172.863616" style="fill: #333333; stroke: #333333"/>
      </g>
     </g>
     <g id="text_4">
      <!-- 85-90 -->
      <g style="fill: #4d4d4d" transform="translate(109.043049 197.990489) rotate(-45) scale(0.088 -0.088)">
       <defs>
        <path id="Helvetica-39" d="M 850 1081 
Q 875 616 1209 438 
Q 1381 344 1597 344 
Q 2000 344 2284 680 
Q 2569 1016 2688 2044 
Q 2500 1747 2223 1626 
Q 1947 1506 1628 1506 
Q 981 1506 604 1909 
Q 228 2313 228 2947 
Q 228 3556 600 4018 
Q 972 4481 1697 4481 
Q 2675 4481 3047 3600 
Q 3253 3116 3253 2388 
Q 3253 1566 3006 931 
Q 2597 -125 1619 -125 
Q 963 -125 622 219 
Q 281 563 281 1081 
L 850 1081 
z
M 1703 2000 
Q 2038 2000 2314 2220 
Q 2591 2441 2591 2991 
Q 2591 3484 2342 3726 
Q 2094 3969 1709 3969 
Q 1297 3969 1055 3692 
Q 813 3416 813 2953 
Q 813 2516 1025 2258 
Q 1238 2000 1703 2000 
z
" transform="scale(0.015625)"/>
       </defs>
       <use xlink:href="#Helvetica-38"/>
       <use xlink:href="#Helvetica-35" x="55.615234"/>
       <use xlink:href="#Helvetica-2d" x="111.230469"/>
       <use xlink:href="#Helvetica-39" x="144.53125"/>
       <use xlink:href="#Helvetica-30" x="200.146484"/>
      </g>
     </g>
    </g>
    <g id="xtick_5">
     <g id="line2d_9">
      <path d="M 155.485074 172.863616 
L 155.485074 59.111354 
" clip-path="url(#p5d763f9a6d)" style="fill: none; stroke: #e5e5e5; stroke-linecap: square"/>
     </g>
     <g id="line2d_10">
      <path d="M 155.485074 172.863616 
" style="fill: none; stroke: #333333; stroke-width: 1.5; stroke-linecap: square"/>
      <g>
       <use xlink:href="#m526f717b94" x="155.485074" y="172.863616" style="fill: #333333; stroke: #333333"/>
      </g>
     </g>
     <g id="text_5">
      <!-- 90-95 -->
      <g style="fill: #4d4d4d" transform="translate(138.27489 197.990489) rotate(-45) scale(0.088 -0.088)">
       <use xlink:href="#Helvetica-39"/>
       <use xlink:href="#Helvetica-30" x="55.615234"/>
       <use xlink:href="#Helvetica-2d" x="111.230469"/>
       <use xlink:href="#Helvetica-39" x="144.53125"/>
       <use xlink:href="#Helvetica-35" x="200.146484"/>
      </g>
     </g>
    </g>
    <g id="xtick_6">
     <g id="line2d_11">
      <path d="M 184.716915 172.863616 
L 184.716915 59.111354 
" clip-path="url(#p5d763f9a6d)" style="fill: none; stroke: #e5e5e5; stroke-linecap: square"/>
     </g>
     <g id="line2d_12">
      <path d="M 184.716915 172.863616 
" style="fill: none; stroke: #333333; stroke-width: 1.5; stroke-linecap: square"/>
      <g>
       <use xlink:href="#m526f717b94" x="184.716915" y="172.863616" style="fill: #333333; stroke: #333333"/>
      </g>
     </g>
     <g id="text_6">
      <!-- &gt; 95 -->
      <g style="fill: #4d4d4d" transform="translate(171.136222 194.360999) rotate(-45) scale(0.088 -0.088)">
       <defs>
        <path id="Helvetica-3e" d="M 3741 1369 
L 88 -59 
L 88 503 
L 3072 1634 
L 88 2763 
L 88 3325 
L 3741 1894 
L 3741 1369 
z
" transform="scale(0.015625)"/>
       </defs>
       <use xlink:href="#Helvetica-3e"/>
       <use xlink:href="#Helvetica-20" x="58.398438"/>
       <use xlink:href="#Helvetica-39" x="86.181641"/>
       <use xlink:href="#Helvetica-35" x="141.796875"/>
      </g>
     </g>
    </g>
    <g id="xtick_7"/>
    <g id="xtick_8"/>
    <g id="xtick_9"/>
    <g id="xtick_10"/>
    <g id="xtick_11"/>
   </g>
   <g id="matplotlib.axis_2">
    <g id="ytick_1">
     <g id="line2d_13">
      <path d="M 31.24975 156.74068 
L 192.024875 156.74068 
" clip-path="url(#p5d763f9a6d)" style="fill: none; stroke: #e5e5e5; stroke-linecap: square"/>
     </g>
     <g id="line2d_14">
      <path d="M 31.24975 156.74068 
" style="fill: none; stroke: #333333; stroke-width: 1.5; stroke-linecap: square"/>
      <defs>
       <path id="m3d8c99c6b5" d="M 0 0 
L -2.75 0 
" style="stroke: #333333"/>
      </defs>
      <g>
       <use xlink:href="#m3d8c99c6b5" x="31.24975" y="156.74068" style="fill: #333333; stroke: #333333"/>
      </g>
     </g>
     <g id="text_7">
      <!-- 0 -->
      <g style="fill: #4d4d4d" transform="translate(21.606125 159.896992) scale(0.088 -0.088)">
       <use xlink:href="#Helvetica-30"/>
      </g>
     </g>
    </g>
    <g id="ytick_2">
     <g id="line2d_15">
      <path d="M 31.24975 137.152748 
L 192.024875 137.152748 
" clip-path="url(#p5d763f9a6d)" style="fill: none; stroke: #e5e5e5; stroke-linecap: square"/>
     </g>
     <g id="line2d_16">
      <path d="M 31.24975 137.152748 
" style="fill: none; stroke: #333333; stroke-width: 1.5; stroke-linecap: square"/>
      <g>
       <use xlink:href="#m3d8c99c6b5" x="31.24975" y="137.152748" style="fill: #333333; stroke: #333333"/>
      </g>
     </g>
     <g id="text_8">
      <!-- 5 -->
      <g style="fill: #4d4d4d" transform="translate(21.606125 140.309061) scale(0.088 -0.088)">
       <use xlink:href="#Helvetica-35"/>
      </g>
     </g>
    </g>
    <g id="ytick_3">
     <g id="line2d_17">
      <path d="M 31.24975 117.564817 
L 192.024875 117.564817 
" clip-path="url(#p5d763f9a6d)" style="fill: none; stroke: #e5e5e5; stroke-linecap: square"/>
     </g>
     <g id="line2d_18">
      <path d="M 31.24975 117.564817 
" style="fill: none; stroke: #333333; stroke-width: 1.5; stroke-linecap: square"/>
      <g>
       <use xlink:href="#m3d8c99c6b5" x="31.24975" y="117.564817" style="fill: #333333; stroke: #333333"/>
      </g>
     </g>
     <g id="text_9">
      <!-- 10 -->
      <g style="fill: #4d4d4d" transform="translate(16.7125 120.72113) scale(0.088 -0.088)">
       <defs>
        <path id="Helvetica-31" d="M 613 3169 
L 613 3600 
Q 1222 3659 1462 3798 
Q 1703 3938 1822 4456 
L 2266 4456 
L 2266 0 
L 1666 0 
L 1666 3169 
L 613 3169 
z
" transform="scale(0.015625)"/>
       </defs>
       <use xlink:href="#Helvetica-31"/>
       <use xlink:href="#Helvetica-30" x="55.615234"/>
      </g>
     </g>
    </g>
    <g id="ytick_4">
     <g id="line2d_19">
      <path d="M 31.24975 97.976886 
L 192.024875 97.976886 
" clip-path="url(#p5d763f9a6d)" style="fill: none; stroke: #e5e5e5; stroke-linecap: square"/>
     </g>
     <g id="line2d_20">
      <path d="M 31.24975 97.976886 
" style="fill: none; stroke: #333333; stroke-width: 1.5; stroke-linecap: square"/>
      <g>
       <use xlink:href="#m3d8c99c6b5" x="31.24975" y="97.976886" style="fill: #333333; stroke: #333333"/>
      </g>
     </g>
     <g id="text_10">
      <!-- 15 -->
      <g style="fill: #4d4d4d" transform="translate(16.7125 101.133198) scale(0.088 -0.088)">
       <use xlink:href="#Helvetica-31"/>
       <use xlink:href="#Helvetica-35" x="55.615234"/>
      </g>
     </g>
    </g>
    <g id="ytick_5">
     <g id="line2d_21">
      <path d="M 31.24975 78.388955 
L 192.024875 78.388955 
" clip-path="url(#p5d763f9a6d)" style="fill: none; stroke: #e5e5e5; stroke-linecap: square"/>
     </g>
     <g id="line2d_22">
      <path d="M 31.24975 78.388955 
" style="fill: none; stroke: #333333; stroke-width: 1.5; stroke-linecap: square"/>
      <g>
       <use xlink:href="#m3d8c99c6b5" x="31.24975" y="78.388955" style="fill: #333333; stroke: #333333"/>
      </g>
     </g>
     <g id="text_11">
      <!-- 20 -->
      <g style="fill: #4d4d4d" transform="translate(16.7125 81.545267) scale(0.088 -0.088)">
       <defs>
        <path id="Helvetica-32" d="M 200 0 
Q 231 578 439 1006 
Q 647 1434 1250 1784 
L 1850 2131 
Q 2253 2366 2416 2531 
Q 2672 2791 2672 3125 
Q 2672 3516 2437 3745 
Q 2203 3975 1813 3975 
Q 1234 3975 1013 3538 
Q 894 3303 881 2888 
L 309 2888 
Q 319 3472 525 3841 
Q 891 4491 1816 4491 
Q 2584 4491 2939 4075 
Q 3294 3659 3294 3150 
Q 3294 2613 2916 2231 
Q 2697 2009 2131 1694 
L 1703 1456 
Q 1397 1288 1222 1134 
Q 909 863 828 531 
L 3272 531 
L 3272 0 
L 200 0 
z
" transform="scale(0.015625)"/>
       </defs>
       <use xlink:href="#Helvetica-32"/>
       <use xlink:href="#Helvetica-30" x="55.615234"/>
      </g>
     </g>
    </g>
    <g id="ytick_6"/>
    <g id="ytick_7"/>
    <g id="ytick_8"/>
    <g id="ytick_9"/>
    <g id="ytick_10"/>
    <g id="ytick_11"/>
   </g>
   <g id="line2d_23">
    <path d="M 38.55771 154.781887 
L 67.789551 141.070335 
L 97.021392 152.823093 
L 126.253233 156.74068 
L 155.485074 156.74068 
L 184.716915 156.74068 
" clip-path="url(#p5d763f9a6d)" style="fill: none; stroke: #3949f5; stroke-width: 1.772454"/>
   </g>
   <g id="line2d_24">
    <path d="M 38.55771 133.235162 
L 67.789551 148.905507 
L 97.021392 144.987921 
L 126.253233 141.070335 
L 155.485074 156.74068 
L 184.716915 156.74068 
" clip-path="url(#p5d763f9a6d)" style="fill: none; stroke: #1c9a0e; stroke-width: 1.772454"/>
   </g>
   <g id="line2d_25">
    <path d="M 38.55771 133.235162 
L 67.789551 152.823093 
L 97.021392 148.905507 
L 126.253233 152.823093 
L 155.485074 156.74068 
L 184.716915 156.74068 
" clip-path="url(#p5d763f9a6d)" style="fill: none; stroke: #e6950a; stroke-width: 1.772454"/>
   </g>
   <g id="line2d_26">
    <path d="M 38.55771 129.317576 
L 67.789551 150.8643 
L 97.021392 144.987921 
L 126.253233 141.070335 
L 155.485074 152.823093 
L 184.716915 156.74068 
" clip-path="url(#p5d763f9a6d)" style="fill: none; stroke: #dc0d97; stroke-width: 1.772454"/>
   </g>
   <g id="PathCollection_1">
    <path d="M 38.55771 156.997454 
C 39.145286 156.997454 39.708874 156.764008 40.124353 156.348529 
C 40.539831 155.933051 40.773278 155.369462 40.773278 154.781887 
C 40.773278 154.194311 40.539831 153.630722 40.124353 153.215244 
C 39.708874 152.799765 39.145286 152.566319 38.55771 152.566319 
C 37.970135 152.566319 37.406546 152.799765 36.991068 153.215244 
C 36.575589 153.630722 36.342143 154.194311 36.342143 154.781887 
C 36.342143 155.369462 36.575589 155.933051 36.991068 156.348529 
C 37.406546 156.764008 37.970135 156.997454 38.55771 156.997454 
z
" clip-path="url(#p5d763f9a6d)" style="fill: #3949f5; stroke: #3949f5; stroke-width: 0.886227"/>
    <path d="M 38.55771 135.450729 
C 39.145286 135.450729 39.708874 135.217283 40.124353 134.801805 
C 40.539831 134.386326 40.773278 133.822737 40.773278 133.235162 
C 40.773278 132.647587 40.539831 132.083998 40.124353 131.668519 
C 39.708874 131.253041 39.145286 131.019595 38.55771 131.019595 
C 37.970135 131.019595 37.406546 131.253041 36.991068 131.668519 
C 36.575589 132.083998 36.342143 132.647587 36.342143 133.235162 
C 36.342143 133.822737 36.575589 134.386326 36.991068 134.801805 
C 37.406546 135.217283 37.970135 135.450729 38.55771 135.450729 
z
" clip-path="url(#p5d763f9a6d)" style="fill: #1c9a0e; stroke: #1c9a0e; stroke-width: 0.886227"/>
    <path d="M 38.55771 131.533143 
C 39.145286 131.533143 39.708874 131.299697 40.124353 130.884219 
C 40.539831 130.46874 40.773278 129.905151 40.773278 129.317576 
C 40.773278 128.730001 40.539831 128.166412 40.124353 127.750933 
C 39.708874 127.335455 39.145286 127.102009 38.55771 127.102009 
C 37.970135 127.102009 37.406546 127.335455 36.991068 127.750933 
C 36.575589 128.166412 36.342143 128.730001 36.342143 129.317576 
C 36.342143 129.905151 36.575589 130.46874 36.991068 130.884219 
C 37.406546 131.299697 37.970135 131.533143 38.55771 131.533143 
z
" clip-path="url(#p5d763f9a6d)" style="fill: #dc0d97; stroke: #dc0d97; stroke-width: 0.886227"/>
    <path d="M 38.55771 135.450729 
C 39.145286 135.450729 39.708874 135.217283 40.124353 134.801805 
C 40.539831 134.386326 40.773278 133.822737 40.773278 133.235162 
C 40.773278 132.647587 40.539831 132.083998 40.124353 131.668519 
C 39.708874 131.253041 39.145286 131.019595 38.55771 131.019595 
C 37.970135 131.019595 37.406546 131.253041 36.991068 131.668519 
C 36.575589 132.083998 36.342143 132.647587 36.342143 133.235162 
C 36.342143 133.822737 36.575589 134.386326 36.991068 134.801805 
C 37.406546 135.217283 37.970135 135.450729 38.55771 135.450729 
z
" clip-path="url(#p5d763f9a6d)" style="fill: #e6950a; stroke: #e6950a; stroke-width: 0.886227"/>
    <path d="M 67.789551 143.285902 
C 68.377126 143.285902 68.940715 143.052456 69.356194 142.636977 
C 69.771672 142.221499 70.005118 141.65791 70.005118 141.070335 
C 70.005118 140.482759 69.771672 139.91917 69.356194 139.503692 
C 68.940715 139.088213 68.377126 138.854767 67.789551 138.854767 
C 67.201976 138.854767 66.638387 139.088213 66.222908 139.503692 
C 65.80743 139.91917 65.573984 140.482759 65.573984 141.070335 
C 65.573984 141.65791 65.80743 142.221499 66.222908 142.636977 
C 66.638387 143.052456 67.201976 143.285902 67.789551 143.285902 
z
" clip-path="url(#p5d763f9a6d)" style="fill: #3949f5; stroke: #3949f5; stroke-width: 0.886227"/>
    <path d="M 67.789551 151.121074 
C 68.377126 151.121074 68.940715 150.887628 69.356194 150.47215 
C 69.771672 150.056671 70.005118 149.493082 70.005118 148.905507 
C 70.005118 148.317932 69.771672 147.754343 69.356194 147.338864 
C 68.940715 146.923386 68.377126 146.68994 67.789551 146.68994 
C 67.201976 146.68994 66.638387 146.923386 66.222908 147.338864 
C 65.80743 147.754343 65.573984 148.317932 65.573984 148.905507 
C 65.573984 149.493082 65.80743 150.056671 66.222908 150.47215 
C 66.638387 150.887628 67.201976 151.121074 67.789551 151.121074 
z
" clip-path="url(#p5d763f9a6d)" style="fill: #1c9a0e; stroke: #1c9a0e; stroke-width: 0.886227"/>
    <path d="M 67.789551 153.079868 
C 68.377126 153.079868 68.940715 152.846421 69.356194 152.430943 
C 69.771672 152.015464 70.005118 151.451876 70.005118 150.8643 
C 70.005118 150.276725 69.771672 149.713136 69.356194 149.297658 
C 68.940715 148.882179 68.377126 148.648733 67.789551 148.648733 
C 67.201976 148.648733 66.638387 148.882179 66.222908 149.297658 
C 65.80743 149.713136 65.573984 150.276725 65.573984 150.8643 
C 65.573984 151.451876 65.80743 152.015464 66.222908 152.430943 
C 66.638387 152.846421 67.201976 153.079868 67.789551 153.079868 
z
" clip-path="url(#p5d763f9a6d)" style="fill: #dc0d97; stroke: #dc0d97; stroke-width: 0.886227"/>
    <path d="M 67.789551 155.038661 
C 68.377126 155.038661 68.940715 154.805215 69.356194 154.389736 
C 69.771672 153.974258 70.005118 153.410669 70.005118 152.823093 
C 70.005118 152.235518 69.771672 151.671929 69.356194 151.256451 
C 68.940715 150.840972 68.377126 150.607526 67.789551 150.607526 
C 67.201976 150.607526 66.638387 150.840972 66.222908 151.256451 
C 65.80743 151.671929 65.573984 152.235518 65.573984 152.823093 
C 65.573984 153.410669 65.80743 153.974258 66.222908 154.389736 
C 66.638387 154.805215 67.201976 155.038661 67.789551 155.038661 
z
" clip-path="url(#p5d763f9a6d)" style="fill: #e6950a; stroke: #e6950a; stroke-width: 0.886227"/>
    <path d="M 97.021392 155.038661 
C 97.608967 155.038661 98.172556 154.805215 98.588035 154.389736 
C 99.003513 153.974258 99.236959 153.410669 99.236959 152.823093 
C 99.236959 152.235518 99.003513 151.671929 98.588035 151.256451 
C 98.172556 150.840972 97.608967 150.607526 97.021392 150.607526 
C 96.433817 150.607526 95.870228 150.840972 95.454749 151.256451 
C 95.039271 151.671929 94.805825 152.235518 94.805825 152.823093 
C 94.805825 153.410669 95.039271 153.974258 95.454749 154.389736 
C 95.870228 154.805215 96.433817 155.038661 97.021392 155.038661 
z
" clip-path="url(#p5d763f9a6d)" style="fill: #3949f5; stroke: #3949f5; stroke-width: 0.886227"/>
    <path d="M 97.021392 147.203488 
C 97.608967 147.203488 98.172556 146.970042 98.588035 146.554564 
C 99.003513 146.139085 99.236959 145.575496 99.236959 144.987921 
C 99.236959 144.400346 99.003513 143.836757 98.588035 143.421278 
C 98.172556 143.0058 97.608967 142.772354 97.021392 142.772354 
C 96.433817 142.772354 95.870228 143.0058 95.454749 143.421278 
C 95.039271 143.836757 94.805825 144.400346 94.805825 144.987921 
C 94.805825 145.575496 95.039271 146.139085 95.454749 146.554564 
C 95.870228 146.970042 96.433817 147.203488 97.021392 147.203488 
z
" clip-path="url(#p5d763f9a6d)" style="fill: #1c9a0e; stroke: #1c9a0e; stroke-width: 0.886227"/>
    <path d="M 97.021392 147.203488 
C 97.608967 147.203488 98.172556 146.970042 98.588035 146.554564 
C 99.003513 146.139085 99.236959 145.575496 99.236959 144.987921 
C 99.236959 144.400346 99.003513 143.836757 98.588035 143.421278 
C 98.172556 143.0058 97.608967 142.772354 97.021392 142.772354 
C 96.433817 142.772354 95.870228 143.0058 95.454749 143.421278 
C 95.039271 143.836757 94.805825 144.400346 94.805825 144.987921 
C 94.805825 145.575496 95.039271 146.139085 95.454749 146.554564 
C 95.870228 146.970042 96.433817 147.203488 97.021392 147.203488 
z
" clip-path="url(#p5d763f9a6d)" style="fill: #dc0d97; stroke: #dc0d97; stroke-width: 0.886227"/>
    <path d="M 97.021392 151.121074 
C 97.608967 151.121074 98.172556 150.887628 98.588035 150.47215 
C 99.003513 150.056671 99.236959 149.493082 99.236959 148.905507 
C 99.236959 148.317932 99.003513 147.754343 98.588035 147.338864 
C 98.172556 146.923386 97.608967 146.68994 97.021392 146.68994 
C 96.433817 146.68994 95.870228 146.923386 95.454749 147.338864 
C 95.039271 147.754343 94.805825 148.317932 94.805825 148.905507 
C 94.805825 149.493082 95.039271 150.056671 95.454749 150.47215 
C 95.870228 150.887628 96.433817 151.121074 97.021392 151.121074 
z
" clip-path="url(#p5d763f9a6d)" style="fill: #e6950a; stroke: #e6950a; stroke-width: 0.886227"/>
    <path d="M 126.253233 158.956247 
C 126.840808 158.956247 127.404397 158.722801 127.819876 158.307322 
C 128.235354 157.891844 128.4688 157.328255 128.4688 156.74068 
C 128.4688 156.153104 128.235354 155.589515 127.819876 155.174037 
C 127.404397 154.758558 126.840808 154.525112 126.253233 154.525112 
C 125.665658 154.525112 125.102069 154.758558 124.68659 155.174037 
C 124.271112 155.589515 124.037666 156.153104 124.037666 156.74068 
C 124.037666 157.328255 124.271112 157.891844 124.68659 158.307322 
C 125.102069 158.722801 125.665658 158.956247 126.253233 158.956247 
z
" clip-path="url(#p5d763f9a6d)" style="fill: #3949f5; stroke: #3949f5; stroke-width: 0.886227"/>
    <path d="M 126.253233 143.285902 
C 126.840808 143.285902 127.404397 143.052456 127.819876 142.636977 
C 128.235354 142.221499 128.4688 141.65791 128.4688 141.070335 
C 128.4688 140.482759 128.235354 139.91917 127.819876 139.503692 
C 127.404397 139.088213 126.840808 138.854767 126.253233 138.854767 
C 125.665658 138.854767 125.102069 139.088213 124.68659 139.503692 
C 124.271112 139.91917 124.037666 140.482759 124.037666 141.070335 
C 124.037666 141.65791 124.271112 142.221499 124.68659 142.636977 
C 125.102069 143.052456 125.665658 143.285902 126.253233 143.285902 
z
" clip-path="url(#p5d763f9a6d)" style="fill: #1c9a0e; stroke: #1c9a0e; stroke-width: 0.886227"/>
    <path d="M 126.253233 143.285902 
C 126.840808 143.285902 127.404397 143.052456 127.819876 142.636977 
C 128.235354 142.221499 128.4688 141.65791 128.4688 141.070335 
C 128.4688 140.482759 128.235354 139.91917 127.819876 139.503692 
C 127.404397 139.088213 126.840808 138.854767 126.253233 138.854767 
C 125.665658 138.854767 125.102069 139.088213 124.68659 139.503692 
C 124.271112 139.91917 124.037666 140.482759 124.037666 141.070335 
C 124.037666 141.65791 124.271112 142.221499 124.68659 142.636977 
C 125.102069 143.052456 125.665658 143.285902 126.253233 143.285902 
z
" clip-path="url(#p5d763f9a6d)" style="fill: #dc0d97; stroke: #dc0d97; stroke-width: 0.886227"/>
    <path d="M 126.253233 155.038661 
C 126.840808 155.038661 127.404397 154.805215 127.819876 154.389736 
C 128.235354 153.974258 128.4688 153.410669 128.4688 152.823093 
C 128.4688 152.235518 128.235354 151.671929 127.819876 151.256451 
C 127.404397 150.840972 126.840808 150.607526 126.253233 150.607526 
C 125.665658 150.607526 125.102069 150.840972 124.68659 151.256451 
C 124.271112 151.671929 124.037666 152.235518 124.037666 152.823093 
C 124.037666 153.410669 124.271112 153.974258 124.68659 154.389736 
C 125.102069 154.805215 125.665658 155.038661 126.253233 155.038661 
z
" clip-path="url(#p5d763f9a6d)" style="fill: #e6950a; stroke: #e6950a; stroke-width: 0.886227"/>
    <path d="M 155.485074 158.956247 
C 156.072649 158.956247 156.636238 158.722801 157.051717 158.307322 
C 157.467195 157.891844 157.700641 157.328255 157.700641 156.74068 
C 157.700641 156.153104 157.467195 155.589515 157.051717 155.174037 
C 156.636238 154.758558 156.072649 154.525112 155.485074 154.525112 
C 154.897499 154.525112 154.33391 154.758558 153.918431 155.174037 
C 153.502953 155.589515 153.269507 156.153104 153.269507 156.74068 
C 153.269507 157.328255 153.502953 157.891844 153.918431 158.307322 
C 154.33391 158.722801 154.897499 158.956247 155.485074 158.956247 
z
" clip-path="url(#p5d763f9a6d)" style="fill: #3949f5; stroke: #3949f5; stroke-width: 0.886227"/>
    <path d="M 155.485074 158.956247 
C 156.072649 158.956247 156.636238 158.722801 157.051717 158.307322 
C 157.467195 157.891844 157.700641 157.328255 157.700641 156.74068 
C 157.700641 156.153104 157.467195 155.589515 157.051717 155.174037 
C 156.636238 154.758558 156.072649 154.525112 155.485074 154.525112 
C 154.897499 154.525112 154.33391 154.758558 153.918431 155.174037 
C 153.502953 155.589515 153.269507 156.153104 153.269507 156.74068 
C 153.269507 157.328255 153.502953 157.891844 153.918431 158.307322 
C 154.33391 158.722801 154.897499 158.956247 155.485074 158.956247 
z
" clip-path="url(#p5d763f9a6d)" style="fill: #1c9a0e; stroke: #1c9a0e; stroke-width: 0.886227"/>
    <path d="M 155.485074 155.038661 
C 156.072649 155.038661 156.636238 154.805215 157.051717 154.389736 
C 157.467195 153.974258 157.700641 153.410669 157.700641 152.823093 
C 157.700641 152.235518 157.467195 151.671929 157.051717 151.256451 
C 156.636238 150.840972 156.072649 150.607526 155.485074 150.607526 
C 154.897499 150.607526 154.33391 150.840972 153.918431 151.256451 
C 153.502953 151.671929 153.269507 152.235518 153.269507 152.823093 
C 153.269507 153.410669 153.502953 153.974258 153.918431 154.389736 
C 154.33391 154.805215 154.897499 155.038661 155.485074 155.038661 
z
" clip-path="url(#p5d763f9a6d)" style="fill: #dc0d97; stroke: #dc0d97; stroke-width: 0.886227"/>
    <path d="M 155.485074 158.956247 
C 156.072649 158.956247 156.636238 158.722801 157.051717 158.307322 
C 157.467195 157.891844 157.700641 157.328255 157.700641 156.74068 
C 157.700641 156.153104 157.467195 155.589515 157.051717 155.174037 
C 156.636238 154.758558 156.072649 154.525112 155.485074 154.525112 
C 154.897499 154.525112 154.33391 154.758558 153.918431 155.174037 
C 153.502953 155.589515 153.269507 156.153104 153.269507 156.74068 
C 153.269507 157.328255 153.502953 157.891844 153.918431 158.307322 
C 154.33391 158.722801 154.897499 158.956247 155.485074 158.956247 
z
" clip-path="url(#p5d763f9a6d)" style="fill: #e6950a; stroke: #e6950a; stroke-width: 0.886227"/>
    <path d="M 184.716915 158.956247 
C 185.30449 158.956247 185.868079 158.722801 186.283557 158.307322 
C 186.699036 157.891844 186.932482 157.328255 186.932482 156.74068 
C 186.932482 156.153104 186.699036 155.589515 186.283557 155.174037 
C 185.868079 154.758558 185.30449 154.525112 184.716915 154.525112 
C 184.129339 154.525112 183.565751 154.758558 183.150272 155.174037 
C 182.734794 155.589515 182.501347 156.153104 182.501347 156.74068 
C 182.501347 157.328255 182.734794 157.891844 183.150272 158.307322 
C 183.565751 158.722801 184.129339 158.956247 184.716915 158.956247 
z
" clip-path="url(#p5d763f9a6d)" style="fill: #3949f5; stroke: #3949f5; stroke-width: 0.886227"/>
    <path d="M 184.716915 158.956247 
C 185.30449 158.956247 185.868079 158.722801 186.283557 158.307322 
C 186.699036 157.891844 186.932482 157.328255 186.932482 156.74068 
C 186.932482 156.153104 186.699036 155.589515 186.283557 155.174037 
C 185.868079 154.758558 185.30449 154.525112 184.716915 154.525112 
C 184.129339 154.525112 183.565751 154.758558 183.150272 155.174037 
C 182.734794 155.589515 182.501347 156.153104 182.501347 156.74068 
C 182.501347 157.328255 182.734794 157.891844 183.150272 158.307322 
C 183.565751 158.722801 184.129339 158.956247 184.716915 158.956247 
z
" clip-path="url(#p5d763f9a6d)" style="fill: #1c9a0e; stroke: #1c9a0e; stroke-width: 0.886227"/>
    <path d="M 184.716915 158.956247 
C 185.30449 158.956247 185.868079 158.722801 186.283557 158.307322 
C 186.699036 157.891844 186.932482 157.328255 186.932482 156.74068 
C 186.932482 156.153104 186.699036 155.589515 186.283557 155.174037 
C 185.868079 154.758558 185.30449 154.525112 184.716915 154.525112 
C 184.129339 154.525112 183.565751 154.758558 183.150272 155.174037 
C 182.734794 155.589515 182.501347 156.153104 182.501347 156.74068 
C 182.501347 157.328255 182.734794 157.891844 183.150272 158.307322 
C 183.565751 158.722801 184.129339 158.956247 184.716915 158.956247 
z
" clip-path="url(#p5d763f9a6d)" style="fill: #dc0d97; stroke: #dc0d97; stroke-width: 0.886227"/>
    <path d="M 184.716915 158.956247 
C 185.30449 158.956247 185.868079 158.722801 186.283557 158.307322 
C 186.699036 157.891844 186.932482 157.328255 186.932482 156.74068 
C 186.932482 156.153104 186.699036 155.589515 186.283557 155.174037 
C 185.868079 154.758558 185.30449 154.525112 184.716915 154.525112 
C 184.129339 154.525112 183.565751 154.758558 183.150272 155.174037 
C 182.734794 155.589515 182.501347 156.153104 182.501347 156.74068 
C 182.501347 157.328255 182.734794 157.891844 183.150272 158.307322 
C 183.565751 158.722801 184.129339 158.956247 184.716915 158.956247 
z
" clip-path="url(#p5d763f9a6d)" style="fill: #e6950a; stroke: #e6950a; stroke-width: 0.886227"/>
   </g>
   <g id="PolyCollection_1">
    <path d="M 38.55771 143.133905 
L 38.55771 166.429868 
L 67.789551 152.613836 
L 97.021392 161.249436 
L 126.253233 162.801579 
L 155.485074 159.867641 
L 184.716915 158.252063 
L 184.716915 155.229296 
L 184.716915 155.229296 
L 155.485074 153.613718 
L 126.253233 150.679781 
L 97.021392 144.396751 
L 67.789551 129.526833 
L 38.55771 143.133905 
z
" clip-path="url(#p5d763f9a6d)" style="fill: #3949f5; fill-opacity: 0.14902"/>
   </g>
   <g id="line2d_27"/>
   <g id="line2d_28"/>
   <g id="PolyCollection_2">
    <path d="M 38.55771 120.219677 
L 38.55771 146.250647 
L 67.789551 159.147383 
L 97.021392 153.967205 
L 126.253233 147.214187 
L 155.485074 160.171718 
L 184.716915 158.604064 
L 184.716915 154.877295 
L 184.716915 154.877295 
L 155.485074 153.309641 
L 126.253233 134.926482 
L 97.021392 136.008637 
L 67.789551 138.663632 
L 38.55771 120.219677 
z
" clip-path="url(#p5d763f9a6d)" style="fill: #1c9a0e; fill-opacity: 0.14902"/>
   </g>
   <g id="line2d_29"/>
   <g id="line2d_30"/>
   <g id="PolyCollection_3">
    <path d="M 38.55771 118.901287 
L 38.55771 147.569037 
L 67.789551 167.693059 
L 97.021392 156.140109 
L 126.253233 158.416239 
L 155.485074 159.747166 
L 184.716915 158.833326 
L 184.716915 154.648033 
L 184.716915 154.648033 
L 155.485074 153.734193 
L 126.253233 147.229947 
L 97.021392 141.670905 
L 67.789551 137.953128 
L 38.55771 118.901287 
z
" clip-path="url(#p5d763f9a6d)" style="fill: #e6950a; fill-opacity: 0.14902"/>
   </g>
   <g id="line2d_31"/>
   <g id="line2d_32"/>
   <g id="PolyCollection_4">
    <path d="M 38.55771 113.817653 
L 38.55771 144.817499 
L 67.789551 159.796394 
L 97.021392 156.925172 
L 126.253233 149.387917 
L 155.485074 156.690335 
L 184.716915 159.242169 
L 184.716915 154.23919 
L 184.716915 154.23919 
L 155.485074 148.955852 
L 126.253233 132.752752 
L 97.021392 133.050669 
L 67.789551 141.932206 
L 38.55771 113.817653 
z
" clip-path="url(#p5d763f9a6d)" style="fill: #dc0d97; fill-opacity: 0.14902"/>
   </g>
   <g id="line2d_33"/>
   <g id="line2d_34"/>
   <g id="LineCollection_1">
    <path d="M 31.24975 53.90404 
L 192.024875 161.637662 
" clip-path="url(#p5d763f9a6d)" style="fill: none; stroke-dasharray: 3.27904,1.417963; stroke-dashoffset: 0; stroke: #000000; stroke-opacity: 0.501961; stroke-width: 0.886227"/>
   </g>
  </g>
  <g id="axes_2">
   <g id="patch_3">
    <path d="M 195.624875 172.863616 
L 356.4 172.863616 
L 356.4 59.111354 
L 195.624875 59.111354 
z
" style="fill: #ffffff"/>
   </g>
   <g id="matplotlib.axis_3">
    <g id="xtick_12">
     <g id="line2d_35">
      <path d="M 202.932835 172.863616 
L 202.932835 59.111354 
" clip-path="url(#p6ea403206d)" style="fill: none; stroke: #e5e5e5; stroke-linecap: square"/>
     </g>
     <g id="line2d_36">
      <path d="M 202.932835 172.863616 
" style="fill: none; stroke: #333333; stroke-width: 1.5; stroke-linecap: square"/>
      <g>
       <use xlink:href="#m526f717b94" x="202.932835" y="172.863616" style="fill: #333333; stroke: #333333"/>
      </g>
     </g>
     <g id="text_12">
      <!-- &lt; 75 -->
      <g style="fill: #4d4d4d" transform="translate(189.352142 194.360999) rotate(-45) scale(0.088 -0.088)">
       <use xlink:href="#Helvetica-3c"/>
       <use xlink:href="#Helvetica-20" x="58.398438"/>
       <use xlink:href="#Helvetica-37" x="86.181641"/>
       <use xlink:href="#Helvetica-35" x="141.796875"/>
      </g>
     </g>
    </g>
    <g id="xtick_13">
     <g id="line2d_37">
      <path d="M 232.164676 172.863616 
L 232.164676 59.111354 
" clip-path="url(#p6ea403206d)" style="fill: none; stroke: #e5e5e5; stroke-linecap: square"/>
     </g>
     <g id="line2d_38">
      <path d="M 232.164676 172.863616 
" style="fill: none; stroke: #333333; stroke-width: 1.5; stroke-linecap: square"/>
      <g>
       <use xlink:href="#m526f717b94" x="232.164676" y="172.863616" style="fill: #333333; stroke: #333333"/>
      </g>
     </g>
     <g id="text_13">
      <!-- 75-80 -->
      <g style="fill: #4d4d4d" transform="translate(214.954493 197.990489) rotate(-45) scale(0.088 -0.088)">
       <use xlink:href="#Helvetica-37"/>
       <use xlink:href="#Helvetica-35" x="55.615234"/>
       <use xlink:href="#Helvetica-2d" x="111.230469"/>
       <use xlink:href="#Helvetica-38" x="144.53125"/>
       <use xlink:href="#Helvetica-30" x="200.146484"/>
      </g>
     </g>
    </g>
    <g id="xtick_14">
     <g id="line2d_39">
      <path d="M 261.396517 172.863616 
L 261.396517 59.111354 
" clip-path="url(#p6ea403206d)" style="fill: none; stroke: #e5e5e5; stroke-linecap: square"/>
     </g>
     <g id="line2d_40">
      <path d="M 261.396517 172.863616 
" style="fill: none; stroke: #333333; stroke-width: 1.5; stroke-linecap: square"/>
      <g>
       <use xlink:href="#m526f717b94" x="261.396517" y="172.863616" style="fill: #333333; stroke: #333333"/>
      </g>
     </g>
     <g id="text_14">
      <!-- 80-85 -->
      <g style="fill: #4d4d4d" transform="translate(244.186333 197.990489) rotate(-45) scale(0.088 -0.088)">
       <use xlink:href="#Helvetica-38"/>
       <use xlink:href="#Helvetica-30" x="55.615234"/>
       <use xlink:href="#Helvetica-2d" x="111.230469"/>
       <use xlink:href="#Helvetica-38" x="144.53125"/>
       <use xlink:href="#Helvetica-35" x="200.146484"/>
      </g>
     </g>
    </g>
    <g id="xtick_15">
     <g id="line2d_41">
      <path d="M 290.628358 172.863616 
L 290.628358 59.111354 
" clip-path="url(#p6ea403206d)" style="fill: none; stroke: #e5e5e5; stroke-linecap: square"/>
     </g>
     <g id="line2d_42">
      <path d="M 290.628358 172.863616 
" style="fill: none; stroke: #333333; stroke-width: 1.5; stroke-linecap: square"/>
      <g>
       <use xlink:href="#m526f717b94" x="290.628358" y="172.863616" style="fill: #333333; stroke: #333333"/>
      </g>
     </g>
     <g id="text_15">
      <!-- 85-90 -->
      <g style="fill: #4d4d4d" transform="translate(273.418174 197.990489) rotate(-45) scale(0.088 -0.088)">
       <use xlink:href="#Helvetica-38"/>
       <use xlink:href="#Helvetica-35" x="55.615234"/>
       <use xlink:href="#Helvetica-2d" x="111.230469"/>
       <use xlink:href="#Helvetica-39" x="144.53125"/>
       <use xlink:href="#Helvetica-30" x="200.146484"/>
      </g>
     </g>
    </g>
    <g id="xtick_16">
     <g id="line2d_43">
      <path d="M 319.860199 172.863616 
L 319.860199 59.111354 
" clip-path="url(#p6ea403206d)" style="fill: none; stroke: #e5e5e5; stroke-linecap: square"/>
     </g>
     <g id="line2d_44">
      <path d="M 319.860199 172.863616 
" style="fill: none; stroke: #333333; stroke-width: 1.5; stroke-linecap: square"/>
      <g>
       <use xlink:href="#m526f717b94" x="319.860199" y="172.863616" style="fill: #333333; stroke: #333333"/>
      </g>
     </g>
     <g id="text_16">
      <!-- 90-95 -->
      <g style="fill: #4d4d4d" transform="translate(302.650015 197.990489) rotate(-45) scale(0.088 -0.088)">
       <use xlink:href="#Helvetica-39"/>
       <use xlink:href="#Helvetica-30" x="55.615234"/>
       <use xlink:href="#Helvetica-2d" x="111.230469"/>
       <use xlink:href="#Helvetica-39" x="144.53125"/>
       <use xlink:href="#Helvetica-35" x="200.146484"/>
      </g>
     </g>
    </g>
    <g id="xtick_17">
     <g id="line2d_45">
      <path d="M 349.09204 172.863616 
L 349.09204 59.111354 
" clip-path="url(#p6ea403206d)" style="fill: none; stroke: #e5e5e5; stroke-linecap: square"/>
     </g>
     <g id="line2d_46">
      <path d="M 349.09204 172.863616 
" style="fill: none; stroke: #333333; stroke-width: 1.5; stroke-linecap: square"/>
      <g>
       <use xlink:href="#m526f717b94" x="349.09204" y="172.863616" style="fill: #333333; stroke: #333333"/>
      </g>
     </g>
     <g id="text_17">
      <!-- &gt; 95 -->
      <g style="fill: #4d4d4d" transform="translate(335.511347 194.360999) rotate(-45) scale(0.088 -0.088)">
       <use xlink:href="#Helvetica-3e"/>
       <use xlink:href="#Helvetica-20" x="58.398438"/>
       <use xlink:href="#Helvetica-39" x="86.181641"/>
       <use xlink:href="#Helvetica-35" x="141.796875"/>
      </g>
     </g>
    </g>
    <g id="xtick_18"/>
    <g id="xtick_19"/>
    <g id="xtick_20"/>
    <g id="xtick_21"/>
    <g id="xtick_22"/>
   </g>
   <g id="matplotlib.axis_4">
    <g id="ytick_12">
     <g id="line2d_47">
      <path d="M 195.624875 156.74068 
L 356.4 156.74068 
" clip-path="url(#p6ea403206d)" style="fill: none; stroke: #e5e5e5; stroke-linecap: square"/>
     </g>
    </g>
    <g id="ytick_13">
     <g id="line2d_48">
      <path d="M 195.624875 137.152748 
L 356.4 137.152748 
" clip-path="url(#p6ea403206d)" style="fill: none; stroke: #e5e5e5; stroke-linecap: square"/>
     </g>
    </g>
    <g id="ytick_14">
     <g id="line2d_49">
      <path d="M 195.624875 117.564817 
L 356.4 117.564817 
" clip-path="url(#p6ea403206d)" style="fill: none; stroke: #e5e5e5; stroke-linecap: square"/>
     </g>
    </g>
    <g id="ytick_15">
     <g id="line2d_50">
      <path d="M 195.624875 97.976886 
L 356.4 97.976886 
" clip-path="url(#p6ea403206d)" style="fill: none; stroke: #e5e5e5; stroke-linecap: square"/>
     </g>
    </g>
    <g id="ytick_16">
     <g id="line2d_51">
      <path d="M 195.624875 78.388955 
L 356.4 78.388955 
" clip-path="url(#p6ea403206d)" style="fill: none; stroke: #e5e5e5; stroke-linecap: square"/>
     </g>
    </g>
    <g id="ytick_17"/>
    <g id="ytick_18"/>
    <g id="ytick_19"/>
    <g id="ytick_20"/>
    <g id="ytick_21"/>
    <g id="ytick_22"/>
   </g>
   <g id="line2d_52">
    <path d="M 202.932835 96.018093 
L 232.164676 101.894472 
L 261.396517 119.52361 
L 290.628358 152.823093 
L 319.860199 152.823093 
L 349.09204 156.74068 
" clip-path="url(#p6ea403206d)" style="fill: none; stroke: #3949f5; stroke-width: 1.772454"/>
   </g>
   <g id="line2d_53">
    <path d="M 202.932835 78.388955 
L 232.164676 109.729645 
L 261.396517 123.441196 
L 290.628358 144.987921 
L 319.860199 146.946714 
L 349.09204 156.74068 
" clip-path="url(#p6ea403206d)" style="fill: none; stroke: #1c9a0e; stroke-width: 1.772454"/>
   </g>
   <g id="line2d_54">
    <path d="M 202.932835 86.224127 
L 232.164676 105.812058 
L 261.396517 129.317576 
L 290.628358 156.74068 
L 319.860199 154.781887 
L 349.09204 156.74068 
" clip-path="url(#p6ea403206d)" style="fill: none; stroke: #e6950a; stroke-width: 1.772454"/>
   </g>
   <g id="line2d_55">
    <path d="M 202.932835 82.306541 
L 232.164676 99.935679 
L 261.396517 129.317576 
L 290.628358 150.8643 
L 319.860199 156.74068 
L 349.09204 156.74068 
" clip-path="url(#p6ea403206d)" style="fill: none; stroke: #dc0d97; stroke-width: 1.772454"/>
   </g>
   <g id="PathCollection_2">
    <path d="M 202.932835 98.23366 
C 203.520411 98.23366 204.083999 98.000214 204.499478 97.584735 
C 204.914956 97.169257 205.148403 96.605668 205.148403 96.018093 
C 205.148403 95.430517 204.914956 94.866929 204.499478 94.45145 
C 204.083999 94.035972 203.520411 93.802525 202.932835 93.802525 
C 202.34526 93.802525 201.781671 94.035972 201.366193 94.45145 
C 200.950714 94.866929 200.717268 95.430517 200.717268 96.018093 
C 200.717268 96.605668 200.950714 97.169257 201.366193 97.584735 
C 201.781671 98.000214 202.34526 98.23366 202.932835 98.23366 
z
" clip-path="url(#p6ea403206d)" style="fill: #3949f5; stroke: #3949f5; stroke-width: 0.886227"/>
    <path d="M 202.932835 80.604522 
C 203.520411 80.604522 204.083999 80.371076 204.499478 79.955597 
C 204.914956 79.540119 205.148403 78.97653 205.148403 78.388955 
C 205.148403 77.801379 204.914956 77.23779 204.499478 76.822312 
C 204.083999 76.406833 203.520411 76.173387 202.932835 76.173387 
C 202.34526 76.173387 201.781671 76.406833 201.366193 76.822312 
C 200.950714 77.23779 200.717268 77.801379 200.717268 78.388955 
C 200.717268 78.97653 200.950714 79.540119 201.366193 79.955597 
C 201.781671 80.371076 202.34526 80.604522 202.932835 80.604522 
z
" clip-path="url(#p6ea403206d)" style="fill: #1c9a0e; stroke: #1c9a0e; stroke-width: 0.886227"/>
    <path d="M 202.932835 84.522108 
C 203.520411 84.522108 204.083999 84.288662 204.499478 83.873183 
C 204.914956 83.457705 205.148403 82.894116 205.148403 82.306541 
C 205.148403 81.718965 204.914956 81.155377 204.499478 80.739898 
C 204.083999 80.32442 203.520411 80.090973 202.932835 80.090973 
C 202.34526 80.090973 201.781671 80.32442 201.366193 80.739898 
C 200.950714 81.155377 200.717268 81.718965 200.717268 82.306541 
C 200.717268 82.894116 200.950714 83.457705 201.366193 83.873183 
C 201.781671 84.288662 202.34526 84.522108 202.932835 84.522108 
z
" clip-path="url(#p6ea403206d)" style="fill: #dc0d97; stroke: #dc0d97; stroke-width: 0.886227"/>
    <path d="M 202.932835 88.439694 
C 203.520411 88.439694 204.083999 88.206248 204.499478 87.79077 
C 204.914956 87.375291 205.148403 86.811702 205.148403 86.224127 
C 205.148403 85.636552 204.914956 85.072963 204.499478 84.657484 
C 204.083999 84.242006 203.520411 84.00856 202.932835 84.00856 
C 202.34526 84.00856 201.781671 84.242006 201.366193 84.657484 
C 200.950714 85.072963 200.717268 85.636552 200.717268 86.224127 
C 200.717268 86.811702 200.950714 87.375291 201.366193 87.79077 
C 201.781671 88.206248 202.34526 88.439694 202.932835 88.439694 
z
" clip-path="url(#p6ea403206d)" style="fill: #e6950a; stroke: #e6950a; stroke-width: 0.886227"/>
    <path d="M 232.164676 104.110039 
C 232.752251 104.110039 233.31584 103.876593 233.731319 103.461115 
C 234.146797 103.045636 234.380243 102.482047 234.380243 101.894472 
C 234.380243 101.306897 234.146797 100.743308 233.731319 100.327829 
C 233.31584 99.912351 232.752251 99.678905 232.164676 99.678905 
C 231.577101 99.678905 231.013512 99.912351 230.598033 100.327829 
C 230.182555 100.743308 229.949109 101.306897 229.949109 101.894472 
C 229.949109 102.482047 230.182555 103.045636 230.598033 103.461115 
C 231.013512 103.876593 231.577101 104.110039 232.164676 104.110039 
z
" clip-path="url(#p6ea403206d)" style="fill: #3949f5; stroke: #3949f5; stroke-width: 0.886227"/>
    <path d="M 232.164676 111.945212 
C 232.752251 111.945212 233.31584 111.711766 233.731319 111.296287 
C 234.146797 110.880809 234.380243 110.31722 234.380243 109.729645 
C 234.380243 109.142069 234.146797 108.57848 233.731319 108.163002 
C 233.31584 107.747523 232.752251 107.514077 232.164676 107.514077 
C 231.577101 107.514077 231.013512 107.747523 230.598033 108.163002 
C 230.182555 108.57848 229.949109 109.142069 229.949109 109.729645 
C 229.949109 110.31722 230.182555 110.880809 230.598033 111.296287 
C 231.013512 111.711766 231.577101 111.945212 232.164676 111.945212 
z
" clip-path="url(#p6ea403206d)" style="fill: #1c9a0e; stroke: #1c9a0e; stroke-width: 0.886227"/>
    <path d="M 232.164676 102.151246 
C 232.752251 102.151246 233.31584 101.9178 233.731319 101.502322 
C 234.146797 101.086843 234.380243 100.523254 234.380243 99.935679 
C 234.380243 99.348104 234.146797 98.784515 233.731319 98.369036 
C 233.31584 97.953558 232.752251 97.720112 232.164676 97.720112 
C 231.577101 97.720112 231.013512 97.953558 230.598033 98.369036 
C 230.182555 98.784515 229.949109 99.348104 229.949109 99.935679 
C 229.949109 100.523254 230.182555 101.086843 230.598033 101.502322 
C 231.013512 101.9178 231.577101 102.151246 232.164676 102.151246 
z
" clip-path="url(#p6ea403206d)" style="fill: #dc0d97; stroke: #dc0d97; stroke-width: 0.886227"/>
    <path d="M 232.164676 108.027626 
C 232.752251 108.027626 233.31584 107.794179 233.731319 107.378701 
C 234.146797 106.963223 234.380243 106.399634 234.380243 105.812058 
C 234.380243 105.224483 234.146797 104.660894 233.731319 104.245416 
C 233.31584 103.829937 232.752251 103.596491 232.164676 103.596491 
C 231.577101 103.596491 231.013512 103.829937 230.598033 104.245416 
C 230.182555 104.660894 229.949109 105.224483 229.949109 105.812058 
C 229.949109 106.399634 230.182555 106.963223 230.598033 107.378701 
C 231.013512 107.794179 231.577101 108.027626 232.164676 108.027626 
z
" clip-path="url(#p6ea403206d)" style="fill: #e6950a; stroke: #e6950a; stroke-width: 0.886227"/>
    <path d="M 261.396517 121.739178 
C 261.984092 121.739178 262.547681 121.505731 262.96316 121.090253 
C 263.378638 120.674774 263.612084 120.111186 263.612084 119.52361 
C 263.612084 118.936035 263.378638 118.372446 262.96316 117.956968 
C 262.547681 117.541489 261.984092 117.308043 261.396517 117.308043 
C 260.808942 117.308043 260.245353 117.541489 259.829874 117.956968 
C 259.414396 118.372446 259.18095 118.936035 259.18095 119.52361 
C 259.18095 120.111186 259.414396 120.674774 259.829874 121.090253 
C 260.245353 121.505731 260.808942 121.739178 261.396517 121.739178 
z
" clip-path="url(#p6ea403206d)" style="fill: #3949f5; stroke: #3949f5; stroke-width: 0.886227"/>
    <path d="M 261.396517 125.656764 
C 261.984092 125.656764 262.547681 125.423318 262.96316 125.007839 
C 263.378638 124.592361 263.612084 124.028772 263.612084 123.441196 
C 263.612084 122.853621 263.378638 122.290032 262.96316 121.874554 
C 262.547681 121.459075 261.984092 121.225629 261.396517 121.225629 
C 260.808942 121.225629 260.245353 121.459075 259.829874 121.874554 
C 259.414396 122.290032 259.18095 122.853621 259.18095 123.441196 
C 259.18095 124.028772 259.414396 124.592361 259.829874 125.007839 
C 260.245353 125.423318 260.808942 125.656764 261.396517 125.656764 
z
" clip-path="url(#p6ea403206d)" style="fill: #1c9a0e; stroke: #1c9a0e; stroke-width: 0.886227"/>
    <path d="M 261.396517 131.533143 
C 261.984092 131.533143 262.547681 131.299697 262.96316 130.884219 
C 263.378638 130.46874 263.612084 129.905151 263.612084 129.317576 
C 263.612084 128.730001 263.378638 128.166412 262.96316 127.750933 
C 262.547681 127.335455 261.984092 127.102009 261.396517 127.102009 
C 260.808942 127.102009 260.245353 127.335455 259.829874 127.750933 
C 259.414396 128.166412 259.18095 128.730001 259.18095 129.317576 
C 259.18095 129.905151 259.414396 130.46874 259.829874 130.884219 
C 260.245353 131.299697 260.808942 131.533143 261.396517 131.533143 
z
" clip-path="url(#p6ea403206d)" style="fill: #dc0d97; stroke: #dc0d97; stroke-width: 0.886227"/>
    <path d="M 261.396517 131.533143 
C 261.984092 131.533143 262.547681 131.299697 262.96316 130.884219 
C 263.378638 130.46874 263.612084 129.905151 263.612084 129.317576 
C 263.612084 128.730001 263.378638 128.166412 262.96316 127.750933 
C 262.547681 127.335455 261.984092 127.102009 261.396517 127.102009 
C 260.808942 127.102009 260.245353 127.335455 259.829874 127.750933 
C 259.414396 128.166412 259.18095 128.730001 259.18095 129.317576 
C 259.18095 129.905151 259.414396 130.46874 259.829874 130.884219 
C 260.245353 131.299697 260.808942 131.533143 261.396517 131.533143 
z
" clip-path="url(#p6ea403206d)" style="fill: #e6950a; stroke: #e6950a; stroke-width: 0.886227"/>
    <path d="M 290.628358 155.038661 
C 291.215933 155.038661 291.779522 154.805215 292.195001 154.389736 
C 292.610479 153.974258 292.843925 153.410669 292.843925 152.823093 
C 292.843925 152.235518 292.610479 151.671929 292.195001 151.256451 
C 291.779522 150.840972 291.215933 150.607526 290.628358 150.607526 
C 290.040783 150.607526 289.477194 150.840972 289.061715 151.256451 
C 288.646237 151.671929 288.412791 152.235518 288.412791 152.823093 
C 288.412791 153.410669 288.646237 153.974258 289.061715 154.389736 
C 289.477194 154.805215 290.040783 155.038661 290.628358 155.038661 
z
" clip-path="url(#p6ea403206d)" style="fill: #3949f5; stroke: #3949f5; stroke-width: 0.886227"/>
    <path d="M 290.628358 147.203488 
C 291.215933 147.203488 291.779522 146.970042 292.195001 146.554564 
C 292.610479 146.139085 292.843925 145.575496 292.843925 144.987921 
C 292.843925 144.400346 292.610479 143.836757 292.195001 143.421278 
C 291.779522 143.0058 291.215933 142.772354 290.628358 142.772354 
C 290.040783 142.772354 289.477194 143.0058 289.061715 143.421278 
C 288.646237 143.836757 288.412791 144.400346 288.412791 144.987921 
C 288.412791 145.575496 288.646237 146.139085 289.061715 146.554564 
C 289.477194 146.970042 290.040783 147.203488 290.628358 147.203488 
z
" clip-path="url(#p6ea403206d)" style="fill: #1c9a0e; stroke: #1c9a0e; stroke-width: 0.886227"/>
    <path d="M 290.628358 153.079868 
C 291.215933 153.079868 291.779522 152.846421 292.195001 152.430943 
C 292.610479 152.015464 292.843925 151.451876 292.843925 150.8643 
C 292.843925 150.276725 292.610479 149.713136 292.195001 149.297658 
C 291.779522 148.882179 291.215933 148.648733 290.628358 148.648733 
C 290.040783 148.648733 289.477194 148.882179 289.061715 149.297658 
C 288.646237 149.713136 288.412791 150.276725 288.412791 150.8643 
C 288.412791 151.451876 288.646237 152.015464 289.061715 152.430943 
C 289.477194 152.846421 290.040783 153.079868 290.628358 153.079868 
z
" clip-path="url(#p6ea403206d)" style="fill: #dc0d97; stroke: #dc0d97; stroke-width: 0.886227"/>
    <path d="M 290.628358 158.956247 
C 291.215933 158.956247 291.779522 158.722801 292.195001 158.307322 
C 292.610479 157.891844 292.843925 157.328255 292.843925 156.74068 
C 292.843925 156.153104 292.610479 155.589515 292.195001 155.174037 
C 291.779522 154.758558 291.215933 154.525112 290.628358 154.525112 
C 290.040783 154.525112 289.477194 154.758558 289.061715 155.174037 
C 288.646237 155.589515 288.412791 156.153104 288.412791 156.74068 
C 288.412791 157.328255 288.646237 157.891844 289.061715 158.307322 
C 289.477194 158.722801 290.040783 158.956247 290.628358 158.956247 
z
" clip-path="url(#p6ea403206d)" style="fill: #e6950a; stroke: #e6950a; stroke-width: 0.886227"/>
    <path d="M 319.860199 155.038661 
C 320.447774 155.038661 321.011363 154.805215 321.426842 154.389736 
C 321.84232 153.974258 322.075766 153.410669 322.075766 152.823093 
C 322.075766 152.235518 321.84232 151.671929 321.426842 151.256451 
C 321.011363 150.840972 320.447774 150.607526 319.860199 150.607526 
C 319.272624 150.607526 318.709035 150.840972 318.293556 151.256451 
C 317.878078 151.671929 317.644632 152.235518 317.644632 152.823093 
C 317.644632 153.410669 317.878078 153.974258 318.293556 154.389736 
C 318.709035 154.805215 319.272624 155.038661 319.860199 155.038661 
z
" clip-path="url(#p6ea403206d)" style="fill: #3949f5; stroke: #3949f5; stroke-width: 0.886227"/>
    <path d="M 319.860199 149.162281 
C 320.447774 149.162281 321.011363 148.928835 321.426842 148.513357 
C 321.84232 148.097878 322.075766 147.534289 322.075766 146.946714 
C 322.075766 146.359139 321.84232 145.79555 321.426842 145.380071 
C 321.011363 144.964593 320.447774 144.731147 319.860199 144.731147 
C 319.272624 144.731147 318.709035 144.964593 318.293556 145.380071 
C 317.878078 145.79555 317.644632 146.359139 317.644632 146.946714 
C 317.644632 147.534289 317.878078 148.097878 318.293556 148.513357 
C 318.709035 148.928835 319.272624 149.162281 319.860199 149.162281 
z
" clip-path="url(#p6ea403206d)" style="fill: #1c9a0e; stroke: #1c9a0e; stroke-width: 0.886227"/>
    <path d="M 319.860199 158.956247 
C 320.447774 158.956247 321.011363 158.722801 321.426842 158.307322 
C 321.84232 157.891844 322.075766 157.328255 322.075766 156.74068 
C 322.075766 156.153104 321.84232 155.589515 321.426842 155.174037 
C 321.011363 154.758558 320.447774 154.525112 319.860199 154.525112 
C 319.272624 154.525112 318.709035 154.758558 318.293556 155.174037 
C 317.878078 155.589515 317.644632 156.153104 317.644632 156.74068 
C 317.644632 157.328255 317.878078 157.891844 318.293556 158.307322 
C 318.709035 158.722801 319.272624 158.956247 319.860199 158.956247 
z
" clip-path="url(#p6ea403206d)" style="fill: #dc0d97; stroke: #dc0d97; stroke-width: 0.886227"/>
    <path d="M 319.860199 156.997454 
C 320.447774 156.997454 321.011363 156.764008 321.426842 156.348529 
C 321.84232 155.933051 322.075766 155.369462 322.075766 154.781887 
C 322.075766 154.194311 321.84232 153.630722 321.426842 153.215244 
C 321.011363 152.799765 320.447774 152.566319 319.860199 152.566319 
C 319.272624 152.566319 318.709035 152.799765 318.293556 153.215244 
C 317.878078 153.630722 317.644632 154.194311 317.644632 154.781887 
C 317.644632 155.369462 317.878078 155.933051 318.293556 156.348529 
C 318.709035 156.764008 319.272624 156.997454 319.860199 156.997454 
z
" clip-path="url(#p6ea403206d)" style="fill: #e6950a; stroke: #e6950a; stroke-width: 0.886227"/>
    <path d="M 349.09204 158.956247 
C 349.679615 158.956247 350.243204 158.722801 350.658682 158.307322 
C 351.074161 157.891844 351.307607 157.328255 351.307607 156.74068 
C 351.307607 156.153104 351.074161 155.589515 350.658682 155.174037 
C 350.243204 154.758558 349.679615 154.525112 349.09204 154.525112 
C 348.504464 154.525112 347.940876 154.758558 347.525397 155.174037 
C 347.109919 155.589515 346.876472 156.153104 346.876472 156.74068 
C 346.876472 157.328255 347.109919 157.891844 347.525397 158.307322 
C 347.940876 158.722801 348.504464 158.956247 349.09204 158.956247 
z
" clip-path="url(#p6ea403206d)" style="fill: #3949f5; stroke: #3949f5; stroke-width: 0.886227"/>
    <path d="M 349.09204 158.956247 
C 349.679615 158.956247 350.243204 158.722801 350.658682 158.307322 
C 351.074161 157.891844 351.307607 157.328255 351.307607 156.74068 
C 351.307607 156.153104 351.074161 155.589515 350.658682 155.174037 
C 350.243204 154.758558 349.679615 154.525112 349.09204 154.525112 
C 348.504464 154.525112 347.940876 154.758558 347.525397 155.174037 
C 347.109919 155.589515 346.876472 156.153104 346.876472 156.74068 
C 346.876472 157.328255 347.109919 157.891844 347.525397 158.307322 
C 347.940876 158.722801 348.504464 158.956247 349.09204 158.956247 
z
" clip-path="url(#p6ea403206d)" style="fill: #1c9a0e; stroke: #1c9a0e; stroke-width: 0.886227"/>
    <path d="M 349.09204 158.956247 
C 349.679615 158.956247 350.243204 158.722801 350.658682 158.307322 
C 351.074161 157.891844 351.307607 157.328255 351.307607 156.74068 
C 351.307607 156.153104 351.074161 155.589515 350.658682 155.174037 
C 350.243204 154.758558 349.679615 154.525112 349.09204 154.525112 
C 348.504464 154.525112 347.940876 154.758558 347.525397 155.174037 
C 347.109919 155.589515 346.876472 156.153104 346.876472 156.74068 
C 346.876472 157.328255 347.109919 157.891844 347.525397 158.307322 
C 347.940876 158.722801 348.504464 158.956247 349.09204 158.956247 
z
" clip-path="url(#p6ea403206d)" style="fill: #dc0d97; stroke: #dc0d97; stroke-width: 0.886227"/>
    <path d="M 349.09204 158.956247 
C 349.679615 158.956247 350.243204 158.722801 350.658682 158.307322 
C 351.074161 157.891844 351.307607 157.328255 351.307607 156.74068 
C 351.307607 156.153104 351.074161 155.589515 350.658682 155.174037 
C 350.243204 154.758558 349.679615 154.525112 349.09204 154.525112 
C 348.504464 154.525112 347.940876 154.758558 347.525397 155.174037 
C 347.109919 155.589515 346.876472 156.153104 346.876472 156.74068 
C 346.876472 157.328255 347.109919 157.891844 347.525397 158.307322 
C 347.940876 158.722801 348.504464 158.956247 349.09204 158.956247 
z
" clip-path="url(#p6ea403206d)" style="fill: #e6950a; stroke: #e6950a; stroke-width: 0.886227"/>
   </g>
   <g id="PolyCollection_5">
    <path d="M 202.932835 83.811107 
L 202.932835 108.225079 
L 232.164676 113.684531 
L 261.396517 129.022597 
L 290.628358 158.316055 
L 319.860199 156.954036 
L 349.09204 159.775216 
L 349.09204 153.706143 
L 349.09204 153.706143 
L 319.860199 148.692151 
L 290.628358 147.330132 
L 261.396517 110.024623 
L 232.164676 90.104413 
L 202.932835 83.811107 
z
" clip-path="url(#p6ea403206d)" style="fill: #3949f5; fill-opacity: 0.14902"/>
   </g>
   <g id="line2d_56"/>
   <g id="line2d_57"/>
   <g id="PolyCollection_6">
    <path d="M 202.932835 64.281912 
L 202.932835 92.495998 
L 232.164676 126.851868 
L 261.396517 132.283086 
L 290.628358 152.324417 
L 319.860199 151.305798 
L 349.09204 162.647546 
L 349.09204 150.833813 
L 349.09204 150.833813 
L 319.860199 142.58763 
L 290.628358 137.651424 
L 261.396517 114.599307 
L 232.164676 92.607421 
L 202.932835 64.281912 
z
" clip-path="url(#p6ea403206d)" style="fill: #1c9a0e; fill-opacity: 0.14902"/>
   </g>
   <g id="line2d_58"/>
   <g id="line2d_59"/>
   <g id="PolyCollection_7">
    <path d="M 202.932835 74.632661 
L 202.932835 97.815593 
L 232.164676 121.198403 
L 261.396517 145.931586 
L 290.628358 167.432221 
L 319.860199 160.76531 
L 349.09204 160.7183 
L 349.09204 152.763059 
L 349.09204 152.763059 
L 319.860199 148.798463 
L 290.628358 146.049138 
L 261.396517 112.703566 
L 232.164676 90.425713 
L 202.932835 74.632661 
z
" clip-path="url(#p6ea403206d)" style="fill: #e6950a; fill-opacity: 0.14902"/>
   </g>
   <g id="line2d_60"/>
   <g id="line2d_61"/>
   <g id="PolyCollection_8">
    <path d="M 202.932835 69.103267 
L 202.932835 95.509815 
L 232.164676 116.96902 
L 261.396517 139.453459 
L 290.628358 162.084364 
L 319.860199 164.140609 
L 349.09204 161.63518 
L 349.09204 151.846179 
L 349.09204 151.846179 
L 319.860199 149.340751 
L 290.628358 139.644237 
L 261.396517 119.181693 
L 232.164676 82.902337 
L 202.932835 69.103267 
z
" clip-path="url(#p6ea403206d)" style="fill: #dc0d97; fill-opacity: 0.14902"/>
   </g>
   <g id="line2d_62"/>
   <g id="line2d_63"/>
   <g id="LineCollection_2">
    <path d="M 195.624875 53.90404 
L 356.4 161.637662 
" clip-path="url(#p6ea403206d)" style="fill: none; stroke-dasharray: 3.27904,1.417963; stroke-dashoffset: 0; stroke: #000000; stroke-opacity: 0.501961; stroke-width: 0.886227"/>
   </g>
  </g>
  <g id="patch_4">
   <path d="M 31.24975 172.863616 
L 192.024875 172.863616 
L 192.024875 59.111354 
L 31.24975 59.111354 
L 31.24975 172.863616 
z
" style="fill: none; stroke: #7f7f7f; stroke-linejoin: miter"/>
  </g>
  <g id="patch_5">
   <path d="M 195.624875 172.863616 
L 356.4 172.863616 
L 356.4 59.111354 
L 195.624875 59.111354 
L 195.624875 172.863616 
z
" style="fill: none; stroke: #7f7f7f; stroke-linejoin: miter"/>
  </g>
  <g id="text_18">
   <!-- XCOMET -->
   <g transform="translate(172.435812 10.773438) scale(0.1 -0.1)">
    <defs>
     <path id="Helvetica-58" d="M 881 0 
L 131 0 
L 1775 2353 
L 234 4591 
L 1013 4591 
L 2184 2834 
L 3347 4591 
L 4088 4591 
L 2547 2353 
L 4163 0 
L 3391 0 
L 2153 1888 
L 881 0 
z
" transform="scale(0.015625)"/>
     <path id="Helvetica-43" d="M 2422 4716 
Q 3294 4716 3775 4256 
Q 4256 3797 4309 3213 
L 3703 3213 
Q 3600 3656 3292 3915 
Q 2984 4175 2428 4175 
Q 1750 4175 1333 3698 
Q 916 3222 916 2238 
Q 916 1431 1292 929 
Q 1669 428 2416 428 
Q 3103 428 3463 956 
Q 3653 1234 3747 1688 
L 4353 1688 
Q 4272 963 3816 472 
Q 3269 -119 2341 -119 
Q 1541 -119 997 366 
Q 281 1006 281 2344 
Q 281 3359 819 4009 
Q 1400 4716 2422 4716 
z
M 2297 4716 
L 2297 4716 
z
" transform="scale(0.015625)"/>
     <path id="Helvetica-4f" d="M 2469 4716 
Q 3684 4716 4269 3934 
Q 4725 3325 4725 2375 
Q 4725 1347 4203 666 
Q 3591 -134 2456 -134 
Q 1397 -134 791 566 
Q 250 1241 250 2272 
Q 250 3203 713 3866 
Q 1306 4716 2469 4716 
z
M 2531 422 
Q 3353 422 3720 1011 
Q 4088 1600 4088 2366 
Q 4088 3175 3664 3669 
Q 3241 4163 2506 4163 
Q 1794 4163 1344 3673 
Q 894 3184 894 2231 
Q 894 1469 1280 945 
Q 1666 422 2531 422 
z
M 2488 4716 
L 2488 4716 
z
" transform="scale(0.015625)"/>
     <path id="Helvetica-4d" d="M 472 4591 
L 1363 4591 
L 2681 709 
L 3991 4591 
L 4872 4591 
L 4872 0 
L 4281 0 
L 4281 2709 
Q 4281 2850 4287 3175 
Q 4294 3500 4294 3872 
L 2984 0 
L 2369 0 
L 1050 3872 
L 1050 3731 
Q 1050 3563 1058 3217 
Q 1066 2872 1066 2709 
L 1066 0 
L 472 0 
L 472 4591 
z
" transform="scale(0.015625)"/>
     <path id="Helvetica-45" d="M 547 4591 
L 3894 4591 
L 3894 4028 
L 1153 4028 
L 1153 2634 
L 3688 2634 
L 3688 2103 
L 1153 2103 
L 1153 547 
L 3941 547 
L 3941 0 
L 547 0 
L 547 4591 
z
M 2244 4591 
L 2244 4591 
z
" transform="scale(0.015625)"/>
     <path id="Helvetica-54" d="M 3828 4591 
L 3828 4044 
L 2281 4044 
L 2281 0 
L 1650 0 
L 1650 4044 
L 103 4044 
L 103 4591 
L 3828 4591 
z
" transform="scale(0.015625)"/>
    </defs>
    <use xlink:href="#Helvetica-58"/>
    <use xlink:href="#Helvetica-43" x="66.699219"/>
    <use xlink:href="#Helvetica-4f" x="138.916016"/>
    <use xlink:href="#Helvetica-4d" x="216.699219"/>
    <use xlink:href="#Helvetica-45" x="300"/>
    <use xlink:href="#Helvetica-54" x="366.699219"/>
   </g>
  </g>
  <g id="text_19">
   <!-- MT Quality Score -->
   <g transform="translate(155.206125 210.25625) scale(0.1 -0.1)">
    <defs>
     <path id="Helvetica-51" d="M 4688 13 
L 4375 -366 
L 3666 175 
Q 3409 34 3111 -50 
Q 2813 -134 2459 -134 
Q 1391 -134 784 566 
Q 250 1247 250 2272 
Q 250 3203 713 3866 
Q 1306 4716 2469 4716 
Q 3684 4716 4269 3934 
Q 4725 3325 4725 2375 
Q 4725 1931 4616 1522 
Q 4450 897 4056 503 
L 4688 13 
z
M 2534 422 
Q 2728 422 2897 448 
Q 3066 475 3191 553 
L 2688 947 
L 3000 1331 
L 3600 866 
Q 3884 1191 3986 1594 
Q 4088 1997 4088 2366 
Q 4088 3175 3664 3669 
Q 3241 4163 2506 4163 
Q 1763 4163 1328 3689 
Q 894 3216 894 2231 
Q 894 1403 1311 912 
Q 1728 422 2534 422 
z
" transform="scale(0.015625)"/>
     <path id="Helvetica-75" d="M 975 3347 
L 975 1125 
Q 975 869 1056 706 
Q 1206 406 1616 406 
Q 2203 406 2416 931 
Q 2531 1213 2531 1703 
L 2531 3347 
L 3094 3347 
L 3094 0 
L 2563 0 
L 2569 494 
Q 2459 303 2297 172 
Q 1975 -91 1516 -91 
Q 800 -91 541 388 
Q 400 644 400 1072 
L 400 3347 
L 975 3347 
z
M 1747 3428 
L 1747 3428 
z
" transform="scale(0.015625)"/>
     <path id="Helvetica-61" d="M 844 891 
Q 844 647 1022 506 
Q 1200 366 1444 366 
Q 1741 366 2019 503 
Q 2488 731 2488 1250 
L 2488 1703 
Q 2384 1638 2221 1594 
Q 2059 1550 1903 1531 
L 1563 1488 
Q 1256 1447 1103 1359 
Q 844 1213 844 891 
z
M 2206 2028 
Q 2400 2053 2466 2191 
Q 2503 2266 2503 2406 
Q 2503 2694 2298 2823 
Q 2094 2953 1713 2953 
Q 1272 2953 1088 2716 
Q 984 2584 953 2325 
L 428 2325 
Q 444 2944 830 3186 
Q 1216 3428 1725 3428 
Q 2316 3428 2684 3203 
Q 3050 2978 3050 2503 
L 3050 575 
Q 3050 488 3086 434 
Q 3122 381 3238 381 
Q 3275 381 3322 386 
Q 3369 391 3422 400 
L 3422 -16 
Q 3291 -53 3222 -62 
Q 3153 -72 3034 -72 
Q 2744 -72 2613 134 
Q 2544 244 2516 444 
Q 2344 219 2022 53 
Q 1700 -113 1313 -113 
Q 847 -113 551 170 
Q 256 453 256 878 
Q 256 1344 547 1600 
Q 838 1856 1309 1916 
L 2206 2028 
z
M 1741 3428 
L 1741 3428 
z
" transform="scale(0.015625)"/>
     <path id="Helvetica-6c" d="M 428 4591 
L 991 4591 
L 991 0 
L 428 0 
L 428 4591 
z
" transform="scale(0.015625)"/>
     <path id="Helvetica-69" d="M 413 3331 
L 984 3331 
L 984 0 
L 413 0 
L 413 3331 
z
M 413 4591 
L 984 4591 
L 984 3953 
L 413 3953 
L 413 4591 
z
" transform="scale(0.015625)"/>
     <path id="Helvetica-74" d="M 525 4281 
L 1094 4281 
L 1094 3347 
L 1628 3347 
L 1628 2888 
L 1094 2888 
L 1094 703 
Q 1094 528 1213 469 
Q 1278 434 1431 434 
Q 1472 434 1519 436 
Q 1566 438 1628 444 
L 1628 0 
Q 1531 -28 1426 -40 
Q 1322 -53 1200 -53 
Q 806 -53 665 148 
Q 525 350 525 672 
L 525 2888 
L 72 2888 
L 72 3347 
L 525 3347 
L 525 4281 
z
" transform="scale(0.015625)"/>
     <path id="Helvetica-79" d="M 2503 3347 
L 3125 3347 
Q 3006 3025 2597 1878 
Q 2291 1016 2084 472 
Q 1597 -809 1397 -1090 
Q 1197 -1372 709 -1372 
Q 591 -1372 527 -1362 
Q 463 -1353 369 -1328 
L 369 -816 
Q 516 -856 581 -865 
Q 647 -875 697 -875 
Q 853 -875 926 -823 
Q 1000 -772 1050 -697 
Q 1066 -672 1162 -440 
Q 1259 -209 1303 -97 
L 66 3347 
L 703 3347 
L 1600 622 
L 2503 3347 
z
M 1597 3428 
L 1597 3428 
z
" transform="scale(0.015625)"/>
     <path id="Helvetica-53" d="M 894 1481 
Q 916 1091 1078 847 
Q 1388 391 2169 391 
Q 2519 391 2806 491 
Q 3363 684 3363 1184 
Q 3363 1559 3128 1719 
Q 2891 1875 2384 1991 
L 1763 2131 
Q 1153 2269 900 2434 
Q 463 2722 463 3294 
Q 463 3913 891 4309 
Q 1319 4706 2103 4706 
Q 2825 4706 3329 4357 
Q 3834 4009 3834 3244 
L 3250 3244 
Q 3203 3613 3050 3809 
Q 2766 4169 2084 4169 
Q 1534 4169 1293 3937 
Q 1053 3706 1053 3400 
Q 1053 3063 1334 2906 
Q 1519 2806 2169 2656 
L 2813 2509 
Q 3278 2403 3531 2219 
Q 3969 1897 3969 1284 
Q 3969 522 3414 194 
Q 2859 -134 2125 -134 
Q 1269 -134 784 303 
Q 300 738 309 1481 
L 894 1481 
z
M 2150 4716 
L 2150 4716 
z
" transform="scale(0.015625)"/>
     <path id="Helvetica-63" d="M 1703 3444 
Q 2269 3444 2623 3169 
Q 2978 2894 3050 2222 
L 2503 2222 
Q 2453 2531 2275 2736 
Q 2097 2941 1703 2941 
Q 1166 2941 934 2416 
Q 784 2075 784 1575 
Q 784 1072 996 728 
Q 1209 384 1666 384 
Q 2016 384 2220 598 
Q 2425 813 2503 1184 
L 3050 1184 
Q 2956 519 2581 211 
Q 2206 -97 1622 -97 
Q 966 -97 575 383 
Q 184 863 184 1581 
Q 184 2463 612 2953 
Q 1041 3444 1703 3444 
z
M 1616 3428 
L 1616 3428 
z
" transform="scale(0.015625)"/>
     <path id="Helvetica-6f" d="M 1741 363 
Q 2300 363 2508 786 
Q 2716 1209 2716 1728 
Q 2716 2197 2566 2491 
Q 2328 2953 1747 2953 
Q 1231 2953 997 2559 
Q 763 2166 763 1609 
Q 763 1075 997 719 
Q 1231 363 1741 363 
z
M 1763 3444 
Q 2409 3444 2856 3012 
Q 3303 2581 3303 1744 
Q 3303 934 2909 406 
Q 2516 -122 1688 -122 
Q 997 -122 590 345 
Q 184 813 184 1600 
Q 184 2444 612 2944 
Q 1041 3444 1763 3444 
z
M 1744 3428 
L 1744 3428 
z
" transform="scale(0.015625)"/>
     <path id="Helvetica-72" d="M 428 3347 
L 963 3347 
L 963 2769 
Q 1028 2938 1284 3180 
Q 1541 3422 1875 3422 
Q 1891 3422 1928 3419 
Q 1966 3416 2056 3406 
L 2056 2813 
Q 2006 2822 1964 2825 
Q 1922 2828 1872 2828 
Q 1447 2828 1219 2554 
Q 991 2281 991 1925 
L 991 0 
L 428 0 
L 428 3347 
z
" transform="scale(0.015625)"/>
     <path id="Helvetica-65" d="M 1806 3422 
Q 2163 3422 2497 3255 
Q 2831 3088 3006 2822 
Q 3175 2569 3231 2231 
Q 3281 2000 3281 1494 
L 828 1494 
Q 844 984 1069 676 
Q 1294 369 1766 369 
Q 2206 369 2469 659 
Q 2619 828 2681 1050 
L 3234 1050 
Q 3213 866 3089 639 
Q 2966 413 2813 269 
Q 2556 19 2178 -69 
Q 1975 -119 1719 -119 
Q 1094 -119 659 336 
Q 225 791 225 1609 
Q 225 2416 662 2919 
Q 1100 3422 1806 3422 
z
M 2703 1941 
Q 2669 2306 2544 2525 
Q 2313 2931 1772 2931 
Q 1384 2931 1121 2651 
Q 859 2372 844 1941 
L 2703 1941 
z
M 1753 3428 
L 1753 3428 
z
" transform="scale(0.015625)"/>
    </defs>
    <use xlink:href="#Helvetica-4d"/>
    <use xlink:href="#Helvetica-54" x="83.300781"/>
    <use xlink:href="#Helvetica-20" x="144.384766"/>
    <use xlink:href="#Helvetica-51" x="172.167969"/>
    <use xlink:href="#Helvetica-75" x="249.951172"/>
    <use xlink:href="#Helvetica-61" x="305.566406"/>
    <use xlink:href="#Helvetica-6c" x="361.181641"/>
    <use xlink:href="#Helvetica-69" x="383.398438"/>
    <use xlink:href="#Helvetica-74" x="405.615234"/>
    <use xlink:href="#Helvetica-79" x="433.398438"/>
    <use xlink:href="#Helvetica-20" x="483.398438"/>
    <use xlink:href="#Helvetica-53" x="511.181641"/>
    <use xlink:href="#Helvetica-63" x="577.880859"/>
    <use xlink:href="#Helvetica-6f" x="627.880859"/>
    <use xlink:href="#Helvetica-72" x="683.496094"/>
    <use xlink:href="#Helvetica-65" x="716.796875"/>
   </g>
  </g>
  <g id="text_20">
   <!-- Median Edited Quality Improvement -->
   <g transform="translate(10.96875 195.464829) rotate(-90) scale(0.1 -0.1)">
    <defs>
     <path id="Helvetica-64" d="M 769 1634 
Q 769 1097 997 734 
Q 1225 372 1728 372 
Q 2119 372 2370 708 
Q 2622 1044 2622 1672 
Q 2622 2306 2362 2611 
Q 2103 2916 1722 2916 
Q 1297 2916 1033 2591 
Q 769 2266 769 1634 
z
M 1616 3406 
Q 2000 3406 2259 3244 
Q 2409 3150 2600 2916 
L 2600 4606 
L 3141 4606 
L 3141 0 
L 2634 0 
L 2634 466 
Q 2438 156 2169 18 
Q 1900 -119 1553 -119 
Q 994 -119 584 351 
Q 175 822 175 1603 
Q 175 2334 548 2870 
Q 922 3406 1616 3406 
z
" transform="scale(0.015625)"/>
     <path id="Helvetica-6e" d="M 413 3347 
L 947 3347 
L 947 2872 
Q 1184 3166 1450 3294 
Q 1716 3422 2041 3422 
Q 2753 3422 3003 2925 
Q 3141 2653 3141 2147 
L 3141 0 
L 2569 0 
L 2569 2109 
Q 2569 2416 2478 2603 
Q 2328 2916 1934 2916 
Q 1734 2916 1606 2875 
Q 1375 2806 1200 2600 
Q 1059 2434 1017 2257 
Q 975 2081 975 1753 
L 975 0 
L 413 0 
L 413 3347 
z
M 1734 3428 
L 1734 3428 
z
" transform="scale(0.015625)"/>
     <path id="Helvetica-49" d="M 628 4591 
L 1256 4591 
L 1256 0 
L 628 0 
L 628 4591 
z
" transform="scale(0.015625)"/>
     <path id="Helvetica-6d" d="M 413 3347 
L 969 3347 
L 969 2872 
Q 1169 3119 1331 3231 
Q 1609 3422 1963 3422 
Q 2363 3422 2606 3225 
Q 2744 3113 2856 2894 
Q 3044 3163 3297 3292 
Q 3550 3422 3866 3422 
Q 4541 3422 4784 2934 
Q 4916 2672 4916 2228 
L 4916 0 
L 4331 0 
L 4331 2325 
Q 4331 2659 4164 2784 
Q 3997 2909 3756 2909 
Q 3425 2909 3186 2687 
Q 2947 2466 2947 1947 
L 2947 0 
L 2375 0 
L 2375 2184 
Q 2375 2525 2294 2681 
Q 2166 2916 1816 2916 
Q 1497 2916 1236 2669 
Q 975 2422 975 1775 
L 975 0 
L 413 0 
L 413 3347 
z
" transform="scale(0.015625)"/>
     <path id="Helvetica-70" d="M 1825 378 
Q 2219 378 2480 708 
Q 2741 1038 2741 1694 
Q 2741 2094 2625 2381 
Q 2406 2934 1825 2934 
Q 1241 2934 1025 2350 
Q 909 2038 909 1556 
Q 909 1169 1025 897 
Q 1244 378 1825 378 
z
M 369 3331 
L 916 3331 
L 916 2888 
Q 1084 3116 1284 3241 
Q 1569 3428 1953 3428 
Q 2522 3428 2919 2992 
Q 3316 2556 3316 1747 
Q 3316 653 2744 184 
Q 2381 -113 1900 -113 
Q 1522 -113 1266 53 
Q 1116 147 931 375 
L 931 -1334 
L 369 -1334 
L 369 3331 
z
" transform="scale(0.015625)"/>
     <path id="Helvetica-76" d="M 688 3347 
L 1581 622 
L 2516 3347 
L 3131 3347 
L 1869 0 
L 1269 0 
L 34 3347 
L 688 3347 
z
" transform="scale(0.015625)"/>
    </defs>
    <use xlink:href="#Helvetica-4d"/>
    <use xlink:href="#Helvetica-65" x="83.300781"/>
    <use xlink:href="#Helvetica-64" x="138.916016"/>
    <use xlink:href="#Helvetica-69" x="194.53125"/>
    <use xlink:href="#Helvetica-61" x="216.748047"/>
    <use xlink:href="#Helvetica-6e" x="272.363281"/>
    <use xlink:href="#Helvetica-20" x="327.978516"/>
    <use xlink:href="#Helvetica-45" x="355.761719"/>
    <use xlink:href="#Helvetica-64" x="422.460938"/>
    <use xlink:href="#Helvetica-69" x="478.076172"/>
    <use xlink:href="#Helvetica-74" x="500.292969"/>
    <use xlink:href="#Helvetica-65" x="528.076172"/>
    <use xlink:href="#Helvetica-64" x="583.691406"/>
    <use xlink:href="#Helvetica-20" x="639.306641"/>
    <use xlink:href="#Helvetica-51" x="667.089844"/>
    <use xlink:href="#Helvetica-75" x="744.873047"/>
    <use xlink:href="#Helvetica-61" x="800.488281"/>
    <use xlink:href="#Helvetica-6c" x="856.103516"/>
    <use xlink:href="#Helvetica-69" x="878.320312"/>
    <use xlink:href="#Helvetica-74" x="900.537109"/>
    <use xlink:href="#Helvetica-79" x="928.320312"/>
    <use xlink:href="#Helvetica-20" x="978.320312"/>
    <use xlink:href="#Helvetica-49" x="1006.103516"/>
    <use xlink:href="#Helvetica-6d" x="1033.886719"/>
    <use xlink:href="#Helvetica-70" x="1117.1875"/>
    <use xlink:href="#Helvetica-72" x="1172.802734"/>
    <use xlink:href="#Helvetica-6f" x="1206.103516"/>
    <use xlink:href="#Helvetica-76" x="1261.71875"/>
    <use xlink:href="#Helvetica-65" x="1311.71875"/>
    <use xlink:href="#Helvetica-6d" x="1367.333984"/>
    <use xlink:href="#Helvetica-65" x="1450.634766"/>
    <use xlink:href="#Helvetica-6e" x="1506.25"/>
    <use xlink:href="#Helvetica-74" x="1561.865234"/>
   </g>
  </g>
  <g id="patch_6">
   <path d="M 31.24975 59.111354 
L 192.024875 59.111354 
L 192.024875 45.097813 
L 31.24975 45.097813 
z
" style="fill: #cccccc; stroke: #7f7f7f; stroke-linejoin: miter"/>
  </g>
  <g id="text_21">
   <!-- Biomedical -->
   <g style="fill: #1a1a1a" transform="translate(90.117188 55.260896) scale(0.088 -0.088)">
    <defs>
     <path id="Helvetica-42" d="M 2213 2650 
Q 2606 2650 2825 2759 
Q 3169 2931 3169 3378 
Q 3169 3828 2803 3984 
Q 2597 4072 2191 4072 
L 1081 4072 
L 1081 2650 
L 2213 2650 
z
M 2422 531 
Q 2994 531 3238 863 
Q 3391 1072 3391 1369 
Q 3391 1869 2944 2050 
Q 2706 2147 2316 2147 
L 1081 2147 
L 1081 531 
L 2422 531 
z
M 472 4591 
L 2444 4591 
Q 3250 4591 3591 4109 
Q 3791 3825 3791 3453 
Q 3791 3019 3544 2741 
Q 3416 2594 3175 2472 
Q 3528 2338 3703 2169 
Q 4013 1869 4013 1341 
Q 4013 897 3734 538 
Q 3319 0 2413 0 
L 472 0 
L 472 4591 
z
" transform="scale(0.015625)"/>
    </defs>
    <use xlink:href="#Helvetica-42"/>
    <use xlink:href="#Helvetica-69" x="66.699219"/>
    <use xlink:href="#Helvetica-6f" x="88.916016"/>
    <use xlink:href="#Helvetica-6d" x="144.53125"/>
    <use xlink:href="#Helvetica-65" x="227.832031"/>
    <use xlink:href="#Helvetica-64" x="283.447266"/>
    <use xlink:href="#Helvetica-69" x="339.0625"/>
    <use xlink:href="#Helvetica-63" x="361.279297"/>
    <use xlink:href="#Helvetica-61" x="411.279297"/>
    <use xlink:href="#Helvetica-6c" x="466.894531"/>
   </g>
  </g>
  <g id="patch_7">
   <path d="M 195.624875 59.111354 
L 356.4 59.111354 
L 356.4 45.097813 
L 195.624875 45.097813 
z
" style="fill: #cccccc; stroke: #7f7f7f; stroke-linejoin: miter"/>
  </g>
  <g id="text_22">
   <!-- Social Media -->
   <g style="fill: #1a1a1a" transform="translate(250.823125 55.260896) scale(0.088 -0.088)">
    <use xlink:href="#Helvetica-53"/>
    <use xlink:href="#Helvetica-6f" x="66.699219"/>
    <use xlink:href="#Helvetica-63" x="122.314453"/>
    <use xlink:href="#Helvetica-69" x="172.314453"/>
    <use xlink:href="#Helvetica-61" x="194.53125"/>
    <use xlink:href="#Helvetica-6c" x="250.146484"/>
    <use xlink:href="#Helvetica-20" x="272.363281"/>
    <use xlink:href="#Helvetica-4d" x="300.146484"/>
    <use xlink:href="#Helvetica-65" x="383.447266"/>
    <use xlink:href="#Helvetica-64" x="439.0625"/>
    <use xlink:href="#Helvetica-69" x="494.677734"/>
    <use xlink:href="#Helvetica-61" x="516.894531"/>
   </g>
  </g>
  <g id="patch_8">
   <path d="M 63.426375 34.297813 
L 324.223375 34.297813 
L 324.223375 16.457813 
L 63.426375 16.457813 
z
" style="fill: #ffffff"/>
  </g>
  <g id="patch_9">
   <path d="M 65.426375 32.297813 
L 79.266375 32.297813 
L 79.266375 18.457813 
L 65.426375 18.457813 
L 65.426375 32.297813 
z
" clip-path="url(#pa7e9355077)" style="fill: none; stroke: #cccccc; stroke-linejoin: miter"/>
  </g>
  <g id="line2d_64">
   <path d="M 64.426375 25.377813 
L 80.266375 25.377813 
" clip-path="url(#pa7e9355077)" style="fill: none; stroke: #3949f5; stroke-width: 1.772454"/>
  </g>
  <g id="line2d_65">
   <path d="M 72.346375 25.377813 
" clip-path="url(#pa7e9355077)" style="fill: none; stroke: #1f77b4; stroke-width: 1.5; stroke-linecap: square"/>
   <defs>
    <path id="mf2af145644" d="M 0 2.215567 
C 0.587575 2.215567 1.151164 1.982121 1.566643 1.566643 
C 1.982121 1.151164 2.215567 0.587575 2.215567 0 
C 2.215567 -0.587575 1.982121 -1.151164 1.566643 -1.566643 
C 1.151164 -1.982121 0.587575 -2.215567 0 -2.215567 
C -0.587575 -2.215567 -1.151164 -1.982121 -1.566643 -1.566643 
C -1.982121 -1.151164 -2.215567 -0.587575 -2.215567 0 
C -2.215567 0.587575 -1.982121 1.151164 -1.566643 1.566643 
C -1.151164 1.982121 -0.587575 2.215567 0 2.215567 
z
" style="stroke: #3949f5; stroke-width: 0.886227"/>
   </defs>
   <g clip-path="url(#pa7e9355077)">
    <use xlink:href="#mf2af145644" x="72.346375" y="25.377813" style="fill: #3949f5; stroke: #3949f5; stroke-width: 0.886227"/>
   </g>
  </g>
  <g id="patch_10">
   <path d="M 64.426375 33.297813 
L 80.266375 33.297813 
L 80.266375 17.457813 
L 64.426375 17.457813 
z
" clip-path="url(#pa7e9355077)" style="fill: #3949f5; fill-opacity: 0.14902"/>
  </g>
  <g id="text_23">
   <!-- No Highlight -->
   <g transform="translate(81.706375 27.570938) scale(0.088 -0.088)">
    <defs>
     <path id="Helvetica-4e" d="M 488 4591 
L 1222 4591 
L 3541 872 
L 3541 4591 
L 4131 4591 
L 4131 0 
L 3434 0 
L 1081 3716 
L 1081 0 
L 488 0 
L 488 4591 
z
M 2269 4591 
L 2269 4591 
z
" transform="scale(0.015625)"/>
     <path id="Helvetica-48" d="M 503 4591 
L 1131 4591 
L 1131 2694 
L 3519 2694 
L 3519 4591 
L 4147 4591 
L 4147 0 
L 3519 0 
L 3519 2147 
L 1131 2147 
L 1131 0 
L 503 0 
L 503 4591 
z
" transform="scale(0.015625)"/>
     <path id="Helvetica-67" d="M 1594 3406 
Q 1988 3406 2281 3213 
Q 2441 3103 2606 2894 
L 2606 3316 
L 3125 3316 
L 3125 272 
Q 3125 -366 2938 -734 
Q 2588 -1416 1616 -1416 
Q 1075 -1416 706 -1173 
Q 338 -931 294 -416 
L 866 -416 
Q 906 -641 1028 -763 
Q 1219 -950 1628 -950 
Q 2275 -950 2475 -494 
Q 2594 -225 2584 466 
Q 2416 209 2178 84 
Q 1941 -41 1550 -41 
Q 1006 -41 598 345 
Q 191 731 191 1622 
Q 191 2463 602 2934 
Q 1013 3406 1594 3406 
z
M 2606 1688 
Q 2606 2309 2350 2609 
Q 2094 2909 1697 2909 
Q 1103 2909 884 2353 
Q 769 2056 769 1575 
Q 769 1009 998 714 
Q 1228 419 1616 419 
Q 2222 419 2469 966 
Q 2606 1275 2606 1688 
z
M 1659 3428 
L 1659 3428 
z
" transform="scale(0.015625)"/>
     <path id="Helvetica-68" d="M 413 4606 
L 975 4606 
L 975 2894 
Q 1175 3147 1334 3250 
Q 1606 3428 2013 3428 
Q 2741 3428 3000 2919 
Q 3141 2641 3141 2147 
L 3141 0 
L 2563 0 
L 2563 2109 
Q 2563 2478 2469 2650 
Q 2316 2925 1894 2925 
Q 1544 2925 1259 2684 
Q 975 2444 975 1775 
L 975 0 
L 413 0 
L 413 4606 
z
" transform="scale(0.015625)"/>
    </defs>
    <use xlink:href="#Helvetica-4e"/>
    <use xlink:href="#Helvetica-6f" x="72.216797"/>
    <use xlink:href="#Helvetica-20" x="127.832031"/>
    <use xlink:href="#Helvetica-48" x="155.615234"/>
    <use xlink:href="#Helvetica-69" x="227.832031"/>
    <use xlink:href="#Helvetica-67" x="250.048828"/>
    <use xlink:href="#Helvetica-68" x="305.664062"/>
    <use xlink:href="#Helvetica-6c" x="361.279297"/>
    <use xlink:href="#Helvetica-69" x="383.496094"/>
    <use xlink:href="#Helvetica-67" x="405.712891"/>
    <use xlink:href="#Helvetica-68" x="461.328125"/>
    <use xlink:href="#Helvetica-74" x="516.943359"/>
   </g>
  </g>
  <g id="patch_11">
   <path d="M 136.64025 32.297813 
L 150.48025 32.297813 
L 150.48025 18.457813 
L 136.64025 18.457813 
L 136.64025 32.297813 
z
" clip-path="url(#p0885238bf0)" style="fill: none; stroke: #cccccc; stroke-linejoin: miter"/>
  </g>
  <g id="line2d_66">
   <path d="M 135.64025 25.377813 
L 151.48025 25.377813 
" clip-path="url(#p0885238bf0)" style="fill: none; stroke: #1c9a0e; stroke-width: 1.772454"/>
  </g>
  <g id="line2d_67">
   <path d="M 143.56025 25.377813 
" clip-path="url(#p0885238bf0)" style="fill: none; stroke: #1f77b4; stroke-width: 1.5; stroke-linecap: square"/>
   <defs>
    <path id="mbaa4fdb868" d="M 0 2.215567 
C 0.587575 2.215567 1.151164 1.982121 1.566643 1.566643 
C 1.982121 1.151164 2.215567 0.587575 2.215567 0 
C 2.215567 -0.587575 1.982121 -1.151164 1.566643 -1.566643 
C 1.151164 -1.982121 0.587575 -2.215567 0 -2.215567 
C -0.587575 -2.215567 -1.151164 -1.982121 -1.566643 -1.566643 
C -1.982121 -1.151164 -2.215567 -0.587575 -2.215567 0 
C -2.215567 0.587575 -1.982121 1.151164 -1.566643 1.566643 
C -1.151164 1.982121 -0.587575 2.215567 0 2.215567 
z
" style="stroke: #1c9a0e; stroke-width: 0.886227"/>
   </defs>
   <g clip-path="url(#p0885238bf0)">
    <use xlink:href="#mbaa4fdb868" x="143.56025" y="25.377813" style="fill: #1c9a0e; stroke: #1c9a0e; stroke-width: 0.886227"/>
   </g>
  </g>
  <g id="patch_12">
   <path d="M 135.64025 33.297813 
L 151.48025 33.297813 
L 151.48025 17.457813 
L 135.64025 17.457813 
z
" clip-path="url(#p0885238bf0)" style="fill: #1c9a0e; fill-opacity: 0.14902"/>
  </g>
  <g id="text_24">
   <!-- Oracle -->
   <g transform="translate(152.92025 27.617) scale(0.088 -0.088)">
    <use xlink:href="#Helvetica-4f"/>
    <use xlink:href="#Helvetica-72" x="77.783203"/>
    <use xlink:href="#Helvetica-61" x="111.083984"/>
    <use xlink:href="#Helvetica-63" x="166.699219"/>
    <use xlink:href="#Helvetica-6c" x="216.699219"/>
    <use xlink:href="#Helvetica-65" x="238.916016"/>
   </g>
  </g>
  <g id="patch_13">
   <path d="M 185.837625 32.297813 
L 199.677625 32.297813 
L 199.677625 18.457813 
L 185.837625 18.457813 
L 185.837625 32.297813 
z
" clip-path="url(#pac6dd46372)" style="fill: none; stroke: #cccccc; stroke-linejoin: miter"/>
  </g>
  <g id="line2d_68">
   <path d="M 184.837625 25.377813 
L 200.677625 25.377813 
" clip-path="url(#pac6dd46372)" style="fill: none; stroke: #e6950a; stroke-width: 1.772454"/>
  </g>
  <g id="line2d_69">
   <path d="M 192.757625 25.377813 
" clip-path="url(#pac6dd46372)" style="fill: none; stroke: #1f77b4; stroke-width: 1.5; stroke-linecap: square"/>
   <defs>
    <path id="m23b7710852" d="M 0 2.215567 
C 0.587575 2.215567 1.151164 1.982121 1.566643 1.566643 
C 1.982121 1.151164 2.215567 0.587575 2.215567 0 
C 2.215567 -0.587575 1.982121 -1.151164 1.566643 -1.566643 
C 1.151164 -1.982121 0.587575 -2.215567 0 -2.215567 
C -0.587575 -2.215567 -1.151164 -1.982121 -1.566643 -1.566643 
C -1.982121 -1.151164 -2.215567 -0.587575 -2.215567 0 
C -2.215567 0.587575 -1.982121 1.151164 -1.566643 1.566643 
C -1.151164 1.982121 -0.587575 2.215567 0 2.215567 
z
" style="stroke: #e6950a; stroke-width: 0.886227"/>
   </defs>
   <g clip-path="url(#pac6dd46372)">
    <use xlink:href="#m23b7710852" x="192.757625" y="25.377813" style="fill: #e6950a; stroke: #e6950a; stroke-width: 0.886227"/>
   </g>
  </g>
  <g id="patch_14">
   <path d="M 184.837625 33.297813 
L 200.677625 33.297813 
L 200.677625 17.457813 
L 184.837625 17.457813 
z
" clip-path="url(#pac6dd46372)" style="fill: #e6950a; fill-opacity: 0.14902"/>
  </g>
  <g id="text_25">
   <!-- Unsupervised -->
   <g transform="translate(202.117625 27.627313) scale(0.088 -0.088)">
    <defs>
     <path id="Helvetica-55" d="M 1163 4591 
L 1163 1753 
Q 1163 1253 1350 922 
Q 1628 422 2288 422 
Q 3078 422 3363 963 
Q 3516 1256 3516 1753 
L 3516 4591 
L 4147 4591 
L 4147 2013 
Q 4147 1166 3919 709 
Q 3500 -122 2338 -122 
Q 1175 -122 759 709 
Q 531 1166 531 2013 
L 531 4591 
L 1163 4591 
z
M 2341 4591 
L 2341 4591 
z
" transform="scale(0.015625)"/>
     <path id="Helvetica-73" d="M 747 1050 
Q 772 769 888 619 
Q 1100 347 1625 347 
Q 1938 347 2175 483 
Q 2413 619 2413 903 
Q 2413 1119 2222 1231 
Q 2100 1300 1741 1391 
L 1294 1503 
Q 866 1609 663 1741 
Q 300 1969 300 2372 
Q 300 2847 642 3140 
Q 984 3434 1563 3434 
Q 2319 3434 2653 2991 
Q 2863 2709 2856 2384 
L 2325 2384 
Q 2309 2575 2191 2731 
Q 1997 2953 1519 2953 
Q 1200 2953 1036 2831 
Q 872 2709 872 2509 
Q 872 2291 1088 2159 
Q 1213 2081 1456 2022 
L 1828 1931 
Q 2434 1784 2641 1647 
Q 2969 1431 2969 969 
Q 2969 522 2630 197 
Q 2291 -128 1597 -128 
Q 850 -128 539 211 
Q 228 550 206 1050 
L 747 1050 
z
M 1578 3428 
L 1578 3428 
z
" transform="scale(0.015625)"/>
    </defs>
    <use xlink:href="#Helvetica-55"/>
    <use xlink:href="#Helvetica-6e" x="72.216797"/>
    <use xlink:href="#Helvetica-73" x="127.832031"/>
    <use xlink:href="#Helvetica-75" x="177.832031"/>
    <use xlink:href="#Helvetica-70" x="233.447266"/>
    <use xlink:href="#Helvetica-65" x="289.0625"/>
    <use xlink:href="#Helvetica-72" x="344.677734"/>
    <use xlink:href="#Helvetica-76" x="377.978516"/>
    <use xlink:href="#Helvetica-69" x="427.978516"/>
    <use xlink:href="#Helvetica-73" x="450.195312"/>
    <use xlink:href="#Helvetica-65" x="500.195312"/>
    <use xlink:href="#Helvetica-64" x="555.810547"/>
   </g>
  </g>
  <g id="patch_15">
   <path d="M 262.92 32.297813 
L 276.76 32.297813 
L 276.76 18.457813 
L 262.92 18.457813 
L 262.92 32.297813 
z
" clip-path="url(#p4290760115)" style="fill: none; stroke: #cccccc; stroke-linejoin: miter"/>
  </g>
  <g id="line2d_70">
   <path d="M 261.92 25.377813 
L 277.76 25.377813 
" clip-path="url(#p4290760115)" style="fill: none; stroke: #dc0d97; stroke-width: 1.772454"/>
  </g>
  <g id="line2d_71">
   <path d="M 269.84 25.377813 
" clip-path="url(#p4290760115)" style="fill: none; stroke: #1f77b4; stroke-width: 1.5; stroke-linecap: square"/>
   <defs>
    <path id="m6af0348e36" d="M 0 2.215567 
C 0.587575 2.215567 1.151164 1.982121 1.566643 1.566643 
C 1.982121 1.151164 2.215567 0.587575 2.215567 0 
C 2.215567 -0.587575 1.982121 -1.151164 1.566643 -1.566643 
C 1.151164 -1.982121 0.587575 -2.215567 0 -2.215567 
C -0.587575 -2.215567 -1.151164 -1.982121 -1.566643 -1.566643 
C -1.982121 -1.151164 -2.215567 -0.587575 -2.215567 0 
C -2.215567 0.587575 -1.982121 1.151164 -1.566643 1.566643 
C -1.151164 1.982121 -0.587575 2.215567 0 2.215567 
z
" style="stroke: #dc0d97; stroke-width: 0.886227"/>
   </defs>
   <g clip-path="url(#p4290760115)">
    <use xlink:href="#m6af0348e36" x="269.84" y="25.377813" style="fill: #dc0d97; stroke: #dc0d97; stroke-width: 0.886227"/>
   </g>
  </g>
  <g id="patch_16">
   <path d="M 261.92 33.297813 
L 277.76 33.297813 
L 277.76 17.457813 
L 261.92 17.457813 
z
" clip-path="url(#p4290760115)" style="fill: #dc0d97; fill-opacity: 0.14902"/>
  </g>
  <g id="text_26">
   <!-- Supervised -->
   <g transform="translate(279.2 27.702938) scale(0.088 -0.088)">
    <use xlink:href="#Helvetica-53"/>
    <use xlink:href="#Helvetica-75" x="66.699219"/>
    <use xlink:href="#Helvetica-70" x="122.314453"/>
    <use xlink:href="#Helvetica-65" x="177.929688"/>
    <use xlink:href="#Helvetica-72" x="233.544922"/>
    <use xlink:href="#Helvetica-76" x="266.845703"/>
    <use xlink:href="#Helvetica-69" x="316.845703"/>
    <use xlink:href="#Helvetica-73" x="339.0625"/>
    <use xlink:href="#Helvetica-65" x="389.0625"/>
    <use xlink:href="#Helvetica-64" x="444.677734"/>
   </g>
  </g>
 </g>
 <defs>
  <clipPath id="p5d763f9a6d">
   <rect x="31.24975" y="59.111354" width="160.775125" height="113.752262"/>
  </clipPath>
  <clipPath id="p6ea403206d">
   <rect x="195.624875" y="59.111354" width="160.775125" height="113.752262"/>
  </clipPath>
  <clipPath id="pa7e9355077">
   <path d="M 64.426375 33.297813 
L 64.426375 17.457813 
L 80.266375 17.457813 
L 80.266375 33.297813 
"/>
  </clipPath>
  <clipPath id="p0885238bf0">
   <path d="M 135.64025 33.297813 
L 135.64025 17.457813 
L 151.48025 17.457813 
L 151.48025 33.297813 
"/>
  </clipPath>
  <clipPath id="pac6dd46372">
   <path d="M 184.837625 33.297813 
L 184.837625 17.457813 
L 200.677625 17.457813 
L 200.677625 33.297813 
"/>
  </clipPath>
  <clipPath id="p4290760115">
   <path d="M 261.92 33.297813 
L 261.92 17.457813 
L 277.76 17.457813 
L 277.76 33.297813 
"/>
  </clipPath>
 </defs>
</svg>
